<svg width="169" height="76" viewBox="0 0 169 76" fill="none" xmlns="http://www.w3.org/2000/svg">
<path d="M74.3372 34.0651C74.3372 34.6382 74.3992 35.103 74.5076 35.4438C74.6315 35.7846 74.7864 36.1564 75.0033 36.5592C75.0808 36.6831 75.1118 36.807 75.1118 36.9155C75.1118 37.0704 75.0188 37.2253 74.8174 37.3802L73.8415 38.0308C73.702 38.1238 73.5626 38.1703 73.4387 38.1703C73.2838 38.1703 73.1289 38.0928 72.974 37.9534C72.7571 37.721 72.5712 37.4731 72.4163 37.2253C72.2614 36.9619 72.1064 36.6676 71.936 36.3113C70.7277 37.7365 69.2096 38.4491 67.3816 38.4491C66.0803 38.4491 65.0424 38.0773 64.2833 37.3337C63.5242 36.5901 63.137 35.5987 63.137 34.3594C63.137 33.0426 63.6017 31.9737 64.5467 31.1682C65.4916 30.3626 66.7464 29.9599 68.342 29.9599C68.8688 29.9599 69.411 30.0063 69.9841 30.0838C70.5573 30.1612 71.146 30.2852 71.7656 30.4246V29.2937C71.7656 28.1164 71.5178 27.2953 71.0375 26.8151C70.5418 26.3349 69.7053 26.1025 68.5125 26.1025C67.9703 26.1025 67.4126 26.1645 66.8394 26.3039C66.2662 26.4433 65.7085 26.6137 65.1663 26.8306C64.9185 26.939 64.7326 27.001 64.6241 27.032C64.5157 27.063 64.4382 27.0785 64.3763 27.0785C64.1594 27.0785 64.051 26.9236 64.051 26.5982V25.8392C64.051 25.5913 64.0819 25.4054 64.1594 25.297C64.2368 25.1885 64.3763 25.0801 64.5931 24.9716C65.1353 24.6928 65.786 24.4604 66.5451 24.2745C67.3041 24.0731 68.1097 23.9802 68.9617 23.9802C70.8052 23.9802 72.1529 24.3985 73.0204 25.235C73.8725 26.0715 74.3062 27.3418 74.3062 29.0459V34.0651H74.3372ZM68.0477 36.4197C68.5589 36.4197 69.0856 36.3268 69.6433 36.1409C70.201 35.955 70.6967 35.6142 71.115 35.1494C71.3629 34.8551 71.5488 34.5298 71.6417 34.158C71.7346 33.7862 71.7966 33.337 71.7966 32.8103V32.1596C71.3474 32.0512 70.8671 31.9582 70.3714 31.8963C69.8757 31.8343 69.3955 31.8033 68.9152 31.8033C67.8773 31.8033 67.1182 32.0047 66.607 32.423C66.0958 32.8412 65.8479 33.4299 65.8479 34.2045C65.8479 34.9326 66.0338 35.4748 66.4211 35.8466C66.7929 36.2338 67.3351 36.4197 68.0477 36.4197ZM80.4872 38.0928C80.2084 38.0928 80.0225 38.0463 79.8986 37.9379C79.7746 37.8449 79.6662 37.6281 79.5733 37.3337L75.9328 25.3589C75.8399 25.0491 75.7934 24.8477 75.7934 24.7393C75.7934 24.4914 75.9173 24.352 76.1652 24.352H77.6833C77.9777 24.352 78.179 24.3985 78.2875 24.5069C78.4114 24.5999 78.5044 24.8167 78.5973 25.1111L81.1999 35.3663L83.6165 25.1111C83.694 24.8012 83.7869 24.5999 83.9108 24.5069C84.0348 24.414 84.2516 24.352 84.5305 24.352H85.7698C86.0641 24.352 86.2655 24.3985 86.3894 24.5069C86.5134 24.5999 86.6218 24.8167 86.6838 25.1111L89.1314 35.4903L91.8114 25.1111C91.9044 24.8012 92.0128 24.5999 92.1212 24.5069C92.2452 24.414 92.4466 24.352 92.7254 24.352H94.1661C94.414 24.352 94.5534 24.4759 94.5534 24.7393C94.5534 24.8167 94.5379 24.8942 94.5224 24.9871C94.5069 25.0801 94.4759 25.204 94.414 25.3744L90.6805 37.3492C90.5876 37.659 90.4792 37.8604 90.3552 37.9534C90.2313 38.0463 90.0299 38.1083 89.7666 38.1083H88.4343C88.14 38.1083 87.9386 38.0618 87.8146 37.9534C87.6907 37.8449 87.5823 37.6436 87.5203 37.3337L85.1192 27.3418L82.7335 37.3182C82.656 37.6281 82.5631 37.8294 82.4392 37.9379C82.3152 38.0463 82.0983 38.0928 81.8195 38.0928H80.4872ZM100.394 38.5111C99.5881 38.5111 98.7825 38.4181 98.0079 38.2322C97.2334 38.0463 96.6292 37.8449 96.2264 37.6126C95.9786 37.4731 95.8082 37.3182 95.7462 37.1788C95.6842 37.0394 95.6533 36.8845 95.6533 36.7451V35.955C95.6533 35.6297 95.7772 35.4748 96.0096 35.4748C96.1025 35.4748 96.1955 35.4903 96.2884 35.5212C96.3814 35.5522 96.5208 35.6142 96.6757 35.6762C97.2024 35.9085 97.7756 36.0944 98.3797 36.2183C98.9994 36.3423 99.6035 36.4042 100.223 36.4042C101.199 36.4042 101.958 36.2338 102.485 35.893C103.012 35.5522 103.29 35.0565 103.29 34.4214C103.29 33.9876 103.151 33.6313 102.872 33.337C102.593 33.0426 102.067 32.7793 101.308 32.5314L99.0614 31.8343C97.9305 31.478 97.094 30.9513 96.5827 30.2542C96.0715 29.5726 95.8082 28.8135 95.8082 28.0079C95.8082 27.3573 95.9476 26.7841 96.2264 26.2884C96.5053 25.7927 96.8771 25.3589 97.3418 25.0181C97.8066 24.6618 98.3333 24.3985 98.9529 24.2126C99.5726 24.0267 100.223 23.9492 100.905 23.9492C101.246 23.9492 101.602 23.9647 101.943 24.0112C102.299 24.0577 102.624 24.1196 102.95 24.1816C103.26 24.259 103.554 24.3365 103.833 24.4294C104.112 24.5224 104.328 24.6153 104.483 24.7083C104.7 24.8322 104.855 24.9562 104.948 25.0956C105.041 25.2195 105.087 25.3899 105.087 25.6068V26.3349C105.087 26.6602 104.964 26.8306 104.731 26.8306C104.607 26.8306 104.406 26.7686 104.143 26.6447C103.259 26.2419 102.268 26.0405 101.168 26.0405C100.285 26.0405 99.5881 26.18 99.1078 26.4743C98.6276 26.7686 98.3797 27.2179 98.3797 27.853C98.3797 28.2868 98.5346 28.6586 98.8445 28.9529C99.1543 29.2473 99.7275 29.5416 100.549 29.8049L102.748 30.5021C103.864 30.8584 104.669 31.3541 105.149 31.9892C105.63 32.6244 105.862 33.3525 105.862 34.158C105.862 34.8241 105.723 35.4283 105.459 35.955C105.18 36.4817 104.809 36.9464 104.328 37.3182C103.848 37.7055 103.275 37.9844 102.609 38.1857C101.912 38.4026 101.184 38.5111 100.394 38.5111Z" fill="#252F3E"/>
<path fill-rule="evenodd" clip-rule="evenodd" d="M103.321 46.0401C98.2248 49.8044 90.8199 51.8028 84.453 51.8028C75.53 51.8028 67.49 48.5032 61.4174 43.0192C60.9372 42.5855 61.3709 41.9968 61.9441 42.3376C68.5124 46.1485 76.6144 48.4567 84.9952 48.4567C90.6495 48.4567 96.8616 47.2794 102.578 44.8627C103.43 44.4754 104.158 45.4204 103.321 46.0401Z" fill="#FF9900"/>
<path fill-rule="evenodd" clip-rule="evenodd" d="M105.444 43.6234C104.793 42.7868 101.137 43.2206 99.4797 43.422C98.9839 43.484 98.9065 43.0502 99.3557 42.7249C102.268 40.68 107.055 41.2687 107.613 41.9503C108.17 42.6474 107.458 47.4342 104.731 49.727C104.313 50.0833 103.91 49.8974 104.096 49.4326C104.716 47.899 106.094 44.4444 105.444 43.6234Z" fill="#FF9900"/>
</svg>
