<svg width="47" height="29" viewBox="0 0 47 29" fill="none" xmlns="http://www.w3.org/2000/svg">
<path d="M13.5353 10.9607C13.5353 11.5339 13.5973 11.9986 13.7057 12.3394C13.8296 12.6802 13.9846 13.052 14.2014 13.4548C14.2789 13.5787 14.3099 13.7027 14.3099 13.8111C14.3099 13.966 14.2169 14.1209 14.0155 14.2758L13.0396 14.9265C12.9002 15.0194 12.7607 15.0659 12.6368 15.0659C12.4819 15.0659 12.327 14.9884 12.1721 14.849C11.9552 14.6166 11.7693 14.3688 11.6144 14.1209C11.4595 13.8576 11.3046 13.5632 11.1342 13.2069C9.92583 14.6321 8.40768 15.3447 6.57971 15.3447C5.27844 15.3447 4.24052 14.9729 3.48144 14.2294C2.72237 13.4858 2.33508 12.4943 2.33508 11.255C2.33508 9.93826 2.79982 8.86936 3.74479 8.06381C4.68976 7.25826 5.94456 6.85548 7.54017 6.85548C8.06687 6.85548 8.60907 6.90196 9.18225 6.97941C9.75543 7.05687 10.3441 7.1808 10.9638 7.32022V6.18936C10.9638 5.01202 10.7159 4.19097 10.2357 3.71074C9.73994 3.23051 8.90341 2.99814 7.71057 2.99814C7.16838 2.99814 6.61069 3.06011 6.03751 3.19953C5.46433 3.33895 4.90664 3.50936 4.36445 3.72624C4.11659 3.83467 3.93069 3.89664 3.82225 3.92762C3.71381 3.95861 3.63635 3.9741 3.57439 3.9741C3.35751 3.9741 3.24907 3.81918 3.24907 3.49387V2.73479C3.24907 2.48693 3.28005 2.30103 3.35751 2.19259C3.43497 2.08415 3.57439 1.97572 3.79127 1.86728C4.33346 1.58843 4.9841 1.35606 5.74317 1.17017C6.50225 0.968779 7.3078 0.875831 8.15982 0.875831C10.0033 0.875831 11.351 1.2941 12.2186 2.13063C13.0706 2.96716 13.5043 4.23745 13.5043 5.94149V10.9607H13.5353ZM7.24583 13.3154C7.75705 13.3154 8.28375 13.2224 8.84144 13.0365C9.39913 12.8506 9.89485 12.5098 10.3131 12.0451C10.561 11.7507 10.7469 11.4254 10.8398 11.0536C10.9328 10.6818 10.9947 10.2326 10.9947 9.70589V9.05525C10.5455 8.94681 10.0653 8.85386 9.56953 8.7919C9.07381 8.72993 8.59358 8.69895 8.11335 8.69895C7.07543 8.69895 6.31635 8.90034 5.80514 9.3186C5.29393 9.73687 5.04607 10.3255 5.04607 11.1001C5.04607 11.8282 5.23196 12.3704 5.61924 12.7422C5.99104 13.1295 6.53323 13.3154 7.24583 13.3154ZM19.6854 14.9884C19.4065 14.9884 19.2206 14.942 19.0967 14.8335C18.9728 14.7406 18.8643 14.5237 18.7714 14.2294L15.1309 2.25456C15.038 1.94473 14.9915 1.74335 14.9915 1.63491C14.9915 1.38705 15.1154 1.24762 15.3633 1.24762H16.8814C17.1758 1.24762 17.3772 1.2941 17.4856 1.40254C17.6095 1.49548 17.7025 1.71236 17.7954 2.0067L20.398 12.262L22.8146 2.0067C22.8921 1.69687 22.985 1.49548 23.109 1.40254C23.2329 1.30959 23.4498 1.24762 23.7286 1.24762H24.9679C25.2622 1.24762 25.4636 1.2941 25.5876 1.40254C25.7115 1.49548 25.8199 1.71236 25.8819 2.0067L28.3295 12.3859L31.0095 2.0067C31.1025 1.69687 31.2109 1.49548 31.3194 1.40254C31.4433 1.30959 31.6447 1.24762 31.9235 1.24762H33.3642C33.6121 1.24762 33.7515 1.37155 33.7515 1.63491C33.7515 1.71236 33.736 1.78982 33.7205 1.88277C33.705 1.97572 33.674 2.09965 33.6121 2.27005L29.8787 14.2448C29.7857 14.5547 29.6773 14.7561 29.5533 14.849C29.4294 14.942 29.228 15.0039 28.9647 15.0039H27.6324C27.3381 15.0039 27.1367 14.9574 27.0128 14.849C26.8888 14.7406 26.7804 14.5392 26.7184 14.2294L24.3173 4.23745L21.9316 14.2139C21.8542 14.5237 21.7612 14.7251 21.6373 14.8335C21.5133 14.942 21.2965 14.9884 21.0176 14.9884H19.6854ZM39.5917 15.4067C38.7862 15.4067 37.9806 15.3137 37.2061 15.1279C36.4315 14.942 35.8273 14.7406 35.4246 14.5082C35.1767 14.3688 35.0063 14.2139 34.9443 14.0744C34.8824 13.935 34.8514 13.7801 34.8514 13.6407V12.8506C34.8514 12.5253 34.9753 12.3704 35.2077 12.3704C35.3006 12.3704 35.3936 12.3859 35.4865 12.4169C35.5795 12.4479 35.7189 12.5098 35.8738 12.5718C36.4005 12.8042 36.9737 12.99 37.5779 13.114C38.1975 13.2379 38.8017 13.2999 39.4213 13.2999C40.3973 13.2999 41.1563 13.1295 41.6831 12.7887C42.2098 12.4479 42.4886 11.9521 42.4886 11.317C42.4886 10.8832 42.3492 10.5269 42.0703 10.2326C41.7915 9.93826 41.2648 9.6749 40.5057 9.42704L38.2595 8.72993C37.1286 8.37363 36.2921 7.84693 35.7809 7.14982C35.2696 6.4682 35.0063 5.70913 35.0063 4.90358C35.0063 4.25294 35.1457 3.67976 35.4246 3.18404C35.7034 2.68832 36.0752 2.25456 36.5399 1.91375C37.0047 1.55745 37.5314 1.2941 38.151 1.1082C38.7707 0.922305 39.4213 0.844849 40.1029 0.844849C40.4437 0.844849 40.8 0.86034 41.1409 0.906814C41.4972 0.953288 41.8225 1.01525 42.1478 1.07722C42.4576 1.15468 42.752 1.23213 43.0308 1.32508C43.3096 1.41803 43.5265 1.51098 43.6814 1.60392C43.8983 1.72785 44.0532 1.85178 44.1462 1.99121C44.2391 2.11514 44.2856 2.28554 44.2856 2.50242V3.23051C44.2856 3.55583 44.1617 3.72624 43.9293 3.72624C43.8054 3.72624 43.604 3.66427 43.3406 3.54034C42.4576 3.13756 41.4662 2.93618 40.3663 2.93618C39.4833 2.93618 38.7862 3.0756 38.3059 3.36993C37.8257 3.66427 37.5779 4.11352 37.5779 4.74866C37.5779 5.18242 37.7328 5.55421 38.0426 5.84855C38.3524 6.14288 38.9256 6.43722 39.7466 6.70057L41.9464 7.39768C43.0618 7.75398 43.8673 8.2497 44.3476 8.88485C44.8278 9.51999 45.0602 10.2481 45.0602 11.0536C45.0602 11.7198 44.9207 12.3239 44.6574 12.8506C44.3785 13.3773 44.0068 13.8421 43.5265 14.2139C43.0463 14.6011 42.4731 14.88 41.807 15.0814C41.1099 15.2983 40.3818 15.4067 39.5917 15.4067Z" fill="#252F3E"/>
<path fill-rule="evenodd" clip-rule="evenodd" d="M42.5196 22.9356C37.4229 26.7 30.0181 28.6983 23.6511 28.6983C14.7281 28.6983 6.68813 25.3987 0.615527 19.9148C0.135296 19.481 0.569053 18.8923 1.14223 19.2331C7.71055 23.044 15.8125 25.3522 24.1933 25.3522C29.8477 25.3522 36.0597 24.1749 41.776 21.7582C42.628 21.3709 43.3561 22.3159 42.5196 22.9356Z" fill="#FF9900"/>
<path fill-rule="evenodd" clip-rule="evenodd" d="M44.6418 20.5189C43.9912 19.6824 40.3352 20.1161 38.6777 20.3175C38.1819 20.3795 38.1045 19.9457 38.5537 19.6204C41.4661 17.5755 46.2529 18.1642 46.8106 18.8458C47.3683 19.5429 46.6557 24.3297 43.9292 26.6225C43.511 26.9788 43.1082 26.7929 43.2941 26.3281C43.9137 24.7945 45.2925 21.3399 44.6418 20.5189Z" fill="#FF9900"/>
</svg>
