<svg width="169" height="76" viewBox="0 0 169 76" fill="none" xmlns="http://www.w3.org/2000/svg">
<path fill-rule="evenodd" clip-rule="evenodd" d="M71.9693 23.5551C71.7173 23.0643 71.1125 22.7918 70.5764 22.9333C70.042 23.0554 69.6296 23.5657 69.6327 24.1138C69.6309 26.6082 69.6312 29.1026 69.6315 31.597C69.6317 33.3785 69.632 35.16 69.6314 36.9415L69.6311 37.0037L69.6309 37.0254L69.6309 37.0257C69.6291 37.2414 69.6273 37.4612 69.7053 37.6657C69.8643 38.1157 70.3056 38.4508 70.7843 38.4788C71.1789 38.5103 71.5814 38.3363 71.8308 38.0301C72.0214 37.8024 72.1171 37.5055 72.1131 37.2104V24.1577C72.1131 23.9496 72.0699 23.7393 71.9693 23.5551ZM99.21 23.5241C98.9432 23.0355 98.322 22.7834 97.7881 22.9454C97.276 23.0852 96.889 23.5823 96.8913 24.1135C96.8897 26.5568 96.8899 29.0004 96.8902 31.4438C96.8903 33.2765 96.8905 35.1091 96.8899 36.9416C96.8902 36.98 96.8899 37.0185 96.8896 37.0571C96.8883 37.2259 96.887 37.3959 96.9309 37.5602C97.0253 37.929 97.3041 38.2432 97.6567 38.3874C97.9751 38.5215 98.3501 38.5121 98.6614 38.3626C99.0421 38.1869 99.3186 37.8043 99.3614 37.388C99.3741 37.254 99.373 37.1194 99.3719 36.9848C99.3714 36.926 99.371 36.8672 99.3716 36.8084C99.3718 35.1517 99.3717 33.495 99.3716 31.8382V31.809C99.3714 29.3336 99.3713 26.8582 99.3721 24.3829C99.3814 24.09 99.3658 23.7815 99.21 23.5241ZM63.7201 27.5983C64.2452 27.4426 64.8512 27.6849 65.1233 28.1579C65.2449 28.355 65.2983 28.5875 65.297 28.8174L65.2971 30.5181V30.5182V30.5182V30.5182V30.5183V30.5183V30.5183V30.5184V30.5184V30.5184V30.5185V30.5185V30.5185V30.5186C65.2973 31.9357 65.2975 33.3527 65.2965 34.7695C65.3032 35.1898 65.0788 35.6029 64.7208 35.8248C64.3013 36.0986 63.7148 36.0764 63.3167 35.7733C63.0014 35.543 62.8104 35.1591 62.8162 34.7699L62.8159 33.6796C62.8154 32.0442 62.8149 30.4088 62.817 28.7735C62.8126 28.2383 63.2031 27.7363 63.7201 27.5983ZM78.7533 28.1556C78.4799 27.6816 77.8716 27.442 77.3461 27.6004C76.9458 27.7127 76.6127 28.0384 76.4983 28.4379C76.4441 28.6143 76.4454 28.799 76.4467 28.982V28.9821V28.9822V28.9823V28.9824V28.9826V28.9827V28.9828V28.9829V28.983V28.9831C76.4469 29.0179 76.4472 29.0525 76.447 29.0871C76.4475 29.9613 76.4473 30.8355 76.4471 31.7098V31.7099V31.7099V31.7099V31.71V31.71V31.7101V31.7101V31.7102V31.7102V31.7102V31.7103V31.7103C76.447 32.7303 76.4468 33.7503 76.4475 34.7703C76.4426 35.1373 76.6109 35.5012 76.8968 35.7333C77.278 36.0559 77.86 36.1101 78.2933 35.8602C78.6838 35.6476 78.935 35.2136 78.9279 34.7703C78.9288 33.7858 78.9287 32.8012 78.9286 31.8166V31.8166V31.8165V31.8165V31.8165V31.8165V31.8165V31.8165V31.8164V31.8164V31.8164V31.8164V31.8164C78.9284 30.8317 78.9283 29.8469 78.9292 28.8621C78.9341 28.6167 78.8829 28.3668 78.7533 28.1556ZM90.9734 27.6004C91.4984 27.442 92.1072 27.6816 92.3806 28.1556C92.5102 28.3668 92.5609 28.6167 92.556 28.8621C92.5554 29.7888 92.5556 30.7155 92.5557 31.6421C92.5559 32.6847 92.5561 33.7272 92.5551 34.7698C92.5614 35.2021 92.3236 35.6272 91.9477 35.8442C91.5305 36.0994 90.9622 36.0683 90.5739 35.7723C90.3165 35.5815 90.1357 35.289 90.0899 34.9722C90.072 34.8468 90.0728 34.72 90.0736 34.5938V34.5937C90.0737 34.5627 90.0739 34.5318 90.0738 34.5009C90.0747 33.6291 90.0745 32.7574 90.0742 31.8856V31.8759C90.074 30.8422 90.0737 29.8084 90.0752 28.7747C90.0707 28.2408 90.4586 27.7402 90.9734 27.6004ZM106.043 28.2105C105.79 27.7161 105.181 27.4449 104.643 27.5905C104.111 27.7161 103.702 28.2269 103.707 28.7732C103.705 30.1571 103.706 31.5412 103.706 32.9253V32.9253V32.9254V32.9254V32.9255V32.9255V32.9255V32.9256V32.9256V32.9257V32.9257C103.706 33.5405 103.706 34.1553 103.706 34.7701C103.699 35.1784 103.912 35.5804 104.253 35.8059C104.665 36.0912 105.252 36.0859 105.659 35.7935C105.99 35.5662 106.192 35.1704 106.187 34.7701C106.188 33.8102 106.188 32.8503 106.188 31.8903V31.8833C106.187 30.9215 106.187 29.9598 106.188 28.9982C106.196 28.7297 106.179 28.4492 106.043 28.2105ZM56.8007 31.0369C57.1876 30.8887 57.6468 30.9508 57.9785 31.1989C58.292 31.4252 58.4826 31.8055 58.4808 32.1912C58.4824 32.6193 58.4822 33.0475 58.4819 33.4757C58.4816 33.8771 58.4813 34.2786 58.4826 34.6799C58.4844 34.881 58.463 35.0865 58.3793 35.2715C58.2159 35.6576 57.8427 35.9456 57.4259 36.0038C57.0305 36.0659 56.6101 35.9208 56.338 35.6283C56.151 35.4362 56.0472 35.1796 56 34.9196V32.043C56.0686 31.5978 56.3723 31.1927 56.8007 31.0369ZM85.6349 31.6787C85.41 31.1613 84.803 30.8506 84.25 30.9744C83.7022 31.0792 83.2627 31.5869 83.2551 32.1456C83.2533 33.0349 83.2538 33.9247 83.2547 34.8145C83.2578 35.3249 83.619 35.8024 84.1039 35.9604C84.4637 36.078 84.8801 36.0301 85.194 35.8144C85.5374 35.5863 85.7533 35.1811 85.7453 34.7688C85.745 34.1962 85.7451 33.6233 85.7452 33.0504V33.0504V33.0504V33.0503V33.0503V33.0502V33.0502V33.0501V33.0501L85.7453 32.1904C85.7458 32.0142 85.707 31.8389 85.6349 31.6787ZM111.548 30.9755C112.242 30.8318 112.968 31.3998 112.99 32.1059C112.997 32.7976 112.996 33.4897 112.994 34.1816L112.994 34.1913C112.994 34.3977 112.993 34.604 112.993 34.8103C112.993 35.3841 112.538 35.914 111.969 36.0001C111.574 36.0707 111.151 35.9313 110.874 35.6429C110.646 35.413 110.519 35.0917 110.522 34.7695C110.522 34.3994 110.522 34.0294 110.522 33.6594V33.6594V33.6594V33.6593V33.6593V33.6593V33.6592V33.6592C110.522 33.2887 110.522 32.9182 110.522 32.5479C110.522 32.4999 110.522 32.4516 110.521 32.4032V32.403V32.4028V32.4027C110.519 32.1965 110.517 31.9882 110.588 31.7921C110.728 31.3727 111.111 31.0479 111.548 30.9755ZM68.6823 42.9834C67.2742 42.5471 65.7054 42.4681 64.3133 43.0082C63.2098 43.4303 62.2595 44.2513 61.7158 45.3008C61.1681 46.3375 61.0202 47.5579 61.2126 48.7069C61.3475 49.5111 61.678 50.285 62.1869 50.925C63.0112 51.9732 64.2786 52.6265 65.5936 52.8009C66.6285 52.9393 67.6852 52.8022 68.6818 52.5075C68.6865 51.9641 68.6857 51.4208 68.685 50.8776V50.8775V50.8775V50.8775V50.8775V50.8775V50.8775V50.8767C68.6845 50.5374 68.6841 50.198 68.6849 49.8585C68.1559 50.1333 67.5743 50.3094 66.9794 50.3605C66.3956 50.4155 65.7877 50.3494 65.2592 50.084C64.6322 49.7844 64.1534 49.2048 63.9615 48.5409C63.717 47.7026 63.8635 46.7343 64.43 46.054C64.8909 45.4895 65.6047 45.1659 66.3266 45.1184C67.1406 45.0621 67.9658 45.2489 68.6849 45.6315C68.6845 45.315 68.6848 44.9985 68.6851 44.682V44.6809C68.6857 44.115 68.6863 43.5492 68.6823 42.9834ZM78.9742 43.4605C79.6293 42.9107 80.4945 42.6786 81.3362 42.6346C82.2646 42.5987 83.1945 42.7212 84.0958 42.9391C84.1 43.4198 84.0993 43.9006 84.0985 44.3813C84.0982 44.6018 84.0979 44.8222 84.098 45.0426C83.3267 44.8602 82.5332 44.6916 81.7365 44.7679C81.3883 44.8092 81.0129 44.8931 80.7608 45.1536C80.5382 45.3768 80.5551 45.7638 80.7622 45.9914C80.9866 46.2444 81.3192 46.3571 81.6314 46.4614C81.7285 46.4925 81.8262 46.5227 81.9242 46.5531L81.9243 46.5531C82.5108 46.7348 83.1046 46.9187 83.6037 47.2864C84.2196 47.7169 84.668 48.3941 84.7655 49.1432C84.8613 49.9163 84.709 50.7413 84.2481 51.3817C83.8785 51.8991 83.3321 52.2706 82.7416 52.4969C81.9307 52.8138 81.0458 52.8883 80.1819 52.8435C79.4512 52.8111 78.724 52.7223 78.0048 52.5905C77.9935 52.0883 77.9955 51.5861 77.9974 51.0839C77.9983 50.829 77.9993 50.5741 77.9985 50.3192C78.9555 50.5647 79.949 50.7581 80.9407 50.6481C81.2939 50.6028 81.6688 50.5234 81.9418 50.2802C82.1814 50.0729 82.2419 49.6966 82.0856 49.4232C81.94 49.165 81.6675 49.0154 81.4039 48.9009C81.1836 48.8117 80.9573 48.7399 80.731 48.668L80.731 48.668C80.535 48.6058 80.3389 48.5435 80.1467 48.47C79.4476 48.2037 78.7631 47.7928 78.3597 47.1457C77.9959 46.5759 77.9126 45.8689 78.0083 45.2108C78.1023 44.5363 78.443 43.8941 78.9742 43.4605ZM94.7721 42.9848C93.8321 42.6861 92.8306 42.5672 91.8478 42.6626C90.4686 42.7953 89.1291 43.4676 88.2768 44.5682C87.1755 45.9626 86.9466 47.9295 87.5309 49.5848C87.9789 50.8616 89.0093 51.9 90.2593 52.4139C91.683 53.0215 93.3115 52.9482 94.7704 52.504C94.7742 51.9246 94.7735 51.3452 94.7729 50.7659L94.7729 50.7604C94.7726 50.4598 94.7723 50.1592 94.7726 49.8586C94.1198 50.1977 93.3854 50.3832 92.6484 50.3765C91.9159 50.3778 91.1642 50.1164 90.6539 49.5804C89.7223 48.6311 89.692 46.9616 90.584 45.9768C91.0462 45.4558 91.7311 45.1616 92.4218 45.1172C93.2345 45.0622 94.0561 45.2508 94.7739 45.6302C94.7723 45.1749 94.7726 44.7197 94.7729 44.2644C94.7732 43.8379 94.7734 43.4113 94.7721 42.9848ZM102.284 42.6393C103.416 42.5705 104.579 42.8301 105.539 43.4434C106.727 44.1859 107.56 45.4524 107.79 46.829C108.054 48.3188 107.653 49.9262 106.654 51.0761C106.117 51.7054 105.417 52.1917 104.645 52.4904C103.154 53.0576 101.408 52.9684 100.005 52.2002C99.145 51.7307 98.4308 51.0024 97.9819 50.1339C97.2618 48.7542 97.215 47.0483 97.8478 45.6277C98.3257 44.5391 99.2127 43.64 100.292 43.1372C100.915 42.8447 101.596 42.6783 102.284 42.6393ZM102.196 45.179C101.542 45.2842 100.934 45.6521 100.549 46.1904C100.027 46.9 99.9137 47.8742 100.225 48.6929C100.461 49.3293 100.965 49.8619 101.592 50.1281C102.51 50.5302 103.659 50.354 104.392 49.6662C105.113 49.012 105.386 47.9416 105.12 47.0141C104.954 46.4083 104.557 45.8669 104.021 45.5345C103.484 45.1964 102.821 45.0756 102.196 45.179ZM72.48 42.804L72.123 42.8045C72.1228 43.5884 72.1223 44.3723 72.1219 45.1562C72.1204 47.6648 72.1189 50.1733 72.1257 52.6818C72.8374 52.6803 73.5487 52.6807 74.2603 52.6812L74.6128 52.6814C74.6246 52.1524 74.6228 51.6233 74.621 51.0941V51.0941V51.0941C74.6199 50.7701 74.6187 50.446 74.6208 50.1221C74.6201 49.2206 74.6205 48.3192 74.6209 47.4177V47.4177V47.4177C74.6215 45.8801 74.6222 44.3427 74.6177 42.8053C73.9057 42.8023 73.1937 42.8032 72.4814 42.804H72.4812H72.48ZM110.51 51.3794C110.661 51.3796 110.812 51.3795 110.963 51.3795C111.165 51.3794 111.366 51.3793 111.568 51.3798C111.569 51.43 111.57 51.4806 111.572 51.5316C111.492 51.5331 111.412 51.5337 111.332 51.5344C111.265 51.5349 111.198 51.5355 111.131 51.5365C111.127 51.7129 111.127 51.8893 111.128 52.0658C111.13 52.2716 111.131 52.4775 111.123 52.6832C111.067 52.6824 111.012 52.6824 110.957 52.6828C110.943 52.458 110.945 52.2328 110.947 52.0076C110.948 51.8508 110.95 51.694 110.946 51.5374C110.835 51.5351 110.724 51.5342 110.614 51.5334H110.614L110.503 51.5325C110.505 51.481 110.507 51.43 110.51 51.3794ZM111.947 51.3848C111.855 51.3808 111.762 51.3772 111.67 51.3737C111.657 51.8104 111.658 52.2475 111.67 52.6842C111.725 52.6837 111.78 52.6837 111.837 52.6837C111.848 52.5101 111.846 52.3362 111.845 52.1623C111.843 51.9901 111.842 51.818 111.852 51.6462C111.932 51.8162 111.994 51.9935 112.055 52.171C112.115 52.3445 112.176 52.5181 112.253 52.6851C112.303 52.6837 112.353 52.6828 112.405 52.6824C112.478 52.5092 112.542 52.3322 112.606 52.1553C112.671 51.976 112.736 51.7967 112.811 51.6213C112.816 51.7721 112.814 51.9229 112.813 52.0738C112.812 52.2742 112.81 52.4746 112.822 52.6749C112.876 52.6789 112.93 52.6837 112.985 52.6886L113 52.6899V51.3701C112.979 51.3715 112.958 51.3728 112.938 51.3742C112.864 51.3789 112.791 51.3837 112.719 51.3892C112.654 51.5633 112.593 51.7388 112.532 51.9143C112.471 52.0881 112.41 52.2621 112.346 52.4348C112.254 52.2331 112.18 52.0242 112.106 51.8152C112.055 51.671 112.004 51.5267 111.947 51.3848Z" fill="#01BCEB"/>
</svg>
