<svg width="169" height="76" viewBox="0 0 169 76" fill="none" xmlns="http://www.w3.org/2000/svg">
<path d="M51.5748 28.376C46.1219 28.376 41.6848 32.6237 41.6848 37.876C41.6848 43.1139 46.1069 47.376 51.5748 47.376C57.0278 47.376 61.4648 43.1282 61.4648 37.876C61.4648 32.6237 57.0278 28.376 51.5748 28.376ZM58.2528 39.5406C58.2528 40.1146 57.9092 40.6169 57.2369 40.7317C56.0716 40.9325 53.6215 41.0474 51.5748 41.0474C49.5281 41.0474 47.078 40.9325 45.9127 40.7317C45.2404 40.6169 44.8968 40.1146 44.8968 39.5406V35.8382C44.8968 35.2642 45.36 34.7332 45.9127 34.6471C46.2563 34.5897 47.0631 34.5323 47.6905 34.5323C47.9296 34.5323 48.1238 34.7045 48.1238 34.9772V37.5746L51.5898 37.5029L55.0557 37.5746V34.9772C55.0557 34.7045 55.25 34.5323 55.489 34.5323C56.1164 34.5323 56.9232 34.5897 57.2668 34.6471C57.8345 34.7332 58.2827 35.2642 58.2827 35.8382C58.2528 37.058 58.2528 38.3065 58.2528 39.5406Z" fill="#ED2226"/>
<path d="M71.0214 42.54C67.9887 42.54 66.4648 40.4446 66.4648 38.12C66.4648 35.8096 68.0484 33.7287 71.0513 33.7287C72.2016 33.7287 73.0233 33.9727 73.7255 34.4032L72.859 35.7665C72.366 35.4651 71.8282 35.2786 71.0214 35.2786C69.393 35.2786 68.5265 36.5271 68.5265 38.0769C68.5265 39.67 69.3631 40.9901 71.0513 40.9901C72.0074 40.9901 72.5751 40.6745 73.0383 40.3443L73.8301 41.6504C73.3819 42.0377 72.3212 42.54 71.0214 42.54ZM77.4604 37.3164C76.4893 37.3164 76.1756 38.1056 76.1756 39.2537C76.1756 40.4017 76.564 41.2197 77.5351 41.2197C78.5211 41.2197 78.8498 40.4448 78.8498 39.2967C78.8348 38.1487 78.4464 37.3164 77.4604 37.3164ZM77.4903 42.54C75.2194 42.54 74.2334 40.904 74.2334 39.2966C74.2334 37.6893 75.2194 36.0103 77.4903 36.0103C79.7611 36.0103 80.7919 37.6319 80.7919 39.2392C80.777 40.8322 79.776 42.54 77.4903 42.54ZM83.6454 36.1683V40.1578C83.6454 40.7748 83.8694 41.0762 84.4821 41.0762C85.1393 41.0762 85.6323 40.4735 85.7669 40.33V36.1683H87.5896V40.5596C87.5896 41.3776 87.6792 42.0091 87.7688 42.3821H85.961C85.9014 42.2099 85.8415 41.8081 85.8267 41.5498C85.4829 41.9803 84.8106 42.5256 83.7351 42.5256C82.3009 42.5256 81.793 41.6502 81.793 40.5022V36.154H83.6455V36.1683H83.6454ZM92.0862 42.54C89.9947 42.54 88.7099 41.2339 88.7099 39.2824C88.7099 37.1872 90.159 36.0105 92.146 36.0105C93.1917 36.0105 93.8192 36.3118 94.1329 36.4984L93.5503 37.7038C93.2666 37.5316 92.8483 37.3451 92.2057 37.3451C91.1898 37.3451 90.6522 38.1056 90.6522 39.2393C90.6522 40.3729 91.16 41.191 92.2507 41.191C92.9977 41.191 93.4308 40.9327 93.625 40.8179L94.1778 41.9945C93.879 42.1812 93.2814 42.54 92.0862 42.54ZM99.0779 42.3964V38.3926C99.0779 37.7756 98.8538 37.4742 98.2413 37.4742C97.584 37.4742 97.076 38.0626 96.9416 38.2204V42.3821H95.1189V33.1978H96.9416V36.9002C97.2702 36.5558 97.8977 36.0105 98.9584 36.0105C100.393 36.0105 100.901 36.8858 100.901 38.0339V42.3821H99.0779V42.3964ZM104.217 41.0331C104.337 41.0762 104.606 41.1622 105.084 41.1622C106.025 41.1622 106.607 40.502 106.607 39.2248C106.607 38.0768 106.204 37.388 105.278 37.388C104.74 37.388 104.322 37.718 104.217 37.8472V41.0331ZM104.217 33.2121V36.6562C104.516 36.3692 105.084 36.0105 105.801 36.0105C107.414 36.0105 108.55 37.0724 108.55 39.225C108.55 41.3632 107.056 42.5401 105.084 42.5401C103.605 42.5401 102.708 42.1813 102.38 42.0378V33.1978H104.217V33.2121ZM112.897 39.6555H112.673C111.672 39.6555 110.97 39.9425 110.97 40.6457C110.97 41.0905 111.343 41.277 111.747 41.277C112.359 41.277 112.718 40.9327 112.897 40.7603V39.6555ZM113.091 42.3964C113.031 42.2384 113.001 41.9227 112.987 41.7362C112.703 42.0662 112.09 42.5542 111.179 42.5542C110.073 42.5543 109.222 41.9229 109.222 40.8035C109.222 39.1819 110.955 38.5937 112.673 38.5937H112.897V38.2491C112.897 37.7325 112.673 37.4168 111.866 37.4168C111.03 37.4168 110.462 37.833 110.223 37.9908L109.431 36.9289C109.82 36.5845 110.686 36.0248 112.075 36.0248C113.868 36.0248 114.72 36.6849 114.72 38.3496V40.5309C114.72 41.3919 114.809 41.9945 114.899 42.3964H113.091ZM118.006 42.54C116.841 42.54 116.094 42.2097 115.691 41.9514L116.303 40.7316C116.557 40.904 117.185 41.2484 117.902 41.2484C118.574 41.2484 118.948 41.0617 118.948 40.7174C118.948 40.3156 118.216 40.2007 117.289 39.7702C116.393 39.3541 115.87 38.8806 115.87 37.9333C115.87 36.7565 116.841 36.0103 118.32 36.0103C119.425 36.0103 120.113 36.3404 120.412 36.4982L119.784 37.6893C119.53 37.5458 119.022 37.3019 118.41 37.3019C117.797 37.3019 117.528 37.5028 117.528 37.8328C117.528 38.2346 118.126 38.3351 118.873 38.6221C119.889 39.0241 120.621 39.4831 120.621 40.5164C120.591 41.8511 119.605 42.54 118.006 42.54ZM125.521 38.5218C125.506 37.833 125.222 37.2733 124.445 37.2733C123.728 37.2733 123.31 37.7182 123.191 38.5218H125.521ZM124.834 41.2484C125.715 41.2484 126.193 40.9757 126.522 40.8179L127.105 41.9372C126.671 42.1668 126.014 42.54 124.669 42.54C122.488 42.54 121.248 41.2339 121.248 39.2393C121.248 37.259 122.668 36.0105 124.475 36.0105C126.522 36.0105 127.508 37.3738 127.284 39.6985H123.205C123.28 40.6313 123.788 41.2484 124.834 41.2484Z" fill="black"/>
</svg>
