<svg width="169" height="76" viewBox="0 0 169 76" fill="none" xmlns="http://www.w3.org/2000/svg">
<path fill-rule="evenodd" clip-rule="evenodd" d="M38 29.876H38.0472C40.3759 32.4042 43.069 34.6136 46.0043 36.4501C46.2429 36.6006 46.4829 36.75 46.7234 36.8992L46.9574 37.0443C48.6649 38.1024 50.3829 39.1671 51.8035 40.5818C52.7213 41.4736 53.4456 42.5548 53.8572 43.7536C52.9841 42.6124 51.9246 41.6077 50.7003 40.8242C49.9907 40.3521 49.2415 39.943 48.4922 39.5339L48.4911 39.5332C47.8291 39.1718 47.1671 38.8103 46.5322 38.4054C43.9845 36.8454 41.4802 35.1101 39.5912 32.803C38.9155 32.0007 38.4226 31.0771 38 30.1301V29.876ZM47.9078 31.6103C49.579 30.948 51.7223 31.3185 52.8655 32.7291C52.9137 32.9034 52.7745 33.007 52.6392 33.1077C52.5808 33.1512 52.5232 33.1942 52.4816 33.2421C52.3458 33.3376 52.2202 33.4521 52.0944 33.5669C51.8654 33.7756 51.6356 33.9849 51.3434 34.0821C50.7705 33.6091 50.0343 33.2103 49.2568 33.3974C48.2784 33.5597 47.627 34.5809 47.8292 35.5091C47.9612 36.5185 49.0958 37.2009 50.0936 36.9432C50.5162 36.8666 50.8585 36.618 51.1948 36.3737C51.246 36.3366 51.297 36.2995 51.3481 36.2632C51.62 36.3508 51.8336 36.5463 52.0468 36.7413C52.1659 36.8504 52.2849 36.9593 52.4138 37.0491C52.4628 37.1048 52.5294 37.1539 52.5968 37.2037C52.7444 37.3127 52.8956 37.4244 52.8716 37.6127C52.3459 38.2762 51.5553 38.7056 50.7318 38.9244C49.6122 38.0411 48.3967 37.2898 47.1816 36.5387L47.1794 36.5373C46.7251 36.2565 46.2708 35.9756 45.8214 35.6879C45.6823 35.5915 45.5309 35.5032 45.4266 35.3691C45.2765 33.7609 46.3639 32.175 47.9078 31.6103ZM67.7125 31.716C66.8152 31.303 65.7834 31.203 64.8099 31.3701C63.9817 31.5195 63.186 31.8889 62.5867 32.4701C61.1831 33.7724 61.0632 36.1183 62.296 37.5666C63.9259 39.5383 67.428 39.5489 69.0809 37.6007C69.9454 36.6089 70.1755 35.176 69.7687 33.9513C69.449 32.9677 68.668 32.1524 67.7125 31.716ZM63.8461 35.3948C63.7213 34.5783 64.2444 33.7265 65.0521 33.4666C65.9857 33.1136 67.1627 33.6101 67.4728 34.5501C67.8312 35.4736 67.296 36.6324 66.2981 36.9007C65.2289 37.2818 63.9247 36.5101 63.8461 35.3948ZM91.4121 32.3514C92.3228 31.1891 94.0543 31.0597 95.4094 31.4138C96.0803 31.5985 96.7572 31.8985 97.1859 32.455C96.8081 32.9314 96.4036 33.3879 95.9943 33.8385C95.941 33.8041 95.8876 33.7692 95.834 33.7341C95.2985 33.3837 94.739 33.0176 94.0665 33.0326L94.0416 33.0367C93.7983 33.0761 93.4628 33.1305 93.4114 33.4103C93.3666 33.7162 93.7092 33.8726 93.949 33.975L94.0127 33.9972L94.085 34.0217C94.1141 34.0315 94.1436 34.0411 94.173 34.0506L94.2159 34.0645C94.3644 34.1117 94.5146 34.1562 94.6653 34.2008L94.6671 34.2013C95.3508 34.4037 96.0402 34.6077 96.5828 35.0785C97.4934 35.8632 97.4729 37.4091 96.5682 38.1915C95.6758 38.9832 94.368 39.0985 93.2201 38.9456C92.2913 38.7903 91.3237 38.4432 90.7037 37.7244C90.6904 37.5041 90.8406 37.3394 90.9884 37.1771C91.0255 37.1363 91.0625 37.0957 91.0968 37.0543C91.1257 37.0195 91.1526 36.9842 91.1759 36.9479C91.256 36.8697 91.3251 36.7751 91.3945 36.6801L91.3953 36.6791C91.5282 36.497 91.6621 36.3134 91.8759 36.2409C92.5261 36.6738 93.2406 37.1362 94.0688 37.0891C94.3535 37.0609 94.7579 37.0185 94.8451 36.6962C94.8997 36.362 94.5109 36.2479 94.2542 36.1809C93.3326 35.9538 92.3578 35.702 91.6531 35.0444C90.9108 34.3632 90.8175 33.1503 91.4121 32.3514ZM56.849 31.4362C55.8711 31.4349 54.8932 31.4336 53.9153 31.4393L53.9164 32.4757V32.5477C53.9187 34.6703 53.921 36.7935 53.9128 38.9158C54.6926 38.9276 55.4725 38.924 56.2523 38.9182C56.2527 38.6452 56.2516 38.3722 56.2505 38.0991C56.2479 37.4893 56.2454 36.8793 56.2596 36.2699C56.834 36.2868 57.1708 36.7632 57.4698 37.1863C57.5044 37.2352 57.5385 37.2833 57.5723 37.3299C57.5946 37.3631 57.6168 37.3968 57.639 37.4308C57.6791 37.4922 57.7191 37.5548 57.7594 37.6179C58.1282 38.195 58.5233 38.8129 59.2397 38.9829C59.821 39.0676 60.556 39.1393 60.9884 38.6652C60.9805 38.3125 60.8879 37.9716 60.7953 37.6308C60.7449 37.4452 60.6945 37.2597 60.6577 37.0723C60.5879 37.065 60.5171 37.0624 60.4462 37.0597C60.2872 37.0537 60.1283 37.0477 59.9808 36.9899C59.8322 36.8313 59.7024 36.6575 59.5726 36.4835C59.4424 36.309 59.312 36.1343 59.1622 35.9746C59.6515 35.6782 60.1431 35.3146 60.3429 34.7664C60.6663 33.8876 60.4918 32.7888 59.7568 32.1487C59.1489 31.6123 58.3 31.4405 57.5009 31.437L56.849 31.4362ZM56.2596 34.7899C56.2439 34.297 56.2451 33.8029 56.2584 33.3099C56.3152 33.3107 56.3721 33.3107 56.4291 33.3103L56.5121 33.3094L56.5791 33.3083L56.6841 33.3063C56.9834 33.3006 57.2832 33.2948 57.5796 33.3323C58.2274 33.477 58.2867 34.5135 57.6606 34.7276C57.3438 34.8103 57.0153 34.8018 56.6877 34.7934C56.5446 34.7897 56.4015 34.786 56.2596 34.7899ZM69.9902 31.4629C70.6104 31.4216 71.2319 31.4305 71.8531 31.4393L72.1248 31.4431L72.3262 31.4453C72.3799 31.6009 72.4326 31.7569 72.4847 31.9131C72.517 32.0095 72.5488 32.106 72.5806 32.2026L72.6356 32.3711C72.6934 32.5482 72.7506 32.7254 72.8079 32.9027L72.8082 32.9037L72.8086 32.9048L72.809 32.9059L72.8093 32.9069L72.8097 32.908L72.8101 32.909L72.8104 32.9101C73.0856 33.7622 73.3607 34.6145 73.6885 35.4476C73.9838 34.6544 74.2605 33.8548 74.5372 33.0552C74.7234 32.5172 74.9097 31.9791 75.1016 31.4429C75.3784 31.4367 75.6553 31.4357 75.9324 31.4348C76.1244 31.4342 76.3164 31.4336 76.5087 31.4312C76.8141 32.2057 77.0845 32.9927 77.3547 33.7794C77.5164 34.2498 77.6779 34.7201 77.8468 35.1876C77.8843 35.277 77.9413 35.3547 78.0164 35.4194C78.4474 34.09 78.8882 32.7641 79.3314 31.4382C80.0967 31.4347 80.8608 31.4335 81.6261 31.4394C81.6545 31.7101 81.5503 31.9581 81.4467 32.2041C81.4089 32.2938 81.3713 32.3833 81.3403 32.4735C81.0599 33.1993 80.7766 33.9241 80.4933 34.6489C79.9397 36.0649 79.3861 37.4809 78.8542 38.9041C78.3711 38.9335 77.8867 38.9288 77.4036 38.9111C76.8901 37.5782 76.3658 36.2488 75.8318 34.9229C75.4003 35.8964 75.0212 36.8914 74.6426 37.8856C74.5723 38.0704 74.502 38.2552 74.4312 38.4398C74.3719 38.5943 74.3125 38.7487 74.2527 38.9029C73.7695 38.9335 73.2852 38.93 72.802 38.9088C72.1886 37.2984 71.5627 35.6924 70.937 34.0866L70.9333 34.0775L70.929 34.0663L70.9238 34.0531L70.918 34.0378L70.8931 33.9739L70.877 33.933L70.6091 33.2453L70.3306 32.5296L70.0847 31.897C70.0403 31.7677 70.0182 31.6333 69.9962 31.4995L69.9902 31.4629ZM84.0088 31.4361C83.5352 31.4366 83.0615 31.437 82.5879 31.4361C82.5845 32.8218 82.5848 34.2074 82.5852 35.593C82.5856 36.7015 82.5858 37.81 82.5842 38.9185C83.7491 38.9244 84.9141 38.9256 86.079 38.9197C87.0804 38.9161 88.1279 38.6844 88.9042 38.0373C89.7336 37.375 90.1356 36.3185 90.155 35.295C90.1877 34.3244 89.8995 33.315 89.2141 32.5891C88.4803 31.8161 87.3832 31.4538 86.3187 31.4397C85.5487 31.4346 84.7788 31.4353 84.0088 31.4361ZM84.908 33.8722L84.9069 33.3126C84.9823 33.316 85.0587 33.317 85.1359 33.3164C85.251 33.3156 85.3677 33.3114 85.4849 33.3071C86.0438 33.2871 86.6144 33.2666 87.078 33.6055C87.6532 34.015 87.8143 34.7597 87.7526 35.415C87.7393 36.1173 87.2572 36.822 86.5367 36.9961C86.1384 37.0756 85.7316 37.0637 85.3258 37.0518C85.2445 37.0494 85.1632 37.047 85.082 37.0453C85.0227 37.0441 84.9635 37.0433 84.9044 37.0432C84.9126 35.9862 84.9103 34.9292 84.908 33.8722ZM97.7902 31.4336C98.9144 31.4376 100.039 31.4369 101.163 31.4362C102.354 31.4354 103.545 31.4347 104.736 31.4395C104.76 32.0548 104.753 32.6713 104.742 33.2866C104.252 33.3144 103.761 33.3114 103.269 33.3085C103.123 33.3076 102.977 33.3067 102.831 33.3066C102.701 33.3065 102.57 33.3071 102.44 33.3089C102.436 34.0764 102.437 34.844 102.439 35.6117C102.441 36.7128 102.444 37.814 102.428 38.9148C101.731 38.9274 101.034 38.924 100.336 38.9207L100.092 38.9195C100.084 37.7156 100.085 36.5116 100.087 35.3077C100.087 34.6422 100.088 33.9767 100.087 33.3113C99.7131 33.3067 99.339 33.3074 98.9648 33.3081C98.5713 33.3089 98.1777 33.3096 97.7842 33.3042C97.7709 32.6807 97.7635 32.0571 97.7902 31.4336ZM107.192 31.4355C106.659 31.4356 106.125 31.4359 105.592 31.437C105.542 31.8774 105.546 32.3202 105.549 32.7627V32.7657C105.55 32.8612 105.551 32.9568 105.551 33.0523C105.557 33.7853 105.554 34.5184 105.55 35.2515C105.545 36.4729 105.539 37.6942 105.576 38.9147C106.351 38.9288 107.128 38.9241 107.905 38.9182C107.913 38.4848 107.912 38.0514 107.911 37.6181C107.909 37.1717 107.908 36.7254 107.917 36.2794C108.085 36.2829 108.254 36.2852 108.423 36.2841C108.916 37.1511 109.399 38.0241 109.861 38.9064C110.665 38.9347 111.471 38.9276 112.277 38.91C112.278 38.7405 112.238 38.5735 112.148 38.4276C112.04 38.2341 111.931 38.0409 111.822 37.8477C111.474 37.2304 111.126 36.6133 110.792 35.9888C111.305 35.6911 111.81 35.3053 112.015 34.7382C112.35 33.8253 112.115 32.6782 111.314 32.0617C110.689 31.5782 109.866 31.4323 109.086 31.4358L108.215 31.4357L107.192 31.4355ZM107.91 34.7888V33.3123C108.052 33.3142 108.196 33.3106 108.339 33.307C108.653 33.2991 108.968 33.2912 109.28 33.3405C109.887 33.517 109.96 34.4864 109.352 34.7111C109.028 34.8139 108.686 34.8035 108.346 34.7931C108.2 34.7886 108.054 34.7842 107.91 34.7888ZM115.131 31.4355C115.374 31.4353 115.617 31.4347 115.86 31.4336C115.88 33.3188 115.876 35.2048 115.871 37.0908V37.1191C115.87 37.72 115.869 38.3209 115.868 38.9218H115.861C115.088 38.923 114.316 38.9242 113.543 38.9207C113.542 38.4245 113.541 37.9282 113.54 37.432C113.536 35.433 113.532 33.4341 113.549 31.436C114.077 31.4352 114.604 31.436 115.131 31.4355ZM117.912 31.4363L117.336 31.4362C117.332 32.9033 117.333 34.3708 117.333 35.8385V36.0755C117.334 37.0239 117.334 37.9724 117.333 38.9209C117.994 38.9249 118.655 38.9238 119.317 38.9226L119.649 38.922C119.657 38.5395 119.655 38.157 119.654 37.7744C119.652 37.457 119.65 37.1395 119.655 36.822C119.628 36.5973 119.791 36.4438 119.947 36.2975L119.948 36.2962C119.994 36.253 120.039 36.2104 120.079 36.1667C120.194 36.3256 120.309 36.4851 120.423 36.6451C120.523 36.7864 120.624 36.9281 120.724 37.07L120.962 37.4091C121.319 37.9168 121.676 38.4245 122.045 38.9232C122.348 38.9165 122.652 38.92 122.955 38.9235C123.499 38.9298 124.044 38.9361 124.586 38.8832C124.498 38.5868 124.313 38.3392 124.13 38.0932L124.068 38.0095C124.036 37.966 124.004 37.9225 123.973 37.8785L123.46 37.1619C122.897 36.3755 122.334 35.5893 121.776 34.7997C122.238 34.1932 122.728 33.6084 123.218 33.0235C123.545 32.6338 123.872 32.244 124.19 31.8479C124.27 31.7543 124.304 31.6384 124.338 31.5238C124.345 31.5015 124.351 31.4793 124.358 31.4573C123.685 31.426 123.01 31.4314 122.336 31.4367L122.201 31.4378L121.932 31.4397C121.767 31.4185 121.676 31.5703 121.585 31.6726C121.357 31.9487 121.135 32.2291 120.912 32.5096C120.504 33.0225 120.097 33.5357 119.658 34.0232C119.657 33.9614 119.656 33.8995 119.655 33.8376L119.654 33.7228C119.652 33.4454 119.653 33.168 119.654 32.8905C119.656 32.4053 119.658 31.9199 119.641 31.435C119.065 31.4367 118.489 31.4365 117.912 31.4363ZM125.209 31.4374C126.248 31.4355 127.287 31.436 128.326 31.4365C129.218 31.4369 130.109 31.4373 131 31.4362V33.308C129.841 33.3103 128.683 33.3033 127.525 33.3115L127.528 34.3021C127.759 34.3033 127.989 34.3034 128.22 34.3032L128.554 34.3026C129.091 34.3016 129.628 34.3005 130.166 34.3092C130.175 34.8845 130.174 35.4609 130.167 36.0374C129.605 36.0472 129.044 36.0459 128.482 36.0446C128.165 36.0439 127.847 36.0432 127.529 36.0445L127.522 37.0456C128.25 37.0567 128.978 37.0553 129.706 37.0538C130.137 37.053 130.569 37.0521 131 37.0539V38.9233C130.172 38.9218 129.344 38.9222 128.517 38.9226C127.413 38.9232 126.309 38.9238 125.206 38.9198C125.206 38.0884 125.206 37.257 125.205 36.4256V36.3172C125.205 34.6906 125.204 33.064 125.209 31.4374ZM39.8577 35.2148C39.6819 35.046 39.5059 34.8771 39.3235 34.7148C39.6722 35.8772 40.4788 36.8419 41.3542 37.6749C43.3329 39.4948 45.7112 40.8466 48.1367 42.0219C50.3152 42.9748 52.5724 44.0231 54.0994 45.876H54.1696L54.0798 45.7196C53.7617 45.164 53.4413 44.6043 52.9852 44.1419C51.4635 42.5406 49.4681 41.4865 47.5187 40.4566L47.3218 40.3525C44.7823 39.036 42.3302 37.5172 40.2426 35.5795C40.1127 35.4598 39.9852 35.3374 39.8577 35.2148Z" fill="#EC3728"/>
</svg>
