<svg width="94" height="17" viewBox="0 0 94 17" fill="none" xmlns="http://www.w3.org/2000/svg">
<g clip-path="url(#clip0)">
<path d="M0.574219 0.755371H0.621445C2.95008 3.28361 5.6432 5.49302 8.57852 7.32949C10.5875 8.59654 12.6921 9.78242 14.3777 11.4612C15.2956 12.353 16.0197 13.4342 16.4314 14.633C15.5584 13.4918 14.4988 12.4871 13.2745 11.7036C11.9377 10.8142 10.4603 10.1483 9.10648 9.28478C6.55867 7.72478 4.05445 5.98949 2.16539 3.68243C1.48969 2.88008 0.996836 1.95655 0.574219 1.00949V0.755371Z" fill="#EC3728"/>
<path d="M10.482 2.48957C12.1531 1.82722 14.2964 2.19781 15.4396 3.6084C15.5086 3.85781 15.1937 3.96251 15.0557 4.12134C14.673 4.39075 14.3703 4.81075 13.9174 4.96134C13.3446 4.4884 12.6084 4.08957 11.831 4.27663C10.8525 4.43898 10.2011 5.46016 10.4033 6.3884C10.5353 7.39781 11.6699 8.08016 12.6677 7.82251C13.1545 7.73428 13.5348 7.41781 13.9223 7.14251C14.3461 7.27898 14.6282 7.67781 14.9879 7.9284C15.1441 8.10604 15.4807 8.21781 15.4456 8.49193C14.9201 9.15546 14.1293 9.58487 13.3059 9.80369C11.7668 8.58957 10.0473 7.62487 8.39555 6.56722C8.25629 6.47075 8.10492 6.38251 8.00078 6.2484C7.85063 4.64016 8.93805 3.05428 10.482 2.48957Z" fill="#EC3728"/>
<path d="M27.3842 2.24951C28.3577 2.08245 29.3895 2.18245 30.2868 2.5954C31.2422 3.03187 32.0232 3.84716 32.3429 4.83069C32.7498 6.0554 32.5197 7.48834 31.6551 8.4801C30.0022 10.4283 26.5002 10.4177 24.8703 8.44598C23.6375 6.99775 23.7574 4.65187 25.1609 3.34951C25.7603 2.76834 26.5559 2.39892 27.3842 2.24951ZM27.6263 4.34598C26.8186 4.60598 26.2955 5.45775 26.4202 6.27422C26.499 7.38951 27.8031 8.16128 28.8724 7.7801C29.8702 7.51187 30.4054 6.35304 30.047 5.42951C29.737 4.48951 28.56 3.99304 27.6263 4.34598Z" fill="#EC3728"/>
<path d="M53.9864 3.2306C54.8971 2.06824 56.6287 1.93883 57.9838 2.29295C58.6546 2.47765 59.3315 2.77765 59.7602 3.33412C59.3824 3.8106 58.9779 4.26707 58.5686 4.71765C57.9838 4.34001 57.3807 3.8953 56.6408 3.91177C56.3962 3.95177 56.039 4.00001 55.9857 4.28942C55.9409 4.5953 56.2836 4.75177 56.5234 4.85412C57.4182 5.17177 58.4221 5.32001 59.1572 5.95765C60.0678 6.74236 60.0472 8.28824 59.1426 9.0706C58.2502 9.86236 56.9423 9.97765 55.7944 9.82471C54.8656 9.66942 53.898 9.32236 53.278 8.60354C53.2587 8.28118 53.5892 8.07765 53.7503 7.82707C53.984 7.59883 54.1245 7.2306 54.4502 7.12001C55.1005 7.55295 55.815 8.0153 56.6432 7.96824C56.9278 7.94001 57.3323 7.89765 57.4195 7.5753C57.4739 7.24118 57.0852 7.12707 56.8285 7.06001C55.907 6.83295 54.9322 6.58118 54.2274 5.92354C53.4851 5.24236 53.3919 4.02942 53.9864 3.2306Z" fill="#EC3728"/>
<path d="M16.4895 2.31898C17.6847 2.31192 18.8799 2.31545 20.0751 2.31662C20.8743 2.32015 21.7232 2.49192 22.331 3.02839C23.0661 3.66839 23.2405 4.76721 22.9171 5.64604C22.7173 6.19427 22.2257 6.5578 21.7365 6.85427C22.0356 7.17309 22.2572 7.55192 22.5551 7.86957C22.7682 7.95309 23.0055 7.92839 23.232 7.95192C23.3361 8.48368 23.5505 9.00015 23.5626 9.54486C23.1303 10.019 22.3952 9.94721 21.814 9.86251C20.976 9.66368 20.5776 8.85192 20.1465 8.20957C19.8196 7.75898 19.4744 7.16839 18.8339 7.14957C18.8133 8.03192 18.8278 8.91545 18.8266 9.7978C18.0467 9.80368 17.2669 9.80721 16.4871 9.79545C16.4967 7.30368 16.4919 4.81074 16.4895 2.31898ZM18.8326 4.18957C18.8193 4.68251 18.8181 5.17662 18.8339 5.66957C19.3001 5.65662 19.7796 5.72604 20.2349 5.60721C20.861 5.3931 20.8016 4.35662 20.1538 4.21192C19.7166 4.15662 19.2722 4.19545 18.8326 4.18957Z" fill="#EC3728"/>
<path d="M32.5645 2.34243C33.3419 2.29067 34.1218 2.31773 34.9004 2.32479C35.3606 3.65655 35.7469 5.01537 36.2627 6.32714C36.7568 5.00008 37.1988 3.65537 37.6759 2.32243C38.1445 2.31185 38.6131 2.31655 39.083 2.31067C39.571 3.54832 39.9694 4.81773 40.4211 6.06714C40.4586 6.15655 40.5155 6.2342 40.5906 6.2989C41.0217 4.96949 41.4625 3.64361 41.9057 2.31773C42.671 2.3142 43.4351 2.31302 44.2004 2.3189C44.2392 2.68832 44.0309 3.01537 43.9146 3.35302C43.0864 5.49655 42.2326 7.63184 41.4286 9.78361C40.9454 9.81302 40.461 9.80832 39.9779 9.79067C39.4644 8.45773 38.9401 7.12832 38.4061 5.80243C37.8273 7.10832 37.3429 8.45302 36.827 9.78243C36.3439 9.81302 35.8595 9.80949 35.3763 9.78832C34.4839 7.44596 33.566 5.11302 32.659 2.77655C32.6105 2.63537 32.5887 2.48832 32.5645 2.34243Z" fill="#EC3728"/>
<path d="M45.162 2.31541C46.4057 2.31777 47.6493 2.31071 48.8929 2.31894C49.9573 2.33306 51.0545 2.69541 51.7883 3.46835C52.4737 4.19424 52.7619 5.20365 52.7292 6.17424C52.7098 7.19777 52.3078 8.25424 51.4783 8.91659C50.7021 9.56365 49.6546 9.79541 48.6532 9.79894C47.4882 9.80483 46.3233 9.80365 45.1584 9.79777C45.162 7.30365 45.156 4.80953 45.162 2.31541ZM47.481 4.19188C47.4834 5.43541 47.4882 6.67894 47.4785 7.92247C48.0223 7.92365 48.5744 7.98247 49.1109 7.87541C49.8314 7.7013 50.3134 6.99659 50.3267 6.29424C50.3884 5.63894 50.2274 4.89424 49.6522 4.48482C49.0261 4.02718 48.2051 4.22482 47.481 4.19188Z" fill="#EC3728"/>
<path d="M60.3645 2.31299C62.6798 2.32122 64.9951 2.30946 67.3104 2.31887C67.3346 2.93416 67.3273 3.55064 67.3164 4.16593C66.5499 4.20946 65.7822 4.17769 65.0145 4.18828C65.0036 6.05652 65.029 7.92593 65.0023 9.79416C64.2237 9.80828 63.4451 9.8024 62.6664 9.79887C62.6531 7.92946 62.664 6.06005 62.6616 4.19064C61.8939 4.18122 61.1261 4.19416 60.3584 4.18358C60.3451 3.56005 60.3378 2.93652 60.3645 2.31299Z" fill="#EC3728"/>
<path d="M68.1663 2.31653C69.3313 2.31418 70.4962 2.31536 71.6599 2.31536C72.4397 2.31183 73.2632 2.45771 73.888 2.94124C74.6897 3.55771 74.9246 4.70477 74.5892 5.61771C74.3845 6.18477 73.8795 6.57065 73.3661 6.8683C73.8045 7.6883 74.267 8.49536 74.7224 9.30712C74.812 9.453 74.8519 9.62006 74.8507 9.78947C74.0454 9.80712 73.239 9.81418 72.4349 9.78594C71.9735 8.90359 71.4904 8.03065 70.9975 7.16359C70.828 7.16477 70.6597 7.16241 70.4913 7.15889C70.4732 8.03771 70.4962 8.91771 70.4792 9.79771C69.7018 9.80359 68.9256 9.8083 68.1506 9.79418C68.0913 7.84124 68.1409 5.88594 68.1252 3.93183C68.124 3.393 68.1058 2.853 68.1663 2.31653ZM70.4841 4.19183C70.4841 4.68359 70.4841 5.17653 70.4841 5.6683C70.9624 5.653 71.4625 5.73771 71.9263 5.59065C72.5342 5.36594 72.4615 4.39653 71.8536 4.22006C71.4008 4.1483 70.9394 4.19771 70.4841 4.19183Z" fill="#EC3728"/>
<path d="M76.1233 2.31534C76.8935 2.31416 77.6637 2.31652 78.4338 2.31299C78.4605 4.80828 78.4447 7.30475 78.4423 9.80122C77.6673 9.8024 76.8923 9.80357 76.1173 9.80004C76.1137 7.30475 76.1015 4.80946 76.1233 2.31534Z" fill="#EC3728"/>
<path d="M79.9101 2.31531C80.679 2.31531 81.4468 2.31649 82.2157 2.31413C82.246 3.17649 82.2157 4.04002 82.2327 4.90237C82.9108 4.14825 83.515 3.33296 84.1592 2.55178C84.2501 2.44943 84.3409 2.29766 84.5068 2.31884C85.3145 2.31413 86.1246 2.29884 86.9323 2.33649C86.8899 2.47178 86.8596 2.61531 86.764 2.72707C85.9684 3.71766 85.1195 4.66825 84.3506 5.67884C85.0771 6.70825 85.8134 7.73178 86.5472 8.75766C86.7724 9.07884 87.0473 9.38002 87.1599 9.76237C86.3159 9.84472 85.4658 9.78355 84.6194 9.80237C83.9473 8.89531 83.3176 7.95884 82.6528 7.0459C82.4797 7.23766 82.1939 7.40943 82.229 7.70119C82.2193 8.40119 82.2387 9.10119 82.223 9.80119C81.4504 9.80237 80.679 9.80472 79.9077 9.80002C79.9101 7.30472 79.904 4.80943 79.9101 2.31531Z" fill="#EC3728"/>
<path d="M87.7835 2.31655C89.7137 2.31302 91.644 2.31773 93.5742 2.31538V4.18714C92.4153 4.18949 91.2577 4.18243 90.0988 4.19067C90.1 4.52126 90.1012 4.85067 90.1024 5.18126C90.9816 5.18596 91.8607 5.1742 92.7399 5.18831C92.7496 5.76361 92.7483 6.34008 92.7411 6.91655C91.8619 6.93184 90.9828 6.92008 90.1036 6.92361C90.1012 7.25773 90.0988 7.59067 90.0964 7.92478C91.2553 7.94243 92.4153 7.92831 93.5742 7.93302V9.80243C91.6428 9.7989 89.7113 9.80596 87.7798 9.7989C87.781 7.30478 87.7762 4.81067 87.7835 2.31655Z" fill="#EC3728"/>
<path d="M1.89758 5.59424C2.21243 5.87424 2.5079 6.17424 2.81668 6.45894C4.90434 8.39659 7.35649 9.91541 9.89582 11.2319C11.9072 12.2954 13.9864 13.366 15.5594 15.0213C16.0583 15.5272 16.3949 16.1495 16.7437 16.7554H16.6734C15.1464 14.9025 12.8893 13.8542 10.7108 12.9013C8.28527 11.726 5.90699 10.3742 3.92832 8.55424C3.05282 7.7213 2.24633 6.75659 1.89758 5.59424Z" fill="#EC3728"/>
</g>
<defs>
<clipPath id="clip0">
<rect width="93" height="16" fill="white" transform="translate(0.574219 0.755371)"/>
</clipPath>
</defs>
</svg>
