<svg width="169" height="76" viewBox="0 0 169 76" fill="none" xmlns="http://www.w3.org/2000/svg">
<path fill-rule="evenodd" clip-rule="evenodd" d="M50.7638 28.1857L50.7638 28.1857C47.9296 28.5172 45.0954 28.8487 42.2596 29.1687C42.7201 32.995 43.1914 36.8191 43.6627 40.6435L43.6627 40.6435L43.6627 40.6436C43.9155 42.6956 44.1684 44.7475 44.4196 46.7999C44.5723 46.7777 44.725 46.7557 44.8775 46.7337L44.8776 46.7337L44.8776 46.7337L44.8778 46.7337L44.8781 46.7336L44.8783 46.7336L44.8786 46.7336L44.8789 46.7335L44.8793 46.7334L44.88 46.7334C45.425 46.6548 45.9689 46.5764 46.5118 46.4877C46.357 46.3061 46.1849 46.1399 46.0128 45.9737L46.0128 45.9736C45.7925 45.7609 45.5723 45.5482 45.3885 45.3034C45.0695 44.7163 45.358 44.0053 45.7346 43.515C46.0418 43.143 46.4115 42.83 46.7809 42.5173C47.2725 42.101 47.7638 41.6852 48.1067 41.131C48.5326 40.4625 48.3697 39.5886 48.0626 38.9065C47.8203 38.5894 47.5123 38.3372 47.2044 38.0852L47.2044 38.0852L47.2043 38.0852L47.2043 38.0852L47.2043 38.0852L47.2043 38.0852L47.2043 38.0851L47.2043 38.0851L47.2043 38.0851C47.0378 37.9489 46.8714 37.8126 46.7154 37.6662C46.4863 36.7974 46.2708 35.9134 46.281 35.0073C47.0666 35.2568 48.2476 35.2245 48.5818 34.3184C48.7702 32.8898 48.1118 31.5103 47.501 30.2581C47.5685 30.5931 47.6601 30.9244 47.7517 31.2557L47.7517 31.2557L47.7517 31.2557L47.7517 31.2557L47.7517 31.2557L47.7517 31.2557L47.7517 31.2558L47.7517 31.2558L47.7517 31.2558L47.7517 31.2558L47.7517 31.2558L47.7517 31.2558C47.9273 31.8907 48.1029 32.5255 48.1084 33.1867C48.1373 34.1522 46.9292 35.0616 46.0655 34.4576C45.3003 33.9825 44.5961 33.2512 44.4078 32.3485C44.6436 30.9215 45.9162 29.5268 47.4365 29.6455C47.6049 29.7707 47.7591 29.9228 47.9136 30.0754L47.9136 30.0754C48.2683 30.4255 48.6251 30.7776 49.1604 30.8095C49.7407 30.6721 50.2633 30.3701 50.7741 30.0714C51.1696 29.9928 51.5688 30.0603 51.9683 30.1278C52.3879 30.1988 52.8078 30.2698 53.2242 30.1715C53.6157 30.073 53.847 29.7614 54.077 29.4516C54.3145 29.1316 54.5505 28.8137 54.96 28.7344C55.4405 28.6209 55.8377 28.98 56.1745 29.2846L56.1746 29.2846L56.1749 29.2849C56.2007 29.3082 56.2261 29.3312 56.2512 29.3537C56.9656 30.0799 57.6036 31.0301 57.5408 32.094C56.9384 32.0414 56.4786 31.6342 56.1393 31.1641C55.8261 30.7981 55.6768 30.3516 55.5272 29.904C55.4271 29.6046 55.3268 29.3047 55.1772 29.0279C55.1738 29.9442 55.3401 30.8451 55.6608 31.702C55.5187 31.6185 55.3787 31.5311 55.2386 31.4436L55.2386 31.4436L55.2386 31.4436L55.2386 31.4436L55.2385 31.4436L55.2385 31.4436L55.2385 31.4436L55.2385 31.4435L55.2384 31.4435L55.2384 31.4435L55.2384 31.4435C54.9518 31.2646 54.6647 31.0855 54.3593 30.9385C54.5414 31.1412 54.738 31.3335 54.9348 31.5261C55.3987 31.9799 55.8639 32.435 56.1427 33.0306C56.2982 33.3469 56.3369 33.6914 56.3756 34.0366V34.0366C56.3998 34.2525 56.424 34.4686 56.4769 34.6782C56.6012 34.8986 56.7529 35.1061 56.9047 35.3138C57.2027 35.7215 57.5012 36.1298 57.5934 36.6379C57.7461 37.3591 57.5035 38.0785 57.2422 38.7419C56.7874 38.8132 56.331 38.8692 55.8729 38.8913C55.9068 38.6673 55.9424 38.4433 55.9781 38.221L55.8805 38.3159C55.2897 38.8916 54.6295 39.5348 53.7485 39.5123C52.8156 39.4578 52.0178 38.986 51.2288 38.5195C50.9602 38.3607 50.6927 38.2025 50.4211 38.0615C50.7827 38.5832 51.2845 38.9701 51.7834 39.3547L51.7834 39.3548L51.7834 39.3548L51.7834 39.3548L51.7835 39.3548L51.7835 39.3548L51.7835 39.3549L51.7835 39.3549L51.7836 39.3549L51.7836 39.3549L51.7836 39.3549C51.8981 39.4432 52.0123 39.5313 52.1247 39.6209C51.6649 39.6718 51.205 39.7227 50.7469 39.7719L50.852 40.6048L50.852 40.6052L50.852 40.6052L50.852 40.6053L50.852 40.6053L50.852 40.6054L50.852 40.6054L50.8521 40.6055L50.8521 40.6055L50.8521 40.6056L50.8521 40.6056C51.0388 42.0868 51.2253 43.567 51.4239 45.0472C51.3454 45.0632 51.2277 45.0864 51.1099 45.1096L51.1095 45.1097L51.1083 45.1099C50.99 45.1333 50.8716 45.1566 50.7927 45.1727C50.5026 44.4024 50.1106 43.6219 49.4065 43.1502C48.8451 42.7353 48.1294 42.7213 47.4559 42.7082C47.3884 42.7069 47.3214 42.7056 47.2549 42.7039C47.4037 42.7463 47.5573 42.7827 47.7118 42.8193L47.7118 42.8193L47.7118 42.8193L47.7118 42.8193L47.7119 42.8193L47.7119 42.8193L47.7119 42.8193L47.7119 42.8193L47.712 42.8193L47.712 42.8193L47.712 42.8193C48.2621 42.9497 48.8243 43.0828 49.2283 43.5014C49.8493 44.1631 50.2124 45.0455 50.3414 45.9363C50.4602 46.7558 50.0716 47.7348 49.2334 48.0012C48.6489 48.2351 48.0426 48.0572 47.4669 47.8884C47.3992 47.8685 47.3319 47.8488 47.2651 47.8299C47.9404 48.741 49.3454 48.8734 50.1989 48.1455C50.7348 47.6413 50.8046 46.8936 50.8701 46.1924C50.8815 46.07 50.8928 45.9491 50.9064 45.8311C51.0023 45.8251 51.0977 45.8188 51.1932 45.8124C51.2886 45.806 51.3841 45.7997 51.4799 45.7937C51.502 45.9569 51.5236 46.1202 51.5452 46.2835L51.5452 46.2841L51.5453 46.2846L51.5454 46.2851L51.5454 46.2856L51.5455 46.2861L51.5456 46.2866L51.5456 46.2871L51.5457 46.2876L51.5458 46.2881L51.5458 46.2882C51.5954 46.6636 51.6451 47.0393 51.7005 47.4142C53.47 47.2044 55.2387 46.9899 57.0072 46.7754L57.0084 46.7752L57.0088 46.7752C58.7584 46.563 60.5079 46.3508 62.2578 46.1433C62.14 44.9434 62.0161 43.7441 61.8922 42.5448C61.729 40.9645 61.5658 39.384 61.4162 37.8019C61.345 37.796 61.2381 37.7867 61.1312 37.7773C61.0243 37.768 60.9174 37.7587 60.8461 37.7527C60.6944 36.0219 60.5252 34.2932 60.356 32.5644C60.179 30.7562 60.002 28.9481 59.845 27.1377C56.8168 27.4777 53.7903 27.8317 50.7638 28.1857ZM55.0753 39.7956C55.3051 39.6158 55.5342 39.4365 55.8321 39.3918C56.6355 39.2419 57.4396 39.0967 58.2438 38.9514L58.244 38.9514L58.2442 38.9514L58.2444 38.9513L58.2446 38.9513L58.2448 38.9513L58.245 38.9512L58.2452 38.9512L58.2453 38.9512L58.2455 38.9511L58.2457 38.9511C59.1156 38.794 59.9856 38.6369 60.8546 38.4738L60.876 38.7335L60.8762 38.7358L60.8764 38.7382L60.8766 38.74L60.8766 38.7411L60.8767 38.7419L60.8768 38.7427L60.8769 38.7436L60.8769 38.7437L60.8769 38.7439L60.8769 38.7441C61.0544 40.8953 61.2318 43.0451 61.4061 45.1965C60.2481 45.4049 59.0903 45.6147 57.9325 45.8246L57.9297 45.8251C55.9873 46.1771 54.0448 46.5292 52.1009 46.8746C51.9638 45.6734 51.8194 44.4731 51.6751 43.2728L51.675 43.2725L51.675 43.2722L51.6749 43.2719L51.6749 43.2715L51.6749 43.2712L51.6748 43.2709L51.6748 43.2706L51.6748 43.2703L51.6747 43.27L51.6747 43.2697C51.5494 42.2279 51.424 41.1861 51.3035 40.1435C51.4212 40.1292 51.5388 40.1119 51.6565 40.0947L51.6565 40.0947L51.6566 40.0947L51.6566 40.0946L51.6567 40.0946L51.6567 40.0946L51.6567 40.0946L51.6568 40.0946L51.6568 40.0946L51.6569 40.0946L51.6569 40.0946C51.9579 40.0505 52.2593 40.0062 52.5642 40.0111C52.7468 40.0356 52.9299 40.0801 53.1135 40.1248C53.542 40.2291 53.9727 40.3339 54.4052 40.1842C54.6626 40.1184 54.8693 39.9568 55.0753 39.7956ZM51.3376 33.3285C50.9117 33.3625 50.4622 33.3983 50.1406 33.7056C49.716 34.09 49.8134 34.872 50.3135 35.1472C50.6012 35.0735 50.8859 34.9871 51.1705 34.9007C51.359 34.8434 51.5474 34.7862 51.7366 34.7327C51.7582 34.318 51.6773 33.9132 51.5966 33.5098C51.5833 33.443 51.5699 33.3763 51.5571 33.3096C51.4852 33.3168 51.4117 33.3226 51.3376 33.3285ZM55.1683 33.9991C54.8883 33.6844 54.9626 33.2661 55.0294 32.8896L55.0343 32.8623C55.1137 32.8907 55.1993 32.9136 55.2861 32.9369C55.563 33.0111 55.8526 33.0887 55.9946 33.3561C56.1066 33.585 56.1228 33.8413 56.1389 34.0955C56.1447 34.188 56.1505 34.2802 56.1609 34.3707C56.0746 34.3529 55.9808 34.3446 55.8857 34.3362C55.6017 34.3112 55.3069 34.2852 55.1683 33.9991ZM116.788 34.3122C115.613 33.2263 113.873 33.1278 112.363 33.3247C111.116 33.4825 109.886 34.2002 109.384 35.393C108.725 36.9354 108.778 38.7594 109.44 40.2916C109.945 41.4811 111.143 42.2497 112.401 42.416C113.792 42.6009 115.343 42.5212 116.514 41.6643C117.559 40.8906 117.946 39.5366 117.992 38.2911C118.051 36.8947 117.84 35.3303 116.788 34.3122ZM110.892 36.367C111.121 35.6119 111.759 35.0028 112.533 34.8297C113.458 34.6227 114.544 34.6515 115.314 35.2726C116.044 35.8766 116.232 36.8845 116.239 37.7855C116.242 38.7 116.095 39.7198 115.399 40.3816C114.637 41.0772 113.493 41.123 112.535 40.9042C111.71 40.7192 111.06 40.032 110.855 39.2227C110.611 38.2945 110.609 37.2883 110.892 36.367ZM122.755 33.3327C124.087 33.141 125.461 33.2496 126.74 33.6704C126.739 34.1845 126.739 34.7003 126.739 35.2161C125.38 34.7003 123.813 34.4899 122.429 35.0278C121.519 35.3807 120.985 36.3292 120.931 37.2726C120.842 38.3704 120.995 39.6515 121.896 40.3981C122.766 41.0971 123.968 41.092 125.015 40.9037C125.032 40.3481 125.032 39.7936 125.031 39.2392V39.2385C125.031 39.0753 125.031 38.912 125.032 38.7488C124.717 38.7418 124.404 38.7407 124.09 38.7396H124.09C123.87 38.7388 123.651 38.738 123.432 38.7352L123.434 38.7299C123.621 38.2311 123.809 37.7323 123.995 37.2319C124.681 37.2344 125.367 37.2341 126.053 37.2338L126.739 37.2336C126.739 38.8353 126.739 40.4371 126.74 42.0372C125.091 42.609 123.223 42.6972 121.572 42.0948C120.357 41.6537 119.521 40.5033 119.291 39.2544C119.034 37.8308 119.047 36.2376 119.846 34.9803C120.478 33.9944 121.633 33.4939 122.755 33.3327ZM67.5425 33.3098H67.5424H67.5424H67.5423H67.5422H67.5421H67.5421C66.9693 33.3132 66.3966 33.3165 65.8241 33.3108C65.8258 36.3497 65.8258 39.3903 65.8241 42.4293C66.4123 42.4198 67.0009 42.4251 67.5896 42.4305H67.5896H67.5896H67.5897H67.5897H67.5898H67.5898C68.5804 42.4395 69.5711 42.4486 70.5598 42.3868C71.9325 42.2867 73.2288 41.3959 73.6683 40.0674C74.1637 38.5657 74.2299 36.852 73.6411 35.3673C73.1219 34.0743 71.7255 33.3905 70.3918 33.3346C69.4424 33.2986 68.4924 33.3042 67.5425 33.3098ZM67.5209 40.9582C67.5226 38.8983 67.5226 36.8401 67.5209 34.7819C67.8791 34.8034 68.2456 34.7933 68.6133 34.7832C69.4908 34.759 70.375 34.7346 71.1689 35.1399C72.1157 35.6354 72.394 36.7977 72.3482 37.7852C72.3363 38.844 72.036 40.0809 71.0281 40.6188C70.2666 41.0049 69.4198 40.9809 68.5793 40.9571H68.5793C68.223 40.947 67.8679 40.937 67.5209 40.9582ZM77.7406 33.7711C77.7621 33.733 77.7818 33.6877 77.8023 33.6407C77.8775 33.4683 77.9631 33.272 78.1818 33.3147C78.5077 33.3031 78.8343 33.3052 79.1607 33.3073H79.1608C79.3628 33.3086 79.5648 33.3098 79.7666 33.3079L80.4101 34.7899C81.5145 37.3333 82.6193 39.8772 83.7133 42.4247C83.3499 42.4277 82.9858 42.4289 82.6219 42.4302L82.6209 42.4302C82.3786 42.431 82.1363 42.4318 81.8943 42.4331C81.7536 42.1279 81.6121 41.8228 81.4707 41.5178L81.4706 41.5177L81.4706 41.5177L81.4706 41.5176L81.4706 41.5175C81.2284 40.9952 80.9862 40.4728 80.7473 39.9491L80.0167 39.9493C79.2863 39.9496 78.5559 39.9499 77.8255 39.9474C78.0223 39.4587 78.214 38.97 78.4007 38.478C78.6705 38.4758 78.9406 38.4755 79.2107 38.4752C79.5709 38.4747 79.9312 38.4743 80.2909 38.4695C80.1935 38.2442 80.0964 38.0187 79.9992 37.7932L79.999 37.7927C79.6106 36.891 79.2222 35.9893 78.8164 35.0963C78.0952 36.8281 77.3902 38.5677 76.6852 40.3077C76.3983 41.0157 76.1113 41.7238 75.8233 42.4314C75.2413 42.4314 74.6593 42.4297 74.079 42.4264C74.6604 41.0424 75.2472 39.6607 75.8341 38.279L75.8342 38.2788L75.8343 38.2786L75.8344 38.2784L75.8345 38.2782L75.8346 38.2779L75.8347 38.2777L75.8348 38.2775L75.8349 38.2773L75.8349 38.2771L75.835 38.2768C76.4725 36.7761 77.11 35.2752 77.7406 33.7711ZM84.4834 33.3098L82.7516 33.31C82.7505 33.637 82.7509 33.9647 82.7512 34.2922C82.7514 34.4558 82.7516 34.6194 82.7516 34.7828C83.0006 34.7828 83.2497 34.7831 83.4987 34.7833H83.4988H83.499H83.4991H83.4992H83.4993H83.4994H83.4995H83.4996C84.1225 34.784 84.7457 34.7847 85.3697 34.7811C85.3691 35.7078 85.3694 36.6344 85.3697 37.5612V37.5613V37.5613V37.5614V37.5615C85.3702 39.1834 85.3707 40.8056 85.3663 42.4285L85.7911 42.4283C86.2163 42.4279 86.6414 42.4276 87.0665 42.4302C87.0665 41.7016 87.0668 40.9731 87.0671 40.2447V40.2446V40.2444V40.2442V40.244C87.0678 38.4231 87.0684 36.6025 87.0648 34.7811C87.7174 34.7836 88.37 34.7833 89.0233 34.783H89.0236L89.6778 34.7828C89.6745 34.2924 89.6745 33.8021 89.6778 33.3117C87.9472 33.3091 86.2156 33.3095 84.4837 33.3098H84.4836H84.4836H84.4835H84.4834ZM92.6504 33.3144C92.9143 33.313 93.1782 33.3124 93.442 33.3119C93.7939 33.3112 94.1455 33.3105 94.4965 33.3076C95.0665 34.6325 95.6407 35.9557 96.2149 37.2789L96.2156 37.2805L96.2163 37.282L96.2171 37.284L96.2174 37.2847C96.9602 38.9963 97.7029 40.7079 98.4364 42.4227C98.2761 42.4236 98.1155 42.4266 97.9549 42.4296H97.9548H97.9547H97.9547C97.5321 42.4375 97.1087 42.4454 96.6871 42.4159C96.3483 41.9419 96.118 41.4002 95.8876 40.8587C95.7569 40.5512 95.6261 40.2438 95.4756 39.9488C95.2316 39.9488 94.9878 39.949 94.744 39.9492H94.7439H94.7437H94.7436C94.0125 39.9499 93.2819 39.9505 92.5503 39.9454C92.7455 39.4567 92.9372 38.9647 93.1272 38.4743C93.3561 38.4737 93.5851 38.474 93.814 38.4742H93.8142C94.2147 38.4747 94.6152 38.4752 95.0157 38.4709C94.8778 38.1544 94.7413 37.8373 94.6048 37.5201L94.6047 37.5199C94.2561 36.7098 93.9076 35.8997 93.5345 35.1011C92.53 37.5394 91.539 39.9827 90.5532 42.4278C89.9712 42.4312 89.3875 42.4295 88.8055 42.4261C89.3799 41.0467 89.9654 39.6722 90.5509 38.2978C91.2574 36.6393 91.9638 34.9809 92.6504 33.3144ZM101.22 33.3097C100.663 33.3121 100.106 33.3145 99.5495 33.3107C99.5478 36.3496 99.5478 39.3902 99.5495 42.4292C100.152 42.4155 100.756 42.423 101.36 42.4305C102.405 42.4434 103.45 42.4564 104.49 42.3596C105.904 42.2103 107.144 41.1617 107.497 39.7788C107.886 38.2822 107.954 36.5973 107.278 35.172C106.686 33.9419 105.286 33.3616 103.983 33.326C103.062 33.3016 102.141 33.3056 101.22 33.3097ZM101.262 40.9564C101.253 38.8982 101.253 36.8417 101.262 34.7835C101.618 34.8052 101.984 34.7945 102.353 34.7837C103.277 34.7566 104.213 34.7291 105.025 35.2145C105.94 35.7829 106.14 36.9638 106.075 37.9598C106.041 38.9609 105.716 40.1029 104.77 40.6119C104.007 41.0054 103.156 40.9807 102.311 40.9563C101.958 40.946 101.606 40.9358 101.262 40.9564ZM54.5834 36.7575C55.274 36.3435 56.0884 36.2298 56.8791 36.2858C56.8214 36.8135 56.6874 37.3972 56.2242 37.7213C55.5471 37.84 54.8413 37.3802 54.5834 36.7575ZM59.4744 41.379C59.3191 41.7085 59.1638 42.038 59.0051 42.3661C58.8429 42.259 58.6807 42.1517 58.5185 42.0444C58.0866 41.7587 57.6543 41.4727 57.2201 41.1902C57.0064 41.5577 56.7877 41.9225 56.569 42.2873C56.2929 42.7479 56.0168 43.2085 55.7507 43.6743C55.4208 43.5844 55.0931 43.4897 54.7655 43.395C54.5116 43.3216 54.2578 43.2482 54.003 43.1771C53.8007 43.5081 53.5845 43.8305 53.3682 44.153C53.0822 44.5795 52.7962 45.0061 52.5421 45.4525C52.5172 45.6478 52.5224 45.843 52.5277 46.0389C52.5296 46.1103 52.5315 46.1818 52.5319 46.2534C54.8707 45.8271 57.2071 45.3936 59.5441 44.96C59.9792 44.8792 60.4144 44.7985 60.8495 44.7178C60.7825 44.0466 60.7219 43.3743 60.6613 42.7019C60.5671 41.6559 60.4728 40.6096 60.3541 39.5664C60.0471 40.1639 59.7608 40.7713 59.4744 41.379Z" fill="#632CA6"/>
</svg>
