<svg width="169" height="76" viewBox="0 0 169 76" fill="none" xmlns="http://www.w3.org/2000/svg">
<path d="M40.1019 47.0515V43.4931C43.8683 43.4931 46.7919 39.758 45.3457 35.7939C44.8151 34.3373 43.6394 33.1616 42.1723 32.6309C38.2083 31.1951 34.4731 34.1084 34.4731 37.8748H30.9252C30.9252 31.8714 36.7308 27.1894 43.0255 29.1559C45.7723 30.0194 47.9676 32.2044 48.8207 34.9511C50.7872 41.2458 46.1052 47.0515 40.1019 47.0515Z" fill="#0080FF"/>
<path fill-rule="evenodd" clip-rule="evenodd" d="M36.5643 39.9663H40.1122V43.5142H36.5643V39.9663Z" fill="#0080FF"/>
<path fill-rule="evenodd" clip-rule="evenodd" d="M33.849 46.2292V43.5137H36.5645V46.2292H33.849Z" fill="#0080FF"/>
<path fill-rule="evenodd" clip-rule="evenodd" d="M33.8488 43.5139H31.5702V41.2354H33.8488V43.5139Z" fill="#0080FF"/>
<path d="M63.4781 34.239C62.4588 33.5208 61.1614 33.1733 59.6788 33.1733H56.4354V43.4825H59.7019C61.1846 43.4825 62.4819 43.1119 63.5013 42.3474C64.0573 41.9535 64.4974 41.3975 64.8218 40.7025C65.1229 40.0075 65.2851 39.1735 65.2851 38.27C65.2851 37.3665 65.1229 36.5557 64.8218 35.8607C64.4974 35.1657 64.0573 34.6097 63.4781 34.239ZM58.3351 34.9108H59.3544C60.4896 34.9108 61.4163 35.1425 62.1344 35.5827C62.9221 36.0692 63.3159 36.9727 63.3159 38.27C63.3159 39.6137 62.9221 40.5635 62.1344 41.0732C61.4626 41.5134 60.5359 41.745 59.3776 41.745H58.3351V34.9108Z" fill="#0080FF"/>
<path d="M67.5325 33.0342C67.2082 33.0342 66.9533 33.15 66.7217 33.3585C66.5132 33.567 66.3973 33.8218 66.3973 34.1462C66.3973 34.4705 66.5132 34.7254 66.7217 34.957C66.9302 35.1655 67.2082 35.2814 67.5325 35.2814C67.8337 35.2814 68.1117 35.1655 68.3433 34.957C68.5518 34.7485 68.6677 34.4705 68.6677 34.1462C68.6677 33.8218 68.5518 33.567 68.3433 33.3585C68.1117 33.15 67.8337 33.0342 67.5325 33.0342Z" fill="#0080FF"/>
<path d="M66.6058 36.208H68.436V43.4824H66.6058V36.208Z" fill="#0080FF"/>
<path d="M75.0846 36.8101C74.5286 36.3236 73.9262 36.0225 73.2544 36.0225C72.2351 36.0225 71.4011 36.37 70.7524 37.065C70.1037 37.7368 69.7562 38.6171 69.7562 39.6828C69.7562 40.7021 70.0806 41.5825 70.7292 42.2775C71.3779 42.9493 72.2351 43.2968 73.2312 43.2968C73.9262 43.2968 74.5517 43.1115 75.0382 42.7176V42.8798C75.0382 43.4821 74.8761 43.9455 74.5517 44.2698C74.2274 44.5941 73.7872 44.7563 73.2312 44.7563C72.3972 44.7563 71.8644 44.432 71.2157 43.5516L69.9647 44.7563L69.9879 44.8026C70.2659 45.1733 70.6597 45.544 71.2157 45.8915C71.7486 46.239 72.4436 46.4243 73.2544 46.4243C74.3432 46.4243 75.2236 46.1 75.8722 45.4281C76.5209 44.7563 76.8452 43.876 76.8452 42.7871V36.1846H75.0382V36.8101H75.0846ZM74.5981 41.1191C74.2737 41.4898 73.8567 41.652 73.3471 41.652C72.8142 41.652 72.4204 41.4666 72.0961 41.1191C71.7717 40.7485 71.6327 40.2851 71.6327 39.706C71.6327 39.1036 71.7949 38.6403 72.0961 38.2696C72.3972 37.899 72.8374 37.7368 73.3471 37.7368C73.8799 37.7368 74.2737 37.9221 74.5981 38.2696C74.9224 38.6403 75.0846 39.1268 75.0846 39.706C75.0846 40.2851 74.9224 40.7485 74.5981 41.1191Z" fill="#0080FF"/>
<path d="M78.4437 36.208H80.2739V43.4824H78.4437V36.208Z" fill="#0080FF"/>
<path d="M79.3709 33.0342C79.0466 33.0342 78.7917 33.15 78.5601 33.3585C78.3516 33.567 78.2357 33.8218 78.2357 34.1462C78.2357 34.4705 78.3516 34.7254 78.5601 34.957C78.7686 35.1655 79.0466 35.2814 79.3709 35.2814C79.6721 35.2814 79.9501 35.1655 80.1817 34.957C80.3902 34.7485 80.5061 34.4705 80.5061 34.1462C80.5061 33.8218 80.3902 33.567 80.1817 33.3585C79.9501 33.15 79.6952 33.0342 79.3709 33.0342Z" fill="#0080FF"/>
<path d="M84.282 34.2388H82.475V36.2079H81.4325V37.8759H82.475V40.8876C82.475 41.8374 82.6603 42.5093 83.031 42.9031C83.4017 43.297 84.0735 43.4823 85.0002 43.4823C85.3013 43.4823 85.6025 43.4823 85.8805 43.4591H85.9732V41.7911L85.3477 41.8143C84.9075 41.8143 84.6295 41.7448 84.4905 41.5826C84.3515 41.4204 84.282 41.0961 84.282 40.6096V37.8528H85.9963V36.1848H84.282V34.2388Z" fill="#0080FF"/>
<path d="M94.5677 33.1499H96.3979V43.4823H94.5677V33.1499Z" fill="#0080FF"/>
<path d="M114.885 40.8875C114.561 41.2582 114.213 41.5825 113.959 41.7447C113.704 41.9069 113.379 41.9995 113.009 41.9995C112.476 41.9995 112.036 41.8142 111.688 41.3972C111.341 41.0034 111.155 40.4705 111.155 39.8682C111.155 39.2427 111.341 38.733 111.688 38.3392C112.036 37.9453 112.476 37.7369 113.009 37.7369C113.588 37.7369 114.213 38.1075 114.746 38.733L115.951 37.5747C115.163 36.5553 114.167 36.0688 112.962 36.0688C111.966 36.0688 111.086 36.4395 110.368 37.1577C109.65 37.8759 109.302 38.7794 109.302 39.8682C109.302 40.957 109.673 41.8605 110.368 42.5787C111.086 43.2969 111.943 43.6675 112.962 43.6675C114.283 43.6675 115.349 43.0884 116.09 42.0459L114.885 40.8875Z" fill="#0080FF"/>
<path d="M122.414 37.2274C122.159 36.8567 121.812 36.5787 121.372 36.3702C120.932 36.1617 120.422 36.0459 119.866 36.0459C118.847 36.0459 118.012 36.4166 117.387 37.1579C116.785 37.8992 116.46 38.8027 116.46 39.8916C116.46 41.0036 116.808 41.9071 117.456 42.6021C118.128 43.2971 119.009 43.6446 120.098 43.6446C121.325 43.6446 122.345 43.1349 123.109 42.1619L123.156 42.1156L121.951 40.9572C121.835 41.0962 121.673 41.2352 121.534 41.3742C121.349 41.5364 121.186 41.6754 121.001 41.7681C120.723 41.9071 120.422 41.9766 120.074 41.9766C119.565 41.9766 119.148 41.8376 118.823 41.5364C118.522 41.2584 118.337 40.8877 118.29 40.4244H123.132L123.156 39.7526C123.156 39.2892 123.086 38.8259 122.97 38.4089C122.854 37.9919 122.669 37.5981 122.414 37.2274ZM118.406 38.9417C118.499 38.5942 118.661 38.2931 118.893 38.0846C119.148 37.8297 119.472 37.7139 119.843 37.7139C120.283 37.7139 120.63 37.8297 120.862 38.0846C121.071 38.3162 121.21 38.5942 121.233 38.9417H118.406Z" fill="#0080FF"/>
<path d="M129.434 36.7641C128.878 36.3007 128.114 36.0459 127.164 36.0459C126.562 36.0459 125.982 36.1849 125.473 36.4397C124.986 36.6714 124.523 37.0884 124.222 37.5981L124.245 37.6212L125.426 38.7332C125.913 37.9687 126.446 37.6907 127.164 37.6907C127.558 37.6907 127.859 37.7834 128.114 37.9919C128.345 38.2004 128.484 38.4552 128.484 38.7796V39.1271C128.021 38.9881 127.581 38.9186 127.141 38.9186C126.237 38.9186 125.496 39.1271 124.94 39.5441C124.384 39.9611 124.106 40.5866 124.106 41.3742C124.106 42.0692 124.338 42.6021 124.824 43.0191C125.311 43.4129 125.89 43.6214 126.585 43.6214C127.28 43.6214 127.928 43.3434 128.531 42.8569V43.4592H130.338V38.7796C130.268 37.9224 129.99 37.2274 129.434 36.7641ZM126.191 40.7024C126.399 40.5634 126.701 40.4939 127.071 40.4939C127.511 40.4939 127.975 40.5866 128.461 40.7487V41.4669C128.067 41.8376 127.535 42.0229 126.886 42.0229C126.562 42.0229 126.33 41.9534 126.145 41.8144C125.982 41.6754 125.89 41.5132 125.89 41.2816C125.89 41.0267 125.982 40.8414 126.191 40.7024Z" fill="#0080FF"/>
<path d="M137.31 36.9031C136.801 36.3239 136.083 36.0459 135.179 36.0459C134.461 36.0459 133.859 36.2544 133.418 36.6714V36.2312H131.635V43.4824H133.465V39.4746C133.465 38.9186 133.604 38.4784 133.859 38.1772C134.113 37.8761 134.461 37.7139 134.947 37.7139C135.364 37.7139 135.666 37.8529 135.897 38.1309C136.129 38.4089 136.245 38.8027 136.245 39.2661V43.4824H138.075V39.2661C138.075 38.2699 137.82 37.4591 137.31 36.9031Z" fill="#0080FF"/>
<path d="M92.2745 36.7641C91.7185 36.3007 90.954 36.0459 90.0042 36.0459C89.4018 36.0459 88.8227 36.1849 88.313 36.4397C87.8265 36.6714 87.3632 37.0884 87.062 37.5981L87.0852 37.6212L88.2667 38.7332C88.7532 37.9687 89.286 37.6907 90.0042 37.6907C90.398 37.6907 90.6992 37.7834 90.954 37.9919C91.1857 38.2004 91.3247 38.4552 91.3247 38.7796V39.1271C90.8613 38.9881 90.4212 38.9186 89.981 38.9186C89.0775 38.9186 88.3362 39.1271 87.7802 39.5441C87.2242 39.9611 86.9462 40.5866 86.9462 41.3742C86.9462 42.0692 87.1778 42.6021 87.6643 43.0191C88.1508 43.4129 88.73 43.6214 89.425 43.6214C90.12 43.6214 90.7687 43.3434 91.371 42.8569V43.4592H93.178V38.7796C93.1085 37.9224 92.8305 37.2274 92.2745 36.7641ZM89.0312 40.7024C89.2397 40.5634 89.5408 40.4939 89.9115 40.4939C90.3517 40.4939 90.815 40.5866 91.3015 40.7487V41.4669C90.9077 41.8376 90.3748 42.0229 89.7262 42.0229C89.4018 42.0229 89.1702 41.9534 88.9848 41.8144C88.8227 41.6754 88.73 41.5132 88.73 41.2816C88.73 41.0267 88.8227 40.8414 89.0312 40.7024Z" fill="#0080FF"/>
<path d="M103.047 43.6445C100.104 43.6445 97.7183 41.2583 97.7183 38.3161C97.7183 35.374 100.104 32.9878 103.047 32.9878C105.989 32.9878 108.375 35.374 108.375 38.3161C108.375 41.2583 105.989 43.6445 103.047 43.6445ZM103.047 34.8643C101.147 34.8643 99.5948 36.4165 99.5948 38.3161C99.5948 40.2158 101.147 41.768 103.047 41.768C104.946 41.768 106.498 40.2158 106.498 38.3161C106.498 36.4165 104.946 34.8643 103.047 34.8643Z" fill="#0080FF"/>
</svg>
