<svg width="108" height="19" viewBox="0 0 108 19" fill="none" xmlns="http://www.w3.org/2000/svg">
<path d="M9.25383 18.947V15.3887C13.0202 15.3887 15.9439 11.6535 14.4977 7.68939C13.967 6.23277 12.7913 5.05708 11.3243 4.52645C7.36023 3.09064 3.62505 6.00388 3.62505 9.77027H0.0771484C0.0771484 3.76693 5.88281 -0.915054 12.1775 1.05138C14.9242 1.91495 17.1196 4.09987 17.9727 6.84663C19.9392 13.1413 15.2572 18.947 9.25383 18.947Z" fill="#0080FF"/>
<path fill-rule="evenodd" clip-rule="evenodd" d="M5.71631 11.8617H9.26421V15.4096H5.71631V11.8617Z" fill="#0080FF"/>
<path fill-rule="evenodd" clip-rule="evenodd" d="M3.00098 18.125V15.4094H5.71653V18.125H3.00098Z" fill="#0080FF"/>
<path fill-rule="evenodd" clip-rule="evenodd" d="M3.00073 15.4097H0.722168V13.1311H3.00073V15.4097Z" fill="#0080FF"/>
<path d="M32.6301 6.13427C31.6107 5.41611 30.3134 5.0686 28.8307 5.0686H25.5874V15.3778H28.8539C30.3366 15.3778 31.6339 15.0071 32.6532 14.2426C33.2092 13.8488 33.6494 13.2928 33.9738 12.5978C34.2749 11.9028 34.4371 11.0688 34.4371 10.1653C34.4371 9.26178 34.2749 8.45094 33.9738 7.75594C33.6494 7.06094 33.2092 6.50494 32.6301 6.13427ZM27.4871 6.80611H28.5064C29.6416 6.80611 30.5682 7.03777 31.2864 7.47794C32.0741 7.96444 32.4679 8.86794 32.4679 10.1653C32.4679 11.5089 32.0741 12.4588 31.2864 12.9685C30.6146 13.4086 29.6879 13.6403 28.5296 13.6403H27.4871V6.80611Z" fill="#0080FF"/>
<path d="M36.6845 4.92969C36.3602 4.92969 36.1053 5.04552 35.8737 5.25402C35.6652 5.46252 35.5493 5.71736 35.5493 6.04169C35.5493 6.36602 35.6652 6.62086 35.8737 6.85253C36.0822 7.06103 36.3602 7.17686 36.6845 7.17686C36.9857 7.17686 37.2637 7.06103 37.4953 6.85253C37.7038 6.64403 37.8197 6.36602 37.8197 6.04169C37.8197 5.71736 37.7038 5.46252 37.4953 5.25402C37.2637 5.04552 36.9857 4.92969 36.6845 4.92969Z" fill="#0080FF"/>
<path d="M35.7578 8.10352H37.588V15.3779H35.7578V8.10352Z" fill="#0080FF"/>
<path d="M44.2365 8.70589C43.6805 8.21939 43.0782 7.91821 42.4064 7.91821C41.387 7.91821 40.553 8.26571 39.9044 8.96071C39.2557 9.63255 38.9082 10.5129 38.9082 11.5786C38.9082 12.5979 39.2325 13.4782 39.8812 14.1732C40.5299 14.8451 41.387 15.1926 42.3832 15.1926C43.0782 15.1926 43.7037 15.0072 44.1902 14.6134V14.7756C44.1902 15.3779 44.028 15.8412 43.7037 16.1656C43.3794 16.4899 42.9392 16.6521 42.3832 16.6521C41.5492 16.6521 41.0164 16.3277 40.3677 15.4474L39.1167 16.6521L39.1399 16.6984C39.4179 17.0691 39.8117 17.4397 40.3677 17.7872C40.9005 18.1347 41.5955 18.3201 42.4064 18.3201C43.4952 18.3201 44.3755 17.9957 45.0242 17.3239C45.6729 16.6521 45.9972 15.7717 45.9972 14.6829V8.08038H44.1902V8.70589H44.2365ZM43.75 13.0149C43.4257 13.3856 43.0087 13.5477 42.499 13.5477C41.9662 13.5477 41.5724 13.3624 41.248 13.0149C40.9237 12.6442 40.7847 12.1809 40.7847 11.6017C40.7847 10.9994 40.9469 10.5361 41.248 10.1654C41.5492 9.79472 41.9894 9.63255 42.499 9.63255C43.0319 9.63255 43.4257 9.81789 43.75 10.1654C44.0744 10.5361 44.2365 11.0226 44.2365 11.6017C44.2365 12.1809 44.0744 12.6442 43.75 13.0149Z" fill="#0080FF"/>
<path d="M47.5957 8.10352H49.4259V15.3779H47.5957V8.10352Z" fill="#0080FF"/>
<path d="M48.5229 4.92969C48.1985 4.92969 47.9437 5.04552 47.712 5.25402C47.5035 5.46252 47.3877 5.71736 47.3877 6.04169C47.3877 6.36602 47.5035 6.62086 47.712 6.85253C47.9205 7.06103 48.1985 7.17686 48.5229 7.17686C48.824 7.17686 49.102 7.06103 49.3337 6.85253C49.5422 6.64403 49.658 6.36602 49.658 6.04169C49.658 5.71736 49.5422 5.46252 49.3337 5.25402C49.102 5.04552 48.8472 4.92969 48.5229 4.92969Z" fill="#0080FF"/>
<path d="M53.434 6.13428H51.627V8.10345H50.5845V9.77145H51.627V12.7831C51.627 13.733 51.8123 14.4048 52.183 14.7986C52.5536 15.1925 53.2255 15.3778 54.1521 15.3778C54.4533 15.3778 54.7545 15.3778 55.0325 15.3546H55.1251V13.6866L54.4996 13.7098C54.0595 13.7098 53.7815 13.6403 53.6425 13.4781C53.5035 13.316 53.434 12.9916 53.434 12.5051V9.74828H55.1483V8.08028H53.434V6.13428Z" fill="#0080FF"/>
<path d="M63.7197 5.04553H65.5499V15.3779H63.7197V5.04553Z" fill="#0080FF"/>
<path d="M84.0373 12.7831C83.7129 13.1538 83.3654 13.4782 83.1106 13.6403C82.8558 13.8025 82.5314 13.8952 82.1608 13.8952C81.6279 13.8952 81.1878 13.7098 80.8403 13.2928C80.4928 12.899 80.3074 12.3662 80.3074 11.7638C80.3074 11.1383 80.4928 10.6286 80.8403 10.2348C81.1878 9.84098 81.6279 9.63248 82.1608 9.63248C82.7399 9.63248 83.3654 10.0031 83.8983 10.6286L85.1029 9.47031C84.3153 8.45098 83.3191 7.96448 82.1144 7.96448C81.1183 7.96448 80.2379 8.33515 79.5198 9.05332C78.8016 9.77148 78.4541 10.675 78.4541 11.7638C78.4541 12.8527 78.8248 13.7562 79.5198 14.4743C80.2379 15.1925 81.0951 15.5632 82.1144 15.5632C83.4349 15.5632 84.5006 14.984 85.2419 13.9415L84.0373 12.7831Z" fill="#0080FF"/>
<path d="M91.5662 9.12291C91.3113 8.75224 90.9638 8.47424 90.5236 8.26574C90.0835 8.05724 89.5738 7.94141 89.0178 7.94141C87.9985 7.94141 87.1645 8.31208 86.539 9.05341C85.9366 9.79475 85.6123 10.6982 85.6123 11.7871C85.6123 12.8991 85.9598 13.8026 86.6085 14.4976C87.2803 15.1926 88.1606 15.5401 89.2495 15.5401C90.4773 15.5401 91.4967 15.0304 92.2612 14.0574L92.3075 14.0111L91.1028 12.8527C90.987 12.9918 90.8248 13.1307 90.6858 13.2697C90.5005 13.4319 90.3383 13.5709 90.153 13.6636C89.875 13.8026 89.5738 13.8721 89.2263 13.8721C88.7166 13.8721 88.2996 13.7331 87.9753 13.4319C87.6741 13.1539 87.4888 12.7832 87.4425 12.3199H92.2843L92.3075 11.6481C92.3075 11.1847 92.238 10.7214 92.1222 10.3044C92.0063 9.88741 91.821 9.49358 91.5662 9.12291ZM87.5583 10.8372C87.651 10.4897 87.8131 10.1886 88.0448 9.98008C88.2996 9.72525 88.624 9.60941 88.9946 9.60941C89.4348 9.60941 89.7823 9.72525 90.014 9.98008C90.2225 10.2117 90.3615 10.4897 90.3846 10.8372H87.5583Z" fill="#0080FF"/>
<path d="M98.5862 8.65958C98.0302 8.19624 97.2657 7.94141 96.3158 7.94141C95.7135 7.94141 95.1343 8.08041 94.6246 8.33524C94.1381 8.56691 93.6748 8.98391 93.3736 9.49358L93.3968 9.51675L94.5783 10.6287C95.0648 9.86424 95.5977 9.58624 96.3158 9.58624C96.7097 9.58624 97.0108 9.67891 97.2657 9.88741C97.4973 10.0959 97.6363 10.3507 97.6363 10.6751V11.0226C97.173 10.8836 96.7328 10.8141 96.2927 10.8141C95.3892 10.8141 94.6478 11.0226 94.0918 11.4396C93.5358 11.8566 93.2578 12.4821 93.2578 13.2697C93.2578 13.9647 93.4895 14.4976 93.976 14.9146C94.4625 15.3084 95.0417 15.5169 95.7367 15.5169C96.4317 15.5169 97.0803 15.2389 97.6827 14.7524V15.3548H99.4897V10.6751C99.4202 9.81791 99.1422 9.12291 98.5862 8.65958ZM95.3428 12.5979C95.5513 12.4589 95.8525 12.3894 96.2232 12.3894C96.6633 12.3894 97.1267 12.4821 97.6132 12.6443V13.3624C97.2193 13.7331 96.6865 13.9184 96.0378 13.9184C95.7135 13.9184 95.4818 13.8489 95.2965 13.7099C95.1343 13.5709 95.0417 13.4088 95.0417 13.1771C95.0417 12.9222 95.1343 12.7369 95.3428 12.5979Z" fill="#0080FF"/>
<path d="M106.462 8.79858C105.953 8.21941 105.235 7.94141 104.331 7.94141C103.613 7.94141 103.011 8.14991 102.57 8.56691V8.12674H100.787V15.3779H102.617V11.3701C102.617 10.8141 102.756 10.3739 103.011 10.0727C103.265 9.77158 103.613 9.60941 104.099 9.60941C104.516 9.60941 104.818 9.74841 105.049 10.0264C105.281 10.3044 105.397 10.6982 105.397 11.1616V15.3779H107.227V11.1616C107.227 10.1654 106.972 9.35458 106.462 8.79858Z" fill="#0080FF"/>
<path d="M61.4265 8.65958C60.8705 8.19624 60.106 7.94141 59.1561 7.94141C58.5538 7.94141 57.9746 8.08041 57.465 8.33524C56.9785 8.56691 56.5151 8.98391 56.214 9.49358L56.2371 9.51675L57.4186 10.6287C57.9051 9.86424 58.438 9.58624 59.1561 9.58624C59.55 9.58624 59.8512 9.67891 60.106 9.88741C60.3377 10.0959 60.4767 10.3507 60.4767 10.6751V11.0226C60.0133 10.8836 59.5732 10.8141 59.133 10.8141C58.2295 10.8141 57.4881 11.0226 56.9321 11.4396C56.3761 11.8566 56.0981 12.4821 56.0981 13.2697C56.0981 13.9647 56.3298 14.4976 56.8163 14.9146C57.3028 15.3084 57.882 15.5169 58.577 15.5169C59.272 15.5169 59.9207 15.2389 60.523 14.7524V15.3548H62.33V10.6751C62.2605 9.81791 61.9825 9.12291 61.4265 8.65958ZM58.1831 12.5979C58.3916 12.4589 58.6928 12.3894 59.0635 12.3894C59.5037 12.3894 59.967 12.4821 60.4535 12.6443V13.3624C60.0597 13.7331 59.5268 13.9184 58.8781 13.9184C58.5538 13.9184 58.3221 13.8489 58.1368 13.7099C57.9746 13.5709 57.882 13.4088 57.882 13.1771C57.882 12.9222 57.9746 12.7369 58.1831 12.5979Z" fill="#0080FF"/>
<path d="M72.1986 15.54C69.2564 15.54 66.8702 13.1538 66.8702 10.2116C66.8702 7.26948 69.2564 4.8833 72.1986 4.8833C75.1408 4.8833 77.5269 7.26948 77.5269 10.2116C77.5269 13.1538 75.1408 15.54 72.1986 15.54ZM72.1986 6.7598C70.2989 6.7598 68.7467 8.31198 68.7467 10.2116C68.7467 12.1113 70.2989 13.6635 72.1986 13.6635C74.0983 13.6635 75.6504 12.1113 75.6504 10.2116C75.6504 8.31198 74.0983 6.7598 72.1986 6.7598Z" fill="#0080FF"/>
</svg>
