<svg width="129" height="24" viewBox="0 0 129 24" fill="none" xmlns="http://www.w3.org/2000/svg">
<path d="M6.93502 1.27767C7.2233 0.78384 7.94524 0.766293 8.24605 1.26263C9.08832 2.35557 9.81026 3.53624 10.6275 4.64924C11.5023 4.31584 12.4047 3.98996 13.3523 3.97241C14.3675 3.93481 15.3401 4.28074 16.2827 4.61163C17.1801 3.38834 17.9446 2.05225 18.9574 0.919204C19.5063 0.520632 20.0077 1.05707 20.3285 1.47069C21.7273 3.24546 23.106 5.03527 24.5173 6.80002C25.0939 7.52196 25.7281 8.22886 26.0389 9.11625C24.956 8.78285 24.2315 7.86538 23.3893 7.166C22.2512 6.20091 21.2134 5.10045 19.9475 4.29328C19.6618 5.01522 19.4236 5.75471 19.1679 6.48918C20.7171 6.97549 22.2161 7.81274 23.1361 9.19145C24.7981 11.4726 24.7229 14.8266 22.928 17.015C21.7699 18.5742 19.8773 19.3538 17.9948 19.5869C17.7416 20.2888 17.4734 21.0157 16.9469 21.5647C16.2676 22.3117 15.3126 22.6978 14.3976 23.0638C14.5706 22.5875 14.7611 22.1187 14.9416 21.6474C13.8511 21.838 12.7431 21.7953 11.6552 21.6073C11.8633 22.1012 12.0789 22.5925 12.2794 23.0888C10.6074 22.6326 9.09333 21.4043 8.8226 19.612C7.17066 19.3337 5.51872 18.682 4.40572 17.381C2.6109 15.4458 2.20731 12.3775 3.41305 10.0362C4.2503 8.27148 5.95238 7.13091 7.76225 6.5343C7.50405 5.82239 7.25839 5.11048 6.98015 4.40859C5.7368 5.29597 4.65138 6.37638 3.49327 7.37156C2.67858 8.0559 1.95162 8.89064 0.941406 9.30175C1.12691 8.37927 1.81626 7.70746 2.37526 6.99805C3.91941 5.11048 5.37082 3.1477 6.93502 1.27767ZM5.94235 9.57498C4.87699 9.98107 4.30545 11.1141 4.21772 12.1995C4.03723 14.6837 5.68667 17.188 8.04802 17.9901C8.99055 18.3235 10.1186 18.1831 10.8681 17.4963C11.743 16.7668 12.0037 15.5485 11.9034 14.4606C11.7831 12.7911 10.818 11.2771 9.52699 10.2543C8.53433 9.48975 7.14559 9.09369 5.94235 9.57498ZM18.7192 9.56495C16.3303 10.5501 14.6558 13.3 15.2098 15.8819C15.488 17.2807 16.8793 18.3636 18.3181 18.1355C21.429 17.7144 23.6124 14.1197 22.6623 11.1517C22.1334 9.57247 20.1957 8.88312 18.7192 9.56495Z" fill="#EE6A37"/>
<path d="M6.62402 13.102C6.63656 12.7411 6.64909 12.3776 6.66413 12.0166C7.70192 12.4377 8.72969 12.8814 9.76246 13.3176C9.78753 13.6986 9.80758 14.0771 9.83265 14.4557C8.79987 14.9746 7.7295 15.4157 6.64909 15.8243C6.64157 15.4634 6.63656 15.1024 6.63154 14.7414C7.22313 14.4682 7.81473 14.2025 8.40632 13.9292C7.81222 13.6535 7.21561 13.3853 6.62402 13.102Z" fill="#EE6A37"/>
<path d="M16.7916 13.4129C18.1803 13.4053 19.569 13.4053 20.9603 13.4129C20.9603 13.7763 20.9603 14.1423 20.9603 14.5058C19.569 14.5133 18.1803 14.5108 16.7891 14.5058C16.7891 14.1423 16.7891 13.7789 16.7916 13.4129Z" fill="#EE6A37"/>
<path d="M41.3602 6.36887C42.2802 6.32375 43.2027 6.31623 44.1227 6.38893C44.0801 7.20362 43.9723 8.0158 43.8068 8.81545C42.8944 8.87562 41.9794 8.8681 41.0645 8.83551C41.0795 8.00578 41.1798 7.17855 41.3602 6.36887Z" fill="#234A61"/>
<path d="M31.9199 7.2237C33.1983 6.50175 34.73 6.50677 36.1538 6.61957C37.2818 6.72485 38.5603 7.19612 39.0415 8.31162C39.3975 9.0837 39.1468 9.93348 38.9739 10.7181C38.0815 10.7457 37.1841 10.7532 36.2917 10.7005C36.2415 10.139 36.5047 9.3068 35.8028 9.05362C34.9957 8.84556 33.8376 8.823 33.4039 9.69033C33.1206 10.7482 33.1081 11.8587 32.9201 12.9366C32.8298 13.9869 32.504 15.0623 32.722 16.1126C33.3362 16.634 34.2938 16.644 35.0007 16.3232C35.6499 16.0224 35.5697 15.2027 35.7377 14.6211C35.0784 14.5985 34.4216 14.586 33.7624 14.5359C33.8125 13.7889 33.8977 13.0444 34.0356 12.3074C35.6123 12.1169 37.2091 12.1695 38.7934 12.2272C38.7658 13.6284 38.5703 15.0272 38.3096 16.4034C38.0664 17.5866 36.9835 18.3937 35.858 18.6569C34.2662 19.043 32.5115 19.063 30.9949 18.3837C30.085 17.9726 29.4708 16.9774 29.6087 15.9747C29.8719 13.8014 30.1125 11.6255 30.4234 9.45971C30.5287 8.5247 31.1002 7.67992 31.9199 7.2237Z" fill="#234A61"/>
<path d="M76.593 7.25133C77.8313 6.4617 79.3729 6.48176 80.7867 6.57451C81.8696 6.66976 83.0679 7.11847 83.5817 8.14874C84.0054 8.94839 83.7347 9.8809 83.5843 10.7182C82.7069 10.7432 81.827 10.7482 80.9497 10.7156C80.8544 10.0213 80.9547 8.92082 79.9921 8.85815C78.9117 8.48464 77.6583 9.43721 78.0494 10.6028C79.4356 11.5303 81.3157 11.5153 82.5841 12.6609C83.5416 13.5282 83.2333 14.9395 83.0754 16.065C82.8849 17.3234 81.8045 18.2685 80.6088 18.5617C79.1047 18.9352 77.4803 18.9578 76.0014 18.4615C75.1165 18.1607 74.3168 17.4262 74.2116 16.4586C74.1539 15.674 74.2943 14.8919 74.4271 14.1223C75.3421 14.0647 76.2646 14.0546 77.1795 14.1298C77.1394 14.7941 77.0793 15.4584 77.0768 16.1252C77.9391 16.5664 79.1172 16.7619 79.9219 16.1026C80.2979 15.6264 80.5336 14.6989 79.8768 14.3479C78.6234 13.6059 77.1369 13.3402 75.9061 12.5656C74.9987 11.8838 75.0137 10.6354 75.2293 9.63023C75.3471 8.70022 75.7532 7.74766 76.593 7.25133Z" fill="#234A61"/>
<path d="M66.2245 7.7927C67.1294 7.73504 68.0368 7.73003 68.9443 7.7927C68.9217 8.50461 68.8641 9.21653 68.7838 9.92343C69.4256 9.92594 70.0673 9.93346 70.709 9.97607C70.6739 10.6353 70.6639 11.3046 70.4859 11.9439C69.9119 12.3098 69.1298 12.0893 68.473 12.177C68.3376 13.5532 68.0218 14.9118 68.0318 16.3006C68.671 16.4109 69.3178 16.4911 69.9595 16.5864C69.9144 17.2907 69.8317 17.9951 69.7088 18.6895C68.4555 18.7547 67.0943 18.9026 65.9437 18.2909C65.2218 17.8974 65.0162 16.9899 65.109 16.2279C65.2468 14.8768 65.4348 13.5281 65.5752 12.177C65.1666 12.1218 64.7605 12.0692 64.3569 12.0065C64.4121 11.3798 64.4873 10.7532 64.5876 10.134C65.0287 10.0538 65.4724 9.97607 65.9161 9.89586C65.9788 9.19146 66.0665 8.48456 66.2245 7.7927Z" fill="#234A61"/>
<path d="M46.2233 10.2317C47.5569 9.40699 49.2515 9.80306 50.5274 10.5501C51.104 9.43206 52.5303 9.99608 53.533 9.91586C53.2322 12.8513 52.9339 15.8017 52.4025 18.7045C51.5928 18.7496 50.7806 18.7446 49.9684 18.7521C49.9233 18.5566 49.833 18.1681 49.7854 17.9725C48.6348 18.7722 47.0857 19.2384 45.742 18.6569C44.98 18.3586 44.5438 17.5213 44.5764 16.7292C44.624 15.5535 44.8496 14.3929 44.9574 13.2223C45.1103 12.1544 45.2482 10.8885 46.2233 10.2317ZM48.0182 12.2446C47.6722 13.6133 47.5344 15.0321 47.4943 16.4409C48.3365 16.5286 49.1437 16.2755 49.8807 15.8894C50.0561 14.8842 50.199 13.8765 50.3369 12.8638C49.6576 12.38 48.8529 12.1343 48.0182 12.2446Z" fill="#234A61"/>
<path d="M58.2478 10.4749C59.3232 9.86832 60.6067 9.48228 61.83 9.85578C62.795 10.1591 63.4368 11.1869 63.2613 12.1921C62.9956 14.3504 62.7825 16.5237 62.399 18.667C61.4915 18.7422 60.5766 18.7347 59.6716 18.6595C59.7494 16.4686 60.2657 14.3153 60.3008 12.1244C59.421 12.0392 58.5862 12.3299 57.8367 12.7636C57.586 14.7289 57.393 16.7042 57.0697 18.6595C56.1547 18.7372 55.2372 18.7372 54.3223 18.6946C54.3849 16.6867 54.8136 14.7113 54.9866 12.7135C55.1746 11.7785 55.0943 10.7482 55.523 9.88586C56.448 9.90592 57.6738 9.52991 58.2478 10.4749Z" fill="#234A61"/>
<path d="M99.514 10.129C100.812 9.44715 102.354 9.8357 103.582 10.49C104.309 9.50982 105.623 9.95351 106.658 9.92343C106.332 12.8563 106.057 15.8042 105.515 18.7045C104.708 18.7497 103.898 18.7421 103.091 18.7497C103.038 18.5617 102.933 18.1831 102.878 17.9951C101.727 18.7647 100.218 19.2335 98.8823 18.6695C98.02 18.3386 97.5838 17.371 97.6841 16.4886C97.8169 15.2578 97.9874 14.0295 98.1278 12.7987C98.2531 11.791 98.5514 10.6504 99.514 10.129ZM101.138 12.2447C100.785 13.6184 100.632 15.0472 100.632 16.466C101.472 16.5212 102.281 16.283 103.011 15.8719C103.159 14.8793 103.302 13.8866 103.462 12.8964C102.795 12.3725 101.981 12.1269 101.138 12.2447Z" fill="#234A61"/>
<path d="M111.213 10.7582C112.063 10.0664 113.111 9.64774 114.224 9.72044C114.221 10.4674 114.144 11.2094 114.041 11.9489C112.981 12.2247 111.9 12.4678 110.958 13.0494C110.707 14.9269 110.527 16.8145 110.233 18.6871C109.311 18.7648 108.388 18.7447 107.466 18.7397C107.496 17.1279 107.852 15.5486 108.002 13.9493C108.145 12.5932 108.328 11.242 108.564 9.90092C109.396 9.87586 110.231 9.87084 111.063 9.8934C111.101 10.109 111.176 10.5401 111.213 10.7582Z" fill="#234A61"/>
<path d="M118.204 10.4524C119.668 9.48224 121.794 9.37446 123.055 10.7431C124.353 9.66524 126.562 9.17893 127.87 10.4749C128.507 11.1016 128.374 12.0542 128.261 12.8488C127.961 14.8116 127.903 16.812 127.437 18.7447C126.549 18.7371 125.662 18.7171 124.777 18.6619C124.81 16.4735 125.396 14.3253 125.346 12.1319C124.509 12.0316 123.727 12.3424 123.012 12.741C122.749 14.7088 122.551 16.6866 122.245 18.6469C121.335 18.7421 120.42 18.7346 119.51 18.682C119.523 16.4761 120.112 14.3203 120.122 12.1143C119.292 11.9765 118.518 12.2973 117.816 12.7009C117.482 14.6712 117.402 16.6766 117.004 18.6344C116.096 18.6795 115.189 18.672 114.281 18.6394C114.522 15.6965 114.925 12.7661 115.349 9.84322C116.307 9.93597 117.57 9.49729 118.204 10.4524Z" fill="#234A61"/>
<path d="M40.9616 9.91588C41.8891 9.86324 42.8166 9.86825 43.7416 9.91839C43.4007 12.8488 43.0648 15.7791 42.6186 18.6945C41.6961 18.7622 40.7711 18.7446 39.8486 18.7371C40.1394 15.7917 40.4954 12.8412 40.9616 9.91588Z" fill="#234A61"/>
<path d="M84.5615 9.9485C85.4414 9.85575 86.3288 9.86076 87.2112 9.92844C87.6047 11.6656 87.7476 13.4454 87.9807 15.2076C88.6224 13.4178 89.3619 11.6681 90.0989 9.91841C90.9637 9.86577 91.8336 9.85825 92.6984 9.94599C92.9942 11.6506 93.0694 13.3827 93.2474 15.1024C93.9844 13.3877 94.5283 11.5954 95.3029 9.89836C96.09 9.86828 96.8797 9.87831 97.6668 9.93095C96.5839 12.909 95.3255 15.8268 94.0846 18.7421C93.097 18.7421 92.1093 18.7547 91.1242 18.7121C90.8986 17.1303 90.8334 15.531 90.6604 13.9442C90.0839 15.5435 89.4421 17.1303 88.6801 18.6494C87.7325 18.86 86.7399 18.6995 85.7748 18.7421C85.3687 15.8118 84.7771 12.9014 84.5615 9.9485Z" fill="#234A61"/>
</svg>
