<svg width="113" height="18" viewBox="0 0 113 18" fill="none" xmlns="http://www.w3.org/2000/svg">
<path d="M14.0828 4.60812H14.7146L16.5156 2.80712L16.6039 2.04219C13.2519 -0.916768 8.13622 -0.597116 5.17726 2.75488C4.35512 3.68523 3.75934 4.79345 3.43347 5.99245C3.63372 5.91036 3.85636 5.89668 4.06531 5.95514L7.66731 5.36061C7.66731 5.36061 7.85015 5.05713 7.94592 5.07578C9.54791 3.31583 12.2444 3.11061 14.0952 4.60812H14.0828Z" fill="#EA4335"/>
<path d="M19.0815 5.99248C18.6673 4.4676 17.8178 3.09695 16.6362 2.04968L14.1088 4.57705C15.176 5.44895 15.7842 6.76362 15.7581 8.14174V8.59074C17.0006 8.59074 18.0081 9.59821 18.0081 10.8407C18.0081 12.0833 17.0006 13.0908 15.7581 13.0908H11.2581L10.8091 13.546V16.245L11.2581 16.694H15.7581C18.9895 16.7189 21.63 14.1194 21.6549 10.888C21.6698 8.92532 20.7034 7.0895 19.0815 5.99248Z" fill="#4285F4"/>
<path d="M6.75207 16.6655H11.2521V13.0635H6.75207C6.43118 13.0635 6.11526 12.9938 5.82297 12.8607L5.19112 13.0572L3.37769 14.8582L3.21973 15.4901C4.2359 16.2587 5.47719 16.6717 6.75207 16.6655Z" fill="#34A853"/>
<path d="M6.75185 4.98137C3.51925 5.00003 0.916013 7.63561 0.93467 10.8682C0.945864 12.6729 1.78791 14.3719 3.2195 15.4714L5.82896 12.862C4.69712 12.3508 4.19338 11.0175 4.70458 9.88561C5.21578 8.75377 6.54911 8.25004 7.68095 8.76123C8.17971 8.98636 8.57897 9.38686 8.80534 9.88561L11.4148 7.27615C10.3053 5.82341 8.57897 4.97391 6.75185 4.98137Z" fill="#FBBC05"/>
<path d="M33.6347 14.1503C32.0688 14.1702 30.5638 13.5521 29.4643 12.4376C28.3288 11.3705 27.6944 9.87543 27.7143 8.31696C27.6957 6.7585 28.33 5.26472 29.4643 4.19631C30.5589 3.07068 32.0651 2.44008 33.6347 2.45252C35.1298 2.43262 36.5713 3.01347 37.6347 4.06447L36.5104 5.20875C35.7405 4.46372 34.7056 4.05576 33.6347 4.07068C32.5116 4.057 31.4332 4.51596 30.6646 5.33437C29.8661 6.12666 29.4258 7.21124 29.4444 8.33562C29.4345 9.44756 29.8748 10.516 30.6646 11.2996C32.2914 12.9215 34.9146 12.9525 36.58 11.3692C37.0763 10.8269 37.3798 10.1354 37.4457 9.40403H33.6534V7.78711H39.0191C39.0713 8.11298 39.0925 8.44259 39.0825 8.77343C39.1497 10.1528 38.6497 11.4998 37.6982 12.5023C36.6397 13.603 35.1621 14.2025 33.6347 14.1503ZM46.1099 13.0757C44.6136 14.5098 42.2529 14.5098 40.7566 13.0757C40.0315 12.3729 39.636 11.3991 39.6634 10.3904C39.636 9.38164 40.0328 8.40776 40.7566 7.70502C42.2542 6.27467 44.6124 6.27467 46.1099 7.70502C46.8338 8.40776 47.2305 9.38164 47.2032 10.3904C47.2293 11.4003 46.83 12.3742 46.1037 13.0757H46.1099ZM41.9382 12.021C42.7106 12.8468 44.0066 12.8891 44.8325 12.1155C44.8649 12.0844 44.8972 12.0533 44.927 12.021C45.3487 11.5844 45.5763 10.9973 45.5589 10.3904C45.5775 9.78214 45.3499 9.19134 44.927 8.75353C44.1323 7.92517 42.8163 7.89656 41.9867 8.69134C41.9656 8.71124 41.9445 8.73239 41.9246 8.75353C41.5017 9.19134 41.2741 9.78214 41.2927 10.3904C41.2765 10.9973 41.5066 11.5856 41.9308 12.021H41.9382ZM54.3375 13.0757C52.8413 14.5098 50.4805 14.5098 48.9843 13.0757C48.2591 12.3729 47.8636 11.3991 47.891 10.3904C47.8636 9.38164 48.2604 8.40776 48.9843 7.70502C50.4805 6.27094 52.8413 6.27094 54.3375 7.70502C55.0614 8.40776 55.4582 9.38164 55.4308 10.3904C55.4594 11.3991 55.0626 12.3729 54.3375 13.0757ZM50.1671 12.021C50.9395 12.8468 52.2355 12.8891 53.0614 12.1155C53.0937 12.0844 53.1261 12.0533 53.1559 12.021C53.5776 11.5844 53.8052 10.9973 53.7878 10.3904C53.8064 9.78214 53.5788 9.19134 53.1559 8.75353C52.3611 7.92517 51.0452 7.89656 50.2169 8.69134C50.1957 8.71124 50.1746 8.73239 50.1547 8.75353C49.7318 9.19134 49.5042 9.78214 49.5228 10.3904C49.5067 10.9973 49.7368 11.5856 50.1609 12.021H50.1671ZM59.7467 17.5247C58.9893 17.5483 58.2467 17.312 57.6423 16.8543C57.1058 16.4509 56.6833 15.9152 56.4159 15.2996L57.8562 14.6988C58.0129 15.067 58.2579 15.3904 58.5701 15.6404C58.9035 15.909 59.3226 16.0508 59.7517 16.0384C60.3015 16.072 60.8388 15.8642 61.2244 15.47C61.6049 15.011 61.7928 14.4215 61.7492 13.8269V13.2834H61.692C61.2032 13.863 60.4706 14.1789 59.7144 14.1366C58.7554 14.1391 57.8388 13.7411 57.187 13.0371C56.4806 12.3394 56.09 11.3829 56.1062 10.3891C56.0888 9.39035 56.4793 8.42766 57.187 7.72243C57.8375 7.01596 58.7542 6.61422 59.7144 6.61671C60.1161 6.61547 60.5142 6.70502 60.8773 6.87542C61.192 7.01223 61.4719 7.21746 61.6995 7.47617H61.7567V6.87542H63.3239V13.6055C63.4072 14.6814 63.044 15.7448 62.3189 16.5446C61.6286 17.205 60.702 17.5583 59.7467 17.5247ZM59.8612 12.6715C60.4072 12.6839 60.9308 12.4513 61.289 12.0396C61.6783 11.5931 61.8848 11.0147 61.8637 10.4214C61.8873 9.81821 61.6821 9.2299 61.289 8.77219C60.9308 8.35925 60.4072 8.12791 59.8612 8.14035C59.3002 8.12915 58.7617 8.35925 58.3823 8.77219C57.9644 9.21373 57.7368 9.80204 57.7505 10.409C57.738 11.011 57.9644 11.5931 58.3823 12.0272C58.7592 12.4438 59.2977 12.6789 59.8612 12.6715ZM66.1112 2.87665V13.9227H64.4619V2.87665H66.1112ZM70.6361 14.1503C69.6373 14.1764 68.6734 13.7846 67.9756 13.0695C67.2679 12.3605 66.8811 11.3916 66.9072 10.3904C66.8699 9.38662 67.2418 8.41025 67.9371 7.68512C68.5938 6.99358 69.5117 6.61049 70.4644 6.62915C70.8985 6.62417 71.3276 6.70875 71.7281 6.87542C72.0888 7.02094 72.4172 7.23611 72.6945 7.50726C72.9333 7.73736 73.1448 7.99358 73.3264 8.27219C73.4731 8.50726 73.5975 8.75478 73.6995 9.011L73.8699 9.44134L68.8152 11.521C69.1286 12.2399 69.8512 12.6926 70.6348 12.659C71.3923 12.6615 72.095 12.2647 72.4868 11.6167L73.7505 12.47C73.4281 12.9319 73.0151 13.3233 72.5366 13.6205C71.9694 13.9787 71.3077 14.1627 70.6361 14.1503ZM68.5254 10.2759L71.8873 8.87915C71.7841 8.63288 71.5988 8.43015 71.3624 8.30453C71.0988 8.15527 70.8002 8.0794 70.4968 8.08313C69.9831 8.09681 69.4943 8.31199 69.1386 8.68388C68.707 9.09682 68.4818 9.68015 68.5254 10.2759Z" fill="#5F6368"/>
<path d="M82.5107 14.1503C79.6351 14.2001 77.2644 11.909 77.2147 9.03341C77.2134 8.96376 77.2134 8.89287 77.2159 8.82321C77.1488 5.94758 79.4261 3.56325 82.3005 3.49609C82.3702 3.49484 82.4411 3.49484 82.5107 3.49484C83.9485 3.45007 85.3291 4.06449 86.2582 5.16276L85.3478 6.04709C84.6649 5.18763 83.6127 4.70629 82.5169 4.75106C81.4659 4.72743 80.4498 5.13415 79.7047 5.87544C78.9299 6.6553 78.5157 7.72247 78.5605 8.82073C78.5144 9.91899 78.9299 10.9862 79.7047 11.766C80.4498 12.5085 81.4659 12.914 82.5169 12.8904C83.7408 12.9041 84.9038 12.3593 85.6762 11.4115L86.5866 12.322C86.1102 12.8916 85.512 13.3469 84.8366 13.6553C84.1077 13.9936 83.313 14.1628 82.5107 14.1503Z" fill="#5F6368"/>
<path d="M89.0316 13.9227H87.7231V3.71619H89.0316V13.9227Z" fill="#5F6368"/>
<path d="M91.1687 7.77967C92.5953 6.363 94.8988 6.363 96.3254 7.77967C97.002 8.49484 97.3664 9.45007 97.3366 10.4339C97.3664 11.4177 97.002 12.373 96.3254 13.0881C94.8988 14.5048 92.5953 14.5048 91.1687 13.0881C90.492 12.373 90.1276 11.4177 90.1575 10.4339C90.1276 9.45007 90.4908 8.49484 91.1687 7.77967ZM92.1413 12.2672C92.9784 13.1516 94.3739 13.1901 95.2595 12.3531C95.2893 12.3257 95.3179 12.2958 95.3453 12.2672C95.8067 11.7722 96.0505 11.1118 96.0219 10.4351C96.0518 9.75853 95.808 9.09808 95.3453 8.60305C94.5082 7.71872 93.1127 7.68016 92.2271 8.51723C92.1973 8.54459 92.1687 8.57444 92.1413 8.60305C91.6799 9.09808 91.4361 9.75853 91.4647 10.4351C91.4386 11.1105 91.6848 11.7685 92.1475 12.261L92.1413 12.2672Z" fill="#5F6368"/>
<path d="M104.584 13.9227H103.32V12.9563H103.283C103.058 13.3232 102.74 13.6242 102.36 13.8281C101.967 14.0558 101.519 14.1764 101.064 14.1752C100.315 14.2262 99.5853 13.9326 99.0803 13.3791C98.6015 12.7734 98.3614 12.0135 98.4037 11.2436V6.94629H99.7122V11.0035C99.7122 12.3058 100.287 12.9563 101.437 12.9563C101.956 12.9724 102.45 12.7373 102.764 12.3244C103.104 11.8953 103.284 11.3617 103.277 10.8145V6.94629H104.585V13.9227H104.584Z" fill="#5F6368"/>
<path d="M109.027 14.1503C108.129 14.1528 107.274 13.7635 106.688 13.0819C106.033 12.358 105.682 11.4102 105.708 10.4339C105.682 9.45749 106.033 8.50973 106.688 7.78585C107.274 7.1055 108.129 6.71495 109.027 6.71744C109.524 6.70998 110.016 6.82689 110.455 7.05823C110.841 7.25227 111.169 7.54704 111.402 7.91147H111.46L111.402 6.94505V3.71619H112.711V13.9227H111.447V12.9563H111.39C111.156 13.3207 110.829 13.6155 110.442 13.8095C110.007 14.0384 109.521 14.1565 109.027 14.1503ZM109.242 12.9563C109.84 12.965 110.414 12.7162 110.815 12.2734C111.259 11.7672 111.487 11.1068 111.447 10.4339C111.487 9.76222 111.259 9.10053 110.815 8.59431C110.022 7.72117 108.671 7.65774 107.798 8.45252C107.748 8.49729 107.701 8.5458 107.656 8.59431C107.211 9.0968 106.983 9.756 107.024 10.4264C106.983 11.0968 107.211 11.756 107.656 12.2585C108.059 12.7112 108.638 12.965 109.242 12.9563Z" fill="#5F6368"/>
</svg>
