<svg width="169" height="76" viewBox="0 0 169 76" fill="none" xmlns="http://www.w3.org/2000/svg">
<path d="M26.7863 27.2193C27.0746 26.7255 27.7966 26.7079 28.0974 27.2043C28.9396 28.2972 29.6616 29.4779 30.4788 30.5909C31.3536 30.2575 32.2561 29.9316 33.2036 29.9141C34.2188 29.8765 35.1914 30.2224 36.134 30.5533C37.0314 29.33 37.7959 27.9939 38.8087 26.8609C39.3576 26.4623 39.859 26.9987 40.1799 27.4123C41.5786 29.1871 42.9573 30.9769 44.3686 32.7417C44.9452 33.4636 45.5794 34.1705 45.8902 35.0579C44.8073 34.7245 44.0829 33.807 43.2406 33.1077C42.1025 32.1426 41.0647 31.0421 39.7988 30.2349C39.5131 30.9569 39.2749 31.6964 39.0192 32.4308C40.5684 32.9171 42.0674 33.7544 42.9874 35.1331C44.6494 37.4142 44.5742 40.7683 42.7794 42.9566C41.6212 44.5158 39.7286 45.2954 37.8461 45.5286C37.5929 46.2304 37.3247 46.9574 36.7983 47.5064C36.1189 48.2534 35.1639 48.6394 34.2489 49.0054C34.4219 48.5291 34.6124 48.0604 34.7929 47.5891C33.7024 47.7796 32.5945 47.737 31.5065 47.549C31.7146 48.0428 31.9302 48.5341 32.1307 49.0305C30.4587 48.5742 28.9446 47.3459 28.6739 45.5536C27.022 45.2754 25.37 44.6236 24.257 43.3226C22.4622 41.3874 22.0586 38.3192 23.2644 35.9779C24.1016 34.2131 25.8037 33.0726 27.6136 32.476C27.3554 31.764 27.1097 31.0521 26.8315 30.3502C25.5881 31.2376 24.5027 32.318 23.3446 33.3132C22.5299 33.9975 21.8029 34.8323 20.7927 35.2434C20.9782 34.3209 21.6676 33.6491 22.2266 32.9397C23.7707 31.0521 25.2221 29.0893 26.7863 27.2193ZM25.7937 35.5166C24.7283 35.9227 24.1568 37.0558 24.069 38.1412C23.8886 40.6254 25.538 43.1296 27.8993 43.9318C28.8419 44.2652 29.9699 44.1248 30.7194 43.4379C31.5943 42.7085 31.855 41.4902 31.7547 40.4023C31.6344 38.7328 30.6693 37.2187 29.3783 36.196C28.3856 35.4314 26.9969 35.0353 25.7937 35.5166ZM38.5705 35.5066C36.1816 36.4918 34.5071 39.2416 35.0611 41.8236C35.3393 43.2224 36.7306 44.3053 38.1695 44.0772C41.2803 43.656 43.4637 40.0614 42.5136 37.0934C41.9847 35.5141 40.047 34.8248 38.5705 35.5066Z" fill="#EE6A37"/>
<path d="M26.4753 39.0434C26.4879 38.6825 26.5004 38.319 26.5154 37.958C27.5532 38.3791 28.581 38.8228 29.6138 39.259C29.6388 39.64 29.6589 40.0185 29.684 40.3971C28.6512 40.916 27.5808 41.3571 26.5004 41.7657C26.4929 41.4048 26.4879 41.0438 26.4829 40.6828C27.0745 40.4096 27.666 40.1439 28.2576 39.8707C27.6635 39.5949 27.0669 39.3267 26.4753 39.0434Z" fill="#EE6A37"/>
<path d="M36.6429 39.3543C38.0316 39.3468 39.4204 39.3468 40.8116 39.3543C40.8116 39.7178 40.8116 40.0837 40.8116 40.4472C39.4204 40.4547 38.0316 40.4522 36.6404 40.4472C36.6404 40.0837 36.6404 39.7203 36.6429 39.3543Z" fill="#EE6A37"/>
<path d="M61.2116 32.3106C62.1315 32.2655 63.054 32.258 63.974 32.3307C63.9314 33.1454 63.8236 33.9576 63.6581 34.7572C62.7457 34.8174 61.8307 34.8099 60.9158 34.7773C60.9308 33.9475 61.0311 33.1203 61.2116 32.3106Z" fill="#234A61"/>
<path d="M51.7712 33.1658C53.0496 32.4439 54.5813 32.4489 56.0051 32.5617C57.1331 32.667 58.4116 33.1383 58.8929 34.2538C59.2488 35.0258 58.9981 35.8756 58.8252 36.6602C57.9328 36.6878 57.0354 36.6953 56.143 36.6427C56.0928 36.0812 56.356 35.2489 55.6542 34.9958C54.847 34.7877 53.6889 34.7651 53.2552 35.6325C52.9719 36.6903 52.9594 37.8008 52.7714 38.8787C52.6812 39.929 52.3553 41.0044 52.5734 42.0547C53.1875 42.5761 54.1451 42.5862 54.852 42.2653C55.5012 41.9645 55.421 41.1448 55.589 40.5632C54.9297 40.5407 54.2729 40.5281 53.6137 40.478C53.6638 39.731 53.749 38.9865 53.8869 38.2495C55.4636 38.059 57.0604 38.1116 58.6447 38.1693C58.6171 39.5706 58.4216 40.9693 58.1609 42.3455C57.9177 43.5287 56.8348 44.3359 55.7093 44.5991C54.1175 44.9851 52.3628 45.0052 50.8462 44.3258C49.9363 43.9147 49.3221 42.9196 49.46 41.9169C49.7232 39.7435 49.9639 37.5677 50.2747 35.4018C50.38 34.4668 50.9515 33.6221 51.7712 33.1658Z" fill="#234A61"/>
<path d="M96.4443 33.1932C97.6826 32.4036 99.2243 32.4237 100.638 32.5164C101.721 32.6117 102.919 33.0604 103.433 34.0906C103.857 34.8903 103.586 35.8228 103.436 36.66C102.558 36.6851 101.678 36.6901 100.801 36.6575C100.706 35.9632 100.806 34.8627 99.8434 34.8C98.763 34.4265 97.5096 35.3791 97.9007 36.5447C99.2869 37.4722 101.167 37.4572 102.435 38.6028C103.393 39.4701 103.085 40.8814 102.927 42.0069C102.736 43.2653 101.656 44.2104 100.46 44.5036C98.956 44.8771 97.3317 44.8997 95.8527 44.4034C94.9678 44.1026 94.1682 43.3681 94.0629 42.4005C94.0052 41.6159 94.1456 40.8338 94.2785 40.0642C95.1934 40.0065 96.1159 39.9965 97.0309 40.0717C96.9907 40.736 96.9306 41.4003 96.9281 42.0671C97.7904 42.5083 98.9686 42.7038 99.7732 42.0445C100.149 41.5682 100.385 40.6408 99.7281 40.2898C98.4747 39.5478 96.9882 39.2821 95.7574 38.5075C94.85 37.8257 94.865 36.5773 95.0806 35.5721C95.1984 34.6421 95.6045 33.6896 96.4443 33.1932Z" fill="#234A61"/>
<path d="M86.0758 33.7346C86.9807 33.6769 87.8882 33.6719 88.7956 33.7346C88.773 34.4465 88.7154 35.1584 88.6352 35.8653C89.2769 35.8678 89.9186 35.8754 90.5603 35.918C90.5252 36.5772 90.5152 37.2465 90.3372 37.8858C89.7632 38.2517 88.9811 38.0311 88.3243 38.1189C88.189 39.4951 87.8731 40.8537 87.8831 42.2425C88.5224 42.3528 89.1691 42.433 89.8108 42.5282C89.7657 43.2326 89.683 43.937 89.5601 44.6314C88.3068 44.6966 86.9456 44.8445 85.795 44.2328C85.0731 43.8393 84.8675 42.9318 84.9603 42.1698C85.0981 40.8186 85.2862 39.47 85.4265 38.1189C85.0179 38.0637 84.6118 38.0111 84.2083 37.9484C84.2634 37.3217 84.3386 36.6951 84.4389 36.0759C84.8801 35.9957 85.3238 35.918 85.7674 35.8378C85.8301 35.1334 85.9179 34.4265 86.0758 33.7346Z" fill="#234A61"/>
<path d="M66.0747 36.1734C67.4082 35.3486 69.1028 35.7447 70.3787 36.4917C70.9553 35.3737 72.3816 35.9377 73.3843 35.8575C73.0835 38.7929 72.7852 41.7433 72.2538 44.6461C71.4441 44.6913 70.6319 44.6863 69.8197 44.6938C69.7746 44.4983 69.6844 44.1097 69.6367 43.9142C68.4861 44.7138 66.937 45.1801 65.5934 44.5985C64.8313 44.3002 64.3951 43.463 64.4277 42.6708C64.4754 41.4952 64.701 40.3346 64.8088 39.1639C64.9617 38.096 65.0995 36.8301 66.0747 36.1734ZM67.8695 38.1863C67.5236 39.555 67.3857 40.9738 67.3456 42.3826C68.1878 42.4703 68.995 42.2171 69.732 41.8311C69.9075 40.8259 70.0504 39.8182 70.1882 38.8054C69.5089 38.3216 68.7042 38.076 67.8695 38.1863Z" fill="#234A61"/>
<path d="M78.0991 36.4166C79.1745 35.81 80.458 35.4239 81.6813 35.7974C82.6464 36.1007 83.2881 37.1285 83.1126 38.1337C82.8469 40.292 82.6338 42.4654 82.2503 44.6086C81.3429 44.6838 80.4279 44.6763 79.523 44.6011C79.6007 42.4102 80.1171 40.2569 80.1522 38.066C79.2723 37.9808 78.4375 38.2716 77.688 38.7053C77.4374 40.6705 77.2443 42.6459 76.921 44.6011C76.006 44.6788 75.0885 44.6788 74.1736 44.6362C74.2363 42.6283 74.6649 40.653 74.8379 38.6551C75.0259 37.7201 74.9457 36.6898 75.3743 35.8275C76.2993 35.8476 77.5251 35.4716 78.0991 36.4166Z" fill="#234A61"/>
<path d="M119.365 36.0709C120.664 35.389 122.205 35.7776 123.434 36.4319C124.161 35.4517 125.474 35.8954 126.51 35.8653C126.184 38.7982 125.908 41.7461 125.366 44.6464C124.559 44.6916 123.75 44.684 122.942 44.6916C122.89 44.5036 122.785 44.125 122.729 43.937C121.579 44.7066 120.07 45.1754 118.734 44.6113C117.871 44.2805 117.435 43.3129 117.535 42.4305C117.668 41.1997 117.839 39.9714 117.979 38.7406C118.104 37.7328 118.403 36.5923 119.365 36.0709ZM120.99 38.1866C120.636 39.5603 120.483 40.9891 120.483 42.4079C121.323 42.4631 122.133 42.2249 122.862 41.8138C123.01 40.8212 123.153 39.8285 123.313 38.8383C122.647 38.3144 121.832 38.0688 120.99 38.1866Z" fill="#234A61"/>
<path d="M131.065 36.7002C131.915 36.0084 132.962 35.5898 134.075 35.6625C134.073 36.4095 133.995 37.1515 133.892 37.8909C132.832 38.1667 131.752 38.4098 130.809 38.9914C130.558 40.869 130.378 42.7565 130.085 44.6291C129.162 44.7068 128.24 44.6867 127.317 44.6817C127.347 43.0699 127.703 41.4906 127.854 39.8913C127.996 38.5352 128.179 37.184 128.415 35.8429C129.247 35.8179 130.082 35.8129 130.914 35.8354C130.952 36.051 131.027 36.4822 131.065 36.7002Z" fill="#234A61"/>
<path d="M138.056 36.3941C139.52 35.424 141.645 35.3162 142.906 36.6849C144.205 35.607 146.413 35.1207 147.722 36.4167C148.358 37.0434 148.225 37.9959 148.113 38.7906C147.812 40.7533 147.754 42.7537 147.288 44.6864C146.401 44.6789 145.513 44.6589 144.628 44.6037C144.661 42.4153 145.247 40.267 145.197 38.0736C144.36 37.9734 143.578 38.2842 142.864 38.6828C142.6 40.6506 142.402 42.6284 142.096 44.5887C141.187 44.6839 140.272 44.6764 139.362 44.6238C139.374 42.4178 139.963 40.262 139.973 38.0561C139.144 37.9182 138.369 38.2391 137.667 38.6427C137.334 40.613 137.253 42.6184 136.855 44.5761C135.947 44.6213 135.04 44.6137 134.133 44.5811C134.373 41.6382 134.777 38.7078 135.2 35.785C136.158 35.8777 137.421 35.4391 138.056 36.3941Z" fill="#234A61"/>
<path d="M60.8129 35.8577C61.7404 35.805 62.6679 35.81 63.5929 35.8602C63.252 38.7905 62.9161 41.7209 62.4699 44.6363C61.5474 44.7039 60.6224 44.6864 59.7 44.6789C59.9907 41.7335 60.3467 38.783 60.8129 35.8577Z" fill="#234A61"/>
<path d="M104.413 35.8906C105.293 35.7979 106.18 35.8029 107.062 35.8706C107.456 37.6078 107.599 39.3875 107.832 41.1498C108.474 39.36 109.213 37.6103 109.95 35.8606C110.815 35.8079 111.685 35.8004 112.55 35.8881C112.846 37.5927 112.921 39.3249 113.099 41.0445C113.836 39.3299 114.38 37.5376 115.154 35.8405C115.941 35.8104 116.731 35.8204 117.518 35.8731C116.435 38.8511 115.177 41.7689 113.936 44.6843C112.948 44.6843 111.961 44.6968 110.975 44.6542C110.75 43.0724 110.685 41.4731 110.512 39.8864C109.935 41.4857 109.293 43.0724 108.531 44.5915C107.584 44.8021 106.591 44.6417 105.626 44.6843C105.22 41.7539 104.628 38.8436 104.413 35.8906Z" fill="#234A61"/>
</svg>
