<svg width="169" height="76" viewBox="0 0 169 76" fill="none" xmlns="http://www.w3.org/2000/svg">
<path d="M41.76 33.7126H42.3918L44.1928 31.9116L44.2811 31.1467C40.9291 28.1877 35.8135 28.5074 32.8545 31.8594C32.0324 32.7897 31.4366 33.8979 31.1107 35.0969C31.311 35.0149 31.5336 35.0012 31.7426 35.0596L35.3446 34.4651C35.3446 34.4651 35.5274 34.1616 35.6232 34.1803C37.2252 32.4203 39.9217 32.2151 41.7724 33.7126H41.76Z" fill="#EA4335"/>
<path d="M46.7587 35.0971C46.3446 33.5722 45.4951 32.2016 44.3135 31.1543L41.7861 33.6817C42.8533 34.5536 43.4615 35.8682 43.4353 37.2464V37.6954C44.6779 37.6954 45.6853 38.7028 45.6853 39.9454C45.6853 41.1879 44.6779 42.1954 43.4353 42.1954H38.9353L38.4863 42.6506V45.3496L38.9353 45.7986H43.4353C46.6667 45.8235 49.3073 43.224 49.3321 39.9926C49.3471 38.0299 48.3806 36.1941 46.7587 35.0971Z" fill="#4285F4"/>
<path d="M34.4293 45.7701H38.9293V42.1681H34.4293C34.1084 42.1681 33.7925 42.0984 33.5002 41.9653L32.8684 42.1619L31.0549 43.9629L30.897 44.5947C31.9131 45.3634 33.1544 45.7763 34.4293 45.7701Z" fill="#34A853"/>
<path d="M34.4291 34.086C31.1965 34.1046 28.5933 36.7402 28.6119 39.9728C28.6231 41.7775 29.4652 43.4766 30.8967 44.5761L33.5062 41.9666C32.3744 41.4554 31.8706 40.1221 32.3818 38.9902C32.893 37.8584 34.2264 37.3547 35.3582 37.8658C35.857 38.091 36.2562 38.4915 36.4826 38.9902L39.092 36.3808C37.9826 34.928 36.2562 34.0785 34.4291 34.086Z" fill="#FBBC05"/>
<path d="M61.312 43.2549C59.7461 43.2748 58.2411 42.6567 57.1416 41.5422C56.006 40.4751 55.3717 38.98 55.3916 37.4216C55.3729 35.8631 56.0072 34.3693 57.1416 33.3009C58.2361 32.1753 59.7423 31.5447 61.312 31.5571C62.807 31.5372 64.2486 32.1181 65.312 33.1691L64.1876 34.3134C63.4177 33.5683 62.3829 33.1604 61.312 33.1753C60.1888 33.1616 59.1105 33.6206 58.3418 34.439C57.5433 35.2313 57.103 36.3159 57.1217 37.4402C57.1117 38.5522 57.552 39.6206 58.3418 40.4042C59.9687 42.0261 62.5918 42.0572 64.2573 40.4738C64.7535 39.9315 65.057 39.24 65.1229 38.5086H61.3306V36.8917H66.6963C66.7486 37.2176 66.7697 37.5472 66.7598 37.878C66.8269 39.2574 66.3269 40.6044 65.3754 41.6069C64.317 42.7077 62.8393 43.3072 61.312 43.2549ZM73.7871 42.1803C72.2909 43.6144 69.9302 43.6144 68.4339 42.1803C67.7088 41.4776 67.3132 40.5037 67.3406 39.495C67.3132 38.4863 67.71 37.5124 68.4339 36.8096C69.9314 35.3793 72.2896 35.3793 73.7871 36.8096C74.511 37.5124 74.9078 38.4863 74.8804 39.495C74.9065 40.5049 74.5073 41.4788 73.7809 42.1803H73.7871ZM69.6155 41.1256C70.3879 41.9514 71.6839 41.9937 72.5098 41.2201C72.5421 41.189 72.5744 41.1579 72.6043 41.1256C73.0259 40.689 73.2536 40.1019 73.2361 39.495C73.2548 38.8868 73.0272 38.296 72.6043 37.8581C71.8095 37.0298 70.4936 37.0012 69.664 37.796C69.6428 37.8159 69.6217 37.837 69.6018 37.8581C69.1789 38.296 68.9513 38.8868 68.97 39.495C68.9538 40.1019 69.1839 40.6902 69.608 41.1256H69.6155ZM82.0148 42.1803C80.5185 43.6144 78.1578 43.6144 76.6615 42.1803C75.9364 41.4776 75.5409 40.5037 75.5682 39.495C75.5409 38.4863 75.9376 37.5124 76.6615 36.8096C78.1578 35.3756 80.5185 35.3756 82.0148 36.8096C82.7387 37.5124 83.1354 38.4863 83.1081 39.495C83.1367 40.5037 82.7399 41.4776 82.0148 42.1803ZM77.8444 41.1256C78.6167 41.9514 79.9128 41.9937 80.7386 41.2201C80.771 41.189 80.8033 41.1579 80.8332 41.1256C81.2548 40.689 81.4824 40.1019 81.465 39.495C81.4837 38.8868 81.2561 38.296 80.8332 37.8581C80.0384 37.0298 78.7225 37.0012 77.8941 37.796C77.873 37.8159 77.8518 37.837 77.8319 37.8581C77.409 38.296 77.1814 38.8868 77.2001 39.495C77.1839 40.1019 77.414 40.6902 77.8381 41.1256H77.8444ZM87.424 46.6293C86.6665 46.6529 85.924 46.4166 85.3195 45.9589C84.7831 45.5555 84.3605 45.0198 84.0931 44.4042L85.5334 43.8034C85.6902 44.1716 85.9352 44.495 86.2474 44.745C86.5807 45.0136 86.9999 45.1554 87.429 45.143C87.9787 45.1766 88.516 44.9689 88.9016 44.5746C89.2822 44.1156 89.47 43.5261 89.4265 42.9315V42.388H89.3693C88.8805 42.9676 88.1479 43.2835 87.3916 43.2412C86.4327 43.2437 85.516 42.8457 84.8643 42.1417C84.1578 41.444 83.7673 40.4875 83.7834 39.4937C83.766 38.495 84.1566 37.5323 84.8643 36.827C85.5148 36.1206 86.4314 35.7188 87.3916 35.7213C87.7934 35.7201 88.1914 35.8096 88.5546 35.98C88.8693 36.1168 89.1491 36.3221 89.3767 36.5808H89.4339V35.98H91.0011V42.7101C91.0844 43.786 90.7213 44.8495 89.9961 45.6492C89.3058 46.3097 88.3792 46.6629 87.424 46.6293ZM87.5384 41.7761C88.0844 41.7885 88.6081 41.5559 88.9663 41.1442C89.3556 40.6977 89.5621 40.1193 89.5409 39.5261C89.5645 38.9228 89.3593 38.3345 88.9663 37.8768C88.6081 37.4639 88.0844 37.2325 87.5384 37.245C86.9775 37.2338 86.4389 37.4639 86.0596 37.8768C85.6416 38.3183 85.414 38.9067 85.4277 39.5136C85.4153 40.1156 85.6416 40.6977 86.0596 41.1318C86.4364 41.5485 86.975 41.7835 87.5384 41.7761ZM93.7884 31.9813V43.0273H92.1392V31.9813H93.7884ZM98.3133 43.2549C97.3146 43.281 96.3506 42.8893 95.6529 42.1741C94.9451 41.4651 94.5583 40.4962 94.5845 39.495C94.5471 38.4912 94.919 37.5149 95.6143 36.7897C96.271 36.0982 97.1889 35.7151 98.1417 35.7338C98.5758 35.7288 99.0049 35.8134 99.4054 35.98C99.7661 36.1256 100.094 36.3407 100.372 36.6119C100.611 36.842 100.822 37.0982 101.004 37.3768C101.15 37.6119 101.275 37.8594 101.377 38.1156L101.547 38.546L96.4924 40.6256C96.8059 41.3445 97.5285 41.7972 98.3121 41.7636C99.0695 41.7661 99.7723 41.3693 100.164 40.7213L101.428 41.5746C101.105 42.0365 100.692 42.4279 100.214 42.7251C99.6466 43.0833 98.985 43.2674 98.3133 43.2549ZM96.2026 39.3805L99.5646 37.9838C99.4613 37.7375 99.276 37.5348 99.0397 37.4091C98.776 37.2599 98.4775 37.184 98.174 37.1877C97.6603 37.2014 97.1715 37.4166 96.8158 37.7885C96.3842 38.2014 96.1591 38.7848 96.2026 39.3805Z" fill="#5F6368"/>
<path d="M110.188 43.255C107.312 43.3047 104.942 41.0137 104.892 38.138C104.891 38.0684 104.891 37.9975 104.893 37.9278C104.826 35.0522 107.103 32.6679 109.978 32.6007C110.047 32.5995 110.118 32.5995 110.188 32.5995C111.626 32.5547 113.006 33.1691 113.935 34.2674L113.025 35.1517C112.342 34.2922 111.29 33.8109 110.194 33.8557C109.143 33.832 108.127 34.2388 107.382 34.9801C106.607 35.7599 106.193 36.8271 106.238 37.9253C106.192 39.0236 106.607 40.0908 107.382 40.8706C108.127 41.6132 109.143 42.0186 110.194 41.995C111.418 42.0087 112.581 41.4639 113.353 40.5161L114.264 41.4266C113.787 41.9962 113.189 42.4515 112.514 42.7599C111.785 43.0982 110.99 43.2674 110.188 43.255Z" fill="#5F6368"/>
<path d="M116.709 43.0273H115.4V32.8208H116.709V43.0273Z" fill="#5F6368"/>
<path d="M118.846 36.8843C120.273 35.4676 122.576 35.4676 124.003 36.8843C124.679 37.5995 125.044 38.5547 125.014 39.5385C125.044 40.5223 124.679 41.4776 124.003 42.1928C122.576 43.6094 120.273 43.6094 118.846 42.1928C118.169 41.4776 117.805 40.5223 117.835 39.5385C117.805 38.5547 118.168 37.5995 118.846 36.8843ZM119.819 41.3719C120.656 42.2562 122.051 42.2947 122.937 41.4577C122.967 41.4303 122.995 41.4005 123.023 41.3719C123.484 40.8768 123.728 40.2164 123.699 39.5398C123.729 38.8631 123.485 38.2027 123.023 37.7077C122.185 36.8233 120.79 36.7848 119.904 37.6218C119.875 37.6492 119.846 37.6791 119.819 37.7077C119.357 38.2027 119.113 38.8631 119.142 39.5398C119.116 40.2151 119.362 40.8731 119.825 41.3656L119.819 41.3719Z" fill="#5F6368"/>
<path d="M132.261 43.0272H130.998V42.0607H130.96C130.735 42.4277 130.417 42.7287 130.037 42.9326C129.644 43.1603 129.197 43.2809 128.741 43.2797C127.993 43.3306 127.263 43.0371 126.758 42.4836C126.279 41.8779 126.039 41.118 126.081 40.3481V36.0508H127.389V40.108C127.389 41.4102 127.964 42.0607 129.115 42.0607C129.633 42.0769 130.127 41.8418 130.442 41.4289C130.781 40.9998 130.962 40.4662 130.954 39.9189V36.0508H132.263V43.0272H132.261Z" fill="#5F6368"/>
<path d="M136.704 43.2549C135.806 43.2574 134.952 42.8681 134.366 42.1865C133.71 41.4626 133.36 40.5148 133.386 39.5385C133.36 38.5621 133.71 37.6143 134.366 36.8905C134.952 36.2101 135.806 35.8196 136.704 35.8221C137.202 35.8146 137.693 35.9315 138.132 36.1628C138.519 36.3569 138.846 36.6517 139.08 37.0161H139.137L139.08 36.0497V32.8208H140.388V43.0273H139.124V42.0609H139.067C138.833 42.4253 138.506 42.7201 138.119 42.9141C137.684 43.143 137.198 43.2611 136.704 43.2549ZM136.919 42.0609C137.517 42.0696 138.091 41.8208 138.493 41.378C138.937 40.8718 139.164 40.2114 139.124 39.5385C139.164 38.8668 138.937 38.2051 138.493 37.6989C137.699 36.8258 136.348 36.7624 135.475 37.5571C135.425 37.6019 135.378 37.6504 135.333 37.6989C134.888 38.2014 134.661 38.8606 134.702 39.531C134.661 40.2014 134.888 40.8606 135.333 41.3631C135.736 41.8158 136.315 42.0696 136.919 42.0609Z" fill="#5F6368"/>
</svg>
