<svg width="169" height="76" viewBox="0 0 169 76" fill="none" xmlns="http://www.w3.org/2000/svg">
<path fill-rule="evenodd" clip-rule="evenodd" d="M50.9791 22.7158C55.376 22.7328 58.9241 26.2809 58.9411 30.6778C58.9411 35.0748 55.376 38.6399 50.9791 38.6399C46.5821 38.6399 43.017 35.0748 43.0001 30.6778C42.9831 26.2809 46.5651 22.7158 50.9791 22.7158C50.9621 22.7158 50.9621 22.7158 50.9791 22.7158V22.7158ZM55.9702 29.5744C56.0211 29.3537 56.0551 29.133 56.072 28.8953C56.0551 28.6576 56.0381 28.42 55.9702 28.1993V25.7886L55.6816 25.8395C54.7648 25.9414 53.8311 26.0093 52.9144 26.0602C51.6751 25.5339 50.2491 25.5339 49.0098 26.0602C48.093 26.0093 47.1763 25.9414 46.2596 25.8395L45.971 25.8056V28.2162C45.9031 28.4369 45.8691 28.6746 45.8691 28.9123C45.8691 29.1499 45.9031 29.3706 45.971 29.5913C45.5465 29.829 45.207 30.3553 45.207 31.1023C45.1561 32.7829 46.3105 34.4297 46.3105 34.4297C46.4293 34.0732 46.5991 33.7166 46.8198 33.4111C47.2442 34.0562 47.8044 34.5994 48.4665 34.9899C48.3816 34.9899 48.2968 35.0408 48.2458 35.1087C48.1949 35.0578 48.127 35.0069 48.0421 35.0069H47.9572C47.8044 35.0069 47.7026 35.1257 47.6856 35.2785V36.1613C47.6856 36.3141 47.8044 36.4329 47.9572 36.4329H48.0591C48.144 36.4329 48.2288 36.382 48.2798 36.3141C48.3307 36.382 48.4156 36.4329 48.5005 36.4329H48.5684C48.6533 36.4329 48.7381 36.382 48.7891 36.3141C48.84 36.382 48.9249 36.4329 49.0098 36.4329H49.0267C49.1795 36.4329 49.2814 36.3141 49.2984 36.1613V35.3973C50.3849 35.7878 51.5563 35.7878 52.6428 35.3973V36.1443C52.6428 36.2971 52.7616 36.4159 52.9144 36.4329H52.9823C53.0672 36.4329 53.1521 36.382 53.203 36.3141C53.2539 36.382 53.3388 36.4329 53.4237 36.4329H53.4916C53.5765 36.4329 53.6614 36.382 53.7123 36.3141C53.7632 36.382 53.8481 36.4329 53.933 36.4329H54.0009C54.1537 36.4329 54.2725 36.3141 54.2725 36.1613V35.2615C54.2725 35.1087 54.1537 34.9899 54.0009 34.9729H53.899C53.8141 34.9729 53.7293 35.0238 53.6783 35.0917C53.6274 35.0238 53.5425 34.9729 53.4576 34.9729C54.1197 34.5825 54.6969 34.0392 55.1213 33.3941C55.342 33.6997 55.5118 34.0562 55.6306 34.4127C55.7495 34.7692 56.785 32.7829 56.7341 31.0853C56.785 30.4741 56.4795 29.8969 55.9702 29.5744V29.5744ZM50.9791 32.1548L49.9944 31.1702C50.4188 30.8816 50.7584 30.4911 50.9791 30.0327C51.1997 30.4911 51.5393 30.8816 51.9637 31.1702L50.9791 32.1548ZM48.5344 31.0853C47.3461 31.0853 46.3614 30.1176 46.3614 28.9123C46.3614 27.7069 47.3291 26.7393 48.5344 26.7393C49.7398 26.7393 50.7074 27.7069 50.7074 28.9123C50.7074 30.1176 49.7398 31.0853 48.5344 31.0853ZM53.4067 31.0853C52.2183 31.0853 51.2337 30.1176 51.2337 28.9123C51.2337 27.7069 52.2014 26.7562 53.4067 26.7562C54.5951 26.7562 55.5797 27.7239 55.5797 28.9292C55.5627 30.1176 54.5951 31.0853 53.4067 31.0853ZM53.4067 28.0125C53.916 28.0125 54.3234 28.42 54.3234 28.9292C54.3234 29.4385 53.916 29.846 53.4067 29.846C52.8974 29.846 52.49 29.4385 52.49 28.9292C52.49 28.42 52.8974 28.0125 53.4067 28.0125ZM48.5344 28.0125C49.0437 28.0125 49.4512 28.42 49.4512 28.9292C49.4512 29.4385 49.0437 29.846 48.5344 29.846C48.0251 29.846 47.6177 29.4385 47.6177 28.9292C47.6347 28.42 48.0421 28.0125 48.5344 28.0125Z" fill="#12274E"/>
<path d="M63.6775 38.2833V20.6616H65.6638V27.3674C66.954 26.6204 68.2102 26.2469 69.4326 26.2299C70.6209 26.2299 71.6056 26.5695 72.3865 27.2485C73.1674 27.9276 73.5579 28.8443 73.5579 29.9987V38.2833H71.5716V29.9478C71.5716 28.6576 70.7907 28.0125 69.2119 28.0125C68.1084 28.0125 66.92 28.4369 65.6638 29.2857V38.2833H63.6775Z" fill="#12274E"/>
<path d="M76.8684 34.7182V26.5864H78.8547V34.7861C78.8377 35.4142 79.1772 36.0084 79.7205 36.314C80.9598 37.044 82.5046 37.044 83.7609 36.314C84.3041 35.9915 84.6267 35.4142 84.6097 34.7861V26.5864H86.613V34.7182C86.6469 35.8726 86.0867 36.9761 85.102 37.6042C83.0818 38.9963 80.3995 39.0133 78.3793 37.6212C77.3947 36.9761 76.8344 35.8726 76.8684 34.7182V34.7182Z" fill="#12274E"/>
<path d="M89.9912 38.2834V26.5865H91.4342L91.6719 27.2486C92.4698 26.6035 93.4714 26.23 94.507 26.23C95.1181 26.23 95.7123 26.3318 96.2895 26.5525C96.8328 26.7223 97.3081 27.0279 97.6986 27.4523C98.5304 26.6883 99.6169 26.247 100.754 26.247C101.654 26.247 102.537 26.4846 103.301 26.943C104.082 27.4014 104.472 28.0295 104.472 28.8274V38.3003H102.486V29.7272C102.486 28.5897 101.807 28.0125 100.449 28.0295C99.6339 28.0125 98.853 28.3011 98.2249 28.8104V38.3003H96.2386V29.7272C96.2386 28.5897 95.5595 28.0125 94.2014 28.0295C93.3865 28.0125 92.5717 28.3011 91.9605 28.8274V38.3003L89.9912 38.2834Z" fill="#12274E"/>
<path d="M108.343 23.6839V21.9014H110.329V23.6839H108.343ZM108.343 38.2838V26.5869H110.329V38.2838H108.343Z" fill="#12274E"/>
<path d="M115.201 36.8402C114.03 35.6519 113.453 34.1749 113.453 32.4263C113.453 30.6777 114.047 29.2008 115.218 28.0124C116.39 26.824 117.901 26.2129 119.734 26.2129C121.551 26.2129 123.045 26.8071 124.233 28.0124C125.404 29.1838 126.033 30.7626 125.999 32.4093C126.033 34.0561 125.387 35.6519 124.233 36.8063C123.045 38.0116 121.551 38.6058 119.734 38.6058C117.884 38.6397 116.373 38.0456 115.201 36.8402V36.8402ZM116.611 29.2857C115.83 30.1515 115.405 31.2719 115.439 32.4263C115.405 33.5807 115.83 34.7182 116.611 35.567C117.391 36.4158 118.427 36.8402 119.717 36.8402C121.007 36.8402 122.043 36.4158 122.824 35.567C123.622 34.7182 124.046 33.5807 124.012 32.4263C124.046 31.2549 123.622 30.1345 122.824 29.2857C122.026 28.4368 120.99 28.0124 119.734 28.0124C118.478 28.0124 117.408 28.4368 116.611 29.2857V29.2857Z" fill="#12274E"/>
<path d="M83.7095 43.835C83.7095 42.2222 84.7111 40.9829 86.3239 40.9829C87.665 40.9829 88.4629 41.7808 88.5817 42.8164H87.4783C87.3764 42.2731 86.969 41.8996 86.3239 41.8996C85.3222 41.8996 84.8299 42.7315 84.8299 43.818C84.8299 44.9385 85.4071 45.7364 86.3239 45.7364C86.969 45.7364 87.4273 45.3459 87.4952 44.7687H88.5817C88.5478 45.244 88.3441 45.7194 87.9706 46.0589C87.5971 46.4154 87.0708 46.6361 86.3069 46.6361C84.796 46.6531 83.7095 45.4817 83.7095 43.835V43.835Z" fill="#EC3728"/>
<path d="M90.0756 43.2577H90.0926C90.3302 42.8163 90.6019 42.5786 91.0602 42.5786C91.1791 42.5786 91.247 42.5786 91.2979 42.6126V43.5293H91.2809C90.6019 43.4614 90.1095 43.8179 90.1095 44.6498V46.5511H89.074V42.6295H90.0756V43.2577Z" fill="#EC3728"/>
<path d="M91.4509 44.5819C91.4509 43.4105 92.2828 42.5107 93.5051 42.5107C94.7274 42.5107 95.5593 43.4105 95.5593 44.5819C95.5593 45.7533 94.7274 46.653 93.5051 46.653C92.2828 46.653 91.4509 45.7533 91.4509 44.5819ZM94.4897 44.5819C94.4897 43.8179 94.1332 43.2917 93.5051 43.2917C92.86 43.2917 92.5205 43.8179 92.5205 44.5819C92.5205 45.3458 92.877 45.8551 93.5051 45.8551C94.1332 45.8721 94.4897 45.3458 94.4897 44.5819Z" fill="#EC3728"/>
<path d="M95.6101 42.6298H96.6457L97.121 44.4463C97.2059 44.7688 97.2908 45.1763 97.2908 45.1763H97.3078C97.3078 45.1763 97.3926 44.7518 97.4775 44.4293L97.9699 42.6128H98.8526L99.3619 44.4293C99.4468 44.7518 99.5487 45.1763 99.5487 45.1763H99.5656C99.5656 45.1763 99.6505 44.7688 99.7354 44.4463L100.228 42.6298H101.229L100.075 46.5514H99.1243L98.598 44.633C98.5131 44.3274 98.4282 43.9539 98.4282 43.9539H98.4112C98.4112 43.9539 98.3094 44.3274 98.2245 44.633L97.6982 46.5514H96.7645L95.6101 42.6298Z" fill="#EC3728"/>
<path d="M101.348 44.582C101.348 43.3597 102.044 42.5109 103.029 42.5109C103.572 42.5109 103.929 42.7655 104.132 43.0881H104.149V41.0679H105.185V46.5513H104.183V46.042H104.166C103.929 46.4155 103.555 46.6701 102.995 46.6701C102.01 46.6532 101.348 45.8553 101.348 44.582V44.582ZM104.166 44.616C104.166 43.869 103.929 43.3597 103.25 43.3597C102.672 43.3597 102.384 43.869 102.384 44.582C102.384 45.346 102.689 45.7874 103.216 45.7874C103.844 45.7874 104.166 45.329 104.166 44.616V44.616Z" fill="#EC3728"/>
<path d="M105.694 44.8537H106.781C106.865 45.5158 107.239 45.7704 108.003 45.7704C108.563 45.7704 109.072 45.5667 109.072 45.0744C109.072 44.5311 108.546 44.4293 107.714 44.2425C106.73 44.0218 105.847 43.7672 105.847 42.6298C105.847 41.5602 106.73 41 107.935 41C109.157 41 109.955 41.6112 110.04 42.6977H108.971C108.903 42.1544 108.478 41.8658 107.918 41.8658C107.324 41.8658 106.933 42.1205 106.933 42.5109C106.933 42.9523 107.307 43.0881 108.122 43.2579C109.242 43.4956 110.159 43.7672 110.159 44.9386C110.159 46.042 109.259 46.6702 108.037 46.6702C106.577 46.6702 105.728 46.0081 105.694 44.8537V44.8537Z" fill="#EC3728"/>
<path d="M110.499 42.6295H111.042V41.4072H112.06V42.6295H112.739V43.3086H112.06V45.3797C112.06 45.6684 112.213 45.7702 112.451 45.7702H112.756V46.5342C112.756 46.5342 112.519 46.5511 112.111 46.5511C111.602 46.5511 111.042 46.3474 111.042 45.6174V43.3256H110.499V42.6295Z" fill="#EC3728"/>
<path d="M114.25 43.2577H114.267C114.505 42.8163 114.777 42.5786 115.235 42.5786C115.354 42.5786 115.422 42.5786 115.473 42.6126V43.5293H115.456C114.777 43.4614 114.284 43.8179 114.284 44.6498V46.5511H113.249V42.6295H114.25V43.2577Z" fill="#EC3728"/>
<path d="M115.931 41.085H116.966V42.0187H115.931V41.085ZM115.931 42.6298H116.966V46.5514H115.931V42.6298Z" fill="#EC3728"/>
<path d="M93.845 51.084C93.845 49.4712 94.8466 48.2319 96.4594 48.2319C97.8005 48.2319 98.5984 49.0298 98.7173 50.0654H97.6138C97.5119 49.5222 97.1045 49.1487 96.4594 49.1487C95.4578 49.1487 94.9654 49.9805 94.9654 51.067C94.9654 52.1875 95.5426 52.9854 96.4594 52.9854C97.1045 52.9854 97.5628 52.5949 97.6308 52.0177H98.7173C98.6833 52.4931 98.4796 52.9684 98.1061 53.3079C97.7326 53.6644 97.2063 53.8851 96.4424 53.8851C94.9315 53.9191 93.845 52.7307 93.845 51.084V51.084Z" fill="#EC3728"/>
<path d="M99.0737 51.848C99.0737 50.6766 99.9056 49.7769 101.128 49.7769C102.35 49.7769 103.182 50.6766 103.182 51.848C103.182 53.0194 102.35 53.9191 101.128 53.9191C99.9056 53.9191 99.0737 53.0194 99.0737 51.848ZM102.113 51.848C102.113 51.0841 101.756 50.5578 101.128 50.5578C100.483 50.5578 100.143 51.0841 100.143 51.848C100.143 52.6119 100.5 53.1212 101.128 53.1212C101.756 53.1212 102.113 52.6119 102.113 51.848Z" fill="#EC3728"/>
<path d="M103.64 49.8787H104.642V50.405H104.659C104.88 50.0485 105.253 49.7769 105.796 49.7769C106.289 49.7769 106.696 50.0485 106.883 50.4559H106.9C107.172 50.0315 107.579 49.7769 108.071 49.7769C108.903 49.7769 109.361 50.3031 109.361 51.1689V53.8003H108.326V51.3387C108.326 50.8973 108.105 50.6596 107.715 50.6596C107.273 50.6596 107.019 50.9992 107.019 51.5085V53.7833H105.983V51.3217C105.983 50.8803 105.762 50.6427 105.372 50.6427C104.948 50.6427 104.676 50.9822 104.676 51.4915V53.7664H103.64V49.8787Z" fill="#EC3728"/>
<path d="M110.024 49.8787H111.025V50.371H111.042C111.297 50.0315 111.653 49.7769 112.197 49.7769C113.232 49.7769 113.894 50.6257 113.894 51.848C113.894 53.1212 113.215 53.9191 112.197 53.9191C111.653 53.9191 111.28 53.6984 111.059 53.3589H111.042V55.0905H110.007V49.8787H110.024ZM112.842 51.882C112.842 51.135 112.587 50.6257 111.942 50.6257C111.297 50.6257 111.025 51.1859 111.025 51.882C111.025 52.595 111.348 53.0533 111.976 53.0533C112.502 53.0533 112.842 52.6119 112.842 51.882V51.882Z" fill="#EC3728"/>
<path d="M116.73 53.3589C116.509 53.6645 116.237 53.8852 115.558 53.8852C114.76 53.8852 114.183 53.4608 114.183 52.6799C114.183 51.814 114.879 51.5424 115.762 51.4236C116.407 51.3387 116.713 51.2708 116.713 50.9822C116.713 50.6936 116.492 50.5238 116.051 50.5238C115.558 50.5238 115.321 50.6936 115.287 51.0671H114.37C114.404 50.388 114.913 49.7769 116.051 49.7769C117.222 49.7769 117.697 50.3031 117.697 51.2199V53.2061C117.697 53.5117 117.748 53.6815 117.833 53.7494V53.7833H116.831C116.781 53.7154 116.747 53.5457 116.73 53.3589V53.3589ZM116.73 52.4252V51.831C116.543 51.9329 116.271 52.0008 116 52.0517C115.456 52.1706 115.185 52.2894 115.185 52.6629C115.185 53.0364 115.422 53.1552 115.796 53.1552C116.407 53.1722 116.73 52.7987 116.73 52.4252Z" fill="#EC3728"/>
<path d="M119.378 50.422H119.395C119.666 49.9976 120.023 49.7769 120.549 49.7769C121.364 49.7769 121.907 50.388 121.907 51.2368V53.8003H120.872V51.3896C120.872 50.9652 120.634 50.6766 120.193 50.6766C119.734 50.6766 119.395 51.0501 119.395 51.5764V53.8003H118.359V49.8787H119.378V50.422Z" fill="#EC3728"/>
<path d="M122.569 54.2588H122.943C123.35 54.2588 123.52 54.0381 123.52 53.7155C123.52 53.4948 123.435 53.2571 123.214 52.646L122.162 49.8618H123.248L123.843 51.6444C123.961 52.0009 124.097 52.4932 124.097 52.4932H124.114C124.114 52.4932 124.216 52.0009 124.352 51.6444L124.895 49.8788H125.948L124.573 53.9022C124.267 54.768 123.978 55.0906 123.197 55.0906H122.586V54.2588H122.569Z" fill="#EC3728"/>
<path d="M79.228 41.0845H80.3824L82.3008 46.5509H81.1464L80.7729 45.3965H78.8036L78.4471 46.5509H77.3267L79.228 41.0845ZM79.0583 44.5307H80.5013L80.009 42.9519C79.9241 42.6633 79.7883 42.12 79.7883 42.12H79.7713C79.7713 42.12 79.6355 42.6633 79.5336 42.9519L79.0583 44.5307Z" fill="#EC3728"/>
<path d="M119.48 44.7513L119.021 45.2097V46.5338H117.986V41.0674H119.021V44.0892L120.413 42.6123H121.653L120.21 44.1062L121.822 46.5338H120.566L119.48 44.7513Z" fill="#EC3728"/>
<path d="M121.958 44.5815C121.958 43.4271 122.739 42.5273 123.893 42.5273C125.15 42.5273 125.829 43.495 125.829 44.8871H122.994C123.078 45.4982 123.401 45.8717 123.995 45.8717C124.403 45.8717 124.64 45.685 124.759 45.3964H125.778C125.625 46.0924 125.014 46.6866 124.012 46.6866C122.688 46.6527 121.958 45.7529 121.958 44.5815V44.5815ZM122.994 44.1571H124.742C124.708 43.6648 124.386 43.3083 123.91 43.3083C123.35 43.3252 123.078 43.6478 122.994 44.1571V44.1571Z" fill="#EC3728"/>
</svg>
