<svg width="71" height="18" viewBox="0 0 71 18" fill="none" xmlns="http://www.w3.org/2000/svg">
<path d="M69.8069 16.3811C69.8499 16.3816 69.8925 16.3731 69.9321 16.3564C69.9717 16.3397 70.0075 16.315 70.0371 16.2839C70.0668 16.2528 70.0898 16.2159 70.1046 16.1756C70.1194 16.1352 70.1258 16.0923 70.1233 16.0494C70.1233 15.8141 69.9813 15.7017 69.6901 15.7017H69.2195V16.9335H69.3965V16.3965H69.614L69.619 16.4031L69.9565 16.9335H70.1458L69.7826 16.3845L69.8069 16.3811ZM69.6022 16.2577H69.397V15.8413H69.6571C69.7915 15.8413 69.9447 15.8632 69.9447 16.0392C69.9447 16.2415 69.7897 16.2577 69.6012 16.2577H69.6022ZM0.855469 2.91156H3.46797V12.4277H8.30449V14.8387H0.855469V2.91156ZM9.4595 6.75175H11.9693V14.8342H9.4595V6.75175ZM10.7144 2.73352C11.0023 2.73357 11.2838 2.819 11.5232 2.97901C11.7626 3.13903 11.9491 3.36643 12.0593 3.63247C12.1694 3.89851 12.1982 4.19124 12.142 4.47364C12.0858 4.75604 11.9471 5.01544 11.7435 5.21903C11.5399 5.42262 11.2805 5.56125 10.9981 5.61741C10.7156 5.67356 10.4229 5.64472 10.1569 5.53451C9.89088 5.42431 9.66351 5.2377 9.50355 4.99828C9.34358 4.75886 9.2582 4.47739 9.2582 4.18944C9.2582 3.99823 9.29587 3.80888 9.36905 3.63223C9.44223 3.45557 9.5495 3.29506 9.68472 3.15986C9.81994 3.02466 9.98047 2.91742 10.1571 2.84427C10.3338 2.77112 10.5232 2.73349 10.7144 2.73352ZM22.4679 2.90973H24.9777V10.0377L27.8221 6.74809H30.8991L27.6051 10.49L30.8298 14.8376H27.6754L25.0111 10.8424H24.9782V14.8371H22.4684L22.4679 2.90973ZM13.3609 6.75254H15.771V7.85709H15.8053C16.046 7.44465 16.3942 7.10534 16.8128 6.87539C17.2313 6.64544 17.7045 6.53349 18.1817 6.55149C20.7268 6.55149 21.1952 8.22597 21.1952 10.4014V14.8337H18.6855V10.9041C18.6855 9.96607 18.6682 8.76034 17.3783 8.76034C16.0738 8.76034 15.8725 9.78176 15.8725 10.8359V14.8327H13.3627L13.3609 6.75254Z" fill="#0A66C2"/>
<path d="M36.1845 9.85282C36.1893 9.6492 36.1527 9.44673 36.077 9.25767C36.0012 9.0686 35.8879 8.89689 35.7438 8.75292C35.5998 8.60895 35.428 8.49572 35.2388 8.4201C35.0497 8.34448 34.8472 8.30803 34.6436 8.31297C34.2051 8.28569 33.7734 8.43182 33.4417 8.71987C33.1099 9.00792 32.9046 9.41481 32.8701 9.85282H36.1845ZM38.3105 13.4345C37.8934 13.9402 37.3691 14.3469 36.7755 14.625C36.1819 14.9031 35.5339 15.0457 34.8784 15.0425C32.3686 15.0425 30.3593 13.3673 30.3593 10.7731C30.3593 8.17886 32.3684 6.50438 34.8784 6.50438C37.2242 6.50438 38.6953 8.17755 38.6953 10.7731V11.56H32.8701C32.9426 12.0063 33.174 12.4113 33.5215 12.7005C33.8691 12.9896 34.3095 13.1434 34.7615 13.1335C35.1188 13.1313 35.4698 13.0398 35.7826 12.8673C36.0954 12.6948 36.3601 12.4468 36.5526 12.1458L38.3105 13.4345ZM43.9266 8.70539C42.6717 8.70539 41.9188 9.54328 41.9188 10.7642C41.9188 11.9851 42.6715 12.8237 43.9266 12.8237C45.1817 12.8237 45.9362 11.9872 45.9362 10.7642C45.9362 9.54119 45.183 8.70539 43.9266 8.70539ZM48.2468 14.8326H45.9362V13.7607H45.902C45.6121 14.1506 45.2361 14.4683 44.8034 14.689C44.3706 14.9098 43.8927 15.0276 43.4069 15.0334C40.9954 15.0334 39.4069 13.293 39.4069 10.8319C39.4069 8.57153 40.8127 6.49601 43.1235 6.49601C44.1621 6.49601 45.1323 6.78019 45.7015 7.56789H45.7344V2.90888H48.2465L48.2468 14.8326ZM65.19 14.8373H62.6803V10.9069C62.6803 9.96968 62.6635 8.76316 61.3749 8.76316C60.0678 8.76316 59.8678 9.78432 59.8678 10.8387V14.837H57.358V6.75457H59.7674V7.85913H59.8011C60.0422 7.44686 60.3906 7.10771 60.8093 6.87779C61.2279 6.64788 61.701 6.53581 62.1783 6.55353C64.7221 6.55353 65.1911 8.2267 65.1911 10.4034L65.19 14.8373ZM54.5262 5.64975C54.2381 5.6498 53.9565 5.56444 53.717 5.40444C53.4774 5.24445 53.2907 5.01702 53.1804 4.75091C53.0701 4.4848 53.0412 4.19196 53.0974 3.90943C53.1535 3.62689 53.2922 3.36735 53.4958 3.16363C53.6995 2.95991 53.959 2.82115 54.2415 2.7649C54.524 2.70865 54.8169 2.73744 55.083 2.84763C55.3492 2.95781 55.5767 3.14445 55.7367 3.38393C55.8968 3.62341 55.9823 3.90499 55.9823 4.19305C55.9824 4.38431 55.9447 4.57371 55.8716 4.75042C55.7984 4.92714 55.6912 5.08772 55.5559 5.22298C55.4207 5.35825 55.2602 5.46556 55.0835 5.53879C54.9068 5.61201 54.7174 5.64972 54.5262 5.64975ZM55.781 14.8373H53.2687V6.75457H55.781V14.8373ZM66.4412 0.406183H52.0075C51.6799 0.402486 51.3642 0.529003 51.1299 0.757933C50.8955 0.986862 50.7616 1.29948 50.7576 1.62708V16.1207C50.7615 16.4484 50.8953 16.7613 51.1296 16.9904C51.364 17.2196 51.6797 17.3464 52.0075 17.3429H66.4412C66.7697 17.347 67.0863 17.2206 67.3216 16.9914C67.5569 16.7623 67.6916 16.4491 67.6961 16.1207V1.62603C67.6914 1.29778 67.5566 0.984812 67.3213 0.755888C67.086 0.526964 66.7695 0.400808 66.4412 0.405137V0.406183ZM69.6237 15.1529C69.3183 15.1558 69.0266 15.2795 68.8122 15.497C68.5978 15.7145 68.4783 16.008 68.4798 16.3134C68.4812 16.6187 68.6036 16.9111 68.82 17.1265C69.0365 17.3419 69.3294 17.4628 69.6348 17.4628C69.9401 17.4628 70.2331 17.3419 70.4495 17.1265C70.666 16.9111 70.7883 16.6187 70.7898 16.3134C70.7912 16.008 70.6717 15.7145 70.4574 15.497C70.243 15.2795 69.9512 15.1558 69.6459 15.1529H69.6237ZM69.6237 17.3306C69.4234 17.3339 69.2266 17.2778 69.0582 17.1693C68.8898 17.0608 68.7574 16.9048 68.6777 16.721C68.598 16.5373 68.5745 16.334 68.6103 16.1369C68.6461 15.9398 68.7396 15.7578 68.8788 15.6138C69.0181 15.4698 69.1969 15.3704 69.3927 15.328C69.5885 15.2857 69.7924 15.3024 69.9788 15.3759C70.1651 15.4495 70.3254 15.5766 70.4394 15.7413C70.5535 15.906 70.6161 16.1008 70.6195 16.3011V16.3181C70.6251 16.5808 70.5261 16.835 70.3443 17.0248C70.1625 17.2146 69.9128 17.3244 69.6501 17.3301H69.6239" fill="#0A66C2"/>
</svg>
