<svg width="169" height="76" viewBox="0 0 169 76" fill="none" xmlns="http://www.w3.org/2000/svg">
<path fill-rule="evenodd" clip-rule="evenodd" d="M84.7543 38.1993C84.8301 38.3884 84.8667 38.5909 84.8619 38.7945H81.5474C81.582 38.3565 81.7873 37.9496 82.119 37.6615C82.4508 37.3735 82.8825 37.2273 83.321 37.2546C83.5246 37.2497 83.7271 37.2861 83.9162 37.3618C84.1053 37.4374 84.2771 37.5506 84.4212 37.6946C84.5653 37.8385 84.6786 38.0103 84.7543 38.1993ZM85.4529 43.5666C86.0465 43.2885 86.5708 42.8818 86.9879 42.3761L85.23 41.0875C85.0375 41.3884 84.7728 41.6364 84.4599 41.8089C84.1471 41.9815 83.7961 42.073 83.4389 42.0752C82.9869 42.0851 82.5465 41.9313 82.1989 41.6421C81.8513 41.353 81.62 40.9479 81.5474 40.5016H87.3727V39.7147C87.3727 37.1192 85.9016 35.446 83.5558 35.446C81.0457 35.446 79.0366 37.1205 79.0366 39.7147C79.0366 42.3089 81.046 43.9842 83.5558 43.9842C84.2113 43.9874 84.8593 43.8448 85.4529 43.5666ZM90.5962 39.7058C90.5962 38.4849 91.3491 37.647 92.604 37.647C93.8604 37.647 94.6136 38.4828 94.6136 39.7058C94.6136 40.9288 93.8591 41.7654 92.604 41.7654C91.3488 41.7654 90.5962 40.9267 90.5962 39.7058ZM94.6136 43.7743H96.9242L96.9239 31.8505H94.4118V36.5095H94.3788C93.8097 35.7218 92.8395 35.4377 91.8008 35.4377C89.49 35.4377 88.0843 37.5132 88.0843 39.7735C88.0843 42.2347 89.6728 43.975 92.0842 43.975C92.57 43.9693 93.0479 43.8514 93.4807 43.6307C93.9135 43.4099 94.2895 43.0923 94.5794 42.7024H94.6136V43.7743ZM111.358 43.779H113.867L113.868 39.345C113.868 37.1684 113.399 35.4952 110.856 35.4952C110.378 35.4775 109.905 35.5895 109.487 35.8194C109.068 36.0494 108.72 36.3885 108.478 36.8008H108.445V35.6962H106.035V43.7787H108.545V39.7803C108.545 38.726 108.745 37.7048 110.052 37.7048C111.341 37.7048 111.358 38.9113 111.358 39.8486V43.779ZM102.394 34.3461C102.634 34.5061 102.915 34.5915 103.204 34.5914C103.395 34.5914 103.584 34.5537 103.761 34.4804C103.938 34.4072 104.098 34.2999 104.233 34.1646C104.369 34.0294 104.476 33.8688 104.549 33.6921C104.622 33.5154 104.66 33.326 104.66 33.1347C104.66 32.8466 104.574 32.5651 104.414 32.3256C104.254 32.0861 104.027 31.8995 103.76 31.7893C103.494 31.6791 103.201 31.6503 102.919 31.7065C102.636 31.7628 102.377 31.9016 102.173 32.1053C101.97 32.309 101.831 32.5685 101.775 32.8511C101.719 33.1336 101.747 33.4264 101.858 33.6926C101.968 33.9587 102.155 34.1861 102.394 34.3461ZM101.946 43.779H104.458V35.6962H101.946V43.779ZM100.685 29.3478H115.119V29.3468C115.447 29.3425 115.763 29.4686 115.999 29.6975C116.234 29.9265 116.369 30.2394 116.373 30.5677V45.0623C116.369 45.3907 116.234 45.7039 115.999 45.9331C115.764 46.1623 115.447 46.2887 115.119 46.2845H100.685C100.357 46.288 100.041 46.1613 99.807 45.9321C99.5726 45.7029 99.4388 45.3901 99.435 45.0623V30.5687C99.439 30.2411 99.5729 29.9285 99.8072 29.6996C100.042 29.4707 100.357 29.3441 100.685 29.3478ZM117.49 44.4387C117.704 44.2212 117.996 44.0974 118.301 44.0945H118.323C118.629 44.0974 118.92 44.2212 119.135 44.4387C119.349 44.6561 119.469 44.9497 119.467 45.255C119.466 45.5604 119.343 45.8527 119.127 46.0681C118.91 46.2836 118.618 46.4045 118.312 46.4045C118.007 46.4045 117.714 46.2836 117.497 46.0681C117.281 45.8527 117.159 45.5604 117.157 45.255C117.156 44.9497 117.275 44.6561 117.49 44.4387ZM117.736 46.111C117.904 46.2194 118.101 46.2756 118.301 46.2722L118.301 46.2717H118.327C118.59 46.266 118.84 46.1562 119.022 45.9664C119.203 45.7767 119.302 45.5225 119.297 45.2597V45.2427C119.293 45.0424 119.231 44.8476 119.117 44.683C119.003 44.5183 118.842 44.3911 118.656 44.3176C118.47 44.244 118.266 44.2273 118.07 44.2697C117.874 44.312 117.695 44.4115 117.556 44.5555C117.417 44.6994 117.324 44.8815 117.288 45.0786C117.252 45.2757 117.275 45.4789 117.355 45.6627C117.435 45.8465 117.567 46.0025 117.736 46.111ZM118.61 45.2987C118.57 45.3154 118.527 45.3238 118.484 45.3234L118.46 45.3268L118.823 45.8758H118.634L118.296 45.3453L118.291 45.3388H118.074V45.8758H117.897V44.6439H118.367C118.659 44.6439 118.801 44.7563 118.801 44.9916C118.803 45.0345 118.797 45.0775 118.782 45.1178C118.767 45.1582 118.744 45.1951 118.715 45.2262C118.685 45.2573 118.649 45.282 118.61 45.2987ZM118.074 45.2H118.279C118.467 45.2 118.622 45.1838 118.622 44.9814C118.622 44.8055 118.469 44.7835 118.335 44.7835H118.074V45.2ZM52.1453 31.8538H49.5328V43.7809H56.9819V41.37H52.1453V31.8538ZM60.6466 35.694H58.1369V43.7765H60.6466V35.694ZM60.2005 31.9213C59.9612 31.7613 59.6797 31.6758 59.3918 31.6758C59.2005 31.6757 59.0112 31.7134 58.8345 31.7865C58.6578 31.8597 58.4973 31.9669 58.3621 32.1021C58.2269 32.2373 58.1196 32.3978 58.0464 32.5745C57.9732 32.7511 57.9356 32.9405 57.9356 33.1317C57.9356 33.4196 58.0209 33.7011 58.1809 33.9405C58.3409 34.18 58.5683 34.3666 58.8343 34.4768C59.1003 34.587 59.393 34.6158 59.6754 34.5597C59.9578 34.5035 60.2173 34.3649 60.4209 34.1613C60.6245 33.9577 60.7632 33.6983 60.8194 33.4159C60.8756 33.1335 60.8468 32.8408 60.7367 32.5747C60.6265 32.3087 60.4399 32.0813 60.2005 31.9213ZM73.655 31.852H71.1453L71.1458 43.7794H73.6556V39.7847H73.6885L76.3528 43.7799H79.5072L76.2824 39.4322L79.5765 35.6904H76.4994L73.655 38.98V31.852ZM64.4484 35.6948H62.0382L62.0401 43.7749H64.5498V39.7781C64.5498 38.724 64.7511 37.7026 66.0557 37.7026C67.3456 37.7026 67.3629 38.9083 67.3629 39.8464V43.776H69.8726V39.3436C69.8726 37.1682 69.4041 35.4938 66.8591 35.4938C66.3819 35.4758 65.9087 35.5877 65.4902 35.8177C65.0716 36.0476 64.7234 36.3869 64.4826 36.7994H64.4484V35.6948Z" fill="#0A66C2"/>
</svg>
