<svg width="77" height="22" viewBox="0 0 77 22" fill="none" xmlns="http://www.w3.org/2000/svg">
<path d="M9.48287 0.398964C9.95112 0.281901 10.4418 0.411876 10.8489 0.65289C13.395 2.12135 15.9412 3.58981 18.4847 5.0643C19.0425 5.37418 19.404 5.98446 19.3963 6.624C19.4057 9.55146 19.3971 12.4798 19.4014 15.4081C19.4049 15.8238 19.33 16.2585 19.0769 16.6003C18.8402 16.9471 18.4632 17.152 18.1077 17.3551C15.6675 18.7599 13.2324 20.1724 10.7921 21.5763C10.2352 21.9172 9.50783 21.9267 8.94661 21.5875C6.52098 20.1948 4.10224 18.7909 1.67833 17.3956C1.30734 17.1804 0.904504 16.9773 0.65144 16.6175C0.389768 16.274 0.309717 15.8316 0.315742 15.409C0.318324 12.5073 0.314881 9.60569 0.317464 6.70406C0.317464 6.3081 0.409565 5.90096 0.65144 5.5799C0.905365 5.22096 1.30734 5.01782 1.67833 4.80263C4.06264 3.42713 6.44696 2.05077 8.83041 0.673548C9.03699 0.558206 9.25132 0.452332 9.48287 0.398964ZM8.83299 2.73766C8.26145 3.06819 7.68904 3.39959 7.11663 3.7284C7.1218 3.85063 7.12782 3.97285 7.13471 4.09508C8.96899 4.1605 10.8033 4.20526 12.6384 4.25088C12.6453 4.09164 12.6531 3.9324 12.6617 3.77316C12.1736 3.47275 11.6709 3.19989 11.1777 2.90809C10.811 2.69376 10.4314 2.45877 9.99588 2.42864C9.58444 2.38561 9.18332 2.53366 8.83299 2.73766ZM2.99185 6.11615C2.44871 6.42517 2.10183 7.02684 2.10957 7.65262C2.1001 9.89146 2.10957 12.1312 2.10527 14.3709C2.1001 14.778 2.16897 15.2032 2.40998 15.5424C2.62861 15.8772 2.98066 16.0847 3.31981 16.2775C4.18143 16.7672 5.03272 17.2751 5.89779 17.758C6.06047 16.237 6.24898 14.6661 6.99354 13.3027C7.43511 12.4849 8.054 11.6328 9.01203 11.4124C8.37335 11.7524 8.01785 12.4118 7.8061 13.0771C8.92596 13.0453 10.0449 12.985 11.1648 12.9368C10.8851 12.4531 10.5554 11.9607 10.0493 11.6896C9.6533 11.5045 9.19968 11.4503 8.83816 11.1912C8.20377 10.7935 7.74241 10.1772 7.39035 9.52736C6.55541 7.94183 6.21541 6.15317 5.97268 4.39377C4.97677 4.96359 3.98173 5.536 2.99185 6.11615ZM13.8091 4.44283C13.6602 5.86223 13.4665 7.32122 12.7856 8.59859C12.3294 9.48346 11.6572 10.3537 10.6544 10.6309C11.491 11.1258 12.0557 11.9547 12.4499 12.8241C13.1644 14.3967 13.4803 16.1122 13.7333 17.8105C14.6483 17.2906 15.5564 16.7569 16.4705 16.2353C16.7907 16.0528 17.1118 15.8436 17.315 15.5277C17.5491 15.1929 17.6154 14.7754 17.6119 14.3752C17.6076 12.1363 17.6162 9.89835 17.6076 7.66036C17.6179 7.01565 17.2504 6.40365 16.6883 6.09291C15.7294 5.54202 14.7809 4.97134 13.8091 4.44283ZM7.26038 4.924C7.32666 5.332 7.41015 5.7357 7.50053 6.13853C9.14459 6.19362 10.7895 6.25474 12.4336 6.29519C12.4912 5.78993 12.5687 5.28552 12.5928 4.77681C10.8153 4.82157 9.03785 4.86977 7.26038 4.924ZM7.69334 6.97347C7.80266 7.37373 7.93005 7.76882 8.08155 8.15444C9.41831 8.1992 10.7551 8.28097 12.0927 8.28872C12.1822 7.79981 12.2795 7.31175 12.3509 6.82026C10.7981 6.86846 9.2453 6.91494 7.69334 6.97347ZM8.44737 8.95581C8.67547 9.35521 8.93456 9.74857 9.29694 10.0387C9.64039 10.3236 10.0914 10.4079 10.5012 10.5551C10.6526 10.6162 10.8016 10.5121 10.9298 10.4406C11.473 10.0653 11.7415 9.42579 11.9438 8.82067C10.7783 8.86027 9.61198 8.89642 8.44737 8.95581ZM7.66235 13.5996C7.55046 14.1281 7.45749 14.6601 7.37916 15.1946C8.90616 15.1413 10.4323 15.0905 11.9584 15.0294C11.8104 14.6076 11.7527 14.1144 11.4884 13.758C10.2145 13.6883 8.93801 13.6237 7.66235 13.5996ZM7.29825 15.6999C7.24316 16.2103 7.16225 16.7182 7.13471 17.232C8.89152 17.183 10.6492 17.1443 12.4043 17.0625C12.3251 16.6648 12.2451 16.2671 12.1607 15.8703C10.5399 15.8083 8.91907 15.7455 7.29825 15.6999ZM7.08478 17.7511C7.08909 17.9792 7.02281 18.2193 7.08995 18.4397C7.47385 18.6971 7.8896 18.9028 8.28469 19.1429C8.7538 19.4029 9.21431 19.7506 9.77209 19.773C10.2429 19.8083 10.6785 19.5897 11.0701 19.353C11.5616 19.0569 12.0712 18.7918 12.5558 18.4845C12.6393 18.3089 12.5326 18.098 12.5308 17.9103C10.7155 17.8544 8.90013 17.7829 7.08478 17.7511Z" fill="#DB0A5B"/>
<path d="M22.473 3.4393C22.7915 3.41692 23.1117 3.41606 23.4301 3.44274C23.4284 6.76873 23.4301 10.0956 23.4293 13.4216C23.4379 13.926 23.4697 14.4863 23.8175 14.8857C24.0843 15.1922 24.5164 15.2171 24.8917 15.2627C24.8926 15.5322 24.8934 15.8024 24.89 16.0719C24.241 16.0985 23.5326 15.9522 23.0807 15.4504C22.5797 14.909 22.479 14.136 22.4738 13.4285C22.4713 10.099 22.4738 6.76959 22.473 3.4393Z" fill="#383838"/>
<path d="M54.0206 3.42981C54.674 3.42292 55.3281 3.41518 55.9815 3.43497C55.984 7.50638 55.984 11.5787 55.9815 15.6501C55.162 15.9453 54.2987 16.1011 53.4327 16.1726C52.5246 16.2371 51.589 16.2621 50.7136 15.9754C49.8494 15.7086 49.0816 15.1517 48.56 14.4123C47.8008 13.4999 47.5245 12.2716 47.6174 11.1061C47.7078 9.80376 48.3603 8.55652 49.357 7.71727C50.2634 6.95808 51.4814 6.58623 52.6572 6.71879C53.1186 6.74977 53.5619 6.8875 54.0112 6.98648C54.0267 5.80121 54.0051 4.61508 54.0206 3.42981ZM51.5959 8.58492C50.9348 8.82852 50.34 9.28042 49.9716 9.88553C49.147 11.2585 49.5395 13.2571 50.9116 14.1274C51.8421 14.7049 52.9895 14.5027 54.012 14.3589C54.0224 12.498 54.0138 10.6378 54.0163 8.77687C53.2726 8.41449 52.3835 8.29743 51.5959 8.58492Z" fill="#383838"/>
<path d="M30.3937 6.76342C31.6298 6.57233 32.9596 6.88565 33.9099 7.71801C34.8077 8.5168 35.4929 9.61771 35.5927 10.8357C35.7459 12.0976 35.4791 13.4524 34.6562 14.4492C34.1096 15.2135 33.322 15.8135 32.4174 16.0829C31.0152 16.4995 29.3883 16.231 28.2823 15.2437C27.5308 14.5611 26.924 13.6788 26.7053 12.676C26.4161 11.2687 26.615 9.68744 27.5454 8.54865C28.2082 7.60697 29.2455 6.9218 30.3937 6.76342ZM30.5641 7.62591C29.5527 7.77396 28.6481 8.41523 28.0989 9.26738C27.4981 10.2332 27.4086 11.4417 27.6255 12.5374C27.8372 13.603 28.5577 14.537 29.5088 15.0517C30.2233 15.4459 31.084 15.5415 31.8768 15.3624C32.7995 15.1455 33.5975 14.5223 34.1088 13.733C34.6958 12.7913 34.7991 11.6198 34.6114 10.5456C34.4557 9.70293 33.9994 8.92136 33.3272 8.38768C32.5732 7.74814 31.5385 7.47183 30.5641 7.62591Z" fill="#383838"/>
<path d="M58.617 7.31959C59.5974 6.95462 60.6415 6.77473 61.6839 6.71533C62.7977 6.65336 63.9624 6.71878 64.9849 7.20769C65.9722 7.69144 66.6927 8.6641 66.8993 9.74092C67.0671 10.5853 66.9922 11.4504 67.0086 12.3043C67.0051 13.555 67.0163 14.8056 67.0034 16.0555C66.357 16.0581 65.7114 16.0572 65.065 16.0563C65.0512 14.5474 65.0633 13.0385 65.0598 11.5296C65.0555 10.8892 65.1029 10.2092 64.8059 9.61869C64.4995 8.99463 63.8307 8.65033 63.1799 8.49969C62.3269 8.2845 61.4446 8.43944 60.6105 8.65894C60.5796 11.1242 60.6329 13.592 60.5839 16.0572C59.9297 16.0555 59.2755 16.0598 58.6213 16.0546C58.6118 13.1427 58.6205 10.2315 58.617 7.31959Z" fill="#383838"/>
<path d="M69.5839 7.85414C70.814 6.85479 72.5011 6.47778 74.0496 6.76441C74.9887 6.93312 75.8374 7.50553 76.3676 8.29657C76.8471 8.98432 76.9899 9.84078 76.9874 10.6637C76.9856 12.4609 76.9943 14.2574 76.9831 16.0546C76.4666 16.0564 75.9501 16.0658 75.4337 16.0469C75.3399 15.7396 75.2426 15.434 75.1419 15.1293C74.7786 15.4469 74.4335 15.8153 73.9609 15.966C72.9908 16.2888 71.9097 16.269 70.9414 15.9488C69.8594 15.5898 69.0115 14.5724 68.9194 13.4284C68.8618 12.3749 69.3748 11.3015 70.2614 10.7188C71.018 10.2428 71.8968 9.95956 72.7929 9.93288C73.577 9.83303 74.3793 10.0078 75.0524 10.4218C75.0481 9.80807 74.8974 9.12807 74.3793 8.74072C73.6967 8.21566 72.7705 8.24406 71.9665 8.40158C71.3864 8.50229 70.8605 8.77171 70.3363 9.02478C70.0841 8.63485 69.812 8.2587 69.5839 7.85414ZM71.0756 12.3086C70.6186 12.8009 70.7589 13.6806 71.3287 14.0258C71.865 14.3589 72.5235 14.3977 73.138 14.3865C73.8378 14.3632 74.6125 14.1635 75.0627 13.5894C75.0937 13.079 75.0756 12.566 75.0653 12.0555C74.4197 11.6432 73.6364 11.4943 72.8798 11.5657C72.2273 11.6217 71.5301 11.8085 71.0756 12.3086Z" fill="#383838"/>
<path d="M39.0374 7.81278C39.8663 7.09232 40.9741 6.73855 42.0647 6.74888C43.1794 6.75662 44.3105 6.85131 45.3718 7.20939C45.3744 9.96899 45.3709 12.7295 45.3735 15.4891C45.3769 16.318 45.3546 17.1899 44.9526 17.9371C44.4628 18.8813 43.448 19.4718 42.4108 19.5984C40.8476 19.8144 39.2586 19.1766 38.1069 18.1368C38.2739 17.919 38.4538 17.7107 38.6389 17.5084C39.2466 17.9517 39.8853 18.3847 40.6273 18.5663C41.6257 18.8435 42.8342 18.8409 43.6391 18.098C44.3397 17.4903 44.4706 16.4996 44.4292 15.6242C43.4704 16.0615 42.4021 16.2879 41.3494 16.1321C40.1771 15.9771 39.0297 15.3556 38.3893 14.3408C37.0267 12.3826 37.2849 9.45167 39.0374 7.81278ZM40.8003 7.76458C39.6675 8.1106 38.8549 9.14266 38.5511 10.2582C38.3746 11.0527 38.3712 11.8962 38.5855 12.683C38.9341 13.7538 39.7157 14.7557 40.8252 15.0931C42.0139 15.4977 43.2973 15.2102 44.4353 14.7798C44.4327 12.4497 44.4568 10.1205 44.4447 7.79126C43.2466 7.61136 41.983 7.39445 40.8003 7.76458Z" fill="#383838"/>
</svg>
