<svg width="169" height="76" viewBox="0 0 169 76" fill="none" xmlns="http://www.w3.org/2000/svg">
<path d="M55.3306 27.1784C55.7989 27.0613 56.2895 27.1913 56.6967 27.4323C59.2428 28.9008 61.789 30.3692 64.3325 31.8437C64.8903 32.1536 65.2518 32.7639 65.2441 33.4034C65.2535 36.3309 65.2449 39.2592 65.2492 42.1875C65.2527 42.6033 65.1778 43.0379 64.9247 43.3797C64.688 43.7266 64.311 43.9314 63.9555 44.1346C61.5152 45.5393 59.0801 46.9518 56.6399 48.3557C56.083 48.6966 55.3556 48.7061 54.7944 48.3669C52.3688 46.9742 49.95 45.5703 47.5261 44.175C47.1551 43.9598 46.7523 43.7567 46.4992 43.3969C46.2375 43.0534 46.1575 42.611 46.1635 42.1884C46.1661 39.2867 46.1627 36.3851 46.1652 33.4835C46.1652 33.0875 46.2573 32.6804 46.4992 32.3593C46.7531 32.0004 47.1551 31.7972 47.5261 31.582C49.9104 30.2065 52.2947 28.8302 54.6782 27.453C54.8848 27.3376 55.0991 27.2318 55.3306 27.1784ZM54.6808 29.5171C54.1092 29.8476 53.5368 30.179 52.9644 30.5078C52.9696 30.63 52.9756 30.7523 52.9825 30.8745C54.8168 30.9399 56.6511 30.9847 58.4862 31.0303C58.4931 30.8711 58.5008 30.7118 58.5094 30.5526C58.0214 30.2522 57.5187 29.9793 57.0255 29.6875C56.6588 29.4732 56.2792 29.2382 55.8437 29.2081C55.4322 29.165 55.0311 29.3131 54.6808 29.5171ZM48.8396 32.8956C48.2965 33.2046 47.9496 33.8063 47.9574 34.432C47.9479 36.6709 47.9574 38.9106 47.953 41.1503C47.9479 41.5574 48.0167 41.9826 48.2578 42.3218C48.4764 42.6566 48.8284 42.8641 49.1676 43.0569C50.0292 43.5467 50.8805 44.0545 51.7456 44.5374C51.9083 43.0164 52.0968 41.4455 52.8413 40.0821C53.2829 39.2644 53.9018 38.4122 54.8598 38.1918C54.2211 38.5318 53.8656 39.1912 53.6539 39.8566C54.7737 39.8247 55.8927 39.7645 57.0126 39.7163C56.7328 39.2325 56.4032 38.7402 55.897 38.469C55.5011 38.284 55.0475 38.2297 54.6859 37.9706C54.0516 37.573 53.5902 36.9567 53.2381 36.3068C52.4032 34.7213 52.0632 32.9326 51.8205 31.1732C50.8246 31.743 49.8295 32.3154 48.8396 32.8956ZM59.6568 31.2222C59.5079 32.6416 59.3143 34.1006 58.6334 35.378C58.1772 36.2629 57.5049 37.1331 56.5021 37.4103C57.3388 37.9052 57.9035 38.7341 58.2977 39.6035C59.0121 41.1761 59.328 42.8916 59.5811 44.5899C60.4961 44.07 61.4042 43.5363 62.3183 43.0147C62.6385 42.8322 62.9596 42.6231 63.1627 42.3072C63.3969 41.9723 63.4631 41.5549 63.4597 41.1546C63.4554 38.9158 63.464 36.6778 63.4554 34.4398C63.4657 33.7951 63.0982 33.1831 62.5361 32.8723C61.5772 32.3214 60.6286 31.7508 59.6568 31.2222ZM53.1082 31.7034C53.1744 32.1114 53.2579 32.5151 53.3483 32.918C54.9924 32.973 56.6373 33.0342 58.2813 33.0746C58.339 32.5693 58.4165 32.0649 58.4406 31.5562C56.6631 31.601 54.8856 31.6492 53.1082 31.7034ZM53.5411 33.7529C53.6504 34.1531 53.7778 34.5482 53.9293 34.9339C55.2661 34.9786 56.6029 35.0604 57.9405 35.0681C58.03 34.5792 58.1273 34.0912 58.1987 33.5997C56.6459 33.6479 55.0931 33.6944 53.5411 33.7529ZM54.2951 35.7352C54.5233 36.1346 54.7823 36.528 55.1447 36.8181C55.4882 37.103 55.9392 37.1873 56.3489 37.3345C56.5004 37.3956 56.6493 37.2915 56.7776 37.22C57.3207 36.8448 57.5893 36.2052 57.7916 35.6001C56.6261 35.6397 55.4598 35.6758 54.2951 35.7352ZM53.5101 40.379C53.3982 40.9076 53.3053 41.4395 53.2269 41.974C54.7539 41.9207 56.2801 41.8699 57.8062 41.8088C57.6582 41.387 57.6005 40.8938 57.3362 40.5374C56.0623 40.4677 54.7858 40.4031 53.5101 40.379ZM53.146 42.4793C53.0909 42.9897 53.01 43.4976 52.9825 44.0115C54.7393 43.9624 56.497 43.9237 58.2521 43.8419C58.1729 43.4442 58.0928 43.0466 58.0085 42.6497C56.3877 42.5878 54.7668 42.5249 53.146 42.4793ZM52.9326 44.5305C52.9369 44.7586 52.8706 44.9988 52.9377 45.2191C53.3216 45.4765 53.7374 45.6822 54.1325 45.9224C54.6016 46.1823 55.0621 46.5301 55.6199 46.5524C56.0907 46.5877 56.5262 46.3691 56.9179 46.1324C57.4094 45.8363 57.919 45.5712 58.4036 45.2639C58.4871 45.0883 58.3803 44.8774 58.3786 44.6898C56.5633 44.6338 54.7479 44.5624 52.9326 44.5305Z" fill="#DB0A5B"/>
<path d="M68.3208 30.2188C68.6392 30.1965 68.9594 30.1956 69.2779 30.2223C69.2762 33.5483 69.2779 36.8751 69.2771 40.2011C69.2857 40.7055 69.3175 41.2659 69.6653 41.6653C69.9321 41.9717 70.3642 41.9967 70.7395 42.0423C70.7404 42.3117 70.7412 42.582 70.7378 42.8514C70.0888 42.8781 69.3804 42.7318 68.9285 42.2299C68.4275 41.6885 68.3268 40.9155 68.3216 40.208C68.319 36.8786 68.3216 33.5491 68.3208 30.2188Z" fill="#383838"/>
<path d="M99.8684 30.2086C100.522 30.2017 101.176 30.194 101.829 30.2138C101.832 34.2852 101.832 38.3575 101.829 42.4289C101.01 42.7241 100.146 42.8799 99.2805 42.9514C98.3724 43.0159 97.4368 43.0409 96.5614 42.7542C95.6972 42.4874 94.9294 41.9305 94.4077 41.1911C93.6485 40.2787 93.3722 39.0504 93.4652 37.8849C93.5556 36.5826 94.208 35.3353 95.2048 34.4961C96.1112 33.7369 97.3292 33.365 98.505 33.4976C98.9663 33.5286 99.4096 33.6663 99.859 33.7653C99.8744 32.58 99.8529 31.3939 99.8684 30.2086ZM97.4437 35.3637C96.7826 35.6073 96.1878 36.0592 95.8194 36.6643C94.9948 38.0373 95.3873 40.036 96.7593 40.9062C97.6898 41.4838 98.8372 41.2815 99.8598 41.1377C99.8701 39.2768 99.8615 37.4167 99.8641 35.5557C99.1204 35.1933 98.2313 35.0762 97.4437 35.3637Z" fill="#383838"/>
<path d="M76.2415 33.5425C77.4775 33.3514 78.8074 33.6647 79.7577 34.4971C80.6555 35.2959 81.3406 36.3968 81.4405 37.6147C81.5937 38.8766 81.3269 40.2315 80.504 41.2282C79.9574 41.9926 79.1698 42.5925 78.2651 42.862C76.863 43.2786 75.2361 43.01 74.13 42.0227C73.3786 41.3401 72.7718 40.4578 72.5531 39.4551C72.2639 38.0477 72.4627 36.4665 73.3932 35.3277C74.056 34.386 75.0932 33.7009 76.2415 33.5425ZM76.4119 34.405C75.4005 34.553 74.4959 35.1943 73.9467 36.0464C73.3459 37.0122 73.2564 38.2207 73.4733 39.3165C73.685 40.3821 74.4055 41.316 75.3566 41.8308C76.0711 42.225 76.9318 42.3205 77.7246 42.1415C78.6473 41.9246 79.4452 41.3014 79.9565 40.5121C80.5436 39.5704 80.6469 38.3989 80.4592 37.3247C80.3034 36.482 79.8472 35.7004 79.175 35.1667C78.4209 34.5272 77.3863 34.2509 76.4119 34.405Z" fill="#383838"/>
<path d="M104.465 34.0984C105.445 33.7334 106.489 33.5535 107.532 33.4941C108.646 33.4322 109.81 33.4976 110.833 33.9865C111.82 34.4702 112.54 35.4429 112.747 36.5197C112.915 37.3641 112.84 38.2292 112.856 39.0831C112.853 40.3338 112.864 41.5845 112.851 42.8343C112.205 42.8369 111.559 42.836 110.913 42.8351C110.899 41.3262 110.911 39.8173 110.908 38.3084C110.903 37.668 110.951 36.988 110.654 36.3975C110.347 35.7734 109.678 35.4291 109.028 35.2785C108.175 35.0633 107.292 35.2182 106.458 35.4377C106.427 37.903 106.481 40.3708 106.432 42.836C105.777 42.8343 105.123 42.8386 104.469 42.8334C104.46 39.9215 104.468 37.0104 104.465 34.0984Z" fill="#383838"/>
<path d="M115.432 34.6342C116.662 33.6348 118.349 33.2578 119.897 33.5444C120.836 33.7132 121.685 34.2856 122.215 35.0766C122.695 35.7643 122.838 36.6208 122.835 37.4437C122.833 39.241 122.842 41.0374 122.831 42.8347C122.314 42.8364 121.798 42.8458 121.281 42.8269C121.188 42.5196 121.09 42.214 120.99 41.9093C120.626 42.227 120.281 42.5954 119.809 42.746C118.839 43.0688 117.758 43.049 116.789 42.7288C115.707 42.3698 114.859 41.3524 114.767 40.2085C114.71 39.1549 115.223 38.0815 116.109 37.4988C116.866 37.0228 117.745 36.7396 118.641 36.7129C119.425 36.6131 120.227 36.7878 120.9 37.2018C120.896 36.5881 120.745 35.9081 120.227 35.5208C119.544 34.9957 118.618 35.0241 117.814 35.1816C117.234 35.2823 116.708 35.5517 116.184 35.8048C115.932 35.4149 115.66 35.0387 115.432 34.6342ZM116.923 39.0886C116.466 39.581 116.607 40.4607 117.176 40.8058C117.713 41.139 118.371 41.1777 118.986 41.1665C119.686 41.1433 120.46 40.9436 120.91 40.3694C120.941 39.859 120.923 39.346 120.913 38.8356C120.267 38.4232 119.484 38.2743 118.728 38.3458C118.075 38.4017 117.378 38.5885 116.923 39.0886Z" fill="#383838"/>
<path d="M84.8852 34.5915C85.7141 33.871 86.8219 33.5172 87.9125 33.5276C89.0272 33.5353 90.1582 33.63 91.2196 33.9881C91.2221 36.7477 91.2187 39.5081 91.2213 42.2678C91.2247 43.0967 91.2023 43.9686 90.8004 44.7158C90.3106 45.66 89.2958 46.2505 88.2585 46.377C86.6954 46.5931 85.1064 45.9553 83.9547 44.9155C84.1217 44.6977 84.3016 44.4894 84.4867 44.2871C85.0944 44.7304 85.7331 45.1634 86.475 45.345C87.4735 45.6221 88.682 45.6196 89.4868 44.8767C90.1875 44.269 90.3183 43.2783 90.277 42.4029C89.3181 42.8402 88.2499 43.0665 87.1972 42.9107C86.0249 42.7558 84.8775 42.1343 84.237 41.1195C82.8745 39.1613 83.1327 36.2304 84.8852 34.5915ZM86.648 34.5433C85.5153 34.8893 84.7027 35.9213 84.3989 37.0369C84.2224 37.8314 84.219 38.6749 84.4333 39.4617C84.7819 40.5325 85.5635 41.5344 86.673 41.8718C87.8617 42.2764 89.1451 41.9889 90.283 41.5585C90.2805 39.2284 90.3046 36.8992 90.2925 34.5699C89.0943 34.39 87.8307 34.1731 86.648 34.5433Z" fill="#383838"/>
</svg>
