<svg width="169" height="76" viewBox="0 0 169 76" fill="none" xmlns="http://www.w3.org/2000/svg">
<path d="M76.1981 20.1339C78.4593 19.0184 80.7046 17.8699 82.9724 16.7656C87.1187 18.8383 91.2706 20.8968 95.4141 22.9761C95.416 27.1733 95.4141 31.3695 95.4141 35.5667C94.6625 35.9175 93.9317 36.3117 93.1849 36.6738C92.8982 36.8171 92.6153 36.9651 92.3296 37.1085C89.1999 38.6408 86.0946 40.2231 82.9687 41.7639C80.5763 40.5947 78.2038 39.3876 75.8181 38.208C75.3768 37.9911 74.942 37.7601 74.5017 37.5413C73.7313 37.1915 72.9891 36.785 72.2272 36.4163C71.7906 36.1976 71.3531 35.9788 70.9184 35.7553C70.543 35.5752 70.1527 35.4205 69.8085 35.181C69.965 35.1122 70.1197 35.0386 70.2743 34.967C70.6505 34.7793 71.0287 34.5926 71.4002 34.3955C71.5266 34.3333 71.6529 34.2711 71.7793 34.2069C71.8255 34.1834 71.9198 34.1381 71.9669 34.1145C72.0933 34.0523 72.2197 33.9891 72.3451 33.924C75.4578 32.3766 78.5744 30.8348 81.6721 29.2572C78.6215 27.7485 75.588 26.202 72.5327 24.7036C72.2206 24.5424 71.9057 24.3858 71.5898 24.2321C71.4389 24.1557 71.288 24.0794 71.139 24.0011C71.0381 23.9502 70.9382 23.8992 70.8382 23.8493C70.5063 23.6776 70.1725 23.5107 69.8349 23.3504C70.0753 23.1618 70.3573 23.0411 70.6326 22.9148C71.9245 22.2764 73.2022 21.6116 74.5007 20.9892C74.6271 20.927 74.7525 20.8638 74.8779 20.8006C75.3155 20.5743 75.7568 20.3537 76.1981 20.1339ZM79.8766 19.5757C79.8304 19.6002 79.7371 19.6492 79.6899 19.6738C79.5645 19.7369 79.4382 19.7982 79.3109 19.8595C79.225 19.9048 79.1383 19.9519 79.0525 19.9982C78.5084 20.2612 77.9718 20.5404 77.4268 20.8035C77.2759 20.8808 77.126 20.9581 76.977 21.0383C76.5941 21.2174 76.2122 21.3975 75.8398 21.5946C75.7379 21.6418 75.637 21.6899 75.5361 21.7361C75.4484 21.7832 75.3607 21.8304 75.273 21.8775C75.174 21.9256 75.0759 21.9737 74.9788 22.0208C74.827 22.101 74.6742 22.1783 74.5215 22.2575C74.3319 22.3499 74.1433 22.4433 73.9557 22.5395C73.8548 22.5876 73.7539 22.6366 73.6539 22.6847C73.3776 22.8271 73.0985 22.9629 72.8232 23.1062C72.6685 23.1684 72.5139 23.2297 72.3555 23.2825C72.396 23.3118 72.478 23.3712 72.5195 23.4014C75.686 25.0054 78.8724 26.5688 82.0417 28.1681C82.352 28.3152 82.6509 28.4934 82.9781 28.6028C85.6693 27.294 88.3323 25.9257 91.0189 24.6046C91.2056 24.5084 91.3942 24.4151 91.5837 24.3208C91.7723 24.2265 91.9609 24.134 92.1514 24.0416C92.2768 23.9775 92.4031 23.9153 92.5304 23.854C92.8482 23.6842 93.1679 23.5164 93.4989 23.3731C93.5008 23.3485 93.5027 23.2995 93.5036 23.2759C93.1076 23.1081 92.7247 22.9119 92.339 22.7205C92.1504 22.6262 91.9618 22.5319 91.7732 22.4395C91.5592 22.3311 91.3442 22.2255 91.1301 22.117C90.4427 21.7643 89.7534 21.4136 89.0537 21.0873C89.0056 21.0628 88.9113 21.0137 88.8642 20.9892C86.9122 20.0029 84.9499 19.0382 82.9941 18.0584C81.9314 18.5054 80.9328 19.1052 79.8766 19.5757ZM93.9525 24.433C93.9044 24.4537 93.8082 24.4962 93.7601 24.5169C93.663 24.5669 93.5649 24.6159 93.4678 24.6649C93.1877 24.8054 92.902 24.9356 92.6238 25.078C92.1834 25.2967 91.744 25.5174 91.3055 25.739C88.9575 26.9139 86.6076 28.0851 84.2587 29.2591C86.2851 30.2964 88.3276 31.3035 90.3644 32.3191C90.4125 32.3427 90.5068 32.3879 90.554 32.4106C91.1782 32.7321 91.8044 33.0508 92.4371 33.3564C92.8096 33.5534 93.1868 33.743 93.5715 33.9165C93.6611 33.9599 93.7507 34.0032 93.8402 34.0476C93.9836 34.1277 94.1269 34.2079 94.2712 34.289C94.2797 30.9367 94.2872 27.5844 94.2674 24.2321C94.1637 24.3019 94.059 24.3688 93.9525 24.433ZM73.3795 34.6926C73.0476 34.8661 72.7147 35.0386 72.3677 35.1801C72.7496 35.4271 73.1683 35.6073 73.5776 35.8034C73.8284 35.9307 74.0802 36.0561 74.3319 36.1815C74.5196 36.2768 74.7091 36.3711 74.8987 36.4625C74.9873 36.5116 75.0769 36.5606 75.1655 36.6096C75.2636 36.6549 75.3626 36.702 75.4616 36.7483C75.8369 36.9406 76.2141 37.1283 76.5913 37.3188C76.7196 37.3782 76.8487 37.4357 76.9798 37.4923C77.0656 37.5394 77.1514 37.5866 77.2372 37.6337C77.6182 37.8166 77.9945 38.0071 78.3688 38.2004C78.4707 38.2476 78.5716 38.2947 78.6734 38.3419C78.7611 38.389 78.8497 38.4371 78.9384 38.4843C79.3523 38.688 79.7635 38.9011 80.1784 39.1038C80.7593 39.3584 81.309 39.6762 81.8842 39.9421C82.053 40.0308 82.2199 40.1213 82.3868 40.2165C82.3953 36.8718 82.3916 33.528 82.3887 30.1842C79.3948 31.7052 76.381 33.1866 73.3795 34.6926ZM83.5316 30.1823C83.5316 33.527 83.5288 36.8718 83.5326 40.2175C84.7301 39.5791 85.9645 39.0161 87.1677 38.39C87.2149 38.3673 87.3092 38.3211 87.3563 38.2976C87.4817 38.2344 87.6081 38.1712 87.7354 38.109C87.8608 38.0448 87.9872 37.9826 88.1145 37.9213C88.2022 37.8742 88.2899 37.828 88.3785 37.7808C88.4766 37.7346 88.5747 37.6875 88.6737 37.6413C88.7218 37.6158 88.8179 37.5639 88.8651 37.5385C89.7553 37.1254 90.6228 36.6672 91.5007 36.2296C91.7798 36.0891 92.0599 35.9496 92.339 35.809C92.7294 35.6299 93.1085 35.4253 93.5027 35.2536C93.5027 35.2291 93.5027 35.1801 93.5017 35.1556C93.1264 34.9971 92.7671 34.8038 92.4031 34.6209C89.446 33.1414 86.4803 31.6788 83.5316 30.1823Z" fill="#3E64FF"/>
<path d="M66.9229 47.402C68.0988 47.1351 69.4077 47.3322 70.3818 48.0668C71.1324 48.6175 71.6237 49.4596 71.8792 50.3432C72.1366 51.2258 72.1366 52.1556 72.0961 53.0655C72.0178 54.2207 71.6454 55.4173 70.7986 56.2434C69.2247 57.8577 66.2506 57.7323 64.8333 55.969C63.9063 54.8581 63.6923 53.3446 63.7573 51.9434C63.7781 50.7194 64.1308 49.453 64.9672 48.5308C65.4839 47.9659 66.178 47.5699 66.9229 47.402ZM67.3661 49.0334C66.8192 49.1663 66.3967 49.6048 66.1629 50.1027C65.8338 50.8222 65.7951 51.6294 65.8046 52.4083C65.7961 53.2636 65.8875 54.1698 66.3703 54.9015C66.9927 55.9048 68.6071 55.9963 69.3681 55.1099C69.8754 54.4923 70.0263 53.6681 70.0564 52.8901C70.0668 52.1339 70.0951 51.3625 69.8942 50.626C69.7622 50.1348 69.518 49.6538 69.1125 49.3323C68.6231 48.9579 67.9527 48.8806 67.3661 49.0334Z" fill="#3E64FF"/>
<path d="M75.9653 47.5274C76.8979 47.2144 77.921 47.2247 78.8696 47.4605C79.7494 47.6792 80.5331 48.2761 80.9385 49.0918C81.1696 49.5426 81.2752 50.0433 81.3497 50.5421C80.6952 50.5412 80.0408 50.5412 79.3873 50.5421C79.2902 50.0838 79.1374 49.6039 78.7593 49.2983C78.2888 48.9174 77.6343 48.8712 77.0572 48.9626C76.4179 49.0673 75.9077 49.5775 75.6852 50.1696C75.3514 51.0353 75.3797 51.9821 75.3985 52.8939C75.4268 53.7039 75.5881 54.5837 76.1737 55.1863C76.7197 55.736 77.5561 55.8181 78.2869 55.7096C78.6565 55.6493 79.0705 55.554 79.3157 55.2466C79.343 54.6884 79.3176 54.1292 79.326 53.571C78.7131 53.571 78.1002 53.571 77.4872 53.571C77.4872 53.0759 77.4872 52.5808 77.4872 52.0858C78.7716 52.0858 80.0568 52.0858 81.3412 52.0858C81.3421 53.3956 81.3402 54.7054 81.3421 56.0152C80.4567 56.9883 79.0903 57.3287 77.8182 57.3674C76.7149 57.4145 75.5419 57.1317 74.7253 56.3509C73.836 55.5456 73.4315 54.3329 73.3551 53.1617C73.3014 51.901 73.3014 50.5732 73.8766 49.4172C74.2811 48.5383 75.0468 47.8367 75.9653 47.5274Z" fill="#3E64FF"/>
<path d="M88.1446 48.3103C89.6967 46.8638 92.4361 46.9505 93.8553 48.546C94.8246 49.6059 95.1179 51.109 95.0632 52.5056C95.1047 54.0125 94.6012 55.6127 93.3904 56.5792C93.9373 56.997 94.4776 57.4251 95.0161 57.8551C94.5814 58.2266 94.1598 58.6123 93.728 58.9867C93.0349 58.4426 92.3606 57.874 91.6619 57.3374C90.7972 57.4053 89.8882 57.3836 89.0961 56.9857C88.1276 56.5462 87.41 55.6683 87.0536 54.6782C86.6849 53.6852 86.6679 52.6065 86.7282 51.5617C86.8131 50.365 87.2393 49.1335 88.1446 48.3103ZM90.2899 49.0392C89.8174 49.1646 89.4336 49.5192 89.2036 49.9416C88.8754 50.5197 88.7849 51.1958 88.7604 51.8502C88.7415 52.6791 88.7368 53.5325 89.0225 54.3227C89.2111 54.831 89.5468 55.3213 90.0598 55.5429C90.7953 55.8664 91.7685 55.7504 92.3069 55.1195C92.817 54.5349 92.9566 53.7305 93.0028 52.9799C93.0179 52.168 93.0547 51.3363 92.8236 50.547C92.669 50.034 92.3899 49.5248 91.924 49.2344C91.4412 48.9364 90.8302 48.8968 90.2899 49.0392Z" fill="#3E64FF"/>
<path d="M57 47.4282C57.6752 47.4311 58.3513 47.4282 59.0265 47.4311C59.0312 50.1572 59.0246 52.8833 59.0302 55.6095C60.4598 55.6104 61.8893 55.6086 63.3189 55.6104C63.3189 56.1526 63.3189 56.6949 63.3189 57.2371C61.2132 57.2342 59.1076 57.239 57.0009 57.2352C57 53.9659 57.0028 50.6975 57 47.4282Z" fill="#3E64FF"/>
<path d="M83.1205 47.4282C83.7928 47.4311 84.4652 47.4301 85.1375 47.4292C85.1356 50.6985 85.1375 53.9668 85.1366 57.2361C84.4652 57.2371 83.7938 57.238 83.1214 57.2352C83.1205 53.9659 83.1233 50.6975 83.1205 47.4282Z" fill="#3E64FF"/>
<path d="M103.384 47.4282C104.009 47.4311 104.635 47.4292 105.261 47.4301C106.485 50.6985 107.705 53.9687 108.933 57.2371C108.215 57.2361 107.497 57.2361 106.78 57.238C106.552 56.5619 106.329 55.8848 106.102 55.2087C104.921 55.2078 103.741 55.2125 102.561 55.2059C102.331 55.882 102.11 56.561 101.88 57.2371C101.164 57.2352 100.449 57.2371 99.7329 57.2361C100.95 53.9668 102.166 50.6975 103.384 47.4282ZM103.1 53.5793C103.919 53.5868 104.738 53.5802 105.557 53.583C105.15 52.3581 104.732 51.137 104.32 49.9139C103.914 51.136 103.51 52.3581 103.1 53.5793Z" fill="#3E64FF"/>
<path d="M109.973 47.4301C110.649 47.4301 111.324 47.4292 112 47.4301C112 50.6985 112 53.9678 112 57.2361C111.324 57.2371 110.649 57.2361 109.973 57.2371C109.973 53.9678 109.973 50.6985 109.973 47.4301Z" fill="#3E64FF"/>
<path d="M97.1888 55.3012C97.8281 55.0485 98.7098 55.4549 98.7193 56.198C98.8192 56.8665 98.1469 57.4021 97.5141 57.306C96.9729 57.3107 96.4863 56.8232 96.5202 56.2772C96.4976 55.8462 96.7824 55.4389 97.1888 55.3012Z" fill="#3E64FF"/>
</svg>
