<svg width="169" height="76" viewBox="0 0 169 76" fill="none" xmlns="http://www.w3.org/2000/svg">
<path fill-rule="evenodd" clip-rule="evenodd" d="M63.9646 23.8491H70.2014V40.5873C70.2014 43.2361 71.4131 44.814 72.3712 45.4904C71.3569 46.3921 68.2571 47.1812 65.9464 45.2649C64.5841 44.1354 63.9646 42.278 63.9646 40.5308V23.8491ZM102.942 37.7531V35.9941H104.844V29.823H102.756C101.954 26.1181 98.6551 23.3418 94.7103 23.3418C90.1659 23.3418 86.4821 27.0258 86.4821 31.57V45.9813C87.7768 46.1633 89.3192 45.9587 90.6315 44.8705C91.9936 43.7407 92.6131 41.8836 92.6131 40.1364V39.6055H95.728V33.4344H92.6131V31.57H92.6206C92.6206 30.416 93.5561 29.4805 94.7103 29.4805C95.8643 29.4805 96.8036 30.416 96.8036 31.57V37.7531C96.8036 42.2973 100.491 45.9813 105.036 45.9813V39.8426C103.882 39.8426 102.942 38.9071 102.942 37.7531ZM79.3212 29.823V38.8797C79.3212 39.3938 78.8946 39.8107 78.3682 39.8107C77.8418 39.8107 77.4153 39.3938 77.4153 38.8797V29.823H71.244V40.4746C71.244 42.3907 71.8938 44.814 74.851 45.6031C77.8113 46.3929 79.5287 44.7578 79.5287 44.7578C79.3722 45.835 78.3576 46.6241 76.7233 46.7932C75.4867 46.921 73.9053 46.5114 73.1165 46.1732V51.8164C75.1266 52.4092 77.2526 52.6007 79.3332 52.197C83.1091 51.4644 85.4922 48.3084 85.4922 44.1096V29.823H79.3212Z" fill="#EA0B8C"/>
</svg>
