<svg width="169" height="76" viewBox="0 0 169 76" fill="none" xmlns="http://www.w3.org/2000/svg">
<path d="M68.8615 39.6029L68.2271 41.4002H68.1743C68.0686 40.9949 67.8747 40.3782 67.5575 39.6381L64.1567 31.0919H60.8263V44.713H63.0289V36.3077C63.0289 35.7791 63.0289 35.18 63.0113 34.4399C62.9937 34.0698 62.9584 33.7879 62.9408 33.5765H62.9937C63.0994 34.1051 63.2228 34.4928 63.3109 34.7395L67.3989 44.6777H68.9496L73.0024 34.6513C73.0906 34.4223 73.1787 33.9641 73.2668 33.5765H73.3196C73.2668 34.5809 73.2315 35.4795 73.2139 36.0258V44.6601H75.5575V31.0566H72.3505L68.8615 39.6029ZM77.7778 34.898H80.0685V44.6601H77.7778V34.898ZM78.9407 30.7747C78.5531 30.7747 78.2359 30.9157 77.9716 31.1624C77.7073 31.4091 77.5663 31.7262 77.5663 32.1139C77.5663 32.484 77.7073 32.8011 77.9716 33.0478C78.2359 33.2945 78.5531 33.4179 78.9407 33.4179C79.3284 33.4179 79.6632 33.2769 79.9099 33.0478C80.1742 32.8011 80.3152 32.484 80.3152 32.1139C80.3152 31.7439 80.1742 31.4267 79.9099 31.1624C79.6808 30.9157 79.346 30.7747 78.9407 30.7747ZM88.1918 34.8099C87.7689 34.7218 87.3284 34.669 86.9055 34.669C85.8658 34.669 84.9143 34.898 84.1213 35.3562C83.3284 35.8143 82.694 36.4487 82.2888 37.2416C81.8658 38.0522 81.6544 38.9861 81.6544 40.061C81.6544 40.9949 81.8658 41.8231 82.2711 42.5808C82.6764 43.3209 83.2403 43.92 83.998 44.3253C84.7205 44.7306 85.5663 44.942 86.5178 44.942C87.6103 44.942 88.5442 44.713 89.2843 44.2901L89.3019 44.2724V42.1579L89.2138 42.2284C88.879 42.4751 88.4914 42.6866 88.1037 42.8099C87.6984 42.9509 87.3284 43.0214 87.0112 43.0214C86.0949 43.0214 85.3724 42.757 84.8614 42.1755C84.3328 41.6117 84.0685 40.8363 84.0685 39.8672C84.0685 38.8628 84.3328 38.0698 84.8791 37.4883C85.4253 36.9068 86.1478 36.6073 87.0288 36.6073C87.7689 36.6073 88.5266 36.854 89.2138 37.3474L89.3019 37.4179V35.18L89.2843 35.1624C88.9848 35.039 88.65 34.898 88.1918 34.8099ZM95.7512 34.7395C95.1874 34.7395 94.6587 34.9157 94.2006 35.2857C93.8129 35.6029 93.5486 36.061 93.3195 36.6073H93.3019V34.898H91.0112V44.6601H93.3019V39.6733C93.3019 38.8275 93.4781 38.1227 93.8658 37.6117C94.2535 37.0831 94.7468 36.8187 95.346 36.8187C95.5574 36.8187 95.7689 36.8716 96.0332 36.9068C96.2799 36.9773 96.4561 37.0478 96.5794 37.1359L96.6675 37.2064V34.9157L96.6147 34.898C96.4561 34.7923 96.1389 34.7395 95.7512 34.7395ZM101.989 34.6866C100.386 34.6866 99.0993 35.1624 98.2006 36.0963C97.2843 37.0302 96.8438 38.3165 96.8438 39.9377C96.8438 41.4531 97.3019 42.6866 98.183 43.5852C99.064 44.4663 100.262 44.9244 101.76 44.9244C103.328 44.9244 104.579 44.4487 105.478 43.4971C106.394 42.5456 106.835 41.2769 106.835 39.7086C106.835 38.1579 106.412 36.9245 105.549 36.0258C104.72 35.1271 103.505 34.6866 101.989 34.6866ZM103.822 42.1932C103.399 42.7394 102.729 43.0037 101.901 43.0037C101.073 43.0037 100.403 42.7394 99.9274 42.1579C99.4517 41.6117 99.2226 40.8187 99.2226 39.8143C99.2226 38.7747 99.4693 37.9817 99.9274 37.4179C100.403 36.854 101.055 36.572 101.883 36.572C102.694 36.572 103.328 36.8364 103.786 37.3826C104.245 37.9289 104.491 38.7218 104.491 39.7615C104.456 40.8187 104.262 41.6469 103.822 42.1932ZM111.945 38.9509C111.223 38.6513 110.764 38.4223 110.553 38.2284C110.377 38.0522 110.289 37.8055 110.289 37.4883C110.289 37.224 110.394 36.9597 110.659 36.7835C110.923 36.6073 111.223 36.5192 111.663 36.5192C112.051 36.5192 112.456 36.5897 112.844 36.6954C113.231 36.8011 113.584 36.9597 113.866 37.1712L113.954 37.2416V35.0919L113.901 35.0743C113.637 34.9685 113.284 34.8628 112.861 34.7747C112.438 34.7042 112.051 34.669 111.734 34.669C110.641 34.669 109.742 34.9333 109.038 35.5148C108.333 36.061 107.998 36.8011 107.998 37.6645C107.998 38.1227 108.068 38.528 108.227 38.8628C108.386 39.1976 108.615 39.5148 108.932 39.7791C109.249 40.0258 109.707 40.3077 110.341 40.572C110.87 40.8011 111.275 40.9773 111.522 41.1183C111.769 41.2592 111.927 41.4178 112.051 41.5412C112.139 41.6822 112.192 41.8584 112.192 42.0874C112.192 42.7394 111.698 43.0566 110.694 43.0566C110.306 43.0566 109.901 42.9861 109.425 42.8275C108.949 42.6689 108.509 42.4399 108.139 42.1755L108.051 42.1051V44.3429L108.104 44.3606C108.438 44.5191 108.844 44.6249 109.337 44.7482C109.83 44.8363 110.271 44.9068 110.659 44.9068C111.839 44.9068 112.808 44.6425 113.496 44.061C114.201 43.4971 114.571 42.7747 114.571 41.8407C114.571 41.1888 114.394 40.6073 114.007 40.1667C113.496 39.7438 112.861 39.3033 111.945 38.9509ZM120.615 34.6866C119.011 34.6866 117.725 35.1624 116.826 36.0963C115.927 37.0302 115.469 38.3165 115.469 39.9377C115.469 41.4531 115.927 42.6866 116.808 43.5852C117.689 44.4663 118.888 44.9244 120.386 44.9244C121.954 44.9244 123.205 44.4487 124.104 43.4971C125.02 42.5456 125.46 41.2769 125.46 39.7086C125.46 38.1579 125.037 36.9245 124.174 36.0258C123.346 35.1271 122.13 34.6866 120.615 34.6866ZM122.43 42.1932C122.007 42.7394 121.337 43.0037 120.509 43.0037C119.663 43.0037 119.011 42.7394 118.535 42.1579C118.06 41.6117 117.83 40.8187 117.83 39.8143C117.83 38.7747 118.077 37.9817 118.535 37.4179C119.011 36.854 119.663 36.572 120.491 36.572C121.284 36.572 121.936 36.8364 122.394 37.3826C122.852 37.9289 123.099 38.7218 123.099 39.7615C123.099 40.8187 122.87 41.6469 122.43 42.1932ZM137.707 36.7835V34.898H135.399V32.0082L135.328 32.0258L133.143 32.6778L133.09 32.6954V34.898H129.637V33.6646C129.637 33.1007 129.778 32.6602 130.024 32.3782C130.271 32.0963 130.641 31.9553 131.099 31.9553C131.416 31.9553 131.751 32.0258 132.121 32.1844L132.209 32.2373V30.2461L132.156 30.2285C131.839 30.1227 131.416 30.0522 130.87 30.0522C130.183 30.0522 129.584 30.2108 129.037 30.4752C128.491 30.7747 128.086 31.18 127.786 31.7262C127.487 32.2549 127.328 32.854 127.328 33.5412V34.898H125.725V36.7659H127.328V44.6601H129.637V36.7835H133.09V41.8055C133.09 43.8672 134.059 44.9068 135.998 44.9068C136.315 44.9068 136.65 44.8539 136.967 44.8011C137.302 44.7306 137.548 44.6425 137.689 44.572L137.707 44.5544V42.6689L137.619 42.7394C137.478 42.8275 137.355 42.898 137.143 42.9509C136.967 43.0037 136.808 43.0214 136.685 43.0214C136.227 43.0214 135.91 42.9156 135.681 42.6513C135.469 42.4046 135.363 41.9993 135.363 41.4002V36.7835H137.707Z" fill="#737373"/>
<path d="M31.2931 26.5103H42.0948V37.312H31.2931V26.5103Z" fill="#F25022"/>
<path d="M43.2225 26.5107H54.0243V37.3125H43.2225V26.5107Z" fill="#7FBA00"/>
<path d="M31.2931 38.4399H42.0948V49.2417H31.2931V38.4399Z" fill="#00A4EF"/>
<path d="M43.2228 38.4399H54.0245V49.2417H43.2228V38.4399Z" fill="#FFB900"/>
</svg>
