<svg width="82" height="16" viewBox="0 0 82 16" fill="none" xmlns="http://www.w3.org/2000/svg">
<path d="M3.2881 2.74258C4.9281 1.46265 6.93446 0.634007 9.01001 0.445321C11.4315 0.162291 14.0181 0.63558 15.9993 2.11205C17.6047 3.26618 18.688 5.21122 18.5921 7.21287C18.5701 9.01011 17.6801 10.6973 16.449 11.9678C14.2083 14.243 10.9236 15.35 7.76154 15.1534C5.49258 14.9962 3.17646 14.1078 1.67168 12.3483C0.772279 11.3482 0.309998 10.0337 0.210938 8.70507V8.0651C0.3839 5.94081 1.6308 4.03036 3.2881 2.74258ZM9.38267 2.71742C8.44552 2.88724 7.54769 3.29763 6.81496 3.90929C4.97998 5.41563 4.41707 8.23807 5.57592 10.3183C6.63885 12.4709 9.30562 13.5873 11.5997 12.9332C14.3011 12.298 16.0747 9.2381 15.3137 6.57448C14.7146 4.01621 11.9551 2.25985 9.38267 2.71742Z" fill="#008C99"/>
<path d="M68.6683 1.60884C69.2312 1.50191 69.7926 1.38241 70.3524 1.25977C70.5253 4.23629 70.3759 7.22068 70.4451 10.1988C70.4609 10.4488 70.5143 10.6941 70.5631 10.9394C70.7596 10.9881 70.9577 11.0321 71.159 11.0699C71.2345 11.3859 71.3147 11.702 71.3901 12.0196C70.8209 12.1784 70.1904 12.2869 69.6369 12.0149C69.0724 11.8026 68.8743 11.1627 68.8271 10.6155C68.7171 7.61535 68.9529 4.60109 68.6683 1.60884Z" fill="black"/>
<path d="M72.931 1.47674C73.5836 1.25346 74.3729 1.78336 74.3084 2.4925C74.3242 3.29127 73.2911 3.785 72.6622 3.31171C71.9577 2.88874 72.1244 1.67643 72.931 1.47674Z" fill="black"/>
<path d="M24.2266 1.90587C24.8619 1.91059 25.4955 1.91216 26.1292 1.90587C27.3541 4.4154 28.7189 6.86832 29.7017 9.48634C29.491 6.96581 29.5664 4.43427 29.5208 1.90744C30.0539 1.90901 30.5869 1.91216 31.12 1.9043C31.1168 5.27706 31.1105 8.64983 31.1231 12.0226C30.5287 12.0147 29.9344 12.0163 29.3416 12.0179C28.1198 9.40772 26.8006 6.84159 25.7015 4.17639C25.9169 6.78498 25.8147 9.40458 25.8855 12.0195C25.3304 12.0147 24.7738 12.0147 24.2188 12.021C24.236 8.64983 24.2203 5.27706 24.2266 1.90587Z" fill="black"/>
<path d="M53.784 1.90751C54.9319 1.9248 56.0813 1.88078 57.2275 1.93266C58.1458 1.96883 59.1301 2.31633 59.6679 3.10252C60.5233 4.32584 60.3173 6.22371 59.0908 7.12783C58.6977 7.43287 58.1914 7.50835 57.7213 7.6137C58.998 8.87789 59.7245 10.5635 60.7387 12.0258C60.0641 12.0101 59.3896 12.0179 58.7166 12.0164C58.149 10.988 57.5971 9.94712 56.9445 8.96909C56.5561 8.40932 56.1473 7.78509 55.4523 7.59011C55.4193 9.06658 55.4413 10.5446 55.4397 12.0227C54.8863 12.0132 54.3328 12.0164 53.7793 12.0179C53.795 8.64832 53.7872 5.2787 53.784 1.90751ZM55.4397 3.23146C55.4334 4.31168 55.4382 5.39191 55.4366 6.47057C56.2039 6.4407 57.031 6.58535 57.7464 6.23471C58.5704 5.66708 58.726 4.24564 57.9131 3.59939C57.1788 3.13711 56.2652 3.25976 55.4397 3.23146Z" fill="black"/>
<path d="M32.5488 6.87006C32.8649 5.57285 34.0347 4.414 35.4294 4.4596C36.549 4.34638 37.7298 4.97062 38.1937 6.0084C38.5978 6.87006 38.527 7.84337 38.6245 8.76479C37.1292 8.80882 35.6323 8.77422 34.1369 8.78523C34.1432 9.52582 34.302 10.4001 35.0253 10.7743C35.953 11.246 37.0883 10.9064 37.8493 10.2664C38.0522 10.595 38.2613 10.9205 38.472 11.246C37.4248 12.0841 35.9766 12.4583 34.6794 12.0385C33.4922 11.713 32.6715 10.5809 32.4906 9.39689C32.3208 8.56195 32.3601 7.69714 32.5488 6.87006ZM34.5347 6.16092C34.214 6.56502 34.1967 7.09492 34.1495 7.58393C35.0803 7.58236 36.0112 7.59022 36.9421 7.57921C36.898 7.03988 36.8273 6.45495 36.4546 6.03198C35.9593 5.47379 34.9561 5.54926 34.5347 6.16092Z" fill="black"/>
<path d="M39.3276 4.75507C39.856 4.66073 40.3859 4.56481 40.9189 4.48462C41.3167 6.35733 41.8167 8.20803 42.106 10.1012C42.5306 8.26464 43.0416 6.44853 43.5495 4.63242C44.0762 4.63242 44.603 4.63557 45.1313 4.63242C45.5684 6.45796 46.0936 8.26306 46.4458 10.109C46.8436 8.2835 47.2006 6.44696 47.6424 4.63085C48.1943 4.634 48.7462 4.634 49.2997 4.63085C48.5843 7.09478 47.8893 9.56657 47.2037 12.0399C46.6974 12.0494 46.1911 12.0478 45.6848 12.0462C45.1958 10.2427 44.7461 8.42659 44.2476 6.62464C43.8687 8.45489 43.3482 10.249 42.8608 12.0509C42.3561 12.0431 41.8513 12.0509 41.3482 12.0447C40.6893 9.6106 40.0273 7.17654 39.3276 4.75507Z" fill="black"/>
<path d="M62.2721 5.27085C63.4765 4.0554 65.7612 4.18434 66.7722 5.58848C67.3949 6.52405 67.3823 7.70491 67.3839 8.78828C65.9106 8.78828 64.4372 8.7757 62.9623 8.79457C62.9199 9.56661 63.1652 10.4471 63.9073 10.8182C64.8429 11.2223 65.9153 10.8811 66.6747 10.2648C66.8729 10.595 67.0773 10.9204 67.2817 11.2459C66.1417 12.1799 64.486 12.5038 63.1164 11.9032C62.0786 11.4393 61.4214 10.367 61.2736 9.26471C61.0409 7.88888 61.228 6.28819 62.2721 5.27085ZM63.4765 6.01302C63.0535 6.41398 62.9969 7.03193 62.9576 7.57912C63.8916 7.58855 64.824 7.58698 65.758 7.57912C65.6621 7.04451 65.6543 6.42656 65.2391 6.02088C64.7847 5.52558 63.9404 5.53973 63.4765 6.01302Z" fill="black"/>
<path d="M72.4344 4.74575C72.9706 4.63725 73.5068 4.5319 74.0477 4.44385C74.0508 6.97067 74.0382 9.4975 74.054 12.0227C73.5115 12.0133 72.9706 12.0149 72.4297 12.0212C72.4407 9.59656 72.4313 7.17036 72.4344 4.74575Z" fill="black"/>
<path d="M77.68 4.64814C78.7476 4.24089 80.0181 4.43429 80.8735 5.21262C80.6078 5.56641 80.3405 5.91862 80.0763 6.27241C79.6376 5.93435 79.0983 5.62459 78.5228 5.7661C77.9394 5.82428 77.5793 6.39663 77.4708 6.92495C77.2822 7.9297 77.2381 8.98006 77.4944 9.97852C77.6564 10.5572 78.2114 11.0493 78.8372 10.988C79.4237 11.01 79.9018 10.6295 80.3294 10.2804C80.5732 10.6122 80.8279 10.9361 81.0873 11.2584C79.7838 12.5793 77.2381 12.5871 76.1846 10.9581C75.4991 9.80871 75.3701 8.36211 75.7051 7.0759C75.9362 6.0224 76.6501 5.03809 77.68 4.64814Z" fill="black"/>
<path d="M9.38325 2.71734C11.9557 2.25978 14.7152 4.01613 15.3143 6.5744C16.0753 9.23803 14.3017 12.2979 11.6003 12.9331C9.3062 13.5872 6.63944 12.4709 5.5765 10.3183C4.41766 8.23799 4.98057 5.41556 6.81555 3.90921C7.54828 3.29755 8.44611 2.88716 9.38325 2.71734ZM8.77159 4.64037C7.51526 4.91082 6.45704 5.96589 6.26835 7.25053C5.9979 8.74115 6.97121 10.3686 8.44139 10.7758C9.14582 11.0038 9.93044 10.9944 10.616 10.7035C12.0343 10.1563 12.9117 8.488 12.5154 7.00996C12.1554 5.39826 10.3849 4.26929 8.77159 4.64037Z" fill="#70CCD3"/>
</svg>
