<svg width="169" height="76" viewBox="0 0 169 76" fill="none" xmlns="http://www.w3.org/2000/svg">
<path d="M47.1389 32.8468C48.7789 31.5669 50.7853 30.7383 52.8608 30.5496C55.2823 30.2665 57.8689 30.7398 59.8501 32.2163C61.4555 33.3704 62.5389 35.3155 62.443 37.3171C62.4209 39.1144 61.531 40.8015 60.2998 42.072C58.0591 44.3473 54.7744 45.4542 51.6124 45.2577C49.3434 45.1004 47.0273 44.212 45.5225 42.4525C44.6231 41.4525 44.1608 40.138 44.0618 38.8093V38.1694C44.2347 36.0451 45.4816 34.1346 47.1389 32.8468ZM53.2335 32.8217C52.2964 32.9915 51.3985 33.4019 50.6658 34.0135C48.8308 35.5199 48.2679 38.3423 49.4267 40.4226C50.4897 42.5752 53.1564 43.6916 55.4506 43.0375C58.1519 42.4022 59.9256 39.3424 59.1645 36.6787C58.5655 34.1205 55.8059 32.3641 53.2335 32.8217Z" fill="#008C99"/>
<path d="M112.519 31.7133C113.082 31.6064 113.644 31.4869 114.203 31.3643C114.376 34.3408 114.227 37.3252 114.296 40.3033C114.312 40.5533 114.365 40.7986 114.414 41.0439C114.611 41.0926 114.809 41.1366 115.01 41.1744C115.085 41.4904 115.166 41.8065 115.241 42.1241C114.672 42.2829 114.041 42.3914 113.488 42.1194C112.923 41.9071 112.725 41.2671 112.678 40.72C112.568 37.7198 112.804 34.7056 112.519 31.7133Z" fill="black"/>
<path d="M116.782 31.581C117.434 31.3577 118.224 31.8876 118.159 32.5967C118.175 33.3955 117.142 33.8893 116.513 33.416C115.809 32.993 115.975 31.7807 116.782 31.581Z" fill="black"/>
<path d="M68.0774 32.0104C68.7127 32.0151 69.3464 32.0167 69.98 32.0104C71.2049 34.5199 72.5698 36.9728 73.5525 39.5908C73.3418 37.0703 73.4173 34.5388 73.3717 32.0119C73.9047 32.0135 74.4377 32.0167 74.9708 32.0088C74.9676 35.3816 74.9613 38.7543 74.9739 42.1271C74.3796 42.1192 73.7852 42.1208 73.1924 42.1224C71.9707 39.5122 70.6514 36.9461 69.5523 34.2809C69.7678 36.8895 69.6656 39.5091 69.7363 42.1239C69.1813 42.1192 68.6246 42.1192 68.0696 42.1255C68.0869 38.7543 68.0712 35.3816 68.0774 32.0104Z" fill="black"/>
<path d="M97.6348 32.0119C98.7827 32.0292 99.9321 31.9851 101.078 32.037C101.997 32.0732 102.981 32.4207 103.519 33.2069C104.374 34.4302 104.168 36.3281 102.942 37.2322C102.549 37.5372 102.042 37.6127 101.572 37.7181C102.849 38.9823 103.575 40.6679 104.59 42.1302C103.915 42.1145 103.24 42.1223 102.567 42.1207C102 41.0924 101.448 40.0515 100.795 39.0735C100.407 38.5137 99.9981 37.8895 99.3031 37.6945C99.2701 39.1709 99.2921 40.649 99.2906 42.127C98.7371 42.1176 98.1836 42.1207 97.6301 42.1223C97.6459 38.7527 97.638 35.3831 97.6348 32.0119ZM99.2906 33.3358C99.2843 34.4161 99.289 35.4963 99.2874 36.5749C100.055 36.5451 100.882 36.6897 101.597 36.3391C102.421 35.7715 102.577 34.35 101.764 33.7038C101.03 33.2415 100.116 33.3641 99.2906 33.3358Z" fill="black"/>
<path d="M76.3996 36.9744C76.7157 35.6772 77.8855 34.5184 79.2802 34.564C80.3998 34.4508 81.5806 35.075 82.0445 36.1128C82.4486 36.9744 82.3779 37.9477 82.4753 38.8692C80.98 38.9132 79.4831 38.8786 77.9877 38.8896C77.994 39.6302 78.1528 40.5044 78.8761 40.8787C79.8039 41.3504 80.9391 41.0107 81.7002 40.3708C81.903 40.6994 82.1121 41.0249 82.3228 41.3504C81.2756 42.1885 79.8274 42.5627 78.5302 42.1429C77.3431 41.8174 76.5223 40.6853 76.3415 39.5013C76.1716 38.6663 76.211 37.8015 76.3996 36.9744ZM78.3856 36.2653C78.0648 36.6694 78.0475 37.1993 78.0003 37.6883C78.9312 37.6867 79.862 37.6946 80.7929 37.6836C80.7489 37.1443 80.6781 36.5593 80.3054 36.1364C79.8101 35.5782 78.807 35.6536 78.3856 36.2653Z" fill="black"/>
<path d="M83.1785 34.8598C83.7068 34.7655 84.2367 34.6695 84.7697 34.5894C85.1675 36.4621 85.6676 38.3128 85.9569 40.2059C86.3814 38.3694 86.8924 36.5533 87.4003 34.7372C87.9271 34.7372 88.4538 34.7403 88.9821 34.7372C89.4193 36.5627 89.9444 38.3678 90.2967 40.2138C90.6945 38.3882 91.0514 36.5517 91.4932 34.7356C92.0451 34.7387 92.5971 34.7387 93.1505 34.7356C92.4351 37.1995 91.7401 39.6713 91.0545 42.1447C90.5482 42.1541 90.0419 42.1525 89.5356 42.151C89.0466 40.3474 88.5969 38.5313 88.0985 36.7294C87.7195 38.5596 87.1991 40.3537 86.7116 42.1557C86.2069 42.1478 85.7021 42.1557 85.199 42.1494C84.5402 39.7153 83.8782 37.2813 83.1785 34.8598Z" fill="black"/>
<path d="M106.123 35.3756C107.327 34.1601 109.612 34.2891 110.623 35.6932C111.246 36.6288 111.233 37.8096 111.235 38.893C109.761 38.893 108.288 38.8804 106.813 38.8993C106.771 39.6713 107.016 40.5519 107.758 40.923C108.694 41.3271 109.766 40.9859 110.526 40.3695C110.724 40.6997 110.928 41.0252 111.133 41.3507C109.993 42.2847 108.337 42.6086 106.967 42.0079C105.929 41.5441 105.272 40.4717 105.124 39.3695C104.892 37.9936 105.079 36.3929 106.123 35.3756ZM107.327 36.1178C106.904 36.5187 106.848 37.1367 106.808 37.6839C107.742 37.6933 108.675 37.6917 109.609 37.6839C109.513 37.1492 109.505 36.5313 109.09 36.1256C108.636 35.6303 107.791 35.6445 107.327 36.1178Z" fill="black"/>
<path d="M116.285 34.8502C116.821 34.7417 117.358 34.6364 117.898 34.5483C117.902 37.0752 117.889 39.602 117.905 42.1272C117.362 42.1178 116.821 42.1194 116.281 42.1257C116.292 39.701 116.282 37.2749 116.285 34.8502Z" fill="black"/>
<path d="M121.531 34.7526C122.598 34.3454 123.869 34.5388 124.724 35.3171C124.459 35.6709 124.191 36.0231 123.927 36.3769C123.488 36.0388 122.949 35.7291 122.374 35.8706C121.79 35.9288 121.43 36.5011 121.322 37.0294C121.133 38.0342 121.089 39.0846 121.345 40.083C121.507 40.6617 122.062 41.1538 122.688 41.0925C123.275 41.1145 123.753 40.734 124.18 40.3849C124.424 40.7167 124.679 41.0406 124.938 41.3629C123.635 42.6837 121.089 42.6916 120.035 41.0626C119.35 39.9132 119.221 38.4666 119.556 37.1804C119.787 36.1269 120.501 35.1426 121.531 34.7526Z" fill="black"/>
<path d="M53.2341 32.8216C55.8065 32.364 58.566 34.1204 59.1651 36.6787C59.9262 39.3423 58.1525 42.4021 55.4511 43.0374C53.157 43.6915 50.4903 42.5751 49.4273 40.4225C48.2685 38.3422 48.8314 35.5198 50.6664 34.0135C51.3991 33.4018 52.2969 32.9914 53.2341 32.8216ZM52.6224 34.7446C51.3661 35.0151 50.3079 36.0701 50.1192 37.3548C49.8487 38.8454 50.822 40.4728 52.2922 40.8801C52.9967 41.1081 53.7813 41.0986 54.4668 40.8077C55.8851 40.2605 56.7625 38.5922 56.3663 37.1142C56.0062 35.5025 54.2357 34.3735 52.6224 34.7446Z" fill="#70CCD3"/>
</svg>
