<svg width="156" height="60" viewBox="0 0 156 60" fill="none" xmlns="http://www.w3.org/2000/svg">
<g clip-path="url(#clip0_110_52)">
<g clip-path="url(#clip1_110_52)">
<rect x="-6.7998" y="-35.4592" width="169" height="130.918" rx="4.62065" fill="#F9FBFC"/>
<g clip-path="url(#clip2_110_52)">
<path d="M89.621 15.7106H86.9004V18.6667H89.621V15.7106Z" fill="#020405"/>
<path d="M32.3127 20.8704H35.0809V33.9352C35.0809 33.9352 34.8428 36.6111 37.0651 36.6111C39.2873 36.6111 40.2714 33.9352 40.2714 33.9352V20.8704H42.8682V38.4496H40.2397V36.6111C40.2397 36.6111 39.2873 38.8148 35.4777 38.8148C31.6682 38.8148 32.3127 32.7011 32.3127 32.7011V20.8704Z" fill="#1D1D1B"/>
<path d="M63.0304 13H60.4336V38.8054H63.0304V13Z" fill="#1D1D1B"/>
<path d="M68.1764 21.1852V15.7106H70.8177V21.1852H74.624V23.433H70.7161V33.9352C70.7161 33.9352 70.2399 38.0278 73.4939 36.6898C73.4939 36.6898 74.2081 36.2963 74.2081 35.6667V38.1852C74.2081 38.1852 73.824 39.1076 70.8431 38.8054C67.8621 38.5032 68.1764 34.0863 68.1764 32.9876V23.3543H65.6367V21.1695L68.1764 21.1852V21.1852Z" fill="#1D1D1B"/>
<path d="M77.0557 20.8704H79.5826V23.2252C79.5826 23.2252 81.7858 19.926 84.5033 20.8704V23.2252C84.5033 23.2252 81.7795 23.0615 79.5826 25.9012V38.8023H77.0557V20.8704Z" fill="#1D1D1B"/>
<path d="M89.621 20.8704H86.9004V38.5H89.621V20.8704Z" fill="#1D1D1B"/>
<path d="M100.557 26.2222H102.897C102.897 26.2222 102.776 20.8704 98.4936 20.8704C94.2111 20.8704 92.6016 24.6481 92.6016 30C92.6016 35.3518 94.6238 38.8652 97.7508 38.8652C100.878 38.8652 102.9 36.6741 102.9 33.1796H100.878C100.878 33.1796 100.878 36.9259 98.0206 36.9259C95.1635 36.9259 95.1285 30 95.1285 30C95.1285 30 94.5285 23.3889 98.3381 23.3889C98.3381 23.3889 100.56 23.0741 100.56 26.2222H100.557Z" fill="#1D1D1B"/>
<path d="M112.938 26.2222H115.265C115.265 26.2222 115.497 20.8704 110.408 20.8704C105.319 20.8704 105.637 25.2778 105.637 25.2778C105.637 25.2778 105.954 28.1111 109.764 30.3148C113.573 32.5185 112.621 35.037 112.621 35.037C112.621 35.037 112.087 36.7118 110.449 36.7118C108.811 36.7118 107.224 35.037 107.224 33.1481H105.002C105.002 33.1481 104.703 38.8652 110.408 38.8652C116.113 38.8652 115.265 33.7589 115.265 33.7589C115.265 33.7589 115.157 30.9444 111.348 29.0555C107.538 27.1667 108.491 24.0185 108.491 24.0185C108.491 24.0185 108.808 22.7593 110.713 22.7593C112.618 22.7593 112.935 24.3333 112.935 26.2222H112.938Z" fill="#1D1D1B"/>
<path d="M26.6875 20.8704L26.5891 22.4444C26.5891 22.4444 25.9542 20.8704 23.097 20.8704C20.2399 20.8704 17.7002 24.0122 17.7002 31.4135C17.7002 38.8148 23.097 38.8148 23.097 38.8148C23.097 38.8148 25.1986 38.5409 26.5891 37.162V47H28.9383V20.8704H26.6875ZM26.2716 34.6498C26.2716 34.6498 25.4462 36.5828 23.3192 36.5828C21.1923 36.5828 20.2399 32.5217 20.2399 29.0587C20.2399 25.5957 21.6367 22.9828 23.3192 22.9828C25.0018 22.9828 26.2716 24.9661 26.2716 24.9661V34.653V34.6498Z" fill="#1D1D1B"/>
<path d="M58.351 36.3907C58.351 36.3907 56.4303 37.2407 56.4303 34.7222V24.963C56.4303 24.963 56.1065 20.8704 52.3002 20.8704C48.4938 20.8704 46.2716 23.0741 46.2716 26.2222H48.8399C48.8399 26.2222 49.1288 23.0741 51.351 23.0741C53.5732 23.0741 53.8907 25.5926 53.8907 26.8518C53.8907 26.8518 49.043 29.0555 47.9732 29.8426C46.9034 30.6296 44.6843 33.1481 45.9542 35.9815C47.224 38.8148 51.0335 39.4444 52.6208 38.1852L54.2081 36.9259C54.2081 36.9259 54.4272 38.7928 56.5415 38.8022C58.6557 38.8117 58.3351 38.5 58.3351 38.5L58.351 36.3907ZM53.8907 34.8104C53.8907 34.8104 52.5002 36.863 50.0208 36.5796C47.5415 36.2963 46.9065 31.2592 53.8907 29.3704V34.8104Z" fill="#1D1D1B"/>
<path d="M134.684 15.7106L132.303 23.3889L129.453 15.7106H124.31L122.307 18.6667L120.649 15.7106H117.859L121.084 20.7004L117.859 26.3608H119.951L122.459 22.4445L124.681 26.3608H128.808V20.2408L131.281 26.3608H133.284L135.475 19.2963V26.3608H137.697V15.7106H134.681H134.684ZM126.272 24.9787L123.875 20.7004L126.272 16.463V24.9787Z" fill="url(#paint0_linear_110_52)"/>
<path d="M116.611 37.0392C116.611 36.2207 117.275 35.5596 118.1 35.5596C118.935 35.5596 119.605 36.2175 119.605 37.0423C119.605 37.8609 118.932 38.5283 118.107 38.5251C117.281 38.5251 116.615 37.8609 116.611 37.0392V37.0392ZM118.103 35.7988C117.414 35.7988 116.853 36.3592 116.853 37.0423C116.853 37.7223 117.421 38.2827 118.11 38.2827C118.795 38.2827 119.361 37.7192 119.361 37.0392C119.361 36.3592 118.792 35.7988 118.103 35.802V35.7988Z" fill="black"/>
<path d="M117.805 37.1556V37.864H117.576V36.2521C117.84 36.2143 118.103 36.1766 118.36 36.2521C118.459 36.2805 118.56 36.334 118.633 36.4032C118.817 36.5795 118.767 36.8912 118.538 37.0329C118.513 37.0486 118.487 37.0612 118.456 37.0801C118.722 37.2784 118.738 37.5743 118.802 37.8703C118.729 37.8703 118.662 37.8734 118.598 37.8703C118.583 37.8703 118.563 37.8325 118.554 37.8073C118.51 37.6656 118.478 37.5208 118.421 37.3823C118.354 37.228 118.23 37.143 118.049 37.1588C117.97 37.1651 117.89 37.1588 117.802 37.1588L117.805 37.1556ZM117.808 36.4095V36.9856C117.97 36.9762 118.129 36.9762 118.284 36.951C118.44 36.9258 118.513 36.8282 118.516 36.6897C118.516 36.548 118.449 36.463 118.294 36.4221C118.135 36.3812 117.976 36.3843 117.811 36.4064L117.808 36.4095Z" fill="black"/>
<path d="M117.808 36.4096C117.973 36.3876 118.135 36.3813 118.291 36.4254C118.446 36.4663 118.516 36.5544 118.513 36.693C118.513 36.8315 118.437 36.9291 118.281 36.9543C118.126 36.9794 117.967 36.9763 117.805 36.9889V36.4128L117.808 36.4096Z" fill="white"/>
</g>
</g>
</g>
<defs>
<linearGradient id="paint0_linear_110_52" x1="122.976" y1="12.7828" x2="132.466" y2="29.3573" gradientUnits="userSpaceOnUse">
<stop stop-color="#11AF96"/>
<stop offset="0.46" stop-color="#00B2EC"/>
<stop offset="1" stop-color="#414898"/>
</linearGradient>
<clipPath id="clip0_110_52">
<rect width="155.4" height="60" rx="7.70109" fill="white"/>
</clipPath>
<clipPath id="clip1_110_52">
<rect x="-6.7998" y="-3" width="169" height="66" rx="7.70109" fill="white"/>
</clipPath>
<clipPath id="clip2_110_52">
<rect width="120" height="34" fill="white" transform="translate(17.7002 13)"/>
</clipPath>
</defs>
</svg>
