<svg width="63" height="19" viewBox="0 0 63 19" fill="none" xmlns="http://www.w3.org/2000/svg">
<path d="M7.52409 11.3407C7.52409 11.7378 7.44392 12.135 7.25891 12.4791C7.0806 12.8148 6.83744 13.1119 6.54353 13.353C6.22593 13.591 5.85529 13.7766 5.43162 13.9092C5.00794 14.0418 4.53123 14.1208 4.028 14.1208C3.4187 14.1208 2.85627 14.0406 2.38634 13.8827C1.91641 13.7248 1.43292 13.4325 0.929688 13.0625L1.724 11.765C2.12116 12.0826 2.46528 12.3212 2.75698 12.4803C3.07458 12.6394 3.39218 12.6919 3.7104 12.6919C4.10756 12.6919 4.42578 12.5858 4.66382 12.3743C4.90187 12.1627 5.03385 11.8976 5.03385 11.554C5.03385 11.3949 5.00733 11.263 4.98081 11.1304C4.92133 10.987 4.84113 10.8532 4.74276 10.7332C4.60305 10.5641 4.44293 10.4128 4.26605 10.283L3.47174 9.70024L2.75636 9.16988C2.51831 8.98486 2.30617 8.77272 2.12116 8.56057C1.9325 8.34334 1.77231 8.10294 1.64445 7.8452C1.53837 7.58001 1.45944 7.28893 1.45944 6.94481C1.45944 6.54765 1.53961 6.20353 1.69748 5.88593C1.85523 5.5673 2.08114 5.28728 2.3592 5.06572C2.62439 4.85419 2.96851 4.66856 3.36566 4.53535C3.76282 4.40214 4.18588 4.35034 4.63607 4.35034C5.11278 4.35034 5.58949 4.40338 6.03969 4.53535C6.48988 4.66733 6.91356 4.85295 7.28419 5.09162L6.56882 6.26335C6.06559 5.91923 5.56236 5.73299 5.00671 5.73299C4.66259 5.73299 4.39741 5.81316 4.1865 5.99817C3.97558 6.18318 3.86889 6.39533 3.86889 6.65989C3.86889 6.89794 3.97497 7.13661 4.15998 7.32162C4.34499 7.53315 4.69034 7.79833 5.1467 8.16897L6.31844 9.06935C6.63604 9.33454 6.8747 9.57258 7.05971 9.81063C7.24473 10.0487 7.37732 10.2608 7.42974 10.4989C7.48277 10.8165 7.53581 11.0817 7.53581 11.3462L7.52409 11.3407ZM15.746 9.17543C15.746 8.16897 15.5344 7.34813 15.1367 6.76597C14.713 6.18318 14.1499 5.8921 13.442 5.8921C12.7007 5.8921 12.0852 6.2097 11.6677 6.819C11.2175 7.42831 11.006 8.27566 11.006 9.36105C11.006 10.394 11.2175 11.2149 11.6412 11.8235C12.0649 12.4322 12.6742 12.7239 13.4155 12.7239C13.8656 12.7239 14.2357 12.6179 14.5274 12.3798C14.8213 12.1387 15.0644 11.8417 15.2427 11.5059C15.4369 11.1437 15.5625 10.7488 15.6134 10.341C15.7195 9.91732 15.746 9.52078 15.746 9.16926V9.17543ZM18.3411 9.06319C18.3411 9.80446 18.235 10.4668 17.9969 11.0755C17.7854 11.6848 17.4666 12.2139 17.07 12.6912C16.6729 13.1414 16.1962 13.5115 15.6393 13.7501C15.083 14.0153 14.5009 14.1201 13.865 14.1201C13.5982 14.1226 13.3318 14.0959 13.0707 14.0406C12.8327 13.9876 12.594 13.908 12.3553 13.8025C12.1438 13.6965 11.9051 13.5374 11.6936 13.3524C11.4511 13.1364 11.2213 12.9066 11.0054 12.6641V18.569H8.60332V4.61491H10.9863V5.97165C11.4099 5.41539 11.8866 5.01823 12.3899 4.78018C12.8931 4.515 13.5018 4.41016 14.1641 4.41016C14.7734 4.41016 15.3359 4.51624 15.8323 4.75428C16.322 4.98596 16.7625 5.30965 17.1299 5.70771C17.4999 6.10486 17.7651 6.60809 17.9772 7.16436C18.2153 7.74714 18.3213 8.38235 18.3213 9.07614L18.3411 9.06319ZM29.8672 13.9092V12.6647C29.3905 13.1951 28.9138 13.5651 28.4106 13.8032C27.9074 14.0412 27.3252 14.1473 26.6838 14.1473C25.9425 14.1473 25.3271 14.0147 24.83 13.7236C24.3329 13.4325 23.9561 13.0082 23.7446 12.4261C23.6884 12.2889 23.6441 12.1471 23.612 12.0024L23.5319 11.4992C23.4989 11.2801 23.4812 11.059 23.4788 10.8374V4.64143H25.9413V9.96357L25.9943 11.049C26.0474 11.287 26.1269 11.5257 26.2324 11.7107C26.5235 12.2411 27.0267 12.505 27.7415 12.505C28.6684 12.505 29.3036 12.1078 29.6532 11.3333C29.7334 11.1217 29.8124 10.9096 29.8383 10.6715C29.875 10.3285 29.8927 9.98361 29.8913 9.63857V4.60751H32.3538V13.9351H29.8672V13.9092ZM40.4326 13.9092V8.61916L40.3796 7.53376C40.3265 7.29572 40.247 7.05705 40.1415 6.87204C39.8504 6.34168 39.3472 6.10424 38.6324 6.10424C38.2172 6.09995 37.8075 6.20004 37.441 6.39533C37.1234 6.58034 36.8582 6.87204 36.6997 7.24268C36.6195 7.45421 36.5406 7.66635 36.5147 7.93092C36.4882 8.16897 36.4616 8.5137 36.4616 8.93738V13.9419H33.9991V4.61491H36.4616V5.85941C36.9384 5.32905 37.4151 4.95903 37.9183 4.72098C38.4215 4.48293 39.0037 4.37686 39.6451 4.37686C40.3863 4.37686 41.0018 4.53597 41.4989 4.82705C41.9959 5.11814 42.3727 5.56833 42.5843 6.1246C42.6373 6.25719 42.6903 6.38978 42.7169 6.54827L42.8229 7.0515C42.8571 7.27045 42.8748 7.49164 42.876 7.71322V13.9092H40.4326Z" fill="black"/>
<path d="M44.5897 13.9092H47.0522V8.98425L50.7524 14.0949L53.0367 13.3061L49.3032 8.6722L52.4483 5.2828L50.5945 4.48849L47.3112 8.30156H47.046V0.284424H44.5835L44.5897 13.9092ZM19.3813 14.4396H21.8438V0.801837H19.3813V14.4396Z" fill="black"/>
<path d="M55.1553 6.38924V4.72168L62.5958 8.45458V9.96365L55.1553 13.67V12.0296L60.9276 9.19648L55.1553 6.38924Z" fill="#989898"/>
</svg>
