<svg width="169" height="76" viewBox="0 0 169 76" fill="none" xmlns="http://www.w3.org/2000/svg">
<path d="M60.2613 39.7901C60.2613 40.1873 60.1811 40.5844 59.9961 40.9286C59.8178 41.2643 59.5746 41.5613 59.2807 41.8024C58.9631 42.0405 58.5925 42.2261 58.1688 42.3587C57.7451 42.4913 57.2684 42.5702 56.7652 42.5702C56.1559 42.5702 55.5935 42.4901 55.1235 42.3322C54.6536 42.1743 54.1701 41.882 53.6669 41.512L54.4612 40.2144C54.8583 40.532 55.2025 40.7707 55.4942 40.9298C55.8118 41.0889 56.1294 41.1413 56.4476 41.1413C56.8447 41.1413 57.163 41.0353 57.401 40.8237C57.6391 40.6122 57.771 40.347 57.771 40.0035C57.771 39.8444 57.7445 39.7124 57.718 39.5798C57.6585 39.4365 57.5783 39.3027 57.4799 39.1827C57.3402 39.0135 57.1801 38.8623 57.0032 38.7325L56.2089 38.1497L55.4935 37.6193C55.2555 37.4343 55.0434 37.2222 54.8583 37.01C54.6697 36.7928 54.5095 36.5524 54.3816 36.2947C54.2756 36.0295 54.1966 35.7384 54.1966 35.3943C54.1966 34.9971 54.2768 34.653 54.4347 34.3354C54.5924 34.0168 54.8183 33.7367 55.0964 33.5152C55.3616 33.3037 55.7057 33.118 56.1028 32.9848C56.5 32.8516 56.9231 32.7998 57.3733 32.7998C57.85 32.7998 58.3267 32.8528 58.7769 32.9848C59.2271 33.1168 59.6507 33.3024 60.0214 33.5411L59.306 34.7128C58.8028 34.3687 58.2995 34.1825 57.7439 34.1825C57.3998 34.1825 57.1346 34.2626 56.9237 34.4476C56.7128 34.6326 56.6061 34.8448 56.6061 35.1094C56.6061 35.3474 56.7121 35.5861 56.8972 35.7711C57.0822 35.9826 57.4275 36.2478 57.8839 36.6184L59.0556 37.5188C59.3732 37.784 59.6119 38.022 59.7969 38.2601C59.9819 38.4981 60.1145 38.7103 60.1669 38.9483C60.22 39.2659 60.273 39.5311 60.273 39.7957L60.2613 39.7901ZM68.4832 37.6249C68.4832 36.6184 68.2716 35.7976 67.8739 35.2154C67.4502 34.6326 66.8871 34.3416 66.1792 34.3416C65.4379 34.3416 64.8224 34.6592 64.4049 35.2685C63.9547 35.8778 63.7432 36.7251 63.7432 37.8105C63.7432 38.8435 63.9547 39.6643 64.3784 40.273C64.8021 40.8817 65.4114 41.1734 66.1526 41.1734C66.6028 41.1734 66.9729 41.0673 67.2646 40.8293C67.5585 40.5882 67.8016 40.2911 67.9799 39.9554C68.174 39.5932 68.2997 39.1983 68.3506 38.7905C68.4566 38.3668 68.4832 37.9702 68.4832 37.6187V37.6249ZM71.0782 37.5126C71.0782 38.2539 70.9722 38.9163 70.7341 39.5249C70.5226 40.1343 70.2038 40.6634 69.8072 41.1407C69.4101 41.5909 68.9334 41.9609 68.3765 42.1996C67.8202 42.4648 67.238 42.5696 66.6022 42.5696C66.3353 42.5721 66.069 42.5454 65.8079 42.4901C65.5699 42.437 65.3312 42.3575 65.0925 42.252C64.881 42.1459 64.6423 41.9868 64.4308 41.8018C64.1883 41.5859 63.9585 41.3561 63.7426 41.1136V47.0185H61.3405V33.0644H63.7234V34.4211C64.1471 33.8649 64.6238 33.4677 65.1271 33.2296C65.6303 32.9645 66.239 32.8596 66.9013 32.8596C67.5106 32.8596 68.0731 32.9657 68.5695 33.2037C69.0591 33.4354 69.4997 33.7591 69.867 34.1572C70.2371 34.5543 70.5022 35.0576 70.7144 35.6138C70.9524 36.1966 71.0585 36.8318 71.0585 37.5256L71.0782 37.5126ZM82.6044 42.3587V41.1142C82.1277 41.6446 81.651 42.0146 81.1478 42.2526C80.6445 42.4907 80.0624 42.5967 79.421 42.5967C78.6797 42.5967 78.0643 42.4642 77.5672 42.1731C77.0701 41.882 76.6933 41.4577 76.4818 40.8755C76.4256 40.7383 76.3813 40.5966 76.3492 40.4519L76.269 39.9486C76.2361 39.7295 76.2184 39.5084 76.216 39.2869V33.0909H78.6785V38.413L78.7315 39.4984C78.7846 39.7365 78.8641 39.9751 78.9696 40.1602C79.2607 40.6905 79.7639 40.9545 80.4786 40.9545C81.4056 40.9545 82.0408 40.5573 82.3904 39.7827C82.4706 39.5712 82.5495 39.3591 82.5754 39.121C82.6122 38.7779 82.6299 38.4331 82.6285 38.088V33.057H85.091V42.3846H82.6044V42.3587ZM93.1698 42.3587V37.0686L93.1167 35.9832C93.0637 35.7452 92.9841 35.5065 92.8787 35.3215C92.5876 34.7911 92.0844 34.5537 91.3696 34.5537C90.9543 34.5494 90.5447 34.6495 90.1782 34.8448C89.8605 35.0298 89.5954 35.3215 89.4369 35.6921C89.3567 35.9037 89.2778 36.1158 89.2519 36.3804C89.2253 36.6184 89.1988 36.9632 89.1988 37.3868V42.3914H86.7363V33.0644H89.1988V34.3089C89.6755 33.7785 90.1522 33.4085 90.6555 33.1704C91.1587 32.9324 91.7409 32.8263 92.3822 32.8263C93.1235 32.8263 93.739 32.9854 94.2361 33.2765C94.7331 33.5676 95.1099 34.0178 95.3215 34.5741C95.3745 34.7067 95.4275 34.8392 95.454 34.9977L95.5601 35.501C95.5942 35.7199 95.612 35.9411 95.6132 36.1627V42.3587H93.1698Z" fill="black"/>
<path d="M97.3268 42.3582H99.7893V37.4332L103.489 42.5438L105.774 41.7551L102.04 37.1212L105.185 33.7318L103.332 32.9375L100.048 36.7505H99.7831V28.7334H97.3206L97.3268 42.3582ZM72.1184 42.8886H74.5809V29.2508H72.1184V42.8886Z" fill="black"/>
<path d="M107.893 34.8375V33.1699L115.333 36.9028V38.4119L107.893 42.1183V40.4779L113.665 37.6447L107.893 34.8375Z" fill="#989898"/>
</svg>
