<svg width="169" height="76" viewBox="0 0 169 76" fill="none" xmlns="http://www.w3.org/2000/svg">
<path d="M61.1599 33.7735V42.0612H59.2252V41.183C58.7861 41.8966 57.9765 42.3082 56.7965 42.3082C54.8343 42.3082 53.8601 41.2928 53.8601 39.6737V33.7735H55.9732V39.1111C55.9732 39.9756 56.4397 40.4832 57.3453 40.4832C58.4019 40.4832 59.0468 39.8795 59.0468 38.7681V33.7735H61.1599ZM74.8812 36.2708V42.0612H72.7681V36.902C72.7681 35.914 72.3702 35.3103 71.4509 35.3103C70.5316 35.3103 69.9964 35.9964 69.9964 36.9569V42.0612H67.8833V36.902C67.8833 35.8454 67.4443 35.3103 66.5661 35.3103C65.633 35.3103 65.1116 35.9964 65.1116 36.9569V42.0612H62.9985V33.7735H64.9607V34.6928C65.4409 33.897 66.2368 33.4991 67.3208 33.4991C68.3773 33.4991 69.1732 33.9382 69.626 34.7203C70.1885 33.9107 71.0255 33.4991 72.1095 33.4991C73.8796 33.4991 74.8812 34.5556 74.8812 36.2708ZM91.8409 42.0612H89.7278V30.5353H91.8409V42.0612ZM114.756 42.0612H112.642V33.7735H114.756V42.0612ZM112.601 32.5249H114.783V30.5078H112.601V32.5249ZM122.673 39.2346C121.808 40.1539 121.218 40.5107 120.422 40.5107C119.476 40.5107 118.803 39.9618 118.501 39.1111V36.6962C118.817 35.8317 119.489 35.2828 120.45 35.2828C121.15 35.2828 121.712 35.5298 122.604 36.3668L123.921 35.0633C122.865 33.9107 121.836 33.4854 120.45 33.4854C118.515 33.4854 117.02 34.5007 116.43 36.2022V39.6051C117.006 41.3065 118.474 42.3082 120.395 42.3082C121.891 42.3082 122.92 41.8142 124.072 40.3872L122.673 39.2346ZM49.2772 36.9569C48.7009 36.8334 48.2892 36.7236 48.056 36.6687C47.7678 36.5864 47.5483 36.4766 47.4385 36.3257V35.6945C47.6306 35.3926 48.0971 35.2005 48.742 35.2005C49.6339 35.2005 50.2514 35.4063 51.2256 36.1747L52.3645 34.8026C51.2119 33.8421 50.2239 33.4991 48.7969 33.4991C47.1504 33.4991 46.0115 34.1714 45.5587 35.1319V37.2176C45.9154 37.9174 46.7387 38.3153 48.3853 38.672C48.9753 38.8092 49.3732 38.9053 49.6065 38.9465C49.9083 39.0425 50.1828 39.166 50.3337 39.3855V40.1128C50.1279 40.4421 49.6339 40.6205 48.989 40.6205C48.5225 40.6342 48.0697 40.5381 47.6443 40.3598C47.2327 40.1951 46.7524 39.8795 46.1487 39.3855L44.9275 40.744C46.2447 41.9103 47.3562 42.3082 48.9341 42.3082C50.6219 42.3082 51.8156 41.6633 52.2684 40.6342V38.5348C51.8842 37.7527 50.9649 37.3411 49.2772 36.9569ZM80.4247 33.4854C78.5174 33.4854 77.0218 34.5145 76.4043 36.161V39.6462C77.008 41.2928 78.5174 42.3219 80.4247 42.3219C82.3319 42.3219 83.8138 41.2928 84.4176 39.66V36.1473C83.8001 34.5145 82.3045 33.4854 80.4247 33.4854ZM82.3731 39.1248C82.0438 40.003 81.344 40.5244 80.411 40.5244C79.4916 40.5244 78.7644 40.003 78.4351 39.1248V36.6824C78.7644 35.8043 79.4642 35.2691 80.411 35.2691C81.344 35.2691 82.0301 35.8043 82.3594 36.6824L82.3731 39.1248ZM97.4941 33.4854C95.5868 33.4854 94.0912 34.5145 93.4737 36.161V39.6462C94.0912 41.2928 95.5868 42.3219 97.4941 42.3219C99.4013 42.3219 100.883 41.2928 101.487 39.66V36.1473C100.883 34.5145 99.3876 33.4854 97.4941 33.4854ZM99.4425 39.1248C99.1132 40.003 98.4134 40.5244 97.4941 40.5244C96.5747 40.5244 95.8475 40.003 95.5182 39.1248V36.6824C95.8475 35.8043 96.5473 35.2691 97.4941 35.2691C98.4408 35.2691 99.1132 35.8043 99.4425 36.6824V39.1248ZM108.842 33.7735V34.6928C108.306 33.897 107.469 33.4991 106.317 33.4991C104.753 33.4991 103.49 34.4596 102.941 35.9826V39.3993C103.477 40.9223 104.739 41.8691 106.317 41.8691C107.373 41.8691 108.169 41.5124 108.732 40.8126V41.4712C108.732 42.8433 107.936 43.4882 106.701 43.4882C105.782 43.4882 105.027 43.2138 103.82 42.5003L102.791 44.0234C103.957 44.8055 105.329 45.2308 106.729 45.2446C109.061 45.2446 110.776 43.9959 110.776 41.6633V33.7735H108.842ZM108.581 38.8092C108.265 39.5914 107.607 40.0853 106.783 40.0853C105.96 40.0853 105.302 39.6051 104.986 38.8092V36.5452C105.302 35.7631 105.946 35.2828 106.783 35.2828C107.62 35.2828 108.265 35.7631 108.581 36.5452V38.8092Z" fill="#000099"/>
</svg>
