<svg width="156" height="60" viewBox="0 0 156 60" fill="none" xmlns="http://www.w3.org/2000/svg">
<g clip-path="url(#clip0_110_73)">
<g clip-path="url(#clip1_110_73)">
<rect x="-6.7998" y="-35.4592" width="169" height="130.918" rx="4.62065" fill="#F9FBFC"/>
<g clip-path="url(#clip2_110_73)">
<path d="M59.9312 29.2911H63.4925L64.2343 36.3488L67.6194 29.2911H71.5865L71.982 36.3488L75.3159 29.2911H79.0453L72.8406 40.708H69.4882L68.7423 33.0276L65.2384 40.708H61.6688L59.9312 29.2911Z" fill="#514C4C"/>
<path d="M91.4878 29.7063H88.0679L84.3159 36.9716L82.9922 29.7063H79.3017L81.6808 40.708C81.6808 40.708 81.0373 44.1081 77.6563 43.0308L76.5293 45.6899C76.5293 45.6899 81.0373 47.965 84.0086 42.6758C86.9798 37.3867 91.4878 29.7063 91.4878 29.7063Z" fill="#514C4C"/>
<path d="M93.5367 32.6123L92.0409 40.7079H95.1904L96.7313 32.6123H101.77L101 36.6601C101 36.6601 99.4792 41.1231 103.577 41.1231C107.676 41.1231 106.46 40.7079 106.46 40.7079L106.95 37.9409C106.95 37.9409 103.838 39.0473 104.221 36.8677C104.604 34.6881 104.991 32.6123 104.991 32.6123H108.071L108.702 29.7062H105.762L106.448 26.5925H102.821L102.12 29.7062H97.4301C97.4301 29.7062 97.2251 25.3471 100.914 26.1774L101.528 23.4788C101.528 23.4788 97.2251 22.2334 95.5859 24.7243C95.5859 24.7243 94.4629 26.8001 93.9998 29.7062H91.9569L91.2827 32.6123H93.5367V32.6123Z" fill="#514C4C"/>
<path d="M60.6916 25.5111C59.7286 26.385 58.8392 27.1904 57.8946 28.0436C56.7901 27.0991 55.5484 26.7753 54.1796 27.2714C53.3988 27.5537 52.7595 28.029 52.7431 28.9756C52.7267 29.891 53.4255 30.1879 54.1078 30.4556C55.0668 30.8314 56.0668 31.1137 56.993 31.5579C58.5319 32.2948 59.0544 33.424 58.7819 35.1365C58.2983 38.188 55.8885 40.3364 52.6263 40.5834C50.4379 40.7495 48.3785 40.4734 46.6982 38.599C47.6839 37.7147 48.6265 36.8719 49.6223 35.9793C50.6715 37.2476 51.9583 37.7458 53.4992 37.2871C53.9746 37.1459 54.4644 36.8761 54.8148 36.5273C55.5504 35.7946 55.4521 34.8646 54.5545 34.3477C53.7861 33.9056 52.9357 33.5942 52.0997 33.2953C48.8273 32.1204 48.0384 29.5091 50.1223 26.6736C52.1059 23.9729 56.6651 22.989 59.5564 24.6538C59.9335 24.8718 60.2593 25.1831 60.6937 25.5153L60.6916 25.5111Z" fill="#514C4C"/>
<path d="M65.4639 19.7424C65.4639 19.7424 73.4554 19.3273 80.6273 19.3273C87.7992 19.3273 92.7171 18.0818 93.5367 17.2515C94.3564 16.4212 93.9465 15.3833 92.3072 15.1757C90.668 14.9681 75.2996 14.3454 75.2996 14.3454C75.2996 14.3454 91.0778 10.609 96.2006 10.1938C101.323 9.77865 103.168 12.2696 102.758 14.1378C102.758 14.1378 106.241 13.3075 107.266 15.1757C107.266 15.1757 107.88 16.1534 108.7 16.1825C108.7 16.1825 104.602 16.8363 102.758 18.497C100.914 20.1576 99.9463 21.7809 87.5205 21.3844C75.0947 20.9879 65.4639 19.7424 65.4639 19.7424V19.7424Z" fill="#7A2885"/>
<path d="M76.0537 10.1482C76.0537 10.1482 86.3648 9.77871 88.6189 9.15598C90.8729 8.53324 97.4936 7.86484 100.534 9.65209C100.534 9.65209 93.7417 9.57113 89.2336 10.609C86.9161 11.1425 85.6005 11.4767 84.869 11.6781C84.3342 11.8234 83.7707 11.786 83.2584 11.5743C82.1826 11.128 79.8937 10.3994 76.0537 10.1482V10.1482Z" fill="#E94E1D"/>
<path d="M65.8735 22.2335C65.8735 22.2335 76.1765 21.0046 87.5204 21.9304C87.5204 21.9304 76.1191 23.0638 65.8735 22.2335V22.2335Z" fill="#E94E1D"/>
<path d="M49.4111 47.6057C49.5812 47.5704 49.8476 47.5435 50.1181 47.5435C50.5054 47.5435 50.7554 47.612 50.9418 47.7656C51.0976 47.8818 51.1918 48.0624 51.1918 48.3011C51.1918 48.5938 51.0012 48.8512 50.6836 48.9695V48.9778C50.9685 49.0505 51.3025 49.2892 51.3025 49.7396C51.3025 50.0012 51.2 50.2005 51.0484 50.3479C50.8394 50.5409 50.5013 50.6322 50.0115 50.6322C49.7451 50.6322 49.5402 50.6136 49.4111 50.5969V47.6057ZM49.7984 48.8512H50.1509C50.5607 48.8512 50.8004 48.6353 50.8004 48.3406C50.8004 47.9835 50.534 47.8444 50.1406 47.8444C49.9623 47.8444 49.8599 47.859 49.7984 47.8714V48.8491V48.8512ZM49.7984 50.3084C49.8742 50.3229 49.9849 50.3271 50.1242 50.3271C50.5258 50.3271 50.8947 50.1776 50.8947 49.7355C50.8947 49.3203 50.5422 49.148 50.1201 49.148H49.8005V50.3063L49.7984 50.3084Z" fill="#514C4C"/>
<path d="M52.4911 49.586C52.4993 50.1237 52.8374 50.3437 53.2308 50.3437C53.5116 50.3437 53.6796 50.2939 53.8271 50.2316L53.8947 50.516C53.7575 50.5783 53.5198 50.6509 53.1776 50.6509C52.5136 50.6509 52.1182 50.2088 52.1182 49.5508C52.1182 48.8927 52.5013 48.3738 53.1284 48.3738C53.8312 48.3738 54.0197 49.0007 54.0197 49.4013C54.0197 49.4823 54.0115 49.5466 54.0074 49.586H52.4932H52.4911ZM53.6407 49.3017C53.6448 49.0484 53.5382 48.6561 53.0976 48.6561C52.7022 48.6561 52.528 49.0256 52.4972 49.3017H53.6407Z" fill="#514C4C"/>
<path d="M55.4212 47.7968V48.4236H55.9827V48.7267H55.4212V49.9037C55.4212 50.1735 55.497 50.3271 55.7142 50.3271C55.8167 50.3271 55.8925 50.3126 55.9417 50.3002L55.9601 50.597C55.8843 50.6281 55.7634 50.651 55.6138 50.651C55.4314 50.651 55.2839 50.5928 55.1917 50.4849C55.081 50.3687 55.0401 50.1735 55.0401 49.9161V48.7246H54.7061V48.4216H55.0401V47.8985L55.4232 47.7947L55.4212 47.7968Z" fill="#514C4C"/>
<path d="M57.3411 47.7968V48.4236H57.9026V48.7267H57.3411V49.9037C57.3411 50.1735 57.4169 50.3271 57.6341 50.3271C57.7366 50.3271 57.8124 50.3126 57.8616 50.3002L57.88 50.597C57.8042 50.6281 57.6833 50.651 57.5337 50.651C57.3514 50.651 57.2038 50.5928 57.1116 50.4849C57.001 50.3687 56.96 50.1735 56.96 49.9161V48.7246H56.626V48.4216H56.96V47.8985L57.3432 47.7947L57.3411 47.7968Z" fill="#514C4C"/>
<path d="M58.9784 49.586C58.9866 50.1237 59.3247 50.3437 59.7181 50.3437C59.9989 50.3437 60.1669 50.2939 60.3144 50.2316L60.382 50.516C60.2448 50.5783 60.0071 50.6509 59.6649 50.6509C59.0009 50.6509 58.6055 50.2088 58.6055 49.5508C58.6055 48.8927 58.9887 48.3738 59.6157 48.3738C60.3185 48.3738 60.507 49.0007 60.507 49.4013C60.507 49.4823 60.4988 49.5466 60.4948 49.586H58.9805H58.9784ZM60.128 49.3017C60.1321 49.0484 60.0255 48.6561 59.5849 48.6561C59.1895 48.6561 59.0153 49.0256 58.9846 49.3017H60.128Z" fill="#514C4C"/>
<path d="M61.4374 49.1045C61.4374 48.8471 61.4333 48.627 61.4189 48.4236H61.7611L61.7734 48.8512H61.7919C61.8902 48.5585 62.1259 48.3738 62.3882 48.3738C62.4333 48.3738 62.464 48.3779 62.4988 48.3883V48.762C62.4578 48.7537 62.4189 48.7474 62.3656 48.7474C62.089 48.7474 61.8943 48.9592 61.8411 49.2581C61.8329 49.312 61.8226 49.3764 61.8226 49.4428V50.6073H61.4353V49.1045H61.4374Z" fill="#514C4C"/>
<path d="M63.0093 50.3707C63.0093 50.2046 63.1199 50.0863 63.2757 50.0863C63.4314 50.0863 63.5379 50.2046 63.5379 50.3707C63.5379 50.5368 63.4355 50.6551 63.2716 50.6551C63.1158 50.6551 63.0093 50.5326 63.0093 50.3707Z" fill="#514C4C"/>
<path d="M67.9699 50.5077C67.8265 50.5803 67.5417 50.653 67.1769 50.653C66.3306 50.653 65.6934 50.1112 65.6934 49.1148C65.6934 48.1185 66.3306 47.5186 67.2609 47.5186C67.6359 47.5186 67.8716 47.5995 67.974 47.6535L67.8798 47.9732C67.7322 47.9005 67.5232 47.8465 67.2732 47.8465C66.5704 47.8465 66.1032 48.3011 66.1032 49.1003C66.1032 49.8434 66.5253 50.3229 67.2568 50.3229C67.4925 50.3229 67.7343 50.2731 67.89 50.1963L67.9699 50.5077V50.5077Z" fill="#514C4C"/>
<path d="M68.8857 47.4044H69.2771V48.7661H69.2853C69.3468 48.654 69.4451 48.5544 69.566 48.4859C69.6808 48.4174 69.8201 48.3738 69.9677 48.3738C70.2566 48.3738 70.7197 48.5544 70.7197 49.3079V50.6074H70.3283V49.3536C70.3283 49.0007 70.1992 48.7039 69.8304 48.7039C69.5763 48.7039 69.3755 48.8845 69.3058 49.1003C69.2833 49.1543 69.2792 49.2124 69.2792 49.2892V50.6053H68.8878V47.4023L68.8857 47.4044Z" fill="#514C4C"/>
<path d="M72.0209 49.586C72.0291 50.1237 72.3672 50.3437 72.7606 50.3437C73.0413 50.3437 73.2094 50.2939 73.3569 50.2316L73.4245 50.516C73.2872 50.5783 73.0495 50.6509 72.7073 50.6509C72.0434 50.6509 71.6479 50.2088 71.6479 49.5508C71.6479 48.8927 72.0311 48.3738 72.6582 48.3738C73.361 48.3738 73.5495 49.0007 73.5495 49.4013C73.5495 49.4823 73.5413 49.5466 73.5352 49.586H72.0209V49.586ZM73.1704 49.3017C73.1745 49.0484 73.068 48.6561 72.6274 48.6561C72.2319 48.6561 72.0578 49.0256 72.027 49.3017H73.1704Z" fill="#514C4C"/>
<path d="M75.6723 50.6053L75.6416 50.3292H75.6272C75.5063 50.5015 75.2748 50.653 74.9674 50.653C74.531 50.653 74.3076 50.3416 74.3076 50.0261C74.3076 49.4989 74.7707 49.2103 75.6027 49.2145V49.1688C75.6027 48.9882 75.5535 48.6644 75.1129 48.6644C74.9121 48.6644 74.7031 48.7267 74.5515 48.8263L74.4634 48.5648C74.6416 48.4485 74.8998 48.3717 75.1723 48.3717C75.8322 48.3717 75.992 48.8263 75.992 49.2643V50.0801C75.992 50.269 76.0002 50.4537 76.0268 50.6032H75.6703L75.6723 50.6053ZM75.615 49.4906C75.1867 49.4823 74.7031 49.5591 74.7031 49.9825C74.7031 50.2399 74.8732 50.3624 75.0719 50.3624C75.3527 50.3624 75.5309 50.1818 75.5924 49.997C75.6068 49.9555 75.615 49.9119 75.615 49.8704V49.4906V49.4906Z" fill="#514C4C"/>
<path d="M77.0702 49.1356C77.0702 48.8554 77.062 48.6312 77.0518 48.4236H77.4042L77.4226 48.7972H77.4308C77.5907 48.5315 77.8448 48.3738 78.1972 48.3738C78.7177 48.3738 79.1091 48.8201 79.1091 49.4843C79.1091 50.269 78.6378 50.6571 78.1296 50.6571C77.8448 50.6571 77.5948 50.5305 77.4657 50.3146H77.4575V51.4999H77.0702V49.1377V49.1356ZM77.4575 49.7168C77.4575 49.7749 77.4657 49.8289 77.4759 49.8787C77.5476 50.1548 77.7833 50.3437 78.064 50.3437C78.4779 50.3437 78.7177 50.0012 78.7177 49.5009C78.7177 49.0629 78.4902 48.6893 78.0763 48.6893C77.8099 48.6893 77.5599 48.8823 77.4841 49.1813C77.4718 49.2311 77.4575 49.2892 77.4575 49.3432V49.7168V49.7168Z" fill="#514C4C"/>
<path d="M80.2665 49.586C80.2747 50.1237 80.6128 50.3437 81.0062 50.3437C81.2869 50.3437 81.455 50.2939 81.6025 50.2316L81.6701 50.516C81.5328 50.5783 81.2951 50.6509 80.9529 50.6509C80.289 50.6509 79.8936 50.2088 79.8936 49.5508C79.8936 48.8927 80.2767 48.3738 80.9038 48.3738C81.6066 48.3738 81.7951 49.0007 81.7951 49.4013C81.7951 49.4823 81.7869 49.5466 81.7828 49.586H80.2685H80.2665ZM81.416 49.3017C81.4201 49.0484 81.3136 48.6561 80.873 48.6561C80.4776 48.6561 80.3034 49.0256 80.2726 49.3017H81.416Z" fill="#514C4C"/>
<path d="M82.7255 49.1045C82.7255 48.8471 82.7214 48.627 82.707 48.4236H83.0492L83.0615 48.8512H83.08C83.1783 48.5585 83.414 48.3738 83.6763 48.3738C83.7213 48.3738 83.7521 48.3779 83.7869 48.3883V48.762C83.7459 48.7537 83.707 48.7474 83.6537 48.7474C83.3771 48.7474 83.1824 48.9592 83.1291 49.2581C83.121 49.312 83.1107 49.3764 83.1107 49.4428V50.6073H82.7234V49.1045H82.7255Z" fill="#514C4C"/>
<path d="M84.2974 50.3707C84.2974 50.2046 84.408 50.0863 84.5637 50.0863C84.7195 50.0863 84.826 50.2046 84.826 50.3707C84.826 50.5368 84.7236 50.6551 84.5596 50.6551C84.4039 50.6551 84.2974 50.5326 84.2974 50.3707Z" fill="#514C4C"/>
<path d="M87.1597 47.5663H88.7764V47.8963H87.547V48.9072H88.6822V49.2311H87.547V50.6073H87.1597V47.5663Z" fill="#514C4C"/>
<path d="M90.7543 50.6053L90.7235 50.3292H90.7112C90.5903 50.5015 90.3588 50.653 90.0514 50.653C89.615 50.653 89.3916 50.3416 89.3916 50.0261C89.3916 49.4989 89.8547 49.2103 90.6866 49.2145V49.1688C90.6866 48.9882 90.6375 48.6644 90.1969 48.6644C89.9961 48.6644 89.7871 48.7267 89.6354 48.8263L89.5453 48.5648C89.7236 48.4485 89.9817 48.3717 90.2543 48.3717C90.9141 48.3717 91.0739 48.8263 91.0739 49.2643V50.0801C91.0739 50.269 91.0821 50.4537 91.1088 50.6032H90.7522L90.7543 50.6053ZM90.6969 49.4906C90.2686 49.4823 89.785 49.5591 89.785 49.9825C89.785 50.2399 89.9551 50.3624 90.1539 50.3624C90.4346 50.3624 90.6129 50.1818 90.6743 49.997C90.6866 49.9555 90.6969 49.9119 90.6969 49.8704V49.4906V49.4906Z" fill="#514C4C"/>
<path d="M92.0984 50.2005C92.2152 50.2773 92.418 50.3582 92.6147 50.3582C92.8996 50.3582 93.0328 50.2129 93.0328 50.0344C93.0328 49.8455 92.9221 49.7417 92.6311 49.6338C92.2438 49.4947 92.0615 49.2767 92.0615 49.0152C92.0615 48.6623 92.3422 48.3738 92.8053 48.3738C93.0225 48.3738 93.2151 48.4361 93.336 48.5087L93.2377 48.7972C93.1536 48.7433 92.9979 48.6706 92.7971 48.6706C92.5656 48.6706 92.4365 48.8055 92.4365 48.9675C92.4365 49.148 92.5656 49.229 92.8463 49.3369C93.2213 49.4823 93.4118 49.6711 93.4118 49.995C93.4118 50.379 93.1188 50.6488 92.6065 50.6488C92.3709 50.6488 92.1516 50.5907 92 50.4994L92.0984 50.1963V50.2005Z" fill="#514C4C"/>
<path d="M94.8318 47.7968V48.4236H95.3933V48.7267H94.8318V49.9037C94.8318 50.1735 94.9077 50.3271 95.1249 50.3271C95.2273 50.3271 95.3031 50.3126 95.3523 50.3002L95.3708 50.597C95.2949 50.6281 95.174 50.651 95.0245 50.651C94.8421 50.651 94.6946 50.5928 94.6023 50.4849C94.4917 50.3687 94.4507 50.1735 94.4507 49.9161V48.7246H94.1167V48.4216H94.4507V47.8985L94.8339 47.7947L94.8318 47.7968Z" fill="#514C4C"/>
<path d="M96.4711 49.586C96.4793 50.1237 96.8174 50.3437 97.2108 50.3437C97.4915 50.3437 97.6596 50.2939 97.8071 50.2316L97.8747 50.516C97.7374 50.5783 97.4997 50.6509 97.1575 50.6509C96.4936 50.6509 96.0981 50.2088 96.0981 49.5508C96.0981 48.8927 96.4813 48.3738 97.1084 48.3738C97.8112 48.3738 97.9997 49.0007 97.9997 49.4013C97.9997 49.4823 97.9915 49.5466 97.9854 49.586H96.4711V49.586ZM97.6206 49.3017C97.6247 49.0484 97.5182 48.6561 97.0776 48.6561C96.6821 48.6561 96.508 49.0256 96.4772 49.3017H97.6206Z" fill="#514C4C"/>
<path d="M98.9281 49.1045C98.9281 48.8471 98.924 48.627 98.9097 48.4236H99.2519L99.2662 48.8512H99.2847C99.383 48.5585 99.6187 48.3738 99.8809 48.3738C99.926 48.3738 99.9568 48.3779 99.9916 48.3883V48.762C99.9506 48.7537 99.9117 48.7474 99.8584 48.7474C99.5818 48.7474 99.3871 48.9592 99.3338 49.2581C99.3256 49.312 99.3154 49.3764 99.3154 49.4428V50.6073H98.9281V49.1045V49.1045Z" fill="#514C4C"/>
</g>
</g>
</g>
<defs>
<clipPath id="clip0_110_73">
<rect width="155.4" height="60" rx="7.70109" fill="white"/>
</clipPath>
<clipPath id="clip1_110_73">
<rect x="-6.7998" y="-3" width="169" height="66" rx="7.70109" fill="white"/>
</clipPath>
<clipPath id="clip2_110_73">
<rect width="62" height="43" fill="white" transform="translate(46.7002 8.5)"/>
</clipPath>
</defs>
</svg>
