<svg width="82" height="20" viewBox="0 0 82 20" fill="none" xmlns="http://www.w3.org/2000/svg">
<path d="M4.69471 0.72602C7.03331 0.686282 9.37289 0.720059 11.7115 0.709131C12.8291 0.72304 13.9557 0.658465 15.0644 0.839274C16.2973 1.03995 17.4318 1.82876 17.9961 2.95235C18.5067 3.90011 18.5236 5.00682 18.5375 6.0569C18.5385 8.67565 18.5395 11.2944 18.5355 13.9131C18.5206 14.9304 18.4898 15.9994 17.9961 16.9164C17.4705 17.9645 16.4483 18.7264 15.3098 18.9827C14.5865 19.1427 13.8405 19.1536 13.1023 19.1596C10.5859 19.1606 8.06849 19.1606 5.55206 19.1616C4.82287 19.1556 4.08672 19.1457 3.37044 18.9957C2.21505 18.7523 1.17093 17.9883 0.634462 16.9293C0.13376 16.0083 0.103956 14.9314 0.0880612 13.9082C0.0870678 11.2259 0.0860743 8.54352 0.0880612 5.86119C0.106937 4.96609 0.13674 4.03721 0.506306 3.20568C0.876864 2.34635 1.55539 1.6241 2.39983 1.21579C3.10618 0.850202 3.91088 0.760791 4.69471 0.72602ZM8.31784 7.44675C8.28705 9.03429 8.30393 10.6218 8.28506 12.2094C8.28804 12.565 8.14796 12.9197 7.8847 13.1611C7.3979 13.6479 6.52068 13.6101 6.07661 13.0836C5.58485 12.5501 5.79149 11.7723 5.74877 11.1186C5.42689 11.2239 5.10104 11.3471 4.7573 11.35C4.38873 11.3639 4.03804 11.2348 3.69331 11.1215C3.70622 11.8766 3.62079 12.6604 3.89896 13.3807C4.3937 14.8053 5.94448 15.754 7.43864 15.5325C8.98545 15.3666 10.2809 13.9787 10.3306 12.423C10.3634 10.8354 10.3465 9.24589 10.3654 7.65835C10.3634 7.30369 10.5054 6.94902 10.7697 6.70861C11.2575 6.22579 12.1297 6.26453 12.5728 6.78908C13.0666 7.32157 12.8569 8.09845 12.9036 8.75314C13.2265 8.64684 13.5514 8.52464 13.8961 8.52266C14.2627 8.50974 14.6124 8.6369 14.9561 8.74817C14.9442 7.99613 15.0276 7.21527 14.7525 6.49601C14.2597 5.07139 12.7099 4.12066 11.2148 4.33922C9.66795 4.50413 8.3705 5.89 8.31784 7.44675ZM3.6943 5.56812C3.67145 6.18903 3.69728 6.80994 3.69033 7.42986C4.34402 7.13083 5.09408 7.12884 5.74778 7.43184C5.73089 6.78014 5.76963 6.12744 5.72393 5.47672C5.67724 4.96311 5.17654 4.55579 4.6659 4.59255C4.15328 4.60447 3.70026 5.05451 3.6943 5.56812ZM4.20295 7.98917C3.63668 8.21071 3.2542 8.82964 3.33765 9.43664C3.41018 10.1619 4.12844 10.747 4.85565 10.6526C5.6226 10.589 6.23059 9.79925 6.0776 9.04124C5.95541 8.20773 4.98083 7.64444 4.20295 7.98917ZM13.5335 9.26775C12.9175 9.43962 12.4675 10.0744 12.5351 10.7142C12.5827 11.4365 13.2752 12.0405 13.9984 11.9779C14.7604 11.9471 15.3962 11.196 15.2869 10.439C15.2134 9.62341 14.3183 9.01342 13.5335 9.26775ZM12.8937 12.4418C12.8967 13.0945 12.8659 13.7492 12.9106 14.4009C12.9632 14.9483 13.5325 15.3606 14.069 15.2672C14.5428 15.2046 14.9303 14.7745 14.9352 14.2966C14.9581 13.6797 14.9333 13.0618 14.9402 12.4438C14.2895 12.7399 13.5424 12.7468 12.8937 12.4418Z" fill="#2FB762"/>
<path d="M26.6362 4.30337C27.2819 4.2537 27.9327 4.2537 28.5784 4.30337C28.6648 5.00971 28.5873 5.72202 28.635 6.43035C29.4725 6.5138 30.316 6.41645 31.1544 6.49195C31.217 7.06815 31.213 7.65131 31.1594 8.22851C30.3229 8.3209 29.4805 8.22354 28.643 8.28911C28.5883 9.66604 28.634 11.0459 28.6181 12.4239C28.6152 12.8938 28.6837 13.5107 29.1983 13.6945C29.8292 13.9021 30.5067 13.7462 31.1564 13.8366C31.213 14.4366 31.222 15.0436 31.1485 15.6427C30.0845 15.6357 28.947 15.8245 27.9505 15.3526C27.1041 14.9572 26.6332 14.0263 26.6064 13.1183C26.5637 11.5089 26.6332 9.89652 26.5716 8.28712C26.0729 8.25136 25.5692 8.29904 25.0745 8.21559C25.0457 7.64436 25.0407 7.07014 25.0804 6.4999C25.5782 6.44228 26.0809 6.48301 26.5786 6.43135C26.6263 5.72202 26.5488 5.00971 26.6362 4.30337Z" fill="#1E212D"/>
<path d="M72.7303 4.30337C73.3761 4.2537 74.0258 4.2537 74.6715 4.30337C74.758 5.00971 74.6815 5.72202 74.7292 6.43035C75.5666 6.5138 76.4111 6.41645 77.2496 6.49195C77.3102 7.06815 77.3062 7.65131 77.2545 8.22752C76.418 8.3209 75.5746 8.22453 74.7371 8.28812C74.6825 9.66504 74.7272 11.0459 74.7123 12.4239C74.7083 12.8938 74.7788 13.5127 75.2944 13.6945C75.9253 13.9021 76.6018 13.7462 77.2515 13.8376C77.3072 14.4366 77.3151 15.0436 77.2436 15.6417C76.1796 15.6367 75.0421 15.8235 74.0467 15.3536C73.1992 14.9582 72.7263 14.0263 72.7005 13.1183C72.6588 11.5079 72.7264 9.89652 72.6667 8.28712C72.167 8.25136 71.6643 8.29904 71.1686 8.21659C71.1388 7.64436 71.1338 7.07014 71.1746 6.4989C71.6723 6.44228 72.175 6.48499 72.6737 6.42936C72.7204 5.72103 72.6419 5.00872 72.7303 4.30337Z" fill="#1E212D"/>
<path d="M79.6002 6.19207C80.2489 5.95761 81.0228 6.39275 81.1758 7.06134C81.3616 7.70709 80.9086 8.43529 80.2529 8.56941C79.6101 8.73631 78.9028 8.28031 78.7746 7.63258C78.6246 7.03253 79.0111 6.3689 79.6002 6.19207Z" fill="#1E212D"/>
<path d="M34.9006 7.28776C35.6706 6.50889 36.816 6.1741 37.888 6.4006C37.9257 7.07417 37.9267 7.74972 37.888 8.42328C37.1707 8.40738 36.4077 8.27724 35.7441 8.62892C35.303 8.86537 34.8122 9.27368 34.8728 9.82802C34.8798 11.5199 34.8708 13.2117 34.8788 14.9036C34.8798 15.151 34.8599 15.3973 34.8271 15.6427C34.1863 15.6755 33.5426 15.6745 32.9018 15.6437C32.8203 15.1351 32.8561 14.6185 32.8521 14.1068C32.8501 11.7871 32.8541 9.46839 32.8501 7.14967C32.8491 6.92912 32.868 6.70957 32.8948 6.49101C33.5376 6.4473 34.1853 6.44829 34.8281 6.49001C34.8599 6.75527 34.8778 7.02151 34.9006 7.28776Z" fill="#1E212D"/>
<path d="M41.185 6.92408C42.2122 6.35483 43.457 6.16806 44.6015 6.44325C45.1062 6.55849 45.5542 6.82473 45.9993 7.07806C46.0221 6.88533 46.044 6.6926 46.0678 6.50087C46.7186 6.44027 47.3752 6.44424 48.0259 6.49789C48.0925 8.4689 48.0359 10.4449 48.0548 12.4179C48.0359 13.4908 48.0965 14.5667 48.021 15.6377C47.4001 15.6645 46.7722 15.6993 46.1543 15.6337C46.0003 15.5055 46.044 15.2542 45.9844 15.0754C45.3526 15.4648 44.6502 15.7629 43.9001 15.7956C42.3116 15.9208 40.6565 15.2214 39.7306 13.9061C38.8375 12.6732 38.6209 11.0141 39.062 9.56965C39.3978 8.45897 40.1687 7.48538 41.185 6.92408ZM43.1381 8.28511C42.5709 8.37154 42.0344 8.6507 41.649 9.0759C40.6187 10.2065 40.6744 12.1745 41.8109 13.2136C43.004 14.3184 45.1787 13.9866 46.0112 12.6076C46.0619 11.6837 46.0152 10.7548 46.0331 9.82894C46.0539 9.59747 45.9834 9.37096 45.8105 9.213C45.1489 8.48281 44.1068 8.13709 43.1381 8.28511Z" fill="#1E212D"/>
<path d="M51.8399 7.25C53.1136 6.13137 55.1273 6.00719 56.543 6.92514C57.5384 7.57585 58.057 8.768 58.1096 9.92835C58.1434 10.9228 58.1156 11.9192 58.1245 12.9147C58.0987 13.8237 58.1812 14.7377 58.0749 15.6437C57.4331 15.6745 56.7903 15.6745 56.1496 15.6437C56.0711 15.1351 56.1039 14.6194 56.1009 14.1068C56.0979 12.8461 56.1039 11.5854 56.0989 10.3247C56.1009 9.68893 55.8098 9.05213 55.2992 8.66667C54.6226 8.15305 53.647 8.12623 52.901 8.50374C52.3168 8.82661 51.832 9.44255 51.8131 10.128C51.8131 11.8507 51.8161 13.5733 51.8141 15.296C51.8101 15.4251 51.8042 15.6487 51.6283 15.6497C51.0263 15.6805 50.4213 15.6745 49.8203 15.6348C49.7507 13.935 49.8093 12.2312 49.7905 10.5304C49.8054 9.18724 49.7577 7.8421 49.8153 6.49994C50.468 6.44132 51.1286 6.44331 51.7823 6.49895C51.8042 6.7483 51.8191 6.99965 51.8399 7.25Z" fill="#1E212D"/>
<path d="M61.9527 6.42639C63.3276 6.06676 65.0393 6.56448 65.6761 7.91757C65.2301 8.27024 64.7651 8.59908 64.2734 8.8832C63.9376 8.5494 63.5849 8.14805 63.0723 8.13017C62.5895 8.06261 61.902 8.27124 61.8762 8.84645C61.8553 9.41967 62.4395 9.71771 62.8915 9.91044C63.7836 10.2502 64.7433 10.5522 65.4268 11.2576C66.2156 12.0523 66.3318 13.3786 65.7963 14.3422C65.3662 15.1122 64.5337 15.5761 63.6852 15.7301C62.662 15.9119 61.5503 15.7917 60.6552 15.2364C60.1545 14.9115 59.6836 14.4843 59.4531 13.922C59.9359 13.5604 60.4039 13.166 60.9473 12.8958C61.2682 13.2892 61.592 13.7313 62.0987 13.8912C62.6173 14.0541 63.2461 14.08 63.7061 13.7482C64.0757 13.4879 64.0955 12.9107 63.7945 12.5908C63.4726 12.2421 63.0037 12.097 62.5765 11.9212C61.8732 11.654 61.148 11.3549 60.6204 10.7966C59.8793 10.0465 59.6776 8.82956 60.1128 7.87385C60.4506 7.13174 61.1728 6.61713 61.9527 6.42639Z" fill="#1E212D"/>
<path d="M67.6967 6.50001C68.3524 6.44239 69.016 6.44139 69.6717 6.501C69.7293 9.36811 69.6757 12.2382 69.6995 15.1063C69.6806 15.2831 69.7382 15.5057 69.5852 15.6378C68.9604 15.6924 68.3275 15.6696 67.7017 15.6348C67.6331 13.935 67.6907 12.2313 67.6719 10.5305C67.6868 9.1873 67.6401 7.84216 67.6967 6.50001Z" fill="#1E212D"/>
</svg>
