<svg width="169" height="76" viewBox="0 0 169 76" fill="none" xmlns="http://www.w3.org/2000/svg">
<path d="M48.5424 28.6684C50.881 28.6287 53.2205 28.6624 55.5591 28.6515C56.6768 28.6654 57.8034 28.6008 58.9121 28.7817C60.1449 28.9823 61.2795 29.7711 61.8437 30.8947C62.3544 31.8425 62.3713 32.9492 62.3852 33.9993C62.3862 36.618 62.3872 39.2368 62.3832 41.8555C62.3683 42.8728 62.3375 43.9418 61.8437 44.8587C61.3182 45.9068 60.2959 46.6688 59.1574 46.9251C58.4342 47.0851 57.6881 47.096 56.95 47.102C54.4336 47.103 51.9161 47.103 49.3997 47.104C48.6705 47.098 47.9344 47.0881 47.2181 46.938C46.0627 46.6947 45.0186 45.9307 44.4821 44.8717C43.9814 43.9507 43.9516 42.8738 43.9357 41.8506C43.9347 39.1682 43.9337 36.4859 43.9357 33.8036C43.9546 32.9085 43.9844 31.9796 44.354 31.1481C44.7245 30.2887 45.4031 29.5665 46.2475 29.1582C46.9538 28.7926 47.7585 28.7032 48.5424 28.6684ZM52.1655 35.3891C52.1347 36.9767 52.1516 38.5642 52.1327 40.1518C52.1357 40.5074 51.9956 40.8621 51.7324 41.1035C51.2456 41.5903 50.3683 41.5525 49.9243 41.026C49.4325 40.4925 49.6391 39.7146 49.5964 39.0609C49.2745 39.1662 48.9487 39.2894 48.605 39.2924C48.2364 39.3063 47.8857 39.1772 47.541 39.0639C47.5539 39.8189 47.4684 40.6028 47.7466 41.323C48.2414 42.7477 49.7921 43.6964 51.2863 43.4749C52.8331 43.309 54.1286 41.9211 54.1782 40.3653C54.211 38.7778 54.1941 37.1883 54.213 35.6007C54.211 35.2461 54.3531 34.8914 54.6173 34.651C55.1051 34.1682 55.9774 34.2069 56.4205 34.7315C56.9142 35.264 56.7046 36.0408 56.7513 36.6955C57.0742 36.5892 57.399 36.467 57.7438 36.465C58.1103 36.4521 58.46 36.5793 58.8038 36.6906C58.7918 35.9385 58.8753 35.1577 58.6001 34.4384C58.1074 33.0138 56.5576 32.063 55.0624 32.2816C53.5156 32.4465 52.2182 33.8324 52.1655 35.3891ZM47.542 33.5105C47.5191 34.1314 47.5449 34.7523 47.538 35.3722C48.1917 35.0732 48.9417 35.0712 49.5954 35.3742C49.5785 34.7225 49.6173 34.0698 49.5716 33.4191C49.5249 32.9055 49.0242 32.4982 48.5136 32.5349C48.0009 32.5469 47.5479 32.9969 47.542 33.5105ZM48.0506 35.9316C47.4843 36.1531 47.1019 36.772 47.1853 37.379C47.2578 38.1042 47.9761 38.6894 48.7033 38.595C49.4703 38.5314 50.0782 37.7416 49.9253 36.9836C49.8031 36.1501 48.8285 35.5868 48.0506 35.9316ZM57.3811 37.2101C56.7652 37.382 56.3152 38.0168 56.3827 38.6566C56.4304 39.3788 57.1228 39.9829 57.8461 39.9203C58.6081 39.8895 59.2439 39.1384 59.1346 38.3814C59.0611 37.5658 58.166 36.9558 57.3811 37.2101ZM56.7414 40.3842C56.7443 41.0369 56.7135 41.6916 56.7582 42.3433C56.8109 42.8907 57.3801 43.303 57.9166 43.2096C58.3905 43.147 58.7779 42.7169 58.7829 42.239C58.8058 41.6221 58.7809 41.0041 58.7879 40.3862C58.1372 40.6823 57.3901 40.6892 56.7414 40.3842Z" fill="#2FB762"/>
<path d="M70.4839 32.2462C71.1296 32.1966 71.7803 32.1966 72.4261 32.2462C72.5125 32.9526 72.435 33.6649 72.4827 34.3732C73.3202 34.4567 74.1636 34.3593 75.0021 34.4348C75.0647 35.011 75.0607 35.5942 75.0071 36.1714C74.1706 36.2638 73.3281 36.1664 72.4906 36.232C72.436 37.6089 72.4817 38.9888 72.4658 40.3667C72.4628 40.8366 72.5314 41.4536 73.046 41.6374C73.6768 41.845 74.3544 41.689 75.0041 41.7794C75.0607 42.3795 75.0696 42.9865 74.9961 43.5855C73.9321 43.5786 72.7946 43.7673 71.7982 43.2954C70.9518 42.9001 70.4809 41.9692 70.454 41.0612C70.4113 39.4518 70.4809 37.8394 70.4193 36.23C69.9206 36.1942 69.4169 36.2419 68.9221 36.1585C68.8933 35.5872 68.8884 35.013 68.9281 34.4428C69.4258 34.3851 69.9285 34.4259 70.4262 34.3742C70.4739 33.6649 70.3964 32.9526 70.4839 32.2462Z" fill="#1E212D"/>
<path d="M116.578 32.2462C117.224 32.1966 117.873 32.1966 118.519 32.2462C118.606 32.9526 118.529 33.6649 118.577 34.3732C119.414 34.4567 120.259 34.3593 121.097 34.4348C121.158 35.011 121.154 35.5942 121.102 36.1704C120.266 36.2638 119.422 36.1674 118.585 36.231C118.53 37.6079 118.575 38.9888 118.56 40.3667C118.556 40.8366 118.626 41.4556 119.142 41.6374C119.773 41.845 120.449 41.689 121.099 41.7804C121.155 42.3795 121.163 42.9865 121.091 43.5845C120.027 43.5796 118.89 43.7663 117.894 43.2964C117.047 42.901 116.574 41.9692 116.548 41.0612C116.506 39.4508 116.574 37.8394 116.514 36.23C116.015 36.1942 115.512 36.2419 115.016 36.1595C114.986 35.5872 114.981 35.013 115.022 34.4418C115.52 34.3851 116.023 34.4279 116.521 34.3722C116.568 33.6639 116.49 32.9516 116.578 32.2462Z" fill="#1E212D"/>
<path d="M123.448 34.1345C124.097 33.9 124.87 34.3351 125.023 35.0037C125.209 35.6495 124.756 36.3777 124.101 36.5118C123.458 36.6787 122.75 36.2227 122.622 35.575C122.472 34.9749 122.859 34.3113 123.448 34.1345Z" fill="#1E212D"/>
<path d="M78.7483 35.2311C79.5182 34.4522 80.6637 34.1175 81.7356 34.344C81.7734 35.0175 81.7744 35.6931 81.7356 36.3666C81.0183 36.3507 80.2554 36.2206 79.5917 36.5723C79.1506 36.8087 78.6599 37.217 78.7205 37.7714C78.7274 39.4632 78.7185 41.1551 78.7264 42.8469C78.7274 43.0943 78.7076 43.3407 78.6748 43.5861C78.034 43.6189 77.3902 43.6179 76.7495 43.5871C76.668 43.0784 76.7038 42.5618 76.6998 42.0502C76.6978 39.7305 76.7018 37.4118 76.6978 35.093C76.6968 34.8725 76.7157 34.6529 76.7425 34.4344C77.3853 34.3907 78.033 34.3916 78.6758 34.4334C78.7076 34.6986 78.7254 34.9649 78.7483 35.2311Z" fill="#1E212D"/>
<path d="M85.0327 34.8667C86.0599 34.2975 87.3047 34.1107 88.4492 34.3859C88.9538 34.5011 89.4019 34.7674 89.8469 35.0207C89.8698 34.828 89.8917 34.6352 89.9155 34.4435C90.5662 34.3829 91.2229 34.3869 91.8736 34.4405C91.9402 36.4115 91.8835 38.3875 91.9024 40.3605C91.8835 41.4334 91.9441 42.5094 91.8686 43.5803C91.2477 43.6071 90.6199 43.6419 90.0019 43.5763C89.8479 43.4482 89.8917 43.1968 89.832 43.018C89.2002 43.4074 88.4978 43.7055 87.7478 43.7383C86.1592 43.8634 84.5041 43.164 83.5782 41.8487C82.6851 40.6158 82.4686 38.9568 82.9096 37.5123C83.2454 36.4016 84.0164 35.428 85.0327 34.8667ZM86.9858 36.2277C86.4185 36.3142 85.8821 36.5933 85.4966 37.0185C84.4664 38.1491 84.522 40.1171 85.6585 41.1563C86.8517 42.261 89.0264 41.9292 89.8589 40.5503C89.9095 39.6264 89.8628 38.6975 89.8807 37.7716C89.9016 37.5401 89.8311 37.3136 89.6582 37.1556C88.9965 36.4254 87.9544 36.0797 86.9858 36.2277Z" fill="#1E212D"/>
<path d="M95.6876 35.1932C96.9612 34.0746 98.975 33.9504 100.391 34.8684C101.386 35.5191 101.905 36.7112 101.957 37.8716C101.991 38.866 101.963 39.8625 101.972 40.8579C101.946 41.7669 102.029 42.6809 101.923 43.5869C101.281 43.6177 100.638 43.6177 99.9972 43.5869C99.9187 43.0783 99.9515 42.5627 99.9485 42.0501C99.9456 40.7894 99.9515 39.5287 99.9465 38.268C99.9485 37.6322 99.6575 36.9954 99.1468 36.6099C98.4703 36.0963 97.4947 36.0695 96.7486 36.447C96.1645 36.7698 95.6797 37.3858 95.6608 38.0713C95.6608 39.7939 95.6638 41.5166 95.6618 43.2392C95.6578 43.3684 95.6518 43.5919 95.476 43.5929C94.874 43.6237 94.2689 43.6177 93.6679 43.578C93.5984 41.8782 93.657 40.1744 93.6381 38.4736C93.653 37.1305 93.6053 35.7853 93.6629 34.4432C94.3156 34.3846 94.9763 34.3865 95.63 34.4422C95.6518 34.6915 95.6667 34.9429 95.6876 35.1932Z" fill="#1E212D"/>
<path d="M105.8 34.37C107.175 34.0104 108.887 34.5081 109.524 35.8612C109.078 36.2138 108.613 36.5427 108.121 36.8268C107.785 36.493 107.433 36.0917 106.92 36.0738C106.437 36.0062 105.75 36.2148 105.724 36.7901C105.703 37.3633 106.287 37.6613 106.739 37.854C107.631 38.1938 108.591 38.4958 109.274 39.2012C110.063 39.9959 110.179 41.3222 109.644 42.2858C109.214 43.0558 108.381 43.5197 107.533 43.6737C106.51 43.8555 105.398 43.7353 104.503 43.18C104.002 42.8551 103.531 42.4279 103.301 41.8656C103.784 41.504 104.252 41.1096 104.795 40.8394C105.116 41.2328 105.44 41.6749 105.946 41.8348C106.465 41.9977 107.094 42.0236 107.554 41.6918C107.923 41.4315 107.943 40.8543 107.642 40.5344C107.32 40.1857 106.851 40.0406 106.424 39.8648C105.721 39.5976 104.996 39.2985 104.468 38.7402C103.727 37.9901 103.525 36.7732 103.96 35.8175C104.298 35.0753 105.02 34.5607 105.8 34.37Z" fill="#1E212D"/>
<path d="M111.544 34.4429C112.2 34.3853 112.864 34.3843 113.519 34.4439C113.577 37.311 113.523 40.1811 113.547 43.0492C113.528 43.226 113.586 43.4486 113.433 43.5807C112.808 43.6353 112.175 43.6125 111.549 43.5777C111.481 41.8779 111.538 40.1741 111.52 38.4733C111.534 37.1302 111.488 35.785 111.544 34.4429Z" fill="#1E212D"/>
</svg>
