<svg width="101" height="11" viewBox="0 0 101 11" fill="none" xmlns="http://www.w3.org/2000/svg">
<g clip-path="url(#clip0)">
<path d="M8.20414 10.4297L14.6513 3.82689C14.7813 3.69418 14.8543 3.51395 14.8543 3.32599C14.8543 3.13802 14.7813 2.95779 14.6513 2.82509L12.9578 1.08997C12.7492 0.875655 12.4658 0.75525 12.1702 0.755371H3.26754C2.97177 0.755371 2.68813 0.875784 2.47902 1.08997L0.779676 2.82809C0.649926 2.95827 0.576 3.13591 0.57413 3.32191C0.572331 3.50791 0.642737 3.68704 0.769893 3.81987L0.779676 3.82989L7.2268 10.4327C7.35639 10.5659 7.5324 10.6407 7.71596 10.6407C7.89952 10.6407 8.07553 10.5659 8.20512 10.4327L8.20414 10.4297Z" fill="url(#paint0_linear)"/>
<path opacity="0.4" d="M2.427 1.14307C2.65984 0.903462 2.99497 0.800245 3.31825 0.868574L14.5141 3.19375C14.6992 3.23294 14.8185 3.41782 14.7812 3.60749C14.7766 3.63128 14.7694 3.65446 14.7597 3.67662C14.9173 3.40061 14.8726 3.05039 14.6511 2.82509L12.9576 1.08997C12.749 0.875655 12.4656 0.75525 12.1701 0.755371H3.26738C2.97161 0.755425 2.68797 0.875784 2.47885 1.08997L2.427 1.14307Z" fill="url(#paint1_linear)"/>
<path opacity="0.4" d="M12.3887 1.26329L11.7372 2.61872L14.5146 3.19375C14.6997 3.23294 14.819 3.41783 14.7817 3.60749C14.7771 3.63128 14.7698 3.65447 14.7602 3.67662C14.9178 3.40061 14.8731 3.05039 14.6516 2.82509L12.9581 1.08997C12.7495 0.875658 12.4661 0.755252 12.1706 0.755372H12.0845C12.2031 0.755047 12.3133 0.817965 12.3755 0.921448C12.4376 1.02493 12.4426 1.15406 12.3887 1.26228V1.26329Z" fill="url(#paint2_linear)"/>
<path d="M14.7601 3.68068C14.8351 3.50308 14.7554 3.29684 14.582 3.21985C14.5604 3.20996 14.5377 3.20257 14.5145 3.19781L11.7371 2.61877L7.99988 10.3416C7.89995 10.5484 7.66822 10.6503 7.453 10.5821C7.71052 10.6912 8.00684 10.6311 8.20435 10.4298L14.6515 3.82694C14.6944 3.78385 14.731 3.73458 14.7601 3.68068Z" fill="url(#paint3_linear)"/>
<path d="M53.9999 1.97648V5.77229C53.9999 6.39541 54.1466 6.86893 54.4401 7.19284C54.7336 7.51676 55.1393 7.67872 55.6571 7.67872C56.1685 7.67872 56.5712 7.5231 56.8654 7.21188C57.1595 6.90065 57.3063 6.43649 57.3056 5.81938V1.97648H58.4414L58.4453 5.76228C58.455 6.20477 58.3888 6.64557 58.2497 7.06461C58.1311 7.41621 57.9387 7.73696 57.6862 8.0043C57.4389 8.25862 57.1376 8.45097 56.8057 8.56631C56.4324 8.69558 56.0404 8.75859 55.6464 8.75264C55.2569 8.7581 54.8694 8.69507 54.5008 8.56631C54.1699 8.45078 53.8689 8.26001 53.6203 8.00831C53.37 7.74782 53.1792 7.43373 53.0617 7.08866C52.9246 6.67913 52.8583 6.24823 52.866 5.81537V1.97648H53.9999ZM50.339 2.09168C50.7284 2.23896 51.0919 2.45009 51.4151 2.71681L50.8008 3.6034C50.5295 3.39606 50.2336 3.22473 49.9203 3.09348C49.6403 2.97816 49.3415 2.91833 49.0398 2.91717C48.7042 2.91717 48.443 2.99431 48.2571 3.15059C48.0819 3.28386 47.9785 3.4941 47.9783 3.7176C47.9716 3.8361 47.9899 3.95468 48.0321 4.06523C48.0879 4.17366 48.1701 4.26546 48.2708 4.33171C48.4179 4.43085 48.578 4.5081 48.7463 4.56112C48.9488 4.63124 49.2051 4.70438 49.5172 4.78051C49.8264 4.85884 50.1303 4.95755 50.427 5.07604C50.6673 5.1701 50.89 5.30564 51.0855 5.47676C51.2531 5.62626 51.3867 5.81161 51.4768 6.01974C51.572 6.25025 51.6184 6.49883 51.6128 6.74905C51.6185 7.04178 51.56 7.33209 51.4416 7.59857C51.3311 7.84213 51.1686 8.05714 50.9661 8.2277C50.7495 8.40633 50.5004 8.53913 50.2333 8.6184C49.9285 8.71063 49.612 8.75555 49.2941 8.75164C48.8014 8.75342 48.3124 8.66487 47.8501 8.49017C47.3802 8.30852 46.9485 8.03649 46.5783 7.68874L47.2681 6.85023C47.5558 7.11068 47.8787 7.3273 48.2268 7.49338C48.5732 7.6475 48.9478 7.72401 49.3255 7.71779C49.6796 7.71779 49.9607 7.64132 50.1688 7.48838C50.3693 7.35016 50.4869 7.11668 50.4808 6.86926C50.4829 6.75793 50.4622 6.64739 50.4202 6.54468C50.3695 6.43815 50.2918 6.3475 50.1952 6.28221C50.0565 6.18714 49.9057 6.11197 49.7471 6.05881C49.5037 5.97277 49.2562 5.89954 49.0055 5.83941C48.6906 5.76636 48.3803 5.67403 48.0761 5.56292C47.8289 5.47515 47.5975 5.34619 47.3913 5.18123C47.2107 5.03325 47.0666 4.84381 46.9706 4.62824C46.8678 4.37802 46.8184 4.10818 46.8258 3.83682C46.8218 3.56028 46.8787 3.28636 46.9922 3.03538C47.1012 2.79986 47.2571 2.59032 47.45 2.42028C47.6545 2.23991 47.8924 2.10362 48.1495 2.01956C48.4381 1.92467 48.7397 1.87798 49.0427 1.88131C49.4835 1.87273 49.9224 1.94395 50.339 2.09168ZM25.5738 1.97648V3.06343H23.5066V8.65146H22.3512V3.06343H20.285V1.97648H25.5738ZM29.6896 1.97648C30.0319 1.97253 30.3728 2.02254 30.7002 2.12474C30.9794 2.21115 31.2388 2.35387 31.4633 2.5445C31.6717 2.72562 31.8358 2.95409 31.9427 3.2117C32.1473 3.73206 32.1656 4.30973 31.9945 4.84262C31.9212 5.05384 31.8126 5.25043 31.6736 5.42367C31.5347 5.59316 31.3694 5.73802 31.1845 5.85244C30.9883 5.97295 30.7765 6.06467 30.5554 6.12493L32.3164 8.65146H30.9653L29.3589 6.32529H27.9198V8.65146H26.784V1.97648H29.6896ZM38.3399 1.97648V3.03538H34.6526V4.75146H37.9212V5.81036H34.6526V7.59356H38.3869V8.65146H33.5168V1.97648H38.3399ZM43.1258 1.92939L45.9953 8.65146H44.7841L44.1237 7.03957H41.041L40.3709 8.65146H39.1969L42.0644 1.92939H43.1258ZM62.9241 1.97648C63.2664 1.97253 63.6073 2.02254 63.9347 2.12474C64.2138 2.21115 64.4733 2.35387 64.6978 2.5445C64.9061 2.72586 65.0706 2.95425 65.1781 3.2117C65.3824 3.73218 65.4004 4.30985 65.229 4.84262C65.1556 5.05384 65.0471 5.25043 64.9081 5.42367C64.7692 5.59316 64.6039 5.73802 64.419 5.85244C64.2228 5.97295 64.011 6.06467 63.7899 6.12493L65.5509 8.65146H64.1998L62.5934 6.32529H61.1543V8.65146H60.0185V1.97648H62.9241ZM71.5803 1.97648L71.5754 3.03538H67.892V4.75146H71.1606V5.81036H67.892V7.59356H71.6262V8.65146H66.7562V1.97648H71.5803ZM85.9909 1.92939L88.8583 8.65146H87.6472L86.9868 7.03957H83.9041L83.234 8.65146H82.06L84.9284 1.92939H85.9909ZM93.9613 1.97648V3.06343H91.8941V8.65146H90.7387V3.06343H88.6715V1.97648H93.9613ZM97.7043 1.92939L100.573 8.65146H99.3616L98.7012 7.03957H95.6185L94.9484 8.65146H93.7744L96.6428 1.92939H97.7043ZM78.2142 1.97648C78.6928 1.97078 79.1682 2.05639 79.6162 2.22893C80.0236 2.38696 80.3969 2.6252 80.7148 2.93019C81.0218 3.22842 81.2644 3.58911 81.427 3.98909C81.5965 4.40573 81.682 4.85313 81.6785 5.30445C81.6815 5.75767 81.5961 6.20695 81.427 6.62583C81.2651 7.02738 81.0224 7.38953 80.7148 7.68874C80.3962 7.99285 80.0231 8.23098 79.6162 8.38999C79.1688 8.56516 78.6932 8.6525 78.2142 8.64746H75.7841V1.97648H78.2142ZM78.2113 3.03538H76.9229V7.59356H78.2113C78.5299 7.59757 78.8465 7.54048 79.1446 7.42526C79.4124 7.32256 79.6559 7.16275 79.8588 6.95642C80.0576 6.75139 80.2133 6.50697 80.3166 6.23813C80.5348 5.64882 80.5348 4.99815 80.3166 4.40885C80.2128 4.13911 80.0571 3.89349 79.8588 3.68655C79.6563 3.47723 79.4129 3.31405 79.1446 3.20769C78.8473 3.08919 78.5303 3.03068 78.2113 3.03538ZM42.577 3.33091L41.4598 5.9987H43.704L42.577 3.33091ZM85.4401 3.33091L84.3278 5.9987H86.572L85.4401 3.33091ZM97.1555 3.33091L96.0373 5.9987H98.2815L97.1555 3.33091ZM29.5928 3.03538H27.9198V5.28542H29.6016C30.0125 5.28542 30.3386 5.18324 30.5799 4.97887C30.8207 4.7781 30.9555 4.47317 30.9438 4.15539C30.9458 3.78539 30.8284 3.50622 30.5916 3.31789C30.3549 3.12955 30.0219 3.03538 29.5928 3.03538ZM62.8272 3.03538H61.1543V5.28542H62.836C63.2469 5.28542 63.573 5.18324 63.8144 4.97887C64.0552 4.7781 64.19 4.47317 64.1783 4.15539C64.1783 3.78539 64.0609 3.50622 63.8261 3.31789C63.5893 3.12955 63.2564 3.03538 62.8272 3.03538Z" fill="#2E40AA"/>
</g>
<defs>
<linearGradient id="paint0_linear" x1="4.57651" y1="7.15857" x2="7.90038" y2="1.53545" gradientUnits="userSpaceOnUse">
<stop stop-color="#8855FF"/>
<stop offset="1" stop-color="#00B6FF"/>
</linearGradient>
<linearGradient id="paint1_linear" x1="8.54052" y1="2.24123" x2="8.64886" y2="1.80424" gradientUnits="userSpaceOnUse">
<stop offset="0.07" stop-color="white"/>
<stop offset="0.89" stop-color="#009FFF"/>
</linearGradient>
<linearGradient id="paint2_linear" x1="12.3408" y1="7.25705" x2="15.6052" y2="9.98291" gradientUnits="userSpaceOnUse">
<stop offset="0.07" stop-color="white"/>
<stop offset="0.89" stop-color="#009FFF"/>
</linearGradient>
<linearGradient id="paint3_linear" x1="8.26097" y1="5.78245" x2="13.0803" y2="7.41198" gradientUnits="userSpaceOnUse">
<stop stop-color="#4036C1"/>
<stop offset="0.98" stop-color="#539EFF"/>
</linearGradient>
<clipPath id="clip0">
<rect width="100" height="10" fill="white" transform="translate(0.574219 0.755371)"/>
</clipPath>
</defs>
</svg>
