<svg width="169" height="76" viewBox="0 0 169 76" fill="none" xmlns="http://www.w3.org/2000/svg">
<path d="M77.0363 31.9203H83.1438V33.1737H80.8974V39.4626H79.2809V33.1732H77.0363V31.9203ZM86.3198 33.1732H88.3171C89.0238 33.1842 89.4419 33.4642 89.4419 34.1273C89.4419 34.7931 89.0238 35.1474 88.3171 35.1565H86.3198V33.1732ZM86.3198 36.4687H88.0288C88.0288 36.4687 89.0879 38.7919 89.2237 39.4626H91.215L89.6851 36.3612C90.7634 36.0829 91.0426 34.7974 91.0426 33.8207C91.0426 32.2901 89.3353 31.8727 87.9037 31.92H84.7016V39.4624H86.3198V36.4687ZM93.2208 31.9203H98.6302V33.1737H94.839V34.9468H98.3269V36.1997H94.839V38.2096H98.7435V39.4628H93.2208V31.9203ZM105.248 39.4626L102.478 34.4474L102.456 34.4682V39.4626H100.944V31.9203H102.949L105.703 36.8488L105.724 36.8287V31.9203H107.237V39.4626H105.248ZM111.205 33.2317H112.042C113.962 33.2116 114.245 34.4901 114.245 35.6907C114.245 36.893 113.962 38.2313 112.042 38.2096H111.205L111.205 33.2317ZM109.587 39.4628H112.155C114.505 39.4836 115.968 38.3146 115.968 35.6905C115.968 33.0694 114.505 31.8995 112.155 31.9205H109.587V39.4628ZM82.0903 45.661H81.3079V42.3638L80.4838 45.661H79.6715L78.8473 42.3638L78.8348 45.661H78.0518V41.4749H79.3148L80.0681 44.327L80.823 41.4749H82.0903V45.661ZM88.4681 45.6608H87.6247V41.4749H88.4681V45.6608ZM105.103 42.9597C105.051 43.0729 104.961 43.1504 104.833 43.1938C104.766 43.2179 104.686 43.2304 104.593 43.2346C104.496 43.2429 104.354 43.2453 104.173 43.2453H103.448V42.1831H104.109C104.412 42.1831 104.607 42.1865 104.693 42.1938C104.779 42.2009 104.863 42.229 104.937 42.2756C105.017 42.3229 105.071 42.3806 105.103 42.4514C105.137 42.5255 105.153 42.6097 105.153 42.7022C105.153 42.7995 105.137 42.8853 105.103 42.9597V42.9597ZM105.178 43.9203L105.438 43.8428C105.642 43.7613 105.8 43.6105 105.909 43.4278C106.024 43.2404 106.052 42.917 106.052 42.6839C106.052 42.4614 105.97 42.2215 105.863 42.0306C105.737 41.8124 105.563 41.6623 105.342 41.5799C105.247 41.547 105.149 41.5233 105.049 41.5091C104.888 41.4865 104.666 41.4749 104.382 41.4749H102.605V45.661H103.448V44.0112L104.252 44.002L105.144 45.661H106.157L105.178 43.9203ZM113.479 44.7368C113.28 44.916 113.033 45.006 112.736 45.006C112.5 45.006 112.296 44.9492 112.124 44.836C111.986 44.7454 111.871 44.6235 111.789 44.4802C111.726 44.3716 111.678 44.2553 111.645 44.1343C111.602 43.9759 111.58 43.787 111.58 43.5685C111.58 43.1777 111.655 42.8603 111.801 42.6144C111.997 42.2928 112.309 42.1304 112.736 42.1304C113.189 42.1304 113.51 42.3086 113.702 42.6678C113.826 42.9012 113.89 43.1971 113.89 43.5567C113.89 44.0943 113.753 44.4885 113.479 44.7368ZM114.26 42.0304C113.899 41.612 113.39 41.4045 112.732 41.4045C112.086 41.4045 111.586 41.6004 111.235 41.9897C110.884 42.3794 110.708 42.9137 110.708 43.5911C110.708 44.1684 110.851 44.6441 111.137 45.0234C111.489 45.4951 112.025 45.7307 112.743 45.7307C113.431 45.7307 113.95 45.5083 114.304 45.0651C114.609 44.6826 114.762 44.1852 114.762 43.5743C114.762 42.9344 114.594 42.4196 114.26 42.0304V42.0304ZM96.6568 42.8489C96.5884 42.5997 96.4544 42.1306 95.737 42.1306C95.3194 42.1306 94.707 42.4089 94.707 43.5855C94.707 44.3337 95.0011 45.0044 95.737 45.0044C96.2177 45.0044 96.5527 44.7319 96.6568 44.2227H97.5251C97.3525 45.1261 96.7617 45.7535 95.7203 45.7535C94.6147 45.7535 93.8221 45.0111 93.8221 43.5746C93.8221 42.119 94.6603 41.3815 95.731 41.3815C96.975 41.3815 97.48 42.2347 97.5251 42.8489H96.6568ZM116.298 39.9394H115.847V41.1385H115.667V39.9394H115.22V39.7777H116.298V39.9394ZM117.778 41.1385H117.607V39.9995L117.212 41.1385H117.05L116.661 39.9805L116.656 41.1385H116.483V39.7779H116.754L117.075 40.7412L117.111 40.8536L117.135 40.9429L117.213 40.7245L117.539 39.7779H117.778V41.1385Z" fill="#231F20"/>
<path d="M53.265 40.0168L53.2799 39.9789L53.3241 39.8587L53.3675 39.7504L53.3865 39.7004C53.6103 39.1533 53.875 38.6238 54.1782 38.1164C54.2198 38.0271 54.2631 37.94 54.3064 37.8515L52.9632 37.8549L53.2891 37.1348C54.3991 36.8324 56.2479 36.2142 58.0128 34.5027L58.0651 34.4994H58.9942L57.7926 37.0741L59.7223 37.0683L59.3683 37.8348L57.4419 37.8415C57.4419 37.8415 56.5378 39.6479 56.2312 40.9401C55.9938 42.3825 56.2269 43.459 57.5194 43.8624C58.3177 44.1098 59.3133 44.0531 60.3865 43.7491C62.8837 42.9717 65.5533 41.2544 67.5065 38.9821C70.7219 35.2469 70.7845 31.4248 67.649 30.449C65.6366 29.8241 62.7995 30.5189 60.1741 32.0839C63.4476 29.9724 67.0473 28.981 69.5313 29.7542C69.997 29.8992 70.4001 30.099 70.7436 30.3456C68.6913 28.0836 65.7284 26.6636 62.4337 26.6636C56.2428 26.6636 51.2218 31.6839 51.2218 37.8754C51.2189 40.0754 51.8659 42.2272 53.0816 44.0607C52.6374 42.965 52.6999 41.5592 53.2647 40.0171" fill="#D71920"/>
<path d="M71.941 31.9282C72.691 33.9656 71.7527 37.0059 69.163 40.0155C65.2751 44.5366 59.1333 47.2706 55.4473 46.123C54.9896 45.9806 54.5923 45.7849 54.2531 45.5423C56.2989 47.7255 59.2068 49.0886 62.4339 49.0886C68.6272 49.0886 73.6473 44.0692 73.6473 37.8768C73.6473 35.6902 73.0199 33.6522 71.941 31.9282" fill="#D71920"/>
</svg>
