<svg width="169" height="76" viewBox="0 0 169 76" fill="none" xmlns="http://www.w3.org/2000/svg">
<path fill-rule="evenodd" clip-rule="evenodd" d="M59.8602 32.6839C60.3048 32.6133 60.7653 32.5972 61.2059 32.7025C61.988 32.8855 62.7137 33.3275 63.2129 33.9598C63.5711 33.6483 63.9561 33.3654 64.3756 33.1414C64.9109 32.8514 65.5037 32.643 66.1172 32.6277C66.6205 32.622 67.1293 32.6706 67.6116 32.8214C68.0413 32.9548 68.4437 33.1785 68.7773 33.4813C68.9416 33.6256 69.0829 33.7926 69.2225 33.9604C69.9313 33.2585 70.8689 32.7781 71.8619 32.6556C72.8004 32.5361 73.7906 32.7559 74.557 33.3198C75.2174 33.797 75.6886 34.5275 75.8449 35.3277C75.8956 35.5762 75.9158 35.8302 75.915 36.0839C75.9148 36.8232 75.9149 37.5624 75.915 38.3016L75.9151 39.8934L75.9148 40.7788L75.9144 41.4851C75.9139 41.9383 75.7756 42.4127 75.4449 42.7362C75.1697 43.0142 74.7687 43.1383 74.3832 43.1239C74.0083 43.1182 73.627 42.9708 73.3787 42.6833C73.0816 42.3524 72.9676 41.8952 72.9709 41.459C72.9706 39.9493 72.9709 38.4393 72.9709 36.9296C72.9731 36.6791 72.9739 36.4235 72.898 36.1821C72.7985 35.8367 72.5636 35.5301 72.2466 35.3577C71.8737 35.1547 71.423 35.1255 71.0149 35.2246C70.6327 35.3176 70.2857 35.5661 70.0974 35.9145C69.9627 36.1567 69.907 36.4361 69.9081 36.7113C69.9076 38.2663 69.9078 39.8213 69.9081 41.3763C69.9108 41.6068 69.8934 41.8395 69.8279 42.0616C69.7319 42.399 69.5275 42.7139 69.2285 42.9037C68.8679 43.134 68.4074 43.1757 67.9985 43.0699C67.6553 42.9815 67.3609 42.7411 67.1915 42.4318C67.0251 42.1369 66.9618 41.794 66.9629 41.4581C66.9626 40.6424 66.9626 39.8266 66.9627 39.0108C66.9627 38.3989 66.9628 37.7871 66.9626 37.1751C66.962 37.1361 66.9619 37.0969 66.962 37.0577C66.9622 37.0235 66.9625 36.9893 66.9628 36.955V36.9549C66.9653 36.6745 66.9678 36.3916 66.8721 36.1248C66.7482 35.744 66.4508 35.4234 66.0755 35.281C65.6581 35.1217 65.1777 35.134 64.7663 35.3064C64.4122 35.4553 64.1246 35.7546 63.9967 36.1172C63.9086 36.3499 63.8938 36.6014 63.8982 36.8475C63.8986 37.8782 63.8986 38.909 63.8985 39.9398V40.0395L63.8985 41.1035C63.8981 41.1563 63.8983 41.2092 63.8986 41.2622V41.2623C63.8997 41.4911 63.9008 41.7212 63.8483 41.9451C63.7684 42.3183 63.564 42.6759 63.2419 42.8904C62.8806 43.1315 62.4125 43.1771 61.9973 43.0712C61.6465 42.9828 61.3461 42.736 61.1767 42.4184C61.016 42.126 60.9549 41.7888 60.956 41.4579L60.9559 38.5519L60.9557 35.646C60.9587 35.5126 60.9055 35.3765 60.8005 35.2917C60.6527 35.1626 60.4142 35.1503 60.2563 35.2679C60.1916 35.3149 60.1512 35.3858 60.1182 35.4567C59.6512 36.4757 59.184 37.4946 58.7167 38.5136L57.7167 40.6943C57.7015 40.7268 57.6864 40.7594 57.6713 40.7921L57.6336 40.8743C57.6081 40.9302 57.5826 40.9863 57.5572 41.0424C57.4577 41.2619 57.3581 41.4815 57.2491 41.6966C57.0481 42.085 56.8233 42.4776 56.4807 42.7597C56.1375 43.0486 55.6734 43.149 55.2337 43.1236C54.8599 43.1097 54.4878 42.9804 54.2027 42.7351C53.8233 42.4124 53.581 41.9647 53.3712 41.5209C52.3166 39.2291 51.263 36.937 50.2092 34.6446C50.0796 34.3699 50.0313 34.0548 50.0908 33.7558C50.1562 33.4096 50.3652 33.0953 50.6563 32.8978C51.0292 32.6408 51.5243 32.5546 51.9548 32.7079C52.3329 32.8362 52.6387 33.1398 52.7918 33.5062L53.6955 35.637C54.0038 36.364 54.312 37.0909 54.6204 37.8178C54.7142 38.0364 54.8067 38.2557 54.8991 38.4749C55.049 38.8306 55.199 39.1864 55.3551 39.5395C55.7389 38.6396 56.1203 37.7387 56.5018 36.8377L56.5112 36.8157L56.5204 36.7939L56.9111 35.8716C57.062 35.5153 57.2131 35.1591 57.3645 34.8031C57.5672 34.3379 57.8362 33.8957 58.1955 33.5345C58.6405 33.0814 59.2349 32.7862 59.8602 32.6839ZM76.9193 32.8881C77.1667 32.7683 77.4843 32.7847 77.7044 32.9555C77.8545 33.069 77.9483 33.2395 78.0067 33.4154C78.3065 34.2832 78.606 35.1512 78.9054 36.0192L79.4826 37.6919C79.6134 38.0675 79.7425 38.4437 79.8716 38.8199C80.0821 39.4334 80.2926 40.0469 80.5108 40.6576C81.0052 39.2408 81.4962 37.8228 81.9872 36.4048L81.9909 36.3939L81.9947 36.383C82.2869 35.5392 82.579 34.6954 82.8719 33.8519L82.8846 33.8163L82.9012 33.769L82.9153 33.7279L82.9411 33.6517L82.9412 33.6515C82.9849 33.5221 83.0286 33.3926 83.0831 33.2673C83.1755 33.0564 83.3578 32.8747 83.5891 32.8292C83.8303 32.7891 84.1014 32.8054 84.3014 32.9612C84.464 33.0823 84.5587 33.27 84.6195 33.4594L85.3173 35.4892C85.8685 37.0927 86.4198 38.6962 86.9708 40.2999L86.99 40.3557L87.006 40.4029L87.0069 40.4056C87.0162 40.433 87.0255 40.4604 87.0349 40.4877C87.0547 40.545 87.0751 40.6021 87.0977 40.6584C87.5878 39.2667 88.073 37.8733 88.5582 36.4799C88.9247 35.4273 89.2912 34.3747 89.6598 33.3229C89.7256 33.1388 89.8481 32.9658 90.0284 32.8799C90.2963 32.7547 90.6397 32.8035 90.8564 33.0073C91.0159 33.1538 91.1038 33.38 91.0681 33.5955C91.0588 33.648 91.0457 33.6997 91.0307 33.7508C91.0237 33.7745 91.0162 33.7981 91.0085 33.8217C90.9975 33.8553 90.986 33.8888 90.9745 33.9222L90.9743 33.9227L90.9576 33.9717L90.0906 36.378C89.3755 38.3628 88.6603 40.3476 87.945 42.3323C87.8672 42.5492 87.7377 42.7573 87.5404 42.8837C87.3366 43.0168 87.0739 43.0296 86.8437 42.9688C86.5818 42.8959 86.3922 42.6687 86.3032 42.4199C85.9637 41.4441 85.6255 40.4679 85.2874 39.4917C84.7913 38.0595 84.2952 36.6272 83.7945 35.1966C83.3488 36.4589 82.9074 37.7227 82.4659 38.9865C82.0616 40.1439 81.6573 41.3013 81.2498 42.4575C81.1598 42.685 80.9827 42.8905 80.7429 42.9633C80.4952 43.037 80.2085 43.0127 79.9955 42.8588C79.8149 42.7314 79.6959 42.535 79.6236 42.3296C78.6249 39.5456 77.6261 36.7614 76.6269 33.9774L76.6067 33.9189C76.5616 33.7895 76.5159 33.6581 76.5128 33.5199C76.5109 33.2537 76.6814 33.0019 76.9193 32.8881ZM102.913 33.0638C102.683 32.7869 102.241 32.7195 101.944 32.9266C101.733 33.0673 101.603 33.3189 101.609 33.5729L101.609 35.2925L101.609 37.3561C101.609 38.9325 101.609 40.5088 101.609 42.0852C101.603 42.2734 101.611 42.4726 101.714 42.6371C101.893 42.9551 102.323 43.0891 102.655 42.9385C102.922 42.8239 103.093 42.5378 103.09 42.2502C103.092 41.5134 103.09 40.7762 103.091 40.0394C103.092 39.9288 103.092 39.8181 103.092 39.7074C103.092 39.63 103.091 39.5525 103.091 39.4751C103.089 39.0989 103.087 38.7227 103.11 38.3472C103.177 37.3752 103.468 36.3868 104.103 35.6301C104.694 34.9107 105.577 34.4619 106.494 34.3392C106.677 34.3201 106.865 34.2666 107.005 34.1403C107.358 33.8372 107.324 33.1986 106.932 32.9429C106.749 32.8166 106.516 32.812 106.302 32.8338C105.709 32.8906 105.141 33.1203 104.644 33.4424C103.965 33.8781 103.425 34.5168 103.092 35.2498C103.09 34.8662 103.09 34.4827 103.091 34.0992C103.091 33.9424 103.091 33.7856 103.091 33.6288C103.1 33.4272 103.048 33.2177 102.913 33.0638ZM109.269 33.6218C110.052 33.0655 111.021 32.7848 111.979 32.8181C112.892 32.8366 113.806 33.1307 114.527 33.6973C115.151 34.1816 115.626 34.8431 115.929 35.5699C116.217 36.2582 116.357 37.0043 116.365 37.7493C116.37 37.88 116.35 38.0136 116.287 38.1299C116.175 38.3498 115.935 38.4965 115.688 38.4957C115.107 38.4963 114.526 38.4964 113.946 38.4963L112.793 38.4959C111.407 38.4954 110.022 38.4949 108.636 38.4984C108.716 39.364 109.046 40.2283 109.664 40.8527C110.271 41.4775 111.138 41.8212 112.005 41.8294C112.508 41.837 113.014 41.7584 113.484 41.5778C113.928 41.4106 114.334 41.1542 114.694 40.8478C114.711 40.8335 114.728 40.8187 114.745 40.8038L114.78 40.7723C114.885 40.6782 114.991 40.5828 115.129 40.5412C115.418 40.4509 115.754 40.6113 115.876 40.8868C115.982 41.1073 115.936 41.3877 115.765 41.5626C115.32 42.0056 114.812 42.393 114.24 42.6565C113.748 42.8868 113.213 43.0212 112.674 43.0766C112.178 43.1249 111.674 43.1255 111.182 43.039C110.324 42.8947 109.506 42.5122 108.853 41.9366C108.055 41.242 107.516 40.2725 107.296 39.2413C107.063 38.1345 107.129 36.9563 107.533 35.8964C107.875 34.9923 108.474 34.1783 109.269 33.6218ZM110.949 34.1821C110.451 34.3349 110.002 34.6303 109.65 35.012C109.046 35.6621 108.72 36.5329 108.636 37.4078C110.264 37.4116 111.892 37.4108 113.52 37.41L114.914 37.4094C114.887 37.0883 114.831 36.7697 114.744 36.4595C114.538 35.7213 114.13 35.0133 113.495 34.5654C112.768 34.0503 111.796 33.9276 110.949 34.1821ZM118.598 33.2011C118.336 32.9191 117.935 32.7794 117.554 32.8293C117.108 32.8817 116.71 33.2039 116.558 33.6254C116.395 34.0548 116.494 34.5714 116.812 34.9045C117.13 35.2518 117.658 35.38 118.101 35.2243C118.49 35.0936 118.798 34.7553 118.896 34.3576C119.001 33.9546 118.887 33.5018 118.598 33.2011ZM116.713 34.0648C116.698 33.6027 117.043 33.1586 117.499 33.0694C117.789 33.008 118.108 33.0792 118.337 33.2707C118.714 33.5719 118.807 34.1538 118.562 34.5654C118.354 34.9408 117.887 35.1411 117.471 35.0341C117.032 34.9395 116.705 34.5117 116.713 34.0648ZM94.5377 32.9019C95.0388 32.8517 95.544 32.8416 96.0471 32.8634C96.6715 32.8978 97.299 33.0148 97.87 33.2773C98.5522 33.585 99.1273 34.1314 99.4484 34.8099C99.6773 35.2835 99.7924 35.8051 99.8352 36.3275C99.8575 36.5822 99.8571 36.8378 99.8568 37.0933C99.8567 37.1479 99.8566 37.2024 99.8568 37.2569V42.3055C99.8611 42.5174 99.7823 42.7351 99.6214 42.8773C99.3565 43.1182 98.9069 43.1135 98.648 42.8664C98.5099 42.7365 98.4374 42.5466 98.4393 42.3584C98.4374 42.0468 98.4406 41.735 98.4382 41.4232C98.1272 41.8114 97.766 42.1628 97.3448 42.4299C96.4538 43.0098 95.3514 43.2109 94.3033 43.0939C93.5004 43.0006 92.7014 42.7073 92.0914 42.1658C91.6898 41.8133 91.3887 41.3452 91.2495 40.8282C91.1265 40.3776 91.1191 39.9002 91.189 39.4399C91.2673 38.9453 91.4757 38.4693 91.8014 38.0874C92.1422 37.6836 92.5969 37.3879 93.0828 37.1885C94.1254 36.7629 95.2783 36.7411 96.3859 36.8278C97.0807 36.8816 97.7663 37.0212 98.4371 37.2081C98.4489 36.725 98.4336 36.2307 98.2682 35.771C98.1144 35.3214 97.817 34.9196 97.4201 34.6558C96.9211 34.3191 96.3133 34.1876 95.7197 34.1612C94.9728 34.1396 94.2065 34.1903 93.5062 34.4716C93.4757 34.4819 93.4457 34.4935 93.4159 34.5057C93.3833 34.519 93.3509 34.5331 93.3185 34.5472L93.3183 34.5473C93.2091 34.5948 93.1001 34.6423 92.9818 34.6604C92.6496 34.7081 92.3077 34.4531 92.2592 34.1211C92.2357 33.935 92.2745 33.7299 92.4057 33.5894C92.511 33.4742 92.6564 33.415 92.7986 33.3571C92.8252 33.3463 92.8516 33.3355 92.8776 33.3245C93.4074 33.1065 93.9669 32.9592 94.5377 32.9019ZM94.4842 37.9853C94.0261 38.0816 93.5733 38.2636 93.2227 38.5809C92.9395 38.834 92.744 39.1821 92.6763 39.5559C92.5985 39.991 92.6411 40.4608 92.8634 40.8492C93.0931 41.2601 93.489 41.5566 93.9211 41.729C94.5172 41.9699 95.1804 41.9977 95.8105 41.9003C96.599 41.7765 97.3756 41.4169 97.8945 40.7966C98.2448 40.3816 98.451 39.8461 98.4554 39.3022C98.4552 39.1987 98.4557 39.0952 98.4563 38.9917C98.4575 38.762 98.4587 38.5323 98.4521 38.3029C97.7027 38.0895 96.9318 37.9469 96.1535 37.9013C95.5967 37.8702 95.032 37.8667 94.4842 37.9853ZM117.475 33.4245C117.419 33.423 117.362 33.4215 117.314 33.4505C117.26 33.4853 117.26 33.5517 117.26 33.6096C117.26 33.6156 117.26 33.6215 117.26 33.6272C117.261 33.7525 117.261 33.8778 117.26 34.0032C117.26 34.1692 117.259 34.3352 117.263 34.501C117.258 34.6342 117.466 34.6707 117.511 34.5474C117.526 34.4794 117.524 34.4097 117.523 34.3401C117.522 34.3047 117.522 34.2694 117.523 34.2342C117.59 34.2345 117.658 34.2342 117.727 34.2337C117.783 34.2986 117.836 34.3667 117.889 34.435C117.912 34.4643 117.934 34.4935 117.957 34.5226C117.997 34.5711 118.044 34.6276 118.114 34.6246C118.198 34.6303 118.268 34.5305 118.226 34.4547C118.188 34.3894 118.139 34.3322 118.091 34.275C118.067 34.248 118.044 34.221 118.023 34.1933C118.054 34.1696 118.086 34.1464 118.117 34.121C118.319 33.9672 118.292 33.6051 118.067 33.4851C117.947 33.4204 117.811 33.4226 117.678 33.4247C117.632 33.4255 117.587 33.4262 117.542 33.4243C117.52 33.4257 117.498 33.4251 117.475 33.4245ZM117.522 34.0026C117.52 33.8891 117.52 33.7756 117.522 33.6622C117.64 33.6654 117.762 33.6472 117.879 33.6758C118.02 33.7151 118.019 33.9491 117.878 33.9882C117.798 34.0083 117.715 34.006 117.633 34.0037C117.596 34.0026 117.559 34.0016 117.522 34.0026Z" fill="#696566"/>
</svg>
