<svg width="1787" height="2477" viewBox="0 0 1787 2477" fill="none" xmlns="http://www.w3.org/2000/svg">
<g opacity="0.5">
<path fill-rule="evenodd" clip-rule="evenodd" d="M2784.82 608.032C3136.24 535.13 3313.83 538.868 3394.21 550.084C3405.42 551.953 3407.29 568.777 3392.34 572.516C3371.74 574.88 3346.86 577.061 3318.54 579.544C3190.13 590.804 2990.88 608.276 2797.9 677.196C2758.65 692.15 2719.39 707.105 2682.01 725.798C2679.94 727.865 2674.44 730.505 2667.09 734.032C2661.15 736.882 2654.01 740.313 2646.49 744.491C2596.02 770.661 2541.81 837.956 2511.9 890.296L2175.43 1462.3C2173.8 1465.07 2172.02 1468.09 2170.1 1471.36C2099.43 1591.83 1832.79 2046.34 1330.51 2282.92C651.951 2600.7 33.2136 2430.6 33.2136 2430.6C33.2136 2430.6 266.876 2370.78 545.401 2176.37C737.938 2049.26 926.737 1875.41 1091.24 1636.14C1184.62 1552.21 1224.94 1466.78 1256.14 1400.66C1274.27 1362.23 1289.33 1330.32 1309.94 1309.02C1390.99 1227.97 1483.18 1169.19 1570.36 1113.6C1577.68 1108.94 1584.97 1104.29 1592.21 1099.66C1725.4 1048.77 1829.84 885.263 1895.93 781.791C1912.39 756.021 1926.47 733.975 1938.03 718.321C1982.89 658.503 2024.01 622.987 2076.35 594.947C2169.82 546.345 2328.71 525.783 2521.25 591.209C2564.24 604.294 2612.84 617.379 2657.71 621.117C2700.47 622.324 2743.2 617.925 2784.82 608.032ZM2404.6 754.253C2404.6 785.225 2379.49 810.333 2348.52 810.333C2317.55 810.333 2292.44 785.225 2292.44 754.253C2292.44 723.28 2317.55 698.172 2348.52 698.172C2379.49 698.172 2404.6 723.28 2404.6 754.253Z" fill="url(#paint0_linear)"/>
<path fill-rule="evenodd" clip-rule="evenodd" d="M2784.82 608.032C3136.25 535.129 3313.83 538.868 3394.21 550.084C3396.72 550.387 3399.04 551.601 3400.71 553.495C3402.39 555.389 3403.32 557.833 3403.32 560.364C3403.32 562.895 3402.39 565.339 3400.71 567.233C3399.04 569.128 3396.72 570.341 3394.21 570.645C3389.21 571.219 3383.87 571.826 3378.23 572.467C3255.18 586.458 2983.68 617.329 2754.91 697.757C2738.19 704.447 2728.94 707.022 2720.66 709.331C2710.42 712.183 2701.64 714.629 2682.01 723.928C2679.94 725.995 2674.44 728.635 2667.09 732.162C2661.16 735.012 2654.01 738.443 2646.49 742.621C2596.02 768.791 2541.81 836.086 2511.9 888.426L2175.43 1460.43C2146.5 1510.84 2114.67 1559.52 2080.09 1606.24C1997.84 1716.52 1829.61 1781.95 1622.12 1776.34C1502.48 1778.21 1366.02 1757.65 1209 1688.48C1177.22 1675.4 1126.75 1651.1 1089.37 1630.54C1070.67 1619.32 1042.63 1602.5 1037.03 1598.76C978.638 1560.21 922.47 1518.39 868.79 1473.52C823.927 1438 782.802 1400.61 739.809 1359.49C541.663 1166.95 347.257 922.073 192.105 679.065C158.458 626.725 126.68 574.384 98.6402 523.913C21.9991 389.324 -41.5569 256.604 -84.5507 140.708C-103.244 88.3675 -99.5051 58.4588 -95.7666 47.243C-88.2892 13.5957 -63.9886 -6.9666 -20.9947 6.11849C78.0779 43.5044 167.804 79.021 253.792 118.276C446.329 209.872 638.867 327.637 829.535 458.488C904.307 507.09 992.164 574.384 1081.89 645.418C1240.78 776.268 1405.28 923.943 1592.21 1099.66C1725.4 1048.77 1829.84 885.262 1895.93 781.79C1912.39 756.021 1926.47 733.975 1938.03 718.32C1982.89 658.503 2024.01 622.986 2076.35 594.947C2171.69 542.606 2323.1 525.783 2521.25 591.208C2564.24 604.293 2612.84 617.378 2657.71 621.117C2700.47 622.323 2743.2 617.924 2784.82 608.032ZM2404.6 754.253C2404.6 785.225 2379.49 810.333 2348.52 810.333C2317.55 810.333 2292.44 785.225 2292.44 754.253C2292.44 723.28 2317.55 698.172 2348.52 698.172C2379.49 698.172 2404.6 723.28 2404.6 754.253Z" fill="url(#paint1_linear)"/>
<path opacity="0.8" d="M57.5159 32.2883C54.6452 30.7787 51.3999 30.1297 48.1694 30.419C53.7773 32.2883 59.3852 36.0269 64.9931 37.8962C64.9931 36.0269 61.2545 34.1576 57.5159 32.2883Z" fill="url(#paint2_linear)"/>
<path opacity="0.8" d="M115.464 56.5895C113.594 56.5895 109.856 54.7202 107.986 54.7202C113.594 56.5895 119.202 60.3281 122.941 60.3281C119.202 58.4588 117.333 56.5895 115.464 56.5895Z" fill="url(#paint3_linear)"/>
<path d="M1212.74 1133.3C1345.46 1150.13 1474.44 1140.78 1590.34 1095.92C1478.18 991.237 1371.63 895.903 1272.56 809.915C1222.09 766.922 1173.48 723.928 1126.75 684.673C1124.88 682.803 1121.14 680.934 1121.14 679.065C1108.06 667.849 1096.84 658.502 1085.63 649.156C1081.89 647.287 1080.02 643.548 1078.15 643.548C988.424 572.515 900.568 507.089 829.534 456.618C638.866 327.637 448.198 208.002 255.661 116.407C238.837 107.06 222.013 101.452 203.32 92.1059C197.712 90.2366 192.105 86.498 188.366 86.498C932.346 488.397 1169.75 852.909 1212.74 1133.3Z" fill="url(#paint4_linear)"/>
<path opacity="0.3" d="M-19.1255 4.24976C5.17516 13.5963 27.6069 21.0734 50.0384 30.4199C25.7375 21.0734 3.30594 11.7269 -19.1255 4.24976Z" fill="url(#paint5_linear)"/>
<path opacity="0.3" d="M177.15 82.7594L188.366 88.3674C167.804 79.0209 145.372 69.6741 122.941 60.3279C130.418 64.0665 136.026 65.9358 143.503 69.6744C155.02 73.2183 166.265 77.5914 177.15 82.7594Z" fill="url(#paint6_linear)"/>
<path d="M397.727 740.751C197.712 579.992 8.91315 355.676 -71.4666 178.093C115.463 651.025 601.48 1322.1 1035.16 1598.76C1042.63 1604.37 1068.8 1619.32 1089.37 1630.54C1145.44 1544.55 1248.26 1366.97 1212.74 1133.3C945.43 1097.79 657.559 951.982 397.727 740.751Z" fill="url(#paint7_linear)"/>
<path opacity="0.3" d="M107.987 54.7201L68.7319 37.8965C70.6013 37.8965 72.4705 39.7658 74.3398 39.7658C83.6863 43.5043 94.9021 49.1122 107.987 54.7201Z" fill="url(#paint8_linear)"/>
<path opacity="0.8" d="M397.727 740.751C657.56 951.982 945.431 1095.92 1212.74 1131.43C1169.75 852.909 932.346 486.527 188.366 88.3672C184.448 86.8803 180.691 85.0015 177.15 82.7593C165.935 77.1514 154.719 73.4128 145.372 67.8049C137.895 64.0663 132.287 62.1971 124.81 58.4584C119.202 56.5892 113.594 52.8506 109.856 52.8506C98.4589 47.3721 86.5664 42.9906 74.3392 39.7655C72.4699 39.7655 70.6006 37.8962 68.7313 37.8962C63.1235 36.0269 57.5156 32.2883 51.9077 30.419C29.4761 22.9419 7.04458 11.7261 -17.2563 4.24889C-60.2501 -8.83615 -84.5508 11.7261 -93.8974 43.5041C-94.8415 47.1821 -95.4669 50.9346 -95.7667 54.7199C-97.636 58.4585 -95.7667 64.0663 -95.7667 69.6743C-95.7667 71.5435 -95.7667 71.5436 -97.636 73.4129C-96.6248 95.7596 -92.2124 117.822 -84.5509 138.838C-80.3873 152.222 -75.3928 165.332 -69.5966 178.093C8.91384 355.676 199.582 579.992 397.727 740.751Z" fill="url(#paint9_linear)"/>
<path d="M397.727 740.751C657.56 951.982 945.431 1095.92 1212.74 1131.43C1169.75 852.909 932.346 486.527 188.366 88.3672C184.448 86.8803 180.691 85.0015 177.15 82.7593C165.935 77.1514 154.719 73.4128 145.372 67.8049C137.895 64.0663 132.287 62.1971 124.81 58.4584C119.202 56.5892 113.594 52.8506 109.856 52.8506C98.4589 47.3721 86.5664 42.9906 74.3392 39.7655C72.4699 39.7655 70.6006 37.8962 68.7313 37.8962C63.1235 36.0269 57.5156 32.2883 51.9077 30.419C29.4761 22.9419 7.04458 11.7261 -17.2563 4.24889C-60.2501 -8.83615 -84.5508 11.7261 -93.8974 43.5041C-94.8415 47.1821 -95.4669 50.9346 -95.7667 54.7199C-97.636 58.4585 -95.7667 64.0663 -95.7667 69.6743C-95.7667 71.5435 -95.7667 71.5436 -97.636 73.4129C-96.6248 95.7596 -92.2124 117.822 -84.5509 138.838C-80.3873 152.222 -75.3928 165.332 -69.5966 178.093C8.91384 355.676 199.582 579.992 397.727 740.751Z" fill="url(#paint10_linear)"/>
<path fill-rule="evenodd" clip-rule="evenodd" d="M2784.82 608.032C3136.24 535.13 3313.83 538.868 3394.21 550.084C3405.42 551.954 3407.29 568.777 3397.95 576.254C3321.3 583.731 2999.79 626.725 2786.69 697.758C2652.3 743.134 2583.1 816.21 2566.9 833.316C2565.74 834.533 2564.86 835.466 2564.24 836.086C2563.54 837.142 2561.51 839.455 2558.18 843.251C2543.83 859.624 2505.31 903.575 2444.61 993.107C2409.09 1045.45 2296.93 1206.21 2115.61 1266.02C1926.81 1327.71 1724.93 1224.9 1594.08 1101.53C1727.27 1050.64 1831.71 887.132 1897.8 783.66C1914.26 757.89 1928.34 735.844 1939.9 720.19C1969.92 677.141 2008.01 640.322 2052.05 611.771C2107.1 574.728 2170.92 552.81 2237.11 548.215C2313.75 542.607 2409.09 553.823 2521.25 591.209C2564.24 604.294 2612.84 617.379 2657.7 621.117C2700.47 622.324 2743.2 617.925 2784.82 608.032ZM2404.6 754.253C2404.6 785.225 2379.49 810.333 2348.52 810.333C2317.55 810.333 2292.44 785.225 2292.44 754.253C2292.44 723.28 2317.55 698.172 2348.52 698.172C2379.49 698.172 2404.6 723.28 2404.6 754.253Z" fill="url(#paint11_linear)"/>
</g>
<defs>
<linearGradient id="paint0_linear" x1="3466.55" y1="1346.1" x2="-31.5311" y2="1628.52" gradientUnits="userSpaceOnUse">
<stop offset="0.2986" stop-color="#0097CE"/>
<stop offset="0.3791" stop-color="#0999C5"/>
<stop offset="0.5119" stop-color="#229DAD"/>
<stop offset="0.6469" stop-color="#42A38F"/>
<stop offset="0.7352" stop-color="#5DAD82"/>
<stop offset="0.9239" stop-color="#A1C661"/>
<stop offset="1" stop-color="#BED153"/>
</linearGradient>
<linearGradient id="paint1_linear" x1="-202.952" y1="436.411" x2="3181.74" y2="1367.71" gradientUnits="userSpaceOnUse">
<stop offset="0.08199" stop-color="#3D65AF"/>
<stop offset="0.2305" stop-color="#2372B8"/>
<stop offset="0.5058" stop-color="#00B8BB"/>
</linearGradient>
<linearGradient id="paint2_linear" x1="8.06332" y1="3892.37" x2="1724.25" y2="3892.37" gradientUnits="userSpaceOnUse">
<stop offset="0.1297"/>
<stop offset="0.3277" stop-color="#00334B"/>
<stop offset="0.5276" stop-color="#006190"/>
<stop offset="0.6723" stop-color="#007FBB"/>
<stop offset="0.7457" stop-color="#008ACC"/>
</linearGradient>
<linearGradient id="paint3_linear" x1="72.3365" y1="2927.68" x2="1597.83" y2="2927.68" gradientUnits="userSpaceOnUse">
<stop offset="0.1297"/>
<stop offset="0.3277" stop-color="#00334B"/>
<stop offset="0.5276" stop-color="#006190"/>
<stop offset="0.6723" stop-color="#007FBB"/>
<stop offset="0.7457" stop-color="#008ACC"/>
</linearGradient>
<linearGradient id="paint4_linear" x1="90.5786" y1="441.93" x2="1652.08" y2="871.575" gradientUnits="userSpaceOnUse">
<stop offset="0.1297" stop-color="#2483C5"/>
<stop offset="0.1672" stop-color="#2486C7"/>
<stop offset="0.676" stop-color="#29B1DF"/>
<stop offset="0.9352" stop-color="#2BC2E8"/>
</linearGradient>
<linearGradient id="paint5_linear" x1="5816.98" y1="13394.2" x2="2243.34" y2="13394.2" gradientUnits="userSpaceOnUse">
<stop stop-color="#682C90"/>
<stop offset="0.496" stop-color="#817CB9"/>
<stop offset="1" stop-color="white"/>
</linearGradient>
<linearGradient id="paint6_linear" x1="5643.59" y1="14433.4" x2="2263.11" y2="14433.4" gradientUnits="userSpaceOnUse">
<stop stop-color="#682C90"/>
<stop offset="0.496" stop-color="#817CB9"/>
<stop offset="1" stop-color="white"/>
</linearGradient>
<linearGradient id="paint7_linear" x1="-216.364" y1="704.745" x2="1275.15" y2="1115.13" gradientUnits="userSpaceOnUse">
<stop offset="0.1297" stop-color="#3B67AD"/>
<stop offset="0.5697" stop-color="#227CAA"/>
<stop offset="0.9352" stop-color="#118AA8"/>
</linearGradient>
<linearGradient id="paint8_linear" x1="3381.12" y1="8653.43" x2="1352.83" y2="8653.43" gradientUnits="userSpaceOnUse">
<stop stop-color="#682C90"/>
<stop offset="0.496" stop-color="#817CB9"/>
<stop offset="1" stop-color="white"/>
</linearGradient>
<linearGradient id="paint9_linear" x1="-3226.96" y1="601857" x2="130445" y2="601857" gradientUnits="userSpaceOnUse">
<stop offset="0.1297"/>
<stop offset="0.3277" stop-color="#00334B"/>
<stop offset="0.5276" stop-color="#006190"/>
<stop offset="0.6723" stop-color="#007FBB"/>
<stop offset="0.7457" stop-color="#008ACC"/>
</linearGradient>
<linearGradient id="paint10_linear" x1="-183.047" y1="358.357" x2="1312.9" y2="769.965" gradientUnits="userSpaceOnUse">
<stop offset="0.1297" stop-color="#3A67B0"/>
<stop offset="0.5622" stop-color="#357FBD"/>
<stop offset="0.9352" stop-color="#3290C6"/>
</linearGradient>
<linearGradient id="paint11_linear" x1="1713.92" y1="655.084" x2="3261.15" y2="1080.8" gradientUnits="userSpaceOnUse">
<stop offset="0.1724" stop-color="#4E5CA8"/>
<stop offset="0.9937" stop-color="#1FC3F3"/>
</linearGradient>
</defs>
</svg>
