<svg width="317" height="89" viewBox="0 0 317 89" fill="none" xmlns="http://www.w3.org/2000/svg">
<path d="M77.8857 25.823C79.0626 25.8468 80.2285 25.5903 81.2881 25.0743C82.3476 24.5583 83.2709 23.7976 83.9825 22.8542L87.2251 26.2146C84.6523 29.1295 81.6202 30.5867 78.129 30.5862C76.5429 30.6416 74.962 30.3756 73.4801 29.8039C71.9983 29.2323 70.6459 28.3667 69.5032 27.2587C68.3897 26.1717 67.5133 24.8634 66.9298 23.4171C66.3463 21.9707 66.0686 20.418 66.1142 18.8577C66.0744 17.2827 66.3609 15.7165 66.9555 14.2589C67.5501 12.8014 68.4399 11.4843 69.5681 10.3915C70.6775 9.28419 71.9972 8.41308 73.4486 7.83018C74.9 7.24728 76.4533 6.96456 78.0157 6.99888C79.7899 6.97053 81.5481 7.33926 83.1633 8.07838C84.7785 8.81751 86.2101 9.90857 87.3548 11.2726L84.2093 14.8613C83.5194 13.9242 82.6195 13.1641 81.5828 12.6426C80.546 12.1211 79.4016 11.8529 78.2425 11.8599C76.4352 11.8233 74.6847 12.496 73.362 13.7355C72.6822 14.3819 72.1492 15.1684 71.7994 16.0412C71.4496 16.914 71.2913 17.8525 71.3352 18.7925C71.2923 19.7297 71.4399 20.6659 71.7689 21.5438C72.0979 22.4217 72.6015 23.2228 73.2488 23.8982C73.8499 24.5208 74.5715 25.0128 75.3691 25.3439C76.1666 25.6749 77.0231 25.838 77.8857 25.823Z" fill="#231F20"/>
<path d="M91.2139 30.325V7.52051H96.2725V25.79H105.936V30.325H91.2139Z" fill="#231F20"/>
<path d="M128.085 27.1772C125.794 29.3458 122.767 30.5533 119.621 30.5533C116.475 30.5533 113.448 29.3458 111.157 27.1772C110.036 26.0937 109.151 24.7872 108.559 23.3409C107.968 21.8946 107.682 20.3402 107.72 18.7766C107.682 17.2129 107.968 15.6585 108.559 14.2121C109.151 12.7657 110.036 11.4592 111.157 10.3756C113.448 8.20671 116.475 6.99902 119.621 6.99902C122.767 6.99902 125.794 8.20671 128.085 10.3756C129.206 11.4592 130.091 12.7657 130.682 14.2121C131.274 15.6585 131.56 17.2129 131.522 18.7766C131.56 20.3402 131.274 21.8946 130.682 23.3409C130.091 24.7872 129.206 26.0937 128.085 27.1772ZM126.366 18.7927C126.408 16.8708 125.711 15.0068 124.42 13.5892C123.819 12.9118 123.082 12.3698 122.257 11.9987C121.433 11.6277 120.54 11.4358 119.637 11.4358C118.734 11.4358 117.841 11.6277 117.017 11.9987C116.193 12.3698 115.456 12.9118 114.854 13.5892C113.563 15.0067 112.866 16.8707 112.908 18.7927C112.864 20.7101 113.562 22.5699 114.854 23.9801C115.459 24.6529 116.197 25.1907 117.021 25.5587C117.844 25.9268 118.736 26.117 119.637 26.117C120.539 26.117 121.43 25.9268 122.254 25.5587C123.078 25.1907 123.816 24.6529 124.42 23.9801C125.712 22.5698 126.41 20.7101 126.366 18.7927V18.7927Z" fill="#231F20"/>
<path d="M141.801 24.4363C142.205 24.951 142.724 25.3625 143.315 25.6374C143.907 25.9123 144.555 26.0429 145.206 26.0186C145.855 26.044 146.501 25.9139 147.09 25.6388C147.68 25.3637 148.196 24.9515 148.596 24.4363C149.489 23.1806 149.93 21.6555 149.844 20.1135V7.52051H154.903V20.2765C154.903 23.583 153.995 26.1223 152.179 27.8942C150.253 29.6099 147.768 30.5557 145.195 30.5528C142.623 30.5498 140.14 29.5982 138.218 27.8781C136.391 26.095 135.477 23.5612 135.478 20.2765V7.52051H140.537V20.1135C140.45 21.658 140.897 23.1852 141.801 24.4363Z" fill="#231F20"/>
<path d="M177.472 10.5055C179.633 12.4954 180.714 15.2631 180.715 18.8086C180.715 22.3538 179.661 25.1595 177.553 27.2257C175.446 29.2921 172.23 30.3252 167.905 30.3249H160.155V7.52051H168.165C172.208 7.52051 175.31 8.51549 177.472 10.5055ZM173.759 24.0608C175.002 22.8863 175.623 21.1791 175.624 18.939C175.685 17.9943 175.55 17.0471 175.229 16.1572C174.908 15.2672 174.408 14.4538 173.759 13.7681C172.515 12.561 170.608 11.9574 168.036 11.9573H165.214V25.8226H168.425C170.738 25.8226 172.516 25.2353 173.759 24.0608Z" fill="#231F20"/>
<path d="M209.511 7.52051H214.57V30.325H209.511L198.713 16.0354V30.325H193.654V7.52051H198.388L209.511 22.2013V7.52051Z" fill="#231F20"/>
<path d="M236.296 30.3249L234.189 25.3987H224.687L222.579 30.3249H217.196L226.99 7.52051H231.886L241.68 30.3249H236.296ZM229.454 14.3063L226.6 20.929H232.275L229.454 14.3063Z" fill="#231F20"/>
<path d="M252.251 11.9247V30.325H247.192V11.9247H240.772V7.52051H258.672V11.9247L252.251 11.9247Z" fill="#231F20"/>
<path d="M262.368 7.52051H267.427V30.325H262.368V7.52051Z" fill="#231F20"/>
<path d="M281.371 22.0383L287.143 7.52051H292.624L283.511 30.325H279.231L270.118 7.52051H275.599L281.371 22.0383Z" fill="#231F20"/>
<path d="M311.658 7.52051V12.0551H300.374V16.7531H310.524V21.092H300.374V25.8226H312.015V30.325H295.314V7.52051H311.658Z" fill="#231F20"/>
<path d="M72.0858 49.7464C72.7454 49.7597 73.3989 49.6159 73.9928 49.3268C74.5867 49.0376 75.1043 48.6112 75.5032 48.0825L77.321 49.966C76.1485 51.3648 74.4718 52.2378 72.6596 52.3929C70.8474 52.5479 69.0482 51.9724 67.6578 50.7929C67.5654 50.7145 67.4752 50.6338 67.3871 50.5506C66.1626 49.2832 65.4806 47.5835 65.4874 45.816C65.4941 44.0486 66.1891 42.3542 67.4232 41.0962C68.045 40.4754 68.7847 39.9869 69.5983 39.6601C70.4119 39.3333 71.2826 39.1747 72.1584 39.1939C73.153 39.1781 74.1387 39.3849 75.0441 39.7993C75.9495 40.2138 76.752 40.8254 77.3936 41.5902L75.6305 43.6018C75.2438 43.0765 74.7394 42.6503 74.1583 42.358C73.5771 42.0656 72.9356 41.9153 72.2858 41.9192C71.2728 41.8987 70.2915 42.2759 69.5502 42.9708C69.1691 43.3331 68.8703 43.774 68.6742 44.2632C68.4782 44.7525 68.3894 45.2785 68.414 45.8055C68.3899 46.3308 68.4726 46.8555 68.657 47.3475C68.8414 47.8395 69.1237 48.2886 69.4865 48.6671C69.8234 49.0161 70.2279 49.292 70.675 49.4776C71.1221 49.6633 71.6022 49.7548 72.0858 49.7464Z" fill="#231F20"/>
<path d="M89.9723 50.5053C88.6883 51.7214 86.9913 52.3986 85.2279 52.3986C83.4644 52.3986 81.7675 51.7214 80.4835 50.5053C79.2493 49.2526 78.5569 47.5602 78.5569 45.7965C78.5569 44.0327 79.2493 42.3403 80.4835 41.0876C81.7675 39.8715 83.4644 39.1943 85.2279 39.1943C86.9913 39.1943 88.6883 39.8715 89.9723 41.0876C91.2067 42.3402 91.8992 44.0326 91.8992 45.7965C91.8992 47.5603 91.2067 49.2527 89.9723 50.5053ZM89.009 45.8058C89.0324 44.7284 88.6417 43.6835 87.9183 42.8887C87.5809 42.5091 87.1677 42.2053 86.7057 41.9974C86.2436 41.7895 85.7432 41.682 85.237 41.682C84.7308 41.682 84.2304 41.7895 83.7683 41.9974C83.3063 42.2053 82.8931 42.5091 82.5557 42.8887C81.8529 43.6941 81.4654 44.7292 81.4654 45.801C81.4654 46.8727 81.8529 47.9078 82.5557 48.7132C82.8946 49.0903 83.3083 49.3917 83.7702 49.598C84.232 49.8043 84.7317 49.9109 85.237 49.9109C85.7423 49.9109 86.242 49.8043 86.7039 49.598C87.1657 49.3917 87.5794 49.0903 87.9183 48.7132C88.6426 47.9229 89.0336 46.8805 89.009 45.8058L89.009 45.8058Z" fill="#231F20"/>
<path d="M105.678 44.2235L102.242 51.2097H100.551L97.1341 44.2235V52.2703H94.2986V39.4873H98.1339L101.406 46.5095L104.696 39.4873H108.513V52.2703H105.678L105.678 44.2235Z" fill="#231F20"/>
<path d="M120.392 40.6303C120.862 41.0781 121.225 41.6259 121.456 42.2336C121.688 42.8412 121.781 43.4933 121.729 44.1418C121.784 44.787 121.688 45.4362 121.45 46.0378C121.212 46.6393 120.837 47.1766 120.356 47.6068C119.441 48.3383 118.044 48.7041 116.166 48.7041H114.476V52.2703H111.64V39.4873H116.13C118.081 39.4873 119.502 39.8683 120.392 40.6303ZM118.311 45.6596C118.681 45.1809 118.862 44.5817 118.82 43.9769C118.849 43.6799 118.804 43.3802 118.688 43.1055C118.572 42.8307 118.389 42.5897 118.157 42.4044C117.53 42.0471 116.812 41.8846 116.093 41.9375H114.476V46.2352H116.384C116.728 46.2766 117.076 46.247 117.407 46.148C117.738 46.049 118.046 45.8828 118.311 45.6596H118.311Z" fill="#231F20"/>
<path d="M127.309 48.9694C127.535 49.2579 127.826 49.4885 128.158 49.6426C128.489 49.7967 128.852 49.8698 129.218 49.8561C129.581 49.8704 129.943 49.7975 130.274 49.6433C130.604 49.4891 130.893 49.2582 131.117 48.9694C131.618 48.2655 131.865 47.4106 131.817 46.5463V39.4873H134.653V46.6377C134.704 47.4168 134.595 48.1982 134.332 48.9329C134.069 49.6676 133.659 50.3399 133.126 50.9077C132.046 51.8697 130.654 52.4001 129.211 52.3985C127.769 52.3968 126.378 51.8632 125.3 50.8987C124.767 50.3331 124.355 49.6627 124.09 48.9295C123.826 48.1963 123.715 47.416 123.764 46.6377V39.4873H126.6V46.5463C126.552 47.412 126.802 48.268 127.309 48.9694Z" fill="#231F20"/>
<path d="M142.978 41.9562V52.2703H140.142V41.9562H136.543V39.4873H146.577V41.9562H142.978Z" fill="#231F20"/>
<path d="M148.649 39.4873H151.485V52.2703H148.649V39.4873Z" fill="#231F20"/>
<path d="M163.5 39.4873H166.336V52.2703H163.5L157.447 44.2603V52.2703H154.611V39.4873H157.265L163.5 47.717L163.5 39.4873Z" fill="#231F20"/>
<path d="M177.715 45.7601H180.568V50.2954C179.903 51.0125 179.089 51.574 178.185 51.9404C177.28 52.3069 176.307 52.4694 175.333 52.4166C174.466 52.439 173.602 52.2854 172.795 51.9648C171.988 51.6443 171.253 51.1635 170.634 50.551C169.41 49.2836 168.728 47.5838 168.735 45.8163C168.741 44.0488 169.437 42.3544 170.671 41.0966C171.283 40.4799 172.012 39.9936 172.814 39.6667C173.617 39.3399 174.477 39.1792 175.343 39.1943C177.098 39.1688 178.798 39.8162 180.096 41.0052L178.624 43.145C178.161 42.7144 177.629 42.3651 177.051 42.1115C176.555 41.9195 176.028 41.8234 175.497 41.8281C174.992 41.8166 174.489 41.9087 174.02 42.0989C173.552 42.2891 173.126 42.5734 172.77 42.9344C172.064 43.7339 171.67 44.7641 171.662 45.8336C171.653 46.9031 172.031 47.9394 172.725 48.7499C173.05 49.0978 173.443 49.3741 173.88 49.5614C174.316 49.7487 174.786 49.843 175.261 49.8382C176.114 49.8689 176.96 49.6735 177.715 49.2716V45.7601Z" fill="#231F20"/>
<path d="M196.62 39.4873V41.993H190.73V44.7542H196.329V47.2598H190.73V52.2704H187.894V39.4873H196.62Z" fill="#231F20"/>
<path d="M209.707 50.5053C208.423 51.7214 206.726 52.3986 204.963 52.3986C203.199 52.3986 201.502 51.7214 200.219 50.5053C198.984 49.2528 198.291 47.5604 198.291 45.7965C198.291 44.0325 198.984 42.3401 200.219 41.0876C201.502 39.8715 203.199 39.1943 204.963 39.1943C206.726 39.1943 208.423 39.8715 209.707 41.0876C210.941 42.3403 211.634 44.0327 211.634 45.7965C211.634 47.5602 210.941 49.2526 209.707 50.5053ZM208.744 45.8058C208.767 44.7284 208.376 43.6835 207.653 42.8887C207.316 42.5091 206.902 42.2054 206.44 41.9974C205.978 41.7895 205.478 41.682 204.972 41.682C204.466 41.682 203.965 41.7895 203.503 41.9974C203.041 42.2054 202.628 42.5091 202.29 42.8887C201.587 43.694 201.2 44.7292 201.2 45.801C201.2 46.8727 201.587 47.9079 202.29 48.7132C202.629 49.0903 203.043 49.3917 203.505 49.5981C203.967 49.8044 204.466 49.9109 204.972 49.9109C205.477 49.9109 205.977 49.8044 206.439 49.5981C206.9 49.3917 207.314 49.0903 207.653 48.7132C208.377 47.9229 208.768 46.8805 208.744 45.8058L208.744 45.8058Z" fill="#231F20"/>
<path d="M217.396 48.9694C217.623 49.2578 217.914 49.4884 218.245 49.6425C218.577 49.7966 218.94 49.8698 219.305 49.8561C219.669 49.8704 220.031 49.7975 220.361 49.6433C220.691 49.4891 220.981 49.2582 221.205 48.9694C221.706 48.2655 221.952 47.4106 221.904 46.5463V39.4873H224.741V46.6377C224.792 47.4168 224.682 48.1982 224.419 48.9329C224.157 49.6676 223.746 50.3399 223.213 50.9077C222.134 51.8697 220.741 52.4001 219.299 52.3985C217.857 52.3968 216.465 51.8632 215.388 50.8987C214.854 50.3332 214.442 49.6628 214.177 48.9296C213.913 48.1963 213.802 47.4161 213.852 46.6377V39.4873H216.688V46.5463C216.639 47.412 216.89 48.2679 217.396 48.9694Z" fill="#231F20"/>
<path d="M236.574 39.4873H239.409V52.2703H236.574L230.52 44.2603V52.2703H227.684V39.4873H230.339L236.574 47.717V39.4873Z" fill="#231F20"/>
<path d="M252.243 41.1602C252.861 41.7587 253.343 42.4844 253.657 43.2877C253.971 44.091 254.108 44.953 254.06 45.8147C254.105 46.6817 253.971 47.5486 253.665 48.3606C253.36 49.1727 252.891 49.9124 252.288 50.5329C251.106 51.6917 249.304 52.2708 246.88 52.2703H242.535V39.4873H247.025C249.292 39.4873 251.031 40.0449 252.243 41.1602ZM250.161 48.7588C250.526 48.381 250.808 47.9301 250.988 47.4355C251.168 46.9409 251.242 46.4137 251.206 45.8882C251.24 45.3585 251.165 44.8275 250.985 44.3285C250.805 43.8295 250.525 43.3735 250.161 42.989C249.263 42.2436 248.112 41.8795 246.952 41.9742H245.371V49.7467H247.171C248.257 49.8194 249.329 49.4653 250.161 48.7588Z" fill="#231F20"/>
<path d="M265.203 52.2703L264.022 49.5091H258.696L257.514 52.2703H254.497L259.987 39.4873H262.732L268.221 52.2703H265.203ZM261.368 43.2911L259.769 47.0035H262.95L261.368 43.2911Z" fill="#231F20"/>
<path d="M274.147 41.9562V52.2703H271.311V41.9562H267.712V39.4873H277.746V41.9562H274.147Z" fill="#231F20"/>
<path d="M279.818 39.4873H282.654V52.2703H279.818V39.4873Z" fill="#231F20"/>
<path d="M296.468 50.5053C295.184 51.7214 293.488 52.3986 291.724 52.3986C289.961 52.3986 288.264 51.7214 286.98 50.5053C285.745 49.2528 285.053 47.5604 285.053 45.7965C285.053 44.0325 285.745 42.3401 286.98 41.0876C288.264 39.8715 289.961 39.1943 291.724 39.1943C293.488 39.1943 295.184 39.8715 296.468 41.0876C297.703 42.3403 298.395 44.0327 298.395 45.7965C298.395 47.5602 297.703 49.2526 296.468 50.5053ZM295.505 45.8058C295.529 44.7284 295.138 43.6835 294.414 42.8887C294.077 42.5091 293.664 42.2054 293.202 41.9974C292.74 41.7895 292.239 41.682 291.733 41.682C291.227 41.682 290.726 41.7895 290.264 41.9974C289.802 42.2054 289.389 42.5091 289.052 42.8887C288.349 43.694 287.961 44.7292 287.961 45.801C287.961 46.8727 288.349 47.9079 289.052 48.7132C289.391 49.0903 289.804 49.3917 290.266 49.598C290.728 49.8043 291.228 49.9109 291.733 49.9109C292.238 49.9109 292.738 49.8043 293.2 49.598C293.662 49.3917 294.075 49.0903 294.414 48.7132C295.139 47.9228 295.53 46.8805 295.505 45.8058V45.8058Z" fill="#231F20"/>
<path d="M309.683 39.4873H312.519V52.2703H309.683L303.63 44.2603V52.2703H300.794V39.4873H303.448L309.683 47.717L309.683 39.4873Z" fill="#231F20"/>
<path d="M11.7632 37.1289H4.7832V53.5126H21.0668V46.4903H11.7632V37.1289Z" fill="#416BA9"/>
<path d="M46.6563 37.1813V46.4903H37.4033L37.3519 46.4387V53.5126H53.6355V37.1289H46.6042L46.6563 37.1813Z" fill="#416BA9"/>
<path d="M4.7832 20.7487H11.8153L11.7632 20.6947V11.388V11.3857H21.0162L21.0668 11.4382V4.36426H4.7832V20.7487Z" fill="#416BA9"/>
<path d="M37.3519 4.36426V11.3857H46.6563V20.7487H53.6355V4.36426H37.3519Z" fill="#416BA9"/>
<path d="M36.4901 20.7487L27.1842 11.3857H37.352V4.36426H21.0669V11.4382L30.3214 20.7487H36.4901Z" fill="#73C3D5"/>
<path d="M28.0975 37.1289H21.9296L29.64 44.8868L31.2355 46.4903H28.0476H21.0669V53.5126H37.352V46.4387L32.7244 41.7838L28.0975 37.1289Z" fill="#73C3D5"/>
<path d="M46.6563 20.749V27.7697V30.9761L45.0624 29.3718L37.3519 21.6162V27.8214L41.9773 32.4748L46.6042 37.1289H53.6355V20.749H46.6563Z" fill="#73C3D5"/>
<path d="M21.0668 30.055L11.8153 20.749H4.7832V37.1289H11.7632V26.9011L21.0668 36.261V30.055Z" fill="#73C3D5"/>
<path d="M312.519 62.0615H4.78333V84.6677H312.519V62.0615Z" fill="#73C3D5"/>
<path d="M68.9904 73.3945V73.3643C68.9849 72.6448 69.123 71.9314 69.3964 71.2666C69.6699 70.6017 70.0731 69.9988 70.5823 69.4935C71.0915 68.9882 71.6963 68.5909 72.3609 68.325C73.0255 68.0591 73.7363 67.9301 74.4514 67.9455C75.95 67.8659 77.4196 68.3819 78.5436 69.3823L77.1001 71.1336C76.3672 70.4319 75.3885 70.05 74.377 70.0711C73.551 70.1072 72.7728 70.4707 72.2124 71.0822C71.652 71.6938 71.355 72.5036 71.3863 73.3347V73.3643C71.3612 73.7946 71.4244 74.2256 71.5721 74.6303C71.7198 75.035 71.9488 75.4048 72.2447 75.7166C72.5407 76.0284 72.8973 76.2755 73.2923 76.4426C73.6874 76.6096 74.1124 76.6931 74.5408 76.6877C75.3077 76.711 76.0625 76.4912 76.6984 76.0593V74.562H74.392V72.571H78.9156V77.1217C77.6809 78.1985 76.1004 78.7889 74.4664 78.7838C73.7477 78.8205 73.0293 78.7072 72.3563 78.451C71.6833 78.1948 71.0703 77.8012 70.556 77.2949C70.0416 76.7887 69.6369 76.1808 69.3675 75.5095C69.0981 74.8382 68.9697 74.1181 68.9904 73.3945Z" fill="white"/>
<path d="M81.4868 68.1244H86.2483C86.7991 68.0896 87.3513 68.1657 87.8725 68.3483C88.3937 68.5309 88.8735 68.8162 89.2837 69.1876C89.584 69.5065 89.8177 69.8828 89.971 70.2941C90.1244 70.7054 90.1943 71.1435 90.1766 71.5824V71.6126C90.2099 72.3254 90.0095 73.0293 89.6062 73.6163C89.203 74.2032 88.6192 74.6406 87.9447 74.8611L90.4889 78.6034H87.8105L85.5785 75.2506H83.778V78.6034H81.4867L81.4868 68.1244ZM86.0995 73.2142C87.2153 73.2142 87.8553 72.6153 87.8553 71.7321V71.7026C87.8553 70.7143 87.1709 70.2054 86.0548 70.2054H83.7781V73.2142H86.0995Z" fill="white"/>
<path d="M96.1852 68.0498H98.2984L102.762 78.6037H100.367L99.4142 76.2535H95.0097L94.0574 78.6037H91.7213L96.1852 68.0498ZM98.5961 74.2179L97.212 70.8197L95.8282 74.2179H98.5961Z" fill="white"/>
<path d="M104.739 68.125H108.801C112.074 68.125 114.336 70.3859 114.336 73.335V73.3645C114.336 76.3136 112.074 78.604 108.801 78.604H104.739V68.125ZM108.801 76.5231C109.217 76.5479 109.634 76.4842 110.024 76.3362C110.414 76.1882 110.768 75.9592 111.065 75.664C111.361 75.3689 111.592 75.0142 111.743 74.6232C111.894 74.2322 111.961 73.8137 111.94 73.3948V73.3645C111.962 72.9441 111.895 72.5238 111.745 72.1309C111.594 71.738 111.364 71.3812 111.068 71.0835C110.772 70.7858 110.417 70.5539 110.027 70.4028C109.636 70.2516 109.219 70.1846 108.801 70.206H107.03V76.5231H108.801Z" fill="white"/>
<path d="M116.58 74.1131V68.125H118.871V74.0534C118.871 75.7601 119.72 76.6433 121.118 76.6433C122.517 76.6433 123.365 75.7896 123.365 74.1282V68.125H125.657V74.0383C125.657 77.2119 123.886 78.7689 121.088 78.7689C118.291 78.7689 116.58 77.1968 116.58 74.1131Z" fill="white"/>
<path d="M131.561 68.0498H133.674L138.138 78.6037H135.742L134.79 76.2535H130.386L129.433 78.6037H127.097L131.561 68.0498ZM133.972 74.2179L132.588 70.8197L131.204 74.2179H133.972Z" fill="white"/>
<path d="M141.201 70.2506H138.031V68.125H146.662V70.2506H143.492V78.604H141.201V70.2506Z" fill="white"/>
<path d="M148.787 68.125H156.644V70.1757H151.064V72.3021H155.974V74.3528H151.064V76.5533H156.718V78.604H148.787V68.125Z" fill="white"/>
<path d="M159.126 68.125H163.188C166.463 68.125 168.724 70.3859 168.724 73.335V73.3645C168.724 76.3136 166.463 78.604 163.188 78.604H159.126V68.125ZM163.188 76.5231C163.605 76.5479 164.021 76.4843 164.411 76.3363C164.802 76.1883 165.156 75.9592 165.452 75.6641C165.749 75.3689 165.98 75.0143 166.131 74.6233C166.281 74.2323 166.349 73.8137 166.328 73.3948V73.3645C166.349 72.9441 166.283 72.5238 166.133 72.1309C165.982 71.738 165.752 71.3811 165.456 71.0834C165.16 70.7857 164.805 70.5538 164.415 70.4027C164.024 70.2515 163.606 70.1845 163.188 70.206H161.418V76.5231H163.188Z" fill="white"/>
<path d="M175.966 68.125H180.222C182.707 68.125 184.21 69.6071 184.21 71.7478V71.7781C184.21 74.2031 182.335 75.4606 179.999 75.4606H178.258V78.604H175.966V68.125ZM180.073 73.4091C180.298 73.4379 180.527 73.4184 180.744 73.3522C180.961 73.2859 181.162 73.1742 181.334 73.0244C181.505 72.8747 181.643 72.6902 181.738 72.4831C181.834 72.2761 181.885 72.051 181.888 71.8227V71.7925C181.888 70.7595 181.174 70.206 180.029 70.206H178.258V73.4091H180.073Z" fill="white"/>
<path d="M186.276 68.1244H191.037C191.588 68.0897 192.14 68.1658 192.662 68.3483C193.183 68.5309 193.663 68.8162 194.073 69.1876C194.373 69.5066 194.607 69.8828 194.76 70.2941C194.913 70.7055 194.983 71.1435 194.965 71.5824V71.6126C194.999 72.3253 194.798 73.0293 194.395 73.6163C193.992 74.2033 193.408 74.6406 192.734 74.8611L195.278 78.6034H192.6L190.367 75.2505H188.567V78.6034H186.276V68.1244ZM190.888 73.2142C192.005 73.2142 192.644 72.6153 192.644 71.7321V71.7026C192.644 70.7143 191.959 70.2054 190.843 70.2054H188.567V73.2142H190.888Z" fill="white"/>
<path d="M196.942 73.3943V73.3641C196.982 71.916 197.58 70.5403 198.611 69.5287C199.642 68.5171 201.023 67.9492 202.463 67.9453C203.903 67.9415 205.288 68.502 206.324 69.5081C207.36 70.5142 207.966 71.8867 208.013 73.3345V73.3641C207.974 74.8122 207.375 76.188 206.344 77.1997C205.314 78.2114 203.932 78.7795 202.492 78.7834C201.052 78.7873 199.667 78.2268 198.631 77.2208C197.595 76.2147 196.989 74.8422 196.942 73.3943ZM205.617 73.3943V73.3641C205.632 72.9377 205.561 72.5127 205.409 72.1143C205.258 71.716 205.028 71.3524 204.733 71.0452C204.439 70.738 204.087 70.4935 203.696 70.3261C203.306 70.1587 202.887 70.0719 202.463 70.0709C202.042 70.0692 201.625 70.1534 201.237 70.3184C200.849 70.4833 200.499 70.7256 200.207 71.0307C199.915 71.3357 199.687 71.6971 199.538 72.0931C199.389 72.4891 199.321 72.9114 199.338 73.3345V73.3641C199.324 73.7904 199.394 74.2153 199.546 74.6136C199.698 75.0119 199.928 75.3755 200.222 75.6827C200.516 75.9899 200.869 76.2344 201.259 76.4018C201.649 76.5692 202.068 76.6561 202.492 76.6572C202.913 76.6589 203.33 76.5748 203.718 76.4099C204.105 76.245 204.456 76.0028 204.748 75.6979C205.04 75.3929 205.268 75.0315 205.417 74.6356C205.567 74.2397 205.635 73.8174 205.617 73.3943Z" fill="white"/>
<path d="M208.932 77.1817L210.375 75.565C210.597 75.8689 210.883 76.1203 211.212 76.3013C211.541 76.4824 211.906 76.5888 212.28 76.613C213.143 76.613 213.679 76.089 213.679 74.8768V68.125H216.03V74.9812C216.061 75.4902 215.99 76.0003 215.821 76.4812C215.653 76.962 215.39 77.4039 215.048 77.7806C214.683 78.1153 214.256 78.3738 213.791 78.5408C213.326 78.7079 212.833 78.7803 212.34 78.7538C211.69 78.7707 211.045 78.6379 210.455 78.3654C209.864 78.0929 209.343 77.688 208.932 77.1817Z" fill="white"/>
<path d="M218.736 68.125H226.592V70.1757H221.012V72.3021H225.923V74.3528H221.012V76.5533H226.667V78.604H218.736V68.125Z" fill="white"/>
<path d="M228.614 73.3942V73.3639C228.601 72.645 228.733 71.9309 229.002 71.2647C229.271 70.5985 229.672 69.994 230.179 69.4877C230.687 68.9813 231.291 68.5836 231.955 68.3185C232.62 68.0534 233.33 67.9264 234.045 67.9452C234.804 67.9071 235.563 68.0315 236.271 68.3102C236.979 68.5889 237.62 69.0155 238.152 69.5619L236.694 71.2534C235.994 70.5231 235.038 70.0984 234.03 70.0708C233.617 70.0791 233.209 70.1708 232.832 70.3406C232.454 70.5104 232.115 70.7548 231.833 71.0592C231.551 71.3637 231.333 71.7219 231.192 72.1128C231.05 72.5036 230.989 72.919 231.01 73.3344V73.3639C230.986 73.7815 231.045 74.1996 231.185 74.5935C231.325 74.9873 231.542 75.3487 231.824 75.6561C232.106 75.9635 232.447 76.2106 232.826 76.3826C233.205 76.5545 233.614 76.6479 234.03 76.6571C234.546 76.6524 235.055 76.541 235.526 76.3299C235.997 76.1187 236.42 75.8124 236.768 75.4298L238.226 76.9119C237.702 77.529 237.045 78.0182 236.305 78.3424C235.565 78.6666 234.762 78.8174 233.956 78.7834C233.25 78.7949 232.549 78.6632 231.894 78.3962C231.24 78.1293 230.646 77.7325 230.148 77.2296C229.649 76.7266 229.256 76.1278 228.993 75.4689C228.729 74.8099 228.6 74.1043 228.614 73.3942Z" fill="white"/>
<path d="M242.851 70.2506H239.682V68.125H248.312V70.2506H245.143V78.604H242.851V70.2506Z" fill="white"/>
</svg>
