<svg width="47" height="47" viewBox="0 0 47 47" fill="none" xmlns="http://www.w3.org/2000/svg">
<path fill-rule="evenodd" clip-rule="evenodd" d="M22.9844 0H23.7888C25.9702 0.0882721 28.1579 0.390399 30.2363 1.07383C30.8361 1.28404 30.9789 2.15766 30.4984 2.56262C30.1872 2.87112 29.7167 2.80833 29.3354 2.69457C25.5634 1.5798 21.4819 1.54795 17.6881 2.579C15.029 3.30156 12.5091 4.53282 10.3151 6.2018C10.4898 6.77784 10.6308 7.38573 10.5098 7.98817C10.2978 9.40052 8.98371 10.5362 7.5577 10.5481C6.21269 10.6145 4.90954 9.68081 4.52551 8.39404C4.05776 7.00352 4.75302 5.35002 6.07346 4.71118C7.01988 4.20885 8.17379 4.32169 9.09928 4.81401C9.39279 4.62848 9.6754 4.42662 9.95791 4.22482C10.3683 3.9317 10.7784 3.63873 11.2214 3.3962C14.746 1.2349 18.8565 0.087362 22.9844 0ZM7.22009 6.22091C6.67134 6.32192 6.22998 6.82061 6.20086 7.37845C6.1317 8.0819 6.75143 8.75804 7.46215 8.73529C8.17743 8.7626 8.80989 8.0819 8.73163 7.37026C8.69887 6.63679 7.93627 6.05619 7.22009 6.22091ZM32.5167 2.21042C33.1592 1.92285 33.9482 2.57807 33.7526 3.26331C33.6461 3.91034 32.7625 4.19245 32.2892 3.74563C31.7523 3.35796 31.8934 2.427 32.5167 2.21042ZM41.8818 6.07357C41.2529 4.77679 39.6449 4.0788 38.2681 4.50469C36.9476 4.86506 35.9766 6.18732 36.0449 7.55781C36.0567 8.93376 37.1151 10.206 38.4619 10.479C39.1062 10.6373 39.7687 10.5045 40.3893 10.3115C43.1121 13.8906 44.6701 18.3416 44.7556 22.8389C44.8393 25.8192 44.2706 28.815 43.1185 31.5642C43.0719 31.6799 43.0194 31.794 42.9668 31.9082C42.8395 32.1847 42.7118 32.4618 42.668 32.7645C42.6207 33.2095 42.9692 33.6427 43.4106 33.7018C43.8083 33.7974 44.2196 33.5544 44.3843 33.1922C45.7676 30.2892 46.4919 27.0914 46.5929 23.8818V22.9854C46.5065 18.8575 45.358 14.7461 43.1977 11.2216C42.955 10.7793 42.6624 10.3698 42.3697 9.96019L42.3697 9.96008C42.1673 9.67688 41.9649 9.39361 41.7789 9.09939C42.2713 8.1739 42.3832 7.01999 41.8818 6.07357ZM37.8577 7.45953C37.8458 6.89896 38.2617 6.37569 38.8023 6.23919C39.5685 6.00623 40.4203 6.66235 40.3957 7.46135C40.4221 8.20211 39.7004 8.84003 38.9679 8.71445C38.3436 8.66622 37.8376 8.08107 37.8577 7.45953ZM19.4416 6.7715C19.5017 6.32286 19.9358 5.99889 20.3789 6.01345C21.3651 6.00667 22.3515 6.00839 23.338 6.01012C24.2048 6.01164 25.0716 6.01315 25.9383 6.0089L26.0023 6.00998C26.2654 6.0141 26.5445 6.01846 26.77 6.16906C27.0012 6.31375 27.1495 6.57038 27.1722 6.84157C27.2009 7.1468 27.1952 7.45324 27.1895 7.75966V7.7597C27.1831 8.10554 27.1766 8.45136 27.2196 8.79538C28.4818 9.12299 29.6748 9.6599 30.8223 10.2714C31.0323 10.0719 31.2351 9.86513 31.4378 9.65845C31.6437 9.44857 31.8495 9.23874 32.0627 9.03654C32.272 8.83451 32.5505 8.67799 32.8508 8.71348C33.1374 8.73077 33.3686 8.92188 33.5661 9.11207C34.8692 10.4189 36.1733 11.7238 37.48 13.027C37.6712 13.2235 37.8623 13.4547 37.8796 13.7413C37.915 14.0417 37.7585 14.321 37.5574 14.5303C37.3563 14.7419 37.1479 14.9462 36.9395 15.1505C36.7311 15.3548 36.5227 15.5591 36.3216 15.7707C36.9286 16.9201 37.4737 18.1095 37.7976 19.3744C38.1351 19.4168 38.4747 19.4101 38.8142 19.4033C39.1522 19.3966 39.4902 19.3899 39.8261 19.4317C40.2811 19.489 40.5932 19.9359 40.5769 20.379C40.585 22.3238 40.5869 24.2694 40.5796 26.2141C40.5932 26.6564 40.2702 27.0923 39.8215 27.1514C39.476 27.1922 39.1281 27.1853 38.7801 27.1785C38.4756 27.1725 38.171 27.1665 37.8677 27.1924C37.7786 27.2475 37.7526 27.3493 37.7271 27.4495C37.715 27.4966 37.7031 27.5433 37.6848 27.5846C37.3781 28.7194 36.8558 29.7759 36.3234 30.8179C36.5087 31.0077 36.6983 31.1934 36.888 31.3792C37.1156 31.6022 37.3434 31.8252 37.5638 32.0555C37.7685 32.2657 37.9241 32.5488 37.885 32.8527C37.8677 33.1403 37.673 33.3705 37.481 33.568C36.1742 34.8702 34.8692 36.1743 33.5661 37.4802C33.3504 37.694 33.081 37.897 32.7598 37.8788C32.4658 37.8824 32.221 37.7004 32.0208 37.5056C31.8457 37.3349 31.6741 37.1609 31.5024 36.9869L31.5021 36.9866C31.2777 36.7592 31.0534 36.5318 30.8214 36.3117C30.6129 36.4037 30.4118 36.5105 30.2107 36.6173C30.0001 36.7291 29.7894 36.841 29.5701 36.936C28.8121 37.2927 28.0167 37.5593 27.2123 37.7896C27.1783 38.1184 27.1841 38.4487 27.19 38.779C27.1963 39.1287 27.2025 39.4784 27.1613 39.8262C27.1022 40.2803 26.6563 40.5933 26.2131 40.577C24.2684 40.5852 22.3236 40.587 20.3789 40.5797C19.9358 40.5943 19.5026 40.2694 19.4416 39.8217C19.4013 39.4746 19.4076 39.1254 19.4138 38.7761C19.4197 38.4467 19.4256 38.1173 19.3925 37.7896C18.5862 37.5584 17.789 37.29 17.0291 36.9323C16.8194 36.8435 16.6186 36.7364 16.4177 36.6293C16.2072 36.517 15.9968 36.4048 15.776 36.3135C15.5767 36.506 15.3825 36.7036 15.1884 36.9012C14.9715 37.1221 14.7545 37.3429 14.5302 37.5566C14.3209 37.7586 14.0415 37.9152 13.7412 37.8797C13.4546 37.8615 13.2234 37.6713 13.0269 37.4802C11.7237 36.1743 10.4197 34.8693 9.11287 33.5671C8.92177 33.3696 8.73066 33.1385 8.71337 32.8518C8.67788 32.5515 8.8335 32.2721 9.03643 32.0628C9.25119 31.8369 9.47366 31.6185 9.69619 31.4C9.89233 31.2074 10.0885 31.0148 10.2795 30.817C10.2022 30.6395 10.1212 30.4639 10.0274 30.2946C9.48962 29.32 9.1065 28.2689 8.80346 27.2006C8.47431 27.1669 8.14387 27.1729 7.81361 27.1789H7.81359H7.81355C7.46539 27.1853 7.11743 27.1916 6.77139 27.1514C6.32275 27.0905 5.99878 26.6573 6.01334 26.2141C6.00606 24.2694 6.00788 22.3238 6.01607 20.38C5.99969 19.9368 6.31274 19.4909 6.76593 19.4317C7.11084 19.3904 7.45765 19.3967 7.80455 19.403H7.80458C8.1377 19.409 8.47089 19.415 8.80256 19.3789C9.03461 18.5763 9.30125 17.78 9.65797 17.0229C9.75328 16.8018 9.86603 16.5891 9.97873 16.3765C10.0845 16.1771 10.1902 15.9778 10.2813 15.7716C10.0729 15.5514 9.85724 15.3388 9.64154 15.1262C9.43998 14.9275 9.23842 14.7288 9.0428 14.524C8.83987 14.3174 8.68334 14.0407 8.71792 13.7413C8.73157 13.4538 8.92177 13.2235 9.11287 13.027C10.4197 11.7238 11.7255 10.4207 13.0278 9.11389C13.2435 8.89913 13.511 8.69255 13.8322 8.7062C14.1535 8.6971 14.4174 8.90368 14.6321 9.11844C14.8128 9.29741 14.9911 9.4788 15.1694 9.66023C15.3701 9.86443 15.5708 10.0687 15.7751 10.2696C16.8171 9.73726 17.8736 9.2149 19.0084 8.90823C19.0501 8.88932 19.0977 8.87722 19.1457 8.86502C19.2456 8.83964 19.3472 8.81381 19.4007 8.72531C19.4265 8.42282 19.4204 8.11895 19.4143 7.81517C19.4073 7.46642 19.4003 7.11779 19.4416 6.7715ZM21.2334 7.83622C21.2287 8.05947 21.2319 8.2831 21.235 8.50673C21.2404 8.88655 21.2457 9.2664 21.2125 9.64443C21.1652 10.0767 20.7639 10.3524 20.3653 10.4298C19.3879 10.6627 18.4288 10.9813 17.5287 11.4299C17.2393 11.556 16.9685 11.717 16.6978 11.878C16.4859 12.0039 16.2741 12.1298 16.0536 12.2389C15.7233 12.4136 15.3001 12.3436 15.0335 12.0869C14.8183 11.8924 14.6152 11.6853 14.4121 11.4782L14.4121 11.4781C14.2209 11.2832 14.0298 11.0883 13.8286 10.9039C12.8458 11.864 11.8711 12.8331 10.9129 13.8178C11.0894 14.0043 11.2724 14.1843 11.4552 14.3642L11.4553 14.3643C11.673 14.5785 11.8906 14.7926 12.0968 15.0172C12.3262 15.2611 12.4172 15.6333 12.2898 15.9482C12.1908 16.1841 12.0583 16.4028 11.9257 16.6216C11.8523 16.7428 11.7788 16.864 11.711 16.9883C11.1377 18.0457 10.7145 19.1815 10.4406 20.3527C10.3642 20.7594 10.0784 21.1644 9.63613 21.2026C9.2704 21.2332 8.90296 21.2284 8.53548 21.2236H8.53547H8.53545H8.53544H8.53542H8.53541H8.53528C8.3021 21.2206 8.0689 21.2175 7.83611 21.2235C7.82974 22.6022 7.82337 23.9809 7.83611 25.3596C8.06582 25.3662 8.29613 25.3621 8.52643 25.358C8.92749 25.3508 9.32851 25.3435 9.72623 25.3933C10.2286 25.487 10.4133 26.0203 10.5025 26.4589C10.7509 27.5127 11.1531 28.5246 11.6509 29.4847C11.7309 29.6346 11.8187 29.7801 11.9065 29.9255L11.9065 29.9256C12.0357 30.1394 12.1648 30.3533 12.2688 30.5813C12.4235 30.9062 12.3416 31.3111 12.0923 31.5668C11.8913 31.7856 11.6795 31.9939 11.4675 32.2023C11.2783 32.3884 11.089 32.5745 10.9074 32.7681C11.8675 33.7518 12.8412 34.7255 13.825 35.6856C14.0411 35.4798 14.251 35.2675 14.461 35.0551L14.4611 35.0551L14.4611 35.055L14.4611 35.055L14.4612 35.055L14.4612 35.0549L14.4613 35.0548L14.4614 35.0548L14.4614 35.0547L14.4615 35.0546L14.4616 35.0546C14.6015 34.913 14.7415 34.7715 14.8833 34.6318C15.0717 34.4471 15.2965 34.2714 15.5704 34.2532C15.8591 34.2104 16.114 34.3607 16.3553 34.503L16.3556 34.5031C16.3963 34.5272 16.4367 34.551 16.4768 34.5736C17.6707 35.3161 18.9966 35.8312 20.3626 36.1515C20.7657 36.2298 21.1752 36.5083 21.2143 36.9487C21.2452 37.3265 21.2401 37.706 21.2351 38.0856C21.2321 38.3095 21.2291 38.5334 21.2334 38.7569C22.6121 38.7697 23.9908 38.7633 25.3695 38.7569C25.3774 38.5215 25.3733 38.2855 25.3691 38.0494C25.3623 37.6587 25.3555 37.268 25.4032 36.8805C25.4841 36.4072 25.9646 36.1943 26.386 36.1124C27.7228 35.7957 29.0105 35.267 30.1799 34.5444L30.2426 34.508C30.4818 34.3688 30.7355 34.221 31.0216 34.2478C31.2983 34.2614 31.5285 34.4361 31.7169 34.6245C31.8557 34.7622 31.993 34.9013 32.1304 35.0404L32.1306 35.0406C32.3435 35.2562 32.5564 35.4718 32.7743 35.682C33.7608 34.7246 34.7327 33.7509 35.6919 32.7663C35.5067 32.5648 35.3115 32.3734 35.1165 32.1821L35.1164 32.182L35.1163 32.1819C34.9087 31.9783 34.7012 31.7749 34.5061 31.5596C34.2504 31.2929 34.1821 30.8689 34.3541 30.5394C34.4646 30.3176 34.5909 30.1042 34.7172 29.8908L34.7172 29.8907L34.7173 29.8906L34.7173 29.8905L34.7174 29.8904C34.8884 29.6014 35.0594 29.3123 35.1913 29.0024C35.6409 28.0988 35.9503 27.1341 36.1851 26.155C36.2652 25.7454 36.6028 25.3842 37.036 25.3705C37.391 25.3508 37.7472 25.3545 38.1033 25.3582H38.1033C38.3213 25.3604 38.5392 25.3627 38.7568 25.3596C38.7696 23.9809 38.7632 22.6022 38.7568 21.2235C38.5193 21.22 38.2818 21.2218 38.0442 21.2236H38.044C37.7374 21.2259 37.4308 21.2282 37.1242 21.219C36.8139 21.2172 36.5009 21.0698 36.3362 20.8004C36.2114 20.5712 36.1495 20.318 36.0878 20.0659C36.0635 19.9667 36.0393 19.8676 36.0113 19.7702C35.6837 18.5417 35.1559 17.3714 34.4843 16.293C34.254 15.9536 34.1503 15.4731 34.4242 15.1255C34.6461 14.8552 34.8972 14.6114 35.1485 14.3675L35.1486 14.3674C35.3312 14.1901 35.5139 14.0127 35.6855 13.8251C34.7245 12.8413 33.7517 11.8685 32.768 10.9075C32.5782 11.0851 32.396 11.2707 32.2138 11.4562L32.2137 11.4563L32.2137 11.4563L32.2137 11.4563L32.2137 11.4563L32.2136 11.4564C32.0019 11.672 31.7902 11.8876 31.5667 12.0906C31.2974 12.3481 30.8697 12.4127 30.5411 12.2334C30.3264 12.1246 30.119 12.0024 29.9116 11.8803L29.9116 11.8802L29.9116 11.8802L29.9115 11.8802L29.9115 11.8802L29.9115 11.8802C29.6162 11.7063 29.321 11.5324 29.005 11.3971C28.1023 10.9476 27.1358 10.6464 26.1585 10.4061C25.7526 10.3251 25.3968 9.98751 25.3822 9.55889C25.3619 9.21207 25.3655 8.86459 25.3691 8.51704V8.51701V8.51698V8.51695V8.51692V8.5169V8.51673C25.3714 8.28986 25.3738 8.06297 25.3695 7.83622C23.9908 7.82894 22.6112 7.82348 21.2334 7.83622ZM2.47253 13.5429C2.17677 13.6257 1.98385 13.8887 1.86645 14.1581C0.679786 16.91 0.0664316 19.8967 0 22.8906V23.6095C0.086452 27.7365 1.2349 31.8471 3.39529 35.3716C3.63793 35.8138 3.93051 36.2233 4.2232 36.6329L4.22322 36.633C4.42559 36.9162 4.62801 37.1995 4.81401 37.4937C4.32169 38.4192 4.20885 39.5731 4.71118 40.5196C5.35001 41.84 7.00352 42.5353 8.39404 42.0675C9.68263 41.6853 10.6136 40.3794 10.5481 39.0353C10.5353 37.6093 9.40052 36.2943 7.98908 36.0832C7.38573 35.9622 6.77784 36.1032 6.20179 36.2779C4.3408 33.83 3.02036 30.9753 2.35058 27.9749C1.38869 23.7051 1.75452 19.135 3.45171 15.0945L3.45704 15.081C3.58318 14.7631 3.72548 14.4045 3.58639 14.0671C3.42714 13.6348 2.90661 13.3936 2.47253 13.5429ZM6.20907 38.9543C6.27642 38.3992 6.74963 37.9224 7.31202 37.8778C8.04095 37.7394 8.76532 38.4001 8.73529 39.1327C8.75622 39.8452 8.07735 40.465 7.37117 40.3922C6.66591 40.3585 6.09259 39.6523 6.20907 38.9543ZM18.9767 16.788C20.8877 15.4967 23.3912 15.1326 25.5898 15.8288C26.0667 15.9881 26.2751 16.5486 26.134 17.0091C25.9711 17.2466 25.7636 17.4996 25.4597 17.5451C25.1968 17.5814 24.9372 17.5236 24.6799 17.4664L24.6799 17.4664C24.6014 17.4489 24.5231 17.4315 24.445 17.4168C22.6732 17.0446 20.7476 17.5615 19.3871 18.7518C18.4461 19.5462 17.7682 20.6428 17.477 21.8386C17.1576 23.1144 17.2695 24.4931 17.7955 25.6989C18.4653 27.2432 19.8148 28.479 21.4183 28.9959C22.8716 29.4755 24.5069 29.3745 25.8874 28.7111C26.974 28.1969 27.8831 27.3351 28.4901 26.2995C29.2636 24.9709 29.5056 23.3338 29.1107 21.845C29.0997 21.7947 29.0876 21.744 29.0754 21.6931C29.0159 21.4445 28.9549 21.1892 29.016 20.9377C29.0751 20.6981 29.2632 20.5321 29.4424 20.3739L29.4428 20.3735L29.4429 20.3735C29.4677 20.3515 29.4924 20.3298 29.5166 20.3079C29.967 20.2078 30.5148 20.3425 30.6978 20.8094C31.5914 23.3419 31.0208 26.3223 29.2545 28.3462C28.1042 29.7421 26.4334 30.6895 24.6525 30.9952C23.0063 31.2864 21.2654 31.0362 19.7739 30.2781C18.023 29.4036 16.6325 27.8429 15.96 26.0056C15.424 24.5486 15.3339 22.9324 15.7061 21.4254C16.1565 19.539 17.3532 17.8472 18.9767 16.788ZM28.7787 17.7262C28.4083 17.3941 27.8322 17.4696 27.4901 17.8027C27.3654 18.0302 27.2535 18.2895 27.3017 18.5552C27.38 18.9866 27.7685 19.357 28.2135 19.3779C28.4392 19.3852 28.6513 19.2896 28.8487 19.1913C29.2783 18.8028 29.2519 18.0666 28.7787 17.7262ZM36.0833 38.6049C36.2945 37.1926 37.6095 36.0578 39.0355 36.0451C40.3805 35.9786 41.6836 36.9114 42.0676 38.1991C42.5354 39.5896 41.841 41.244 40.517 41.8792C39.5705 42.3806 38.4175 42.2769 37.493 41.78C37.1979 41.9644 36.9152 42.1673 36.6325 42.3701C36.2595 42.6377 35.8866 42.9053 35.4855 43.1305C33.6345 44.2707 31.6206 45.1471 29.5248 45.7277C27.6019 46.2782 25.6054 46.5294 23.6088 46.5931H22.8061C22.5164 46.5647 22.2256 46.5501 21.9349 46.5354H21.9348C21.5079 46.5139 21.0813 46.4924 20.6585 46.4275C18.8876 46.2391 17.1431 45.8241 15.4668 45.229C14.8434 45.0169 14.7051 44.1024 15.222 43.7056C15.5806 43.3871 16.0865 43.5191 16.4924 43.6546C19.6766 44.7312 23.1201 45.0197 26.4435 44.5292C29.9989 44.0005 33.417 42.5681 36.2781 40.3913C36.1034 39.8153 35.9623 39.2074 36.0833 38.6049ZM38.7998 37.8988C38.2183 38.0389 37.8106 38.6322 37.8734 39.2247C37.8888 39.9035 38.5477 40.4559 39.2156 40.3922C39.92 40.3622 40.4951 39.6624 40.3859 38.9653C40.3122 38.2273 39.5123 37.6849 38.7998 37.8988ZM13.8169 43.3926C14.0335 42.7392 13.3309 42.0712 12.6867 42.2696C12.0123 42.4179 11.7848 43.3908 12.3317 43.8176C12.7904 44.2789 13.684 44.0396 13.8169 43.3926Z" fill="url(#paint0_linear_614_550)"/>
<defs>
<linearGradient id="paint0_linear_614_550" x1="-2.43314" y1="-2.36916" x2="58.7858" y2="16.8385" gradientUnits="userSpaceOnUse">
<stop offset="0.244792" stop-color="#4E5CA8"/>
<stop offset="1" stop-color="#1FC3F3"/>
</linearGradient>
</defs>
</svg>
