<svg width="45" height="46" viewBox="0 0 45 46" fill="none" xmlns="http://www.w3.org/2000/svg">
<path d="M38.6279 12.3821C41.6668 12.3821 44.1382 9.91081 44.1382 6.87193C44.1382 3.83305 41.6668 1.36173 38.6279 1.36173C35.5891 1.36173 33.1177 3.83305 33.1177 6.87193C33.1177 7.71132 33.3116 8.50479 33.6494 9.21744L21.4371 17.7123C20.4361 16.6911 19.0447 16.0556 17.5055 16.0556C16.9912 16.0556 16.4962 16.1318 16.0233 16.2641L13.3021 10.4728C14.7302 9.47642 15.6688 7.82336 15.6688 5.95356C15.6688 2.91469 13.1974 0.443359 10.1586 0.443359C7.11969 0.443359 4.64836 2.91469 4.64836 5.95356C4.64836 8.99244 7.11969 11.4638 10.1586 11.4638C10.6729 11.4638 11.1679 11.3875 11.6408 11.2553L14.3619 17.0465C12.933 18.043 11.9953 19.696 11.9953 21.5658C11.9953 22.8266 12.4251 23.9857 13.1405 24.9152L8.58816 29.82C7.71938 29.248 6.68255 28.9127 5.56673 28.9127C2.52785 28.9127 0.0565186 31.3841 0.0565186 34.423C0.0565186 37.4618 2.52785 39.9332 5.56673 39.9332C8.60561 39.9332 11.0769 37.4618 11.0769 34.423C11.0769 33.1621 10.6471 32.0031 9.93173 31.0736L14.4841 26.1687C15.3519 26.7408 16.3897 27.076 17.5055 27.076C17.9858 27.076 18.4487 27.0081 18.8932 26.8923L22.7061 35.357C21.2322 36.3469 20.2606 38.0285 20.2606 39.9332C20.2606 42.972 22.732 45.4434 25.7708 45.4434C28.8096 45.4434 31.281 42.972 31.281 39.9332C31.281 36.8943 28.8096 34.423 25.7708 34.423C25.2906 34.423 24.8276 34.4909 24.3831 34.6066L20.5702 26.142C21.1304 25.7654 21.6142 25.2879 22.0036 24.7378L33.3345 30.1516C33.1968 30.6337 33.1177 31.1417 33.1177 31.6678C33.1177 34.7067 35.5891 37.1781 38.6279 37.1781C41.6668 37.1781 44.1382 34.7067 44.1382 31.6678C44.1382 28.629 41.6668 26.1576 38.6279 26.1576C36.7709 26.1576 35.128 27.0842 34.1299 28.4958L22.7989 23.0821C22.9367 22.5999 23.0157 22.092 23.0157 21.5658C23.0157 20.7265 22.8219 19.933 22.484 19.2203L34.6964 10.7254C35.6974 11.7466 37.0887 12.3821 38.6279 12.3821ZM6.4851 5.95356C6.4851 3.92765 8.13265 2.28009 10.1586 2.28009C12.1845 2.28009 13.832 3.92765 13.832 5.95356C13.832 7.97948 12.1845 9.62703 10.1586 9.62703C8.13265 9.62703 6.4851 7.97948 6.4851 5.95356ZM29.4443 39.9332C29.4443 41.9591 27.7968 43.6066 25.7708 43.6066C23.7449 43.6066 22.0973 41.9591 22.0973 39.9332C22.0973 37.9072 23.7449 36.2597 25.7708 36.2597C27.7968 36.2597 29.4443 37.9072 29.4443 39.9332ZM38.6279 27.9944C40.6539 27.9944 42.3014 29.6419 42.3014 31.6678C42.3014 33.6938 40.6539 35.3413 38.6279 35.3413C36.602 35.3413 34.9545 33.6938 34.9545 31.6678C34.9545 29.6419 36.602 27.9944 38.6279 27.9944ZM5.56673 38.0964C3.54081 38.0964 1.89326 36.4489 1.89326 34.423C1.89326 32.397 3.54081 30.7495 5.56673 30.7495C7.59265 30.7495 9.2402 32.397 9.2402 34.423C9.2402 36.4489 7.59265 38.0964 5.56673 38.0964ZM17.5055 25.2393C15.4796 25.2393 13.832 23.5918 13.832 21.5658C13.832 19.5399 15.4796 17.8923 17.5055 17.8923C19.5315 17.8923 21.179 19.5399 21.179 21.5658C21.179 23.5918 19.5315 25.2393 17.5055 25.2393ZM38.6279 3.19846C40.6539 3.19846 42.3014 4.84601 42.3014 6.87193C42.3014 8.89785 40.6539 10.5454 38.6279 10.5454C36.602 10.5454 34.9545 8.89785 34.9545 6.87193C34.9545 4.84601 36.602 3.19846 38.6279 3.19846Z" fill="url(#paint0_linear_807_1588)"/>
<defs>
<linearGradient id="paint0_linear_807_1588" x1="-19.0774" y1="-50.5285" x2="89.6882" y2="22.9246" gradientUnits="userSpaceOnUse">
<stop offset="0.0677083" stop-color="#3D65AF"/>
<stop offset="0.354167" stop-color="#2372B8"/>
<stop offset="0.807292" stop-color="#00B8BB"/>
</linearGradient>
</defs>
</svg>
