<svg width="52" height="61" viewBox="0 0 52 61" fill="none" xmlns="http://www.w3.org/2000/svg">
<path fill-rule="evenodd" clip-rule="evenodd" d="M50.1292 14.8849C50.3325 14.6974 50.6078 14.592 50.895 14.592C51.1823 14.592 51.4576 14.6974 51.6606 14.8849C51.8639 15.0725 51.9779 15.3268 51.9779 15.592V59.5918C51.9779 59.8568 51.8639 60.1113 51.6606 60.2988C51.4576 60.4863 51.1823 60.5918 50.895 60.5918C50.6078 60.5918 50.3325 60.4863 50.1292 60.2988C49.9261 60.1113 49.8122 59.8568 49.8122 59.5918V56.5918H43.3149V59.5918C43.3149 59.8568 43.201 60.1113 42.9977 60.2988C42.7946 60.4863 42.5193 60.5918 42.2321 60.5918C41.9448 60.5918 41.6695 60.4863 41.4662 60.2988C41.2632 60.1113 41.1492 59.8568 41.1492 59.5918V16.592H26.0886C28.8824 19.476 32.4884 26.5041 32.4884 43.5919C32.4884 43.8569 32.3744 44.1114 32.1711 44.2989C31.9681 44.4864 31.6927 44.5919 31.4055 44.5919H30.2577C30.5067 46.1859 29.9631 48.3519 26.591 50.4259C26.4132 50.5344 26.2045 50.5924 25.9911 50.5924C25.7778 50.5924 25.5691 50.5344 25.3912 50.4259C24.7718 50.0459 24.265 49.6619 23.8254 49.2799V49.5919C23.8254 49.8569 23.7114 50.1114 23.5081 50.2989C23.3051 50.4864 23.0298 50.5919 22.7425 50.5919H22.3289L23.7084 53.1438C23.7899 53.2963 23.8281 53.4656 23.8192 53.6353C23.8105 53.8053 23.7553 53.9703 23.6584 54.1151C23.5617 54.2598 23.4266 54.3796 23.2661 54.4631C23.1056 54.5463 22.9244 54.5906 22.7404 54.5918H20.5096C20.7587 56.1858 20.2151 58.3518 16.843 60.4258C16.6651 60.5343 16.4564 60.5923 16.2431 60.5923C16.0298 60.5923 15.8211 60.5343 15.6432 60.4258C12.2711 58.3518 11.7275 56.1878 11.9766 54.5918H9.74585C9.55224 54.5918 9.36208 54.5443 9.19521 54.4536C9.02834 54.3628 8.89087 54.2323 8.79709 54.0761C8.70332 53.9196 8.65667 53.7428 8.66203 53.5641C8.66742 53.3853 8.72457 53.2111 8.82758 53.0598L10.4995 50.5899H9.74585C9.45868 50.5899 9.18325 50.4844 8.98015 50.2969C8.77709 50.1094 8.66298 49.8549 8.66298 49.5899V49.2779C8.22333 49.6599 7.71655 50.0439 7.09715 50.4239C6.91923 50.5324 6.71059 50.5904 6.49724 50.5904C6.28391 50.5904 6.07527 50.5324 5.89732 50.4239C2.52526 48.3519 1.98166 46.1859 2.23072 44.5919H1.08287C0.795694 44.5919 0.520266 44.4864 0.317173 44.2989C0.114107 44.1114 0 43.8569 0 43.5919C0 21.096 6.24601 16.03 8.66298 14.912V12.8041C8.66044 10.4206 9.29644 8.0736 10.5143 5.97219C11.7322 3.87078 13.4942 2.08024 15.6432 0.760171C15.8208 0.650705 16.0295 0.592285 16.2431 0.592285C16.4566 0.592285 16.6654 0.650705 16.843 0.760171C18.992 2.08024 20.7538 3.87078 21.9718 5.97219C23.1897 8.0736 23.8257 10.4206 23.8232 12.8041V14.592H42.2321C42.5193 14.592 42.7946 14.6974 42.9977 14.8849C43.201 15.0725 43.3149 15.3268 43.3149 15.592V18.592H49.8122V15.592C49.8122 15.3268 49.9261 15.0725 50.1292 14.8849ZM16.2431 2.81615C12.8407 5.16612 10.8287 8.85209 10.8287 12.8041V48.5919H21.6575V12.8041C21.6596 10.8649 21.1713 8.95199 20.2313 7.21793C19.2912 5.48387 17.9256 3.97656 16.2431 2.81615ZM8.66298 42.5919V17.388C6.46475 19.236 2.32168 25.04 2.17008 42.5919H8.66298ZM4.41812 44.5919C4.18422 45.4079 4.22537 46.7739 6.49724 48.3679V48.3659C8.29914 47.1039 8.69114 45.9839 8.66298 45.1639V45.0699C8.64999 44.8919 8.6175 44.7359 8.57635 44.5919H4.41812ZM14.164 54.5918C13.9301 55.4078 13.9712 56.7738 16.2431 58.3678V58.3658C18.515 56.7738 18.5561 55.4078 18.3222 54.5918H14.164ZM11.6994 52.5919H20.9883L19.9054 50.5919H13.0529L11.6994 52.5919ZM23.8232 45.1659C23.7951 45.9819 24.1871 47.1019 25.989 48.3659C28.2608 46.7739 28.302 45.4079 28.0681 44.5919H23.9099C23.8646 44.7482 23.8357 44.9084 23.8232 45.0699V45.1659ZM23.8232 17.388V42.5919H30.3161C30.1645 25.04 26.0215 19.236 23.8232 17.388ZM43.3149 32.592V36.592H49.8122V32.592H43.3149ZM49.8122 42.5919V38.592H43.3149V42.5919H49.8122ZM43.3149 26.5921V30.592H49.8122V26.5921H43.3149ZM49.8122 44.5919H43.3149V48.5919H49.8122V44.5919ZM49.8122 24.592V20.592H43.3149V24.592H49.8122ZM43.3149 50.5919V54.5918H49.8122V50.5919H43.3149ZM12.9943 13.5925C12.9943 11.9385 14.4519 10.5925 16.2429 10.5925C18.034 10.5925 19.4916 11.9385 19.4916 13.5925C19.4916 15.2465 18.034 16.5925 16.2429 16.5925C14.4519 16.5925 12.9943 15.2465 12.9943 13.5925ZM15.4776 14.2989C15.6804 14.4866 15.9558 14.5922 16.2429 14.5925C16.5301 14.5928 16.8057 14.4877 17.009 14.3003C17.2122 14.113 17.3266 13.8587 17.3269 13.5935C17.3272 13.3283 17.2134 13.0739 17.0105 12.8861C16.8076 12.6984 16.5323 12.5928 16.2451 12.5925C15.9579 12.5923 15.6824 12.6974 15.4791 12.8847C15.2758 13.0721 15.1614 13.3263 15.1611 13.5915C15.1609 13.8567 15.2747 14.1112 15.4776 14.2989Z" fill="url(#paint0_linear_807_1518)"/>
<defs>
<linearGradient id="paint0_linear_807_1518" x1="-22.5613" y1="-67.3702" x2="115.083" y2="14.835" gradientUnits="userSpaceOnUse">
<stop offset="0.0677083" stop-color="#3D65AF"/>
<stop offset="0.354167" stop-color="#2372B8"/>
<stop offset="0.807292" stop-color="#00B8BB"/>
</linearGradient>
</defs>
</svg>
