<svg width="294" height="312" viewBox="0 -30 294 312" fill="none" xmlns="http://www.w3.org/2000/svg">
<circle opacity="0.3" r="89.3074" transform="matrix(4.37114e-08 -1 -1 -4.37114e-08 138.399 108.344)" stroke="#C4C4C4" stroke-width="22.8" stroke-linecap="round"/>
<g filter="url(#filter0_d)">
<path d="M138.399 19.0365C153.661 19.0365 168.669 22.948 181.99 30.3975C195.311 37.8471 206.5 48.5862 214.49 61.59C222.48 74.5938 227.005 89.4283 227.631 104.678C228.258 119.927 224.966 135.083 218.069 148.698C211.173 162.314 200.902 173.935 188.237 182.452C175.572 190.969 160.936 196.098 145.725 197.35C130.514 198.602 115.236 195.935 101.349 189.604C87.462 183.272 75.4294 173.487 66.3994 161.182" stroke="url(#paint0_linear)" stroke-width="20.8" stroke-linecap="round"/>
</g>
<path d="M110.243 108.344C110.039 108.344 109.869 108.276 109.733 108.14C109.597 107.981 109.529 107.8 109.529 107.596C109.529 107.528 109.552 107.426 109.597 107.29L117.757 88.624H107.115C106.889 88.624 106.696 88.5446 106.537 88.386C106.379 88.2273 106.299 88.0346 106.299 87.808V85.394C106.299 85.1446 106.367 84.9406 106.503 84.782C106.662 84.6233 106.866 84.544 107.115 84.544H122.075C122.325 84.544 122.529 84.6233 122.687 84.782C122.846 84.9406 122.925 85.1446 122.925 85.394V87.536C122.925 88.012 122.812 88.4993 122.585 88.998L114.493 107.528C114.357 107.777 114.21 107.981 114.051 108.14C113.893 108.276 113.677 108.344 113.405 108.344H110.243ZM134.449 108.684C132.431 108.684 130.72 108.367 129.315 107.732C127.932 107.097 126.889 106.304 126.187 105.352C125.507 104.377 125.144 103.38 125.099 102.36C125.099 102.156 125.167 101.986 125.303 101.85C125.439 101.714 125.609 101.646 125.813 101.646H128.941C129.439 101.646 129.779 101.873 129.961 102.326C130.459 103.935 131.955 104.74 134.449 104.74C135.831 104.74 136.908 104.423 137.679 103.788C138.472 103.153 138.869 102.247 138.869 101.068C138.869 99.8893 138.506 99.0393 137.781 98.518C137.078 97.974 136.035 97.702 134.653 97.702H131.151C130.924 97.702 130.731 97.6226 130.573 97.464C130.414 97.3053 130.335 97.1126 130.335 96.886V95.424C130.335 94.9933 130.482 94.6533 130.777 94.404L136.829 88.488H127.139C126.889 88.488 126.685 88.4086 126.527 88.25C126.368 88.0913 126.289 87.8986 126.289 87.672V85.394C126.289 85.1446 126.368 84.9406 126.527 84.782C126.685 84.6233 126.889 84.544 127.139 84.544H141.759C142.008 84.544 142.212 84.6233 142.371 84.782C142.529 84.9406 142.609 85.1446 142.609 85.394V87.468C142.609 87.8533 142.461 88.1706 142.167 88.42L136.319 94.438L136.727 94.472C138.903 94.6533 140.625 95.3106 141.895 96.444C143.187 97.5773 143.833 99.198 143.833 101.306C143.833 102.802 143.425 104.105 142.609 105.216C141.815 106.327 140.705 107.188 139.277 107.8C137.871 108.389 136.262 108.684 134.449 108.684ZM151.818 96.512C150.322 96.512 149.12 96.1153 148.214 95.322C147.33 94.5286 146.842 93.452 146.752 92.092C146.729 91.7066 146.718 91.1966 146.718 90.562C146.718 89.882 146.729 89.338 146.752 88.93C146.842 87.5246 147.318 86.414 148.18 85.598C149.041 84.782 150.254 84.374 151.818 84.374C153.382 84.374 154.594 84.782 155.456 85.598C156.34 86.414 156.827 87.5246 156.918 88.93C156.963 89.746 156.986 90.29 156.986 90.562C156.986 90.8113 156.963 91.3213 156.918 92.092C156.827 93.452 156.328 94.5286 155.422 95.322C154.538 96.1153 153.336 96.512 151.818 96.512ZM149.064 108.344C148.837 108.344 148.656 108.287 148.52 108.174C148.384 108.038 148.316 107.868 148.316 107.664C148.316 107.528 148.361 107.403 148.452 107.29L165.214 85.19C165.395 84.9633 165.565 84.8046 165.724 84.714C165.882 84.6006 166.109 84.544 166.404 84.544H168.206C168.432 84.544 168.602 84.612 168.716 84.748C168.852 84.8613 168.92 85.02 168.92 85.224C168.92 85.36 168.874 85.4846 168.784 85.598L152.022 107.698C151.84 107.925 151.67 108.095 151.512 108.208C151.353 108.299 151.138 108.344 150.866 108.344H149.064ZM151.818 93.962C152.475 93.962 152.951 93.7693 153.246 93.384C153.563 92.9986 153.756 92.5113 153.824 91.922C153.869 91.1513 153.892 90.6753 153.892 90.494C153.892 90.2446 153.869 89.78 153.824 89.1C153.778 88.5106 153.597 88.0233 153.28 87.638C152.962 87.23 152.475 87.026 151.818 87.026C151.183 87.026 150.707 87.23 150.39 87.638C150.072 88.0233 149.891 88.5106 149.846 89.1C149.823 89.44 149.812 89.9046 149.812 90.494C149.812 91.0606 149.823 91.5366 149.846 91.922C149.891 92.4886 150.061 92.976 150.356 93.384C150.673 93.7693 151.16 93.962 151.818 93.962ZM165.418 108.548C163.922 108.548 162.72 108.14 161.814 107.324C160.93 106.485 160.442 105.375 160.352 103.992C160.329 103.607 160.318 103.097 160.318 102.462C160.318 101.805 160.329 101.272 160.352 100.864C160.442 99.4586 160.918 98.348 161.78 97.532C162.641 96.716 163.854 96.308 165.418 96.308C167.004 96.308 168.228 96.716 169.09 97.532C169.951 98.348 170.427 99.4586 170.518 100.864C170.563 101.68 170.586 102.213 170.586 102.462C170.586 102.711 170.563 103.221 170.518 103.992C170.427 105.375 169.928 106.485 169.022 107.324C168.138 108.14 166.936 108.548 165.418 108.548ZM165.418 105.896C166.098 105.896 166.585 105.703 166.88 105.318C167.197 104.91 167.378 104.423 167.424 103.856C167.469 103.085 167.492 102.598 167.492 102.394C167.492 102.167 167.469 101.714 167.424 101.034C167.378 100.445 167.197 99.9573 166.88 99.572C166.562 99.164 166.075 98.96 165.418 98.96C164.783 98.96 164.307 99.164 163.99 99.572C163.672 99.9573 163.491 100.445 163.446 101.034C163.423 101.374 163.412 101.827 163.412 102.394C163.412 102.983 163.423 103.471 163.446 103.856C163.491 104.423 163.661 104.91 163.956 105.318C164.273 105.703 164.76 105.896 165.418 105.896Z" fill="url(#paint1_linear)"/>
<path opacity="0.6" d="M83.0724 136.29C82.9224 136.29 82.7974 136.24 82.6974 136.14C82.5974 136.04 82.5474 135.915 82.5474 135.765L82.5974 135.54L88.5974 119.415C88.7641 118.998 89.0641 118.79 89.4974 118.79H92.2474C92.6807 118.79 92.9807 118.998 93.1474 119.415L99.1474 135.54L99.1974 135.765C99.1974 135.915 99.1391 136.04 99.0224 136.14C98.9224 136.24 98.8057 136.29 98.6724 136.29H96.4474C96.0974 136.29 95.8557 136.132 95.7224 135.815L94.5724 132.79H87.1724L86.0224 135.815C85.8891 136.132 85.6474 136.29 85.2974 136.29H83.0724ZM88.0474 129.89H93.6974L90.8724 122.19L88.0474 129.89ZM106.684 136.54C104.851 136.54 103.384 136.032 102.284 135.015C101.201 133.998 100.626 132.59 100.559 130.79L100.534 129.79L100.559 128.79C100.626 126.99 101.201 125.582 102.284 124.565C103.384 123.548 104.851 123.04 106.684 123.04C108.001 123.04 109.109 123.273 110.009 123.74C110.926 124.207 111.601 124.782 112.034 125.465C112.484 126.132 112.726 126.773 112.759 127.39C112.776 127.557 112.718 127.698 112.584 127.815C112.468 127.932 112.326 127.99 112.159 127.99H109.934C109.751 127.99 109.618 127.957 109.534 127.89C109.451 127.807 109.368 127.665 109.284 127.465C109.034 126.832 108.701 126.373 108.284 126.09C107.884 125.807 107.368 125.665 106.734 125.665C105.884 125.665 105.218 125.932 104.734 126.465C104.268 126.998 104.018 127.815 103.984 128.915L103.959 129.84L103.984 130.665C104.084 132.832 105.001 133.915 106.734 133.915C107.384 133.915 107.909 133.782 108.309 133.515C108.709 133.232 109.034 132.765 109.284 132.115C109.351 131.932 109.426 131.798 109.509 131.715C109.609 131.632 109.751 131.59 109.934 131.59H112.159C112.326 131.59 112.468 131.648 112.584 131.765C112.718 131.882 112.776 132.023 112.759 132.19C112.726 132.773 112.493 133.407 112.059 134.09C111.626 134.757 110.959 135.332 110.059 135.815C109.159 136.298 108.034 136.54 106.684 136.54ZM120.991 136.54C119.158 136.54 117.691 136.032 116.591 135.015C115.508 133.998 114.933 132.59 114.866 130.79L114.841 129.79L114.866 128.79C114.933 126.99 115.508 125.582 116.591 124.565C117.691 123.548 119.158 123.04 120.991 123.04C122.308 123.04 123.416 123.273 124.316 123.74C125.233 124.207 125.908 124.782 126.341 125.465C126.791 126.132 127.033 126.773 127.066 127.39C127.083 127.557 127.024 127.698 126.891 127.815C126.774 127.932 126.633 127.99 126.466 127.99H124.241C124.058 127.99 123.924 127.957 123.841 127.89C123.758 127.807 123.674 127.665 123.591 127.465C123.341 126.832 123.008 126.373 122.591 126.09C122.191 125.807 121.674 125.665 121.041 125.665C120.191 125.665 119.524 125.932 119.041 126.465C118.574 126.998 118.324 127.815 118.291 128.915L118.266 129.84L118.291 130.665C118.391 132.832 119.308 133.915 121.041 133.915C121.691 133.915 122.216 133.782 122.616 133.515C123.016 133.232 123.341 132.765 123.591 132.115C123.658 131.932 123.733 131.798 123.816 131.715C123.916 131.632 124.058 131.59 124.241 131.59H126.466C126.633 131.59 126.774 131.648 126.891 131.765C127.024 131.882 127.083 132.023 127.066 132.19C127.033 132.773 126.799 133.407 126.366 134.09C125.933 134.757 125.266 135.332 124.366 135.815C123.466 136.298 122.341 136.54 120.991 136.54ZM134.498 136.54C132.964 136.54 131.756 136.04 130.873 135.04C129.989 134.04 129.548 132.665 129.548 130.915V123.89C129.548 123.707 129.606 123.565 129.723 123.465C129.839 123.348 129.981 123.29 130.148 123.29H132.398C132.564 123.29 132.706 123.348 132.823 123.465C132.939 123.582 132.998 123.723 132.998 123.89V130.765C132.998 132.815 133.889 133.84 135.673 133.84C136.539 133.84 137.223 133.565 137.723 133.015C138.239 132.465 138.498 131.715 138.498 130.765V123.89C138.498 123.707 138.556 123.565 138.673 123.465C138.789 123.348 138.931 123.29 139.098 123.29H141.323C141.506 123.29 141.648 123.348 141.748 123.465C141.864 123.565 141.923 123.707 141.923 123.89V135.69C141.923 135.857 141.864 135.998 141.748 136.115C141.648 136.232 141.506 136.29 141.323 136.29H139.248C139.081 136.29 138.939 136.232 138.823 136.115C138.706 135.998 138.648 135.857 138.648 135.69V134.665C137.731 135.915 136.348 136.54 134.498 136.54ZM145.824 136.29C145.658 136.29 145.516 136.232 145.399 136.115C145.283 135.998 145.224 135.857 145.224 135.69V123.915C145.224 123.732 145.283 123.582 145.399 123.465C145.516 123.348 145.658 123.29 145.824 123.29H147.874C148.058 123.29 148.208 123.348 148.324 123.465C148.441 123.582 148.499 123.732 148.499 123.915V124.94C149.333 123.84 150.533 123.29 152.099 123.29H153.149C153.333 123.29 153.474 123.348 153.574 123.465C153.691 123.565 153.749 123.707 153.749 123.89V125.715C153.749 125.882 153.691 126.023 153.574 126.14C153.474 126.257 153.333 126.315 153.149 126.315H151.174C150.391 126.315 149.774 126.54 149.324 126.99C148.874 127.44 148.649 128.057 148.649 128.84V135.69C148.649 135.857 148.591 135.998 148.474 136.115C148.358 136.232 148.216 136.29 148.049 136.29H145.824ZM159.278 136.54C158.428 136.54 157.644 136.373 156.928 136.04C156.228 135.69 155.669 135.223 155.253 134.64C154.853 134.057 154.653 133.415 154.653 132.715C154.653 131.582 155.111 130.665 156.028 129.965C156.944 129.265 158.203 128.79 159.803 128.54L163.228 128.04V127.515C163.228 126.798 163.044 126.257 162.678 125.89C162.311 125.523 161.728 125.34 160.928 125.34C160.378 125.34 159.936 125.44 159.603 125.64C159.269 125.84 158.994 126.048 158.778 126.265C158.578 126.465 158.444 126.598 158.378 126.665C158.311 126.865 158.186 126.965 158.003 126.965H156.053C155.903 126.965 155.769 126.915 155.653 126.815C155.553 126.715 155.503 126.582 155.503 126.415C155.519 125.998 155.719 125.532 156.103 125.015C156.503 124.482 157.111 124.023 157.928 123.64C158.744 123.24 159.753 123.04 160.953 123.04C162.919 123.04 164.353 123.482 165.253 124.365C166.153 125.248 166.603 126.407 166.603 127.84V135.69C166.603 135.857 166.544 135.998 166.428 136.115C166.328 136.232 166.186 136.29 166.003 136.29H163.928C163.761 136.29 163.619 136.232 163.503 136.115C163.386 135.998 163.328 135.857 163.328 135.69V134.715C162.961 135.248 162.444 135.69 161.778 136.04C161.111 136.373 160.278 136.54 159.278 136.54ZM160.128 134.14C161.044 134.14 161.794 133.84 162.378 133.24C162.961 132.64 163.253 131.773 163.253 130.64V130.14L160.753 130.54C158.836 130.84 157.878 131.482 157.878 132.465C157.878 132.998 158.094 133.415 158.528 133.715C158.978 133.998 159.511 134.14 160.128 134.14ZM175.587 136.29C174.071 136.29 172.929 135.898 172.162 135.115C171.396 134.315 171.012 133.148 171.012 131.615V125.965H169.037C168.871 125.965 168.729 125.907 168.612 125.79C168.496 125.673 168.437 125.532 168.437 125.365V123.89C168.437 123.723 168.496 123.582 168.612 123.465C168.729 123.348 168.871 123.29 169.037 123.29H171.012V119.14C171.012 118.957 171.071 118.815 171.187 118.715C171.304 118.598 171.446 118.54 171.612 118.54H173.687C173.871 118.54 174.012 118.598 174.112 118.715C174.229 118.815 174.287 118.957 174.287 119.14V123.29H177.412C177.579 123.29 177.721 123.348 177.837 123.465C177.954 123.582 178.012 123.723 178.012 123.89V125.365C178.012 125.532 177.954 125.673 177.837 125.79C177.721 125.907 177.579 125.965 177.412 125.965H174.287V131.34C174.287 132.057 174.412 132.598 174.662 132.965C174.912 133.332 175.321 133.515 175.887 133.515H177.637C177.821 133.515 177.962 133.573 178.062 133.69C178.179 133.79 178.237 133.932 178.237 134.115V135.69C178.237 135.857 178.179 135.998 178.062 136.115C177.962 136.232 177.821 136.29 177.637 136.29H175.587ZM186.079 136.54C184.212 136.54 182.729 136.007 181.629 134.94C180.545 133.873 179.97 132.357 179.904 130.39L179.879 129.765C179.879 127.682 180.42 126.04 181.504 124.84C182.604 123.64 184.121 123.04 186.054 123.04C188.037 123.04 189.562 123.64 190.629 124.84C191.712 126.04 192.254 127.64 192.254 129.64V130.165C192.254 130.332 192.196 130.473 192.079 130.59C191.962 130.707 191.812 130.765 191.629 130.765H183.329V130.965C183.362 131.898 183.612 132.673 184.079 133.29C184.562 133.89 185.221 134.19 186.054 134.19C187.004 134.19 187.779 133.807 188.379 133.04C188.529 132.857 188.646 132.748 188.729 132.715C188.812 132.665 188.954 132.64 189.154 132.64H191.354C191.504 132.64 191.629 132.682 191.729 132.765C191.846 132.848 191.904 132.965 191.904 133.115C191.904 133.515 191.662 133.99 191.179 134.54C190.712 135.073 190.037 135.54 189.154 135.94C188.271 136.34 187.246 136.54 186.079 136.54ZM188.804 128.64V128.59C188.804 127.607 188.554 126.823 188.054 126.24C187.571 125.64 186.904 125.34 186.054 125.34C185.204 125.34 184.537 125.64 184.054 126.24C183.57 126.823 183.329 127.607 183.329 128.59V128.64H188.804Z" fill="black"/>
<path opacity="0.2" d="M95.4798 155.584C95.3865 155.584 95.3071 155.551 95.2418 155.486C95.1765 155.43 95.1438 155.35 95.1438 155.248V145.98C95.1438 145.877 95.1765 145.798 95.2418 145.742C95.3071 145.676 95.3865 145.644 95.4798 145.644H96.5998C96.7025 145.644 96.7865 145.676 96.8518 145.742C96.9171 145.807 96.9498 145.886 96.9498 145.98V146.54C97.4445 145.849 98.1865 145.504 99.1758 145.504C100.118 145.504 100.842 145.802 101.346 146.4C101.85 146.988 102.12 147.781 102.158 148.78C102.167 148.892 102.172 149.06 102.172 149.284C102.172 149.508 102.167 149.676 102.158 149.788C102.13 150.768 101.859 151.561 101.346 152.168C100.842 152.765 100.118 153.064 99.1758 153.064C98.2425 153.064 97.5285 152.732 97.0338 152.07V155.248C97.0338 155.35 97.0011 155.43 96.9358 155.486C96.8798 155.551 96.8005 155.584 96.6978 155.584H95.4798ZM98.6438 151.552C99.6425 151.552 100.174 150.936 100.24 149.704C100.249 149.61 100.254 149.47 100.254 149.284C100.254 149.097 100.249 148.957 100.24 148.864C100.174 147.632 99.6425 147.016 98.6438 147.016C98.1118 147.016 97.7151 147.188 97.4538 147.534C97.1925 147.879 97.0525 148.299 97.0338 148.794C97.0245 148.906 97.0198 149.083 97.0198 149.326C97.0198 149.568 97.0245 149.75 97.0338 149.872C97.0525 150.338 97.1971 150.735 97.4678 151.062C97.7385 151.388 98.1305 151.552 98.6438 151.552ZM106.879 153.064C105.834 153.064 105.003 152.765 104.387 152.168C103.781 151.57 103.459 150.721 103.421 149.62L103.407 149.27C103.407 148.103 103.711 147.184 104.317 146.512C104.933 145.84 105.783 145.504 106.865 145.504C107.976 145.504 108.83 145.84 109.427 146.512C110.034 147.184 110.337 148.08 110.337 149.2V149.494C110.337 149.587 110.305 149.666 110.239 149.732C110.174 149.797 110.09 149.83 109.987 149.83H105.339V149.942C105.358 150.464 105.498 150.898 105.759 151.244C106.03 151.58 106.399 151.748 106.865 151.748C107.397 151.748 107.831 151.533 108.167 151.104C108.251 151.001 108.317 150.94 108.363 150.922C108.41 150.894 108.489 150.88 108.601 150.88H109.833C109.917 150.88 109.987 150.903 110.043 150.95C110.109 150.996 110.141 151.062 110.141 151.146C110.141 151.37 110.006 151.636 109.735 151.944C109.474 152.242 109.096 152.504 108.601 152.728C108.107 152.952 107.533 153.064 106.879 153.064ZM108.405 148.64V148.612C108.405 148.061 108.265 147.622 107.985 147.296C107.715 146.96 107.341 146.792 106.865 146.792C106.389 146.792 106.016 146.96 105.745 147.296C105.475 147.622 105.339 148.061 105.339 148.612V148.64H108.405ZM112.159 152.924C112.066 152.924 111.987 152.891 111.921 152.826C111.856 152.76 111.823 152.681 111.823 152.588V145.994C111.823 145.891 111.856 145.807 111.921 145.742C111.987 145.676 112.066 145.644 112.159 145.644H113.307C113.41 145.644 113.494 145.676 113.559 145.742C113.625 145.807 113.657 145.891 113.657 145.994V146.568C114.124 145.952 114.796 145.644 115.673 145.644H116.261C116.364 145.644 116.443 145.676 116.499 145.742C116.565 145.798 116.597 145.877 116.597 145.98V147.002C116.597 147.095 116.565 147.174 116.499 147.24C116.443 147.305 116.364 147.338 116.261 147.338H115.155C114.717 147.338 114.371 147.464 114.119 147.716C113.867 147.968 113.741 148.313 113.741 148.752V152.588C113.741 152.681 113.709 152.76 113.643 152.826C113.578 152.891 113.499 152.924 113.405 152.924H112.159ZM118.808 152.924C118.715 152.924 118.636 152.891 118.57 152.826C118.505 152.76 118.472 152.681 118.472 152.588V147.142H117.338C117.245 147.142 117.166 147.109 117.1 147.044C117.035 146.978 117.002 146.899 117.002 146.806V145.98C117.002 145.886 117.035 145.807 117.1 145.742C117.166 145.676 117.245 145.644 117.338 145.644H118.472V145.084C118.472 144.234 118.701 143.604 119.158 143.194C119.616 142.774 120.306 142.564 121.23 142.564H122.196C122.29 142.564 122.369 142.596 122.434 142.662C122.5 142.727 122.532 142.806 122.532 142.9V143.726C122.532 143.819 122.5 143.898 122.434 143.964C122.369 144.029 122.29 144.062 122.196 144.062H121.3C120.936 144.062 120.68 144.15 120.53 144.328C120.381 144.505 120.306 144.78 120.306 145.154V145.644H122.056C122.15 145.644 122.229 145.676 122.294 145.742C122.36 145.807 122.392 145.886 122.392 145.98V146.806C122.392 146.899 122.36 146.978 122.294 147.044C122.229 147.109 122.15 147.142 122.056 147.142H120.306V152.588C120.306 152.681 120.274 152.76 120.208 152.826C120.152 152.891 120.073 152.924 119.97 152.924H118.808ZM126.624 153.064C125.522 153.064 124.673 152.784 124.076 152.224C123.478 151.664 123.156 150.889 123.11 149.9L123.096 149.284L123.11 148.668C123.156 147.688 123.483 146.918 124.09 146.358C124.696 145.788 125.541 145.504 126.624 145.504C127.697 145.504 128.537 145.788 129.144 146.358C129.75 146.918 130.077 147.688 130.124 148.668C130.133 148.78 130.138 148.985 130.138 149.284C130.138 149.582 130.133 149.788 130.124 149.9C130.077 150.889 129.755 151.664 129.158 152.224C128.56 152.784 127.716 153.064 126.624 153.064ZM126.624 151.65C127.118 151.65 127.496 151.496 127.758 151.188C128.028 150.88 128.173 150.427 128.192 149.83C128.201 149.736 128.206 149.554 128.206 149.284C128.206 149.013 128.201 148.831 128.192 148.738C128.173 148.14 128.028 147.688 127.758 147.38C127.487 147.062 127.109 146.904 126.624 146.904C126.129 146.904 125.746 147.062 125.476 147.38C125.205 147.688 125.06 148.14 125.042 148.738L125.028 149.284L125.042 149.83C125.06 150.427 125.205 150.88 125.476 151.188C125.746 151.496 126.129 151.65 126.624 151.65ZM132.024 152.924C131.931 152.924 131.852 152.891 131.786 152.826C131.721 152.76 131.688 152.681 131.688 152.588V145.994C131.688 145.891 131.721 145.807 131.786 145.742C131.852 145.676 131.931 145.644 132.024 145.644H133.172C133.275 145.644 133.359 145.676 133.424 145.742C133.49 145.807 133.522 145.891 133.522 145.994V146.568C133.989 145.952 134.661 145.644 135.538 145.644H136.126C136.229 145.644 136.308 145.676 136.364 145.742C136.43 145.798 136.462 145.877 136.462 145.98V147.002C136.462 147.095 136.43 147.174 136.364 147.24C136.308 147.305 136.229 147.338 136.126 147.338H135.02C134.582 147.338 134.236 147.464 133.984 147.716C133.732 147.968 133.606 148.313 133.606 148.752V152.588C133.606 152.681 133.574 152.76 133.508 152.826C133.443 152.891 133.364 152.924 133.27 152.924H132.024ZM137.89 152.924C137.796 152.924 137.717 152.891 137.652 152.826C137.586 152.76 137.554 152.681 137.554 152.588V145.98C137.554 145.877 137.586 145.798 137.652 145.742C137.717 145.676 137.796 145.644 137.89 145.644H138.996C139.098 145.644 139.178 145.676 139.234 145.742C139.299 145.798 139.332 145.877 139.332 145.98V146.456C139.836 145.821 140.512 145.504 141.362 145.504C142.398 145.504 143.121 145.919 143.532 146.75C143.756 146.376 144.073 146.078 144.484 145.854C144.894 145.62 145.338 145.504 145.814 145.504C146.579 145.504 147.204 145.765 147.69 146.288C148.175 146.81 148.418 147.571 148.418 148.57V152.588C148.418 152.681 148.385 152.76 148.32 152.826C148.264 152.891 148.184 152.924 148.082 152.924H146.92C146.826 152.924 146.747 152.891 146.682 152.826C146.616 152.76 146.584 152.681 146.584 152.588V148.682C146.584 148.094 146.458 147.669 146.206 147.408C145.963 147.146 145.641 147.016 145.24 147.016C144.876 147.016 144.563 147.151 144.302 147.422C144.05 147.683 143.924 148.103 143.924 148.682V152.588C143.924 152.681 143.891 152.76 143.826 152.826C143.77 152.891 143.69 152.924 143.588 152.924H142.412C142.318 152.924 142.239 152.891 142.174 152.826C142.108 152.76 142.076 152.681 142.076 152.588V148.682C142.076 148.103 141.95 147.683 141.698 147.422C141.446 147.151 141.124 147.016 140.732 147.016C140.368 147.016 140.055 147.151 139.794 147.422C139.542 147.683 139.416 148.103 139.416 148.682V152.588C139.416 152.681 139.383 152.76 139.318 152.826C139.262 152.891 139.182 152.924 139.08 152.924H137.89ZM152.314 153.064C151.838 153.064 151.399 152.97 150.998 152.784C150.606 152.588 150.293 152.326 150.06 152C149.836 151.673 149.724 151.314 149.724 150.922C149.724 150.287 149.981 149.774 150.494 149.382C151.007 148.99 151.712 148.724 152.608 148.584L154.526 148.304V148.01C154.526 147.608 154.423 147.305 154.218 147.1C154.013 146.894 153.686 146.792 153.238 146.792C152.93 146.792 152.683 146.848 152.496 146.96C152.309 147.072 152.155 147.188 152.034 147.31C151.922 147.422 151.847 147.496 151.81 147.534C151.773 147.646 151.703 147.702 151.6 147.702H150.508C150.424 147.702 150.349 147.674 150.284 147.618C150.228 147.562 150.2 147.487 150.2 147.394C150.209 147.16 150.321 146.899 150.536 146.61C150.76 146.311 151.101 146.054 151.558 145.84C152.015 145.616 152.58 145.504 153.252 145.504C154.353 145.504 155.156 145.751 155.66 146.246C156.164 146.74 156.416 147.389 156.416 148.192V152.588C156.416 152.681 156.383 152.76 156.318 152.826C156.262 152.891 156.183 152.924 156.08 152.924H154.918C154.825 152.924 154.745 152.891 154.68 152.826C154.615 152.76 154.582 152.681 154.582 152.588V152.042C154.377 152.34 154.087 152.588 153.714 152.784C153.341 152.97 152.874 153.064 152.314 153.064ZM152.79 151.72C153.303 151.72 153.723 151.552 154.05 151.216C154.377 150.88 154.54 150.394 154.54 149.76V149.48L153.14 149.704C152.067 149.872 151.53 150.231 151.53 150.782C151.53 151.08 151.651 151.314 151.894 151.482C152.146 151.64 152.445 151.72 152.79 151.72ZM158.548 152.924C158.455 152.924 158.375 152.891 158.31 152.826C158.245 152.76 158.212 152.681 158.212 152.588V145.98C158.212 145.877 158.245 145.798 158.31 145.742C158.375 145.676 158.455 145.644 158.548 145.644H159.71C159.813 145.644 159.892 145.676 159.948 145.742C160.013 145.798 160.046 145.877 160.046 145.98V146.554C160.615 145.854 161.395 145.504 162.384 145.504C163.243 145.504 163.924 145.784 164.428 146.344C164.932 146.904 165.184 147.674 165.184 148.654V152.588C165.184 152.681 165.151 152.76 165.086 152.826C165.03 152.891 164.951 152.924 164.848 152.924H163.588C163.495 152.924 163.415 152.891 163.35 152.826C163.285 152.76 163.252 152.681 163.252 152.588V148.738C163.252 148.196 163.117 147.776 162.846 147.478C162.585 147.17 162.207 147.016 161.712 147.016C161.236 147.016 160.853 147.17 160.564 147.478C160.275 147.786 160.13 148.206 160.13 148.738V152.588C160.13 152.681 160.097 152.76 160.032 152.826C159.976 152.891 159.897 152.924 159.794 152.924H158.548ZM170.112 153.064C169.085 153.064 168.264 152.779 167.648 152.21C167.041 151.64 166.719 150.852 166.682 149.844L166.668 149.284L166.682 148.724C166.719 147.716 167.041 146.927 167.648 146.358C168.264 145.788 169.085 145.504 170.112 145.504C170.849 145.504 171.47 145.634 171.974 145.896C172.487 146.157 172.865 146.479 173.108 146.862C173.36 147.235 173.495 147.594 173.514 147.94C173.523 148.033 173.491 148.112 173.416 148.178C173.351 148.243 173.271 148.276 173.178 148.276H171.932C171.829 148.276 171.755 148.257 171.708 148.22C171.661 148.173 171.615 148.094 171.568 147.982C171.428 147.627 171.241 147.37 171.008 147.212C170.784 147.053 170.495 146.974 170.14 146.974C169.664 146.974 169.291 147.123 169.02 147.422C168.759 147.72 168.619 148.178 168.6 148.794L168.586 149.312L168.6 149.774C168.656 150.987 169.169 151.594 170.14 151.594C170.504 151.594 170.798 151.519 171.022 151.37C171.246 151.211 171.428 150.95 171.568 150.586C171.605 150.483 171.647 150.408 171.694 150.362C171.75 150.315 171.829 150.292 171.932 150.292H173.178C173.271 150.292 173.351 150.324 173.416 150.39C173.491 150.455 173.523 150.534 173.514 150.628C173.495 150.954 173.365 151.309 173.122 151.692C172.879 152.065 172.506 152.387 172.002 152.658C171.498 152.928 170.868 153.064 170.112 153.064ZM178.124 153.064C177.078 153.064 176.248 152.765 175.632 152.168C175.025 151.57 174.703 150.721 174.666 149.62L174.652 149.27C174.652 148.103 174.955 147.184 175.562 146.512C176.178 145.84 177.027 145.504 178.11 145.504C179.22 145.504 180.074 145.84 180.672 146.512C181.278 147.184 181.582 148.08 181.582 149.2V149.494C181.582 149.587 181.549 149.666 181.484 149.732C181.418 149.797 181.334 149.83 181.232 149.83H176.584V149.942C176.602 150.464 176.742 150.898 177.004 151.244C177.274 151.58 177.643 151.748 178.11 151.748C178.642 151.748 179.076 151.533 179.412 151.104C179.496 151.001 179.561 150.94 179.608 150.922C179.654 150.894 179.734 150.88 179.846 150.88H181.078C181.162 150.88 181.232 150.903 181.288 150.95C181.353 150.996 181.386 151.062 181.386 151.146C181.386 151.37 181.25 151.636 180.98 151.944C180.718 152.242 180.34 152.504 179.846 152.728C179.351 152.952 178.777 153.064 178.124 153.064ZM179.65 148.64V148.612C179.65 148.061 179.51 147.622 179.23 147.296C178.959 146.96 178.586 146.792 178.11 146.792C177.634 146.792 177.26 146.96 176.99 147.296C176.719 147.622 176.584 148.061 176.584 148.612V148.64H179.65Z" fill="black"/>
<rect x="132.445" y="13.2023" width="11.9077" height="11.9077" rx="5.95383" fill="white"/>
<defs>

<filter id="filter0_d" x="0.278809" y="0.67654" width="293.548" height="310.855"   filterUnits="userSpaceOnUse" color-interpolation-filters="sRGB">
<feFlood flood-opacity="0" result="BackgroundImageFix"/>
<feColorMatrix in="SourceAlpha" type="matrix" values="0 0 0 0 0 0 0 0 0 0 0 0 0 0 0 0 0 0 127 0" result="hardAlpha"/>
<feOffset dy="47.76"/>
<feGaussianBlur stdDeviation="27.86"/>
<feColorMatrix type="matrix" values="0 0 0 0 0.188235 0 0 0 0 0.72549 0 0 0 0 0.619608 0 0 0 0.15 0"/>
<feBlend mode="normal" in2="BackgroundImageFix" result="effect1_dropShadow"/>
<feBlend mode="normal" in="SourceGraphic" in2="effect1_dropShadow" result="shape"/>
</filter>
<linearGradient id="paint0_linear" x1="238.065" y1="197.651" x2="59.0756" y2="-87.8113" gradientUnits="userSpaceOnUse">
<stop stop-color="#3D65AF"/>
<stop offset="0.187557" stop-color="#2372B8"/>
<stop offset="0.609939" stop-color="#00B8BB"/>
</linearGradient>
<linearGradient id="paint1_linear" x1="105.149" y1="73.7754" x2="183.68" y2="148.26" gradientUnits="userSpaceOnUse">
<stop stop-color="#3D65AF"/>
<stop offset="0.187557" stop-color="#2372B8"/>
<stop offset="0.609939" stop-color="#00B8BB"/>
</linearGradient>
</defs>
</svg>
