<svg width="26" height="25" viewBox="0 0 26 25" fill="none" xmlns="http://www.w3.org/2000/svg">
<path d="M4.98491 0.259766H1.62123C1.32386 0.259766 1.03867 0.377907 0.828399 0.588202C0.618128 0.798497 0.5 1.08372 0.5 1.38112V23.8082C0.5 24.1056 0.618128 24.3908 0.828399 24.6011C1.03867 24.8114 1.32386 24.9296 1.62123 24.9296H4.98491V0.259766Z" fill="url(#paint0_linear_452_2833)"/>
<path d="M7.22742 24.9296H18.4397V0.259766H7.22742V24.9296ZM12.8336 20.4441C12.5362 20.4441 12.251 20.326 12.0407 20.1157C11.8305 19.9054 11.7123 19.6202 11.7123 19.3228C11.7123 19.0254 11.8305 18.7402 12.0407 18.5299C12.251 18.3196 12.5362 18.2014 12.8336 18.2014C13.1309 18.2014 13.4161 18.3196 13.6264 18.5299C13.8367 18.7402 13.9548 19.0254 13.9548 19.3228C13.9548 19.6202 13.8367 19.9054 13.6264 20.1157C13.4161 20.326 13.1309 20.4441 12.8336 20.4441ZM12.8336 4.74518C13.1309 4.74518 13.4161 4.86332 13.6264 5.07362C13.8367 5.28391 13.9548 5.56914 13.9548 5.86654C13.9548 6.16394 13.8367 6.44916 13.6264 6.65945C13.4161 6.86975 13.1309 6.98789 12.8336 6.98789C12.5362 6.98789 12.251 6.86975 12.0407 6.65945C11.8305 6.44916 11.7123 6.16394 11.7123 5.86654C11.7123 5.56914 11.8305 5.28391 12.0407 5.07362C12.251 4.86332 12.5362 4.74518 12.8336 4.74518ZM12.8336 11.4733C13.1309 11.4733 13.4161 11.5914 13.6264 11.8017C13.8367 12.012 13.9548 12.2973 13.9548 12.5947C13.9548 12.8921 13.8367 13.1773 13.6264 13.3876C13.4161 13.5979 13.1309 13.716 12.8336 13.716C12.5362 13.716 12.251 13.5979 12.0407 13.3876C11.8305 13.1773 11.7123 12.8921 11.7123 12.5947C11.7123 12.2973 11.8305 12.012 12.0407 11.8017C12.251 11.5914 12.5362 11.4733 12.8336 11.4733Z" fill="url(#paint1_linear_452_2833)"/>
<path d="M24.0458 0.259766H20.6821V24.9296H24.0458C24.3432 24.9296 24.6284 24.8114 24.8386 24.6011C25.0489 24.3908 25.167 24.1056 25.167 23.8082V1.38112C25.167 1.08372 25.0489 0.798497 24.8386 0.588202C24.6284 0.377907 24.3432 0.259766 24.0458 0.259766Z" fill="url(#paint2_linear_452_2833)"/>
<defs>
<linearGradient id="paint0_linear_452_2833" x1="-1.4467" y1="-27.6839" x2="14.4169" y2="-25.6957" gradientUnits="userSpaceOnUse">
<stop offset="0.0677083" stop-color="#3D65AF"/>
<stop offset="0.354167" stop-color="#2372B8"/>
<stop offset="0.807292" stop-color="#00B8BB"/>
</linearGradient>
<linearGradient id="paint1_linear_452_2833" x1="2.36067" y1="-27.6839" x2="39.0415" y2="-16.1907" gradientUnits="userSpaceOnUse">
<stop offset="0.0677083" stop-color="#3D65AF"/>
<stop offset="0.354167" stop-color="#2372B8"/>
<stop offset="0.807292" stop-color="#00B8BB"/>
</linearGradient>
<linearGradient id="paint2_linear_452_2833" x1="18.7354" y1="-27.6839" x2="34.599" y2="-25.6957" gradientUnits="userSpaceOnUse">
<stop offset="0.0677083" stop-color="#3D65AF"/>
<stop offset="0.354167" stop-color="#2372B8"/>
<stop offset="0.807292" stop-color="#00B8BB"/>
</linearGradient>
</defs>
</svg>
