<svg width="46" height="46" viewBox="0 0 46 46" fill="none" xmlns="http://www.w3.org/2000/svg">
<path fill-rule="evenodd" clip-rule="evenodd" d="M1.25 29.6934H11.75C12.1647 29.6934 12.5 29.3582 12.5 28.9434V16.9434C12.5 16.5286 12.1647 16.1934 11.75 16.1934H1.25C0.83525 16.1934 0.5 16.5286 0.5 16.9434V28.9434C0.5 29.3582 0.83525 29.6934 1.25 29.6934ZM2 17.6934H11V28.1934H2V17.6934ZM1.25 13.9434H11.75C12.1647 13.9434 12.5 13.6081 12.5 13.1934V1.19336C12.5 0.778609 12.1647 0.443359 11.75 0.443359H1.25C0.83525 0.443359 0.5 0.778609 0.5 1.19336V13.1934C0.5 13.6081 0.83525 13.9434 1.25 13.9434ZM2 1.94336H11V12.4434H2V1.94336ZM1.25 45.4434H11.75C12.1647 45.4434 12.5 45.1082 12.5 44.6934V32.6934C12.5 32.2786 12.1647 31.9434 11.75 31.9434H1.25C0.83525 31.9434 0.5 32.2786 0.5 32.6934V44.6934C0.5 45.1082 0.83525 45.4434 1.25 45.4434ZM2 33.4434H11V43.9434H2V33.4434ZM9.5 3.44336H3.5V4.94336H9.5V3.44336ZM3.5 6.44336H9.5V7.94336H3.5V6.44336ZM9.5 9.44336H3.5V10.9434H9.5V9.44336ZM3.5 19.1934H9.5V20.6934H3.5V19.1934ZM9.5 22.1934H3.5V23.6934H9.5V22.1934ZM3.5 25.1934H9.5V26.6934H3.5V25.1934ZM9.5 34.9434H3.5V36.4434H9.5V34.9434ZM3.5 37.9434H9.5V39.4434H3.5V37.9434ZM9.5 40.9434H3.5V42.4434H9.5V40.9434ZM32.75 13.1934H35.75C36.1648 13.1934 36.5 13.5286 36.5 13.9434V17.6934C36.5 18.1081 36.1648 18.4434 35.75 18.4434H32.75C32.3352 18.4434 32 18.1081 32 17.6934V13.9434C32 13.5286 32.3352 13.1934 32.75 13.1934ZM33.5 16.9434H35V14.6934H33.5V16.9434ZM39.5 13.1934H38V18.4434H39.5V13.1934ZM41.75 13.1934H44.75C45.1648 13.1934 45.5 13.5286 45.5 13.9434V17.6934C45.5 18.1081 45.1648 18.4434 44.75 18.4434H41.75C41.3352 18.4434 41 18.1081 41 17.6934V13.9434C41 13.5286 41.3352 13.1934 41.75 13.1934ZM42.5 16.9434H44V14.6934H42.5V16.9434ZM35 19.9434H33.5V25.1934H35V19.9434ZM36.5 24.4434V20.6934C36.5 20.2786 36.8352 19.9434 37.25 19.9434H40.25C40.6648 19.9434 41 20.2786 41 20.6934V24.4434C41 24.8582 40.6648 25.1934 40.25 25.1934H37.25C36.8352 25.1934 36.5 24.8582 36.5 24.4434ZM39.5 21.4434H38V23.6934H39.5V21.4434ZM44 19.9434H42.5V25.1934H44V19.9434ZM32.75 31.9434C32.3352 31.9434 32 31.6082 32 31.1934V27.4434C32 27.0286 32.3352 26.6934 32.75 26.6934H35.75C36.1648 26.6934 36.5 27.0286 36.5 27.4434V31.1934C36.5 31.6082 36.1648 31.9434 35.75 31.9434H32.75ZM35 28.1934H33.5V30.4434H35V28.1934ZM39.5 26.6934H38V31.9434H39.5V26.6934ZM41.75 26.6934H44.75C45.1648 26.6934 45.5 27.0286 45.5 27.4434V31.1934C45.5 31.6082 45.1648 31.9434 44.75 31.9434H41.75C41.3352 31.9434 41 31.6082 41 31.1934V27.4434C41 27.0286 41.3352 26.6934 41.75 26.6934ZM42.5 30.4434H44V28.1934H42.5V30.4434ZM22.0812 20.5006L23.786 15.2131C23.8866 14.9034 24.1746 14.6934 24.5 14.6934H27.9394L26.9698 13.7236L28.0302 12.6631L30.2802 14.9131C30.5736 15.2064 30.5736 15.6804 30.2802 15.9736L28.0302 18.2236L26.9698 17.1631L27.9394 16.1934H25.0468L22.8696 22.9434L25.0468 29.6934H27.9394L26.9698 28.7236L28.0302 27.6632L30.2802 29.9132C30.5736 30.2064 30.5736 30.6804 30.2802 30.9736L28.0302 33.2236L26.9698 32.1632L27.9394 31.1934H24.5C24.1746 31.1934 23.8866 30.9834 23.7852 30.6736L22.0806 25.3862L17.714 38.9236C17.6135 39.2334 17.3255 39.4434 17 39.4434H14V37.9434H16.4532L21.0508 23.6934H14V22.1934H21.0508L16.4532 7.94336H14V6.44336H17C17.3255 6.44336 17.6135 6.65336 17.7147 6.9631L22.0812 20.5006Z" fill="url(#paint0_linear_807_1589)"/>
<defs>
<linearGradient id="paint0_linear_807_1589" x1="-19.0325" y1="-50.5285" x2="90.5539" y2="25.0207" gradientUnits="userSpaceOnUse">
<stop offset="0.0677083" stop-color="#3D65AF"/>
<stop offset="0.354167" stop-color="#2372B8"/>
<stop offset="0.807292" stop-color="#00B8BB"/>
</linearGradient>
</defs>
</svg>
