<svg width="42" height="47" viewBox="0 0 42 47" fill="none" xmlns="http://www.w3.org/2000/svg">
<path fill-rule="evenodd" clip-rule="evenodd" d="M20.7274 0H20.6237C19.5362 0.0382209 18.4642 0.522352 17.7671 1.36594C16.9463 2.31691 16.6696 3.68013 17.0063 4.88499C14.7061 6.2208 12.4022 7.54982 10.0981 8.87893L10.098 8.87898L10.0979 8.87903L10.0979 8.87909L10.0978 8.87914L10.0977 8.8792L10.0976 8.87925C8.92349 9.55653 7.74938 10.2338 6.57568 10.9121C5.9423 10.286 5.10599 9.85735 4.21508 9.76817C3.13944 9.65169 2.01829 10.0193 1.22748 10.7583C0.456693 11.4699 -0.00195712 12.5092 0.00350301 13.5584C-0.00377716 14.7605 0.598657 15.9481 1.57966 16.6443C1.97097 16.9473 2.43599 17.1302 2.90374 17.2777C2.91347 17.4258 2.90727 17.5826 2.90099 17.7414C2.88378 18.1767 2.86597 18.627 3.17402 18.9557C3.57807 19.3962 4.39071 19.2615 4.62459 18.71C4.74295 18.3906 4.73316 18.0507 4.72341 17.7124C4.71922 17.5669 4.71503 17.4217 4.72105 17.2786C5.77304 16.9846 6.72128 16.283 7.2045 15.2902C7.65496 14.4357 7.71957 13.4201 7.48115 12.4928L8.75776 11.7553L8.75883 11.7547L8.7599 11.7541L8.76097 11.7534L8.76204 11.7528L8.76311 11.7522L8.76418 11.7516C11.8163 9.98845 14.8679 8.22557 17.9209 6.46479C18.5652 7.09453 19.4061 7.53953 20.3124 7.61142C21.4618 7.73973 22.6248 7.27835 23.4329 6.46479C26.4898 8.22732 29.5452 9.99195 32.6011 11.7568L33.8754 12.4928C33.576 13.6103 33.7662 14.857 34.4578 15.7934C34.9729 16.5369 35.7773 17.0265 36.6346 17.2786L36.6348 18.1308C36.6351 19.1256 36.6354 20.1209 36.6319 21.1161C36.6319 21.4265 36.6582 21.7741 36.8912 22.007C37.2297 22.3792 37.8822 22.372 38.2117 21.9888C38.4346 21.7577 38.4537 21.4183 38.4574 21.1134C38.4546 20.3462 38.4548 19.5786 38.4551 18.8111C38.4552 18.2996 38.4554 17.7881 38.4546 17.2768C39.3838 17.021 40.231 16.4404 40.747 15.6196C41.2748 14.806 41.4713 13.7859 41.2839 12.8349C41.0946 11.8539 40.5058 10.953 39.6731 10.3979C38.7886 9.80093 37.6474 9.59435 36.6127 9.86281C35.9175 10.033 35.2896 10.4152 34.7809 10.9121C33.3706 10.0997 31.9615 9.28556 30.5525 8.47144L30.5518 8.47104C28.4869 7.27798 26.4222 6.08496 24.3539 4.89773C24.6196 3.87669 24.4958 2.74917 23.9352 1.84643C23.2746 0.730747 22.0178 0.0327608 20.7274 0ZM18.6917 3.6319C18.7563 2.78558 19.4279 2.03845 20.256 1.86918C20.7374 1.76999 21.257 1.84188 21.6811 2.09578C22.3136 2.45615 22.7167 3.18507 22.6712 3.914C22.6512 4.62746 22.2007 5.30087 21.5601 5.61028C20.9158 5.93789 20.0959 5.86873 19.5144 5.44011C18.9438 5.04061 18.6153 4.32533 18.6917 3.6319ZM1.85176 13.1917C1.98553 12.4382 2.59069 11.7884 3.34146 11.6228C4.03217 11.4544 4.80386 11.6829 5.28345 12.2098C5.72572 12.6821 5.9059 13.381 5.75575 14.0107C5.60741 14.6705 5.10053 15.2383 4.45624 15.4485C3.8265 15.6697 3.08938 15.5423 2.57158 15.1209C1.99827 14.6768 1.7107 13.9024 1.85176 13.1917ZM35.5835 13.1953C35.7182 12.3708 36.4335 11.6938 37.2589 11.5828C37.885 11.4899 38.5511 11.7165 38.9852 12.1788C39.4256 12.6347 39.6286 13.3072 39.5039 13.9297C39.3892 14.5704 38.9369 15.1337 38.3391 15.3903C37.743 15.6551 37.0195 15.5978 36.4717 15.2438C35.7974 14.8242 35.4252 13.9752 35.5835 13.1953ZM19.8519 10.7819C16.7178 10.9675 13.6847 12.409 11.5461 14.7059C9.49586 16.8608 8.26005 19.7729 8.14903 22.7468C8.0007 25.425 8.7815 28.1323 10.2894 30.3464L10.2879 30.3499C10.1601 30.6582 10.03 30.972 10.0118 31.3092C9.8899 32.3093 10.4851 33.3276 11.3942 33.7472C12.3815 34.2331 13.6692 33.941 14.3481 33.0738C15.1617 32.1119 15.0406 30.5339 14.0815 29.714C13.4526 29.1252 12.518 28.9568 11.699 29.1807C10.7763 27.7683 10.1811 26.1412 10.0091 24.4613C9.76796 22.2099 10.2503 19.8839 11.3933 17.9274C12.4971 16.02 14.2016 14.4629 16.2082 13.5456C18.0501 12.6938 20.1386 12.3899 22.1479 12.6711C22.2613 12.6871 22.3744 12.7074 22.4876 12.7277C22.767 12.7779 23.0469 12.8282 23.3318 12.8139C23.6931 12.7748 23.9652 12.4818 24.0799 12.1515C24.1863 11.6928 23.9079 11.1768 23.4428 11.0594C22.268 10.7973 21.054 10.6963 19.8519 10.7819ZM12.0985 32.06C11.6981 31.8252 11.7336 31.1673 12.154 30.9734C12.5635 30.7359 13.1259 31.1054 13.0713 31.5749C13.0641 32.04 12.4744 32.3303 12.0985 32.06ZM27.0072 13.5248C27.6833 12.6594 28.9655 12.3646 29.9538 12.8432C30.8684 13.2591 31.469 14.2811 31.348 15.2848C31.3289 15.6242 31.1996 15.94 31.0695 16.2485C32.349 18.1386 33.1098 20.3782 33.2153 22.6596C33.3127 24.8 32.8795 26.9713 31.9094 28.8851C30.346 32.0565 27.3775 34.5026 23.9568 35.4072C21.9939 35.9487 19.8981 35.9805 17.9133 35.5364C17.4474 35.4181 17.1616 34.9021 17.2772 34.4408C17.3964 34.0804 17.7222 33.7719 18.1172 33.7774C18.4156 33.7853 18.7096 33.8363 19.0038 33.8873C19.3186 33.9419 19.6336 33.9966 19.9545 33.9985C23.1341 34.2433 26.3792 32.9474 28.5333 30.5996C30.2632 28.7549 31.3043 26.2788 31.3962 23.7507C31.5109 21.5239 30.8802 19.2753 29.6599 17.4124C28.7362 17.68 27.666 17.4033 27.0508 16.6489C26.291 15.7935 26.2773 14.403 27.0072 13.5248ZM28.6261 14.5022C28.2057 14.6951 28.172 15.3558 28.5715 15.5897C28.951 15.859 29.5398 15.5642 29.5461 15.0964C29.5907 14.6305 29.0329 14.2665 28.6261 14.5022ZM24.4657 16.8771C23.0533 16.0317 21.3552 15.6914 19.7254 15.9025C18.1684 16.1 16.6814 16.808 15.5475 17.8936C14.1688 19.194 13.3134 21.0368 13.2342 22.9324C13.1405 24.6605 13.681 26.4132 14.7321 27.7874C15.7067 29.0841 17.1155 30.0488 18.6798 30.4801C20.4116 30.9679 22.3217 30.7986 23.9361 30.0033C25.4285 29.278 26.6625 28.0431 27.3869 26.5506C28.1813 24.9354 28.3497 23.0261 27.8619 21.2953C27.355 19.4579 26.1092 17.8399 24.4657 16.8771ZM16.5121 19.5025C17.3694 18.5579 18.556 17.9182 19.8173 17.7262C20.9749 17.5487 22.1879 17.7353 23.2308 18.2713C24.4439 18.8828 25.4149 19.9493 25.9163 21.2115C26.5069 22.673 26.4414 24.3848 25.7325 25.7935C25.201 26.8755 24.3119 27.7764 23.2363 28.3197C22.1497 28.8839 20.8748 29.0614 19.6726 28.8448C18.2757 28.5945 16.9853 27.7919 16.1472 26.6471C15.3755 25.6124 14.9806 24.3056 15.0506 23.017C15.107 21.7221 15.6394 20.459 16.5121 19.5025ZM17.535 21.8832C18.0811 20.6419 19.4161 19.7856 20.7765 19.8602C21.2862 19.8911 21.652 20.4153 21.5728 20.9067C21.4836 21.3708 21.0468 21.6693 20.5873 21.6657C19.8192 21.7021 19.133 22.3336 19.0584 23.1026C18.951 23.8634 19.4625 24.6423 20.1969 24.858C20.9085 25.0919 21.7448 24.757 22.1024 24.0991C22.2349 23.887 22.2711 23.6456 22.3072 23.4036C22.3302 23.2501 22.3532 23.0963 22.4009 22.9497C22.5047 22.6585 22.784 22.4819 23.0698 22.4037C23.5667 22.3209 24.0908 22.6985 24.12 23.2127C24.1764 24.4512 23.4729 25.677 22.3973 26.2849C21.5337 26.7927 20.4417 26.8828 19.5025 26.5379C18.7053 26.2476 18.0192 25.6543 17.6279 24.8999C17.1355 23.9789 17.1037 22.8314 17.535 21.8832ZM4.69446 21.8314C4.84916 21.1871 4.13571 20.5747 3.52144 20.8176C2.87351 21.0078 2.7006 21.9506 3.2366 22.3592C3.72347 22.8006 4.61074 22.4902 4.69446 21.8314ZM37.2695 23.6241C37.8929 23.3911 38.5973 24.03 38.4198 24.6743C38.3088 25.3267 37.4088 25.6134 36.9401 25.1457C36.425 24.7216 36.6271 23.7988 37.2695 23.6241ZM4.34871 24.4258C3.92828 24.0937 3.23848 24.2538 3.01098 24.7398C2.88875 25.0211 2.8941 25.3291 2.8994 25.6333C2.90116 25.7346 2.90291 25.8354 2.89996 25.9346C2.89688 26.3563 2.89907 26.7782 2.90127 27.2C2.90492 27.8996 2.90856 28.5992 2.88813 29.2981C2.7581 29.3603 2.6229 29.4121 2.48764 29.464C2.24706 29.5563 2.00631 29.6486 1.79428 29.7995C0.858779 30.3846 0.194463 31.3866 0.0433994 32.4813C-0.120404 33.5106 0.188093 34.5889 0.823288 35.408C1.6141 36.4181 2.94091 36.9723 4.21585 36.8294C5.10949 36.7466 5.94125 36.3061 6.57553 35.681C7.6725 36.3146 8.76984 36.9475 9.86716 37.5805C12.2481 38.9539 14.6291 40.3273 17.0062 41.7071C16.6886 42.8537 16.917 44.1423 17.6523 45.0833C18.3448 46.0106 19.476 46.5566 20.6272 46.593H20.7318C21.8384 46.5557 22.9295 46.0534 23.6248 45.1834C24.4201 44.2342 24.6795 42.8938 24.351 41.7062C26.7211 40.3317 29.0945 38.9623 31.4682 37.5928C32.5724 36.9557 33.6767 36.3186 34.7807 35.681C35.415 36.3052 36.245 36.7457 37.1386 36.8294C38.4963 36.9841 39.9132 36.3416 40.6804 35.2077C41.089 34.5908 41.3447 33.8618 41.3538 33.1183C41.3875 31.8707 40.7641 30.6231 39.7331 29.916C39.3527 29.6302 38.9049 29.4555 38.4545 29.3144C38.4501 29.1228 38.4529 28.9308 38.4558 28.7388C38.4606 28.4111 38.4654 28.0833 38.4345 27.7574C38.4044 27.3342 38.0331 26.973 37.6109 26.9511C37.1595 26.9047 36.7145 27.2551 36.6608 27.7073C36.6225 28.0475 36.6279 28.3894 36.6333 28.7316C36.6363 28.9259 36.6394 29.1203 36.6344 29.3144C35.6025 29.6038 34.6706 30.2836 34.1783 31.2482C33.7014 32.1155 33.6323 33.1547 33.8689 34.1048C32.1294 35.1081 30.3903 36.1123 28.6513 37.1165C26.9122 38.1207 25.1732 39.1249 23.4337 40.1282C22.7721 39.4757 21.8948 39.0289 20.9593 38.9734C19.8355 38.8742 18.7125 39.3365 17.9235 40.1282C16.1834 39.1253 14.4443 38.1211 12.7051 37.1168C10.9662 36.1127 9.22724 35.1085 7.48737 34.1057C7.77221 33.0046 7.60477 31.7815 6.93408 30.8506C6.41992 30.0816 5.59999 29.5711 4.72182 29.3144C4.72091 28.6442 4.72136 27.974 4.72182 27.3038C4.72227 26.6335 4.72273 25.9633 4.72182 25.2931C4.72364 24.97 4.629 24.6178 4.34871 24.4258ZM1.83523 32.7634C1.92987 31.9653 2.5587 31.2755 3.34132 31.0981C3.88278 30.9716 4.48157 31.0662 4.94022 31.3866C5.47714 31.7497 5.81293 32.3876 5.80929 33.0355C5.80929 33.6844 5.47532 34.325 4.93294 34.6845C4.32687 35.1058 3.48419 35.145 2.84353 34.7764C2.13645 34.3978 1.71329 33.5579 1.83523 32.7634ZM35.5488 32.9445C35.577 32.0727 36.2404 31.2646 37.0995 31.0908C37.9167 30.8961 38.8385 31.2774 39.258 32.0108C39.7449 32.7935 39.5811 33.8973 38.8904 34.5061C38.3125 35.043 37.408 35.1886 36.6981 34.8401C35.9774 34.518 35.5078 33.7308 35.5488 32.9445ZM18.6916 42.5844C18.7534 41.7344 19.4314 40.9882 20.2622 40.8189C20.8265 40.697 21.4398 40.8353 21.8948 41.1911C22.4063 41.577 22.7102 42.2222 22.6711 42.8638C22.6501 43.5526 22.2306 44.2088 21.6218 44.53C20.9894 44.8795 20.164 44.8394 19.5688 44.4299C18.9673 44.0359 18.6133 43.2997 18.6916 42.5844Z" fill="url(#paint0_linear_614_543)"/>
<defs>
<linearGradient id="paint0_linear_614_543" x1="-2.15961" y1="-2.36916" x2="53.2306" y2="13.0561" gradientUnits="userSpaceOnUse">
<stop offset="0.244792" stop-color="#4E5CA8"/>
<stop offset="1" stop-color="#1FC3F3"/>
</linearGradient>
</defs>
</svg>
