<svg width="54" height="33" viewBox="0 0 54 33" fill="none" xmlns="http://www.w3.org/2000/svg">
<path fill-rule="evenodd" clip-rule="evenodd" d="M43.9194 32.3289C42.8947 32.4534 41.8432 31.8194 41.4311 30.8531C41.19 30.3152 41.1968 29.7195 41.2033 29.1357C41.2048 29.0051 41.2063 28.8751 41.205 28.7465C38.3384 28.7454 35.4728 28.7454 32.6073 28.7465C31.8529 28.757 31.0645 28.756 30.3718 28.4068C29.8281 28.1515 29.3923 27.7211 28.9781 27.2897C28.1128 26.4002 27.2466 25.5119 26.3803 24.6235C25.3407 23.5575 24.3011 22.4914 23.2634 21.4235C22.3815 22.3275 21.4997 23.2315 20.6199 24.1366L20.6121 24.1447C20.1839 24.5894 19.7438 25.0465 19.1809 25.3086C18.629 25.5913 18.0051 25.6673 17.3956 25.6641C16.3336 25.6641 15.2716 25.664 14.2096 25.664C11.0233 25.6638 7.83668 25.6636 4.65068 25.6652C3.9271 25.6768 3.17987 25.5766 2.54468 25.2C1.48809 24.625 0.79945 23.4573 0.74292 22.2368V22.106C0.762448 21.1165 1.16432 20.1354 1.89202 19.4772C2.54571 18.8453 3.45019 18.5447 4.33822 18.551C6.60881 18.5486 8.87906 18.5489 11.1494 18.5493C12.8521 18.5495 14.5549 18.5498 16.2578 18.5489C16.622 18.179 16.9842 17.8068 17.3465 17.4345C17.6846 17.0871 18.0229 16.7396 18.3628 16.3938C18.0107 16.0356 17.6605 15.6756 17.3103 15.3157C16.9601 14.9557 16.6098 14.5957 16.2578 14.2376C15.5891 14.2376 14.9206 14.2378 14.2523 14.2381C13.5842 14.2384 12.9163 14.2386 12.2483 14.2386C11.9338 14.2418 11.5915 14.1816 11.3695 13.9306C10.9964 13.5498 11.0334 12.8514 11.4507 12.5202C11.7073 12.2875 12.0627 12.2853 12.3884 12.2833C12.4096 12.2832 12.4308 12.283 12.4518 12.2828C13.113 12.2879 13.7741 12.2869 14.4353 12.2859C15.1494 12.2848 15.8634 12.2837 16.5775 12.2902C16.9002 12.2797 17.1983 12.4337 17.4182 12.6689C17.8962 13.1555 18.3721 13.6442 18.848 14.1328C19.1336 14.426 19.4191 14.7191 19.7051 15.0118C20.0922 14.6173 20.4776 14.2213 20.8631 13.8253C21.2135 13.4652 21.564 13.1051 21.9159 12.7459C21.4681 12.2833 21.0188 11.8223 20.5696 11.3614C20.0858 10.865 19.6021 10.3686 19.1203 9.87032C18.7533 9.45258 18.2836 9.06333 17.7039 9.08126C14.4968 9.07291 11.2897 9.0744 8.08261 9.07589C6.83516 9.07646 5.58772 9.07704 4.34028 9.07704C3.51186 9.0359 2.6896 9.71314 2.65466 10.5834C2.57654 11.4379 3.28574 12.2533 4.12032 12.2755C5.06613 12.2912 6.01266 12.2885 6.9595 12.2858C7.59722 12.284 8.23509 12.2822 8.87295 12.286C9.16999 12.286 9.48758 12.3535 9.69828 12.5856C10.0632 12.9453 10.056 13.6088 9.67978 13.958C9.41666 14.2376 9.01581 14.2428 8.6643 14.2407C8.00603 14.2356 7.34796 14.237 6.68992 14.2384C5.84683 14.2402 5.00378 14.242 4.16041 14.2302C3.18501 14.2133 2.22503 13.765 1.59498 12.997C1.03585 12.3567 0.759365 11.498 0.74292 10.6446V10.5402C0.802533 9.52959 1.26813 8.54327 2.05441 7.92088C2.71941 7.36496 3.58483 7.11601 4.43586 7.1255C6.90559 7.12309 9.37499 7.12343 11.8444 7.12378C13.6965 7.12403 15.5485 7.12429 17.4007 7.12339C18.0339 7.11917 18.6824 7.20884 19.2508 7.5137C19.7717 7.77341 20.1822 8.19836 20.586 8.61634C20.6316 8.66354 20.6771 8.71064 20.7226 8.75741C21.031 9.07312 21.3389 9.38952 21.6469 9.70596C22.1859 10.2597 22.7249 10.8136 23.2665 11.364C24.3735 10.219 25.4856 9.07898 26.5976 7.93907C27.3389 7.17917 28.0802 6.41933 28.8198 5.65815C28.8429 5.63417 28.8661 5.61013 28.8893 5.58606C29.3149 5.14437 29.7491 4.6937 30.2998 4.4176C30.8507 4.12434 31.4787 4.03995 32.0934 4.041C35.1306 4.04206 38.1667 4.04206 41.2039 4.041C41.2057 3.90866 41.2044 3.77481 41.203 3.64033C41.1973 3.06093 41.1915 2.4697 41.4301 1.93545C41.8268 1.00714 42.8135 0.382648 43.8012 0.448052C44.3295 0.46493 44.8126 0.712829 45.2535 0.992375C45.8227 1.35914 46.3931 1.72416 46.9634 2.08912C47.2788 2.29099 47.5942 2.49285 47.9094 2.69497C48.1756 2.8648 48.4367 3.10215 48.4901 3.4355C48.6083 3.95978 48.2178 4.51992 47.6997 4.58322C47.4181 4.63385 47.1488 4.50305 46.9145 4.35853C46.5439 4.12297 46.1745 3.88514 45.8051 3.64728C45.2001 3.25773 44.5949 2.86809 43.9842 2.48821C43.6625 2.24453 43.1414 2.48821 43.1198 2.89961C43.0947 3.25909 43.1 3.61957 43.1053 3.97995C43.1108 4.35774 43.1164 4.73542 43.0869 5.11171C43.055 5.63494 42.5617 6.02314 42.0642 5.98938C40.1569 5.99472 38.2492 5.99406 36.3416 5.99339C34.858 5.99287 33.3743 5.99235 31.8909 5.99466C31.4376 5.98306 30.9957 6.17399 30.6832 6.50944C28.4716 8.77719 26.2608 11.0463 24.0499 13.3153C21.8396 15.5839 19.6293 17.8524 17.4182 20.1196C17.1787 20.3876 16.8334 20.5215 16.4819 20.5015H4.34028C3.85001 20.4825 3.34638 20.6692 3.02878 21.0616C2.58785 21.5659 2.52515 22.3708 2.88695 22.9372C3.19529 23.4341 3.7647 23.7252 4.33514 23.7105C6.45896 23.7131 8.58304 23.7126 10.7071 23.712C12.8315 23.7115 14.9559 23.711 17.0801 23.7136C17.1526 23.7127 17.2258 23.7132 17.2992 23.7137C17.6432 23.7159 17.9933 23.7182 18.3134 23.5765C18.6133 23.4432 18.8429 23.2035 19.0694 22.9669C19.1209 22.9132 19.1722 22.8596 19.2241 22.8075C20.8581 21.1286 22.4937 19.4508 24.1294 17.7731C25.356 16.5149 26.5826 15.2567 27.8084 13.9981C28.0787 13.6996 28.497 13.5012 28.8907 13.6531C29.4539 13.824 29.7294 14.5899 29.3851 15.0867C29.1631 15.3876 28.8987 15.6495 28.6341 15.9116C28.4747 16.0694 28.3153 16.2272 28.1651 16.3938C29.354 17.617 30.5445 18.8382 31.7351 20.0595C32.2458 20.5833 32.7565 21.1072 33.2671 21.6313C33.4423 21.6365 33.6182 21.6336 33.7941 21.6307C34.1177 21.6253 34.4417 21.6199 34.7626 21.665C35.2755 21.741 35.6352 22.3117 35.5057 22.8244C35.4225 23.2695 34.998 23.5818 34.5663 23.5797C33.9815 23.5913 33.3956 23.6029 32.8118 23.5712C32.5168 23.5607 32.2732 23.3718 32.0718 23.1693C31.7807 22.8703 31.4896 22.5714 31.1985 22.2725C29.7384 20.7729 28.2786 19.2735 26.8166 17.7757C26.4479 18.1535 26.0798 18.5316 25.7118 18.9095C25.3441 19.2871 24.9766 19.6646 24.6088 20.0416C25.628 21.0915 26.6495 22.1393 27.671 23.1871C28.5563 24.0953 29.4417 25.0035 30.3255 25.9131C30.368 25.9561 30.4101 26 30.4524 26.044C30.6816 26.2827 30.9148 26.5256 31.2177 26.661C31.5356 26.8038 31.8821 26.7996 32.2242 26.7954C32.3168 26.7943 32.4091 26.7932 32.5004 26.795C33.5628 26.7953 34.6253 26.7948 35.6878 26.7944C37.8131 26.7934 39.9387 26.7925 42.0642 26.7981C42.5596 26.7654 43.055 27.1494 43.0859 27.6726C43.1158 28.0531 43.1104 28.4347 43.105 28.8165C43.1 29.1682 43.0951 29.5199 43.1177 29.871C43.1301 30.293 43.6625 30.5493 43.9904 30.2961C46.0352 28.9959 48.0755 27.685 50.1152 26.3744C50.4602 26.1527 50.8052 25.9311 51.1501 25.7095C51.4872 25.5396 51.5746 25.0143 51.2745 24.7675C51.0756 24.6058 50.8588 24.4721 50.6418 24.3383C50.519 24.2626 50.3961 24.1869 50.2765 24.106C49.4865 23.6008 48.6972 23.0941 47.9078 22.5873C46.6074 21.7524 45.3068 20.9175 44.0027 20.089C43.6728 19.8274 43.1198 20.0859 43.1167 20.5184C43.0951 20.862 43.1002 21.2067 43.1052 21.5515C43.111 21.9455 43.1168 22.3394 43.0828 22.7315C43.0437 23.2453 42.5514 23.6092 42.0673 23.5828C41.3349 23.589 40.6023 23.588 39.8696 23.587C39.2286 23.5861 38.5876 23.5852 37.9468 23.5891C37.6086 23.5913 37.2294 23.5617 36.9848 23.2896C36.6045 22.9225 36.6312 22.2326 37.0279 21.8876C37.2725 21.6492 37.6282 21.6302 37.9468 21.6292C39.0328 21.6334 40.1178 21.6323 41.2028 21.6313H41.2039C41.2037 21.5411 41.2027 21.4499 41.2017 21.358C41.193 20.5915 41.1838 19.78 41.6418 19.1375C42.3387 18.0573 43.8732 17.7029 44.9452 18.398C46.5794 19.4274 48.2054 20.472 49.8312 21.5164C50.5879 22.0025 51.3445 22.4886 52.1019 22.9731C52.8522 23.4267 53.3435 24.2664 53.3671 25.162V25.2137C53.3435 26.0882 52.8799 26.9173 52.1502 27.3709C50.8441 28.2153 49.5335 29.0536 48.2227 29.892C47.4849 30.3639 46.7471 30.8358 46.01 31.3088C45.8644 31.397 45.7201 31.4922 45.5752 31.5878C45.0613 31.9268 44.5392 32.2713 43.9194 32.3289ZM44.0161 14.7263C42.9616 14.8951 41.8433 14.2569 41.425 13.2495C41.1912 12.7192 41.1972 12.1336 41.203 11.5593C41.2044 11.4242 41.2058 11.2896 41.204 11.1566C38.5584 11.1555 35.9128 11.1555 33.2672 11.1566C32.8016 11.6323 32.337 12.1092 31.8745 12.5881C31.6535 12.8138 31.3997 13.0501 31.0718 13.0702C30.5723 13.1261 30.0892 12.702 30.0563 12.1893C30.0162 11.8507 30.2002 11.5427 30.4243 11.3117C30.6504 11.0762 30.8787 10.8431 31.107 10.61C31.3788 10.3326 31.6506 10.0551 31.9187 9.77362C32.2363 9.37171 32.7101 9.13014 33.222 9.19871C34.5981 9.20265 35.974 9.20176 37.3498 9.20088C38.9221 9.19986 40.4942 9.19885 42.0663 9.20504C42.5525 9.17761 43.0448 9.54471 43.0828 10.0595C43.117 10.4401 43.1108 10.8224 43.1046 11.2046C43.0984 11.5819 43.0923 11.9592 43.125 12.3349C43.1774 12.7347 43.6944 12.9446 44.0048 12.6988C46.3945 11.1745 48.7821 9.64387 51.1656 8.10901C51.4996 7.93284 51.5675 7.39907 51.2602 7.16277C51.0268 6.97786 50.7733 6.82277 50.5199 6.66779C50.2196 6.48414 49.9196 6.30064 49.6537 6.0678C49.1809 5.64057 49.333 4.75446 49.9096 4.50445C50.2734 4.31035 50.6918 4.45276 51.0073 4.67745C51.1777 4.79414 51.3534 4.90364 51.5292 5.0132C51.9049 5.24735 52.281 5.48178 52.6066 5.7872C53.0876 6.24186 53.3302 6.90538 53.3672 7.56574V7.64169C53.3363 8.50354 52.879 9.31791 52.1646 9.77152C50.911 10.5833 49.6527 11.388 48.3944 12.1927C47.3717 12.8468 46.3489 13.5009 45.3286 14.1588C44.9237 14.4141 44.4961 14.6673 44.0161 14.7263Z" fill="url(#paint0_linear_482_1251)"/>
<defs>
<linearGradient id="paint0_linear_482_1251" x1="-22.0989" y1="-35.6913" x2="60.3411" y2="58.0632" gradientUnits="userSpaceOnUse">
<stop offset="0.0677083" stop-color="#3D65AF"/>
<stop offset="0.354167" stop-color="#2372B8"/>
<stop offset="0.807292" stop-color="#00B8BB"/>
</linearGradient>
</defs>
</svg>
