<svg width="61" height="61" viewBox="0 0 61 61" fill="none" xmlns="http://www.w3.org/2000/svg">
<path fill-rule="evenodd" clip-rule="evenodd" d="M55.8889 29.8835C56.196 28.8579 57.1372 28.1036 58.2612 28.1036C59.6335 28.1036 60.75 29.2201 60.75 30.5924C60.75 31.9643 59.6335 33.0809 58.2612 33.0809C57.1372 33.0809 56.196 32.3265 55.8889 31.3009H43.5991V34.6384H51.9959C52.3031 33.6128 53.2439 32.8584 54.3683 32.8584C55.7405 32.8584 56.8568 33.975 56.8568 35.3472C56.8568 36.7192 55.7405 37.8347 54.3683 37.8347C53.2439 37.8347 52.3031 37.0811 51.9959 36.0558H43.5991V38.5711H51.5225C51.9138 38.5711 52.2313 38.8886 52.2313 39.2799V41.4257C53.2585 41.7318 54.0139 42.6737 54.0139 43.7994C54.0139 45.1716 52.8983 46.2879 51.5264 46.2879C50.1542 46.2879 49.0376 45.1716 49.0376 43.7994C49.0376 42.6763 49.7901 41.7365 50.8139 41.428V39.9885H43.5991V41.8108C43.5991 42.7226 42.8573 43.4644 41.9455 43.4644H40.1461V50.6561H41.5859C41.8943 49.6325 42.8341 48.88 43.9572 48.88C45.3291 48.88 46.4457 49.9963 46.4457 51.3686C46.4457 52.7408 45.3291 53.8563 43.9572 53.8563C42.8315 53.8563 41.8896 53.1007 41.5835 52.0735H39.4375C39.0462 52.0735 38.7289 51.756 38.7289 51.3649V43.4644H36.2134V51.8381C37.2387 52.1457 37.9925 53.0872 37.9925 54.2115C37.9925 55.5837 36.877 56.6992 35.5048 56.6992C34.1328 56.6992 33.0163 55.5837 33.0163 54.2115C33.0163 53.0872 33.7706 52.1457 34.7962 51.8381V43.4644H31.4585V55.731C32.4839 56.0384 33.2377 56.9793 33.2377 58.1037C33.2377 59.4756 32.1221 60.5922 30.7499 60.5922C29.378 60.5922 28.2614 59.4756 28.2614 58.1037C28.2614 56.9793 29.0157 56.0384 30.0413 55.731V43.4644H26.7037V51.8381C27.729 52.1457 28.4828 53.0872 28.4828 54.2115C28.4828 55.5837 27.3673 56.6992 25.9951 56.6992C24.623 56.6992 23.5065 55.5837 23.5065 54.2115C23.5065 53.0872 24.2609 52.1457 25.2864 51.8381V43.4644H22.7711V51.3649C22.7711 51.756 22.4537 52.0735 22.0624 52.0735H19.9163C19.61 53.1007 18.6675 53.8563 17.5419 53.8563C16.1698 53.8563 15.0542 52.7408 15.0542 51.3686C15.0542 49.9963 16.1698 48.88 17.5419 48.88C18.6648 48.88 19.6055 49.6325 19.9141 50.6561H21.3537V43.4644H19.5092C18.5975 43.4644 17.8556 42.7226 17.8556 41.8108V39.9885H10.6851V41.4278C11.709 41.7359 12.4613 42.6761 12.4613 43.7994C12.4613 45.1716 11.3458 46.2879 9.97365 46.2879C8.60155 46.2879 7.48503 45.1716 7.48503 43.7994C7.48503 42.674 8.24076 41.7323 9.26776 41.426V39.2799C9.26776 38.8886 9.58518 38.5711 9.97643 38.5711H17.8556V36.0558H9.50398C9.19648 37.0811 8.25495 37.8347 7.13071 37.8347C5.75859 37.8347 4.64207 36.7192 4.64207 35.3472C4.64207 33.975 5.75859 32.8584 7.13071 32.8584C8.25495 32.8584 9.19654 33.6128 9.50403 34.6384H17.8556V31.3009H5.61103C5.30353 32.3265 4.36194 33.0809 3.23768 33.0809C1.86558 33.0809 0.75 31.9643 0.75 30.5924C0.75 29.2201 1.86558 28.1036 3.23768 28.1036C4.36194 28.1036 5.30353 28.8579 5.61103 29.8835H17.8556V26.5461H9.50403C9.19654 27.5717 8.25495 28.326 7.13071 28.326C5.75859 28.326 4.64207 27.2095 4.64207 25.8375C4.64207 24.4653 5.75859 23.3497 7.13071 23.3497C8.25495 23.3497 9.19648 24.1034 9.50398 25.1287H17.8556V22.6134H9.97643C9.58518 22.6134 9.26776 22.2959 9.26776 21.9047V19.7584C8.24076 19.4518 7.48503 18.5095 7.48503 17.3842C7.48503 16.0121 8.60155 14.8965 9.97365 14.8965C11.3458 14.8965 12.4613 16.0121 12.4613 17.3842C12.4613 18.5074 11.709 19.4482 10.6851 19.7566V21.196H17.8556V19.3736C17.8556 18.462 18.5975 17.7201 19.5092 17.7201H21.3537V10.5274H19.9144C19.6061 11.5515 18.6652 12.3046 17.5419 12.3046C16.1698 12.3046 15.0542 11.188 15.0542 9.81595C15.0542 8.44383 16.1698 7.32825 17.5419 7.32825C18.6671 7.32825 19.6094 8.0834 19.9161 9.11006H22.0624C22.4537 9.11006 22.7711 9.42748 22.7711 9.8187V17.7201H25.2864V9.34634C24.2609 9.03884 23.5065 8.09722 23.5065 6.97299C23.5065 5.60089 24.623 4.48531 25.9951 4.48531C27.3673 4.48531 28.4828 5.60089 28.4828 6.97299C28.4828 8.09722 27.729 9.03876 26.7037 9.34628V17.7201H30.0413V5.45335C29.0157 5.14609 28.2614 4.20515 28.2614 3.08089C28.2614 1.70879 29.378 0.592285 30.7499 0.592285C32.1221 0.592285 33.2377 1.70879 33.2377 3.08092C33.2377 4.20515 32.4839 5.14604 31.4585 5.45338V17.7201H34.7962V9.34634C33.7706 9.03884 33.0163 8.09725 33.0163 6.97302C33.0163 5.60089 34.1328 4.48531 35.5048 4.48531C36.877 4.48531 37.9925 5.60089 37.9925 6.97302C37.9925 8.09725 37.2387 9.03879 36.2134 9.34628V17.7201H38.7289V9.81873C38.7289 9.42748 39.0462 9.11006 39.4375 9.11006H41.5838C41.8901 8.0834 42.8318 7.32827 43.9572 7.32827C45.3291 7.32827 46.4457 8.44385 46.4457 9.81595C46.4457 11.1881 45.3291 12.3046 43.9572 12.3046C42.8339 12.3046 41.8938 11.5515 41.5853 10.5274H40.1461V17.7201H41.9455C42.8573 17.7201 43.5991 18.462 43.5991 19.3736V21.196H50.8139V19.7564C49.7901 19.4478 49.0376 18.5071 49.0376 17.3842C49.0376 16.0121 50.1542 14.8965 51.5264 14.8965C52.8983 14.8965 54.0139 16.0121 54.0139 17.3842C54.0139 18.5098 53.2585 19.4523 52.2313 19.7587V21.9047C52.2313 22.2959 51.9138 22.6134 51.5225 22.6134H43.5991V25.1287H51.9959C52.3031 24.1034 53.2439 23.3497 54.3683 23.3497C55.7405 23.3497 56.8568 24.4653 56.8568 25.8375C56.8568 27.2095 55.7405 28.326 54.3683 28.326C53.2439 28.326 52.3031 27.5717 51.9959 26.5461H43.5991V29.8835H55.8889ZM55.4396 25.8375C55.4396 25.2468 54.9589 24.767 54.3683 24.767C53.7777 24.767 53.298 25.2469 53.298 25.8375C53.298 26.438 53.7686 26.9086 54.3683 26.9086C54.9589 26.9086 55.4396 26.4279 55.4396 25.8375ZM51.5264 16.3138C50.9358 16.3138 50.4551 16.7937 50.4551 17.3842C50.4551 17.9849 50.9256 18.4555 51.5264 18.4555C52.1167 18.4555 52.5967 17.9748 52.5967 17.3842C52.5967 16.7937 52.1167 16.3138 51.5264 16.3138ZM45.0283 9.81595C45.0283 9.22541 44.5475 8.74558 43.9572 8.74558C43.3666 8.74558 42.8866 9.22541 42.8866 9.81595C42.8866 10.4167 43.3572 10.8873 43.9572 10.8873C44.5475 10.8873 45.0283 10.4065 45.0283 9.81595ZM35.5048 5.90262C34.9142 5.90262 34.4334 6.38245 34.4334 6.97299C34.4334 7.57369 34.904 8.04429 35.5048 8.04429C36.0954 8.04429 36.5751 7.56356 36.5751 6.97299C36.5751 6.38245 36.0954 5.90262 35.5048 5.90262ZM30.7499 2.0096C30.1593 2.0096 29.6786 2.49035 29.6786 3.08089C29.6786 3.68069 30.1492 4.15126 30.7499 4.15126C31.3405 4.15126 31.8202 3.67146 31.8202 3.08089C31.8202 2.49035 31.3405 2.0096 30.7499 2.0096ZM25.9951 5.90262C25.4046 5.90262 24.9238 6.38245 24.9238 6.97299C24.9238 7.56356 25.4046 8.04429 25.9951 8.04429C26.5948 8.04429 27.0654 7.57369 27.0654 6.97299C27.0654 6.38245 26.5857 5.90262 25.9951 5.90262ZM16.4715 9.81595C16.4715 10.4065 16.9514 10.8873 17.5419 10.8873C18.1426 10.8873 18.6132 10.4167 18.6132 9.81595C18.6132 9.22541 18.1325 8.74558 17.5419 8.74558C16.9514 8.74558 16.4715 9.22541 16.4715 9.81595ZM9.97367 16.3138C9.3831 16.3138 8.90237 16.7937 8.90237 17.3842C8.90237 17.9748 9.3831 18.4555 9.97367 18.4555C10.5734 18.4555 11.044 17.9849 11.044 17.3842C11.044 16.7937 10.5642 16.3138 9.97367 16.3138ZM6.05941 25.8375C6.05941 26.4279 6.54017 26.9086 7.13071 26.9086C7.73142 26.9086 8.20202 26.438 8.20202 25.8375C8.20202 25.2468 7.72126 24.767 7.13071 24.767C6.54017 24.767 6.05941 25.2468 6.05941 25.8375ZM2.16731 30.5924C2.16731 31.1827 2.64714 31.6634 3.23768 31.6634C3.82825 31.6634 4.30898 31.1827 4.30898 30.5924C4.30898 29.9916 3.83838 29.521 3.23768 29.521C2.64714 29.521 2.16731 30.0017 2.16731 30.5924ZM6.05941 35.3472C6.05941 35.9376 6.54017 36.4175 7.13071 36.4175C7.72126 36.4175 8.20202 35.9376 8.20202 35.3472C8.20202 34.7465 7.73142 34.2759 7.13071 34.2759C6.54017 34.2759 6.05941 34.7566 6.05941 35.3472ZM9.97367 44.8707C10.5642 44.8707 11.044 44.39 11.044 43.7994C11.044 43.1996 10.5734 42.7291 9.97367 42.7291C9.3831 42.7291 8.90237 43.2087 8.90237 43.7994C8.90237 44.39 9.3831 44.8707 9.97367 44.8707ZM16.4715 51.3686C16.4715 51.9592 16.9514 52.4388 17.5419 52.4388C18.1325 52.4388 18.6132 51.9592 18.6132 51.3686C18.6132 50.7678 18.1426 50.2972 17.5419 50.2972C16.9514 50.2972 16.4715 50.7779 16.4715 51.3686ZM25.9951 55.2818C26.5857 55.2818 27.0654 54.8021 27.0654 54.2115C27.0654 53.6107 26.5948 53.1402 25.9951 53.1402C25.4046 53.1402 24.9238 53.6209 24.9238 54.2115C24.9238 54.8021 25.4046 55.2818 25.9951 55.2818ZM30.7499 59.175C31.3405 59.175 31.8202 58.694 31.8202 58.1037C31.8202 57.513 31.3405 57.0331 30.7499 57.0331C30.1492 57.0331 29.6786 57.5037 29.6786 58.1037C29.6786 58.694 30.1593 59.175 30.7499 59.175ZM35.5048 55.2818C36.0954 55.2818 36.5751 54.8021 36.5751 54.2115C36.5751 53.6209 36.0954 53.1402 35.5048 53.1402C34.904 53.1402 34.4334 53.6107 34.4334 54.2115C34.4334 54.8021 34.9142 55.2818 35.5048 55.2818ZM45.0283 51.3686C45.0283 50.7779 44.5475 50.2972 43.9572 50.2972C43.3572 50.2972 42.8866 50.7678 42.8866 51.3686C42.8866 51.9592 43.3666 52.4388 43.9572 52.4388C44.5475 52.4388 45.0283 51.9592 45.0283 51.3686ZM51.5264 44.8707C52.1167 44.8707 52.5967 44.39 52.5967 43.7994C52.5967 43.2087 52.1167 42.7291 51.5264 42.7291C50.9256 42.7291 50.4551 43.1996 50.4551 43.7994C50.4551 44.39 50.9358 44.8707 51.5264 44.8707ZM55.4396 35.3472C55.4396 34.7566 54.9589 34.2759 54.3683 34.2759C53.7686 34.2759 53.298 34.7465 53.298 35.3472C53.298 35.9376 53.7777 36.4175 54.3683 36.4175C54.9589 36.4175 55.4396 35.9376 55.4396 35.3472ZM41.9455 42.047C42.0757 42.047 42.1817 41.941 42.1817 41.8108V19.3736C42.1817 19.2435 42.0757 19.1374 41.9455 19.1374H19.5092C19.3791 19.1374 19.273 19.2435 19.273 19.3736V41.8108C19.273 41.941 19.3791 42.047 19.5092 42.047H41.9455ZM57.1909 30.5924C57.1909 31.1827 57.6709 31.6634 58.2612 31.6634C58.8519 31.6634 59.3326 31.1827 59.3326 30.5924C59.3326 30.0017 58.8519 29.521 58.2612 29.521C57.6615 29.521 57.1909 29.9916 57.1909 30.5924ZM32.4718 26.9655C34.3993 26.3972 36.4386 27.5021 37.0136 29.4135C39.3189 28.8951 41.487 30.6449 41.487 32.9798C41.487 34.997 39.8456 36.6376 37.8285 36.6376H23.6256C21.6085 36.6376 19.9679 34.997 19.9679 32.9798C19.9679 31.1601 21.3031 29.6468 23.0453 29.3683C23.185 26.7472 25.3355 24.5849 28.0768 24.5516H28.0779C29.9113 24.5516 31.552 25.4797 32.4718 26.9655ZM23.6257 35.2202H37.8285C39.064 35.2202 40.0696 34.2153 40.0696 32.9798C40.0696 31.7442 39.064 30.7394 37.8285 30.7394C37.3685 30.7394 37.0839 30.8621 36.8552 30.9606C36.5918 31.0741 36.4025 31.1557 36.1047 30.9811C35.8934 30.8595 35.7596 30.6371 35.7513 30.3933C35.6887 28.7166 33.9085 27.7403 32.47 28.4871C32.2967 28.5765 32.0945 28.5913 31.91 28.5266C31.7263 28.4622 31.5769 28.3247 31.4974 28.1465C30.4284 25.7513 27.2893 25.2448 25.5007 27.079C24.8151 27.783 24.4441 28.7122 24.4561 29.6967C24.4561 29.7991 24.4626 29.8942 24.469 29.9864C24.4838 30.1922 24.4072 30.3944 24.2596 30.5391C24.1129 30.6841 23.9191 30.7589 23.7032 30.7405H23.7013C22.3892 30.7405 21.3853 31.7453 21.3853 32.9798C21.3853 34.2153 22.3901 35.2202 23.6257 35.2202Z" fill="url(#paint0_linear_807_1513)"/>
<defs>
<linearGradient id="paint0_linear_807_1513" x1="-25.2933" y1="-67.3701" x2="120.822" y2="33.3623" gradientUnits="userSpaceOnUse">
<stop offset="0.0677083" stop-color="#3D65AF"/>
<stop offset="0.354167" stop-color="#2372B8"/>
<stop offset="0.807292" stop-color="#00B8BB"/>
</linearGradient>
</defs>
</svg>
