<svg width="46" height="46" viewBox="0 0 46 46" fill="none" xmlns="http://www.w3.org/2000/svg">
<path fill-rule="evenodd" clip-rule="evenodd" d="M5.54102 8.17773C9.90039 3.25586 16.0879 0.443359 22.5566 0.443359C34.9316 0.443359 45.0566 10.5684 45.0566 22.9434C45.0566 35.3184 34.9316 45.4434 22.5566 45.4434C10.1816 45.4434 0.0566406 35.3184 0.0566406 22.9434H2.86914C2.86914 33.7715 11.7285 42.6309 22.5566 42.6309C33.3848 42.6309 42.2441 33.7715 42.2441 22.9434C42.2441 12.1152 33.3848 3.25586 22.5566 3.25586C16.791 3.25586 11.3066 5.78711 7.50977 10.1465L9.61914 12.2559L2.58789 13.2402L3.57227 6.20898L5.54102 8.17773ZM15.2441 24.3496H11.3066V21.5371H15.2441C15.3848 20.5527 15.8066 19.5684 16.3691 18.7246L13.5566 15.9121L15.5254 13.9434L18.3379 16.7559C19.1816 16.1934 20.166 15.7715 21.1504 15.6309V11.6934H23.9629V15.6309C24.9473 15.7715 25.9316 16.1934 26.7754 16.7559L29.5879 13.9434L31.5566 15.9121L28.7441 18.7246C29.3066 19.5684 29.7285 20.5527 29.8691 21.5371H33.8066V24.3496H29.8691C29.7285 25.334 29.3066 26.3184 28.7441 27.1621L31.5566 29.9746L29.5879 31.9434L26.7754 29.1309C25.9316 29.6934 24.9473 30.1152 23.9629 30.2559V34.1934H21.1504V30.2559C20.166 30.1152 19.1816 29.6934 18.3379 29.1309L15.5254 31.9434L13.5566 29.9746L16.3691 27.1621C15.8066 26.3184 15.3848 25.334 15.2441 24.3496ZM27.1973 22.9434C27.1973 20.4121 25.0879 18.3027 22.5566 18.3027C20.0254 18.3027 17.916 20.4121 17.916 22.9434C17.916 25.4746 20.0254 27.584 22.5566 27.584C25.0879 27.584 27.1973 25.4746 27.1973 22.9434Z" fill="url(#paint0_linear_807_1593)"/>
<defs>
<linearGradient id="paint0_linear_807_1593" x1="-19.4759" y1="-50.5285" x2="90.1105" y2="25.0207" gradientUnits="userSpaceOnUse">
<stop offset="0.0677083" stop-color="#3D65AF"/>
<stop offset="0.354167" stop-color="#2372B8"/>
<stop offset="0.807292" stop-color="#00B8BB"/>
</linearGradient>
</defs>
</svg>
