<svg width="60" height="71" viewBox="0 0 60 71" fill="none" xmlns="http://www.w3.org/2000/svg">
<path d="M50.6043 19.8236C51.4114 14.9779 50.8879 11.0442 49.1173 8.38243C50.0312 8.14884 50.8306 7.59517 51.3707 6.82205C52.6198 5.02772 52.1756 2.55133 50.3814 1.30224C48.587 0.0531405 46.1107 0.495281 44.8606 2.2906C44.3162 3.07815 44.0783 4.0374 44.1915 4.98806C38.4078 3.65966 30.0171 7.86595 22.4651 16.1982C9.3694 17.8795 0.25 23.7661 0.25 30.5916C0.25 34.7008 3.57003 38.5956 9.37633 41.3587C8.56839 46.2102 9.09381 50.146 10.8683 52.8075C9.95345 53.0375 9.15189 53.589 8.61001 54.3612C8.01057 55.2246 7.77809 56.2907 7.96357 57.3254C8.14902 58.3601 8.73732 59.2793 9.59937 59.881C10.0268 60.1787 10.5086 60.3891 11.0174 60.5004C11.5261 60.6119 12.0519 60.622 12.5645 60.5303C13.0772 60.4385 13.5668 60.2466 14.0053 59.9656C14.4438 59.6846 14.8226 59.32 15.1202 58.8925C15.6639 58.105 15.9019 57.1465 15.7893 56.1961C16.4932 56.3576 17.2258 56.4589 18.002 56.4589C23.5982 56.4589 30.8855 52.305 37.5196 44.986C50.6133 43.3025 59.7307 37.416 59.7307 30.5916C59.7307 26.4835 56.4117 22.5894 50.6043 19.8236ZM36.5282 43.1082C31.8861 43.6287 27.1982 43.5901 22.5652 42.9932L28.6183 34.3003C29.0556 34.4637 29.5145 34.557 29.9835 34.557C30.2185 34.557 30.4564 34.5361 30.6922 34.4936C31.2051 34.4029 31.6947 34.2112 32.1325 33.9297C32.5705 33.6479 32.948 33.282 33.243 32.8529C33.7482 32.1349 33.9975 31.2684 33.9507 30.392C33.9042 29.5154 33.5645 28.6803 32.9861 28.0199L39.5996 18.5229C42.7827 19.0761 45.7784 19.9207 48.3519 20.9914C47.1933 26.3724 44.4601 32.3591 40.5679 37.9564C39.3177 39.7469 37.969 41.4671 36.5282 43.1082ZM13.3704 52.7282C11.3035 50.6842 10.5471 46.9409 11.2529 42.1615C13.6391 43.1251 16.281 43.8865 19.1451 44.4358L13.3704 52.7282ZM23.4485 18.0798C25.6205 17.833 27.8044 17.7076 29.9904 17.704C32.5044 17.704 34.9918 17.8736 37.4136 18.1928L31.3595 26.8869C30.6996 26.6352 29.984 26.567 29.2885 26.6897C28.7762 26.7801 28.2868 26.9715 27.8491 27.2528C27.4113 27.534 27.0338 27.8996 26.7388 28.3282C26.2325 29.0462 25.9824 29.9133 26.0287 30.7904C26.075 31.6673 26.4147 32.5035 26.9936 33.1641L20.3803 42.6612C17.197 42.1089 14.2022 41.2635 11.6277 40.1929C12.7866 34.8118 15.5197 28.8249 19.4117 23.2278C20.6613 21.4387 22.009 19.72 23.4485 18.0798ZM46.6103 8.45478C48.6771 10.4989 49.4337 14.2423 48.7279 19.0205C46.3407 18.057 43.6987 17.2956 40.8357 16.7474L46.6103 8.45478ZM28.8581 32.2145C28.6443 32.067 28.4618 31.8788 28.3212 31.6604C28.1808 31.4423 28.0849 31.1981 28.0394 30.9424C27.9926 30.686 27.9974 30.4227 28.0537 30.1681C28.1097 29.9133 28.2163 29.6724 28.3664 29.4594C28.5478 29.1958 28.7904 28.9806 29.0738 28.8323C29.3572 28.684 29.6726 28.6073 29.9922 28.6089C30.3927 28.6089 30.7834 28.7318 31.1224 28.9677C31.5567 29.2682 31.8472 29.7203 31.9413 30.2398C31.9881 30.4951 31.9836 30.7576 31.9279 31.0114C31.8723 31.2652 31.7666 31.5052 31.6172 31.7178L31.6143 31.7218C31.4668 31.9356 31.2786 32.118 31.0602 32.2587C30.8421 32.3993 30.5979 32.495 30.3422 32.5405C30.0858 32.5881 29.8222 32.5838 29.5671 32.5278C29.3123 32.4717 29.0712 32.3652 28.8581 32.2145ZM46.4882 3.42372C46.6368 3.2098 46.8263 3.02726 47.0455 2.88662C47.2646 2.74598 47.5094 2.64999 47.7659 2.60413C48.0223 2.55826 48.2851 2.56344 48.5396 2.61938C48.794 2.67529 49.0348 2.78085 49.2481 2.93003C49.5701 3.15413 49.8181 3.46863 49.9614 3.83377C50.1044 4.1989 50.1358 4.59824 50.052 4.98132C49.968 5.36438 49.7723 5.71396 49.4897 5.98586C49.2071 6.25775 48.8503 6.43971 48.4643 6.50876C48.0783 6.57781 47.6805 6.53086 47.3212 6.37378C46.9617 6.21672 46.6571 5.95665 46.4457 5.62641C46.2342 5.2962 46.1253 4.91066 46.1329 4.51859C46.1406 4.12652 46.2643 3.7455 46.4882 3.42372ZM41.951 6.69614C43.0682 6.69614 44.0902 6.89837 44.9874 7.31672L38.6846 16.3687C34.4258 15.7293 29.9251 15.5687 25.4799 15.8978C31.2463 10.0647 37.3948 6.69614 41.951 6.69614ZM2.23269 30.5916C2.23269 25.2442 9.78476 20.345 20.5191 18.4932C19.5642 19.6598 18.6525 20.8611 17.7859 22.0947C13.8453 27.7603 11.0468 33.8353 9.78476 39.358C4.96981 36.9629 2.23269 33.8086 2.23269 30.5916ZM13.4924 57.7595C13.1917 58.1904 12.7322 58.4846 12.2147 58.5774C11.6973 58.6702 11.1642 58.5539 10.7325 58.2541C10.3013 57.9533 10.0071 57.4938 9.91438 56.9765C9.82164 56.4589 9.93796 55.9259 10.2378 55.4942C10.3864 55.2803 10.5757 55.0977 10.7949 54.957C11.0141 54.8164 11.2589 54.7204 11.5153 54.6744C11.7717 54.6287 12.0346 54.634 12.289 54.6898C12.5434 54.7458 12.7842 54.8513 12.9977 55.0004C13.429 55.301 13.7234 55.7602 13.8162 56.2775C13.9089 56.7949 13.7925 57.3278 13.4924 57.7595ZM14.9973 53.8615L21.2973 44.8133C24.1206 45.2376 27.0383 45.4618 29.9904 45.4618C31.4972 45.4618 33.0091 45.3843 34.5159 45.2725C27.3307 52.545 19.5555 55.982 14.9973 53.8615ZM39.4618 42.69C40.4164 41.5234 41.3282 40.3219 42.1948 39.0884C46.1356 33.4229 48.9341 27.3479 50.1958 21.8251C55.0109 24.2202 57.7481 27.3746 57.7481 30.5916C57.7481 35.9388 50.1961 40.8382 39.4618 42.69ZM5.92843 16.675C6.01765 16.7008 6.10885 16.7127 6.19807 16.7127C6.33187 16.7103 6.46376 16.6806 6.58568 16.6255L6.58866 16.6324L13.5281 13.6584L12.7469 11.8363L8.80629 13.5255C14.8704 4.69164 19.1907 3.82718 23.041 3.06089C23.4544 2.97859 23.8599 2.89831 24.2574 2.81006L23.8272 0.874969C23.4435 0.960225 23.0529 1.03755 22.6544 1.11686C18.6395 1.91587 13.7244 2.89334 7.18942 12.3776V7.79058H5.20673V15.7213C5.20678 15.9372 5.27731 16.1472 5.40756 16.3193C5.53784 16.4914 5.7207 16.6163 5.92843 16.675ZM36.9396 58.1222C36.5264 58.2044 36.1209 58.2848 35.7233 58.3731L36.1536 60.3082C36.5372 60.2228 36.9279 60.1456 37.3274 60.0663C41.3422 59.2671 46.2574 58.2898 52.7924 48.8057V53.3926H54.7751V45.4618C54.7751 45.2458 54.7045 45.0359 54.5742 44.8638C54.4438 44.6917 54.2609 44.5667 54.0534 44.508C53.8347 44.4469 53.6018 44.4633 53.3941 44.5548L53.3919 44.5508L46.4525 47.5249L47.234 49.3468L51.1745 47.6576C45.1104 56.4914 40.79 57.3558 36.9396 58.1222Z" fill="url(#paint0_linear_807_1492)"/>
<defs>
<linearGradient id="paint0_linear_807_1492" x1="-25.5679" y1="-67.3702" x2="120.091" y2="32.1788" gradientUnits="userSpaceOnUse">
<stop offset="0.0677083" stop-color="#3D65AF"/>
<stop offset="0.354167" stop-color="#2372B8"/>
<stop offset="0.807292" stop-color="#00B8BB"/>
</linearGradient>
</defs>
</svg>
