<svg width="52" height="36" viewBox="0 0 52 36" fill="none" xmlns="http://www.w3.org/2000/svg">
<path d="M8.89443 35.7559C9.33022 35.7559 9.73722 35.5869 10.0399 35.2794L12.3037 32.9837C12.901 32.3779 12.906 31.4285 12.3154 30.8223C10.7582 29.224 9.5131 27.3845 8.61506 25.3555C7.57422 23.0045 7.04621 20.5074 7.04621 17.9336C7.04621 15.3598 7.57383 12.8627 8.61467 10.5117C9.5131 8.48268 10.7582 6.64323 12.315 5.04488C12.9057 4.43872 12.9006 3.48924 12.3033 2.88347L10.0399 0.587784C9.73683 0.280319 9.33022 0.111328 8.89326 0.111328C8.46175 0.11171 8.04192 0.286804 7.74153 0.59198C6.03066 2.33072 4.59061 4.29643 3.46066 6.43381C3.27117 6.79277 3.41397 7.23489 3.7805 7.42105C4.14703 7.60721 4.59761 7.46683 4.78749 7.10748C5.85051 5.09561 7.20652 3.24586 8.817 1.60898C8.85708 1.56816 8.92478 1.56435 8.96564 1.60555L11.2294 3.90161C11.2664 3.939 11.2687 3.99812 11.2345 4.03284C9.55551 5.7567 8.21273 7.74034 7.24426 9.92845C6.12132 12.4648 5.55207 15.158 5.55207 17.9336C5.55207 20.7092 6.12132 23.4023 7.24426 25.9387C8.21273 28.1268 9.55551 30.1101 11.2349 31.834C11.2687 31.8691 11.2664 31.9282 11.2294 31.9656C11.2294 31.9656 8.97303 34.254 8.96564 34.2616C8.92478 34.3032 8.85708 34.299 8.817 34.2582C6.81742 32.2257 5.22134 29.8808 4.07349 27.288C2.76106 24.3232 2.0957 21.1761 2.0957 17.9336C2.0957 15.1737 2.58208 12.4683 3.54082 9.89221C3.68245 9.51227 3.48284 9.09151 3.0953 8.95303C2.70776 8.81418 2.27897 9.00987 2.13734 9.38982C1.11829 12.1272 0.601562 15.002 0.601562 17.9336C0.601562 21.3779 1.30856 24.7215 2.70309 27.8713C3.92213 30.6251 5.61744 33.1165 7.74153 35.2752C8.04192 35.5804 8.46175 35.7555 8.89443 35.7559Z" fill="url(#paint0_linear)"/>
<path d="M15.7802 28.7703C16.2171 28.7703 16.6249 28.6009 16.9284 28.2927L19.1957 25.9935C19.7719 25.4095 19.7945 24.4787 19.2471 23.8749C17.7642 22.2387 16.9475 20.1284 16.9475 17.9335C16.9475 15.7385 17.7642 13.6286 19.2474 11.9917C19.7945 11.3882 19.7719 10.4574 19.1957 9.8734L16.9284 7.57428C16.6249 7.26605 16.2171 7.09668 15.7802 7.09668C15.3362 7.09668 14.9098 7.27979 14.6098 7.59946C11.9612 10.4208 10.5024 14.0905 10.5024 17.9335C10.5024 21.7764 11.9612 25.4461 14.6098 28.2675C14.9098 28.5872 15.3362 28.7703 15.7802 28.7703ZM15.709 8.59128C15.7479 8.5497 15.8152 8.55237 15.8545 8.59204L18.1218 10.8912C18.1572 10.9274 18.1611 10.9846 18.1303 11.0186C16.4039 12.9236 15.4533 15.3795 15.4533 17.9335C15.4533 20.4874 16.4039 22.9433 18.1303 24.848C18.1611 24.8819 18.1572 24.9392 18.1218 24.9754L15.8545 27.2749C15.8148 27.3146 15.7479 27.3172 15.709 27.2757C13.3152 24.7255 11.9966 21.4075 11.9966 17.9335C11.9966 14.4594 13.3152 11.1414 15.709 8.59128Z" fill="url(#paint1_linear)"/>
<path d="M44.4618 0.59198C44.1614 0.286423 43.7411 0.111328 43.3089 0.111328C42.8731 0.111328 42.4665 0.280319 42.1634 0.587784L39.8996 2.88347C39.3023 3.48924 39.2972 4.43834 39.8879 5.04488C41.4451 6.64323 42.6902 8.48268 43.5882 10.5113C44.6295 12.8627 45.1571 15.3598 45.1571 17.9336C45.1571 20.5074 44.6295 23.0045 43.5886 25.3555C42.6902 27.3845 41.4451 29.224 39.8879 30.8223C39.2972 31.4285 39.3023 32.3779 39.8996 32.9837L42.1634 35.2794C42.4665 35.5869 42.8731 35.7559 43.3089 35.7559C43.7411 35.7559 44.1614 35.5808 44.4618 35.2752C46.5862 33.1165 48.2812 30.6251 49.5006 27.8709C50.8947 24.7215 51.6017 21.3779 51.6017 17.9336C51.6017 14.4893 50.8947 11.1457 49.5002 7.99593C48.2812 5.2421 46.5859 2.75072 44.4618 0.59198ZM48.1298 27.288C46.982 29.8808 45.3863 32.2257 43.3863 34.2582C43.3482 34.2971 43.2793 34.3036 43.2377 34.2613L40.9739 31.9656C40.9369 31.9282 40.9346 31.8691 40.9688 31.834C42.6478 30.1101 43.9906 28.1268 44.959 25.9387C46.082 23.4023 46.6512 20.7092 46.6512 17.9336C46.6512 15.158 46.082 12.4648 44.959 9.92845C43.9906 7.74034 42.6478 5.7567 40.9688 4.03322C40.9346 3.99812 40.9369 3.939 40.9739 3.90161C40.9739 3.90161 43.2345 1.60898 43.2377 1.60593C43.2789 1.56435 43.3466 1.56854 43.3863 1.60898C45.3863 3.64145 46.982 5.98634 48.1298 8.57919C49.4422 11.544 50.1076 14.6911 50.1076 17.9336C50.1076 21.1761 49.4422 24.3232 48.1298 27.288Z" fill="url(#paint2_linear)"/>
<path d="M40.1472 22.7435C40.5429 22.8572 40.958 22.6344 41.0736 22.2461C41.4896 20.8533 41.7004 19.4022 41.7004 17.9336C41.7004 14.0906 40.2417 10.4209 37.5931 7.59956C37.2982 7.28523 36.8787 7.10212 36.4426 7.09678C36.0052 7.09182 35.5788 7.26539 35.2745 7.574L33.0072 9.87312C32.4309 10.4575 32.4084 11.3879 32.9554 11.9918C34.4387 13.6283 35.2554 15.7386 35.2554 17.9336C35.2554 20.1285 34.4387 22.2388 32.9554 23.875C32.4084 24.4788 32.4309 25.4092 33.0068 25.9936L35.2741 28.2928C35.5741 28.5972 35.9916 28.7704 36.4231 28.7704H36.4422C36.8787 28.765 37.2982 28.5815 37.5931 28.2676C38.4982 27.3036 39.2717 26.2351 39.8919 25.0922C40.0861 24.7348 39.9479 24.2915 39.5834 24.1012C39.2192 23.9116 38.7666 24.0466 38.5729 24.4041C38.0122 25.4371 37.3126 26.4033 36.4935 27.2754C36.4752 27.2952 36.4519 27.3051 36.4239 27.3055C36.4009 27.3059 36.3741 27.3006 36.3484 27.2746L34.0811 24.9755C34.0457 24.9393 34.0414 24.882 34.0726 24.8481C35.799 22.9434 36.7496 20.4875 36.7496 17.9336C36.7496 15.3796 35.799 12.9241 34.0726 11.0191C34.0418 10.9851 34.0457 10.9279 34.0811 10.8916C34.0811 10.8916 36.3484 8.59252 36.3484 8.59214C36.3873 8.55285 36.455 8.55018 36.4939 8.59138C38.8877 11.1415 40.2063 14.4595 40.2063 17.9336C40.2063 19.263 40.0157 20.5756 39.6398 21.8349C39.5238 22.2232 39.7511 22.6298 40.1472 22.7435Z" fill="url(#paint3_linear)"/>
<path d="M26.1017 24.9755C30.0624 24.9755 33.2845 21.8165 33.2845 17.9335C33.2845 14.0506 30.0624 10.8916 26.1017 10.8916C22.1411 10.8916 18.9189 14.0506 18.9189 17.9335C18.9189 21.8165 22.1411 24.9755 26.1017 24.9755ZM26.1017 12.3564C29.2386 12.3564 31.7903 14.8581 31.7903 17.9335C31.7903 21.0089 29.2382 23.5106 26.1017 23.5106C22.9652 23.5106 20.4131 21.0089 20.4131 17.9335C20.4131 14.8581 22.9652 12.3564 26.1017 12.3564Z" fill="url(#paint4_linear)"/>
<defs>
<linearGradient id="paint0_linear" x1="12.9839" y1="14.9106" x2="0.288989" y2="15.111" gradientUnits="userSpaceOnUse">
<stop offset="0.2986" stop-color="#0097CE"/>
<stop offset="0.3791" stop-color="#0999C5"/>
<stop offset="0.5119" stop-color="#229DAD"/>
<stop offset="0.6469" stop-color="#42A38F"/>
<stop offset="0.7352" stop-color="#5DAD82"/>
<stop offset="0.9239" stop-color="#A1C661"/>
<stop offset="1" stop-color="#BED153"/>
</linearGradient>
<linearGradient id="paint1_linear" x1="19.8154" y1="16.0954" x2="10.2686" y2="16.2817" gradientUnits="userSpaceOnUse">
<stop offset="0.2986" stop-color="#0097CE"/>
<stop offset="0.3791" stop-color="#0999C5"/>
<stop offset="0.5119" stop-color="#229DAD"/>
<stop offset="0.6469" stop-color="#42A38F"/>
<stop offset="0.7352" stop-color="#5DAD82"/>
<stop offset="0.9239" stop-color="#A1C661"/>
<stop offset="1" stop-color="#BED153"/>
</linearGradient>
<linearGradient id="paint2_linear" x1="51.8306" y1="14.9106" x2="39.1357" y2="15.111" gradientUnits="userSpaceOnUse">
<stop offset="0.2986" stop-color="#0097CE"/>
<stop offset="0.3791" stop-color="#0999C5"/>
<stop offset="0.5119" stop-color="#229DAD"/>
<stop offset="0.6469" stop-color="#42A38F"/>
<stop offset="0.7352" stop-color="#5DAD82"/>
<stop offset="0.9239" stop-color="#A1C661"/>
<stop offset="1" stop-color="#BED153"/>
</linearGradient>
<linearGradient id="paint3_linear" x1="41.8726" y1="16.0954" x2="32.3257" y2="16.2818" gradientUnits="userSpaceOnUse">
<stop offset="0.2986" stop-color="#0097CE"/>
<stop offset="0.3791" stop-color="#0999C5"/>
<stop offset="0.5119" stop-color="#229DAD"/>
<stop offset="0.6469" stop-color="#42A38F"/>
<stop offset="0.7352" stop-color="#5DAD82"/>
<stop offset="0.9239" stop-color="#A1C661"/>
<stop offset="1" stop-color="#BED153"/>
</linearGradient>
<linearGradient id="paint4_linear" x1="33.555" y1="16.7391" x2="18.5791" y2="17.4462" gradientUnits="userSpaceOnUse">
<stop offset="0.2986" stop-color="#0097CE"/>
<stop offset="0.3791" stop-color="#0999C5"/>
<stop offset="0.5119" stop-color="#229DAD"/>
<stop offset="0.6469" stop-color="#42A38F"/>
<stop offset="0.7352" stop-color="#5DAD82"/>
<stop offset="0.9239" stop-color="#A1C661"/>
<stop offset="1" stop-color="#BED153"/>
</linearGradient>
</defs>
</svg>
