<svg width="47" height="47" viewBox="0 0 47 47" fill="none" xmlns="http://www.w3.org/2000/svg">
<path fill-rule="evenodd" clip-rule="evenodd" d="M8.14637 0H7.77872C7.18447 0.0828119 6.59296 0.279376 6.11884 0.657035C5.32166 1.26402 4.86392 2.2796 4.92762 3.27881C4.96948 4.13423 5.39992 4.95506 6.06333 5.49198C6.36727 5.73586 6.72218 5.90331 7.078 6.05619C7.10166 6.49391 7.10621 6.93254 7.0962 7.37117C7.09499 8.85505 7.09521 10.3389 7.09544 11.8228V11.8237C7.09572 13.6784 7.096 15.5331 7.09347 17.3878C7.0962 17.7045 7.12259 18.0621 7.37012 18.2923C7.60126 18.5371 7.95708 18.5644 8.27377 18.5672C8.71608 18.5668 9.15835 18.5662 9.60058 18.5655H9.60087H9.60116H9.60144H9.60173C11.1927 18.5633 12.7831 18.5611 14.3736 18.569C14.3818 19.8394 14.3818 21.1107 14.3736 22.382C13.8679 22.3822 13.362 22.3839 12.8561 22.3857H12.856H12.8559H12.8558H12.8557H12.8553H12.8551C11.4981 22.3903 10.141 22.3949 8.78429 22.371C8.45577 21.4665 7.75961 20.6793 6.82775 20.379C5.46726 19.8812 3.81739 20.511 3.13215 21.7868C2.42961 22.988 2.69352 24.6425 3.73367 25.567C4.71195 26.4925 6.31176 26.6491 7.44656 25.921C8.08813 25.5434 8.51857 24.9036 8.78429 24.2211C10.1348 24.198 11.4858 24.2027 12.8366 24.2073H12.8368H12.8369H12.837H12.8371H12.8372C13.3494 24.2091 13.8616 24.2109 14.3736 24.2111C14.3808 25.3652 14.3794 26.5196 14.3779 27.6739C14.3764 28.8579 14.3749 30.0418 14.3827 31.2256C14.3627 31.6733 14.6721 32.1274 15.1335 32.1847C15.4619 32.2257 15.7927 32.221 16.1235 32.2162C16.3291 32.2133 16.5347 32.2104 16.7397 32.2184C16.747 34.0357 16.7479 35.8539 16.7397 37.6712C15.4993 37.6825 14.2589 37.6791 13.0186 37.6757C12.6509 37.6747 12.2833 37.6737 11.9157 37.6731C11.5981 37.6758 11.2441 37.7076 11.0102 37.9497C10.6444 38.2946 10.6662 38.9489 11.0566 39.2674C11.3057 39.4902 11.6554 39.4957 11.9721 39.5007L12.0076 39.5013C13.6383 39.4955 15.2684 39.4972 16.899 39.499L17.3876 39.4995C17.7243 39.5004 18.1102 39.4585 18.3359 39.1755C18.5612 38.9209 18.564 38.5696 18.5666 38.2451C18.5669 38.2065 18.5673 38.1684 18.5679 38.1308C18.5634 36.1597 18.5597 34.1895 18.5688 32.2193C19.8392 32.2111 21.1105 32.2111 22.3818 32.2193C22.3821 32.7251 22.3838 33.2309 22.3855 33.7368V33.7369V33.737V33.7371V33.7372V33.7377V33.7378C22.3901 35.0948 22.3948 36.452 22.3709 37.8086C21.4663 38.1372 20.6783 38.8333 20.378 39.7652C19.8811 41.1266 20.5108 42.7755 21.7867 43.4608C22.9888 44.1633 24.6423 43.8994 25.5669 42.8593C26.4924 41.881 26.6489 40.2812 25.9209 39.1455C25.5432 38.5048 24.9035 38.0735 24.2219 37.8086C24.198 36.4518 24.2027 35.0944 24.2073 33.7373V33.7371V33.737V33.7369V33.7368V33.7367C24.209 33.2309 24.2107 32.725 24.211 32.2193C25.3794 32.2116 26.5481 32.2132 27.7168 32.2147H27.7182H27.7196C28.8883 32.2163 30.057 32.2179 31.2254 32.2102C31.6513 32.2257 32.089 31.9536 32.1718 31.5195C32.229 31.1739 32.2226 30.824 32.2163 30.4743V30.4743V30.4742V30.4741V30.4741C32.2125 30.2667 32.2088 30.0595 32.2182 29.8532C34.0356 29.846 35.8538 29.8451 37.6711 29.8532C37.68 31.5052 37.6787 33.1571 37.6774 34.809C37.6765 35.8553 37.6757 36.9016 37.6775 37.9479C37.6738 38.2655 37.6758 38.5831 37.6778 38.9007V38.9013C37.6812 39.447 37.6846 39.9926 37.6593 40.5378C36.8666 40.8299 36.1568 41.3868 35.8001 42.1667C35.2122 43.3498 35.5134 44.8877 36.4963 45.7686C37.0013 46.2455 37.6747 46.5039 38.3573 46.5931H38.724C39.4384 46.5321 40.1464 46.2646 40.6733 45.7686C41.6916 44.8586 41.9737 43.2433 41.3094 42.0475C40.9417 41.325 40.261 40.8199 39.5148 40.5369C39.4876 39.6776 39.4922 38.8173 39.4969 37.957C39.4999 37.4079 39.5028 36.8587 39.4975 36.3098C39.4978 35.4484 39.4977 34.5868 39.4975 33.7252C39.4973 32.2185 39.497 30.7117 39.4993 29.2053C39.4957 28.8886 39.4693 28.531 39.2227 28.3007C38.9915 28.056 38.6348 28.0287 38.3181 28.0259C37.7707 28.0262 37.2233 28.0269 36.6759 28.0276C35.1903 28.0295 33.7047 28.0314 32.2192 28.0241C32.211 26.7528 32.211 25.4815 32.2192 24.2111C32.7249 24.2109 33.2307 24.2091 33.7366 24.2074H33.7367H33.7368H33.7369H33.737H33.7371C35.0943 24.2028 36.4516 24.1982 37.8085 24.222C38.0733 24.9036 38.5047 25.5434 39.1462 25.921C40.281 26.6491 41.8809 26.4925 42.8591 25.567C43.8993 24.6434 44.1632 22.989 43.4606 21.7868C42.7754 20.511 41.1274 19.8812 39.766 20.3781C38.8341 20.6784 38.137 21.4665 37.8085 22.371C36.4518 22.3949 35.0947 22.3903 33.7377 22.3857H33.7375H33.7371H33.737H33.7369H33.7368H33.7367C33.2308 22.3839 32.7249 22.3822 32.2192 22.382C32.2124 21.0043 32.2135 19.6263 32.2147 18.2481V18.2481V18.248V18.248V18.2479C32.2153 17.5951 32.2158 16.9422 32.2155 16.2894C32.2134 16.1721 32.2153 16.0544 32.2173 15.9366V15.9366C32.222 15.6476 32.2268 15.3581 32.1718 15.0736C32.0981 14.7078 31.7623 14.4247 31.3919 14.3984C31.0818 14.3702 30.7703 14.3735 30.4589 14.3768C30.2568 14.379 30.0547 14.3811 29.8531 14.3747C29.8449 12.5574 29.8449 10.7392 29.8531 8.92185C31.0936 8.91061 32.3341 8.91401 33.5743 8.91739H33.5744H33.5747H33.575H33.5753H33.5755C33.9425 8.9184 34.3094 8.9194 34.6762 8.92003C34.9938 8.9173 35.3487 8.88545 35.5826 8.64247C35.9484 8.29757 35.9257 7.64418 35.5371 7.32567C35.2907 7.10446 34.9435 7.09826 34.6294 7.09264L34.5834 7.09179C32.8225 7.09725 31.0607 7.09725 29.2998 7.09179L29.251 7.09268C28.9369 7.09821 28.5918 7.10428 28.347 7.32658C28.094 7.53134 28.0303 7.87168 28.0285 8.18018C28.0262 9.0589 28.0272 9.93761 28.0281 10.8163V10.8163V10.8164V10.8164V10.8165C28.0294 12.0025 28.0308 13.1883 28.024 14.3738C26.7527 14.382 25.4814 14.382 24.211 14.3738C24.2107 13.8617 24.209 13.3495 24.2072 12.8374V12.8373V12.8371V12.837V12.8369V12.8368C24.2025 11.486 24.1979 10.135 24.221 8.78443C24.9035 8.51871 25.5432 8.08827 25.9209 7.44761C26.6489 6.31191 26.4924 4.71209 25.5669 3.73382C24.6432 2.69366 22.9888 2.42976 21.7867 3.13229C20.5108 3.81754 19.8811 5.4665 20.378 6.82789C20.6783 7.75975 21.4663 8.45592 22.3709 8.78443C22.3948 10.1411 22.3901 11.4983 22.3855 12.8552V12.8554V12.8558V12.8559V12.856V12.8562V12.8563C22.3838 13.3621 22.3821 13.868 22.3818 14.3738C21.0041 14.3806 19.626 14.3794 18.248 14.3782C17.5953 14.3777 16.9427 14.3771 16.2901 14.3774C16.1723 14.3795 16.0541 14.3775 15.9359 14.3755H15.9359C15.6468 14.3705 15.3576 14.3656 15.0734 14.4211C14.7103 14.4948 14.4273 14.8252 14.3991 15.1928C14.3697 15.5065 14.3731 15.8215 14.3766 16.1365V16.1365V16.1365V16.1365V16.1366C14.3787 16.3378 14.3809 16.539 14.3746 16.7398C12.5572 16.7471 10.739 16.748 8.9217 16.7398C8.91311 14.9713 8.91435 13.2026 8.91558 11.4338V11.433V11.433V11.433V11.433C8.91657 10.0183 8.91756 8.60365 8.91351 7.18917C8.90805 6.81151 8.91624 6.43294 8.93353 6.05528C9.5751 5.80593 10.183 5.41554 10.5616 4.82675C11.3123 3.76112 11.255 2.22227 10.4451 1.20487C9.90362 0.487771 9.03455 0.0655215 8.14637 0ZM6.73765 3.09407C6.72673 2.5335 7.13715 2.00478 7.67862 1.86645C8.3857 1.6526 9.18561 2.18678 9.2666 2.91844C9.3931 3.65282 8.75153 4.38812 8.00804 4.36446C7.33008 4.38266 6.71945 3.77204 6.73765 3.09407ZM22.0269 5.82505C22.0142 5.26356 22.4237 4.73302 22.967 4.59379C23.675 4.37993 24.4758 4.91502 24.555 5.6485C24.6796 6.38198 24.039 7.11455 23.2964 7.09179C22.6193 7.10909 22.0096 6.5021 22.0269 5.82505ZM4.55178 23.2965C4.53995 22.7351 4.95219 22.2054 5.49456 22.0689C6.20529 21.856 7.00611 22.3956 7.08073 23.1318C7.19994 23.8608 6.56293 24.5879 5.82399 24.566C5.14512 24.587 4.53267 23.9754 4.55178 23.2965ZM39.5012 23.2965C39.4911 22.7378 39.8988 22.2082 40.4403 22.0698C41.1474 21.8551 41.9491 22.3883 42.0292 23.1209C42.1566 23.8562 41.5132 24.5915 40.7688 24.566C40.0918 24.5833 39.4839 23.9736 39.5012 23.2965ZM30.3937 30.3938C25.6625 30.3956 20.9303 30.3956 16.1991 30.3938C16.1973 25.6626 16.1973 20.9305 16.1991 16.1993C20.9303 16.1975 25.6625 16.1975 30.3937 16.1993C30.3955 20.9305 30.3955 25.6626 30.3937 30.3938ZM22.0296 40.6798C22.0597 40.121 22.5047 39.6232 23.0543 39.524C23.7714 39.3621 24.5322 39.9454 24.5632 40.6798C24.636 41.3887 24.008 42.063 23.2964 42.0412C22.5839 42.063 21.9568 41.3887 22.0296 40.6798ZM37.3144 43.499C37.3034 42.9384 37.7139 42.4097 38.2553 42.2714C38.9624 42.0575 39.7623 42.5917 39.8433 43.3234C39.9698 44.0578 39.3282 44.7921 38.5848 44.7694C37.9068 44.7876 37.2962 44.177 37.3144 43.499ZM45.1754 5.41924C43.946 4.5893 42.146 4.83683 41.1868 5.96707C40.2149 7.02907 40.1585 8.77722 41.0621 9.89746C41.893 11.0086 43.5137 11.4126 44.7686 10.8184C45.8206 10.3616 46.5241 9.28046 46.5932 8.14566V7.77893C46.4877 6.83614 45.9881 5.92885 45.1754 5.41924ZM42.2288 8.00825C42.2179 7.44768 42.6283 6.91896 43.1697 6.78063C43.8768 6.56769 44.6767 7.10096 44.7577 7.83262C44.8842 8.567 44.2426 9.3023 43.4992 9.27864C42.8212 9.29684 42.2106 8.68622 42.2288 8.00825ZM37.9816 7.12987C38.6186 6.95515 39.262 7.64403 39.0363 8.2674C38.8688 8.90987 37.9543 9.12191 37.5202 8.61867C37.0424 8.15183 37.3227 7.24362 37.9816 7.12987ZM23.5845 19.1102C22.374 19.1071 21.1635 19.104 19.954 19.1249C19.3698 19.1467 19.0349 19.7555 19.1086 20.2897C19.1115 21.5983 19.111 22.9065 19.1106 24.2145V24.2167V24.2167V24.2168C19.1103 24.9438 19.1101 25.6708 19.1104 26.3978C19.1086 26.6862 19.1632 26.9984 19.3816 27.2068C19.59 27.4288 19.9058 27.4852 20.197 27.4834C21.7451 27.4821 23.2937 27.4822 24.8421 27.4824H24.8478L26.3979 27.4825C26.6863 27.4834 26.9985 27.4297 27.206 27.2113C27.4289 27.0029 27.4853 26.6872 27.4835 26.395C27.4826 24.3293 27.4817 22.2635 27.4835 20.1978C27.489 19.8848 27.4143 19.5435 27.1586 19.3378C26.9028 19.1068 26.5453 19.1077 26.2169 19.1085H26.2166H26.2163C26.1827 19.1086 26.1495 19.1087 26.1167 19.1085C25.2728 19.1145 24.4287 19.1123 23.5845 19.1102ZM20.9304 25.6625V20.9304H25.6626V25.6625H20.9304ZM1.952 35.7202C3.29337 35.1541 4.97691 35.7129 5.71766 36.9642C6.49573 38.1727 6.25731 39.8999 5.18257 40.8536C4.15789 41.831 2.45069 41.9392 1.30952 41.1011C0.534182 40.5642 0.0664315 39.6569 0 38.7232V38.3574C0.113753 37.2099 0.86179 36.1342 1.952 35.7202ZM2.76464 37.3573C2.22318 37.4956 1.81367 38.0243 1.82368 38.5849C1.80548 39.2629 2.4152 39.8726 3.09407 39.8553C3.83756 39.879 4.47912 39.1437 4.35263 38.4093C4.27164 37.6776 3.47173 37.1434 2.76464 37.3573ZM9.27759 38.8443C9.496 38.2237 8.85989 37.5411 8.22652 37.7113C7.56857 37.8242 7.28192 38.7305 7.76059 39.1992C8.19376 39.7079 9.1147 39.4904 9.27759 38.8443Z" fill="url(#paint0_linear_614_547)"/>
<defs>
<linearGradient id="paint0_linear_614_547" x1="-2.43315" y1="-2.36916" x2="58.7861" y2="16.8387" gradientUnits="userSpaceOnUse">
<stop offset="0.244792" stop-color="#4E5CA8"/>
<stop offset="1" stop-color="#1FC3F3"/>
</linearGradient>
</defs>
</svg>
