<svg width="157" height="50" viewBox="0 0 157 50" fill="none" xmlns="http://www.w3.org/2000/svg">
<path d="M57.2675 16.8671C56.02 16.6902 53.2638 16.6312 47.8095 17.781C47.1636 17.937 46.5003 18.0064 45.8366 17.9874C45.1167 17.904 44.407 17.7459 43.7187 17.5157C40.7304 16.4838 38.2644 16.8081 36.8138 17.5746C35.9591 18.0449 35.224 18.7112 34.6668 19.5205C33.7675 20.7588 31.8816 24.5325 29.2995 25.5349C27.8489 26.4784 26.2822 27.4513 24.9187 28.837C24.0483 29.7509 23.8162 31.9032 21.5242 33.9964C19.2718 37.3688 16.3943 40.2629 13.0526 42.5169C8.72971 45.5831 5.10315 46.5265 5.10315 46.5265C5.10315 46.5265 14.7063 49.2094 25.2378 44.1974C33.2452 40.3647 37.394 32.9056 38.3514 31.2545L43.5737 22.2329C44.0379 21.4074 44.8792 20.346 45.6626 19.9332C45.9237 19.7858 46.1558 19.6974 46.2138 19.6384C46.794 19.3436 47.4033 19.1077 48.0126 18.8719C51.6681 17.5452 55.4688 17.4272 57.2385 17.2209C57.4706 17.1619 57.4416 16.8965 57.2675 16.8671Z" fill="url(#paint0_linear)"/>
<path d="M57.2675 16.8673C56.0199 16.6904 53.2638 16.6315 47.8094 17.7813C47.1635 17.9373 46.5002 18.0067 45.8366 17.9877C45.1166 17.9043 44.4069 17.7462 43.7187 17.516C40.6433 16.4841 38.2933 16.7494 36.8137 17.5749C35.959 18.0452 35.2239 18.7114 34.6668 19.5208C33.7674 20.759 31.8816 24.5328 29.2995 25.5352C26.3982 22.7639 23.8451 20.4347 21.3791 18.371C19.9865 17.2506 18.6229 16.1892 17.4624 15.4227C14.6255 13.4008 11.6379 11.6068 8.52654 10.0569C7.19197 9.43774 5.79937 8.87757 4.26171 8.28792C3.59442 8.08154 3.21726 8.40585 3.10121 8.93653C3.04319 9.11343 2.98516 9.58515 3.27528 10.4107C4.06497 12.4982 5.01567 14.5191 6.11851 16.4546C6.55369 17.2506 7.04691 18.0761 7.56913 18.9016C10 22.7898 12.8513 26.3894 16.0698 29.6333C16.7371 30.2819 17.3753 30.8716 18.0716 31.4317C18.9048 32.1395 19.7765 32.799 20.6828 33.4071C20.7698 33.466 21.205 33.7314 21.4951 33.9083C22.0754 34.2326 22.8587 34.6158 23.3519 34.8222C25.3626 35.7584 27.5521 36.2315 29.7637 36.2079C32.984 36.2963 35.5952 35.2645 36.8717 33.525C37.4083 32.7882 37.9023 32.0203 38.3514 31.2253L43.5736 22.2037C44.0378 21.3782 44.8792 20.3168 45.6625 19.904C45.9236 19.7566 46.1557 19.6682 46.2137 19.6092C46.765 19.3439 46.765 19.4323 47.3452 19.1965C51.0588 17.8697 55.4977 17.398 57.2675 17.1916C57.3065 17.1869 57.3424 17.1677 57.3685 17.1378C57.3945 17.108 57.4089 17.0694 57.4089 17.0295C57.4089 16.9896 57.3945 16.951 57.3685 16.9211C57.3424 16.8913 57.3065 16.8721 57.2675 16.8673Z" fill="url(#paint1_linear)"/>
<path opacity="0.8" d="M3.04309 9.26076C3.04309 9.17232 3.0721 9.08387 3.04309 9.0249C3.07235 9.10071 3.07235 9.18495 3.04309 9.26076Z" fill="url(#paint2_linear)"/>
<path opacity="0.8" d="M5.48063 8.70046C5.43608 8.67666 5.38571 8.66642 5.33557 8.67098C5.42261 8.70046 5.50965 8.75943 5.59668 8.78891C5.59668 8.75943 5.53866 8.72995 5.48063 8.70046Z" fill="url(#paint3_linear)"/>
<path opacity="0.8" d="M6.37984 9.08417C6.35083 9.08417 6.29281 9.05469 6.26379 9.05469C6.33793 9.09227 6.41572 9.12191 6.49589 9.14314C6.43787 9.11365 6.40886 9.08417 6.37984 9.08417Z" fill="url(#paint4_linear)"/>
<path d="M23.4102 26.0659C25.3816 26.3674 27.3958 26.1647 29.2707 25.4762C27.53 23.8252 25.8762 22.3216 24.3386 20.9654C23.5552 20.2873 22.8009 19.6092 22.0756 18.9901C22.0466 18.9606 21.9886 18.9311 21.9886 18.9016C21.7855 18.7247 21.6114 18.5773 21.4373 18.4299C21.3793 18.4004 21.3503 18.3415 21.3213 18.3415C19.9287 17.2211 18.5651 16.1892 17.4626 15.3932C14.5034 13.3589 11.5441 11.472 8.5558 10.0274C8.29469 9.87997 8.03358 9.79152 7.74345 9.64411C7.66931 9.60653 7.59153 9.57689 7.51135 9.55566C19.0583 15.8944 22.7429 21.6435 23.4102 26.0659Z" fill="url(#paint5_linear)"/>
<path opacity="0.8" d="M3.47832 10.9705C3.39128 10.7936 3.33325 10.5872 3.24622 10.3809C3.33325 10.5578 3.39128 10.7641 3.47832 10.9705Z" fill="url(#paint6_linear)"/>
<path opacity="0.3" d="M3.04309 9.349C3.04309 9.31952 3.04309 9.31952 3.0721 9.29004C3.0721 9.31952 3.0721 9.31952 3.04309 9.349Z" fill="url(#paint7_linear)"/>
<path opacity="0.3" d="M4.29065 8.2583C4.66781 8.40571 5.01596 8.52364 5.36411 8.67106C4.98695 8.52364 4.6388 8.37623 4.29065 8.2583Z" fill="url(#paint8_linear)"/>
<path opacity="0.3" d="M3.04309 9.34912C3.05878 9.70157 3.12727 10.0495 3.24618 10.381C3.12727 10.0495 3.05878 9.70157 3.04309 9.34912Z" fill="url(#paint9_linear)"/>
<path opacity="0.3" d="M7.33709 9.49637L7.51116 9.58482C7.19203 9.4374 6.84388 9.28999 6.49573 9.14258C6.61178 9.20154 6.69881 9.23103 6.81486 9.28999C6.99361 9.34589 7.16814 9.41486 7.33709 9.49637Z" fill="url(#paint10_linear)"/>
<path d="M10.7608 19.8742C7.65643 17.3387 4.72617 13.8008 3.47864 11C6.37988 18.4591 13.9231 29.0433 20.654 33.4067C20.7701 33.4952 21.1762 33.731 21.4954 33.9079C22.3657 32.5517 23.9614 29.7509 23.4102 26.0656C19.2614 25.5054 14.7935 23.2058 10.7608 19.8742Z" fill="url(#paint11_linear)"/>
<path opacity="0.3" d="M6.26368 9.05441L5.65442 8.78906C5.68343 8.78906 5.71244 8.81854 5.74146 8.81854C5.88652 8.87751 6.06059 8.96596 6.26368 9.05441Z" fill="url(#paint12_linear)"/>
<path opacity="0.8" d="M10.7607 19.8745C14.7934 23.2061 19.2613 25.4762 23.4101 26.0364C22.7428 21.6435 19.0583 15.8649 7.51129 9.58511C7.45049 9.56166 7.39217 9.53203 7.33722 9.49667C7.16314 9.40822 6.98907 9.34925 6.84401 9.26081C6.72796 9.20184 6.64092 9.17236 6.52487 9.11339C6.45073 9.07581 6.37295 9.04617 6.29277 9.02495C6.11588 8.93854 5.93131 8.86943 5.74153 8.81857C5.71252 8.81857 5.68351 8.78908 5.6545 8.78908C5.56746 8.7596 5.48042 8.70064 5.39338 8.67115C5.04523 8.55322 4.69709 8.37633 4.31992 8.2584C3.65264 8.05202 3.27547 8.37633 3.13041 8.87753C3.11576 8.93554 3.10605 8.99472 3.1014 9.05443C3.07239 9.11339 3.1014 9.20184 3.1014 9.29029C3.1014 9.31977 3.1014 9.31977 3.07239 9.34925C3.08808 9.70171 3.15656 10.0497 3.27547 10.3811C3.3401 10.5922 3.41761 10.799 3.50757 11.0003C4.7261 13.8011 7.68537 17.339 10.7607 19.8745Z" fill="url(#paint13_linear)"/>
<path d="M10.7607 19.8745C14.7934 23.2061 19.2613 25.4762 23.4101 26.0364C22.7428 21.6435 19.0583 15.8649 7.51129 9.58511C7.45049 9.56166 7.39217 9.53203 7.33722 9.49667C7.16314 9.40822 6.98907 9.34925 6.84401 9.26081C6.72796 9.20184 6.64092 9.17236 6.52487 9.11339C6.45073 9.07581 6.37295 9.04617 6.29277 9.02495C6.11588 8.93854 5.93131 8.86943 5.74153 8.81857C5.71252 8.81857 5.68351 8.78908 5.6545 8.78908C5.56746 8.7596 5.48042 8.70064 5.39338 8.67115C5.04523 8.55322 4.69709 8.37633 4.31992 8.2584C3.65264 8.05202 3.27547 8.37633 3.13041 8.87753C3.11576 8.93554 3.10605 8.99472 3.1014 9.05443C3.07239 9.11339 3.1014 9.20184 3.1014 9.29029C3.1014 9.31977 3.1014 9.31977 3.07239 9.34925C3.08808 9.70171 3.15656 10.0497 3.27547 10.3811C3.3401 10.5922 3.41761 10.799 3.50757 11.0003C4.7261 13.8011 7.68537 17.339 10.7607 19.8745Z" fill="url(#paint14_linear)"/>
<path d="M57.2677 16.8671C56.0202 16.6902 53.264 16.6312 47.8097 17.781C47.1637 17.937 46.5005 18.0064 45.8368 17.9874C45.1169 17.904 44.4072 17.7459 43.7189 17.5157C42.3068 16.9984 40.8085 16.768 39.309 16.8376C38.2817 16.9101 37.2912 17.2557 36.4368 17.84C35.7532 18.2903 35.1621 18.871 34.696 19.55C33.7967 20.7882 31.9108 24.562 29.3287 25.5644C31.3596 27.5103 34.493 29.1318 37.4232 28.1589C40.2374 27.2154 41.9782 24.6799 42.5294 23.8544C43.092 22.9868 43.7124 22.1594 44.3862 21.3779C45.3372 20.3659 46.5249 19.6153 47.8387 19.1962C51.1461 18.0758 56.1362 17.3977 57.3258 17.2798C57.4708 17.1619 57.4418 16.8965 57.2677 16.8671Z" fill="url(#paint15_linear)"/>
<path d="M41.038 20.9721C41.5187 20.9721 41.9084 20.5761 41.9084 20.0876C41.9084 19.5991 41.5187 19.2031 41.038 19.2031C40.5573 19.2031 40.1676 19.5991 40.1676 20.0876C40.1676 20.5761 40.5573 20.9721 41.038 20.9721Z" fill="#282E38"/>
<path d="M90.3419 32.001C88.6114 32.0036 86.9526 32.7034 85.7289 33.9468C84.5053 35.1903 83.8167 36.876 83.8141 38.6345V40.6099C83.8167 42.3684 84.5053 44.0541 85.7289 45.2976C86.9526 46.5411 88.6114 47.2408 90.3419 47.2435H94.4907V44.8259H90.3419C89.2816 44.8241 88.262 44.4112 87.491 43.6716C86.7201 42.932 86.2559 41.9213 86.1931 40.8457H94.6938C94.9759 40.8464 95.2554 40.7904 95.5161 40.681C95.7769 40.5716 96.0138 40.4109 96.2133 40.2082C96.4128 40.0055 96.5709 39.7647 96.6786 39.4997C96.7862 39.2347 96.8413 38.9507 96.8407 38.664C96.8456 37.7926 96.6813 36.9287 96.3572 36.1219C96.0331 35.315 95.5555 34.5811 94.9518 33.9622C94.3481 33.3432 93.6302 32.8514 92.8391 32.5149C92.0481 32.1783 91.1995 32.0037 90.3419 32.001ZM86.1931 38.3987C86.2541 37.3225 86.7178 36.3107 87.4891 35.5707C88.2605 34.8307 89.2811 34.4185 90.3419 34.4185C91.4027 34.4185 92.4233 34.8307 93.1947 35.5707C93.966 36.3107 94.4297 37.3225 94.4907 38.3987H86.1931Z" fill="white"/>
<path d="M55.411 29.5836H57.1517V27.166H55.411C54.7544 27.1681 54.105 27.305 53.5017 27.5684C52.8985 27.8319 52.3538 28.2165 51.9005 28.6991C50.9834 29.6663 50.4645 30.9529 50.4498 32.296V32.5908H49.0573V35.0084H50.4498V47.1847H52.8289V35.0084H56.0202V32.6203H52.8289V32.3255C52.8579 30.8513 54.0474 29.5836 55.411 29.5836Z" fill="white"/>
<path d="M63.2439 27.1953H60.8649V47.2435H63.2439V27.1953Z" fill="white"/>
<path d="M142.39 32.001H140.011V47.1845H142.39V32.001Z" fill="#30B99E"/>
<path d="M77.5763 41.0226C77.5763 42.0313 77.182 42.9987 76.4802 43.7119C75.7783 44.4252 74.8263 44.8259 73.8337 44.8259C72.8411 44.8259 71.8892 44.4252 71.1873 43.7119C70.4854 42.9987 70.0911 42.0313 70.0911 41.0226V32.001H67.7701V41.0226C67.7701 42.6647 68.412 44.2395 69.5546 45.4006C70.6972 46.5617 72.2469 47.214 73.8628 47.214C75.4786 47.214 77.0283 46.5617 78.1709 45.4006C79.3135 44.2395 79.9554 42.6647 79.9554 41.0226V32.001H77.5763V41.0226Z" fill="white"/>
<path d="M105.312 32.001C103.698 32.0058 102.151 32.6596 101.01 33.8197C99.868 34.9797 99.2246 36.5517 99.2198 38.1923V47.214H101.599V38.1923C101.599 37.1836 101.993 36.2163 102.695 35.503C103.397 34.7898 104.349 34.3891 105.341 34.3891C106.334 34.3891 107.286 34.7898 107.988 35.503C108.69 36.2163 109.084 37.1836 109.084 38.1923V47.214H111.463V38.1923C111.435 36.5489 110.777 34.9815 109.628 33.8247C108.478 32.668 106.93 32.0135 105.312 32.001Z" fill="white"/>
<path d="M118.223 42.084V34.4185H121.414V32.0305H118.223V27.1953H115.873V32.0305H113.784V34.448H115.873V42.1135C115.877 43.4416 116.397 44.7141 117.322 45.6532C118.246 46.5923 119.498 47.1216 120.805 47.1255H121.849V44.708H120.805C120.12 44.7064 119.465 44.4295 118.981 43.9377C118.497 43.446 118.224 42.7795 118.223 42.084Z" fill="white"/>
<path d="M150.02 42.084V34.4185H153.212V32.0305H150.02V27.1953H147.641V32.0305H145.552V34.448H147.641V42.1135C147.645 43.4416 148.166 44.7141 149.09 45.6532C150.014 46.5923 151.266 47.1216 152.573 47.1255H153.618V44.708H152.573C151.894 44.7003 151.244 44.4204 150.766 43.9291C150.288 43.4379 150.02 42.7749 150.02 42.084Z" fill="#30B99E"/>
<path d="M126.839 27.1953V33.3572C127.905 32.5043 129.225 32.0467 130.582 32.0599C132.196 32.0647 133.743 32.7186 134.885 33.8786C136.026 35.0387 136.67 36.6107 136.675 38.2513V41.0521C136.675 42.6942 136.033 44.269 134.89 45.4301C133.748 46.5912 132.198 47.2435 130.582 47.2435C128.966 47.2435 127.416 46.5912 126.274 45.4301C125.131 44.269 124.489 42.6942 124.489 41.0521V27.1953H126.839ZM126.839 39.5485V41.0226C126.839 42.0313 127.234 42.9987 127.936 43.7119C128.637 44.4252 129.589 44.8259 130.582 44.8259C131.575 44.8259 132.527 44.4252 133.228 43.7119C133.93 42.9987 134.325 42.0313 134.325 41.0226V38.2218C134.325 37.2131 133.93 36.2457 133.228 35.5325C132.527 34.8192 131.575 34.4185 130.582 34.4185C129.589 34.4185 128.637 34.8192 127.936 35.5325C127.234 36.2457 126.839 37.2131 126.839 38.2218V39.5485Z" fill="#30B99E"/>
<defs>
<linearGradient id="paint0_linear" x1="58.3902" y1="29.4219" x2="4.08699" y2="33.7361" gradientUnits="userSpaceOnUse">
<stop offset="0.2986" stop-color="#0097CE"/>
<stop offset="0.3791" stop-color="#0999C5"/>
<stop offset="0.5119" stop-color="#229DAD"/>
<stop offset="0.6469" stop-color="#42A38F"/>
<stop offset="0.7352" stop-color="#5DAD82"/>
<stop offset="0.9239" stop-color="#A1C661"/>
<stop offset="1" stop-color="#BED153"/>
</linearGradient>
<linearGradient id="paint1_linear" x1="1.43749" y1="15.0744" x2="54.0869" y2="29.3299" gradientUnits="userSpaceOnUse">
<stop offset="0.08199" stop-color="#3D65AF"/>
<stop offset="0.2305" stop-color="#2372B8"/>
<stop offset="0.5058" stop-color="#00B8BB"/>
</linearGradient>
<linearGradient id="paint2_linear" x1="3.02191" y1="9.13691" x2="31.6218" y2="16.8807" gradientUnits="userSpaceOnUse">
<stop offset="0.1297"/>
<stop offset="0.3277" stop-color="#00334B"/>
<stop offset="0.5276" stop-color="#006190"/>
<stop offset="0.6723" stop-color="#007FBB"/>
<stop offset="0.7457" stop-color="#008ACC"/>
</linearGradient>
<linearGradient id="paint3_linear" x1="10.1952" y1="62.5571" x2="36.8314" y2="62.5571" gradientUnits="userSpaceOnUse">
<stop offset="0.1297"/>
<stop offset="0.3277" stop-color="#00334B"/>
<stop offset="0.5276" stop-color="#006190"/>
<stop offset="0.6723" stop-color="#007FBB"/>
<stop offset="0.7457" stop-color="#008ACC"/>
</linearGradient>
<linearGradient id="paint4_linear" x1="10.5835" y1="49.1454" x2="34.2602" y2="49.1454" gradientUnits="userSpaceOnUse">
<stop offset="0.1297"/>
<stop offset="0.3277" stop-color="#00334B"/>
<stop offset="0.5276" stop-color="#006190"/>
<stop offset="0.6723" stop-color="#007FBB"/>
<stop offset="0.7457" stop-color="#008ACC"/>
</linearGradient>
<linearGradient id="paint5_linear" x1="5.9935" y1="15.1615" x2="30.2828" y2="21.7382" gradientUnits="userSpaceOnUse">
<stop offset="0.1297" stop-color="#2483C5"/>
<stop offset="0.1672" stop-color="#2486C7"/>
<stop offset="0.676" stop-color="#29B1DF"/>
<stop offset="0.9352" stop-color="#2BC2E8"/>
</linearGradient>
<linearGradient id="paint6_linear" x1="7.56587" y1="282.32" x2="31.2424" y2="282.32" gradientUnits="userSpaceOnUse">
<stop offset="0.1297"/>
<stop offset="0.3277" stop-color="#00334B"/>
<stop offset="0.5276" stop-color="#006190"/>
<stop offset="0.6723" stop-color="#007FBB"/>
<stop offset="0.7457" stop-color="#008ACC"/>
</linearGradient>
<linearGradient id="paint7_linear" x1="3.06096" y1="9.32046" x2="3.06098" y2="9.32046" gradientUnits="userSpaceOnUse">
<stop stop-color="#682C90"/>
<stop offset="0.496" stop-color="#817CB9"/>
<stop offset="1" stop-color="white"/>
</linearGradient>
<linearGradient id="paint8_linear" x1="117.408" y1="195.078" x2="61.9427" y2="195.078" gradientUnits="userSpaceOnUse">
<stop stop-color="#682C90"/>
<stop offset="0.496" stop-color="#817CB9"/>
<stop offset="1" stop-color="white"/>
</linearGradient>
<linearGradient id="paint9_linear" x1="24.4437" y1="482.713" x2="13.9503" y2="482.713" gradientUnits="userSpaceOnUse">
<stop stop-color="#682C90"/>
<stop offset="0.496" stop-color="#817CB9"/>
<stop offset="1" stop-color="white"/>
</linearGradient>
<linearGradient id="paint10_linear" x1="113.498" y1="209.728" x2="61.0315" y2="209.728" gradientUnits="userSpaceOnUse">
<stop stop-color="#682C90"/>
<stop offset="0.496" stop-color="#817CB9"/>
<stop offset="1" stop-color="white"/>
</linearGradient>
<linearGradient id="paint11_linear" x1="1.2296" y1="19.3063" x2="24.4303" y2="25.5882" gradientUnits="userSpaceOnUse">
<stop offset="0.1297" stop-color="#3B67AD"/>
<stop offset="0.5697" stop-color="#227CAA"/>
<stop offset="0.9352" stop-color="#118AA8"/>
</linearGradient>
<linearGradient id="paint12_linear" x1="69.856" y1="129.009" x2="38.3759" y2="129.009" gradientUnits="userSpaceOnUse">
<stop stop-color="#682C90"/>
<stop offset="0.496" stop-color="#817CB9"/>
<stop offset="1" stop-color="white"/>
</linearGradient>
<linearGradient id="paint13_linear" x1="381.497" y1="8447.43" x2="2456.16" y2="8447.43" gradientUnits="userSpaceOnUse">
<stop offset="0.1297"/>
<stop offset="0.3277" stop-color="#00334B"/>
<stop offset="0.5276" stop-color="#006190"/>
<stop offset="0.6723" stop-color="#007FBB"/>
<stop offset="0.7457" stop-color="#008ACC"/>
</linearGradient>
<linearGradient id="paint14_linear" x1="1.74661" y1="13.8433" x2="25.0162" y2="20.1439" gradientUnits="userSpaceOnUse">
<stop offset="0.1297" stop-color="#3A67B0"/>
<stop offset="0.5622" stop-color="#357FBD"/>
<stop offset="0.9352" stop-color="#3290C6"/>
</linearGradient>
<linearGradient id="paint15_linear" x1="31.1887" y1="18.5231" x2="55.2561" y2="25.0397" gradientUnits="userSpaceOnUse">
<stop offset="0.1724" stop-color="#4E5CA8"/>
<stop offset="0.9937" stop-color="#1FC3F3"/>
</linearGradient>
</defs>
</svg>
