<svg width="320" height="219" viewBox="0 0 320 219" fill="none" xmlns="http://www.w3.org/2000/svg">
<line opacity="0.2" x1="0.801758" y1="14.7502" x2="319.996" y2="14.7502" stroke="#1D2125" stroke-width="0.5" stroke-dasharray="3 3"/>
<line opacity="0.2" x1="0.80188" y1="43.8112" x2="319.996" y2="43.8112" stroke="#1D2125" stroke-width="0.5" stroke-dasharray="3 3"/>
<line opacity="0.2" x1="0.80188" y1="72.8721" x2="319.996" y2="72.8721" stroke="#1D2125" stroke-width="0.5" stroke-dasharray="3 3"/>
<line opacity="0.2" x1="0.80188" y1="101.933" x2="319.996" y2="101.933" stroke="#1D2125" stroke-width="0.5" stroke-dasharray="3 3"/>
<line opacity="0.2" x1="0.80188" y1="130.994" x2="319.996" y2="130.994" stroke="#1D2125" stroke-width="0.5" stroke-dasharray="3 3"/>
<line opacity="0.2" x1="0.80188" y1="160.055" x2="319.996" y2="160.055" stroke="#1D2125" stroke-width="0.5" stroke-dasharray="3 3"/>
<line opacity="0.2" x1="0.80188" y1="189.116" x2="319.996" y2="189.116" stroke="#1D2125" stroke-width="0.5" stroke-dasharray="3 3"/>
<line opacity="0.2" x1="0.80188" y1="218.177" x2="319.996" y2="218.177" stroke="#1D2125" stroke-width="0.5" stroke-dasharray="3 3"/>
<g style="mix-blend-mode:multiply" opacity="0.8">
<path d="M0.80188 212.427C0.80188 215.741 3.48817 218.427 6.80188 218.427H313.996C317.31 218.427 319.996 215.741 319.996 212.427V135.275C319.996 132.983 318.694 130.882 316.623 129.902C309.846 126.694 303.152 124.032 296.142 124.032C289.768 124.032 283.654 126.233 277.502 128.448C272.903 130.103 268.283 131.767 263.518 132.523C253.174 134.293 242.034 130.754 231.689 125.801C220.549 120.848 209.409 114.125 199.065 104.219C196.592 102.02 194.159 99.6638 191.747 97.329C183.294 89.1454 175.108 81.2211 166.441 81.2211C160.174 81.2211 153.615 86.0261 146.941 90.9154C142.598 94.0963 138.208 97.313 133.817 99.2654C127.385 102.345 120.646 102.279 113.981 102.214C109.927 102.174 105.901 102.134 101.988 102.803C91.7057 104.11 82.1012 109.938 71.923 116.114C71.0743 116.629 70.2215 117.146 69.3641 117.663C59.0198 124.032 47.8798 130.754 36.7399 134.293C26.3956 137.477 15.2556 137.477 4.91139 128.985C3.26373 127.782 0.80188 128.883 0.80188 130.923V212.427Z" fill="url(#paint0_linear)"/>
<path d="M0.80188 212.427C0.80188 215.741 3.48817 218.427 6.80188 218.427H313.996C317.31 218.427 319.996 215.741 319.996 212.427V135.275C319.996 132.983 318.694 130.882 316.623 129.902C309.846 126.694 303.152 124.032 296.142 124.032C289.768 124.032 283.654 126.233 277.502 128.448C272.903 130.103 268.283 131.767 263.518 132.523C253.174 134.293 242.034 130.754 231.689 125.801C220.549 120.848 209.409 114.125 199.065 104.219C196.592 102.02 194.159 99.6638 191.747 97.329C183.294 89.1454 175.108 81.2211 166.441 81.2211C160.174 81.2211 153.615 86.0261 146.941 90.9154C142.598 94.0963 138.208 97.313 133.817 99.2654C127.385 102.345 120.646 102.279 113.981 102.214C109.927 102.174 105.901 102.134 101.988 102.803C91.7057 104.11 82.1012 109.938 71.923 116.114C71.0743 116.629 70.2215 117.146 69.3641 117.663C59.0198 124.032 47.8798 130.754 36.7399 134.293C26.3956 137.477 15.2556 137.477 4.91139 128.985C3.26373 127.782 0.80188 128.883 0.80188 130.923V212.427Z" stroke="black"/>
</g>
<g style="mix-blend-mode:multiply" opacity="0.8">
<path d="M9.66929 92.1656C6.70075 88.5227 0.80188 90.6218 0.80188 95.321V212.427C0.80188 215.741 3.48817 218.427 6.80188 218.427H313.996C317.31 218.427 319.996 215.741 319.996 212.427V79.1816C319.996 76.5872 318.338 74.2287 315.794 73.7211C313.841 73.3315 311.876 73.1221 309.895 73.1221C299.918 73.1221 289.475 79.2799 278.85 85.5456C271.937 89.6221 264.947 93.7443 257.957 96.2464C247.718 100.193 236.989 100.108 226.379 100.025C219.925 99.9737 213.515 99.923 207.286 100.781C190.916 102.455 175.626 109.923 159.422 117.838C158.071 118.498 156.713 119.161 155.348 119.824C138.88 127.985 121.145 136.6 103.411 141.135C86.9425 145.215 69.2076 145.215 52.7396 134.333C37.2047 125.198 22.6419 107.714 13.3081 96.5074C11.9862 94.9204 10.7693 93.4593 9.66929 92.1656Z" fill="url(#paint1_linear)"/>
<path d="M9.66929 92.1656C6.70075 88.5227 0.80188 90.6218 0.80188 95.321V212.427C0.80188 215.741 3.48817 218.427 6.80188 218.427H313.996C317.31 218.427 319.996 215.741 319.996 212.427V79.1816C319.996 76.5872 318.338 74.2287 315.794 73.7211C313.841 73.3315 311.876 73.1221 309.895 73.1221C299.918 73.1221 289.475 79.2799 278.85 85.5456C271.937 89.6221 264.947 93.7443 257.957 96.2464C247.718 100.193 236.989 100.108 226.379 100.025C219.925 99.9737 213.515 99.923 207.286 100.781C190.916 102.455 175.626 109.923 159.422 117.838C158.071 118.498 156.713 119.161 155.348 119.824C138.88 127.985 121.145 136.6 103.411 141.135C86.9425 145.215 69.2076 145.215 52.7396 134.333C37.2047 125.198 22.6419 107.714 13.3081 96.5074C11.9862 94.9204 10.7693 93.4593 9.66929 92.1656Z" stroke="black"/>
</g>
<g style="mix-blend-mode:multiply" opacity="0.8">
<path d="M317.92 116.191C319.104 116.433 319.996 117.449 319.996 118.658V212.427C319.996 215.741 317.31 218.427 313.996 218.427H6.80176C3.48805 218.427 0.801758 215.741 0.801758 212.427V34.4927C0.801758 31.9698 2.36758 29.6566 4.82406 29.0816C9.38846 28.0131 13.9916 28.0177 18.7025 29.6287C25.3036 32.3297 32.1503 38.5578 39.1237 44.9012C46.5687 51.6736 54.1583 58.5775 61.7478 61.4612C69.1063 64.171 76.7699 62.3356 84.4096 60.5059C90.9402 58.9418 97.4532 57.382 103.743 58.6688C117.348 61.2534 130.053 74.8421 143.524 89.2498C144.607 90.408 145.695 91.5716 146.789 92.7352C148.073 94.102 149.35 95.4688 150.62 96.8286C163.881 111.025 176.42 124.449 189.834 129.035C203.482 134.62 218.181 129.035 231.829 121.217C235.252 119.396 238.617 117.424 241.953 115.47C252.941 109.032 263.599 102.788 274.874 102.788C283.285 102.788 291.352 106.262 299.469 109.758C305.536 112.371 311.632 114.996 317.92 116.191Z" fill="url(#paint2_linear)"/>
<path d="M317.92 116.191C319.104 116.433 319.996 117.449 319.996 118.658V212.427C319.996 215.741 317.31 218.427 313.996 218.427H6.80176C3.48805 218.427 0.801758 215.741 0.801758 212.427V34.4927C0.801758 31.9698 2.36758 29.6566 4.82406 29.0816C9.38846 28.0131 13.9916 28.0177 18.7025 29.6287C25.3036 32.3297 32.1503 38.5578 39.1237 44.9012C46.5687 51.6736 54.1583 58.5775 61.7478 61.4612C69.1063 64.171 76.7699 62.3356 84.4096 60.5059C90.9402 58.9418 97.4532 57.382 103.743 58.6688C117.348 61.2534 130.053 74.8421 143.524 89.2498C144.607 90.408 145.695 91.5716 146.789 92.7352C148.073 94.102 149.35 95.4688 150.62 96.8286C163.881 111.025 176.42 124.449 189.834 129.035C203.482 134.62 218.181 129.035 231.829 121.217C235.252 119.396 238.617 117.424 241.953 115.47C252.941 109.032 263.599 102.788 274.874 102.788C283.285 102.788 291.352 106.262 299.469 109.758C305.536 112.371 311.632 114.996 317.92 116.191Z" stroke="black"/>
</g>
<path d="M34.2595 207.833C33.3841 207.833 32.7125 207.556 32.2445 207.001C31.7765 206.438 31.5208 205.688 31.4775 204.752L31.4645 204.323L31.4775 203.894C31.5121 202.976 31.7635 202.235 32.2315 201.671C32.7081 201.099 33.3841 200.813 34.2595 200.813C35.0915 200.813 35.7545 201.099 36.2485 201.671V198.785C36.2485 198.69 36.2788 198.616 36.3395 198.564C36.4001 198.504 36.4738 198.473 36.5605 198.473H37.6915C37.7868 198.473 37.8605 198.504 37.9125 198.564C37.9731 198.616 38.0035 198.69 38.0035 198.785V207.391C38.0035 207.478 37.9731 207.552 37.9125 207.612C37.8605 207.673 37.7868 207.703 37.6915 207.703H36.6385C36.5518 207.703 36.4781 207.673 36.4175 207.612C36.3568 207.552 36.3265 207.478 36.3265 207.391V206.91C35.8498 207.526 35.1608 207.833 34.2595 207.833ZM34.7535 206.429C35.2475 206.429 35.6115 206.273 35.8455 205.961C36.0881 205.641 36.2225 205.246 36.2485 204.778C36.2571 204.674 36.2615 204.51 36.2615 204.284C36.2615 204.05 36.2571 203.881 36.2485 203.777C36.2311 203.344 36.0968 202.976 35.8455 202.672C35.5941 202.369 35.2301 202.217 34.7535 202.217C33.8261 202.217 33.3321 202.789 33.2715 203.933L33.2585 204.323L33.2715 204.713C33.3321 205.857 33.8261 206.429 34.7535 206.429ZM41.6988 207.833C41.2568 207.833 40.8495 207.747 40.4768 207.573C40.1128 207.391 39.8225 207.149 39.6058 206.845C39.3978 206.542 39.2938 206.208 39.2938 205.844C39.2938 205.255 39.5321 204.778 40.0088 204.414C40.4855 204.05 41.1398 203.803 41.9718 203.673L43.7528 203.413V203.14C43.7528 202.768 43.6575 202.486 43.4668 202.295C43.2761 202.105 42.9728 202.009 42.5568 202.009C42.2708 202.009 42.0411 202.061 41.8678 202.165C41.6945 202.269 41.5515 202.378 41.4388 202.49C41.3348 202.594 41.2655 202.664 41.2308 202.698C41.1961 202.802 41.1311 202.854 41.0358 202.854H40.0218C39.9438 202.854 39.8745 202.828 39.8138 202.776C39.7618 202.724 39.7358 202.655 39.7358 202.568C39.7445 202.352 39.8485 202.109 40.0478 201.84C40.2558 201.563 40.5721 201.325 40.9968 201.125C41.4215 200.917 41.9458 200.813 42.5698 200.813C43.5925 200.813 44.3378 201.043 44.8058 201.502C45.2738 201.962 45.5078 202.564 45.5078 203.309V207.391C45.5078 207.478 45.4775 207.552 45.4168 207.612C45.3648 207.673 45.2911 207.703 45.1958 207.703H44.1168C44.0301 207.703 43.9565 207.673 43.8958 207.612C43.8351 207.552 43.8048 207.478 43.8048 207.391V206.884C43.6141 207.162 43.3455 207.391 42.9988 207.573C42.6521 207.747 42.2188 207.833 41.6988 207.833ZM42.1408 206.585C42.6175 206.585 43.0075 206.429 43.3108 206.117C43.6141 205.805 43.7658 205.355 43.7658 204.765V204.505L42.4658 204.713C41.4691 204.869 40.9708 205.203 40.9708 205.714C40.9708 205.992 41.0835 206.208 41.3088 206.364C41.5428 206.512 41.8201 206.585 42.1408 206.585ZM50.1798 207.703C49.3911 207.703 48.7975 207.5 48.3988 207.092C48.0001 206.676 47.8008 206.07 47.8008 205.272V202.334H46.7738C46.6871 202.334 46.6135 202.304 46.5528 202.243C46.4921 202.183 46.4618 202.109 46.4618 202.022V201.255C46.4618 201.169 46.4921 201.095 46.5528 201.034C46.6135 200.974 46.6871 200.943 46.7738 200.943H47.8008V198.785C47.8008 198.69 47.8311 198.616 47.8918 198.564C47.9525 198.504 48.0261 198.473 48.1128 198.473H49.1918C49.2871 198.473 49.3608 198.504 49.4128 198.564C49.4735 198.616 49.5038 198.69 49.5038 198.785V200.943H51.1288C51.2155 200.943 51.2891 200.974 51.3498 201.034C51.4105 201.095 51.4408 201.169 51.4408 201.255V202.022C51.4408 202.109 51.4105 202.183 51.3498 202.243C51.2891 202.304 51.2155 202.334 51.1288 202.334H49.5038V205.129C49.5038 205.502 49.5688 205.784 49.6988 205.974C49.8288 206.165 50.0411 206.26 50.3358 206.26H51.2458C51.3411 206.26 51.4148 206.291 51.4668 206.351C51.5275 206.403 51.5578 206.477 51.5578 206.572V207.391C51.5578 207.478 51.5275 207.552 51.4668 207.612C51.4148 207.673 51.3411 207.703 51.2458 207.703H50.1798ZM54.6734 207.833C54.2314 207.833 53.8241 207.747 53.4514 207.573C53.0874 207.391 52.7971 207.149 52.5804 206.845C52.3724 206.542 52.2684 206.208 52.2684 205.844C52.2684 205.255 52.5068 204.778 52.9834 204.414C53.4601 204.05 54.1144 203.803 54.9464 203.673L56.7274 203.413V203.14C56.7274 202.768 56.6321 202.486 56.4414 202.295C56.2508 202.105 55.9474 202.009 55.5314 202.009C55.2454 202.009 55.0158 202.061 54.8424 202.165C54.6691 202.269 54.5261 202.378 54.4134 202.49C54.3094 202.594 54.2401 202.664 54.2054 202.698C54.1708 202.802 54.1058 202.854 54.0104 202.854H52.9964C52.9184 202.854 52.8491 202.828 52.7884 202.776C52.7364 202.724 52.7104 202.655 52.7104 202.568C52.7191 202.352 52.8231 202.109 53.0224 201.84C53.2304 201.563 53.5468 201.325 53.9714 201.125C54.3961 200.917 54.9204 200.813 55.5444 200.813C56.5671 200.813 57.3124 201.043 57.7804 201.502C58.2484 201.962 58.4824 202.564 58.4824 203.309V207.391C58.4824 207.478 58.4521 207.552 58.3914 207.612C58.3394 207.673 58.2658 207.703 58.1704 207.703H57.0914C57.0048 207.703 56.9311 207.673 56.8704 207.612C56.8098 207.552 56.7794 207.478 56.7794 207.391V206.884C56.5888 207.162 56.3201 207.391 55.9734 207.573C55.6268 207.747 55.1934 207.833 54.6734 207.833ZM55.1154 206.585C55.5921 206.585 55.9821 206.429 56.2854 206.117C56.5888 205.805 56.7404 205.355 56.7404 204.765V204.505L55.4404 204.713C54.4438 204.869 53.9454 205.203 53.9454 205.714C53.9454 205.992 54.0581 206.208 54.2834 206.364C54.5174 206.512 54.7948 206.585 55.1154 206.585ZM65.8509 207.703C65.7642 207.703 65.6905 207.673 65.6299 207.612C65.5692 207.552 65.5389 207.478 65.5389 207.391V200.683L63.5759 202.191C63.5239 202.235 63.4589 202.256 63.3809 202.256C63.2769 202.256 63.1945 202.213 63.1339 202.126L62.5749 201.398C62.5315 201.338 62.5099 201.277 62.5099 201.216C62.5099 201.112 62.5575 201.026 62.6529 200.956L65.5649 198.694C65.6602 198.634 65.7685 198.603 65.8899 198.603H67.0599C67.1465 198.603 67.2202 198.634 67.2809 198.694C67.3415 198.755 67.3719 198.829 67.3719 198.915V207.391C67.3719 207.478 67.3415 207.552 67.2809 207.612C67.2202 207.673 67.1465 207.703 67.0599 207.703H65.8509Z" fill="#BED153"/>
<rect x="10.8832" y="197.62" width="11.4338" height="11.4338" rx="5.71691" fill="#BED153"/>
<path d="M119.537 207.833C118.661 207.833 117.99 207.556 117.522 207.001C117.054 206.438 116.798 205.688 116.755 204.752L116.742 204.323L116.755 203.894C116.789 202.976 117.041 202.235 117.509 201.671C117.985 201.099 118.661 200.813 119.537 200.813C120.369 200.813 121.032 201.099 121.526 201.671V198.785C121.526 198.69 121.556 198.616 121.617 198.564C121.677 198.504 121.751 198.473 121.838 198.473H122.969C123.064 198.473 123.138 198.504 123.19 198.564C123.25 198.616 123.281 198.69 123.281 198.785V207.391C123.281 207.478 123.25 207.552 123.19 207.612C123.138 207.673 123.064 207.703 122.969 207.703H121.916C121.829 207.703 121.755 207.673 121.695 207.612C121.634 207.552 121.604 207.478 121.604 207.391V206.91C121.127 207.526 120.438 207.833 119.537 207.833ZM120.031 206.429C120.525 206.429 120.889 206.273 121.123 205.961C121.365 205.641 121.5 205.246 121.526 204.778C121.534 204.674 121.539 204.51 121.539 204.284C121.539 204.05 121.534 203.881 121.526 203.777C121.508 203.344 121.374 202.976 121.123 202.672C120.871 202.369 120.507 202.217 120.031 202.217C119.103 202.217 118.609 202.789 118.549 203.933L118.536 204.323L118.549 204.713C118.609 205.857 119.103 206.429 120.031 206.429ZM126.976 207.833C126.534 207.833 126.127 207.747 125.754 207.573C125.39 207.391 125.1 207.149 124.883 206.845C124.675 206.542 124.571 206.208 124.571 205.844C124.571 205.255 124.809 204.778 125.286 204.414C125.763 204.05 126.417 203.803 127.249 203.673L129.03 203.413V203.14C129.03 202.768 128.935 202.486 128.744 202.295C128.553 202.105 128.25 202.009 127.834 202.009C127.548 202.009 127.318 202.061 127.145 202.165C126.972 202.269 126.829 202.378 126.716 202.49C126.612 202.594 126.543 202.664 126.508 202.698C126.473 202.802 126.408 202.854 126.313 202.854H125.299C125.221 202.854 125.152 202.828 125.091 202.776C125.039 202.724 125.013 202.655 125.013 202.568C125.022 202.352 125.126 202.109 125.325 201.84C125.533 201.563 125.849 201.325 126.274 201.125C126.699 200.917 127.223 200.813 127.847 200.813C128.87 200.813 129.615 201.043 130.083 201.502C130.551 201.962 130.785 202.564 130.785 203.309V207.391C130.785 207.478 130.755 207.552 130.694 207.612C130.642 207.673 130.568 207.703 130.473 207.703H129.394C129.307 207.703 129.234 207.673 129.173 207.612C129.112 207.552 129.082 207.478 129.082 207.391V206.884C128.891 207.162 128.623 207.391 128.276 207.573C127.929 207.747 127.496 207.833 126.976 207.833ZM127.418 206.585C127.895 206.585 128.285 206.429 128.588 206.117C128.891 205.805 129.043 205.355 129.043 204.765V204.505L127.743 204.713C126.746 204.869 126.248 205.203 126.248 205.714C126.248 205.992 126.361 206.208 126.586 206.364C126.82 206.512 127.097 206.585 127.418 206.585ZM135.457 207.703C134.668 207.703 134.075 207.5 133.676 207.092C133.277 206.676 133.078 206.07 133.078 205.272V202.334H132.051C131.964 202.334 131.891 202.304 131.83 202.243C131.769 202.183 131.739 202.109 131.739 202.022V201.255C131.739 201.169 131.769 201.095 131.83 201.034C131.891 200.974 131.964 200.943 132.051 200.943H133.078V198.785C133.078 198.69 133.108 198.616 133.169 198.564C133.23 198.504 133.303 198.473 133.39 198.473H134.469C134.564 198.473 134.638 198.504 134.69 198.564C134.751 198.616 134.781 198.69 134.781 198.785V200.943H136.406C136.493 200.943 136.566 200.974 136.627 201.034C136.688 201.095 136.718 201.169 136.718 201.255V202.022C136.718 202.109 136.688 202.183 136.627 202.243C136.566 202.304 136.493 202.334 136.406 202.334H134.781V205.129C134.781 205.502 134.846 205.784 134.976 205.974C135.106 206.165 135.318 206.26 135.613 206.26H136.523C136.618 206.26 136.692 206.291 136.744 206.351C136.805 206.403 136.835 206.477 136.835 206.572V207.391C136.835 207.478 136.805 207.552 136.744 207.612C136.692 207.673 136.618 207.703 136.523 207.703H135.457ZM139.951 207.833C139.509 207.833 139.101 207.747 138.729 207.573C138.365 207.391 138.074 207.149 137.858 206.845C137.65 206.542 137.546 206.208 137.546 205.844C137.546 205.255 137.784 204.778 138.261 204.414C138.737 204.05 139.392 203.803 140.224 203.673L142.005 203.413V203.14C142.005 202.768 141.909 202.486 141.719 202.295C141.528 202.105 141.225 202.009 140.809 202.009C140.523 202.009 140.293 202.061 140.12 202.165C139.946 202.269 139.803 202.378 139.691 202.49C139.587 202.594 139.517 202.664 139.483 202.698C139.448 202.802 139.383 202.854 139.288 202.854H138.274C138.196 202.854 138.126 202.828 138.066 202.776C138.014 202.724 137.988 202.655 137.988 202.568C137.996 202.352 138.1 202.109 138.3 201.84C138.508 201.563 138.824 201.325 139.249 201.125C139.673 200.917 140.198 200.813 140.822 200.813C141.844 200.813 142.59 201.043 143.058 201.502C143.526 201.962 143.76 202.564 143.76 203.309V207.391C143.76 207.478 143.729 207.552 143.669 207.612C143.617 207.673 143.543 207.703 143.448 207.703H142.369C142.282 207.703 142.208 207.673 142.148 207.612C142.087 207.552 142.057 207.478 142.057 207.391V206.884C141.866 207.162 141.597 207.391 141.251 207.573C140.904 207.747 140.471 207.833 139.951 207.833ZM140.393 206.585C140.869 206.585 141.259 206.429 141.563 206.117C141.866 205.805 142.018 205.355 142.018 204.765V204.505L140.718 204.713C139.721 204.869 139.223 205.203 139.223 205.714C139.223 205.992 139.335 206.208 139.561 206.364C139.795 206.512 140.072 206.585 140.393 206.585ZM148.424 207.703C148.337 207.703 148.264 207.673 148.203 207.612C148.142 207.552 148.112 207.478 148.112 207.391V206.715C148.112 206.473 148.22 206.269 148.437 206.104L150.465 204.089C151.08 203.604 151.553 203.21 151.882 202.906C152.22 202.594 152.471 202.308 152.636 202.048C152.801 201.788 152.883 201.533 152.883 201.281C152.883 200.874 152.775 200.553 152.558 200.319C152.341 200.085 152.012 199.968 151.57 199.968C151.137 199.968 150.794 200.098 150.543 200.358C150.3 200.61 150.149 200.939 150.088 201.346C150.062 201.45 150.01 201.528 149.932 201.58C149.863 201.624 149.785 201.645 149.698 201.645H148.528C148.45 201.645 148.385 201.619 148.333 201.567C148.281 201.515 148.255 201.45 148.255 201.372C148.272 200.861 148.411 200.384 148.671 199.942C148.94 199.492 149.321 199.132 149.815 198.863C150.309 198.586 150.89 198.447 151.557 198.447C152.25 198.447 152.84 198.569 153.325 198.811C153.81 199.045 154.174 199.37 154.417 199.786C154.66 200.202 154.781 200.675 154.781 201.203C154.781 201.784 154.616 202.313 154.287 202.789C153.966 203.257 153.464 203.76 152.779 204.297L150.972 206.13H154.651C154.746 206.13 154.824 206.161 154.885 206.221C154.946 206.282 154.976 206.36 154.976 206.455V207.391C154.976 207.487 154.946 207.565 154.885 207.625C154.824 207.677 154.746 207.703 154.651 207.703H148.424Z" fill="#338BC3"/>
<rect x="96.1604" y="197.62" width="11.4338" height="11.4338" rx="5.71691" fill="#338BC3"/>
<path d="M194.333 207.833C193.458 207.833 192.786 207.556 192.318 207.001C191.85 206.438 191.594 205.688 191.551 204.752L191.538 204.323L191.551 203.894C191.586 202.976 191.837 202.235 192.305 201.671C192.782 201.099 193.458 200.813 194.333 200.813C195.165 200.813 195.828 201.099 196.322 201.671V198.785C196.322 198.69 196.352 198.616 196.413 198.564C196.474 198.504 196.547 198.473 196.634 198.473H197.765C197.86 198.473 197.934 198.504 197.986 198.564C198.047 198.616 198.077 198.69 198.077 198.785V207.391C198.077 207.478 198.047 207.552 197.986 207.612C197.934 207.673 197.86 207.703 197.765 207.703H196.712C196.625 207.703 196.552 207.673 196.491 207.612C196.43 207.552 196.4 207.478 196.4 207.391V206.91C195.923 207.526 195.234 207.833 194.333 207.833ZM194.827 206.429C195.321 206.429 195.685 206.273 195.919 205.961C196.162 205.641 196.296 205.246 196.322 204.778C196.331 204.674 196.335 204.51 196.335 204.284C196.335 204.05 196.331 203.881 196.322 203.777C196.305 203.344 196.17 202.976 195.919 202.672C195.668 202.369 195.304 202.217 194.827 202.217C193.9 202.217 193.406 202.789 193.345 203.933L193.332 204.323L193.345 204.713C193.406 205.857 193.9 206.429 194.827 206.429ZM201.772 207.833C201.33 207.833 200.923 207.747 200.55 207.573C200.186 207.391 199.896 207.149 199.679 206.845C199.471 206.542 199.367 206.208 199.367 205.844C199.367 205.255 199.606 204.778 200.082 204.414C200.559 204.05 201.213 203.803 202.045 203.673L203.826 203.413V203.14C203.826 202.768 203.731 202.486 203.54 202.295C203.35 202.105 203.046 202.009 202.63 202.009C202.344 202.009 202.115 202.061 201.941 202.165C201.768 202.269 201.625 202.378 201.512 202.49C201.408 202.594 201.339 202.664 201.304 202.698C201.27 202.802 201.205 202.854 201.109 202.854H200.095C200.017 202.854 199.948 202.828 199.887 202.776C199.835 202.724 199.809 202.655 199.809 202.568C199.818 202.352 199.922 202.109 200.121 201.84C200.329 201.563 200.646 201.325 201.07 201.125C201.495 200.917 202.019 200.813 202.643 200.813C203.666 200.813 204.411 201.043 204.879 201.502C205.347 201.962 205.581 202.564 205.581 203.309V207.391C205.581 207.478 205.551 207.552 205.49 207.612C205.438 207.673 205.365 207.703 205.269 207.703H204.19C204.104 207.703 204.03 207.673 203.969 207.612C203.909 207.552 203.878 207.478 203.878 207.391V206.884C203.688 207.162 203.419 207.391 203.072 207.573C202.726 207.747 202.292 207.833 201.772 207.833ZM202.214 206.585C202.691 206.585 203.081 206.429 203.384 206.117C203.688 205.805 203.839 205.355 203.839 204.765V204.505L202.539 204.713C201.543 204.869 201.044 205.203 201.044 205.714C201.044 205.992 201.157 206.208 201.382 206.364C201.616 206.512 201.894 206.585 202.214 206.585ZM210.253 207.703C209.465 207.703 208.871 207.5 208.472 207.092C208.074 206.676 207.874 206.07 207.874 205.272V202.334H206.847C206.761 202.334 206.687 202.304 206.626 202.243C206.566 202.183 206.535 202.109 206.535 202.022V201.255C206.535 201.169 206.566 201.095 206.626 201.034C206.687 200.974 206.761 200.943 206.847 200.943H207.874V198.785C207.874 198.69 207.905 198.616 207.965 198.564C208.026 198.504 208.1 198.473 208.186 198.473H209.265C209.361 198.473 209.434 198.504 209.486 198.564C209.547 198.616 209.577 198.69 209.577 198.785V200.943H211.202C211.289 200.943 211.363 200.974 211.423 201.034C211.484 201.095 211.514 201.169 211.514 201.255V202.022C211.514 202.109 211.484 202.183 211.423 202.243C211.363 202.304 211.289 202.334 211.202 202.334H209.577V205.129C209.577 205.502 209.642 205.784 209.772 205.974C209.902 206.165 210.115 206.26 210.409 206.26H211.319C211.415 206.26 211.488 206.291 211.54 206.351C211.601 206.403 211.631 206.477 211.631 206.572V207.391C211.631 207.478 211.601 207.552 211.54 207.612C211.488 207.673 211.415 207.703 211.319 207.703H210.253ZM214.747 207.833C214.305 207.833 213.898 207.747 213.525 207.573C213.161 207.391 212.871 207.149 212.654 206.845C212.446 206.542 212.342 206.208 212.342 205.844C212.342 205.255 212.58 204.778 213.057 204.414C213.534 204.05 214.188 203.803 215.02 203.673L216.801 203.413V203.14C216.801 202.768 216.706 202.486 216.515 202.295C216.324 202.105 216.021 202.009 215.605 202.009C215.319 202.009 215.089 202.061 214.916 202.165C214.743 202.269 214.6 202.378 214.487 202.49C214.383 202.594 214.314 202.664 214.279 202.698C214.244 202.802 214.179 202.854 214.084 202.854H213.07C212.992 202.854 212.923 202.828 212.862 202.776C212.81 202.724 212.784 202.655 212.784 202.568C212.793 202.352 212.897 202.109 213.096 201.84C213.304 201.563 213.62 201.325 214.045 201.125C214.47 200.917 214.994 200.813 215.618 200.813C216.641 200.813 217.386 201.043 217.854 201.502C218.322 201.962 218.556 202.564 218.556 203.309V207.391C218.556 207.478 218.526 207.552 218.465 207.612C218.413 207.673 218.339 207.703 218.244 207.703H217.165C217.078 207.703 217.005 207.673 216.944 207.612C216.883 207.552 216.853 207.478 216.853 207.391V206.884C216.662 207.162 216.394 207.391 216.047 207.573C215.7 207.747 215.267 207.833 214.747 207.833ZM215.189 206.585C215.666 206.585 216.056 206.429 216.359 206.117C216.662 205.805 216.814 205.355 216.814 204.765V204.505L215.514 204.713C214.517 204.869 214.019 205.203 214.019 205.714C214.019 205.992 214.132 206.208 214.357 206.364C214.591 206.512 214.868 206.585 215.189 206.585ZM226.379 207.833C225.608 207.833 224.954 207.712 224.416 207.469C223.888 207.227 223.489 206.923 223.22 206.559C222.96 206.187 222.822 205.805 222.804 205.415C222.804 205.337 222.83 205.272 222.882 205.22C222.934 205.168 222.999 205.142 223.077 205.142H224.273C224.464 205.142 224.594 205.229 224.663 205.402C224.854 206.018 225.426 206.325 226.379 206.325C226.908 206.325 227.32 206.204 227.614 205.961C227.918 205.719 228.069 205.372 228.069 204.921C228.069 204.471 227.931 204.146 227.653 203.946C227.385 203.738 226.986 203.634 226.457 203.634H225.118C225.032 203.634 224.958 203.604 224.897 203.543C224.837 203.483 224.806 203.409 224.806 203.322V202.763C224.806 202.599 224.863 202.469 224.975 202.373L227.289 200.111H223.584C223.489 200.111 223.411 200.081 223.35 200.02C223.29 199.96 223.259 199.886 223.259 199.799V198.928C223.259 198.833 223.29 198.755 223.35 198.694C223.411 198.634 223.489 198.603 223.584 198.603H229.174C229.27 198.603 229.348 198.634 229.408 198.694C229.469 198.755 229.499 198.833 229.499 198.928V199.721C229.499 199.869 229.443 199.99 229.33 200.085L227.094 202.386L227.25 202.399C228.082 202.469 228.741 202.72 229.226 203.153C229.72 203.587 229.967 204.206 229.967 205.012C229.967 205.584 229.811 206.083 229.499 206.507C229.196 206.932 228.771 207.261 228.225 207.495C227.688 207.721 227.073 207.833 226.379 207.833Z" fill="#5D5FEF"/>
<rect x="170.957" y="197.62" width="11.4338" height="11.4338" rx="5.71691" fill="#5D5FEF"/>
<path fill-rule="evenodd" clip-rule="evenodd" d="M174.308 0.231445C169.338 0.231445 165.308 4.2609 165.308 9.23146V35.0611C165.308 35.0688 165.308 35.0765 165.308 35.0842V45.5544C165.308 50.2619 171.22 52.3609 174.189 48.7074L177.964 44.0611H241.109C246.08 44.0611 250.109 40.0316 250.109 35.0611V9.23145C250.109 4.26088 246.08 0.231445 241.109 0.231445H174.308Z" fill="url(#paint3_linear)"/>
<path d="M175.158 34.398C175.071 34.398 174.997 34.372 174.937 34.32C174.885 34.2594 174.859 34.1857 174.859 34.099V27.937C174.859 27.8504 174.885 27.781 174.937 27.729C174.997 27.6684 175.071 27.638 175.158 27.638H175.717C175.812 27.638 175.886 27.664 175.938 27.716C175.99 27.768 176.016 27.8417 176.016 27.937V28.509C176.276 28.1884 176.575 27.9414 176.913 27.768C177.259 27.5947 177.688 27.508 178.2 27.508C179.032 27.508 179.677 27.7767 180.137 28.314C180.596 28.8427 180.826 29.5447 180.826 30.42V34.099C180.826 34.1857 180.795 34.2594 180.735 34.32C180.683 34.372 180.613 34.398 180.527 34.398H179.929C179.842 34.398 179.768 34.372 179.708 34.32C179.656 34.2594 179.63 34.1857 179.63 34.099V30.498C179.63 29.874 179.478 29.3887 179.175 29.042C178.871 28.6954 178.438 28.522 177.875 28.522C177.32 28.522 176.878 28.6997 176.549 29.055C176.219 29.4017 176.055 29.8827 176.055 30.498V34.099C176.055 34.1857 176.024 34.2594 175.964 34.32C175.912 34.372 175.842 34.398 175.756 34.398H175.158ZM185.226 34.528C184.403 34.528 183.766 34.2637 183.315 33.735C182.865 33.1977 182.639 32.487 182.639 31.603V27.937C182.639 27.8504 182.665 27.781 182.717 27.729C182.778 27.6684 182.852 27.638 182.938 27.638H183.536C183.623 27.638 183.692 27.6684 183.744 27.729C183.805 27.781 183.835 27.8504 183.835 27.937V31.538C183.835 32.8554 184.407 33.514 185.551 33.514C186.106 33.514 186.544 33.3407 186.864 32.994C187.194 32.6387 187.358 32.1534 187.358 31.538V27.937C187.358 27.8504 187.384 27.781 187.436 27.729C187.497 27.6684 187.571 27.638 187.657 27.638H188.255C188.342 27.638 188.411 27.6684 188.463 27.729C188.524 27.781 188.554 27.8504 188.554 27.937V34.099C188.554 34.1857 188.524 34.2594 188.463 34.32C188.411 34.372 188.342 34.398 188.255 34.398H187.696C187.61 34.398 187.536 34.372 187.475 34.32C187.423 34.2594 187.397 34.1857 187.397 34.099V33.514C187.146 33.852 186.851 34.1077 186.513 34.281C186.175 34.4457 185.746 34.528 185.226 34.528ZM190.798 34.398C190.712 34.398 190.638 34.372 190.577 34.32C190.525 34.2594 190.499 34.1857 190.499 34.099V27.937C190.499 27.8504 190.525 27.781 190.577 27.729C190.638 27.6684 190.712 27.638 190.798 27.638H191.344C191.431 27.638 191.5 27.6684 191.552 27.729C191.604 27.781 191.63 27.8504 191.63 27.937V28.379C192.098 27.7984 192.731 27.508 193.528 27.508C194.482 27.508 195.158 27.9067 195.556 28.704C195.764 28.34 196.059 28.0497 196.44 27.833C196.83 27.6164 197.264 27.508 197.74 27.508C198.451 27.508 199.032 27.7507 199.482 28.236C199.933 28.7214 200.158 29.4234 200.158 30.342V34.099C200.158 34.1857 200.128 34.2594 200.067 34.32C200.015 34.372 199.946 34.398 199.859 34.398H199.3C199.214 34.398 199.14 34.372 199.079 34.32C199.027 34.2594 199.001 34.1857 199.001 34.099V30.459C199.001 29.7657 198.858 29.2717 198.572 28.977C198.286 28.6737 197.909 28.522 197.441 28.522C197.025 28.522 196.666 28.678 196.362 28.99C196.068 29.2934 195.92 29.783 195.92 30.459V34.099C195.92 34.1857 195.89 34.2594 195.829 34.32C195.777 34.372 195.708 34.398 195.621 34.398H195.049C194.963 34.398 194.889 34.372 194.828 34.32C194.776 34.2594 194.75 34.1857 194.75 34.099V30.459C194.75 29.7744 194.599 29.2804 194.295 28.977C194.001 28.6737 193.632 28.522 193.19 28.522C192.774 28.522 192.415 28.6737 192.111 28.977C191.817 29.2804 191.669 29.77 191.669 30.446V34.099C191.669 34.1857 191.639 34.2594 191.578 34.32C191.526 34.372 191.457 34.398 191.37 34.398H190.798ZM205.341 34.528C204.405 34.528 203.69 34.1987 203.196 33.54V34.099C203.196 34.1857 203.166 34.2594 203.105 34.32C203.053 34.372 202.984 34.398 202.897 34.398H202.351C202.265 34.398 202.191 34.372 202.13 34.32C202.078 34.2594 202.052 34.1857 202.052 34.099V25.467C202.052 25.3717 202.078 25.298 202.13 25.246C202.191 25.194 202.265 25.168 202.351 25.168H202.936C203.023 25.168 203.092 25.1984 203.144 25.259C203.205 25.311 203.235 25.3804 203.235 25.467V28.47C203.721 27.8287 204.423 27.508 205.341 27.508C206.251 27.508 206.932 27.807 207.382 28.405C207.842 28.9944 208.084 29.7354 208.11 30.628C208.119 30.7234 208.123 30.8534 208.123 31.018C208.123 31.1827 208.119 31.3127 208.11 31.408C208.084 32.3007 207.842 33.046 207.382 33.644C206.932 34.2334 206.251 34.528 205.341 34.528ZM205.094 33.514C205.718 33.514 206.173 33.319 206.459 32.929C206.745 32.539 206.901 32.0277 206.927 31.395C206.936 31.3084 206.94 31.1827 206.94 31.018C206.94 29.354 206.325 28.522 205.094 28.522C204.505 28.522 204.05 28.717 203.729 29.107C203.417 29.4884 203.253 29.9434 203.235 30.472C203.227 30.5674 203.222 30.7364 203.222 30.979C203.222 31.213 203.227 31.3777 203.235 31.473C203.253 32.0277 203.413 32.5087 203.716 32.916C204.028 33.3147 204.488 33.514 205.094 33.514ZM212.436 34.528C211.552 34.528 210.846 34.255 210.317 33.709C209.788 33.1544 209.498 32.4004 209.446 31.447L209.433 31.005L209.446 30.576C209.498 29.64 209.788 28.8947 210.317 28.34C210.846 27.7854 211.552 27.508 212.436 27.508C213.389 27.508 214.126 27.8114 214.646 28.418C215.175 29.0247 215.439 29.848 215.439 30.888V31.122C215.439 31.2087 215.409 31.2824 215.348 31.343C215.296 31.395 215.227 31.421 215.14 31.421H210.629V31.538C210.655 32.1014 210.828 32.5824 211.149 32.981C211.47 33.3797 211.894 33.579 212.423 33.579C212.83 33.579 213.16 33.501 213.411 33.345C213.671 33.1804 213.866 33.0114 213.996 32.838C214.074 32.734 214.135 32.6734 214.178 32.656C214.221 32.63 214.295 32.617 214.399 32.617H214.971C215.049 32.617 215.114 32.6387 215.166 32.682C215.227 32.7254 215.257 32.7817 215.257 32.851C215.257 33.0417 215.14 33.2714 214.906 33.54C214.672 33.8087 214.338 34.0427 213.905 34.242C213.48 34.4327 212.991 34.528 212.436 34.528ZM214.256 30.537V30.498C214.256 29.8914 214.091 29.3974 213.762 29.016C213.433 28.6347 212.991 28.444 212.436 28.444C211.873 28.444 211.431 28.6347 211.11 29.016C210.789 29.3974 210.629 29.8914 210.629 30.498V30.537H214.256ZM217.319 34.398C217.232 34.398 217.158 34.372 217.098 34.32C217.046 34.2594 217.02 34.1857 217.02 34.099V27.95C217.02 27.8634 217.046 27.7897 217.098 27.729C217.158 27.6684 217.232 27.638 217.319 27.638H217.865C217.96 27.638 218.034 27.6684 218.086 27.729C218.146 27.781 218.177 27.8547 218.177 27.95V28.522C218.532 27.9327 219.134 27.638 219.984 27.638H220.491C220.586 27.638 220.66 27.664 220.712 27.716C220.764 27.768 220.79 27.8417 220.79 27.937V28.418C220.79 28.5047 220.764 28.5784 220.712 28.639C220.66 28.691 220.586 28.717 220.491 28.717H219.75C219.273 28.717 218.896 28.8557 218.619 29.133C218.35 29.4104 218.216 29.7874 218.216 30.264V34.099C218.216 34.1857 218.185 34.2594 218.125 34.32C218.064 34.372 217.99 34.398 217.904 34.398H217.319Z" fill="#BED153"/>
<path d="M175.534 19.9012C175.434 19.9012 175.354 19.8712 175.294 19.8112C175.234 19.7412 175.204 19.6562 175.204 19.5562V9.76124C175.204 9.65124 175.234 9.56624 175.294 9.50624C175.354 9.43624 175.434 9.40124 175.534 9.40124H179.194C180.334 9.40124 181.224 9.67124 181.864 10.2112C182.514 10.7412 182.839 11.5162 182.839 12.5362C182.839 13.2962 182.649 13.9212 182.269 14.4112C181.889 14.9012 181.359 15.2412 180.679 15.4312L182.989 19.4362C183.019 19.4962 183.034 19.5512 183.034 19.6012C183.034 19.6812 183.004 19.7512 182.944 19.8112C182.884 19.8712 182.814 19.9012 182.734 19.9012H182.074C181.924 19.9012 181.804 19.8662 181.714 19.7962C181.634 19.7262 181.559 19.6262 181.489 19.4962L179.284 15.6562H176.614V19.5562C176.614 19.6562 176.579 19.7412 176.509 19.8112C176.439 19.8712 176.354 19.9012 176.254 19.9012H175.534ZM179.134 14.4262C180.644 14.4262 181.399 13.7912 181.399 12.5212C181.399 11.2512 180.644 10.6162 179.134 10.6162H176.614V14.4262H179.134ZM187.825 20.0512C186.805 20.0512 185.99 19.7362 185.38 19.1062C184.77 18.4662 184.435 17.5962 184.375 16.4962L184.36 15.9862L184.375 15.4912C184.435 14.4112 184.77 13.5512 185.38 12.9112C185.99 12.2712 186.805 11.9512 187.825 11.9512C188.925 11.9512 189.775 12.3012 190.375 13.0012C190.985 13.7012 191.29 14.6512 191.29 15.8512V16.1212C191.29 16.2212 191.255 16.3062 191.185 16.3762C191.125 16.4362 191.045 16.4662 190.945 16.4662H185.74V16.6012C185.77 17.2512 185.97 17.8062 186.34 18.2662C186.71 18.7262 187.2 18.9562 187.81 18.9562C188.28 18.9562 188.66 18.8662 188.95 18.6862C189.25 18.4962 189.475 18.3012 189.625 18.1012C189.715 17.9812 189.785 17.9112 189.835 17.8912C189.885 17.8612 189.97 17.8462 190.09 17.8462H190.75C190.84 17.8462 190.915 17.8712 190.975 17.9212C191.045 17.9712 191.08 18.0362 191.08 18.1162C191.08 18.3362 190.945 18.6012 190.675 18.9112C190.405 19.2212 190.02 19.4912 189.52 19.7212C189.03 19.9412 188.465 20.0512 187.825 20.0512ZM189.925 15.4462V15.4012C189.925 14.7012 189.735 14.1312 189.355 13.6912C188.975 13.2512 188.465 13.0312 187.825 13.0312C187.175 13.0312 186.665 13.2512 186.295 13.6912C185.925 14.1312 185.74 14.7012 185.74 15.4012V15.4462H189.925ZM193.474 19.9012C193.374 19.9012 193.289 19.8712 193.219 19.8112C193.159 19.7412 193.129 19.6562 193.129 19.5562V9.59624C193.129 9.48624 193.159 9.40124 193.219 9.34124C193.289 9.28124 193.374 9.25124 193.474 9.25124H194.134C194.234 9.25124 194.314 9.28624 194.374 9.35624C194.444 9.41624 194.479 9.49624 194.479 9.59624V19.5562C194.479 19.6562 194.444 19.7412 194.374 19.8112C194.314 19.8712 194.234 19.9012 194.134 19.9012H193.474ZM199.822 20.0512C198.802 20.0512 197.987 19.7362 197.377 19.1062C196.767 18.4662 196.432 17.5962 196.372 16.4962L196.357 15.9862L196.372 15.4912C196.432 14.4112 196.767 13.5512 197.377 12.9112C197.987 12.2712 198.802 11.9512 199.822 11.9512C200.922 11.9512 201.772 12.3012 202.372 13.0012C202.982 13.7012 203.287 14.6512 203.287 15.8512V16.1212C203.287 16.2212 203.252 16.3062 203.182 16.3762C203.122 16.4362 203.042 16.4662 202.942 16.4662H197.737V16.6012C197.767 17.2512 197.967 17.8062 198.337 18.2662C198.707 18.7262 199.197 18.9562 199.807 18.9562C200.277 18.9562 200.657 18.8662 200.947 18.6862C201.247 18.4962 201.472 18.3012 201.622 18.1012C201.712 17.9812 201.782 17.9112 201.832 17.8912C201.882 17.8612 201.967 17.8462 202.087 17.8462H202.747C202.837 17.8462 202.912 17.8712 202.972 17.9212C203.042 17.9712 203.077 18.0362 203.077 18.1162C203.077 18.3362 202.942 18.6012 202.672 18.9112C202.402 19.2212 202.017 19.4912 201.517 19.7212C201.027 19.9412 200.462 20.0512 199.822 20.0512ZM201.922 15.4462V15.4012C201.922 14.7012 201.732 14.1312 201.352 13.6912C200.972 13.2512 200.462 13.0312 199.822 13.0312C199.172 13.0312 198.662 13.2512 198.292 13.6912C197.922 14.1312 197.737 14.7012 197.737 15.4012V15.4462H201.922ZM207.563 19.9012C207.303 19.9012 207.118 19.7762 207.008 19.5262L204.218 12.5662C204.208 12.5362 204.203 12.4862 204.203 12.4162C204.203 12.3262 204.233 12.2512 204.293 12.1912C204.353 12.1312 204.423 12.1012 204.503 12.1012H205.193C205.353 12.1012 205.473 12.1812 205.553 12.3412L207.863 18.3262L210.173 12.3412C210.193 12.2812 210.233 12.2262 210.293 12.1762C210.363 12.1262 210.443 12.1012 210.533 12.1012H211.223C211.303 12.1012 211.373 12.1312 211.433 12.1912C211.493 12.2512 211.523 12.3262 211.523 12.4162L211.493 12.5662L208.718 19.5262C208.608 19.7762 208.423 19.9012 208.163 19.9012H207.563ZM214.991 20.0512C214.501 20.0512 214.046 19.9512 213.626 19.7512C213.216 19.5512 212.886 19.2812 212.636 18.9412C212.396 18.5912 212.276 18.2062 212.276 17.7862C212.276 17.1262 212.546 16.5862 213.086 16.1662C213.626 15.7462 214.361 15.4662 215.291 15.3262L217.541 15.0112V14.5762C217.541 13.5462 216.946 13.0312 215.756 13.0312C215.296 13.0312 214.926 13.1262 214.646 13.3162C214.366 13.4962 214.161 13.7112 214.031 13.9612C213.991 14.0612 213.946 14.1312 213.896 14.1712C213.856 14.2012 213.796 14.2162 213.716 14.2162H213.131C213.041 14.2162 212.961 14.1862 212.891 14.1262C212.831 14.0562 212.801 13.9762 212.801 13.8862C212.801 13.6562 212.906 13.3912 213.116 13.0912C213.336 12.7812 213.671 12.5162 214.121 12.2962C214.571 12.0662 215.121 11.9512 215.771 11.9512C216.891 11.9512 217.691 12.2112 218.171 12.7312C218.661 13.2512 218.906 13.9012 218.906 14.6812V19.5562C218.906 19.6562 218.871 19.7412 218.801 19.8112C218.741 19.8712 218.661 19.9012 218.561 19.9012H217.901C217.801 19.9012 217.721 19.8712 217.661 19.8112C217.601 19.7412 217.571 19.6562 217.571 19.5562V18.8962C217.351 19.2262 217.031 19.5012 216.611 19.7212C216.191 19.9412 215.651 20.0512 214.991 20.0512ZM215.291 18.9562C215.951 18.9562 216.491 18.7412 216.911 18.3112C217.331 17.8812 217.541 17.2562 217.541 16.4362V16.0162L215.786 16.2712C215.066 16.3712 214.521 16.5412 214.151 16.7812C213.781 17.0212 213.596 17.3212 213.596 17.6812C213.596 18.0912 213.761 18.4062 214.091 18.6262C214.431 18.8462 214.831 18.9562 215.291 18.9562ZM221.423 19.9012C221.323 19.9012 221.238 19.8712 221.168 19.8112C221.108 19.7412 221.078 19.6562 221.078 19.5562V12.4462C221.078 12.3462 221.108 12.2662 221.168 12.2062C221.238 12.1362 221.323 12.1012 221.423 12.1012H222.068C222.178 12.1012 222.263 12.1312 222.323 12.1912C222.383 12.2512 222.413 12.3362 222.413 12.4462V13.1062C222.713 12.7362 223.058 12.4512 223.448 12.2512C223.848 12.0512 224.343 11.9512 224.933 11.9512C225.893 11.9512 226.638 12.2612 227.168 12.8812C227.698 13.4912 227.963 14.3012 227.963 15.3112V19.5562C227.963 19.6562 227.928 19.7412 227.858 19.8112C227.798 19.8712 227.718 19.9012 227.618 19.9012H226.928C226.828 19.9012 226.743 19.8712 226.673 19.8112C226.613 19.7412 226.583 19.6562 226.583 19.5562V15.4012C226.583 14.6812 226.408 14.1212 226.058 13.7212C225.708 13.3212 225.208 13.1212 224.558 13.1212C223.918 13.1212 223.408 13.3262 223.028 13.7362C222.648 14.1362 222.458 14.6912 222.458 15.4012V19.5562C222.458 19.6562 222.423 19.7412 222.353 19.8112C222.293 19.8712 222.213 19.9012 222.113 19.9012H221.423ZM233.028 19.9012C231.478 19.9012 230.703 19.0262 230.703 17.2762V13.2562H229.518C229.418 13.2562 229.338 13.2262 229.278 13.1662C229.218 13.1062 229.188 13.0262 229.188 12.9262V12.4462C229.188 12.3462 229.218 12.2662 229.278 12.2062C229.338 12.1362 229.418 12.1012 229.518 12.1012H230.703V9.59624C230.703 9.49624 230.733 9.41624 230.793 9.35624C230.853 9.28624 230.933 9.25124 231.033 9.25124H231.693C231.793 9.25124 231.873 9.28624 231.933 9.35624C232.003 9.41624 232.038 9.49624 232.038 9.59624V12.1012H233.898C233.998 12.1012 234.078 12.1362 234.138 12.2062C234.208 12.2662 234.243 12.3462 234.243 12.4462V12.9262C234.243 13.0262 234.208 13.1062 234.138 13.1662C234.078 13.2262 233.998 13.2562 233.898 13.2562H232.038V17.1712C232.038 17.6812 232.118 18.0662 232.278 18.3262C232.448 18.5862 232.733 18.7162 233.133 18.7162H234.048C234.148 18.7162 234.228 18.7512 234.288 18.8212C234.348 18.8812 234.378 18.9612 234.378 19.0612V19.5562C234.378 19.6562 234.348 19.7412 234.288 19.8112C234.228 19.8712 234.148 19.9012 234.048 19.9012H233.028Z" fill="white"/>
<circle cx="168.196" cy="56.8272" r="3.63874" fill="#2A3032"/>
<defs>
<linearGradient id="paint0_linear" x1="160.399" y1="81.2211" x2="160.399" y2="218.427" gradientUnits="userSpaceOnUse">
<stop stop-color="#4E5DA9"/>
<stop offset="1" stop-color="#229DAD"/>
</linearGradient>
<linearGradient id="paint1_linear" x1="-20.7786" y1="63.7657" x2="104.403" y2="345.343" gradientUnits="userSpaceOnUse">
<stop offset="0.1297" stop-color="#2483C5"/>
<stop offset="0.1672" stop-color="#2486C7"/>
<stop offset="0.676" stop-color="#29B1DF"/>
<stop offset="0.9352" stop-color="#2BC2E8"/>
</linearGradient>
<linearGradient id="paint2_linear" x1="326.653" y1="218.427" x2="184.927" y2="-65.1715" gradientUnits="userSpaceOnUse">
<stop stop-color="#0097CE"/>
<stop offset="0.1875" stop-color="#0999C5"/>
<stop offset="0.348958" stop-color="#229DAD"/>
<stop offset="0.510417" stop-color="#42A38F"/>
<stop offset="0.666667" stop-color="#5DAD82"/>
<stop offset="0.822016" stop-color="#A1C661"/>
<stop offset="1" stop-color="#BED153"/>
</linearGradient>
<linearGradient id="paint3_linear" x1="167.54" y1="52.5929" x2="223.85" y2="-25.5818" gradientUnits="userSpaceOnUse">
<stop stop-color="#4F595E"/>
<stop offset="1" stop-color="#101416"/>
</linearGradient>
</defs>
</svg>
