<svg width="374" height="1046" viewBox="0 0 374 1046" fill="none" xmlns="http://www.w3.org/2000/svg">
<mask id="mask0_837_5631" style="mask-type:alpha" maskUnits="userSpaceOnUse" x="0" y="-1" width="375" height="1092">
<rect y="-1" width="375" height="1092" fill="#282E38"/>
</mask>
<g mask="url(#mask0_837_5631)">
<g opacity="0.2">
<path fill-rule="evenodd" clip-rule="evenodd" d="M661.553 255.163C811.339 224.3 887.029 225.883 921.288 230.631C926.068 231.422 926.865 238.545 920.491 240.127C911.71 241.128 901.108 242.052 889.038 243.103C834.305 247.87 749.38 255.267 667.13 284.444L667.128 284.445C650.397 290.776 633.666 297.106 617.732 305.02C616.851 305.895 614.508 307.012 611.376 308.505C608.845 309.712 605.799 311.165 602.594 312.933C581.083 324.013 557.977 352.502 545.23 374.66L401.817 616.819C401.122 617.991 400.366 619.271 399.548 620.656C369.426 671.655 255.778 864.072 41.6935 964.23C-247.521 1098.76 -511.24 1026.75 -511.24 1026.75C-511.24 1026.75 -411.648 1001.42 -292.935 919.122C-210.871 865.309 -130.401 791.712 -60.2885 690.416C-20.4837 654.883 -3.30249 618.717 9.99561 590.725C17.7253 574.454 24.1431 560.945 32.9294 551.927C67.4752 517.614 106.767 492.73 143.925 469.197C147.045 467.222 150.15 465.255 153.236 463.293C210.007 441.752 254.521 372.529 282.69 328.725C289.706 317.815 295.707 308.482 300.632 301.854C319.754 276.53 337.282 261.494 359.591 249.624C399.427 229.048 467.15 220.343 549.213 248.041C567.538 253.581 588.253 259.12 607.375 260.703C625.6 261.214 643.815 259.351 661.553 255.163ZM499.495 317.064C499.495 330.177 488.794 340.806 475.592 340.806C462.391 340.806 451.69 330.177 451.69 317.064C451.69 303.952 462.391 293.322 475.592 293.322C488.794 293.322 499.495 303.952 499.495 317.064Z" fill="url(#paint0_linear_837_5631)"/>
<path fill-rule="evenodd" clip-rule="evenodd" d="M661.553 255.166C811.339 224.303 887.029 225.886 921.289 230.634C922.36 230.762 923.346 231.276 924.062 232.078C924.777 232.88 925.173 233.914 925.173 234.986C925.173 236.058 924.777 237.092 924.062 237.894C923.346 238.696 922.36 239.21 921.289 239.339C919.157 239.582 916.884 239.838 914.478 240.11C862.033 246.033 746.314 259.102 648.805 293.152C641.677 295.984 637.738 297.074 634.206 298.051C629.842 299.259 626.099 300.294 617.733 304.231C616.851 305.106 614.508 306.224 611.376 307.717C608.846 308.924 605.8 310.376 602.595 312.145C581.083 323.224 557.978 351.713 545.23 373.871L401.818 616.03C389.487 637.369 375.92 657.98 361.185 677.757C326.128 724.448 254.422 752.146 165.984 749.772C114.993 750.563 56.8319 741.858 -10.0938 712.577C-23.6384 707.038 -45.1501 696.75 -61.0848 688.045C-69.0522 683.297 -81.0032 676.174 -83.3934 674.592C-108.28 658.271 -132.22 640.569 -155.099 621.57C-174.221 606.534 -191.749 590.707 -210.074 573.297C-294.528 491.786 -377.388 388.116 -443.517 285.238C-457.859 263.08 -471.403 240.922 -483.354 219.555C-516.02 162.576 -543.109 106.389 -561.434 57.3239C-569.402 35.1656 -567.808 22.5037 -566.215 17.7555C-563.028 3.51085 -552.67 -5.19421 -534.345 0.345385C-492.118 16.1728 -453.875 31.2088 -417.225 47.8275C-335.162 86.6046 -253.098 136.461 -171.831 191.857C-139.962 212.432 -102.515 240.922 -64.2719 270.994C3.45056 326.389 73.5632 388.908 153.237 463.296C210.007 441.755 254.521 372.532 282.69 328.727C289.706 317.818 295.708 308.484 300.633 301.857C319.754 276.533 337.282 261.497 359.591 249.627C400.224 227.468 464.76 220.346 549.214 248.044C567.539 253.583 588.254 259.123 607.375 260.706C625.601 261.216 643.815 259.354 661.553 255.166ZM499.496 317.07C499.496 330.182 488.794 340.812 475.593 340.812C462.392 340.812 451.69 330.182 451.69 317.07C451.69 303.958 462.392 293.328 475.593 293.328C488.794 293.328 499.496 303.958 499.496 317.07Z" fill="url(#paint1_linear_837_5631)"/>
<path d="M-8.50026 477.541C48.0679 484.663 103.043 480.707 152.44 461.714C104.636 417.397 59.2222 377.037 16.9952 340.634C-4.51665 322.433 -25.2317 304.231 -45.1501 287.613C-45.9468 286.821 -47.5403 286.03 -47.5403 285.238C-53.1174 280.49 -57.8978 276.533 -62.6782 272.577C-64.2717 271.785 -65.0684 270.202 -65.8651 270.202C-104.108 240.13 -141.555 212.432 -171.831 191.066C-253.098 136.461 -334.365 85.8134 -416.428 47.0363C-423.599 43.0795 -430.77 40.7054 -438.737 36.7486C-441.127 35.9572 -443.517 34.3745 -445.111 34.3745C-128.01 204.519 -26.8251 358.836 -8.50026 477.541Z" fill="url(#paint2_linear_837_5631)"/>
<path d="M-355.877 311.354C-441.128 243.296 -521.598 148.332 -555.857 73.1519C-476.184 273.368 -269.033 557.47 -84.1906 674.592C-81.0036 676.966 -69.8493 683.297 -61.0853 688.046C-37.1832 651.642 6.6372 576.463 -8.50076 477.541C-122.434 462.505 -245.131 400.779 -355.877 311.354Z" fill="url(#paint3_linear_837_5631)"/>
<path fill-rule="evenodd" clip-rule="evenodd" d="M661.553 255.163C811.339 224.3 887.029 225.883 921.288 230.631C926.069 231.422 926.866 238.545 922.882 241.71C890.216 244.876 753.177 263.077 662.35 293.149C605.073 312.359 575.576 343.296 568.671 350.538C568.18 351.053 567.803 351.448 567.539 351.71C567.239 352.157 566.374 353.137 564.956 354.744C558.839 361.675 542.419 380.282 516.548 418.185C501.41 440.344 453.605 508.402 376.322 533.725C295.852 559.84 209.805 516.315 154.033 464.085C210.804 442.543 255.318 373.321 283.487 329.516C290.502 318.606 296.504 309.273 301.429 302.646C314.227 284.421 330.462 268.833 349.233 256.746C372.696 241.064 399.897 231.785 428.11 229.84C460.776 227.466 501.409 232.214 549.213 248.041C567.538 253.581 588.254 259.12 607.375 260.703C625.6 261.214 643.815 259.351 661.553 255.163ZM499.495 317.064C499.495 330.176 488.794 340.806 475.593 340.806C462.391 340.806 451.69 330.176 451.69 317.064C451.69 303.952 462.391 293.322 475.593 293.322C488.794 293.322 499.495 303.952 499.495 317.064Z" fill="url(#paint4_linear_837_5631)"/>
</g>
</g>
<defs>
<linearGradient id="paint0_linear_837_5631" x1="952.123" y1="567.627" x2="-538.704" y2="688.805" gradientUnits="userSpaceOnUse">
<stop offset="0.2986" stop-color="#0097CE"/>
<stop offset="0.3791" stop-color="#0999C5"/>
<stop offset="0.5119" stop-color="#229DAD"/>
<stop offset="0.6469" stop-color="#42A38F"/>
<stop offset="0.7352" stop-color="#5DAD82"/>
<stop offset="0.9239" stop-color="#A1C661"/>
<stop offset="1" stop-color="#BED153"/>
</linearGradient>
<linearGradient id="paint1_linear_837_5631" x1="-611.899" y1="182.51" x2="829.349" y2="581.757" gradientUnits="userSpaceOnUse">
<stop offset="0.08199" stop-color="#3D65AF"/>
<stop offset="0.2305" stop-color="#2372B8"/>
<stop offset="0.5058" stop-color="#00B8BB"/>
</linearGradient>
<linearGradient id="paint2_linear_837_5631" x1="-486.79" y1="184.847" x2="178.118" y2="369.037" gradientUnits="userSpaceOnUse">
<stop offset="0.1297" stop-color="#2483C5"/>
<stop offset="0.1672" stop-color="#2486C7"/>
<stop offset="0.676" stop-color="#29B1DF"/>
<stop offset="0.9352" stop-color="#2BC2E8"/>
</linearGradient>
<linearGradient id="paint3_linear_837_5631" x1="-617.616" y1="296.11" x2="17.4917" y2="472.045" gradientUnits="userSpaceOnUse">
<stop offset="0.1297" stop-color="#3B67AD"/>
<stop offset="0.5697" stop-color="#227CAA"/>
<stop offset="0.9352" stop-color="#118AA8"/>
</linearGradient>
<linearGradient id="paint4_linear_837_5631" x1="205.114" y1="275.083" x2="863.946" y2="457.589" gradientUnits="userSpaceOnUse">
<stop offset="0.1724" stop-color="#4E5CA8"/>
<stop offset="0.9937" stop-color="#1FC3F3"/>
</linearGradient>
</defs>
</svg>
