<svg width="811" height="319" viewBox="0 0 811 319" fill="none" xmlns="http://www.w3.org/2000/svg">
<path fill-rule="evenodd" clip-rule="evenodd" d="M644.964 17.7661C739.211 -1.78526 786.836 -0.782629 808.393 2.22526C811.401 2.72658 811.902 7.23843 807.892 8.24106C802.366 8.8751 795.696 9.46004 788.101 10.126C753.662 13.1459 700.226 17.8315 648.473 36.3148L648.471 36.3154C637.944 40.3258 627.417 44.3361 617.391 49.3491C616.837 49.9036 615.362 50.6114 613.392 51.5573C611.799 52.3218 609.883 53.2419 607.866 54.3623C594.33 61.3807 579.792 79.4282 571.771 93.465L481.534 246.868C481.097 247.61 480.621 248.422 480.106 249.299C461.153 281.606 389.644 403.498 254.939 466.946C72.9605 552.17 -92.9756 506.55 -92.9756 506.55C-92.9756 506.55 -30.3109 490.508 44.3854 438.371C96.0211 404.282 146.654 357.659 190.77 293.491C215.816 270.981 226.627 248.071 234.994 230.338C239.858 220.031 243.896 211.473 249.424 205.76C271.161 184.023 295.884 168.26 319.264 153.353C321.228 152.101 323.181 150.855 325.123 149.613C360.844 135.966 388.853 92.1152 406.577 64.3656C410.992 57.4545 414.768 51.5421 417.867 47.3438C429.898 31.3017 440.927 21.7767 454.964 14.2569C480.03 1.22263 522.642 -4.29186 574.278 13.2542C585.808 16.7635 598.842 20.2727 610.874 21.2753C622.342 21.5988 633.802 20.4191 644.964 17.7661ZM542.995 56.9803C542.995 65.2867 536.261 72.0203 527.955 72.0203C519.648 72.0203 512.915 65.2867 512.915 56.9803C512.915 48.674 519.648 41.9403 527.955 41.9403C536.261 41.9403 542.995 48.674 542.995 56.9803Z" fill="url(#paint0_linear_452_924)"/>
<path fill-rule="evenodd" clip-rule="evenodd" d="M644.964 17.7663C739.211 -1.78508 786.837 -0.782455 808.393 2.22543C809.067 2.30681 809.688 2.63232 810.138 3.14034C810.588 3.64836 810.837 4.30371 810.837 4.98256C810.837 5.66141 810.588 6.31674 810.138 6.82475C809.688 7.33278 809.067 7.65829 808.393 7.73981C807.052 7.89374 805.622 8.05634 804.108 8.22847C771.108 11.9806 698.297 20.2596 636.943 41.8294C632.458 43.6234 629.979 44.3139 627.756 44.9331C625.01 45.6982 622.656 46.3542 617.391 48.8478C616.837 49.4023 615.362 50.1102 613.392 51.0561C611.799 51.8207 609.883 52.7407 607.866 53.8611C594.331 60.8795 579.793 78.9269 571.772 92.9638L481.534 246.367C473.776 259.885 465.239 272.941 455.967 285.47C433.909 315.047 388.791 332.594 333.145 331.09C301.06 331.591 264.464 326.076 222.353 307.528C213.831 304.018 200.295 297.501 190.269 291.987C185.256 288.979 177.736 284.467 176.232 283.464C160.573 273.126 145.51 261.912 131.114 249.876C119.082 240.351 108.053 230.325 96.5227 219.296C43.3831 167.66 -8.75391 101.988 -50.3633 36.8163C-59.387 22.7794 -67.9094 8.74255 -75.4291 -4.79301C-95.9831 -40.8879 -113.028 -76.4814 -124.558 -107.563C-129.571 -121.6 -128.569 -129.621 -127.566 -132.629C-125.561 -141.653 -119.044 -147.167 -107.513 -143.658C-80.9436 -133.632 -56.8804 -124.107 -33.8198 -113.579C17.8159 -89.0143 69.4516 -57.4314 120.586 -22.3391C140.639 -9.30487 164.201 8.74257 188.264 27.7926C230.876 62.8848 274.992 102.489 325.123 149.613C360.844 135.967 388.853 92.1154 406.578 64.3658C410.992 57.4547 414.768 51.5423 417.867 47.344C429.899 31.3019 440.928 21.7768 454.965 14.2571C480.532 0.220184 521.138 -4.29169 574.278 13.2544C585.808 16.7636 598.843 20.2729 610.874 21.2755C622.342 21.599 633.803 20.4193 644.964 17.7663ZM542.995 56.9807C542.995 65.2871 536.261 72.0207 527.955 72.0207C519.648 72.0207 512.915 65.2871 512.915 56.9807C512.915 48.6743 519.648 41.9407 527.955 41.9407C536.261 41.9407 542.995 48.6743 542.995 56.9807Z" fill="url(#paint1_linear_452_924)"/>
<path d="M223.356 158.637C258.949 163.148 293.54 160.642 324.622 148.61C294.543 120.536 265.968 94.9693 239.398 71.9087C225.862 60.3784 212.828 48.8481 200.295 38.3204C199.794 37.8191 198.791 37.3178 198.791 36.8165C195.282 33.8086 192.274 31.302 189.266 28.7954C188.263 28.2941 187.762 27.2914 187.261 27.2914C163.198 8.24139 139.636 -9.30471 120.586 -22.8403C69.4513 -57.4312 18.3169 -89.5155 -33.3188 -114.08C-37.8307 -116.587 -42.3425 -118.091 -47.3557 -120.597C-48.8596 -121.098 -50.3636 -122.101 -51.3662 -122.101C148.158 -14.3179 211.825 83.439 223.356 158.637Z" fill="url(#paint2_linear_452_924)"/>
<path d="M4.78135 53.3599C-48.8596 10.2466 -99.4927 -49.9115 -121.049 -97.5366C-70.9176 29.2966 59.4249 209.27 175.731 283.465C177.736 284.968 184.754 288.979 190.269 291.987C205.308 268.926 232.881 221.301 223.356 158.637C151.667 149.111 74.4645 110.009 4.78135 53.3599Z" fill="url(#paint3_linear_452_924)"/>
<path opacity="0.8" d="M4.78171 53.3598C74.4648 110.009 151.668 148.61 223.356 158.135C211.826 83.4388 148.158 -14.8194 -51.3658 -121.6C-52.4165 -121.999 -53.4243 -122.503 -54.3737 -123.104C-57.3816 -124.608 -60.3895 -125.61 -62.8961 -127.114C-64.9014 -128.117 -66.4054 -128.618 -68.4106 -129.621C-69.9146 -130.122 -71.4185 -131.125 -72.4212 -131.125C-75.4777 -132.594 -78.667 -133.769 -81.9462 -134.634C-82.4475 -134.634 -82.9488 -135.136 -83.4501 -135.136C-84.9541 -135.637 -86.458 -136.639 -87.962 -137.141C-93.9778 -139.146 -99.9936 -142.154 -106.511 -144.159C-118.041 -147.668 -124.558 -142.154 -127.065 -133.632C-127.318 -132.645 -127.486 -131.639 -127.566 -130.624C-128.067 -129.621 -127.566 -128.117 -127.566 -126.613C-127.566 -126.112 -127.566 -126.112 -128.067 -125.61C-127.796 -119.617 -126.613 -113.701 -124.558 -108.064C-123.442 -104.475 -122.102 -100.959 -120.548 -97.5367C-99.4923 -49.9116 -48.3579 10.2465 4.78171 53.3598Z" fill="url(#paint4_linear_452_924)"/>
<path d="M4.78171 53.3598C74.4648 110.009 151.668 148.61 223.356 158.135C211.826 83.4388 148.158 -14.8194 -51.3658 -121.6C-52.4165 -121.999 -53.4243 -122.503 -54.3737 -123.104C-57.3816 -124.608 -60.3895 -125.61 -62.8961 -127.114C-64.9014 -128.117 -66.4054 -128.618 -68.4106 -129.621C-69.9146 -130.122 -71.4185 -131.125 -72.4212 -131.125C-75.4777 -132.594 -78.667 -133.769 -81.9462 -134.634C-82.4475 -134.634 -82.9488 -135.136 -83.4501 -135.136C-84.9541 -135.637 -86.458 -136.639 -87.962 -137.141C-93.9778 -139.146 -99.9936 -142.154 -106.511 -144.159C-118.041 -147.668 -124.558 -142.154 -127.065 -133.632C-127.318 -132.645 -127.486 -131.639 -127.566 -130.624C-128.067 -129.621 -127.566 -128.117 -127.566 -126.613C-127.566 -126.112 -127.566 -126.112 -128.067 -125.61C-127.796 -119.617 -126.613 -113.701 -124.558 -108.064C-123.442 -104.475 -122.102 -100.959 -120.548 -97.5367C-99.4923 -49.9116 -48.3579 10.2465 4.78171 53.3598Z" fill="url(#paint5_linear_452_924)"/>
<path fill-rule="evenodd" clip-rule="evenodd" d="M644.963 17.7661C739.211 -1.78526 786.836 -0.782629 808.393 2.22526C811.4 2.72664 811.902 7.23843 809.395 9.24371C788.841 11.249 702.615 22.7793 645.464 41.8293C609.425 53.9984 590.865 73.5962 586.52 78.184C586.211 78.5102 585.974 78.7605 585.808 78.9268C585.619 79.2099 585.075 79.8303 584.183 80.8482C580.334 85.2391 570.002 97.0263 553.723 121.037C544.198 135.074 514.119 178.188 465.492 194.23C414.858 210.773 360.716 183.201 325.624 150.114C361.345 136.468 389.354 92.6166 407.078 64.867C411.493 57.9558 415.269 52.0434 418.368 47.8451C426.421 36.3001 436.635 26.4258 448.447 18.7687C463.21 8.83445 480.326 2.95637 498.077 1.72394C518.631 0.220007 544.198 3.2279 574.277 13.2542C585.808 16.7635 598.842 20.2727 610.874 21.2753C622.341 21.5988 633.802 20.4191 644.963 17.7661ZM542.994 56.9803C542.994 65.2867 536.26 72.0203 527.954 72.0203C519.648 72.0203 512.914 65.2867 512.914 56.9803C512.914 48.674 519.648 41.9403 527.954 41.9403C536.26 41.9403 542.994 48.674 542.994 56.9803Z" fill="url(#paint6_linear_452_924)"/>
<defs>
<linearGradient id="paint0_linear_452_924" x1="827.794" y1="215.706" x2="-110.339" y2="291.446" gradientUnits="userSpaceOnUse">
<stop offset="0.2986" stop-color="#0097CE"/>
<stop offset="0.3791" stop-color="#0999C5"/>
<stop offset="0.5119" stop-color="#229DAD"/>
<stop offset="0.6469" stop-color="#42A38F"/>
<stop offset="0.7352" stop-color="#5DAD82"/>
<stop offset="0.9239" stop-color="#A1C661"/>
<stop offset="1" stop-color="#BED153"/>
</linearGradient>
<linearGradient id="paint1_linear_452_924" x1="-156.312" y1="-28.26" x2="751.412" y2="221.499" gradientUnits="userSpaceOnUse">
<stop offset="0.08199" stop-color="#3D65AF"/>
<stop offset="0.2305" stop-color="#2372B8"/>
<stop offset="0.5058" stop-color="#00B8BB"/>
</linearGradient>
<linearGradient id="paint2_linear_452_924" x1="-77.5913" y1="-26.7794" x2="341.179" y2="88.445" gradientUnits="userSpaceOnUse">
<stop offset="0.1297" stop-color="#2483C5"/>
<stop offset="0.1672" stop-color="#2486C7"/>
<stop offset="0.676" stop-color="#29B1DF"/>
<stop offset="0.9352" stop-color="#2BC2E8"/>
</linearGradient>
<linearGradient id="paint3_linear_452_924" x1="-159.909" y1="43.7034" x2="240.093" y2="153.764" gradientUnits="userSpaceOnUse">
<stop offset="0.1297" stop-color="#3B67AD"/>
<stop offset="0.5697" stop-color="#227CAA"/>
<stop offset="0.9352" stop-color="#118AA8"/>
</linearGradient>
<linearGradient id="paint4_linear_452_924" x1="-967.305" y1="161264" x2="34881.5" y2="161264" gradientUnits="userSpaceOnUse">
<stop offset="0.1297"/>
<stop offset="0.3277" stop-color="#00334B"/>
<stop offset="0.5276" stop-color="#006190"/>
<stop offset="0.6723" stop-color="#007FBB"/>
<stop offset="0.7457" stop-color="#008ACC"/>
</linearGradient>
<linearGradient id="paint5_linear_452_924" x1="-150.973" y1="-49.1927" x2="250.216" y2="61.1944" gradientUnits="userSpaceOnUse">
<stop offset="0.1297" stop-color="#3A67B0"/>
<stop offset="0.5622" stop-color="#357FBD"/>
<stop offset="0.9352" stop-color="#3290C6"/>
</linearGradient>
<linearGradient id="paint6_linear_452_924" x1="357.765" y1="30.3847" x2="772.709" y2="144.556" gradientUnits="userSpaceOnUse">
<stop offset="0.1724" stop-color="#4E5CA8"/>
<stop offset="0.9937" stop-color="#1FC3F3"/>
</linearGradient>
</defs>
</svg>
