<svg width="900" height="319" viewBox="0 0 900 319" fill="none" xmlns="http://www.w3.org/2000/svg">
<path fill-rule="evenodd" clip-rule="evenodd" d="M702.651 63.1683C814.661 39.9322 871.262 41.1238 896.881 44.6985C900.456 45.2944 901.052 50.6565 896.285 51.8481C889.719 52.6016 881.791 53.2968 872.765 54.0883C831.835 57.6773 768.328 63.246 706.822 85.2127L706.82 85.2134C694.309 89.9796 681.797 94.7458 669.882 100.703C669.223 101.362 667.471 102.204 665.129 103.328C663.236 104.236 660.959 105.33 658.562 106.662C642.476 115.003 625.197 136.451 615.665 153.134L508.421 335.448C507.901 336.33 507.336 337.294 506.724 338.337C484.199 376.732 399.213 521.597 239.121 597.003C22.8462 698.288 -174.363 644.071 -174.363 644.071C-174.363 644.071 -99.8881 625.005 -11.1143 563.042C50.2529 522.528 110.428 467.119 162.859 390.857C192.625 364.105 205.473 336.877 215.417 315.802C221.197 303.552 225.997 293.382 232.567 286.592C258.4 260.759 287.783 242.025 315.57 224.308C317.903 222.82 320.225 221.34 322.532 219.863C364.985 203.645 398.273 151.529 419.338 118.55C424.584 110.336 429.072 103.31 432.755 98.3203C447.054 79.2548 460.161 67.9347 476.844 58.9977C506.634 43.507 557.276 36.9532 618.644 57.8061C632.347 61.9767 647.838 66.1472 662.137 67.3388C675.766 67.7233 689.386 66.3212 702.651 63.1683ZM581.465 109.773C581.465 119.645 573.462 127.647 563.59 127.647C553.718 127.647 545.716 119.645 545.716 109.773C545.716 99.9011 553.718 91.8984 563.59 91.8984C573.462 91.8984 581.465 99.9011 581.465 109.773Z" fill="url(#paint0_linear)"/>
<path fill-rule="evenodd" clip-rule="evenodd" d="M702.651 63.168C814.661 39.9319 871.262 41.1235 896.881 44.6983C897.682 44.795 898.42 45.1819 898.955 45.7856C899.49 46.3894 899.786 47.1682 899.786 47.975C899.786 48.7818 899.49 49.5607 898.955 50.1644C898.42 50.7682 897.682 51.1551 896.881 51.2519C895.287 51.4349 893.588 51.6281 891.788 51.8327C852.569 56.292 766.036 66.1312 693.118 91.7661C687.788 93.8982 684.842 94.7189 682.201 95.4548C678.937 96.364 676.139 97.1437 669.882 100.107C669.223 100.766 667.471 101.608 665.129 102.732C663.237 103.64 660.959 104.734 658.562 106.065C642.476 114.407 625.198 135.855 615.665 152.538L508.421 334.852C499.2 350.917 489.055 366.434 478.036 381.324C451.821 416.476 398.199 437.329 332.065 435.541C293.934 436.137 250.441 429.583 200.394 407.539C190.266 403.368 174.179 395.623 162.263 389.069C156.305 385.494 147.368 380.132 145.581 378.941C126.971 366.653 109.068 353.326 91.959 339.022C77.6598 327.702 64.5523 315.786 50.8489 302.679C-12.3056 241.311 -74.2685 163.262 -123.72 85.8083C-134.444 69.126 -144.573 52.4436 -153.51 36.3571C-177.937 -6.54028 -198.194 -48.8419 -211.898 -85.7813C-217.856 -102.464 -216.664 -111.996 -215.473 -115.571C-213.089 -126.296 -205.344 -132.849 -191.641 -128.679C-160.063 -116.763 -131.465 -105.443 -104.058 -92.9309C-42.6912 -63.7368 18.6759 -26.2016 79.4472 15.5042C103.279 30.9949 131.282 52.4437 159.88 75.084C210.523 116.79 262.953 163.858 322.533 219.863C364.986 203.645 398.273 151.529 419.338 118.55C424.584 110.336 429.072 103.31 432.755 98.3201C447.054 79.2546 460.162 67.9344 476.844 58.9975C507.23 42.3151 555.489 36.9529 618.644 57.8058C632.347 61.9764 647.838 66.147 662.137 67.3386C675.766 67.7231 689.387 66.321 702.651 63.168ZM581.464 109.773C581.464 119.645 573.462 127.647 563.59 127.647C553.718 127.647 545.716 119.645 545.716 109.773C545.716 99.9009 553.718 91.8982 563.59 91.8982C573.462 91.8982 581.464 99.9009 581.464 109.773Z" fill="url(#paint1_linear)"/>
<path d="M201.586 230.587C243.887 235.949 284.997 232.97 321.937 218.671C286.189 185.307 252.228 154.921 220.651 127.514C204.565 113.811 189.074 100.108 174.179 87.5958C173.583 87 172.391 86.4042 172.391 85.8084C168.221 82.2336 164.646 79.2547 161.071 76.2757C159.88 75.6799 159.284 74.4883 158.688 74.4883C130.09 51.848 102.087 30.9951 79.4471 14.9085C18.6757 -26.2016 -42.0956 -64.3325 -103.463 -93.5266C-108.825 -96.5056 -114.187 -98.293 -120.145 -101.272C-121.932 -101.868 -123.72 -103.059 -124.911 -103.059C112.216 25.0371 187.882 141.218 201.586 230.587Z" fill="url(#paint2_linear)"/>
<path d="M-58.1822 105.47C-121.933 54.231 -182.108 -17.2648 -207.727 -73.8655C-148.148 76.8712 6.75977 290.763 144.985 378.941C147.368 380.728 155.709 385.494 162.263 389.069C180.137 361.662 212.906 305.062 201.586 230.587C116.387 219.267 24.6337 172.795 -58.1822 105.47Z" fill="url(#paint3_linear)"/>
<path opacity="0.8" d="M-58.182 105.469C24.6338 172.795 116.387 218.671 201.586 229.991C187.882 141.217 112.216 24.441 -124.911 -102.464C-126.16 -102.938 -127.358 -103.537 -128.486 -104.251C-132.061 -106.039 -135.636 -107.23 -138.615 -109.018C-140.998 -110.209 -142.785 -110.805 -145.168 -111.997C-146.956 -112.592 -148.743 -113.784 -149.935 -113.784C-153.567 -115.53 -157.358 -116.927 -161.255 -117.955C-161.851 -117.955 -162.447 -118.55 -163.042 -118.55C-164.83 -119.146 -166.617 -120.338 -168.405 -120.934C-175.554 -123.317 -182.704 -126.892 -190.449 -129.275C-204.152 -133.445 -211.898 -126.892 -214.877 -116.763C-215.178 -115.591 -215.377 -114.395 -215.473 -113.188C-216.068 -111.997 -215.473 -110.209 -215.473 -108.422C-215.473 -107.826 -215.473 -107.826 -216.068 -107.23C-215.746 -100.108 -214.34 -93.0759 -211.898 -86.3773C-210.571 -82.1116 -208.979 -77.9329 -207.131 -73.8655C-182.108 -17.2648 -121.337 54.2309 -58.182 105.469Z" fill="url(#paint4_linear)"/>
<path d="M-58.182 105.469C24.6338 172.795 116.387 218.671 201.586 229.991C187.882 141.217 112.216 24.441 -124.911 -102.464C-126.16 -102.938 -127.358 -103.537 -128.486 -104.251C-132.061 -106.039 -135.636 -107.23 -138.615 -109.018C-140.998 -110.209 -142.785 -110.805 -145.168 -111.997C-146.956 -112.592 -148.743 -113.784 -149.935 -113.784C-153.567 -115.53 -157.358 -116.927 -161.255 -117.955C-161.851 -117.955 -162.447 -118.55 -163.042 -118.55C-164.83 -119.146 -166.617 -120.338 -168.405 -120.934C-175.554 -123.317 -182.704 -126.892 -190.449 -129.275C-204.152 -133.445 -211.898 -126.892 -214.877 -116.763C-215.178 -115.591 -215.377 -114.395 -215.473 -113.188C-216.068 -111.997 -215.473 -110.209 -215.473 -108.422C-215.473 -107.826 -215.473 -107.826 -216.068 -107.23C-215.746 -100.108 -214.34 -93.0759 -211.898 -86.3773C-210.571 -82.1116 -208.979 -77.9329 -207.131 -73.8655C-182.108 -17.2648 -121.337 54.2309 -58.182 105.469Z" fill="url(#paint5_linear)"/>
<path fill-rule="evenodd" clip-rule="evenodd" d="M702.651 63.1683C814.661 39.9322 871.262 41.1238 896.881 44.6985C900.456 45.2944 901.052 50.6565 898.073 53.0397C873.645 55.4229 771.168 69.1262 703.247 91.7665C660.415 106.229 638.357 129.52 633.194 134.973C632.826 135.36 632.545 135.658 632.347 135.856C632.123 136.192 631.476 136.929 630.416 138.139C625.842 143.357 613.563 157.366 594.216 185.903C582.896 202.585 547.148 253.823 489.356 272.889C429.18 292.55 364.834 259.781 323.128 220.459C365.581 204.241 398.869 152.125 419.933 119.146C425.18 110.932 429.668 103.906 433.351 98.9161C442.921 85.1952 455.061 73.46 469.098 64.3599C486.644 52.5533 506.985 45.5674 528.082 44.1027C552.51 42.3154 582.896 45.8901 618.643 57.8061C632.347 61.9767 647.838 66.1473 662.137 67.3388C675.766 67.7233 689.386 66.3212 702.651 63.1683ZM581.465 109.773C581.465 119.645 573.462 127.647 563.59 127.647C553.718 127.647 545.716 119.645 545.716 109.773C545.716 99.9011 553.718 91.8984 563.59 91.8984C573.462 91.8984 581.465 99.9011 581.465 109.773Z" fill="url(#paint6_linear)"/>
<defs>
<linearGradient id="paint0_linear" x1="919.939" y1="298.412" x2="-194.999" y2="388.427" gradientUnits="userSpaceOnUse">
<stop offset="0.2986" stop-color="#0097CE"/>
<stop offset="0.3791" stop-color="#0999C5"/>
<stop offset="0.5119" stop-color="#229DAD"/>
<stop offset="0.6469" stop-color="#42A38F"/>
<stop offset="0.7352" stop-color="#5DAD82"/>
<stop offset="0.9239" stop-color="#A1C661"/>
<stop offset="1" stop-color="#BED153"/>
</linearGradient>
<linearGradient id="paint1_linear" x1="-249.635" y1="8.46752" x2="829.161" y2="305.298" gradientUnits="userSpaceOnUse">
<stop offset="0.08199" stop-color="#3D65AF"/>
<stop offset="0.2305" stop-color="#2372B8"/>
<stop offset="0.5058" stop-color="#00B8BB"/>
</linearGradient>
<linearGradient id="paint2_linear" x1="-156.079" y1="10.227" x2="341.614" y2="147.167" gradientUnits="userSpaceOnUse">
<stop offset="0.1297" stop-color="#2483C5"/>
<stop offset="0.1672" stop-color="#2486C7"/>
<stop offset="0.676" stop-color="#29B1DF"/>
<stop offset="0.9352" stop-color="#2BC2E8"/>
</linearGradient>
<linearGradient id="paint3_linear" x1="-253.91" y1="93.9932" x2="221.477" y2="224.796" gradientUnits="userSpaceOnUse">
<stop offset="0.1297" stop-color="#3B67AD"/>
<stop offset="0.5697" stop-color="#227CAA"/>
<stop offset="0.9352" stop-color="#118AA8"/>
</linearGradient>
<linearGradient id="paint4_linear" x1="-1213.47" y1="191698" x2="41391.5" y2="191698" gradientUnits="userSpaceOnUse">
<stop offset="0.1297"/>
<stop offset="0.3277" stop-color="#00334B"/>
<stop offset="0.5276" stop-color="#006190"/>
<stop offset="0.6723" stop-color="#007FBB"/>
<stop offset="0.7457" stop-color="#008ACC"/>
</linearGradient>
<linearGradient id="paint5_linear" x1="-243.291" y1="-16.4104" x2="233.508" y2="114.781" gradientUnits="userSpaceOnUse">
<stop offset="0.1297" stop-color="#3A67B0"/>
<stop offset="0.5622" stop-color="#357FBD"/>
<stop offset="0.9352" stop-color="#3290C6"/>
</linearGradient>
<linearGradient id="paint6_linear" x1="361.327" y1="78.1651" x2="854.472" y2="213.854" gradientUnits="userSpaceOnUse">
<stop offset="0.1724" stop-color="#4E5CA8"/>
<stop offset="0.9937" stop-color="#1FC3F3"/>
</linearGradient>
</defs>
</svg>
