<svg width="1787" height="1056" viewBox="0 0 1787 1056" fill="none" xmlns="http://www.w3.org/2000/svg">
<g style="mix-blend-mode:hard-light" filter="url(#filter0_d)">
<path d="M1657.19 218.978C1621.63 213.936 1543.07 212.255 1387.59 245.03C1369.18 249.478 1350.27 251.456 1331.36 250.913C1310.83 248.535 1290.61 244.03 1270.99 237.467C1185.81 208.053 1115.51 217.297 1074.16 239.148C1049.8 252.553 1028.85 271.544 1012.96 294.614C987.328 329.91 933.574 437.48 859.971 466.054C818.622 492.946 773.964 520.679 735.096 560.178C710.286 586.23 703.67 647.579 638.337 707.246C574.132 803.375 492.11 885.87 396.856 950.12C273.634 1037.52 170.26 1064.41 170.26 1064.41C170.26 1064.41 443.994 1140.89 744.192 998.022C972.442 888.771 1090.7 676.152 1117.99 629.09L1266.85 371.93C1280.08 348.399 1304.07 318.145 1326.4 306.379C1333.84 302.177 1340.45 299.656 1342.11 297.975C1358.65 289.571 1376.01 282.848 1393.38 276.125C1497.58 238.307 1605.92 234.946 1656.36 229.063C1662.98 227.382 1662.15 219.819 1657.19 218.978Z" fill="url(#paint0_linear)"/>
<path d="M1657.19 218.989C1621.63 213.946 1543.07 212.265 1387.59 245.041C1369.18 249.488 1350.28 251.466 1331.36 250.923C1310.84 248.546 1290.61 244.04 1270.99 237.477C1183.33 208.063 1116.34 215.627 1074.16 239.158C1049.8 252.563 1028.85 271.554 1012.97 294.624C987.329 329.92 933.574 437.491 859.972 466.064C777.273 387.067 704.497 320.676 634.203 261.849C594.507 229.914 555.639 199.66 522.559 177.809C441.695 120.176 356.533 69.037 267.845 24.8579C229.804 7.2097 190.108 -8.75776 146.277 -25.5656C127.257 -31.4484 116.506 -22.204 113.198 -7.07697C111.544 -2.03462 109.89 11.4117 118.16 34.9426C140.669 94.4481 167.769 152.054 199.205 207.223C211.61 229.914 225.669 253.445 240.555 276.976C309.846 387.807 391.121 490.412 482.863 582.878C501.884 601.367 520.078 618.175 539.926 634.142C563.674 654.318 588.523 673.117 614.355 690.449C616.836 692.13 629.241 699.693 637.511 704.735C654.051 713.98 676.38 724.905 690.439 730.788C747.754 757.472 810.163 770.96 873.204 770.286C965 772.807 1039.43 743.393 1075.82 693.81C1091.11 672.808 1105.19 650.921 1117.99 628.26L1266.85 371.1C1280.08 347.569 1304.07 317.315 1326.4 305.549C1333.84 301.347 1340.45 298.826 1342.11 297.145C1357.82 289.582 1357.82 292.103 1374.36 285.38C1480.22 247.562 1606.75 234.116 1657.19 228.233C1658.3 228.096 1659.33 227.551 1660.07 226.699C1660.81 225.847 1661.22 224.749 1661.22 223.611C1661.22 222.473 1660.81 221.374 1660.07 220.522C1659.33 219.671 1658.3 219.125 1657.19 218.989Z" fill="url(#paint1_linear)"/>
<path opacity="0.8" d="M111.536 2.15697C111.536 -0.364207 112.363 -2.88538 111.536 -4.56617C112.37 -2.40526 112.37 -0.00393343 111.536 2.15697Z" fill="url(#paint2_linear)"/>
<path d="M692.095 481.18C748.289 489.773 805.704 483.996 859.148 464.372C809.528 417.31 762.39 374.45 718.559 335.792C696.23 316.463 674.728 297.134 654.054 279.486C653.227 278.645 651.573 277.805 651.573 276.965C645.784 271.922 640.822 267.72 635.86 263.518C634.206 262.678 633.379 260.997 632.552 260.997C592.856 229.062 553.987 199.648 522.562 176.958C438.209 118.971 353.855 65.1857 268.675 24.0064C261.232 19.8045 253.789 17.2833 245.519 13.0813C243.406 12.01 241.189 11.1651 238.903 10.5602C568.046 191.245 673.074 355.121 692.095 481.18Z" fill="url(#paint3_linear)"/>
<path opacity="0.8" d="M123.944 50.9C121.463 45.8576 119.809 39.9749 117.328 34.0922C119.809 39.1345 121.463 45.0173 123.944 50.9Z" fill="url(#paint4_linear)"/>
<path opacity="0.3" d="M111.536 4.68001C111.536 3.83962 111.536 3.83962 112.363 2.99923C112.363 3.83962 112.363 3.83962 111.536 4.68001Z" fill="url(#paint5_linear)"/>
<path opacity="0.3" d="M111.536 4.67944C111.983 14.726 113.936 24.6446 117.325 34.0932C113.936 24.6446 111.983 14.726 111.536 4.67944Z" fill="url(#paint6_linear)"/>
<path opacity="0.3" d="M233.935 8.88036L238.897 11.4015C229.8 7.19957 219.876 2.9976 209.952 -1.20437C213.26 0.476419 215.741 1.31681 219.049 2.9976C224.144 4.59088 229.119 6.55694 233.935 8.88036Z" fill="url(#paint7_linear)"/>
<path d="M331.528 304.7C243.04 232.426 159.514 131.579 123.953 51.7417C206.652 264.361 421.67 566.062 613.533 690.44C616.841 692.961 628.419 699.684 637.515 704.727C662.325 666.068 707.81 586.231 692.097 481.182C573.837 465.215 446.48 399.664 331.528 304.7Z" fill="url(#paint8_linear)"/>
<path opacity="0.8" d="M331.534 304.7C446.486 399.664 573.843 464.374 692.103 480.342C673.082 355.123 568.054 190.406 238.911 11.4029C237.178 10.7344 235.516 9.88976 233.949 8.88173C228.987 6.36056 224.025 4.67977 219.89 2.15859C216.582 0.47781 214.101 -0.362581 210.793 -2.04337C208.68 -3.1147 206.463 -3.95963 204.178 -4.56454C199.135 -7.02754 193.874 -8.99734 188.465 -10.4473C187.638 -10.4473 186.811 -11.2877 185.984 -11.2877C183.503 -12.1281 181.022 -13.8089 178.541 -14.6493C168.617 -18.0108 158.693 -23.0532 147.942 -26.4147C128.921 -32.2975 118.17 -23.0532 114.035 -8.7665C113.618 -7.11297 113.341 -5.42595 113.208 -3.72415C112.381 -2.04336 113.208 0.477814 113.208 2.99899C113.208 3.83938 113.208 3.83938 112.381 4.67977C112.829 14.7263 114.781 24.6449 118.17 34.0935C120.012 40.1103 122.222 46.0045 124.786 51.7417C159.52 131.579 243.873 232.426 331.534 304.7Z" fill="url(#paint9_linear)"/>
<path d="M331.534 304.7C446.486 399.664 573.843 464.374 692.103 480.342C673.082 355.123 568.054 190.406 238.911 11.4029C237.178 10.7344 235.516 9.88976 233.949 8.88173C228.987 6.36056 224.025 4.67977 219.89 2.15859C216.582 0.47781 214.101 -0.362581 210.793 -2.04337C208.68 -3.1147 206.463 -3.95963 204.178 -4.56454C199.135 -7.02754 193.874 -8.99734 188.465 -10.4473C187.638 -10.4473 186.811 -11.2877 185.984 -11.2877C183.503 -12.1281 181.022 -13.8089 178.541 -14.6493C168.617 -18.0108 158.693 -23.0532 147.942 -26.4147C128.921 -32.2975 118.17 -23.0532 114.035 -8.7665C113.618 -7.11297 113.341 -5.42595 113.208 -3.72415C112.381 -2.04336 113.208 0.477814 113.208 2.99899C113.208 3.83938 113.208 3.83938 112.381 4.67977C112.829 14.7263 114.781 24.6449 118.17 34.0935C120.012 40.1103 122.222 46.0045 124.786 51.7417C159.52 131.579 243.873 232.426 331.534 304.7Z" fill="url(#paint10_linear)"/>
<path d="M1657.19 218.978C1621.63 213.936 1543.07 212.255 1387.59 245.03C1369.18 249.478 1350.28 251.456 1331.36 250.913C1310.84 248.535 1290.61 244.03 1270.99 237.467C1230.74 222.722 1188.03 216.154 1145.29 218.138C1116 220.204 1087.77 230.058 1063.41 246.711C1043.93 259.547 1027.08 276.1 1013.79 295.454C988.158 330.751 934.403 438.321 860.801 466.894C918.69 522.36 1008.01 568.582 1091.53 540.849C1171.75 513.956 1221.37 441.682 1237.08 418.151C1253.12 393.42 1270.8 369.834 1290.01 347.558C1317.12 318.712 1350.97 297.317 1388.42 285.369C1482.7 253.434 1624.94 234.105 1658.85 230.744C1662.98 227.382 1662.16 219.819 1657.19 218.978Z" fill="url(#paint11_linear)"/>
<path d="M1194.57 335.981C1208.28 335.981 1219.38 324.693 1219.38 310.769C1219.38 296.844 1208.28 285.556 1194.57 285.556C1180.87 285.556 1169.76 296.844 1169.76 310.769C1169.76 324.693 1180.87 335.981 1194.57 335.981Z" fill="#474BA4"/>
</g>
<defs>
<filter id="filter0_d" x="-52.4639" y="-192.213" width="1877.96" height="1441.07" filterUnits="userSpaceOnUse" color-interpolation-filters="sRGB">
<feFlood flood-opacity="0" result="BackgroundImageFix"/>
<feColorMatrix in="SourceAlpha" type="matrix" values="0 0 0 0 0 0 0 0 0 0 0 0 0 0 0 0 0 0 127 0" result="hardAlpha"/>
<feOffset/>
<feGaussianBlur stdDeviation="82"/>
<feComposite in2="hardAlpha" operator="out"/>
<feColorMatrix type="matrix" values="0 0 0 0 0.188235 0 0 0 0 0.72549 0 0 0 0 0.619608 0 0 0 0.71 0"/>
<feBlend mode="normal" in2="BackgroundImageFix" result="effect1_dropShadow"/>
<feBlend mode="normal" in="SourceGraphic" in2="effect1_dropShadow" result="shape"/>
</filter>
<linearGradient id="paint0_linear" x1="1689.19" y1="576.85" x2="141.294" y2="699.826" gradientUnits="userSpaceOnUse">
<stop offset="0.2986" stop-color="#0097CE"/>
<stop offset="0.3791" stop-color="#0999C5"/>
<stop offset="0.5119" stop-color="#229DAD"/>
<stop offset="0.6469" stop-color="#42A38F"/>
<stop offset="0.7352" stop-color="#5DAD82"/>
<stop offset="0.9239" stop-color="#A1C661"/>
<stop offset="1" stop-color="#BED153"/>
</linearGradient>
<linearGradient id="paint1_linear" x1="65.7739" y1="167.882" x2="1566.53" y2="574.232" gradientUnits="userSpaceOnUse">
<stop offset="0.08199" stop-color="#3D65AF"/>
<stop offset="0.2305" stop-color="#2372B8"/>
<stop offset="0.5058" stop-color="#00B8BB"/>
</linearGradient>
<linearGradient id="paint2_linear" x1="110.932" y1="-1.37355" x2="926.164" y2="219.361" gradientUnits="userSpaceOnUse">
<stop offset="0.1297"/>
<stop offset="0.3277" stop-color="#00334B"/>
<stop offset="0.5276" stop-color="#006190"/>
<stop offset="0.6723" stop-color="#007FBB"/>
<stop offset="0.7457" stop-color="#008ACC"/>
</linearGradient>
<linearGradient id="paint3_linear" x1="195.637" y1="170.353" x2="887.998" y2="357.819" gradientUnits="userSpaceOnUse">
<stop offset="0.1297" stop-color="#2483C5"/>
<stop offset="0.1672" stop-color="#2486C7"/>
<stop offset="0.676" stop-color="#29B1DF"/>
<stop offset="0.9352" stop-color="#2BC2E8"/>
</linearGradient>
<linearGradient id="paint4_linear" x1="240.458" y1="7785.65" x2="915.352" y2="7785.65" gradientUnits="userSpaceOnUse">
<stop offset="0.1297"/>
<stop offset="0.3277" stop-color="#00334B"/>
<stop offset="0.5276" stop-color="#006190"/>
<stop offset="0.6723" stop-color="#007FBB"/>
<stop offset="0.7457" stop-color="#008ACC"/>
</linearGradient>
<linearGradient id="paint5_linear" x1="112.045" y1="3.86627" x2="112.046" y2="3.86649" gradientUnits="userSpaceOnUse">
<stop stop-color="#682C90"/>
<stop offset="0.496" stop-color="#817CB9"/>
<stop offset="1" stop-color="white"/>
</linearGradient>
<linearGradient id="paint6_linear" x1="721.554" y1="13497.8" x2="422.443" y2="13497.8" gradientUnits="userSpaceOnUse">
<stop stop-color="#682C90"/>
<stop offset="0.496" stop-color="#817CB9"/>
<stop offset="1" stop-color="white"/>
</linearGradient>
<linearGradient id="paint7_linear" x1="3260.03" y1="5716.43" x2="1764.48" y2="5716.43" gradientUnits="userSpaceOnUse">
<stop stop-color="#682C90"/>
<stop offset="0.496" stop-color="#817CB9"/>
<stop offset="1" stop-color="white"/>
</linearGradient>
<linearGradient id="paint8_linear" x1="59.8448" y1="288.511" x2="721.176" y2="467.575" gradientUnits="userSpaceOnUse">
<stop offset="0.1297" stop-color="#3B67AD"/>
<stop offset="0.5697" stop-color="#227CAA"/>
<stop offset="0.9352" stop-color="#118AA8"/>
</linearGradient>
<linearGradient id="paint9_linear" x1="10899.3" y1="240530" x2="70036.9" y2="240530" gradientUnits="userSpaceOnUse">
<stop offset="0.1297"/>
<stop offset="0.3277" stop-color="#00334B"/>
<stop offset="0.5276" stop-color="#006190"/>
<stop offset="0.6723" stop-color="#007FBB"/>
<stop offset="0.7457" stop-color="#008ACC"/>
</linearGradient>
<linearGradient id="paint10_linear" x1="74.5904" y1="132.783" x2="737.885" y2="312.378" gradientUnits="userSpaceOnUse">
<stop offset="0.1297" stop-color="#3A67B0"/>
<stop offset="0.5622" stop-color="#357FBD"/>
<stop offset="0.9352" stop-color="#3290C6"/>
</linearGradient>
<linearGradient id="paint11_linear" x1="913.818" y1="266.183" x2="1599.85" y2="451.936" gradientUnits="userSpaceOnUse">
<stop offset="0.1724" stop-color="#4E5CA8"/>
<stop offset="0.9937" stop-color="#1FC3F3"/>
</linearGradient>
</defs>
</svg>
