<svg width="157" height="50" viewBox="0 0 157 50" fill="none" xmlns="http://www.w3.org/2000/svg">
<path d="M57.5745 17.4706C56.327 17.2937 53.5708 17.2347 48.1165 18.3845C47.4706 18.5406 46.8073 18.6099 46.1436 18.5909C45.4237 18.5075 44.714 18.3494 44.0257 18.1192C41.0375 17.0873 38.5714 17.4116 37.1208 18.1782C36.2661 18.6484 35.531 19.3147 34.9738 20.124C34.0745 21.3623 32.1887 25.136 29.6065 26.1384C28.1559 27.0819 26.5892 28.0548 25.2257 29.4405C24.3553 30.3545 24.1232 32.5067 21.8312 34.5999C19.5788 37.9723 16.7013 40.8664 13.3596 43.1204C9.03671 46.1866 5.41016 47.13 5.41016 47.13C5.41016 47.13 15.0133 49.8129 25.5448 44.8009C33.5522 40.9682 37.701 33.5091 38.6584 31.8581L43.8807 22.8364C44.3449 22.0109 45.1862 20.9495 45.9696 20.5368C46.2307 20.3893 46.4628 20.3009 46.5208 20.2419C47.1011 19.9471 47.7103 19.7113 48.3196 19.4754C51.9751 18.1487 55.7758 18.0307 57.5455 17.8244C57.7776 17.7654 57.7486 17.5001 57.5745 17.4706Z" fill="url(#paint0_linear)"/>
<path d="M57.5745 17.4704C56.3269 17.2935 53.5708 17.2345 48.1164 18.3843C47.4705 18.5403 46.8072 18.6097 46.1436 18.5907C45.4236 18.5073 44.714 18.3492 44.0257 18.119C40.9503 17.0871 38.6003 17.3524 37.1207 18.1779C36.266 18.6482 35.5309 19.3145 34.9738 20.1238C34.0744 21.3621 32.1886 25.1358 29.6065 26.1382C26.7052 23.3669 24.1521 21.0378 21.6861 18.974C20.2935 17.8536 18.9299 16.7923 17.7694 16.0257C14.9325 14.0038 11.9449 12.2098 8.83355 10.6599C7.49897 10.0408 6.10638 9.4806 4.56872 8.89094C3.90143 8.68457 3.52427 9.00887 3.40822 9.53956C3.35019 9.71646 3.29217 10.1882 3.58229 11.0137C4.37198 13.1013 5.32268 15.1222 6.42551 17.0576C6.8607 17.8536 7.35391 18.6792 7.87614 19.5047C10.307 23.3928 13.1583 26.9924 16.3768 30.2363C17.0441 30.8849 17.6823 31.4746 18.3786 32.0347C19.2118 32.7426 20.0835 33.4021 20.9898 34.0101C21.0768 34.069 21.512 34.3344 21.8021 34.5113C22.3824 34.8356 23.1657 35.2189 23.6589 35.4252C25.6697 36.3614 27.8591 36.8346 30.0707 36.8109C33.2911 36.8994 35.9022 35.8675 37.1787 34.128C37.7153 33.3912 38.2093 32.6234 38.6584 31.8284L43.8806 22.8067C44.3448 21.9812 45.1862 20.9198 45.9695 20.5071C46.2306 20.3597 46.4627 20.2712 46.5207 20.2122C47.072 19.9469 47.072 20.0353 47.6522 19.7995C51.3658 18.4728 55.8047 18.0011 57.5745 17.7947C57.6135 17.7899 57.6494 17.7707 57.6755 17.7409C57.7015 17.711 57.7159 17.6724 57.7159 17.6325C57.7159 17.5926 57.7015 17.5541 57.6755 17.5242C57.6494 17.4943 57.6135 17.4752 57.5745 17.4704Z" fill="url(#paint1_linear)"/>
<path opacity="0.8" d="M3.3501 9.86403C3.3501 9.77559 3.37911 9.68714 3.3501 9.62817C3.37936 9.70398 3.37936 9.78823 3.3501 9.86403Z" fill="url(#paint2_linear)"/>
<path opacity="0.8" d="M5.78764 9.30398C5.74309 9.28017 5.69272 9.26993 5.64258 9.2745C5.72962 9.30398 5.81665 9.36294 5.90369 9.39243C5.90369 9.36294 5.84567 9.33346 5.78764 9.30398Z" fill="url(#paint3_linear)"/>
<path opacity="0.8" d="M6.68685 9.6872C6.65784 9.6872 6.59981 9.65771 6.5708 9.65771C6.64494 9.6953 6.72272 9.72494 6.8029 9.74616C6.74488 9.71668 6.71586 9.6872 6.68685 9.6872Z" fill="url(#paint4_linear)"/>
<path d="M23.7172 26.6689C25.6886 26.9704 27.7028 26.7677 29.5777 26.0793C27.837 24.4282 26.1832 22.9246 24.6456 21.5684C23.8623 20.8903 23.1079 20.2122 22.3826 19.5931C22.3536 19.5636 22.2956 19.5341 22.2956 19.5047C22.0925 19.3278 21.9184 19.1804 21.7443 19.0329C21.6863 19.0035 21.6573 18.9445 21.6283 18.9445C20.2357 17.8242 18.8721 16.7923 17.7696 15.9962C14.8104 13.9619 11.8511 12.0751 8.86281 10.6304C8.6017 10.483 8.34058 10.3946 8.05046 10.2471C7.97632 10.2096 7.89854 10.1799 7.81836 10.1587C19.3653 16.4974 23.0499 22.2465 23.7172 26.6689Z" fill="url(#paint5_linear)"/>
<path opacity="0.8" d="M3.78532 11.574C3.69828 11.3971 3.64026 11.1908 3.55322 10.9844C3.64026 11.1613 3.69828 11.3676 3.78532 11.574Z" fill="url(#paint6_linear)"/>
<path opacity="0.3" d="M3.3501 9.95252C3.3501 9.92304 3.3501 9.92304 3.37911 9.89355C3.37911 9.92304 3.37911 9.92304 3.3501 9.95252Z" fill="url(#paint7_linear)"/>
<path opacity="0.3" d="M4.59766 8.86157C4.97482 9.00898 5.32297 9.12692 5.67112 9.27433C5.29396 9.12692 4.94581 8.9795 4.59766 8.86157Z" fill="url(#paint8_linear)"/>
<path opacity="0.3" d="M3.3501 9.95264C3.36579 10.3051 3.43427 10.6531 3.55319 10.9845C3.43427 10.6531 3.36579 10.3051 3.3501 9.95264Z" fill="url(#paint9_linear)"/>
<path opacity="0.3" d="M7.6441 10.0999L7.81817 10.1883C7.49903 10.0409 7.15088 9.89351 6.80273 9.74609C6.91878 9.80506 7.00582 9.83454 7.12187 9.89351C7.30062 9.9494 7.47515 10.0184 7.6441 10.0999Z" fill="url(#paint10_linear)"/>
<path d="M11.0678 20.4778C7.96344 17.9423 5.03318 14.4044 3.78564 11.6035C6.68689 19.0626 14.2301 29.6468 20.961 34.0103C21.0771 34.0987 21.4832 34.3346 21.8024 34.5115C22.6728 33.1553 24.2684 30.3544 23.7172 26.6691C19.5684 26.1089 15.1005 23.8093 11.0678 20.4778Z" fill="url(#paint11_linear)"/>
<path opacity="0.3" d="M6.57069 9.65743L5.96143 9.39209C5.99044 9.39209 6.01945 9.42157 6.04846 9.42157C6.19353 9.48054 6.3676 9.56899 6.57069 9.65743Z" fill="url(#paint12_linear)"/>
<path opacity="0.8" d="M11.0677 20.4778C15.1004 23.8093 19.5683 26.0795 23.7171 26.6396C23.0498 22.2467 19.3653 16.4682 7.8183 10.1884C7.75749 10.1649 7.69917 10.1353 7.64423 10.0999C7.47015 10.0115 7.29608 9.95252 7.15101 9.86408C7.03496 9.80511 6.94793 9.77563 6.83188 9.71666C6.75774 9.67908 6.67995 9.64944 6.59978 9.62822C6.42289 9.54181 6.23831 9.47271 6.04854 9.42184C6.01953 9.42184 5.99052 9.39236 5.9615 9.39236C5.87447 9.36287 5.78743 9.30391 5.70039 9.27443C5.35224 9.1565 5.00409 8.9796 4.62693 8.86167C3.95964 8.65529 3.58248 8.9796 3.43742 9.4808C3.42277 9.53881 3.41306 9.598 3.40841 9.6577C3.37939 9.71666 3.40841 9.80511 3.40841 9.89356C3.40841 9.92304 3.40841 9.92304 3.37939 9.95252C3.39509 10.305 3.46357 10.6529 3.58248 10.9844C3.6471 11.1955 3.72462 11.4023 3.81458 11.6035C5.0331 14.4044 7.99238 17.9423 11.0677 20.4778Z" fill="url(#paint13_linear)"/>
<path d="M11.0677 20.4778C15.1004 23.8093 19.5683 26.0795 23.7171 26.6396C23.0498 22.2467 19.3653 16.4682 7.8183 10.1884C7.75749 10.1649 7.69917 10.1353 7.64423 10.0999C7.47015 10.0115 7.29608 9.95252 7.15101 9.86408C7.03496 9.80511 6.94793 9.77563 6.83188 9.71666C6.75774 9.67908 6.67995 9.64944 6.59978 9.62822C6.42289 9.54181 6.23831 9.47271 6.04854 9.42184C6.01953 9.42184 5.99052 9.39236 5.9615 9.39236C5.87447 9.36287 5.78743 9.30391 5.70039 9.27443C5.35224 9.1565 5.00409 8.9796 4.62693 8.86167C3.95964 8.65529 3.58248 8.9796 3.43742 9.4808C3.42277 9.53881 3.41306 9.598 3.40841 9.6577C3.37939 9.71666 3.40841 9.80511 3.40841 9.89356C3.40841 9.92304 3.40841 9.92304 3.37939 9.95252C3.39509 10.305 3.46357 10.6529 3.58248 10.9844C3.6471 11.1955 3.72462 11.4023 3.81458 11.6035C5.0331 14.4044 7.99238 17.9423 11.0677 20.4778Z" fill="url(#paint14_linear)"/>
<path d="M57.5747 17.4706C56.3272 17.2937 53.571 17.2347 48.1167 18.3845C47.4707 18.5406 46.8075 18.6099 46.1438 18.5909C45.4239 18.5075 44.7142 18.3494 44.0259 18.1192C42.6138 17.6019 41.1155 17.3715 39.616 17.4411C38.5887 17.5136 37.5982 17.8593 36.7438 18.4435C36.0602 18.8938 35.4691 19.4745 35.003 20.1535C34.1037 21.3918 32.2179 25.1655 29.6357 26.1679C31.6666 28.1138 34.8 29.7353 37.7302 28.7624C40.5444 27.819 42.2852 25.2835 42.8364 24.4579C43.399 23.5903 44.0194 22.7629 44.6932 21.9814C45.6442 20.9694 46.832 20.2188 48.1457 19.7997C51.4531 18.6794 56.4433 18.0013 57.6328 17.8833C57.7778 17.7654 57.7488 17.5001 57.5747 17.4706Z" fill="url(#paint15_linear)"/>
<path d="M41.345 21.5752C41.8257 21.5752 42.2154 21.1792 42.2154 20.6907C42.2154 20.2022 41.8257 19.8062 41.345 19.8062C40.8643 19.8062 40.4746 20.2022 40.4746 20.6907C40.4746 21.1792 40.8643 21.5752 41.345 21.5752Z" fill="#282E38"/>
<path d="M142.697 32.6045H140.318V47.788H142.697V32.6045Z" fill="#30B99E"/>
<path d="M90.6489 32.6045C88.9184 32.6071 87.2596 33.3069 86.0359 34.5503C84.8123 35.7938 84.1237 37.4795 84.1211 39.2381V41.2134C84.1237 42.9719 84.8123 44.6577 86.0359 45.9011C87.2596 47.1446 88.9184 47.8443 90.6489 47.847H94.7977V45.4294H90.6489C89.5886 45.4276 88.569 45.0148 87.798 44.2751C87.0271 43.5355 86.5629 42.5248 86.5001 41.4493H95.0008C95.2829 41.4499 95.5624 41.3939 95.8231 41.2845C96.0839 41.1751 96.3208 41.0144 96.5203 40.8117C96.7198 40.609 96.8779 40.3682 96.9856 40.1032C97.0932 39.8382 97.1483 39.5542 97.1477 39.2675C97.1527 38.3961 96.9884 37.5322 96.6642 36.7254C96.3401 35.9186 95.8625 35.1847 95.2588 34.5657C94.6551 33.9468 93.9372 33.4549 93.1461 33.1184C92.3551 32.7818 91.5065 32.6072 90.6489 32.6045ZM86.5001 39.0022C86.5611 37.926 87.0248 36.9143 87.7961 36.1742C88.5675 35.4342 89.5881 35.022 90.6489 35.022C91.7097 35.022 92.7303 35.4342 93.5017 36.1742C94.273 36.9143 94.7367 37.926 94.7977 39.0022H86.5001Z" fill="#FAFBFC"/>
<path d="M55.718 30.1871H57.4587V27.7695H55.718C55.0614 27.7716 54.412 27.9085 53.8087 28.172C53.2055 28.4354 52.6609 28.82 52.2075 29.3026C51.2904 30.2698 50.7715 31.5565 50.7569 32.8995V33.1943H49.3643V35.6119H50.7569V47.7882H53.1359V35.6119H56.3272V33.2238H53.1359V32.929C53.1649 31.4549 54.3544 30.1871 55.718 30.1871Z" fill="#FAFBFC"/>
<path d="M63.5509 27.7991H61.1719V47.8472H63.5509V27.7991Z" fill="#FAFBFC"/>
<path d="M77.8834 41.6261C77.8834 42.6348 77.489 43.6022 76.7872 44.3155C76.0853 45.0287 75.1333 45.4294 74.1407 45.4294C73.1481 45.4294 72.1962 45.0287 71.4943 44.3155C70.7925 43.6022 70.3981 42.6348 70.3981 41.6261V32.6045H68.0771V41.6261C68.0771 43.2682 68.719 44.843 69.8616 46.0041C71.0042 47.1652 72.5539 47.8175 74.1698 47.8175C75.7856 47.8175 77.3353 47.1652 78.4779 46.0041C79.6205 44.843 80.2624 43.2682 80.2624 41.6261V32.6045H77.8834V41.6261Z" fill="#FAFBFC"/>
<path d="M105.619 32.6045C104.005 32.6093 102.458 33.2631 101.317 34.4232C100.175 35.5833 99.5316 37.1553 99.5269 38.7958V47.8175H101.906V38.7958C101.906 37.7871 102.3 36.8198 103.002 36.1065C103.704 35.3933 104.656 34.9926 105.648 34.9926C106.641 34.9926 107.593 35.3933 108.295 36.1065C108.997 36.8198 109.391 37.7871 109.391 38.7958V47.8175H111.77V38.7958C111.742 37.1524 111.084 35.585 109.935 34.4283C108.785 33.2715 107.237 32.617 105.619 32.6045Z" fill="#FAFBFC"/>
<path d="M118.53 42.6878V35.0223H121.721V32.6342H118.53V27.7991H116.18V32.6342H114.091V35.0518H116.18V42.7172C116.184 44.0453 116.704 45.3179 117.629 46.257C118.553 47.1961 119.805 47.7254 121.112 47.7293H122.156V45.3117H121.112C120.427 45.3102 119.772 45.0332 119.288 44.5415C118.804 44.0497 118.531 43.3832 118.53 42.6878Z" fill="#FAFBFC"/>
<path d="M150.327 42.6878V35.0223H153.519V32.6342H150.327V27.7991H147.948V32.6342H145.859V35.0518H147.948V42.7172C147.952 44.0453 148.473 45.3179 149.397 46.257C150.321 47.1961 151.573 47.7254 152.88 47.7293H153.925V45.3117H152.88C152.201 45.304 151.551 45.0242 151.073 44.5329C150.595 44.0416 150.327 43.3786 150.327 42.6878Z" fill="#30B99E"/>
<path d="M127.146 27.7991V33.9609C128.212 33.1081 129.533 32.6505 130.889 32.6637C132.503 32.6685 134.05 33.3223 135.192 34.4824C136.333 35.6425 136.977 37.2145 136.982 38.855V41.6559C136.982 43.2979 136.34 44.8727 135.197 46.0338C134.055 47.1949 132.505 47.8472 130.889 47.8472C129.273 47.8472 127.723 47.1949 126.581 46.0338C125.438 44.8727 124.796 43.2979 124.796 41.6559V27.7991H127.146ZM127.146 40.1523V41.6264C127.146 42.6351 127.541 43.6024 128.243 44.3157C128.944 45.0289 129.896 45.4296 130.889 45.4296C131.882 45.4296 132.834 45.0289 133.535 44.3157C134.237 43.6024 134.632 42.6351 134.632 41.6264V38.8256C134.632 37.8169 134.237 36.8495 133.535 36.1362C132.834 35.423 131.882 35.0223 130.889 35.0223C129.896 35.0223 128.944 35.423 128.243 36.1362C127.541 36.8495 127.146 37.8169 127.146 38.8256V40.1523Z" fill="#30B99E"/>
<defs>
<linearGradient id="paint0_linear" x1="58.6972" y1="30.0254" x2="4.394" y2="34.3396" gradientUnits="userSpaceOnUse">
<stop offset="0.2986" stop-color="#0097CE"/>
<stop offset="0.3791" stop-color="#0999C5"/>
<stop offset="0.5119" stop-color="#229DAD"/>
<stop offset="0.6469" stop-color="#42A38F"/>
<stop offset="0.7352" stop-color="#5DAD82"/>
<stop offset="0.9239" stop-color="#A1C661"/>
<stop offset="1" stop-color="#BED153"/>
</linearGradient>
<linearGradient id="paint1_linear" x1="1.7445" y1="15.6775" x2="54.3939" y2="29.933" gradientUnits="userSpaceOnUse">
<stop offset="0.08199" stop-color="#3D65AF"/>
<stop offset="0.2305" stop-color="#2372B8"/>
<stop offset="0.5058" stop-color="#00B8BB"/>
</linearGradient>
<linearGradient id="paint2_linear" x1="3.32892" y1="9.74018" x2="31.9288" y2="17.484" gradientUnits="userSpaceOnUse">
<stop offset="0.1297"/>
<stop offset="0.3277" stop-color="#00334B"/>
<stop offset="0.5276" stop-color="#006190"/>
<stop offset="0.6723" stop-color="#007FBB"/>
<stop offset="0.7457" stop-color="#008ACC"/>
</linearGradient>
<linearGradient id="paint3_linear" x1="10.5022" y1="63.1606" x2="37.1384" y2="63.1606" gradientUnits="userSpaceOnUse">
<stop offset="0.1297"/>
<stop offset="0.3277" stop-color="#00334B"/>
<stop offset="0.5276" stop-color="#006190"/>
<stop offset="0.6723" stop-color="#007FBB"/>
<stop offset="0.7457" stop-color="#008ACC"/>
</linearGradient>
<linearGradient id="paint4_linear" x1="10.8905" y1="49.7484" x2="34.5672" y2="49.7484" gradientUnits="userSpaceOnUse">
<stop offset="0.1297"/>
<stop offset="0.3277" stop-color="#00334B"/>
<stop offset="0.5276" stop-color="#006190"/>
<stop offset="0.6723" stop-color="#007FBB"/>
<stop offset="0.7457" stop-color="#008ACC"/>
</linearGradient>
<linearGradient id="paint5_linear" x1="6.3005" y1="15.7645" x2="30.5898" y2="22.3412" gradientUnits="userSpaceOnUse">
<stop offset="0.1297" stop-color="#2483C5"/>
<stop offset="0.1672" stop-color="#2486C7"/>
<stop offset="0.676" stop-color="#29B1DF"/>
<stop offset="0.9352" stop-color="#2BC2E8"/>
</linearGradient>
<linearGradient id="paint6_linear" x1="7.87288" y1="282.924" x2="31.5494" y2="282.924" gradientUnits="userSpaceOnUse">
<stop offset="0.1297"/>
<stop offset="0.3277" stop-color="#00334B"/>
<stop offset="0.5276" stop-color="#006190"/>
<stop offset="0.6723" stop-color="#007FBB"/>
<stop offset="0.7457" stop-color="#008ACC"/>
</linearGradient>
<linearGradient id="paint7_linear" x1="3.36796" y1="9.92397" x2="3.36799" y2="9.92398" gradientUnits="userSpaceOnUse">
<stop stop-color="#682C90"/>
<stop offset="0.496" stop-color="#817CB9"/>
<stop offset="1" stop-color="white"/>
</linearGradient>
<linearGradient id="paint8_linear" x1="117.715" y1="195.682" x2="62.2497" y2="195.682" gradientUnits="userSpaceOnUse">
<stop stop-color="#682C90"/>
<stop offset="0.496" stop-color="#817CB9"/>
<stop offset="1" stop-color="white"/>
</linearGradient>
<linearGradient id="paint9_linear" x1="24.7507" y1="483.317" x2="14.2573" y2="483.317" gradientUnits="userSpaceOnUse">
<stop stop-color="#682C90"/>
<stop offset="0.496" stop-color="#817CB9"/>
<stop offset="1" stop-color="white"/>
</linearGradient>
<linearGradient id="paint10_linear" x1="113.805" y1="210.331" x2="61.3385" y2="210.331" gradientUnits="userSpaceOnUse">
<stop stop-color="#682C90"/>
<stop offset="0.496" stop-color="#817CB9"/>
<stop offset="1" stop-color="white"/>
</linearGradient>
<linearGradient id="paint11_linear" x1="1.5366" y1="19.9098" x2="24.7373" y2="26.1917" gradientUnits="userSpaceOnUse">
<stop offset="0.1297" stop-color="#3B67AD"/>
<stop offset="0.5697" stop-color="#227CAA"/>
<stop offset="0.9352" stop-color="#118AA8"/>
</linearGradient>
<linearGradient id="paint12_linear" x1="70.163" y1="129.612" x2="38.6829" y2="129.612" gradientUnits="userSpaceOnUse">
<stop stop-color="#682C90"/>
<stop offset="0.496" stop-color="#817CB9"/>
<stop offset="1" stop-color="white"/>
</linearGradient>
<linearGradient id="paint13_linear" x1="381.804" y1="8448.03" x2="2456.46" y2="8448.03" gradientUnits="userSpaceOnUse">
<stop offset="0.1297"/>
<stop offset="0.3277" stop-color="#00334B"/>
<stop offset="0.5276" stop-color="#006190"/>
<stop offset="0.6723" stop-color="#007FBB"/>
<stop offset="0.7457" stop-color="#008ACC"/>
</linearGradient>
<linearGradient id="paint14_linear" x1="2.05362" y1="14.4466" x2="25.3232" y2="20.7472" gradientUnits="userSpaceOnUse">
<stop offset="0.1297" stop-color="#3A67B0"/>
<stop offset="0.5622" stop-color="#357FBD"/>
<stop offset="0.9352" stop-color="#3290C6"/>
</linearGradient>
<linearGradient id="paint15_linear" x1="31.4957" y1="19.1266" x2="55.5631" y2="25.6432" gradientUnits="userSpaceOnUse">
<stop offset="0.1724" stop-color="#4E5CA8"/>
<stop offset="0.9937" stop-color="#1FC3F3"/>
</linearGradient>
</defs>
</svg>
