<svg width="51" height="38" viewBox="0 0 51 38" fill="none" xmlns="http://www.w3.org/2000/svg">
<path d="M49.5527 12.6328C49.9336 12.3301 50.5 12.6133 50.5 13.0918V33.0625C50.5 35.6504 48.4004 37.75 45.8125 37.75H5.1875C2.59961 37.75 0.5 35.6504 0.5 33.0625V13.1016C0.5 12.6133 1.05664 12.3398 1.44727 12.6426C3.63477 14.3418 6.53516 16.5 16.4961 23.7363C18.5566 25.2402 22.0332 28.4043 25.5 28.3848C28.9863 28.4141 32.5312 25.1816 34.5137 23.7363C44.4746 16.5 47.3652 14.332 49.5527 12.6328ZM25.5 25.25C27.7656 25.2891 31.0273 22.3984 32.668 21.207C45.627 11.8027 46.6133 10.9824 49.6016 8.63867C50.168 8.19922 50.5 7.51562 50.5 6.79297V4.9375C50.5 2.34961 48.4004 0.25 45.8125 0.25H5.1875C2.59961 0.25 0.5 2.34961 0.5 4.9375V6.79297C0.5 7.51562 0.832031 8.18945 1.39844 8.63867C4.38672 10.9727 5.37305 11.8027 18.332 21.207C19.9727 22.3984 23.2344 25.2891 25.5 25.25Z" fill="#262C36"/>
</svg>
