<svg width="1787" height="1056" viewBox="0 0 1787 1056" fill="none" xmlns="http://www.w3.org/2000/svg">
<g style="mix-blend-mode:multiply" opacity="0.4">
<mask id="mask0" style="mask-type:alpha" maskUnits="userSpaceOnUse" x="-145" y="0" width="2111" height="1056">
<path fill-rule="evenodd" clip-rule="evenodd" d="M-144.974 230.429L-55.6483 204.485C30.3692 178.541 205.713 128.648 384.364 128.648C559.708 128.648 735.051 178.541 910.394 178.541C1085.74 178.541 1261.08 128.648 1439.73 90.73C1615.08 50.816 1790.42 26.8676 1876.44 12.8978L1965.76 0.923584V681.456H1876.44C1790.42 681.456 1615.08 681.456 1439.73 681.456C1261.08 681.456 1085.74 681.456 910.394 681.456C735.051 681.456 559.708 681.456 384.364 681.456C205.713 681.456 30.3692 681.456 -55.6483 681.456H-144.974V230.429Z" fill="url(#paint0_linear)"/>
<path fill-rule="evenodd" clip-rule="evenodd" d="M1965.76 826.216L1876.44 852.16C1790.42 878.104 1615.08 927.996 1436.42 927.996C1261.08 927.996 1085.74 878.104 910.394 878.104C735.051 878.104 559.708 927.996 381.056 965.914C205.713 1005.83 30.3693 1029.78 -55.6482 1043.75L-144.974 1055.72L-144.974 375.188H-55.6481C30.3693 375.188 205.713 375.188 381.056 375.188C559.708 375.188 735.051 375.188 910.394 375.188C1085.74 375.188 1261.08 375.188 1436.42 375.188C1615.08 375.188 1790.42 375.188 1876.44 375.188H1965.76V826.216Z" fill="url(#paint1_linear)"/>
</mask>
<g mask="url(#mask0)">
<g filter="url(#filter0_dddddd)">
<g style="mix-blend-mode:hard-light">
<path d="M1671.5 218.978C1635.94 213.935 1557.38 212.254 1401.9 245.03C1383.49 249.477 1364.59 251.455 1345.67 250.913C1325.15 248.535 1304.92 244.029 1285.3 237.466C1200.12 208.053 1129.82 217.297 1088.47 239.147C1064.11 252.552 1043.16 271.543 1027.28 294.613C1001.64 329.909 947.886 437.48 874.284 466.053C832.934 492.946 788.277 520.679 749.408 560.177C724.598 586.229 717.982 647.578 652.65 707.246C588.444 803.375 506.422 885.87 411.168 950.119C287.946 1037.52 184.572 1064.41 184.572 1064.41C184.572 1064.41 458.307 1140.89 758.505 998.022C986.755 888.771 1105.01 676.151 1132.31 629.089L1281.16 371.929C1294.4 348.398 1318.38 318.144 1340.71 306.378C1348.15 302.176 1354.77 299.655 1356.42 297.975C1372.96 289.571 1390.33 282.847 1407.69 276.124C1511.89 238.307 1620.23 234.945 1670.68 229.062C1677.29 227.382 1676.47 219.818 1671.5 218.978Z" fill="url(#paint2_linear)"/>
<path d="M1671.51 218.988C1635.95 213.946 1557.38 212.265 1401.91 245.04C1383.49 249.487 1364.59 251.465 1345.67 250.923C1325.15 248.545 1304.92 244.039 1285.3 237.477C1197.64 208.063 1130.65 215.626 1088.48 239.157C1064.11 252.562 1043.16 271.553 1027.28 294.623C1001.64 329.92 947.887 437.49 874.285 466.063C791.586 387.066 718.81 320.675 648.516 261.848C608.82 229.913 569.952 199.659 536.872 177.809C456.008 120.175 370.846 69.0363 282.158 24.8573C244.117 7.20905 204.421 -8.75841 160.59 -25.5663C141.57 -31.449 130.819 -22.2047 127.511 -7.07762C125.857 -2.03527 124.203 11.411 132.473 34.942C154.982 94.4474 182.082 152.053 213.518 207.222C225.923 229.913 239.982 253.444 254.867 276.975C324.159 387.806 405.434 490.412 497.176 582.878C516.197 601.366 534.391 618.174 554.239 634.142C577.987 654.318 602.836 673.116 628.668 690.448C631.149 692.129 643.554 699.692 651.824 704.735C668.364 713.979 690.693 724.904 704.752 730.787C762.067 757.471 824.476 770.959 887.517 770.285C979.313 772.807 1053.74 743.393 1090.13 693.81C1105.42 672.807 1119.51 650.92 1132.31 628.259L1281.17 371.099C1294.4 347.568 1318.38 317.314 1340.71 305.548C1348.15 301.346 1354.77 298.825 1356.42 297.144C1372.13 289.581 1372.13 292.102 1388.67 285.379C1494.53 247.561 1621.06 234.115 1671.51 228.232C1672.62 228.096 1673.64 227.55 1674.38 226.698C1675.13 225.847 1675.54 224.748 1675.54 223.61C1675.54 222.472 1675.13 221.373 1674.38 220.522C1673.64 219.67 1672.62 219.124 1671.51 218.988Z" fill="url(#paint3_linear)"/>
<path opacity="0.8" d="M125.849 2.15633C125.849 -0.364856 126.676 -2.88603 125.849 -4.56682C126.683 -2.40591 126.683 -0.00458193 125.849 2.15633Z" fill="url(#paint4_linear)"/>
<path d="M706.408 481.179C762.602 489.773 820.017 483.996 873.461 464.371C823.841 417.309 776.703 374.449 732.872 335.791C710.543 316.462 689.041 297.133 668.367 279.485C667.54 278.645 665.886 277.804 665.886 276.964C660.097 271.922 655.135 267.72 650.173 263.518C648.519 262.677 647.692 260.996 646.865 260.996C607.169 229.062 568.3 199.648 536.875 176.957C452.521 118.97 368.168 65.185 282.988 24.0058C275.545 19.8038 268.102 17.2827 259.832 13.0807C257.719 12.0094 255.502 11.1644 253.216 10.5595C582.359 191.244 687.387 355.12 706.408 481.179Z" fill="url(#paint5_linear)"/>
<path opacity="0.8" d="M138.257 50.8993C135.776 45.857 134.122 39.9743 131.641 34.0915C134.122 39.1339 135.776 45.0166 138.257 50.8993Z" fill="url(#paint6_linear)"/>
<path opacity="0.3" d="M125.849 4.67936C125.849 3.83897 125.849 3.83897 126.676 2.99858C126.676 3.83897 126.676 3.83897 125.849 4.67936Z" fill="url(#paint7_linear)"/>
<path opacity="0.3" d="M125.849 4.67879C126.296 14.7254 128.249 24.6439 131.638 34.0925C128.249 24.6439 126.296 14.7254 125.849 4.67879Z" fill="url(#paint8_linear)"/>
<path opacity="0.3" d="M248.247 8.87971L253.209 11.4009C244.112 7.19892 234.189 2.99695 224.265 -1.20502C227.573 0.475771 230.054 1.31616 233.362 2.99695C238.457 4.59023 243.432 6.55629 248.247 8.87971Z" fill="url(#paint9_linear)"/>
<path d="M345.842 304.699C257.354 232.425 173.827 131.578 138.267 51.7411C220.966 264.36 435.984 566.061 627.846 690.439C631.154 692.96 642.732 699.684 651.829 704.726C676.639 666.068 722.123 586.231 706.41 481.182C588.151 465.214 460.794 399.664 345.842 304.699Z" fill="url(#paint10_linear)"/>
<path opacity="0.8" d="M345.847 304.699C460.799 399.663 588.156 464.374 706.416 480.341C687.395 355.123 582.367 190.406 253.224 11.4023C251.491 10.7338 249.828 9.88911 248.262 8.88108C243.3 6.35991 238.338 4.67912 234.203 2.15795C230.895 0.477161 228.414 -0.36323 225.106 -2.04401C222.993 -3.11535 220.776 -3.96028 218.491 -4.56519C213.448 -7.02819 208.187 -8.99799 202.778 -10.4479C201.951 -10.4479 201.124 -11.2883 200.297 -11.2883C197.816 -12.1287 195.335 -13.8095 192.854 -14.6499C182.93 -18.0115 173.006 -23.0538 162.255 -26.4154C143.234 -32.2981 132.483 -23.0538 128.348 -8.76715C127.931 -7.11362 127.654 -5.4266 127.521 -3.7248C126.694 -2.04401 127.521 0.477165 127.521 2.99834C127.521 3.83873 127.521 3.83873 126.694 4.67912C127.142 14.7257 129.094 24.6442 132.483 34.0929C134.325 40.1097 136.535 46.0039 139.099 51.7411C173.833 131.578 258.186 232.425 345.847 304.699Z" fill="url(#paint11_linear)"/>
<path d="M345.847 304.699C460.799 399.663 588.156 464.374 706.416 480.341C687.395 355.123 582.367 190.406 253.224 11.4023C251.491 10.7338 249.828 9.88911 248.262 8.88108C243.3 6.35991 238.338 4.67912 234.203 2.15795C230.895 0.477161 228.414 -0.36323 225.106 -2.04401C222.993 -3.11535 220.776 -3.96028 218.491 -4.56519C213.448 -7.02819 208.187 -8.99799 202.778 -10.4479C201.951 -10.4479 201.124 -11.2883 200.297 -11.2883C197.816 -12.1287 195.335 -13.8095 192.854 -14.6499C182.93 -18.0115 173.006 -23.0538 162.255 -26.4154C143.234 -32.2981 132.483 -23.0538 128.348 -8.76715C127.931 -7.11362 127.654 -5.4266 127.521 -3.7248C126.694 -2.04401 127.521 0.477165 127.521 2.99834C127.521 3.83873 127.521 3.83873 126.694 4.67912C127.142 14.7257 129.094 24.6442 132.483 34.0929C134.325 40.1097 136.535 46.0039 139.099 51.7411C173.833 131.578 258.186 232.425 345.847 304.699Z" fill="url(#paint12_linear)"/>
<path d="M1671.51 218.978C1635.95 213.935 1557.38 212.254 1401.91 245.03C1383.5 249.477 1364.59 251.455 1345.67 250.913C1325.15 248.535 1304.92 244.029 1285.3 237.466C1245.05 222.721 1202.34 216.154 1159.6 218.137C1130.32 220.203 1102.08 230.057 1077.73 246.711C1058.24 259.547 1041.39 276.1 1028.11 295.453C1002.47 330.75 948.717 438.32 875.114 466.893C933.004 522.359 1022.32 568.581 1105.85 540.848C1186.06 513.956 1235.68 441.682 1251.4 418.151C1267.43 393.42 1285.12 369.833 1304.32 347.558C1331.43 318.712 1365.29 297.316 1402.74 285.369C1497.01 253.434 1639.26 234.105 1673.16 230.743C1677.3 227.382 1676.47 219.818 1671.51 218.978Z" fill="url(#paint13_linear)"/>
<path d="M1208.89 335.981C1222.59 335.981 1233.7 324.693 1233.7 310.768C1233.7 296.844 1222.59 285.556 1208.89 285.556C1195.18 285.556 1184.08 296.844 1184.08 310.768C1184.08 324.693 1195.18 335.981 1208.89 335.981Z" fill="#282E38"/>
</g>
<g style="mix-blend-mode:hard-light" filter="url(#filter1_d)">
<path d="M1657.19 218.978C1621.63 213.936 1543.07 212.255 1387.59 245.03C1369.18 249.478 1350.27 251.456 1331.36 250.913C1310.83 248.535 1290.61 244.03 1270.99 237.467C1185.81 208.053 1115.51 217.297 1074.16 239.148C1049.8 252.553 1028.85 271.544 1012.96 294.614C987.328 329.91 933.574 437.48 859.971 466.054C818.622 492.946 773.964 520.679 735.096 560.178C710.286 586.23 703.67 647.579 638.337 707.246C574.132 803.375 492.11 885.87 396.856 950.12C273.634 1037.52 170.26 1064.41 170.26 1064.41C170.26 1064.41 443.994 1140.89 744.192 998.022C972.442 888.771 1090.7 676.152 1117.99 629.09L1266.85 371.93C1280.08 348.399 1304.07 318.145 1326.4 306.379C1333.84 302.177 1340.45 299.656 1342.11 297.975C1358.65 289.571 1376.01 282.848 1393.38 276.125C1497.58 238.307 1605.92 234.946 1656.36 229.063C1662.98 227.382 1662.15 219.819 1657.19 218.978Z" fill="url(#paint14_linear)"/>
<path d="M1657.19 218.989C1621.63 213.946 1543.07 212.265 1387.59 245.041C1369.18 249.488 1350.28 251.466 1331.36 250.923C1310.84 248.546 1290.61 244.04 1270.99 237.477C1183.33 208.063 1116.34 215.627 1074.16 239.158C1049.8 252.563 1028.85 271.554 1012.97 294.624C987.329 329.92 933.574 437.491 859.972 466.064C777.273 387.067 704.497 320.676 634.203 261.849C594.507 229.914 555.639 199.66 522.559 177.809C441.695 120.176 356.533 69.037 267.845 24.8579C229.804 7.2097 190.108 -8.75776 146.277 -25.5656C127.257 -31.4484 116.506 -22.204 113.198 -7.07697C111.544 -2.03462 109.89 11.4117 118.16 34.9426C140.669 94.4481 167.769 152.054 199.205 207.223C211.61 229.914 225.669 253.445 240.555 276.976C309.846 387.807 391.121 490.412 482.863 582.878C501.884 601.367 520.078 618.175 539.926 634.142C563.674 654.318 588.523 673.117 614.355 690.449C616.836 692.13 629.241 699.693 637.511 704.735C654.051 713.98 676.38 724.905 690.439 730.788C747.754 757.472 810.163 770.96 873.204 770.286C965 772.807 1039.43 743.393 1075.82 693.81C1091.11 672.808 1105.19 650.921 1117.99 628.26L1266.85 371.1C1280.08 347.569 1304.07 317.315 1326.4 305.549C1333.84 301.347 1340.45 298.826 1342.11 297.145C1357.82 289.582 1357.82 292.103 1374.36 285.38C1480.22 247.562 1606.75 234.116 1657.19 228.233C1658.3 228.096 1659.33 227.551 1660.07 226.699C1660.81 225.847 1661.22 224.749 1661.22 223.611C1661.22 222.473 1660.81 221.374 1660.07 220.522C1659.33 219.671 1658.3 219.125 1657.19 218.989Z" fill="url(#paint15_linear)"/>
<path opacity="0.8" d="M111.536 2.15697C111.536 -0.364207 112.363 -2.88538 111.536 -4.56617C112.37 -2.40526 112.37 -0.00393343 111.536 2.15697Z" fill="url(#paint16_linear)"/>
<path d="M692.095 481.18C748.289 489.773 805.704 483.996 859.148 464.372C809.528 417.31 762.39 374.45 718.559 335.792C696.23 316.463 674.728 297.134 654.054 279.486C653.227 278.645 651.573 277.805 651.573 276.965C645.784 271.922 640.822 267.72 635.86 263.518C634.206 262.678 633.379 260.997 632.552 260.997C592.856 229.062 553.987 199.648 522.562 176.958C438.209 118.971 353.855 65.1857 268.675 24.0064C261.232 19.8045 253.789 17.2833 245.519 13.0813C243.406 12.01 241.189 11.1651 238.903 10.5602C568.046 191.245 673.074 355.121 692.095 481.18Z" fill="url(#paint17_linear)"/>
<path opacity="0.8" d="M123.944 50.9C121.463 45.8576 119.809 39.9749 117.328 34.0922C119.809 39.1345 121.463 45.0173 123.944 50.9Z" fill="url(#paint18_linear)"/>
<path opacity="0.3" d="M111.536 4.68001C111.536 3.83962 111.536 3.83962 112.363 2.99923C112.363 3.83962 112.363 3.83962 111.536 4.68001Z" fill="url(#paint19_linear)"/>
<path opacity="0.3" d="M111.536 4.67944C111.983 14.726 113.936 24.6446 117.325 34.0932C113.936 24.6446 111.983 14.726 111.536 4.67944Z" fill="url(#paint20_linear)"/>
<path opacity="0.3" d="M233.935 8.88036L238.897 11.4015C229.8 7.19957 219.876 2.9976 209.952 -1.20437C213.26 0.476419 215.741 1.31681 219.049 2.9976C224.144 4.59088 229.119 6.55694 233.935 8.88036Z" fill="url(#paint21_linear)"/>
<path d="M331.528 304.7C243.04 232.426 159.514 131.579 123.953 51.7417C206.652 264.361 421.67 566.062 613.533 690.44C616.841 692.961 628.419 699.684 637.515 704.727C662.325 666.068 707.81 586.231 692.097 481.182C573.837 465.215 446.48 399.664 331.528 304.7Z" fill="url(#paint22_linear)"/>
<path opacity="0.8" d="M331.534 304.7C446.486 399.664 573.843 464.374 692.103 480.342C673.082 355.123 568.054 190.406 238.911 11.4029C237.178 10.7344 235.516 9.88976 233.949 8.88173C228.987 6.36056 224.025 4.67977 219.89 2.15859C216.582 0.47781 214.101 -0.362581 210.793 -2.04337C208.68 -3.1147 206.463 -3.95963 204.178 -4.56454C199.135 -7.02754 193.874 -8.99734 188.465 -10.4473C187.638 -10.4473 186.811 -11.2877 185.984 -11.2877C183.503 -12.1281 181.022 -13.8089 178.541 -14.6493C168.617 -18.0108 158.693 -23.0532 147.942 -26.4147C128.921 -32.2975 118.17 -23.0532 114.035 -8.7665C113.618 -7.11297 113.341 -5.42595 113.208 -3.72415C112.381 -2.04336 113.208 0.477814 113.208 2.99899C113.208 3.83938 113.208 3.83938 112.381 4.67977C112.829 14.7263 114.781 24.6449 118.17 34.0935C120.012 40.1103 122.222 46.0045 124.786 51.7417C159.52 131.579 243.873 232.426 331.534 304.7Z" fill="url(#paint23_linear)"/>
<path d="M331.534 304.7C446.486 399.664 573.843 464.374 692.103 480.342C673.082 355.123 568.054 190.406 238.911 11.4029C237.178 10.7344 235.516 9.88976 233.949 8.88173C228.987 6.36056 224.025 4.67977 219.89 2.15859C216.582 0.47781 214.101 -0.362581 210.793 -2.04337C208.68 -3.1147 206.463 -3.95963 204.178 -4.56454C199.135 -7.02754 193.874 -8.99734 188.465 -10.4473C187.638 -10.4473 186.811 -11.2877 185.984 -11.2877C183.503 -12.1281 181.022 -13.8089 178.541 -14.6493C168.617 -18.0108 158.693 -23.0532 147.942 -26.4147C128.921 -32.2975 118.17 -23.0532 114.035 -8.7665C113.618 -7.11297 113.341 -5.42595 113.208 -3.72415C112.381 -2.04336 113.208 0.477814 113.208 2.99899C113.208 3.83938 113.208 3.83938 112.381 4.67977C112.829 14.7263 114.781 24.6449 118.17 34.0935C120.012 40.1103 122.222 46.0045 124.786 51.7417C159.52 131.579 243.873 232.426 331.534 304.7Z" fill="url(#paint24_linear)"/>
<path d="M1657.19 218.978C1621.63 213.936 1543.07 212.255 1387.59 245.03C1369.18 249.478 1350.28 251.456 1331.36 250.913C1310.84 248.535 1290.61 244.03 1270.99 237.467C1230.74 222.722 1188.03 216.154 1145.29 218.138C1116 220.204 1087.77 230.058 1063.41 246.711C1043.93 259.547 1027.08 276.1 1013.79 295.454C988.158 330.751 934.403 438.321 860.801 466.894C918.69 522.36 1008.01 568.582 1091.53 540.849C1171.75 513.956 1221.37 441.682 1237.08 418.151C1253.12 393.42 1270.8 369.834 1290.01 347.558C1317.12 318.712 1350.97 297.317 1388.42 285.369C1482.7 253.434 1624.94 234.105 1658.85 230.744C1662.98 227.382 1662.16 219.819 1657.19 218.978Z" fill="url(#paint25_linear)"/>
<path d="M1194.57 335.981C1208.28 335.981 1219.38 324.693 1219.38 310.769C1219.38 296.844 1208.28 285.556 1194.57 285.556C1180.87 285.556 1169.76 296.844 1169.76 310.769C1169.76 324.693 1180.87 335.981 1194.57 335.981Z" fill="#474BA4"/>
</g>
</g>
</g>
</g>
<defs>
<filter id="filter0_dddddd" x="-17.4639" y="-121.214" width="1822.27" height="1371.07" filterUnits="userSpaceOnUse" color-interpolation-filters="sRGB">
<feFlood flood-opacity="0" result="BackgroundImageFix"/>
<feColorMatrix in="SourceAlpha" type="matrix" values="0 0 0 0 0 0 0 0 0 0 0 0 0 0 0 0 0 0 127 0" result="hardAlpha"/>
<feOffset dy="22.1714"/>
<feColorMatrix type="matrix" values="0 0 0 0 0 0 0 0 0 0 0 0 0 0 0 0 0 0 0.0384761 0"/>
<feBlend mode="normal" in2="BackgroundImageFix" result="effect1_dropShadow"/>
<feColorMatrix in="SourceAlpha" type="matrix" values="0 0 0 0 0 0 0 0 0 0 0 0 0 0 0 0 0 0 127 0" result="hardAlpha"/>
<feOffset dy="27.21"/>
<feGaussianBlur stdDeviation="0.0135928"/>
<feColorMatrix type="matrix" values="0 0 0 0 0 0 0 0 0 0 0 0 0 0 0 0 0 0 0.0544252 0"/>
<feBlend mode="normal" in2="effect1_dropShadow" result="effect2_dropShadow"/>
<feColorMatrix in="SourceAlpha" type="matrix" values="0 0 0 0 0 0 0 0 0 0 0 0 0 0 0 0 0 0 127 0" result="hardAlpha"/>
<feOffset dy="27.9577"/>
<feGaussianBlur stdDeviation="4.08405"/>
<feColorMatrix type="matrix" values="0 0 0 0 0 0 0 0 0 0 0 0 0 0 0 0 0 0 0.0664041 0"/>
<feBlend mode="normal" in2="effect2_dropShadow" result="effect3_dropShadow"/>
<feColorMatrix in="SourceAlpha" type="matrix" values="0 0 0 0 0 0 0 0 0 0 0 0 0 0 0 0 0 0 127 0" result="hardAlpha"/>
<feOffset dy="27.2081"/>
<feGaussianBlur stdDeviation="12.3478"/>
<feColorMatrix type="matrix" values="0 0 0 0 0 0 0 0 0 0 0 0 0 0 0 0 0 0 0.0782895 0"/>
<feBlend mode="normal" in2="effect3_dropShadow" result="effect4_dropShadow"/>
<feColorMatrix in="SourceAlpha" type="matrix" values="0 0 0 0 0 0 0 0 0 0 0 0 0 0 0 0 0 0 127 0" result="hardAlpha"/>
<feOffset dy="27.0882"/>
<feGaussianBlur stdDeviation="27.7613"/>
<feColorMatrix type="matrix" values="0 0 0 0 0 0 0 0 0 0 0 0 0 0 0 0 0 0 0.0938792 0"/>
<feBlend mode="normal" in2="effect4_dropShadow" result="effect5_dropShadow"/>
<feColorMatrix in="SourceAlpha" type="matrix" values="0 0 0 0 0 0 0 0 0 0 0 0 0 0 0 0 0 0 127 0" result="hardAlpha"/>
<feOffset dy="36"/>
<feGaussianBlur stdDeviation="64.5"/>
<feColorMatrix type="matrix" values="0 0 0 0 0 0 0 0 0 0 0 0 0 0 0 0 0 0 0.13 0"/>
<feBlend mode="normal" in2="effect5_dropShadow" result="effect6_dropShadow"/>
<feBlend mode="normal" in="SourceGraphic" in2="effect6_dropShadow" result="shape"/>
</filter>
<filter id="filter1_d" x="-52.4639" y="-192.213" width="1877.96" height="1441.07" filterUnits="userSpaceOnUse" color-interpolation-filters="sRGB">
<feFlood flood-opacity="0" result="BackgroundImageFix"/>
<feColorMatrix in="SourceAlpha" type="matrix" values="0 0 0 0 0 0 0 0 0 0 0 0 0 0 0 0 0 0 127 0" result="hardAlpha"/>
<feOffset/>
<feGaussianBlur stdDeviation="82"/>
<feComposite in2="hardAlpha" operator="out"/>
<feColorMatrix type="matrix" values="0 0 0 0 0.188235 0 0 0 0 0.72549 0 0 0 0 0.619608 0 0 0 0.71 0"/>
<feBlend mode="normal" in2="BackgroundImageFix" result="effect1_dropShadow"/>
<feBlend mode="normal" in="SourceGraphic" in2="effect1_dropShadow" result="shape"/>
</filter>
<linearGradient id="paint0_linear" x1="910.394" y1="0.923584" x2="910.394" y2="1055.72" gradientUnits="userSpaceOnUse">
<stop stop-color="#4E5DA9"/>
<stop offset="1" stop-color="#229DAD"/>
</linearGradient>
<linearGradient id="paint1_linear" x1="910.394" y1="0.923584" x2="910.394" y2="1055.72" gradientUnits="userSpaceOnUse">
<stop stop-color="#4E5DA9"/>
<stop offset="1" stop-color="#229DAD"/>
</linearGradient>
<linearGradient id="paint2_linear" x1="1703.5" y1="576.849" x2="155.607" y2="699.826" gradientUnits="userSpaceOnUse">
<stop offset="0.2986" stop-color="#0097CE"/>
<stop offset="0.3791" stop-color="#0999C5"/>
<stop offset="0.5119" stop-color="#229DAD"/>
<stop offset="0.6469" stop-color="#42A38F"/>
<stop offset="0.7352" stop-color="#5DAD82"/>
<stop offset="0.9239" stop-color="#A1C661"/>
<stop offset="1" stop-color="#BED153"/>
</linearGradient>
<linearGradient id="paint3_linear" x1="80.0869" y1="167.882" x2="1580.84" y2="574.231" gradientUnits="userSpaceOnUse">
<stop offset="0.08199" stop-color="#3D65AF"/>
<stop offset="0.2305" stop-color="#2372B8"/>
<stop offset="0.5058" stop-color="#00B8BB"/>
</linearGradient>
<linearGradient id="paint4_linear" x1="125.245" y1="-1.3742" x2="940.477" y2="219.361" gradientUnits="userSpaceOnUse">
<stop offset="0.1297"/>
<stop offset="0.3277" stop-color="#00334B"/>
<stop offset="0.5276" stop-color="#006190"/>
<stop offset="0.6723" stop-color="#007FBB"/>
<stop offset="0.7457" stop-color="#008ACC"/>
</linearGradient>
<linearGradient id="paint5_linear" x1="209.95" y1="170.352" x2="902.311" y2="357.818" gradientUnits="userSpaceOnUse">
<stop offset="0.1297" stop-color="#2483C5"/>
<stop offset="0.1672" stop-color="#2486C7"/>
<stop offset="0.676" stop-color="#29B1DF"/>
<stop offset="0.9352" stop-color="#2BC2E8"/>
</linearGradient>
<linearGradient id="paint6_linear" x1="254.772" y1="7785.65" x2="929.665" y2="7785.65" gradientUnits="userSpaceOnUse">
<stop offset="0.1297"/>
<stop offset="0.3277" stop-color="#00334B"/>
<stop offset="0.5276" stop-color="#006190"/>
<stop offset="0.6723" stop-color="#007FBB"/>
<stop offset="0.7457" stop-color="#008ACC"/>
</linearGradient>
<linearGradient id="paint7_linear" x1="126.358" y1="3.86563" x2="126.359" y2="3.86584" gradientUnits="userSpaceOnUse">
<stop stop-color="#682C90"/>
<stop offset="0.496" stop-color="#817CB9"/>
<stop offset="1" stop-color="white"/>
</linearGradient>
<linearGradient id="paint8_linear" x1="735.867" y1="13497.8" x2="436.756" y2="13497.8" gradientUnits="userSpaceOnUse">
<stop stop-color="#682C90"/>
<stop offset="0.496" stop-color="#817CB9"/>
<stop offset="1" stop-color="white"/>
</linearGradient>
<linearGradient id="paint9_linear" x1="3274.34" y1="5716.43" x2="1778.79" y2="5716.43" gradientUnits="userSpaceOnUse">
<stop stop-color="#682C90"/>
<stop offset="0.496" stop-color="#817CB9"/>
<stop offset="1" stop-color="white"/>
</linearGradient>
<linearGradient id="paint10_linear" x1="74.1582" y1="288.51" x2="735.489" y2="467.574" gradientUnits="userSpaceOnUse">
<stop offset="0.1297" stop-color="#3B67AD"/>
<stop offset="0.5697" stop-color="#227CAA"/>
<stop offset="0.9352" stop-color="#118AA8"/>
</linearGradient>
<linearGradient id="paint11_linear" x1="10913.6" y1="240530" x2="70051.2" y2="240530" gradientUnits="userSpaceOnUse">
<stop offset="0.1297"/>
<stop offset="0.3277" stop-color="#00334B"/>
<stop offset="0.5276" stop-color="#006190"/>
<stop offset="0.6723" stop-color="#007FBB"/>
<stop offset="0.7457" stop-color="#008ACC"/>
</linearGradient>
<linearGradient id="paint12_linear" x1="88.9034" y1="132.782" x2="752.198" y2="312.378" gradientUnits="userSpaceOnUse">
<stop offset="0.1297" stop-color="#3A67B0"/>
<stop offset="0.5622" stop-color="#357FBD"/>
<stop offset="0.9352" stop-color="#3290C6"/>
</linearGradient>
<linearGradient id="paint13_linear" x1="928.131" y1="266.183" x2="1614.17" y2="451.935" gradientUnits="userSpaceOnUse">
<stop offset="0.1724" stop-color="#4E5CA8"/>
<stop offset="0.9937" stop-color="#1FC3F3"/>
</linearGradient>
<linearGradient id="paint14_linear" x1="1689.19" y1="576.85" x2="141.294" y2="699.826" gradientUnits="userSpaceOnUse">
<stop offset="0.2986" stop-color="#0097CE"/>
<stop offset="0.3791" stop-color="#0999C5"/>
<stop offset="0.5119" stop-color="#229DAD"/>
<stop offset="0.6469" stop-color="#42A38F"/>
<stop offset="0.7352" stop-color="#5DAD82"/>
<stop offset="0.9239" stop-color="#A1C661"/>
<stop offset="1" stop-color="#BED153"/>
</linearGradient>
<linearGradient id="paint15_linear" x1="65.7739" y1="167.882" x2="1566.53" y2="574.232" gradientUnits="userSpaceOnUse">
<stop offset="0.08199" stop-color="#3D65AF"/>
<stop offset="0.2305" stop-color="#2372B8"/>
<stop offset="0.5058" stop-color="#00B8BB"/>
</linearGradient>
<linearGradient id="paint16_linear" x1="110.932" y1="-1.37355" x2="926.164" y2="219.361" gradientUnits="userSpaceOnUse">
<stop offset="0.1297"/>
<stop offset="0.3277" stop-color="#00334B"/>
<stop offset="0.5276" stop-color="#006190"/>
<stop offset="0.6723" stop-color="#007FBB"/>
<stop offset="0.7457" stop-color="#008ACC"/>
</linearGradient>
<linearGradient id="paint17_linear" x1="195.637" y1="170.353" x2="887.998" y2="357.819" gradientUnits="userSpaceOnUse">
<stop offset="0.1297" stop-color="#2483C5"/>
<stop offset="0.1672" stop-color="#2486C7"/>
<stop offset="0.676" stop-color="#29B1DF"/>
<stop offset="0.9352" stop-color="#2BC2E8"/>
</linearGradient>
<linearGradient id="paint18_linear" x1="240.458" y1="7785.65" x2="915.352" y2="7785.65" gradientUnits="userSpaceOnUse">
<stop offset="0.1297"/>
<stop offset="0.3277" stop-color="#00334B"/>
<stop offset="0.5276" stop-color="#006190"/>
<stop offset="0.6723" stop-color="#007FBB"/>
<stop offset="0.7457" stop-color="#008ACC"/>
</linearGradient>
<linearGradient id="paint19_linear" x1="112.045" y1="3.86627" x2="112.046" y2="3.86649" gradientUnits="userSpaceOnUse">
<stop stop-color="#682C90"/>
<stop offset="0.496" stop-color="#817CB9"/>
<stop offset="1" stop-color="white"/>
</linearGradient>
<linearGradient id="paint20_linear" x1="721.554" y1="13497.8" x2="422.443" y2="13497.8" gradientUnits="userSpaceOnUse">
<stop stop-color="#682C90"/>
<stop offset="0.496" stop-color="#817CB9"/>
<stop offset="1" stop-color="white"/>
</linearGradient>
<linearGradient id="paint21_linear" x1="3260.03" y1="5716.43" x2="1764.48" y2="5716.43" gradientUnits="userSpaceOnUse">
<stop stop-color="#682C90"/>
<stop offset="0.496" stop-color="#817CB9"/>
<stop offset="1" stop-color="white"/>
</linearGradient>
<linearGradient id="paint22_linear" x1="59.8448" y1="288.511" x2="721.176" y2="467.575" gradientUnits="userSpaceOnUse">
<stop offset="0.1297" stop-color="#3B67AD"/>
<stop offset="0.5697" stop-color="#227CAA"/>
<stop offset="0.9352" stop-color="#118AA8"/>
</linearGradient>
<linearGradient id="paint23_linear" x1="10899.3" y1="240530" x2="70036.9" y2="240530" gradientUnits="userSpaceOnUse">
<stop offset="0.1297"/>
<stop offset="0.3277" stop-color="#00334B"/>
<stop offset="0.5276" stop-color="#006190"/>
<stop offset="0.6723" stop-color="#007FBB"/>
<stop offset="0.7457" stop-color="#008ACC"/>
</linearGradient>
<linearGradient id="paint24_linear" x1="74.5904" y1="132.783" x2="737.885" y2="312.378" gradientUnits="userSpaceOnUse">
<stop offset="0.1297" stop-color="#3A67B0"/>
<stop offset="0.5622" stop-color="#357FBD"/>
<stop offset="0.9352" stop-color="#3290C6"/>
</linearGradient>
<linearGradient id="paint25_linear" x1="913.818" y1="266.183" x2="1599.85" y2="451.936" gradientUnits="userSpaceOnUse">
<stop offset="0.1724" stop-color="#4E5CA8"/>
<stop offset="0.9937" stop-color="#1FC3F3"/>
</linearGradient>
</defs>
</svg>
