<svg width="149" height="156" viewBox="0 0 149 156" fill="none" xmlns="http://www.w3.org/2000/svg">
<path d="M148.586 24.0927C145.168 23.6012 137.615 23.4373 122.669 26.6321C120.899 27.0656 119.082 27.2583 117.263 27.2055C115.291 26.9737 113.346 26.5345 111.46 25.8948C103.271 23.0277 96.5138 23.9288 92.5388 26.0586C90.1968 27.3653 88.1825 29.2164 86.6558 31.4651C84.1913 34.9056 79.0238 45.3909 71.9483 48.176C67.9733 50.7974 63.6803 53.5006 59.9438 57.3507C57.5588 59.8901 56.9228 65.8699 50.6423 71.686C44.4701 81.0561 36.5852 89.0971 27.4283 95.3598C15.5828 103.879 5.64526 106.5 5.64526 106.5C5.64526 106.5 31.9598 113.955 60.8183 100.029C82.7603 89.3799 94.1289 68.6551 96.7523 64.0678L111.062 39.0014C112.334 36.7078 114.64 33.7588 116.786 32.6119C117.502 32.2024 118.138 31.9566 118.297 31.7928C119.887 30.9736 121.556 30.3183 123.226 29.663C133.243 25.9767 143.657 25.6491 148.507 25.0756C149.143 24.9118 149.063 24.1746 148.586 24.0927Z" fill="url(#paint0_linear_837_4191)"/>
<path d="M148.585 24.0947C145.167 23.6032 137.614 23.4394 122.668 26.6341C120.898 27.0676 119.081 27.2604 117.262 27.2075C115.289 26.9757 113.345 26.5366 111.459 25.8968C103.032 23.0298 96.5922 23.767 92.5377 26.0607C90.1957 27.3673 88.1814 29.2184 86.6547 31.4672C84.1902 34.9076 79.0227 45.3929 71.9472 48.1781C63.9972 40.4779 57.0012 34.0066 50.2437 28.2724C46.4277 25.1596 42.6912 22.2106 39.5112 20.0808C31.7376 14.463 23.5508 9.47834 15.0251 5.17204C11.3681 3.4518 7.55214 1.89539 3.33864 0.257062C1.51013 -0.316352 0.476632 0.584727 0.158632 2.05922C-0.000368316 2.55072 -0.159369 3.86138 0.635632 6.15503C2.79954 11.9552 5.40465 17.5703 8.42664 22.9479C9.61914 25.1596 10.9706 27.4533 12.4016 29.7469C19.0627 40.55 26.8758 50.5514 35.6952 59.5644C37.5237 61.3666 39.2727 63.0049 41.1807 64.5613C43.4636 66.5279 45.8524 68.3603 48.3357 70.0497C48.5742 70.2135 49.7667 70.9508 50.5617 71.4423C52.1517 72.3434 54.2982 73.4083 55.6497 73.9817C61.1595 76.5827 67.159 77.8974 73.2192 77.8317C82.0437 78.0775 89.1987 75.2104 92.6967 70.3774C94.1671 68.3301 95.5208 66.1967 96.7513 63.9879L111.061 38.9215C112.333 36.6279 114.639 33.6789 116.785 32.5321C117.501 32.1225 118.137 31.8767 118.296 31.7129C119.806 30.9757 119.806 31.2214 121.396 30.5661C131.572 26.8798 143.736 25.5692 148.585 24.9958C148.692 24.9825 148.791 24.9293 148.862 24.8463C148.933 24.7633 148.973 24.6562 148.973 24.5452C148.973 24.4343 148.933 24.3272 148.862 24.2442C148.791 24.1612 148.692 24.108 148.585 24.0947Z" fill="url(#paint1_linear_837_4191)"/>
<path opacity="0.8" d="M-0.000488281 2.96002C-0.000488281 2.71427 0.0790119 2.46852 -0.000488281 2.30469C0.0796927 2.51532 0.0796927 2.74939 -0.000488281 2.96002Z" fill="url(#paint2_linear_837_4191)"/>
<path opacity="0.8" d="M6.67875 1.4042C6.55666 1.33805 6.41864 1.3096 6.28125 1.32228C6.51975 1.4042 6.75825 1.56803 6.99675 1.64995C6.99675 1.56803 6.83775 1.48611 6.67875 1.4042Z" fill="url(#paint3_linear_837_4191)"/>
<path opacity="0.8" d="M9.14271 2.46912C9.06321 2.46912 8.90421 2.38721 8.82471 2.38721C9.02786 2.49163 9.24101 2.57399 9.46071 2.63296C9.30171 2.55104 9.22221 2.46912 9.14271 2.46912Z" fill="url(#paint4_linear_837_4191)"/>
<path d="M55.8099 49.6539C61.2119 50.4915 66.7313 49.9284 71.869 48.0155C67.099 43.4282 62.5675 39.2505 58.354 35.4823C56.2075 33.5983 54.1404 31.7142 52.1529 29.994C52.0734 29.912 51.9144 29.8301 51.9144 29.7482C51.3579 29.2567 50.8809 28.8471 50.4039 28.4376C50.2449 28.3556 50.1654 28.1918 50.0859 28.1918C46.2699 25.079 42.5334 22.2119 39.5124 20.0002C31.4034 14.348 23.2944 9.10532 15.1059 5.09142C14.3904 4.68184 13.6749 4.43609 12.8799 4.02651C12.6767 3.92208 12.4636 3.83972 12.2439 3.78076C43.8849 21.3928 53.9814 37.3664 55.8099 49.6539Z" fill="url(#paint5_linear_837_4191)"/>
<path opacity="0.8" d="M1.19215 7.71059C0.953652 7.21909 0.794653 6.64568 0.556152 6.07227C0.794653 6.56376 0.953652 7.13718 1.19215 7.71059Z" fill="url(#paint6_linear_837_4191)"/>
<path opacity="0.3" d="M-0.000488281 3.20771C-0.000488281 3.1251 -0.000487977 3.1251 0.0796948 3.04248C0.0796948 3.1251 0.0796945 3.1251 -0.000488281 3.20771Z" fill="url(#paint7_linear_837_4191)"/>
<path opacity="0.3" d="M3.4187 0.173828C4.4522 0.58341 5.4062 0.911074 6.3602 1.32066C5.3267 0.911074 4.3727 0.501493 3.4187 0.173828Z" fill="url(#paint8_linear_837_4191)"/>
<path opacity="0.3" d="M-0.000488281 3.20557C0.0425168 4.18485 0.230174 5.15165 0.556014 6.07264C0.230174 5.15165 0.0425168 4.18485 -0.000488281 3.20557Z" fill="url(#paint9_linear_837_4191)"/>
<path opacity="0.3" d="M11.7662 3.61532L12.2432 3.86107C11.3687 3.45149 10.4147 3.04191 9.46069 2.63232C9.77869 2.79616 10.0172 2.87807 10.3352 3.04191C10.825 3.19721 11.3033 3.38885 11.7662 3.61532Z" fill="url(#paint10_linear_837_4191)"/>
<path d="M21.1476 32.4502C12.6411 25.4054 4.61162 15.5755 1.19312 7.79346C9.14312 28.5183 29.8131 57.9262 48.2572 70.0498C48.5752 70.2955 49.6882 70.9509 50.5627 71.4424C52.9477 67.6742 57.3202 59.8922 55.8097 49.6527C44.4412 48.0962 32.1982 41.7068 21.1476 32.4502Z" fill="url(#paint11_linear_837_4191)"/>
<path opacity="0.3" d="M8.82527 2.38666L7.15576 1.64941C7.23526 1.64941 7.31476 1.73133 7.39426 1.73133C7.79176 1.89516 8.26876 2.14091 8.82527 2.38666Z" fill="url(#paint12_linear_837_4191)"/>
<path opacity="0.8" d="M21.1483 32.4503C32.1988 41.7068 44.4419 48.0144 55.8104 49.5708C53.9819 37.3653 43.8854 21.3097 12.2443 3.86151C12.0777 3.79635 11.9179 3.71402 11.7673 3.61576C11.2903 3.37002 10.8133 3.20618 10.4158 2.96043C10.0978 2.7966 9.85932 2.71469 9.54132 2.55085C9.33817 2.44643 9.12502 2.36407 8.90532 2.30511C8.42061 2.06503 7.91483 1.87302 7.39482 1.73169C7.31532 1.73169 7.23582 1.64978 7.15632 1.64978C6.91782 1.56786 6.67932 1.40403 6.44082 1.32211C5.48682 0.994445 4.53282 0.502948 3.49931 0.175283C1.67081 -0.398131 0.637311 0.502948 0.239811 1.89552C0.199658 2.0567 0.17306 2.22114 0.160311 2.38702C0.0808108 2.55085 0.160311 2.7966 0.160311 3.04235C0.160311 3.12427 0.160311 3.12427 0.0808105 3.20618C0.123816 4.18546 0.311472 5.15226 0.637311 6.07325C0.814386 6.65974 1.0268 7.23426 1.27331 7.79349C4.61232 15.5755 12.7213 25.4055 21.1483 32.4503Z" fill="url(#paint13_linear_837_4191)"/>
<path d="M21.1483 32.4503C32.1988 41.7068 44.4419 48.0144 55.8104 49.5708C53.9819 37.3653 43.8854 21.3097 12.2443 3.86151C12.0777 3.79635 11.9179 3.71402 11.7673 3.61576C11.2903 3.37002 10.8133 3.20618 10.4158 2.96043C10.0978 2.7966 9.85932 2.71469 9.54132 2.55085C9.33817 2.44643 9.12502 2.36407 8.90532 2.30511C8.42061 2.06503 7.91483 1.87302 7.39482 1.73169C7.31532 1.73169 7.23582 1.64978 7.15632 1.64978C6.91782 1.56786 6.67932 1.40403 6.44082 1.32211C5.48682 0.994445 4.53282 0.502948 3.49931 0.175283C1.67081 -0.398131 0.637311 0.502948 0.239811 1.89552C0.199658 2.0567 0.17306 2.22114 0.160311 2.38702C0.0808108 2.55085 0.160311 2.7966 0.160311 3.04235C0.160311 3.12427 0.160311 3.12427 0.0808105 3.20618C0.123816 4.18546 0.311472 5.15226 0.637311 6.07325C0.814386 6.65974 1.0268 7.23426 1.27331 7.79349C4.61232 15.5755 12.7213 25.4055 21.1483 32.4503Z" fill="url(#paint14_linear_837_4191)"/>
<path d="M148.587 24.0927C145.168 23.6012 137.616 23.4373 122.67 26.6321C120.9 27.0656 119.082 27.2583 117.264 27.2055C115.291 26.9737 113.346 26.5345 111.46 25.8948C107.591 24.4575 103.485 23.8174 99.3761 24.0107C96.561 24.2121 93.8468 25.1726 91.5056 26.7959C89.6325 28.0471 88.0126 29.6605 86.7356 31.547C84.2711 34.9875 79.1036 45.4728 72.0281 48.2579C77.5931 53.6644 86.1791 58.1698 94.2086 55.4666C101.92 52.8453 106.69 45.8005 108.201 43.5068C109.742 41.0962 111.442 38.7971 113.289 36.6258C115.894 33.8141 119.149 31.7286 122.749 30.564C131.812 27.4512 145.486 25.5671 148.746 25.2395C149.143 24.9118 149.064 24.1746 148.587 24.0927Z" fill="url(#paint15_linear_837_4191)"/>
<path d="M104.114 35.5001C105.431 35.5001 106.499 34.3998 106.499 33.0425C106.499 31.6853 105.431 30.585 104.114 30.585C102.797 30.585 101.729 31.6853 101.729 33.0425C101.729 34.3998 102.797 35.5001 104.114 35.5001Z" fill="#282E38"/>
<path d="M59.6504 135.114C57.3133 135.117 55.073 136.076 53.4205 137.778C51.7679 139.481 50.838 141.79 50.8345 144.198V146.903C50.838 149.311 51.7679 151.619 53.4205 153.322C55.073 155.025 57.3133 155.983 59.6504 155.986H65.2534V152.676H59.6504C58.2185 152.673 56.8415 152.108 55.8003 151.095C54.7591 150.082 54.1321 148.698 54.0474 147.226H65.5277C65.9087 147.226 66.2861 147.15 66.6383 147C66.9904 146.85 67.3104 146.63 67.5798 146.352C67.8492 146.075 68.0628 145.745 68.2082 145.382C68.3536 145.019 68.428 144.631 68.4271 144.238C68.4338 143.045 68.2119 141.862 67.7742 140.757C67.3364 139.652 66.6914 138.647 65.8761 137.799C65.0608 136.952 64.0913 136.278 63.0229 135.817C61.9546 135.357 60.8085 135.117 59.6504 135.114ZM54.0474 143.875C54.1297 142.401 54.7559 141.015 55.7977 140.002C56.8394 138.989 58.2178 138.424 59.6504 138.424C61.083 138.424 62.4614 138.989 63.5031 140.002C64.5448 141.015 65.171 142.401 65.2534 143.875H54.0474Z" fill="white"/>
<path d="M12.4753 131.804H14.8263V128.493H12.4753C11.5886 128.496 10.7116 128.683 9.89689 129.044C9.0822 129.405 8.34664 129.932 7.73435 130.593C6.49585 131.917 5.79506 133.679 5.77526 135.518V135.922H3.89453V139.232H5.77526V155.906H8.98817V139.232H13.2982V135.962H8.98817V135.558C9.02735 133.54 10.6338 131.804 12.4753 131.804Z" fill="white"/>
<path d="M23.0542 128.533H19.8413V155.986H23.0542V128.533Z" fill="white"/>
<path d="M129.942 135.114H126.729V155.906H129.942V135.114Z" fill="#30B99E"/>
<path d="M42.4099 147.468C42.4099 148.849 41.8774 150.174 40.9295 151.15C39.9816 152.127 38.696 152.676 37.3555 152.676C36.015 152.676 34.7294 152.127 33.7815 151.15C32.8336 150.174 32.301 148.849 32.301 147.468V135.114H29.1665V147.468C29.1665 149.716 30.0334 151.873 31.5765 153.463C33.1196 155.053 35.2124 155.946 37.3947 155.946C39.5769 155.946 41.6698 155.053 43.2129 153.463C44.756 151.873 45.6229 149.716 45.6229 147.468V135.114H42.4099V147.468Z" fill="white"/>
<path d="M79.8681 135.114C77.6878 135.12 75.5986 136.016 74.0569 137.604C72.5152 139.193 71.6463 141.345 71.6399 143.592V155.946H74.8528V143.592C74.8528 142.211 75.3853 140.886 76.3332 139.909C77.2811 138.933 78.5667 138.384 79.9073 138.384C81.2478 138.384 82.5334 138.933 83.4813 139.909C84.4292 140.886 84.9617 142.211 84.9617 143.592V155.946H88.1746V143.592C88.1373 141.342 87.2477 139.195 85.6958 137.611C84.1438 136.027 82.0525 135.131 79.8681 135.114Z" fill="white"/>
<path d="M97.3039 148.921V138.424H101.614V135.154H97.3039V128.533H94.1302V135.154H91.3091V138.464H94.1302V148.961C94.1353 150.78 94.8388 152.523 96.0868 153.809C97.3348 155.094 99.0261 155.819 100.791 155.825H102.202V152.514H100.791C99.8668 152.512 98.9811 152.133 98.3275 151.459C97.674 150.786 97.3059 149.873 97.3039 148.921Z" fill="white"/>
<path d="M140.246 148.921V138.424H144.556V135.154H140.246V128.533H137.033V135.154H134.212V138.464H137.033V148.961C137.039 150.78 137.742 152.523 138.99 153.809C140.238 155.094 141.929 155.819 143.694 155.825H145.105V152.514H143.694C142.776 152.504 141.899 152.12 141.254 151.448C140.608 150.775 140.246 149.867 140.246 148.921Z" fill="#30B99E"/>
<path d="M108.941 128.533V136.971C110.381 135.803 112.164 135.176 113.996 135.194C116.176 135.201 118.265 136.096 119.807 137.685C121.349 139.273 122.218 141.426 122.224 143.672V147.508C122.224 149.756 121.357 151.913 119.814 153.503C118.271 155.093 116.178 155.986 113.996 155.986C111.813 155.986 109.721 155.093 108.178 153.503C106.634 151.913 105.768 149.756 105.768 147.508V128.533H108.941ZM108.941 145.449V147.467C108.941 148.849 109.474 150.173 110.422 151.15C111.37 152.127 112.655 152.676 113.996 152.676C115.336 152.676 116.622 152.127 117.57 151.15C118.518 150.173 119.05 148.849 119.05 147.467V143.632C119.05 142.251 118.518 140.926 117.57 139.949C116.622 138.973 115.336 138.424 113.996 138.424C112.655 138.424 111.37 138.973 110.422 139.949C109.474 140.926 108.941 142.251 108.941 143.632V145.449Z" fill="#30B99E"/>
<defs>
<linearGradient id="paint0_linear_837_4191" x1="151.663" y1="58.9758" x2="2.83524" y2="70.6369" gradientUnits="userSpaceOnUse">
<stop offset="0.2986" stop-color="#0097CE"/>
<stop offset="0.3791" stop-color="#0999C5"/>
<stop offset="0.5119" stop-color="#229DAD"/>
<stop offset="0.6469" stop-color="#42A38F"/>
<stop offset="0.7352" stop-color="#5DAD82"/>
<stop offset="0.9239" stop-color="#A1C661"/>
<stop offset="1" stop-color="#BED153"/>
</linearGradient>
<linearGradient id="paint1_linear_837_4191" x1="-4.40029" y1="19.1132" x2="140.14" y2="57.7104" gradientUnits="userSpaceOnUse">
<stop offset="0.08199" stop-color="#3D65AF"/>
<stop offset="0.2305" stop-color="#2372B8"/>
<stop offset="0.5058" stop-color="#00B8BB"/>
</linearGradient>
<linearGradient id="paint2_linear_837_4191" x1="-0.0585293" y1="2.61588" x2="78.4577" y2="23.5824" gradientUnits="userSpaceOnUse">
<stop offset="0.1297"/>
<stop offset="0.3277" stop-color="#00334B"/>
<stop offset="0.5276" stop-color="#006190"/>
<stop offset="0.6723" stop-color="#007FBB"/>
<stop offset="0.7457" stop-color="#008ACC"/>
</linearGradient>
<linearGradient id="paint3_linear_837_4191" x1="19.5976" y1="151.044" x2="92.5864" y2="151.044" gradientUnits="userSpaceOnUse">
<stop offset="0.1297"/>
<stop offset="0.3277" stop-color="#00334B"/>
<stop offset="0.5276" stop-color="#006190"/>
<stop offset="0.6723" stop-color="#007FBB"/>
<stop offset="0.7457" stop-color="#008ACC"/>
</linearGradient>
<linearGradient id="paint4_linear_837_4191" x1="20.6616" y1="113.777" x2="85.5408" y2="113.777" gradientUnits="userSpaceOnUse">
<stop offset="0.1297"/>
<stop offset="0.3277" stop-color="#00334B"/>
<stop offset="0.5276" stop-color="#006190"/>
<stop offset="0.6723" stop-color="#007FBB"/>
<stop offset="0.7457" stop-color="#008ACC"/>
</linearGradient>
<linearGradient id="paint5_linear_837_4191" x1="8.08466" y1="19.3564" x2="74.767" y2="37.1629" gradientUnits="userSpaceOnUse">
<stop offset="0.1297" stop-color="#2483C5"/>
<stop offset="0.1672" stop-color="#2486C7"/>
<stop offset="0.676" stop-color="#29B1DF"/>
<stop offset="0.9352" stop-color="#2BC2E8"/>
</linearGradient>
<linearGradient id="paint6_linear_837_4191" x1="12.3929" y1="761.647" x2="77.2715" y2="761.647" gradientUnits="userSpaceOnUse">
<stop offset="0.1297"/>
<stop offset="0.3277" stop-color="#00334B"/>
<stop offset="0.5276" stop-color="#006190"/>
<stop offset="0.6723" stop-color="#007FBB"/>
<stop offset="0.7457" stop-color="#008ACC"/>
</linearGradient>
<linearGradient id="paint7_linear_837_4191" x1="0.0488844" y1="3.12772" x2="0.0489621" y2="3.12774" gradientUnits="userSpaceOnUse">
<stop stop-color="#682C90"/>
<stop offset="0.496" stop-color="#817CB9"/>
<stop offset="1" stop-color="white"/>
</linearGradient>
<linearGradient id="paint8_linear_837_4191" x1="313.382" y1="519.247" x2="161.397" y2="519.247" gradientUnits="userSpaceOnUse">
<stop stop-color="#682C90"/>
<stop offset="0.496" stop-color="#817CB9"/>
<stop offset="1" stop-color="white"/>
</linearGradient>
<linearGradient id="paint9_linear_837_4191" x1="58.6415" y1="1318.43" x2="29.8874" y2="1318.43" gradientUnits="userSpaceOnUse">
<stop stop-color="#682C90"/>
<stop offset="0.496" stop-color="#817CB9"/>
<stop offset="1" stop-color="white"/>
</linearGradient>
<linearGradient id="paint10_linear_837_4191" x1="302.67" y1="559.953" x2="158.9" y2="559.953" gradientUnits="userSpaceOnUse">
<stop stop-color="#682C90"/>
<stop offset="0.496" stop-color="#817CB9"/>
<stop offset="1" stop-color="white"/>
</linearGradient>
<linearGradient id="paint11_linear_837_4191" x1="-4.96972" y1="30.8722" x2="58.7241" y2="47.8807" gradientUnits="userSpaceOnUse">
<stop offset="0.1297" stop-color="#3B67AD"/>
<stop offset="0.5697" stop-color="#227CAA"/>
<stop offset="0.9352" stop-color="#118AA8"/>
</linearGradient>
<linearGradient id="paint12_linear_837_4191" x1="183.081" y1="335.676" x2="96.8193" y2="335.676" gradientUnits="userSpaceOnUse">
<stop stop-color="#682C90"/>
<stop offset="0.496" stop-color="#817CB9"/>
<stop offset="1" stop-color="white"/>
</linearGradient>
<linearGradient id="paint13_linear_837_4191" x1="1037.04" y1="23448.1" x2="6722.03" y2="23448.1" gradientUnits="userSpaceOnUse">
<stop offset="0.1297"/>
<stop offset="0.3277" stop-color="#00334B"/>
<stop offset="0.5276" stop-color="#006190"/>
<stop offset="0.6723" stop-color="#007FBB"/>
<stop offset="0.7457" stop-color="#008ACC"/>
</linearGradient>
<linearGradient id="paint14_linear_837_4191" x1="-3.55209" y1="15.6929" x2="60.3308" y2="32.7518" gradientUnits="userSpaceOnUse">
<stop offset="0.1297" stop-color="#3A67B0"/>
<stop offset="0.5622" stop-color="#357FBD"/>
<stop offset="0.9352" stop-color="#3290C6"/>
</linearGradient>
<linearGradient id="paint15_linear_837_4191" x1="77.1247" y1="28.6939" x2="143.198" y2="46.3377" gradientUnits="userSpaceOnUse">
<stop offset="0.1724" stop-color="#4E5CA8"/>
<stop offset="0.9937" stop-color="#1FC3F3"/>
</linearGradient>
</defs>
</svg>
