<svg width="375" height="812" viewBox="0 0 375 812" fill="none" xmlns="http://www.w3.org/2000/svg">
<mask id="mask0_837_4130" style="mask-type:alpha" maskUnits="userSpaceOnUse" x="0" y="-41" width="375" height="864">
<rect y="-41" width="375" height="864" fill="#282E38"/>
</mask>
<g mask="url(#mask0_837_4130)">
<g opacity="0.2">
<path fill-rule="evenodd" clip-rule="evenodd" d="M708.722 99.0369C846.247 70.7001 915.74 72.1533 947.195 76.5128C951.584 77.2393 952.316 83.7786 946.464 85.2318C938.401 86.1507 928.667 86.9985 917.586 87.9637C867.333 92.3406 789.36 99.1317 713.843 125.921L713.842 125.921C698.48 131.733 683.119 137.546 668.489 144.812C667.68 145.615 665.529 146.641 662.654 148.012C660.33 149.12 657.533 150.454 654.59 152.078C634.84 162.25 613.626 188.407 601.922 208.751L470.249 431.087C469.611 432.162 468.917 433.338 468.166 434.61C440.51 481.433 336.166 658.099 139.606 750.058C-125.933 873.577 -368.063 807.458 -368.063 807.458C-368.063 807.458 -276.624 784.207 -167.629 708.642C-92.2832 659.234 -18.4005 591.662 45.9726 498.659C82.5189 466.035 98.2936 432.829 110.503 407.128C117.6 392.19 123.492 379.786 131.559 371.506C163.277 340.002 199.353 317.155 233.469 295.549C236.334 293.735 239.185 291.93 242.018 290.129C294.141 270.351 335.011 206.795 360.874 166.576C367.315 156.559 372.826 147.99 377.347 141.905C394.904 118.655 410.997 104.85 431.479 93.9508C468.055 75.0596 530.233 67.0671 605.579 92.4976C622.404 97.5837 641.423 102.67 658.98 104.123C675.713 104.592 692.436 102.882 708.722 99.0369ZM559.931 155.87C559.931 167.909 550.105 177.668 537.985 177.668C525.864 177.668 516.039 167.909 516.039 155.87C516.039 143.831 525.864 134.072 537.985 134.072C550.105 134.072 559.931 143.831 559.931 155.87Z" fill="url(#paint0_linear_837_4130)"/>
<path fill-rule="evenodd" clip-rule="evenodd" d="M708.723 99.04C846.247 70.7032 915.74 72.1563 947.196 76.5158C948.179 76.6337 949.085 77.1055 949.742 77.8418C950.399 78.5781 950.761 79.528 950.761 80.5118C950.761 81.4957 950.399 82.4455 949.742 83.1818C949.085 83.9181 948.179 84.39 947.195 84.5081C945.238 84.7312 943.152 84.9668 940.943 85.2163C892.79 90.6545 786.545 102.654 697.018 133.916C690.474 136.516 686.857 137.517 683.614 138.414C679.607 139.523 676.171 140.474 668.489 144.088C667.68 144.892 665.529 145.918 662.654 147.289C660.33 148.397 657.533 149.73 654.591 151.354C634.84 161.526 613.626 187.683 601.922 208.028L470.25 430.363C458.928 449.955 446.472 468.878 432.943 487.037C400.756 529.905 334.92 555.336 253.722 553.156C206.906 553.883 153.505 545.89 92.0583 519.006C79.6226 513.92 59.8718 504.475 45.2415 496.482C37.9264 492.123 26.9537 485.583 24.7592 484.13C1.90976 469.146 -20.0705 452.893 -41.0768 435.449C-58.6332 421.644 -74.7264 407.112 -91.5512 391.127C-169.091 316.289 -245.169 221.106 -305.884 126.65C-319.051 106.306 -331.487 85.9614 -342.46 66.3436C-372.452 14.0294 -397.323 -37.5581 -414.148 -82.6064C-421.463 -102.951 -420 -114.576 -418.537 -118.936C-415.611 -132.014 -406.101 -140.007 -389.277 -134.921C-350.506 -120.389 -315.394 -106.584 -281.744 -91.3255C-206.399 -55.7228 -131.053 -9.94791 -56.4387 40.9131C-27.1781 59.8043 7.20288 85.9614 42.3154 113.572C104.494 164.433 168.867 221.833 242.018 290.132C294.141 270.354 335.011 206.798 360.875 166.579C367.316 156.562 372.826 147.993 377.348 141.908C394.904 118.658 410.997 104.853 431.48 93.9539C468.787 73.6095 528.039 67.0702 605.58 92.5007C622.404 97.5868 641.424 102.673 658.98 104.126C675.713 104.595 692.436 102.885 708.723 99.04ZM559.932 155.876C559.932 167.915 550.106 177.674 537.986 177.674C525.865 177.674 516.04 167.915 516.04 155.876C516.04 143.837 525.865 134.078 537.986 134.078C550.106 134.078 559.932 143.837 559.932 155.876Z" fill="url(#paint1_linear_837_4130)"/>
<path d="M93.5212 303.211C145.459 309.75 195.933 306.118 241.287 288.679C197.396 247.991 155.7 210.935 116.93 177.512C97.1787 160.8 78.1594 144.089 59.8716 128.831C59.1401 128.104 57.6771 127.377 57.6771 126.651C52.5565 122.291 48.1675 118.658 43.7784 115.025C42.3153 114.299 41.5838 112.846 40.8523 112.846C5.73972 85.2354 -28.6414 59.805 -56.4388 40.1871C-131.053 -9.94733 -205.667 -56.4487 -281.013 -92.0515C-287.597 -95.6844 -294.18 -97.8642 -301.495 -101.497C-303.69 -102.224 -305.884 -103.677 -307.347 -103.677C-16.2057 52.5391 76.6964 194.223 93.5212 303.211Z" fill="url(#paint2_linear_837_4130)"/>
<path d="M-225.418 150.628C-303.69 88.1417 -377.573 0.951347 -409.028 -68.0742C-335.877 115.752 -145.684 376.596 24.0273 484.131C26.9533 486.311 37.1945 492.123 45.2411 496.483C67.1865 463.06 107.42 394.034 93.5209 303.211C-11.0853 289.406 -123.738 232.732 -225.418 150.628Z" fill="url(#paint3_linear_837_4130)"/>
<path opacity="0.8" d="M-225.418 150.626C-123.738 232.73 -11.0851 288.678 93.5211 302.483C76.6963 194.221 -16.2057 51.8107 -307.347 -102.952C-308.881 -103.53 -310.351 -104.26 -311.736 -105.132C-316.126 -107.312 -320.515 -108.765 -324.172 -110.944C-327.098 -112.398 -329.293 -113.124 -332.219 -114.577C-334.413 -115.304 -336.608 -116.757 -338.071 -116.757C-342.531 -118.887 -347.185 -120.59 -351.97 -121.843C-352.701 -121.843 -353.433 -122.57 -354.164 -122.57C-356.359 -123.296 -358.553 -124.75 -360.748 -125.476C-369.526 -128.383 -378.304 -132.742 -387.814 -135.648C-404.638 -140.734 -414.148 -132.742 -417.806 -120.39C-418.175 -118.96 -418.42 -117.502 -418.537 -116.031C-419.269 -114.577 -418.537 -112.398 -418.537 -110.218C-418.537 -109.491 -418.537 -109.491 -419.269 -108.765C-418.873 -100.079 -417.146 -91.5033 -414.148 -83.3342C-412.519 -78.1322 -410.564 -73.0362 -408.296 -68.0759C-377.573 0.949677 -302.958 88.14 -225.418 150.626Z" fill="url(#paint4_linear_837_4130)"/>
<path d="M-225.418 150.626C-123.738 232.73 -11.0851 288.678 93.5211 302.483C76.6963 194.221 -16.2057 51.8107 -307.347 -102.952C-308.881 -103.53 -310.351 -104.26 -311.736 -105.132C-316.126 -107.312 -320.515 -108.765 -324.172 -110.944C-327.098 -112.398 -329.293 -113.124 -332.219 -114.577C-334.413 -115.304 -336.608 -116.757 -338.071 -116.757C-342.531 -118.887 -347.185 -120.59 -351.97 -121.843C-352.701 -121.843 -353.433 -122.57 -354.164 -122.57C-356.359 -123.296 -358.553 -124.75 -360.748 -125.476C-369.526 -128.383 -378.304 -132.742 -387.814 -135.648C-404.638 -140.734 -414.148 -132.742 -417.806 -120.39C-418.175 -118.96 -418.42 -117.502 -418.537 -116.031C-419.269 -114.577 -418.537 -112.398 -418.537 -110.218C-418.537 -109.491 -418.537 -109.491 -419.269 -108.765C-418.873 -100.079 -417.146 -91.5033 -414.148 -83.3342C-412.519 -78.1322 -410.564 -73.0362 -408.296 -68.0759C-377.573 0.949677 -302.958 88.14 -225.418 150.626Z" fill="url(#paint5_linear_837_4130)"/>
<path fill-rule="evenodd" clip-rule="evenodd" d="M708.722 99.0369C846.246 70.7001 915.74 72.1533 947.195 76.5128C951.584 77.2394 952.315 83.7786 948.658 86.685C918.666 89.5913 792.846 106.303 709.453 133.913C656.866 151.55 629.783 179.954 623.443 186.604C622.992 187.076 622.646 187.439 622.404 187.68C622.128 188.091 621.335 188.99 620.033 190.465C614.417 196.829 599.34 213.913 575.587 248.714C561.688 269.058 517.797 331.544 446.841 354.795C372.958 378.772 293.955 338.81 242.749 290.856C294.872 271.077 335.742 207.522 361.605 167.303C368.046 157.286 373.557 148.717 378.078 142.632C389.829 125.899 404.734 111.588 421.969 100.49C443.511 86.0918 468.486 77.5724 494.389 75.7862C524.381 73.6064 561.688 77.9659 605.579 92.4976C622.403 97.5837 641.423 102.67 658.979 104.123C675.712 104.592 692.436 102.882 708.722 99.0369ZM559.931 155.87C559.931 167.909 550.105 177.668 537.985 177.668C525.864 177.668 516.039 167.909 516.039 155.87C516.039 143.831 525.864 134.072 537.985 134.072C550.105 134.072 559.931 143.831 559.931 155.87Z" fill="url(#paint6_linear_837_4130)"/>
</g>
</g>
<defs>
<linearGradient id="paint0_linear_837_4130" x1="975.505" y1="385.921" x2="-393.279" y2="497.18" gradientUnits="userSpaceOnUse">
<stop offset="0.2986" stop-color="#0097CE"/>
<stop offset="0.3791" stop-color="#0999C5"/>
<stop offset="0.5119" stop-color="#229DAD"/>
<stop offset="0.6469" stop-color="#42A38F"/>
<stop offset="0.7352" stop-color="#5DAD82"/>
<stop offset="0.9239" stop-color="#A1C661"/>
<stop offset="1" stop-color="#BED153"/>
</linearGradient>
<linearGradient id="paint1_linear_837_4130" x1="-460.482" y1="32.3317" x2="862.782" y2="398.895" gradientUnits="userSpaceOnUse">
<stop offset="0.08199" stop-color="#3D65AF"/>
<stop offset="0.2305" stop-color="#2372B8"/>
<stop offset="0.5058" stop-color="#00B8BB"/>
</linearGradient>
<linearGradient id="paint2_linear_837_4130" x1="-345.615" y1="34.478" x2="264.862" y2="203.589" gradientUnits="userSpaceOnUse">
<stop offset="0.1297" stop-color="#2483C5"/>
<stop offset="0.1672" stop-color="#2486C7"/>
<stop offset="0.676" stop-color="#29B1DF"/>
<stop offset="0.9352" stop-color="#2BC2E8"/>
</linearGradient>
<linearGradient id="paint3_linear_837_4130" x1="-465.731" y1="136.632" x2="117.386" y2="298.164" gradientUnits="userSpaceOnUse">
<stop offset="0.1297" stop-color="#3B67AD"/>
<stop offset="0.5697" stop-color="#227CAA"/>
<stop offset="0.9352" stop-color="#118AA8"/>
</linearGradient>
<linearGradient id="paint4_linear_837_4130" x1="-1643.87" y1="233801" x2="50666" y2="233801" gradientUnits="userSpaceOnUse">
<stop offset="0.1297"/>
<stop offset="0.3277" stop-color="#00334B"/>
<stop offset="0.5276" stop-color="#006190"/>
<stop offset="0.6723" stop-color="#007FBB"/>
<stop offset="0.7457" stop-color="#008ACC"/>
</linearGradient>
<linearGradient id="paint5_linear_837_4130" x1="-452.693" y1="1.99165" x2="132.155" y2="164.003" gradientUnits="userSpaceOnUse">
<stop offset="0.1297" stop-color="#3A67B0"/>
<stop offset="0.5622" stop-color="#357FBD"/>
<stop offset="0.9352" stop-color="#3290C6"/>
</linearGradient>
<linearGradient id="paint6_linear_837_4130" x1="289.648" y1="117.326" x2="894.547" y2="284.892" gradientUnits="userSpaceOnUse">
<stop offset="0.1724" stop-color="#4E5CA8"/>
<stop offset="0.9937" stop-color="#1FC3F3"/>
</linearGradient>
</defs>
</svg>
