<svg width="375" height="514" viewBox="0 0 375 514" fill="none" xmlns="http://www.w3.org/2000/svg">
<g opacity="0.2">
<path fill-rule="evenodd" clip-rule="evenodd" d="M578.548 156.701C669.475 137.966 715.423 138.927 736.22 141.809C739.122 142.289 739.605 146.613 735.736 147.574C730.405 148.181 723.97 148.742 716.643 149.38C683.417 152.274 631.863 156.764 581.933 174.476L581.932 174.477C571.776 178.32 561.619 182.163 551.947 186.967C551.412 187.498 549.989 188.176 548.088 189.083C546.552 189.815 544.703 190.697 542.757 191.771C529.698 198.496 515.672 215.791 507.934 229.242L420.876 376.244C420.454 376.955 419.995 377.733 419.498 378.573C401.213 409.532 332.223 526.339 202.263 587.139C26.6957 668.807 -133.395 625.091 -133.395 625.091C-133.395 625.091 -72.9375 609.718 -0.87265 559.757C48.9439 527.089 97.7932 482.412 140.355 420.921C164.518 399.351 174.948 377.396 183.021 360.404C187.713 350.526 191.609 342.326 196.943 336.851C217.914 316.021 241.766 300.916 264.323 286.631C266.217 285.431 268.102 284.237 269.975 283.046C304.437 269.97 331.46 227.948 348.56 201.356C352.818 194.734 356.462 189.068 359.451 185.045C371.059 169.672 381.7 160.545 395.242 153.339C419.425 140.848 460.536 135.564 510.352 152.378C521.476 155.741 534.051 159.103 545.659 160.064C556.723 160.374 567.78 159.244 578.548 156.701ZM480.171 194.278C480.171 202.238 473.674 208.691 465.661 208.691C457.647 208.691 451.15 202.238 451.15 194.278C451.15 186.318 457.647 179.866 465.661 179.866C473.674 179.866 480.171 186.318 480.171 194.278Z" fill="url(#paint0_linear_837_9572)"/>
<path fill-rule="evenodd" clip-rule="evenodd" d="M578.548 156.703C669.475 137.967 715.423 138.928 736.22 141.811C736.87 141.889 737.469 142.2 737.903 142.687C738.338 143.174 738.578 143.802 738.578 144.453C738.578 145.103 738.338 145.731 737.903 146.218C737.469 146.705 736.87 147.017 736.22 147.095C734.926 147.242 733.546 147.398 732.086 147.563C700.249 151.159 630.002 159.092 570.809 179.762C566.482 181.481 564.091 182.143 561.947 182.736C559.297 183.469 557.025 184.098 551.947 186.488C551.412 187.019 549.989 187.697 548.088 188.604C546.552 189.336 544.703 190.218 542.757 191.292C529.699 198.017 515.673 215.312 507.934 228.763L420.876 375.765C413.39 388.719 405.154 401.23 396.209 413.236C374.929 441.58 331.399 458.394 277.714 456.953C246.76 457.433 211.453 452.148 170.825 434.374C162.603 431.011 149.545 424.766 139.871 419.481C135.035 416.599 127.78 412.275 126.329 411.315C111.222 401.407 96.6888 390.661 82.8 379.128C71.1922 370 60.5517 360.392 49.4276 349.824C-1.83997 300.342 -52.1402 237.41 -92.2837 174.958C-100.99 161.507 -109.212 148.056 -116.467 135.085C-136.296 100.496 -152.741 66.3878 -163.865 36.6031C-168.701 23.1519 -167.734 15.4655 -166.767 12.5831C-164.832 3.93592 -158.545 -1.34847 -147.421 2.01433C-121.787 11.6223 -98.5713 20.7499 -76.3231 30.8383C-26.5065 54.3779 23.3102 84.643 72.6431 118.271C91.9894 130.761 114.721 148.056 137.937 166.311C179.048 199.939 221.609 237.89 269.975 283.048C304.437 269.971 331.46 227.95 348.56 201.358C352.819 194.735 356.462 189.07 359.451 185.046C371.059 169.674 381.7 160.546 395.242 153.34C419.909 139.889 459.085 135.565 510.352 152.379C521.476 155.742 534.051 159.105 545.659 160.066C556.723 160.376 567.78 159.245 578.548 156.703ZM480.171 194.282C480.171 202.241 473.675 208.694 465.661 208.694C457.647 208.694 451.151 202.241 451.151 194.282C451.151 186.322 457.647 179.869 465.661 179.869C473.675 179.869 480.171 186.322 480.171 194.282Z" fill="url(#paint1_linear_837_9572)"/>
<path d="M171.792 291.695C206.131 296.019 239.504 293.617 269.491 282.088C240.471 255.185 212.903 230.685 187.269 208.586C174.21 197.537 161.635 186.488 149.544 176.4C149.06 175.919 148.093 175.439 148.093 174.958C144.707 172.076 141.805 169.674 138.903 167.272C137.936 166.792 137.452 165.831 136.969 165.831C113.753 147.576 91.0212 130.762 72.6422 117.791C23.3093 84.6433 -26.0237 53.8978 -75.8403 30.3582C-80.1932 27.9562 -84.5461 26.515 -89.3827 24.1131C-90.8337 23.6327 -92.2847 22.6719 -93.252 22.6719C99.2434 125.958 160.668 219.636 171.792 291.695Z" fill="url(#paint2_linear_837_9572)"/>
<path d="M-39.0827 190.812C-90.8339 149.497 -139.683 91.8493 -160.48 46.2114C-112.115 167.752 13.6359 340.216 125.844 411.315C127.779 412.756 134.55 416.599 139.87 419.482C154.38 397.383 180.981 351.745 171.792 291.696C102.629 282.568 28.1456 245.097 -39.0827 190.812Z" fill="url(#paint3_linear_837_9572)"/>
<path opacity="0.8" d="M-39.083 190.811C28.1452 245.096 102.628 282.087 171.791 291.214C160.667 219.635 99.2427 125.476 -93.2525 23.1513C-94.2662 22.7692 -95.2385 22.2863 -96.1545 21.7101C-99.0564 20.2689 -101.958 19.3081 -104.377 17.8669C-106.311 16.9061 -107.762 16.4257 -109.697 15.4649C-111.148 14.9845 -112.599 14.0237 -113.566 14.0237C-116.515 12.6158 -119.592 11.4897 -122.756 10.6609C-123.239 10.6609 -123.723 10.1805 -124.207 10.1805C-125.657 9.7001 -127.108 8.73931 -128.559 8.2589C-134.363 6.33732 -140.167 3.45491 -146.455 1.53332C-157.579 -1.82947 -163.866 3.45491 -166.285 11.6217C-166.529 12.5669 -166.691 13.5313 -166.768 14.5041C-167.252 15.4649 -166.768 16.9061 -166.768 18.3473C-166.768 18.8277 -166.768 18.8277 -167.252 19.3081C-166.99 25.0511 -165.849 30.7209 -163.866 36.1221C-162.789 39.5615 -161.497 42.9309 -159.997 46.2105C-139.684 91.8484 -90.3506 149.496 -39.083 190.811Z" fill="url(#paint4_linear_837_9572)"/>
<path d="M-39.083 190.811C28.1452 245.096 102.628 282.087 171.791 291.214C160.667 219.635 99.2427 125.476 -93.2525 23.1513C-94.2662 22.7692 -95.2385 22.2863 -96.1545 21.7101C-99.0564 20.2689 -101.958 19.3081 -104.377 17.8669C-106.311 16.9061 -107.762 16.4257 -109.697 15.4649C-111.148 14.9845 -112.599 14.0237 -113.566 14.0237C-116.515 12.6158 -119.592 11.4897 -122.756 10.6609C-123.239 10.6609 -123.723 10.1805 -124.207 10.1805C-125.657 9.7001 -127.108 8.73931 -128.559 8.2589C-134.363 6.33732 -140.167 3.45491 -146.455 1.53332C-157.579 -1.82947 -163.866 3.45491 -166.285 11.6217C-166.529 12.5669 -166.691 13.5313 -166.768 14.5041C-167.252 15.4649 -166.768 16.9061 -166.768 18.3473C-166.768 18.8277 -166.768 18.8277 -167.252 19.3081C-166.99 25.0511 -165.849 30.7209 -163.866 36.1221C-162.789 39.5615 -161.497 42.9309 -159.997 46.2105C-139.684 91.8484 -90.3506 149.496 -39.083 190.811Z" fill="url(#paint5_linear_837_9572)"/>
<path fill-rule="evenodd" clip-rule="evenodd" d="M578.546 156.701C669.474 137.966 715.421 138.927 736.218 141.809C739.12 142.289 739.604 146.613 737.185 148.535C717.356 150.456 634.167 161.505 579.03 179.761C544.26 191.422 526.354 210.202 522.162 214.598C521.864 214.911 521.635 215.151 521.475 215.31C521.293 215.581 520.768 216.176 519.907 217.151C516.194 221.359 506.226 232.654 490.521 255.664C481.331 269.115 452.312 310.429 405.397 325.802C356.548 341.655 304.313 315.233 270.457 283.527C304.919 270.45 331.942 228.429 349.042 201.837C353.3 195.214 356.944 189.548 359.933 185.525C367.703 174.462 377.558 165 388.953 157.662C403.196 148.142 419.709 142.51 436.835 141.329C456.665 139.887 481.331 142.77 510.351 152.378C521.475 155.741 534.05 159.103 545.658 160.064C556.721 160.374 567.778 159.244 578.546 156.701ZM480.169 194.278C480.169 202.238 473.673 208.691 465.659 208.691C457.645 208.691 451.149 202.238 451.149 194.278C451.149 186.318 457.645 179.866 465.659 179.866C473.673 179.866 480.169 186.318 480.169 194.278Z" fill="url(#paint6_linear_837_9572)"/>
</g>
<defs>
<linearGradient id="paint0_linear_837_9572" x1="754.937" y1="346.382" x2="-150.067" y2="419.943" gradientUnits="userSpaceOnUse">
<stop offset="0.2986" stop-color="#0097CE"/>
<stop offset="0.3791" stop-color="#0999C5"/>
<stop offset="0.5119" stop-color="#229DAD"/>
<stop offset="0.6469" stop-color="#42A38F"/>
<stop offset="0.7352" stop-color="#5DAD82"/>
<stop offset="0.9239" stop-color="#A1C661"/>
<stop offset="1" stop-color="#BED153"/>
</linearGradient>
<linearGradient id="paint1_linear_837_9572" x1="-194.5" y1="112.597" x2="680.408" y2="354.96" gradientUnits="userSpaceOnUse">
<stop offset="0.08199" stop-color="#3D65AF"/>
<stop offset="0.2305" stop-color="#2372B8"/>
<stop offset="0.5058" stop-color="#00B8BB"/>
</linearGradient>
<linearGradient id="paint2_linear_837_9572" x1="-118.553" y1="114.016" x2="285.078" y2="225.828" gradientUnits="userSpaceOnUse">
<stop offset="0.1297" stop-color="#2483C5"/>
<stop offset="0.1672" stop-color="#2486C7"/>
<stop offset="0.676" stop-color="#29B1DF"/>
<stop offset="0.9352" stop-color="#2BC2E8"/>
</linearGradient>
<linearGradient id="paint3_linear_837_9572" x1="-197.971" y1="181.558" x2="187.57" y2="288.359" gradientUnits="userSpaceOnUse">
<stop offset="0.1297" stop-color="#3B67AD"/>
<stop offset="0.5697" stop-color="#227CAA"/>
<stop offset="0.9352" stop-color="#118AA8"/>
</linearGradient>
<linearGradient id="paint4_linear_837_9572" x1="-976.924" y1="154675" x2="33609" y2="154675" gradientUnits="userSpaceOnUse">
<stop offset="0.1297"/>
<stop offset="0.3277" stop-color="#00334B"/>
<stop offset="0.5276" stop-color="#006190"/>
<stop offset="0.6723" stop-color="#007FBB"/>
<stop offset="0.7457" stop-color="#008ACC"/>
</linearGradient>
<linearGradient id="paint5_linear_837_9572" x1="-189.351" y1="92.5373" x2="197.335" y2="199.655" gradientUnits="userSpaceOnUse">
<stop offset="0.1297" stop-color="#3A67B0"/>
<stop offset="0.5622" stop-color="#357FBD"/>
<stop offset="0.9352" stop-color="#3290C6"/>
</linearGradient>
<linearGradient id="paint6_linear_837_9572" x1="301.466" y1="168.794" x2="701.409" y2="279.584" gradientUnits="userSpaceOnUse">
<stop offset="0.1724" stop-color="#4E5CA8"/>
<stop offset="0.9937" stop-color="#1FC3F3"/>
</linearGradient>
</defs>
</svg>
