<svg width="303" height="296" viewBox="0 0 303 296" fill="none" xmlns="http://www.w3.org/2000/svg">
<circle opacity="0.2" cx="135.574" cy="119.539" r="90.705" stroke="#BDBDBD" stroke-width="22.8"/>
<g filter="url(#filter0_d)">
<path d="M71.2905 183.532C82.2315 194.523 95.8078 202.525 110.722 206.774C125.637 211.023 141.392 211.376 156.483 207.802C171.573 204.227 185.495 196.843 196.919 186.354C208.342 175.866 216.886 162.624 221.733 147.893C226.581 133.162 227.571 117.434 224.608 102.212C221.646 86.9891 214.83 72.7804 204.811 60.9427" stroke="url(#paint0_linear)" stroke-width="42"/>
</g>
<path d="M100.225 111.684C98.3215 111.684 96.6441 111.321 95.1935 110.596C93.7655 109.871 92.6548 108.873 91.8615 107.604C91.0908 106.335 90.7055 104.907 90.7055 103.32C90.7055 101.325 91.5895 99.1266 93.3575 96.724L99.5455 88.224C99.7268 87.9973 99.8968 87.8273 100.055 87.714C100.214 87.6006 100.441 87.544 100.735 87.544H103.965C104.169 87.544 104.328 87.6233 104.441 87.782C104.577 87.918 104.645 88.088 104.645 88.292C104.645 88.4506 104.6 88.598 104.509 88.734L99.7495 95.296C100.112 95.2053 100.588 95.16 101.177 95.16C102.696 95.1826 104.09 95.5566 105.359 96.282C106.651 96.9846 107.671 97.948 108.419 99.172C109.19 100.396 109.575 101.756 109.575 103.252C109.575 104.793 109.19 106.21 108.419 107.502C107.671 108.771 106.583 109.791 105.155 110.562C103.75 111.31 102.107 111.684 100.225 111.684ZM100.157 107.74C101.427 107.74 102.503 107.355 103.387 106.584C104.271 105.791 104.713 104.703 104.713 103.32C104.713 101.96 104.271 100.895 103.387 100.124C102.526 99.3306 101.449 98.934 100.157 98.934C98.8881 98.934 97.8115 99.3306 96.9275 100.124C96.0661 100.895 95.6355 101.96 95.6355 103.32C95.6355 104.703 96.0661 105.791 96.9275 106.584C97.8115 107.355 98.8881 107.74 100.157 107.74ZM121.133 111.718C119.252 111.718 117.62 111.401 116.237 110.766C114.877 110.131 113.846 109.293 113.143 108.25C112.44 107.207 112.066 106.085 112.021 104.884V104.816C112.021 104.635 112.089 104.487 112.225 104.374C112.384 104.238 112.554 104.17 112.735 104.17H115.965C116.486 104.17 116.815 104.397 116.951 104.85C117.268 105.847 117.79 106.584 118.515 107.06C119.263 107.536 120.136 107.774 121.133 107.774C122.402 107.774 123.445 107.389 124.261 106.618C125.1 105.847 125.519 104.782 125.519 103.422C125.519 102.198 125.1 101.212 124.261 100.464C123.445 99.6933 122.402 99.308 121.133 99.308C120.453 99.308 119.898 99.3986 119.467 99.58C119.036 99.7613 118.617 100.011 118.209 100.328C118.164 100.351 118.062 100.419 117.903 100.532C117.744 100.645 117.597 100.725 117.461 100.77C117.348 100.815 117.223 100.838 117.087 100.838H113.891C113.687 100.838 113.506 100.77 113.347 100.634C113.211 100.475 113.143 100.294 113.143 100.09L114.299 88.496C114.322 88.2013 114.424 87.9746 114.605 87.816C114.809 87.6346 115.047 87.544 115.319 87.544H128.103C128.352 87.544 128.545 87.6233 128.681 87.782C128.84 87.918 128.919 88.1106 128.919 88.36V90.672C128.919 90.8986 128.84 91.0913 128.681 91.25C128.545 91.4086 128.352 91.488 128.103 91.488H118.277L117.733 96.996C118.254 96.656 118.855 96.384 119.535 96.18C120.215 95.9533 121.099 95.84 122.187 95.84C123.66 95.84 125.02 96.1573 126.267 96.792C127.536 97.404 128.545 98.2993 129.293 99.478C130.064 100.634 130.449 101.983 130.449 103.524C130.449 105.179 130.064 106.629 129.293 107.876C128.522 109.1 127.434 110.052 126.029 110.732C124.624 111.389 122.992 111.718 121.133 111.718ZM134.469 111.344C134.242 111.344 134.05 111.265 133.891 111.106C133.732 110.947 133.653 110.755 133.653 110.528V107.094C133.653 106.867 133.732 106.675 133.891 106.516C134.05 106.357 134.242 106.278 134.469 106.278H137.903C138.13 106.278 138.322 106.357 138.481 106.516C138.64 106.675 138.719 106.867 138.719 107.094V110.528C138.719 110.755 138.64 110.947 138.481 111.106C138.345 111.265 138.152 111.344 137.903 111.344H134.469ZM147.904 111.344C147.677 111.344 147.485 111.265 147.326 111.106C147.167 110.947 147.088 110.755 147.088 110.528V92.984L141.954 96.928C141.818 97.0413 141.648 97.098 141.444 97.098C141.172 97.098 140.957 96.9846 140.798 96.758L139.336 94.854C139.223 94.6953 139.166 94.5366 139.166 94.378C139.166 94.106 139.291 93.8793 139.54 93.698L147.156 87.782C147.405 87.6233 147.689 87.544 148.006 87.544H151.066C151.293 87.544 151.485 87.6233 151.644 87.782C151.803 87.9406 151.882 88.1333 151.882 88.36V110.528C151.882 110.755 151.803 110.947 151.644 111.106C151.485 111.265 151.293 111.344 151.066 111.344H147.904ZM160.786 99.512C159.29 99.512 158.088 99.1153 157.182 98.322C156.298 97.5286 155.81 96.452 155.72 95.092C155.697 94.7066 155.686 94.1966 155.686 93.562C155.686 92.882 155.697 92.338 155.72 91.93C155.81 90.5246 156.286 89.414 157.148 88.598C158.009 87.782 159.222 87.374 160.786 87.374C162.35 87.374 163.562 87.782 164.424 88.598C165.308 89.414 165.795 90.5246 165.886 91.93C165.931 92.746 165.954 93.29 165.954 93.562C165.954 93.8113 165.931 94.3213 165.886 95.092C165.795 96.452 165.296 97.5286 164.39 98.322C163.506 99.1153 162.304 99.512 160.786 99.512ZM158.032 111.344C157.805 111.344 157.624 111.287 157.488 111.174C157.352 111.038 157.284 110.868 157.284 110.664C157.284 110.528 157.329 110.403 157.42 110.29L174.182 88.19C174.363 87.9633 174.533 87.8046 174.692 87.714C174.85 87.6006 175.077 87.544 175.372 87.544H177.174C177.4 87.544 177.57 87.612 177.684 87.748C177.82 87.8613 177.888 88.02 177.888 88.224C177.888 88.36 177.842 88.4846 177.752 88.598L160.99 110.698C160.808 110.925 160.638 111.095 160.48 111.208C160.321 111.299 160.106 111.344 159.834 111.344H158.032ZM160.786 96.962C161.443 96.962 161.919 96.7693 162.214 96.384C162.531 95.9986 162.724 95.5113 162.792 94.922C162.837 94.1513 162.86 93.6753 162.86 93.494C162.86 93.2446 162.837 92.78 162.792 92.1C162.746 91.5106 162.565 91.0233 162.248 90.638C161.93 90.23 161.443 90.026 160.786 90.026C160.151 90.026 159.675 90.23 159.358 90.638C159.04 91.0233 158.859 91.5106 158.814 92.1C158.791 92.44 158.78 92.9046 158.78 93.494C158.78 94.0606 158.791 94.5366 158.814 94.922C158.859 95.4886 159.029 95.976 159.324 96.384C159.641 96.7693 160.128 96.962 160.786 96.962ZM174.386 111.548C172.89 111.548 171.688 111.14 170.782 110.324C169.898 109.485 169.41 108.375 169.32 106.992C169.297 106.607 169.286 106.097 169.286 105.462C169.286 104.805 169.297 104.272 169.32 103.864C169.41 102.459 169.886 101.348 170.748 100.532C171.609 99.716 172.822 99.308 174.386 99.308C175.972 99.308 177.196 99.716 178.058 100.532C178.919 101.348 179.395 102.459 179.486 103.864C179.531 104.68 179.554 105.213 179.554 105.462C179.554 105.711 179.531 106.221 179.486 106.992C179.395 108.375 178.896 109.485 177.99 110.324C177.106 111.14 175.904 111.548 174.386 111.548ZM174.386 108.896C175.066 108.896 175.553 108.703 175.848 108.318C176.165 107.91 176.346 107.423 176.392 106.856C176.437 106.085 176.46 105.598 176.46 105.394C176.46 105.167 176.437 104.714 176.392 104.034C176.346 103.445 176.165 102.957 175.848 102.572C175.53 102.164 175.043 101.96 174.386 101.96C173.751 101.96 173.275 102.164 172.958 102.572C172.64 102.957 172.459 103.445 172.414 104.034C172.391 104.374 172.38 104.827 172.38 105.394C172.38 105.983 172.391 106.471 172.414 106.856C172.459 107.423 172.629 107.91 172.924 108.318C173.241 108.703 173.728 108.896 174.386 108.896Z" fill="url(#paint1_linear)"/>
<path opacity="0.6" d="M85.6409 139.29C85.4743 139.29 85.3326 139.232 85.2159 139.115C85.0993 138.998 85.0409 138.857 85.0409 138.69V122.39C85.0409 122.207 85.0993 122.065 85.2159 121.965C85.3326 121.848 85.4743 121.79 85.6409 121.79H88.0409C88.2243 121.79 88.3659 121.848 88.4659 121.965C88.5826 122.065 88.6409 122.207 88.6409 122.39V138.69C88.6409 138.857 88.5826 138.998 88.4659 139.115C88.3659 139.232 88.2243 139.29 88.0409 139.29H85.6409ZM92.8361 139.29C92.6694 139.29 92.5277 139.232 92.4111 139.115C92.2944 138.998 92.2361 138.857 92.2361 138.69V126.89C92.2361 126.707 92.2944 126.565 92.4111 126.465C92.5277 126.348 92.6694 126.29 92.8361 126.29H94.9111C95.0944 126.29 95.2361 126.348 95.3361 126.465C95.4527 126.565 95.5111 126.707 95.5111 126.89V127.915C96.5277 126.665 97.9194 126.04 99.6861 126.04C101.219 126.04 102.436 126.54 103.336 127.54C104.236 128.54 104.686 129.915 104.686 131.665V138.69C104.686 138.857 104.628 138.998 104.511 139.115C104.411 139.232 104.269 139.29 104.086 139.29H101.836C101.669 139.29 101.528 139.232 101.411 139.115C101.294 138.998 101.236 138.857 101.236 138.69V131.815C101.236 130.848 100.994 130.098 100.511 129.565C100.044 129.015 99.3694 128.74 98.4861 128.74C97.6361 128.74 96.9527 129.015 96.4361 129.565C95.9194 130.115 95.6611 130.865 95.6611 131.815V138.69C95.6611 138.857 95.6027 138.998 95.4861 139.115C95.3861 139.232 95.2444 139.29 95.0611 139.29H92.8361ZM113.486 139.54C111.653 139.54 110.186 139.032 109.086 138.015C108.003 136.998 107.428 135.59 107.361 133.79L107.336 132.79L107.361 131.79C107.428 129.99 108.003 128.582 109.086 127.565C110.186 126.548 111.653 126.04 113.486 126.04C114.803 126.04 115.911 126.273 116.811 126.74C117.728 127.207 118.403 127.782 118.836 128.465C119.286 129.132 119.528 129.773 119.561 130.39C119.578 130.557 119.519 130.698 119.386 130.815C119.269 130.932 119.128 130.99 118.961 130.99H116.736C116.553 130.99 116.419 130.957 116.336 130.89C116.253 130.807 116.169 130.665 116.086 130.465C115.836 129.832 115.503 129.373 115.086 129.09C114.686 128.807 114.169 128.665 113.536 128.665C112.686 128.665 112.019 128.932 111.536 129.465C111.069 129.998 110.819 130.815 110.786 131.915L110.761 132.84L110.786 133.665C110.886 135.832 111.803 136.915 113.536 136.915C114.186 136.915 114.711 136.782 115.111 136.515C115.511 136.232 115.836 135.765 116.086 135.115C116.153 134.932 116.228 134.798 116.311 134.715C116.411 134.632 116.553 134.59 116.736 134.59H118.961C119.128 134.59 119.269 134.648 119.386 134.765C119.519 134.882 119.578 135.023 119.561 135.19C119.528 135.773 119.294 136.407 118.861 137.09C118.428 137.757 117.761 138.332 116.861 138.815C115.961 139.298 114.836 139.54 113.486 139.54ZM122.768 139.29C122.601 139.29 122.459 139.232 122.343 139.115C122.226 138.998 122.168 138.857 122.168 138.69V126.915C122.168 126.732 122.226 126.582 122.343 126.465C122.459 126.348 122.601 126.29 122.768 126.29H124.818C125.001 126.29 125.151 126.348 125.268 126.465C125.384 126.582 125.443 126.732 125.443 126.915V127.94C126.276 126.84 127.476 126.29 129.043 126.29H130.093C130.276 126.29 130.418 126.348 130.518 126.465C130.634 126.565 130.693 126.707 130.693 126.89V128.715C130.693 128.882 130.634 129.023 130.518 129.14C130.418 129.257 130.276 129.315 130.093 129.315H128.118C127.334 129.315 126.718 129.54 126.268 129.99C125.818 130.44 125.593 131.057 125.593 131.84V138.69C125.593 138.857 125.534 138.998 125.418 139.115C125.301 139.232 125.159 139.29 124.993 139.29H122.768ZM138.095 139.54C136.229 139.54 134.745 139.007 133.645 137.94C132.562 136.873 131.987 135.357 131.92 133.39L131.895 132.765C131.895 130.682 132.437 129.04 133.52 127.84C134.62 126.64 136.137 126.04 138.07 126.04C140.054 126.04 141.579 126.64 142.645 127.84C143.729 129.04 144.27 130.64 144.27 132.64V133.165C144.27 133.332 144.212 133.473 144.095 133.59C143.979 133.707 143.829 133.765 143.645 133.765H135.345V133.965C135.379 134.898 135.629 135.673 136.095 136.29C136.579 136.89 137.237 137.19 138.07 137.19C139.02 137.19 139.795 136.807 140.395 136.04C140.545 135.857 140.662 135.748 140.745 135.715C140.829 135.665 140.97 135.64 141.17 135.64H143.37C143.52 135.64 143.645 135.682 143.745 135.765C143.862 135.848 143.92 135.965 143.92 136.115C143.92 136.515 143.679 136.99 143.195 137.54C142.729 138.073 142.054 138.54 141.17 138.94C140.287 139.34 139.262 139.54 138.095 139.54ZM140.82 131.64V131.59C140.82 130.607 140.57 129.823 140.07 129.24C139.587 128.64 138.92 128.34 138.07 128.34C137.22 128.34 136.554 128.64 136.07 129.24C135.587 129.823 135.345 130.607 135.345 131.59V131.64H140.82ZM150.699 139.54C149.849 139.54 149.065 139.373 148.349 139.04C147.649 138.69 147.09 138.223 146.674 137.64C146.274 137.057 146.074 136.415 146.074 135.715C146.074 134.582 146.532 133.665 147.449 132.965C148.365 132.265 149.624 131.79 151.224 131.54L154.649 131.04V130.515C154.649 129.798 154.465 129.257 154.099 128.89C153.732 128.523 153.149 128.34 152.349 128.34C151.799 128.34 151.357 128.44 151.024 128.64C150.69 128.84 150.415 129.048 150.199 129.265C149.999 129.465 149.865 129.598 149.799 129.665C149.732 129.865 149.607 129.965 149.424 129.965H147.474C147.324 129.965 147.19 129.915 147.074 129.815C146.974 129.715 146.924 129.582 146.924 129.415C146.94 128.998 147.14 128.532 147.524 128.015C147.924 127.482 148.532 127.023 149.349 126.64C150.165 126.24 151.174 126.04 152.374 126.04C154.34 126.04 155.774 126.482 156.674 127.365C157.574 128.248 158.024 129.407 158.024 130.84V138.69C158.024 138.857 157.965 138.998 157.849 139.115C157.749 139.232 157.607 139.29 157.424 139.29H155.349C155.182 139.29 155.04 139.232 154.924 139.115C154.807 138.998 154.749 138.857 154.749 138.69V137.715C154.382 138.248 153.865 138.69 153.199 139.04C152.532 139.373 151.699 139.54 150.699 139.54ZM151.549 137.14C152.465 137.14 153.215 136.84 153.799 136.24C154.382 135.64 154.674 134.773 154.674 133.64V133.14L152.174 133.54C150.257 133.84 149.299 134.482 149.299 135.465C149.299 135.998 149.515 136.415 149.949 136.715C150.399 136.998 150.932 137.14 151.549 137.14ZM166.18 139.54C164.914 139.54 163.855 139.348 163.005 138.965C162.155 138.582 161.522 138.14 161.105 137.64C160.705 137.123 160.505 136.682 160.505 136.315C160.505 136.148 160.555 136.015 160.655 135.915C160.772 135.815 160.905 135.765 161.055 135.765H163.105C163.239 135.765 163.355 135.832 163.455 135.965C163.539 136.032 163.722 136.19 164.005 136.44C164.305 136.69 164.639 136.89 165.005 137.04C165.389 137.173 165.805 137.24 166.255 137.24C166.922 137.24 167.464 137.115 167.88 136.865C168.297 136.598 168.505 136.223 168.505 135.74C168.505 135.407 168.405 135.14 168.205 134.94C168.022 134.723 167.68 134.532 167.18 134.365C166.697 134.182 165.964 133.982 164.98 133.765C163.564 133.465 162.514 133.007 161.83 132.39C161.164 131.773 160.83 130.957 160.83 129.94C160.83 129.273 161.03 128.648 161.43 128.065C161.83 127.465 162.422 126.982 163.205 126.615C164.005 126.232 164.955 126.04 166.055 126.04C167.189 126.04 168.164 126.223 168.98 126.59C169.797 126.94 170.414 127.365 170.83 127.865C171.264 128.365 171.48 128.807 171.48 129.19C171.48 129.34 171.422 129.473 171.305 129.59C171.205 129.69 171.08 129.74 170.93 129.74H169.055C168.872 129.74 168.73 129.673 168.63 129.54C168.514 129.457 168.322 129.307 168.055 129.09C167.805 128.857 167.522 128.673 167.205 128.54C166.889 128.407 166.505 128.34 166.055 128.34C165.439 128.34 164.964 128.473 164.63 128.74C164.297 129.007 164.13 129.357 164.13 129.79C164.13 130.09 164.205 130.34 164.355 130.54C164.522 130.74 164.847 130.932 165.33 131.115C165.814 131.282 166.539 131.457 167.505 131.64C170.505 132.223 172.005 133.532 172.005 135.565C172.005 136.748 171.489 137.707 170.455 138.44C169.439 139.173 168.014 139.54 166.18 139.54ZM180.185 139.54C178.319 139.54 176.835 139.007 175.735 137.94C174.652 136.873 174.077 135.357 174.01 133.39L173.985 132.765C173.985 130.682 174.527 129.04 175.61 127.84C176.71 126.64 178.227 126.04 180.16 126.04C182.144 126.04 183.669 126.64 184.735 127.84C185.819 129.04 186.36 130.64 186.36 132.64V133.165C186.36 133.332 186.302 133.473 186.185 133.59C186.069 133.707 185.919 133.765 185.735 133.765H177.435V133.965C177.469 134.898 177.719 135.673 178.185 136.29C178.669 136.89 179.327 137.19 180.16 137.19C181.11 137.19 181.885 136.807 182.485 136.04C182.635 135.857 182.752 135.748 182.835 135.715C182.919 135.665 183.06 135.64 183.26 135.64H185.46C185.61 135.64 185.735 135.682 185.835 135.765C185.952 135.848 186.01 135.965 186.01 136.115C186.01 136.515 185.769 136.99 185.285 137.54C184.819 138.073 184.144 138.54 183.26 138.94C182.377 139.34 181.352 139.54 180.185 139.54ZM182.91 131.64V131.59C182.91 130.607 182.66 129.823 182.16 129.24C181.677 128.64 181.01 128.34 180.16 128.34C179.31 128.34 178.644 128.64 178.16 129.24C177.677 129.823 177.435 130.607 177.435 131.59V131.64H182.91Z" fill="black"/>
<path opacity="0.2" d="M93.739 155.064C92.7123 155.064 91.891 154.779 91.275 154.21C90.6683 153.64 90.3463 152.852 90.309 151.844L90.295 151.284L90.309 150.724C90.3463 149.716 90.6683 148.927 91.275 148.358C91.891 147.788 92.7123 147.504 93.739 147.504C94.4763 147.504 95.097 147.634 95.601 147.896C96.1143 148.157 96.4923 148.479 96.735 148.862C96.987 149.235 97.1223 149.594 97.141 149.94C97.1503 150.033 97.1177 150.112 97.043 150.178C96.9777 150.243 96.8983 150.276 96.805 150.276H95.559C95.4563 150.276 95.3817 150.257 95.335 150.22C95.2883 150.173 95.2417 150.094 95.195 149.982C95.055 149.627 94.8683 149.37 94.635 149.212C94.411 149.053 94.1217 148.974 93.767 148.974C93.291 148.974 92.9177 149.123 92.647 149.422C92.3857 149.72 92.2457 150.178 92.227 150.794L92.213 151.312L92.227 151.774C92.283 152.987 92.7963 153.594 93.767 153.594C94.131 153.594 94.425 153.519 94.649 153.37C94.873 153.211 95.055 152.95 95.195 152.586C95.2323 152.483 95.2743 152.408 95.321 152.362C95.377 152.315 95.4563 152.292 95.559 152.292H96.805C96.8983 152.292 96.9777 152.324 97.043 152.39C97.1177 152.455 97.1503 152.534 97.141 152.628C97.1223 152.954 96.9917 153.309 96.749 153.692C96.5063 154.065 96.133 154.387 95.629 154.658C95.125 154.928 94.495 155.064 93.739 155.064ZM103.515 155.064C103.039 155.064 102.6 154.97 102.199 154.784C101.807 154.588 101.494 154.326 101.261 154C101.037 153.673 100.925 153.314 100.925 152.922C100.925 152.287 101.181 151.774 101.695 151.382C102.208 150.99 102.913 150.724 103.809 150.584L105.727 150.304V150.01C105.727 149.608 105.624 149.305 105.419 149.1C105.213 148.894 104.887 148.792 104.439 148.792C104.131 148.792 103.883 148.848 103.697 148.96C103.51 149.072 103.356 149.188 103.235 149.31C103.123 149.422 103.048 149.496 103.011 149.534C102.973 149.646 102.903 149.702 102.801 149.702H101.709C101.625 149.702 101.55 149.674 101.485 149.618C101.429 149.562 101.401 149.487 101.401 149.394C101.41 149.16 101.522 148.899 101.737 148.61C101.961 148.311 102.301 148.054 102.759 147.84C103.216 147.616 103.781 147.504 104.453 147.504C105.554 147.504 106.357 147.751 106.861 148.246C107.365 148.74 107.617 149.389 107.617 150.192V154.588C107.617 154.681 107.584 154.76 107.519 154.826C107.463 154.891 107.383 154.924 107.281 154.924H106.119C106.025 154.924 105.946 154.891 105.881 154.826C105.815 154.76 105.783 154.681 105.783 154.588V154.042C105.577 154.34 105.288 154.588 104.915 154.784C104.541 154.97 104.075 155.064 103.515 155.064ZM103.991 153.72C104.504 153.72 104.924 153.552 105.251 153.216C105.577 152.88 105.741 152.394 105.741 151.76V151.48L104.341 151.704C103.267 151.872 102.731 152.231 102.731 152.782C102.731 153.08 102.852 153.314 103.095 153.482C103.347 153.64 103.645 153.72 103.991 153.72ZM114.984 155.064C114.275 155.064 113.682 154.956 113.206 154.742C112.73 154.527 112.376 154.28 112.142 154C111.918 153.71 111.806 153.463 111.806 153.258C111.806 153.164 111.834 153.09 111.89 153.034C111.956 152.978 112.03 152.95 112.114 152.95H113.262C113.337 152.95 113.402 152.987 113.458 153.062C113.505 153.099 113.608 153.188 113.766 153.328C113.934 153.468 114.121 153.58 114.326 153.664C114.541 153.738 114.774 153.776 115.026 153.776C115.4 153.776 115.703 153.706 115.936 153.566C116.17 153.416 116.286 153.206 116.286 152.936C116.286 152.749 116.23 152.6 116.118 152.488C116.016 152.366 115.824 152.259 115.544 152.166C115.274 152.063 114.863 151.951 114.312 151.83C113.519 151.662 112.931 151.405 112.548 151.06C112.175 150.714 111.988 150.257 111.988 149.688C111.988 149.314 112.1 148.964 112.324 148.638C112.548 148.302 112.88 148.031 113.318 147.826C113.766 147.611 114.298 147.504 114.914 147.504C115.549 147.504 116.095 147.606 116.552 147.812C117.01 148.008 117.355 148.246 117.588 148.526C117.831 148.806 117.952 149.053 117.952 149.268C117.952 149.352 117.92 149.426 117.854 149.492C117.798 149.548 117.728 149.576 117.644 149.576H116.594C116.492 149.576 116.412 149.538 116.356 149.464C116.291 149.417 116.184 149.333 116.034 149.212C115.894 149.081 115.736 148.978 115.558 148.904C115.381 148.829 115.166 148.792 114.914 148.792C114.569 148.792 114.303 148.866 114.116 149.016C113.93 149.165 113.836 149.361 113.836 149.604C113.836 149.772 113.878 149.912 113.962 150.024C114.056 150.136 114.238 150.243 114.508 150.346C114.779 150.439 115.185 150.537 115.726 150.64C117.406 150.966 118.246 151.699 118.246 152.838C118.246 153.5 117.957 154.037 117.378 154.448C116.809 154.858 116.011 155.064 114.984 155.064ZM122.827 154.924C122.734 154.924 122.655 154.891 122.589 154.826C122.524 154.76 122.491 154.681 122.491 154.588V145.32C122.491 145.217 122.524 145.138 122.589 145.082C122.655 145.016 122.734 144.984 122.827 144.984H124.101C124.204 144.984 124.283 145.016 124.339 145.082C124.405 145.138 124.437 145.217 124.437 145.32V148.512C124.997 147.84 125.749 147.504 126.691 147.504C127.55 147.504 128.236 147.788 128.749 148.358C129.263 148.918 129.519 149.683 129.519 150.654V154.588C129.519 154.681 129.487 154.76 129.421 154.826C129.365 154.891 129.286 154.924 129.183 154.924H127.909C127.807 154.924 127.723 154.891 127.657 154.826C127.592 154.76 127.559 154.681 127.559 154.588V150.738C127.559 150.196 127.424 149.776 127.153 149.478C126.892 149.17 126.514 149.016 126.019 149.016C125.543 149.016 125.161 149.17 124.871 149.478C124.582 149.786 124.437 150.206 124.437 150.738V154.588C124.437 154.681 124.405 154.76 124.339 154.826C124.283 154.891 124.204 154.924 124.101 154.924H122.827ZM135.12 154.924C135.027 154.924 134.947 154.891 134.882 154.826C134.817 154.76 134.784 154.681 134.784 154.588V149.142H133.65C133.557 149.142 133.477 149.109 133.412 149.044C133.347 148.978 133.314 148.899 133.314 148.806V147.98C133.314 147.886 133.347 147.807 133.412 147.742C133.477 147.676 133.557 147.644 133.65 147.644H134.784V147.084C134.784 146.234 135.013 145.604 135.47 145.194C135.927 144.774 136.618 144.564 137.542 144.564H138.508C138.601 144.564 138.681 144.596 138.746 144.662C138.811 144.727 138.844 144.806 138.844 144.9V145.726C138.844 145.819 138.811 145.898 138.746 145.964C138.681 146.029 138.601 146.062 138.508 146.062H137.612C137.248 146.062 136.991 146.15 136.842 146.328C136.693 146.505 136.618 146.78 136.618 147.154V147.644H138.368C138.461 147.644 138.541 147.676 138.606 147.742C138.671 147.807 138.704 147.886 138.704 147.98V148.806C138.704 148.899 138.671 148.978 138.606 149.044C138.541 149.109 138.461 149.142 138.368 149.142H136.618V154.588C136.618 154.681 136.585 154.76 136.52 154.826C136.464 154.891 136.385 154.924 136.282 154.924H135.12ZM142.96 154.924C142.867 154.924 142.788 154.891 142.722 154.826C142.657 154.76 142.624 154.681 142.624 154.588V145.32C142.624 145.217 142.657 145.138 142.722 145.082C142.788 145.016 142.867 144.984 142.96 144.984H144.136C144.239 144.984 144.318 145.016 144.374 145.082C144.44 145.138 144.472 145.217 144.472 145.32V154.588C144.472 154.681 144.44 154.76 144.374 154.826C144.318 154.891 144.239 154.924 144.136 154.924H142.96ZM152.363 155.064C151.262 155.064 150.413 154.784 149.815 154.224C149.218 153.664 148.896 152.889 148.849 151.9L148.835 151.284L148.849 150.668C148.896 149.688 149.223 148.918 149.829 148.358C150.436 147.788 151.281 147.504 152.363 147.504C153.437 147.504 154.277 147.788 154.883 148.358C155.49 148.918 155.817 149.688 155.863 150.668C155.873 150.78 155.877 150.985 155.877 151.284C155.877 151.582 155.873 151.788 155.863 151.9C155.817 152.889 155.495 153.664 154.897 154.224C154.3 154.784 153.455 155.064 152.363 155.064ZM152.363 153.65C152.858 153.65 153.236 153.496 153.497 153.188C153.768 152.88 153.913 152.427 153.931 151.83C153.941 151.736 153.945 151.554 153.945 151.284C153.945 151.013 153.941 150.831 153.931 150.738C153.913 150.14 153.768 149.688 153.497 149.38C153.227 149.062 152.849 148.904 152.363 148.904C151.869 148.904 151.486 149.062 151.215 149.38C150.945 149.688 150.8 150.14 150.781 150.738L150.767 151.284L150.781 151.83C150.8 152.427 150.945 152.88 151.215 153.188C151.486 153.496 151.869 153.65 152.363 153.65ZM162.011 154.924C161.778 154.924 161.624 154.807 161.549 154.574L159.547 148.078C159.538 148.05 159.533 148.008 159.533 147.952C159.533 147.868 159.561 147.798 159.617 147.742C159.673 147.676 159.743 147.644 159.827 147.644H160.891C160.984 147.644 161.064 147.672 161.129 147.728C161.204 147.784 161.25 147.844 161.269 147.91L162.627 152.516L164.069 147.952C164.097 147.868 164.144 147.798 164.209 147.742C164.284 147.676 164.377 147.644 164.489 147.644H165.203C165.315 147.644 165.404 147.676 165.469 147.742C165.544 147.798 165.59 147.868 165.609 147.952L167.065 152.516L168.423 147.91C168.442 147.844 168.484 147.784 168.549 147.728C168.614 147.672 168.698 147.644 168.801 147.644H169.851C169.935 147.644 170.005 147.676 170.061 147.742C170.126 147.798 170.159 147.868 170.159 147.952L170.131 148.078L168.129 154.574C168.092 154.686 168.036 154.774 167.961 154.84C167.896 154.896 167.802 154.924 167.681 154.924H166.757C166.514 154.924 166.36 154.807 166.295 154.574L164.853 150.178L163.397 154.574C163.322 154.807 163.164 154.924 162.921 154.924H162.011ZM176.915 155.064C176.206 155.064 175.613 154.956 175.137 154.742C174.661 154.527 174.307 154.28 174.073 154C173.849 153.71 173.737 153.463 173.737 153.258C173.737 153.164 173.765 153.09 173.821 153.034C173.887 152.978 173.961 152.95 174.045 152.95H175.193C175.268 152.95 175.333 152.987 175.389 153.062C175.436 153.099 175.539 153.188 175.697 153.328C175.865 153.468 176.052 153.58 176.257 153.664C176.472 153.738 176.705 153.776 176.957 153.776C177.331 153.776 177.634 153.706 177.867 153.566C178.101 153.416 178.217 153.206 178.217 152.936C178.217 152.749 178.161 152.6 178.049 152.488C177.947 152.366 177.755 152.259 177.475 152.166C177.205 152.063 176.794 151.951 176.243 151.83C175.45 151.662 174.862 151.405 174.479 151.06C174.106 150.714 173.919 150.257 173.919 149.688C173.919 149.314 174.031 148.964 174.255 148.638C174.479 148.302 174.811 148.031 175.249 147.826C175.697 147.611 176.229 147.504 176.845 147.504C177.48 147.504 178.026 147.606 178.483 147.812C178.941 148.008 179.286 148.246 179.519 148.526C179.762 148.806 179.883 149.053 179.883 149.268C179.883 149.352 179.851 149.426 179.785 149.492C179.729 149.548 179.659 149.576 179.575 149.576H178.525C178.423 149.576 178.343 149.538 178.287 149.464C178.222 149.417 178.115 149.333 177.965 149.212C177.825 149.081 177.667 148.978 177.489 148.904C177.312 148.829 177.097 148.792 176.845 148.792C176.5 148.792 176.234 148.866 176.047 149.016C175.861 149.165 175.767 149.361 175.767 149.604C175.767 149.772 175.809 149.912 175.893 150.024C175.987 150.136 176.169 150.243 176.439 150.346C176.71 150.439 177.116 150.537 177.657 150.64C179.337 150.966 180.177 151.699 180.177 152.838C180.177 153.5 179.888 154.037 179.309 154.448C178.74 154.858 177.942 155.064 176.915 155.064Z" fill="black"/>
<g style="mix-blend-mode:multiply" filter="url(#filter1_d)">
<path d="M226.279 119.539C226.279 107.628 223.933 95.8327 219.375 84.8279C214.816 73.823 208.135 63.8238 199.712 55.401C191.289 46.9783 181.29 40.297 170.285 35.7387C159.28 31.1803 147.486 28.8342 135.574 28.8342" stroke="#BED153" stroke-width="28"/>
</g>
<defs>
<filter id="filter0_d" x="0.687744" y="0.656418" width="302.311" height="295.308" filterUnits="userSpaceOnUse" color-interpolation-filters="sRGB">
<feFlood flood-opacity="0" result="BackgroundImageFix"/>
<feColorMatrix in="SourceAlpha" type="matrix" values="0 0 0 0 0 0 0 0 0 0 0 0 0 0 0 0 0 0 127 0" result="hardAlpha"/>
<feOffset dy="9"/>
<feGaussianBlur stdDeviation="27.86"/>
<feColorMatrix type="matrix" values="0 0 0 0 0.188235 0 0 0 0 0.72549 0 0 0 0 0.619608 0 0 0 0.09 0"/>
<feBlend mode="normal" in2="BackgroundImageFix" result="effect1_dropShadow"/>
<feBlend mode="normal" in="SourceGraphic" in2="effect1_dropShadow" result="shape"/>
</filter>
<filter id="filter1_d" x="79.854" y="6.87416" width="216.145" height="216.145" filterUnits="userSpaceOnUse" color-interpolation-filters="sRGB">
<feFlood flood-opacity="0" result="BackgroundImageFix"/>
<feColorMatrix in="SourceAlpha" type="matrix" values="0 0 0 0 0 0 0 0 0 0 0 0 0 0 0 0 0 0 127 0" result="hardAlpha"/>
<feOffset dy="47.76"/>
<feGaussianBlur stdDeviation="27.86"/>
<feColorMatrix type="matrix" values="0 0 0 0 0.203125 0 0 0 0 0.585 0 0 0 0 0.9375 0 0 0 0.25 0"/>
<feBlend mode="normal" in2="BackgroundImageFix" result="effect1_dropShadow"/>
<feBlend mode="normal" in="SourceGraphic" in2="effect1_dropShadow" result="shape"/>
</filter>
<linearGradient id="paint0_linear" x1="71.2905" y1="51.3554" x2="327.758" y2="202.113" gradientUnits="userSpaceOnUse">
<stop stop-color="#3D65AF"/>
<stop offset="0.187557" stop-color="#2372B8"/>
<stop offset="0.609939" stop-color="#00B8BB"/>
</linearGradient>
<linearGradient id="paint1_linear" x1="183.068" y1="119.344" x2="159.053" y2="53.5243" gradientUnits="userSpaceOnUse">
<stop stop-color="#0097CE"/>
<stop offset="0.1875" stop-color="#0999C5"/>
<stop offset="0.348958" stop-color="#229DAD"/>
<stop offset="0.510417" stop-color="#42A38F"/>
<stop offset="0.666667" stop-color="#5DAD82"/>
<stop offset="0.822016" stop-color="#A1C661"/>
<stop offset="1" stop-color="#BED153"/>
</linearGradient>
</defs>
</svg>
