<svg width="47" height="47" viewBox="0 0 47 47" fill="none" xmlns="http://www.w3.org/2000/svg">
<path fill-rule="evenodd" clip-rule="evenodd" d="M14.7059 0H14.7096C15.5559 0.0891821 16.3194 0.771698 16.3895 1.63804C16.4293 2.16304 16.4236 2.69017 16.418 3.21744V3.21757V3.2177V3.21784V3.21797V3.2181C16.4146 3.5351 16.4112 3.85215 16.4177 4.16881L19.1378 4.16892H19.1379H19.138H19.138H19.1381H19.1382C21.8584 4.16909 24.5784 4.16926 27.2988 4.1679C27.5536 4.17427 27.8321 4.19429 28.0378 4.36537C28.43 4.6493 28.5046 5.26356 28.1997 5.63758C27.9959 5.91696 27.6319 5.99613 27.3043 5.98976C25.6191 5.98859 23.9337 5.98892 22.2483 5.98926C20.0011 5.9897 17.7538 5.99015 15.5068 5.98703C15.2292 5.95791 14.9416 5.85235 14.7815 5.6121C14.6095 5.38914 14.5976 5.09521 14.5949 4.82584L14.5958 4.35939V4.35906C14.5976 3.50475 14.5994 2.65089 14.594 1.79638C12.0095 4.37467 9.42848 6.9565 6.8475 9.53834L6.84698 9.53886L6.84594 9.5399C5.29709 11.0893 3.74823 12.6386 2.19861 14.1872C3.57392 15.5622 4.94893 16.9377 6.32394 18.3131L6.3295 18.3186L6.33228 18.3214L6.33437 18.3235C9.08647 21.0764 11.8386 23.8293 14.5931 26.579C14.5989 25.0006 14.598 23.4222 14.5971 21.8438C14.5966 20.967 14.5961 20.0901 14.5967 19.2133C13.896 18.9749 13.2681 18.5098 12.8804 17.8746C12.3271 17.0001 12.2744 15.8426 12.7266 14.9152C13.2208 13.8624 14.3465 13.1607 15.5068 13.1644C16.4486 13.1671 17.3796 13.6176 17.9502 14.3692C18.7091 15.3311 18.8065 16.7544 18.174 17.8064C17.7909 18.4771 17.1412 18.963 16.4177 19.2151V22.3856C21.0033 22.3865 25.5898 22.3874 30.1754 22.3856C30.1799 22.0769 30.1774 21.7681 30.175 21.4593V21.4593V21.4593V21.4592V21.4592V21.4592C30.171 20.9524 30.167 20.4456 30.1936 19.9395C30.2327 19.0349 31.0326 18.2532 31.9363 18.2323C32.5096 18.1895 33.0529 18.4734 33.4433 18.8775C35.2187 20.6529 36.9938 22.4285 38.7689 24.2042C41.1346 26.5705 43.5003 28.9368 45.8669 31.3029C45.9136 31.3504 45.9623 31.3977 46.0114 31.4454L46.0116 31.4456C46.2805 31.7066 46.5623 31.98 46.5931 32.3731V32.4213C46.5685 32.7189 46.4056 32.9792 46.1945 33.1812C43.8255 35.5481 41.4579 37.9165 39.0904 40.2849C37.1961 42.1798 35.3019 44.0746 33.4069 45.9688C33.0738 46.3183 32.6233 46.5458 32.1419 46.5931H31.9381C31.0681 46.5458 30.2764 45.8332 30.2036 44.9541C30.1638 44.4291 30.1695 43.9023 30.1751 43.3755C30.1785 43.0586 30.1819 42.7417 30.1754 42.4252C28.0053 42.4236 25.8354 42.4239 23.6655 42.4243C20.9035 42.4247 18.1416 42.4251 15.3794 42.4215C14.827 42.4689 14.3083 41.9593 14.3974 41.4023C14.4384 40.9218 14.908 40.5806 15.3739 40.6061C20.6111 40.6015 25.8492 40.6024 31.0863 40.6061C31.3429 40.6343 31.6096 40.7216 31.7752 40.9328C31.9763 41.1593 31.9982 41.4779 31.9982 41.7672L31.9972 42.2322V42.2325V42.2327V42.233V42.2333V42.2336C31.9955 43.0876 31.9937 43.9421 31.9991 44.7967C34.5829 42.2191 37.1632 39.638 39.7435 37.0568L39.7477 37.0527L39.7592 37.0412C41.304 35.4958 42.8489 33.9504 44.3945 32.4059C43.017 31.0287 41.6399 29.6512 40.2628 28.2736C37.5093 25.5194 34.7559 22.7651 32 20.0141C31.9947 21.8447 31.9955 23.6753 31.9962 25.5059C31.9966 26.5355 31.997 27.5651 31.9963 28.5947C32.6452 28.8176 33.2358 29.2244 33.6226 29.7968C34.2787 30.7178 34.3497 32.0054 33.8109 32.9974C33.2977 33.9966 32.2056 34.64 31.0863 34.6436C30.2709 34.6318 29.4592 34.3078 28.8895 33.7199C28.1633 32.9974 27.8503 31.9026 28.0651 30.9034C28.288 29.825 29.1289 28.9268 30.1736 28.5947C30.1761 27.7828 30.1758 26.9709 30.1755 26.1592V26.1576C30.1753 25.5077 30.1751 24.858 30.1763 24.2084C26.2466 24.2053 22.317 24.2062 18.3879 24.207L16.4177 24.2075C16.4128 24.5214 16.4153 24.8355 16.4178 25.1496V25.1496V25.1497V25.1497V25.1497V25.1497C16.4218 25.6522 16.4258 26.1546 16.3995 26.6563C16.3585 27.5591 15.5605 28.339 14.6577 28.3608C14.0835 28.4036 13.5393 28.1197 13.1489 27.7147C11.3745 25.9403 9.60048 24.1658 7.82641 22.3912C5.4597 20.0238 3.09294 17.6564 0.725287 15.2893C0.679259 15.2425 0.631267 15.196 0.582849 15.1491C0.313449 14.888 0.0308553 14.6142 0 14.22V14.1718C0.0236605 13.8724 0.187464 13.6139 0.399499 13.411C3.00288 10.8093 5.60479 8.20658 8.20664 5.6039L8.21235 5.59819L8.21589 5.59464L8.21817 5.59237C9.70606 4.10399 11.1939 2.61563 12.6821 1.12752C12.747 1.06365 12.8111 0.998315 12.8754 0.932861C13.1306 0.672812 13.3876 0.410904 13.7067 0.232055C14.0116 0.0618814 14.3629 0.0136503 14.7059 0ZM15.0463 15.0663C14.4311 15.2902 14.0808 16.0282 14.2973 16.6461C14.4857 17.2731 15.2055 17.6653 15.8353 17.4815C16.5242 17.315 16.9619 16.5087 16.7098 15.8416C16.5005 15.1746 15.6924 14.7951 15.0463 15.0663ZM30.7769 30.321C30.1481 30.463 29.7076 31.1355 29.8341 31.7697C29.9297 32.4377 30.6277 32.9346 31.292 32.8072C31.9772 32.7107 32.4859 31.9845 32.3321 31.3075C32.212 30.6158 31.4558 30.1326 30.7769 30.321ZM39.7634 2.53708C40.6452 1.91462 41.8601 1.82089 42.8311 2.29046C43.8685 2.76822 44.5829 3.86207 44.5975 5.00505C44.6366 6.13439 43.9923 7.24917 42.9977 7.78335C41.9338 8.38396 40.5169 8.26384 39.576 7.48213C39.0955 7.09992 38.7524 6.56847 38.5549 5.99061C37.9833 5.98855 37.4114 5.9891 36.8396 5.98964C36.1451 5.9903 35.4507 5.99096 34.7565 5.98697C34.327 6.00153 33.8883 5.7176 33.8055 5.28079C33.69 4.84489 33.9711 4.35621 34.4007 4.22426C34.6332 4.16219 34.8748 4.165 35.1151 4.1678C35.1814 4.16857 35.2476 4.16934 35.3134 4.16875L36.1235 4.16886C36.934 4.16903 37.7449 4.1692 38.5558 4.16784C38.777 3.51626 39.1892 2.92384 39.7634 2.53708ZM41.0857 3.89301C40.4714 4.10413 40.0947 4.83943 40.3158 5.45734C40.4596 5.95967 40.9483 6.31913 41.467 6.34006C42.226 6.41013 42.9003 5.65117 42.7711 4.90495C42.6882 4.13508 41.8092 3.59543 41.0857 3.89301ZM32.1111 4.90658C32.0247 4.36966 31.3895 4.02295 30.8908 4.24681C30.5568 4.38058 30.3265 4.72457 30.3293 5.08403C30.3238 5.56088 30.7433 5.97949 31.2184 5.9804C31.768 6.00315 32.2394 5.4444 32.1111 4.90658ZM22.6768 7.84789C22.8751 7.82082 23.0754 7.82294 23.2754 7.82506H23.2755H23.2755H23.2756C23.3445 7.82579 23.4134 7.82652 23.4821 7.82605C24.7442 7.82642 26.0063 7.8262 27.2684 7.82598C29.1614 7.82565 31.0543 7.82532 32.9473 7.82696C33.2576 7.8215 33.5852 7.92706 33.7745 8.18642C34.0739 8.54861 34.0084 9.14194 33.6353 9.42951C33.4214 9.6197 33.1238 9.647 32.8508 9.647C31.2747 9.64527 29.6984 9.6456 28.1221 9.64593C26.3882 9.64629 24.6543 9.64666 22.9207 9.64427C22.472 9.67339 22.0024 9.38037 21.926 8.9199C21.8059 8.43303 22.1772 7.90067 22.6768 7.84789ZM24.5178 36.9467C22.4163 36.9431 20.3145 36.9396 18.2138 36.9632C17.6915 36.9942 17.2865 37.5475 17.4212 38.0553C17.5031 38.4903 17.9417 38.7806 18.3721 38.7642C21.7474 38.7687 25.1218 38.7696 28.497 38.7633C29.0631 38.7997 29.5736 38.2436 29.4371 37.6812C29.3579 37.2008 28.8629 36.9032 28.3969 36.9469C27.1042 36.951 25.8112 36.9488 24.518 36.9467H24.5179H24.5178ZM4.38739 38.5103C5.87891 38.1336 7.53788 39.0645 8.00199 40.5279C8.46792 41.8337 7.91281 43.3999 6.72978 44.1224C5.7597 44.7513 4.43562 44.7595 3.45826 44.1406C2.31618 43.4554 1.72921 41.9839 2.10414 40.7026C2.38807 39.6251 3.30082 38.7524 4.38739 38.5103ZM4.77506 40.2821C4.16352 40.4241 3.71943 41.0657 3.82044 41.689C3.89598 42.3388 4.53845 42.8566 5.19094 42.782C5.89711 42.7392 6.46315 42.0248 6.33574 41.3259C6.24838 40.6088 5.47122 40.0901 4.77506 40.2821ZM12.0068 41.3067C11.9003 40.7743 11.2533 40.4531 10.7646 40.6934C10.4789 40.8208 10.2677 41.1038 10.2395 41.4177C10.1767 41.8846 10.5426 42.3523 11.0112 42.4033C11.6064 42.5107 12.1742 41.8909 12.0068 41.3067Z" fill="url(#paint0_linear_614_552)"/>
<defs>
<linearGradient id="paint0_linear_614_552" x1="-2.43314" y1="-2.36916" x2="58.7859" y2="16.8386" gradientUnits="userSpaceOnUse">
<stop offset="0.244792" stop-color="#4E5CA8"/>
<stop offset="1" stop-color="#1FC3F3"/>
</linearGradient>
</defs>
</svg>
