<svg width="358" height="343" viewBox="0 0 358 343" fill="none" xmlns="http://www.w3.org/2000/svg">
<g opacity="0.67" filter="url(#filter0_d)">
<circle cx="105.942" cy="158.408" r="49.264" fill="url(#paint0_linear)"/>
</g>
<g opacity="0.67" filter="url(#filter1_d)">
<circle cx="160.89" cy="201.04" r="35.5269" fill="url(#paint1_radial)"/>
</g>
<g opacity="0.67" filter="url(#filter2_d)">
<circle cx="185.996" cy="120.986" r="72.4749" fill="url(#paint2_linear)"/>
</g>
<path d="M150.415 139.158C147.628 139.158 145.135 138.699 142.935 137.783C140.772 136.829 139.085 135.473 137.875 133.713C136.665 131.953 136.06 129.899 136.06 127.553C136.06 125.389 136.592 123.501 137.655 121.888C138.755 120.238 140.222 118.973 142.055 118.093C140.588 117.249 139.452 116.149 138.645 114.793C137.838 113.399 137.435 111.768 137.435 109.898C137.435 106.708 138.627 104.196 141.01 102.363C143.393 100.493 146.528 99.5576 150.415 99.5576C154.302 99.5576 157.418 100.474 159.765 102.308C162.148 104.141 163.34 106.671 163.34 109.898C163.34 111.731 162.937 113.344 162.13 114.738C161.323 116.094 160.205 117.213 158.775 118.093C160.608 118.973 162.057 120.238 163.12 121.888C164.22 123.501 164.77 125.408 164.77 127.608C164.77 129.954 164.165 132.008 162.955 133.768C161.745 135.491 160.04 136.829 157.84 137.783C155.677 138.699 153.202 139.158 150.415 139.158ZM150.415 116.168C152.652 116.094 154.54 115.508 156.08 114.408C157.62 113.308 158.39 111.841 158.39 110.008C158.39 108.138 157.62 106.653 156.08 105.553C154.577 104.416 152.688 103.848 150.415 103.848C148.105 103.848 146.198 104.416 144.695 105.553C143.192 106.653 142.44 108.138 142.44 110.008C142.44 111.878 143.192 113.381 144.695 114.518C146.198 115.618 148.105 116.168 150.415 116.168ZM150.415 134.868C153.018 134.868 155.182 134.208 156.905 132.888C158.665 131.568 159.545 129.808 159.545 127.608C159.545 125.408 158.665 123.648 156.905 122.328C155.182 121.008 153.018 120.348 150.415 120.348C147.775 120.348 145.575 121.008 143.815 122.328C142.092 123.648 141.23 125.408 141.23 127.608C141.23 129.808 142.092 131.568 143.815 132.888C145.575 134.208 147.775 134.868 150.415 134.868ZM178.508 138.608C178.178 138.608 177.903 138.498 177.683 138.278C177.5 138.021 177.408 137.728 177.408 137.398C177.408 137.141 177.482 136.903 177.628 136.683L186.098 124.913C185.218 125.133 184.192 125.243 183.018 125.243C180.378 125.206 178.068 124.601 176.088 123.428C174.108 122.218 172.587 120.659 171.523 118.753C170.497 116.809 169.983 114.738 169.983 112.538C169.983 110.338 170.497 108.248 171.523 106.268C172.587 104.288 174.145 102.674 176.198 101.428C178.288 100.181 180.8 99.5576 183.733 99.5576C186.667 99.5576 189.178 100.163 191.268 101.373C193.358 102.583 194.935 104.178 195.998 106.158C197.062 108.101 197.593 110.191 197.593 112.428C197.593 114.444 197.227 116.223 196.493 117.763C195.797 119.303 194.862 120.898 193.688 122.548L183.018 137.508C182.762 137.838 182.505 138.113 182.248 138.333C182.028 138.516 181.698 138.608 181.258 138.608H178.508ZM183.733 120.898C185.31 120.898 186.758 120.549 188.078 119.853C189.398 119.156 190.443 118.184 191.213 116.938C191.983 115.654 192.368 114.188 192.368 112.538C192.368 110.851 191.983 109.366 191.213 108.083C190.443 106.799 189.398 105.809 188.078 105.113C186.758 104.416 185.31 104.068 183.733 104.068C182.193 104.068 180.763 104.416 179.443 105.113C178.16 105.809 177.133 106.799 176.363 108.083C175.593 109.366 175.208 110.851 175.208 112.538C175.208 114.188 175.593 115.654 176.363 116.938C177.133 118.184 178.16 119.156 179.443 119.853C180.727 120.549 182.157 120.898 183.733 120.898ZM201.74 138.608C201.373 138.608 201.062 138.498 200.805 138.278C200.585 138.021 200.475 137.709 200.475 137.343V133.548C200.475 133.181 200.585 132.869 200.805 132.613C201.062 132.356 201.373 132.228 201.74 132.228H205.535C205.902 132.228 206.195 132.356 206.415 132.613C206.672 132.869 206.8 133.181 206.8 133.548V137.343C206.8 137.709 206.672 138.021 206.415 138.278C206.195 138.498 205.902 138.608 205.535 138.608H201.74ZM217.07 138.608C216.74 138.608 216.465 138.498 216.245 138.278C216.061 138.021 215.97 137.728 215.97 137.398L216.08 136.903L229.83 104.728H211.68C211.313 104.728 211.001 104.618 210.745 104.398C210.525 104.141 210.415 103.829 210.415 103.463V101.428C210.415 101.024 210.525 100.713 210.745 100.493C210.965 100.236 211.276 100.108 211.68 100.108H234.12C234.523 100.108 234.835 100.236 235.055 100.493C235.275 100.713 235.385 101.024 235.385 101.428V103.298C235.385 103.958 235.238 104.673 234.945 105.443L221.36 137.233C221.176 137.636 220.975 137.966 220.755 138.223C220.535 138.479 220.223 138.608 219.82 138.608H217.07Z" fill="white"/>
<path d="M80.9053 173.161C80.6053 173.161 80.3503 173.071 80.1403 172.891C79.9603 172.681 79.8703 172.426 79.8703 172.126V170.776C79.8703 170.086 80.2453 169.426 80.9953 168.796L90.8053 159.031C93.0253 157.141 94.5553 155.596 95.3953 154.396C96.2353 153.196 96.6553 151.921 96.6553 150.571C96.6553 148.801 96.1603 147.421 95.1703 146.431C94.1803 145.411 92.7403 144.901 90.8503 144.901C89.0503 144.901 87.6253 145.426 86.5753 146.476C85.5253 147.526 84.8803 148.936 84.6403 150.706C84.5803 151.036 84.4303 151.291 84.1903 151.471C83.9503 151.651 83.7103 151.741 83.4703 151.741H81.3103C81.0403 151.741 80.8153 151.651 80.6353 151.471C80.4553 151.291 80.3653 151.081 80.3653 150.841C80.4253 149.251 80.8453 147.721 81.6253 146.251C82.4353 144.751 83.6203 143.536 85.1803 142.606C86.7403 141.646 88.6303 141.166 90.8503 141.166C94.2103 141.166 96.7303 142.051 98.4103 143.821C100.12 145.561 100.975 147.781 100.975 150.481C100.975 152.371 100.51 154.081 99.5803 155.611C98.6803 157.111 97.2553 158.701 95.3053 160.381L86.4403 169.381H100.615C100.945 169.381 101.2 169.471 101.38 169.651C101.56 169.831 101.65 170.086 101.65 170.416V172.126C101.65 172.426 101.545 172.681 101.335 172.891C101.155 173.071 100.915 173.161 100.615 173.161H80.9053ZM117.265 173.611C114.925 173.611 112.9 173.236 111.19 172.486C109.48 171.706 108.175 170.701 107.275 169.471C106.405 168.241 105.94 166.966 105.88 165.646C105.88 165.376 105.97 165.166 106.15 165.016C106.33 164.836 106.555 164.746 106.825 164.746H108.85C109.18 164.746 109.45 164.821 109.66 164.971C109.87 165.091 110.035 165.346 110.155 165.736C110.545 167.266 111.385 168.346 112.675 168.976C113.995 169.606 115.54 169.921 117.31 169.921C119.47 169.921 121.18 169.411 122.44 168.391C123.73 167.341 124.375 165.856 124.375 163.936C124.375 160.276 122.14 158.446 117.67 158.446H113.44C113.14 158.446 112.885 158.356 112.675 158.176C112.495 157.966 112.405 157.711 112.405 157.411V156.241C112.405 155.791 112.57 155.401 112.9 155.071L121.675 145.351H108.355C108.055 145.351 107.8 145.261 107.59 145.081C107.41 144.901 107.32 144.661 107.32 144.361V142.741C107.32 142.411 107.41 142.156 107.59 141.976C107.8 141.766 108.055 141.661 108.355 141.661H126.175C126.505 141.661 126.76 141.766 126.94 141.976C127.15 142.156 127.255 142.411 127.255 142.741V144.226C127.255 144.556 127.105 144.901 126.805 145.261L118.03 155.116H118.75C121.81 155.206 124.225 156.001 125.995 157.501C127.795 159.001 128.695 161.191 128.695 164.071C128.695 166.051 128.2 167.761 127.21 169.201C126.25 170.611 124.9 171.706 123.16 172.486C121.42 173.236 119.455 173.611 117.265 173.611Z" fill="white"/>
<path d="M151.838 211.886C151.605 211.886 151.418 211.816 151.278 211.676C151.138 211.512 151.068 211.314 151.068 211.081V191.341L145.188 195.856C145.025 195.996 144.85 196.066 144.663 196.066C144.453 196.066 144.255 195.949 144.068 195.716L143.228 194.631C143.112 194.467 143.053 194.304 143.053 194.141C143.053 193.884 143.17 193.674 143.403 193.511L150.998 187.631C151.255 187.467 151.558 187.386 151.908 187.386H153.553C153.787 187.386 153.973 187.467 154.113 187.631C154.277 187.771 154.358 187.957 154.358 188.191V211.081C154.358 211.314 154.277 211.512 154.113 211.676C153.973 211.816 153.787 211.886 153.553 211.886H151.838ZM159.566 211.886C159.333 211.886 159.135 211.816 158.971 211.676C158.831 211.512 158.761 211.314 158.761 211.081V210.031C158.761 209.494 159.053 208.981 159.636 208.491L167.266 200.896C168.993 199.426 170.183 198.224 170.836 197.291C171.49 196.357 171.816 195.366 171.816 194.316C171.816 192.939 171.431 191.866 170.661 191.096C169.891 190.302 168.771 189.906 167.301 189.906C165.901 189.906 164.793 190.314 163.976 191.131C163.16 191.947 162.658 193.044 162.471 194.421C162.425 194.677 162.308 194.876 162.121 195.016C161.935 195.156 161.748 195.226 161.561 195.226H159.881C159.671 195.226 159.496 195.156 159.356 195.016C159.216 194.876 159.146 194.712 159.146 194.526C159.193 193.289 159.52 192.099 160.126 190.956C160.756 189.789 161.678 188.844 162.891 188.121C164.105 187.374 165.575 187.001 167.301 187.001C169.915 187.001 171.875 187.689 173.181 189.066C174.511 190.419 175.176 192.146 175.176 194.246C175.176 195.716 174.815 197.046 174.091 198.236C173.391 199.402 172.283 200.639 170.766 201.946L163.871 208.946H174.896C175.153 208.946 175.351 209.016 175.491 209.156C175.631 209.296 175.701 209.494 175.701 209.751V211.081C175.701 211.314 175.62 211.512 175.456 211.676C175.316 211.816 175.13 211.886 174.896 211.886H159.566Z" fill="white"/>
<defs>
<filter id="filter0_d" x="0.632393" y="92.3303" width="210.619" height="210.619" filterUnits="userSpaceOnUse" color-interpolation-filters="sRGB">
<feFlood flood-opacity="0" result="BackgroundImageFix"/>
<feColorMatrix in="SourceAlpha" type="matrix" values="0 0 0 0 0 0 0 0 0 0 0 0 0 0 0 0 0 0 127 0" result="hardAlpha"/>
<feOffset dy="39.2317"/>
<feGaussianBlur stdDeviation="28.0227"/>
<feColorMatrix type="matrix" values="0 0 0 0 0.305882 0 0 0 0 0.364706 0 0 0 0 0.662745 0 0 0 0.3 0"/>
<feBlend mode="normal" in2="BackgroundImageFix" result="effect1_dropShadow"/>
<feBlend mode="normal" in="SourceGraphic" in2="effect1_dropShadow" result="shape"/>
</filter>
<filter id="filter1_d" x="82.7687" y="163.272" width="156.243" height="156.243" filterUnits="userSpaceOnUse" color-interpolation-filters="sRGB">
<feFlood flood-opacity="0" result="BackgroundImageFix"/>
<feColorMatrix in="SourceAlpha" type="matrix" values="0 0 0 0 0 0 0 0 0 0 0 0 0 0 0 0 0 0 127 0" result="hardAlpha"/>
<feOffset dy="40.3526"/>
<feGaussianBlur stdDeviation="21.2972"/>
<feColorMatrix type="matrix" values="0 0 0 0 0.305882 0 0 0 0 0.364706 0 0 0 0 0.662745 0 0 0 0.15 0"/>
<feBlend mode="normal" in2="BackgroundImageFix" result="effect1_dropShadow"/>
<feBlend mode="normal" in="SourceGraphic" in2="effect1_dropShadow" result="shape"/>
</filter>
<filter id="filter2_d" x="14.881" y="0.312317" width="342.229" height="342.229" filterUnits="userSpaceOnUse" color-interpolation-filters="sRGB">
<feFlood flood-opacity="0" result="BackgroundImageFix"/>
<feColorMatrix in="SourceAlpha" type="matrix" values="0 0 0 0 0 0 0 0 0 0 0 0 0 0 0 0 0 0 127 0" result="hardAlpha"/>
<feOffset dy="50.4408"/>
<feGaussianBlur stdDeviation="49.3199"/>
<feColorMatrix type="matrix" values="0 0 0 0 0.188235 0 0 0 0 0.72549 0 0 0 0 0.619608 0 0 0 0.3 0"/>
<feBlend mode="normal" in2="BackgroundImageFix" result="effect1_dropShadow"/>
<feBlend mode="normal" in="SourceGraphic" in2="effect1_dropShadow" result="shape"/>
</filter>
<linearGradient id="paint0_linear" x1="51.7013" y1="103.475" x2="176.79" y2="195.025" gradientUnits="userSpaceOnUse">
<stop offset="0.1297" stop-color="#2483C5"/>
<stop offset="0.1672" stop-color="#2486C7"/>
<stop offset="0.676" stop-color="#29B1DF"/>
<stop offset="0.9352" stop-color="#2BC2E8"/>
</linearGradient>
<radialGradient id="paint1_radial" cx="0" cy="0" r="1" gradientUnits="userSpaceOnUse" gradientTransform="translate(160.89 201.04) rotate(90) scale(35.5269)">
<stop stop-color="#8B94C0"/>
<stop offset="1" stop-color="#817CB9"/>
</radialGradient>
<linearGradient id="paint2_linear" x1="261.494" y1="193.461" x2="128.413" y2="34.8738" gradientUnits="userSpaceOnUse">
<stop stop-color="#0097CE"/>
<stop offset="0.1875" stop-color="#0999C5"/>
<stop offset="0.348958" stop-color="#229DAD"/>
<stop offset="0.510417" stop-color="#42A38F"/>
<stop offset="0.666667" stop-color="#5DAD82"/>
<stop offset="0.822016" stop-color="#A1C661"/>
<stop offset="1" stop-color="#BED153"/>
</linearGradient>
</defs>
</svg>
