<svg width="46" height="46" viewBox="0 0 46 46" fill="none" xmlns="http://www.w3.org/2000/svg">
<path fill-rule="evenodd" clip-rule="evenodd" d="M11.0599 22.1934C11.4258 19.6534 13.6107 17.6934 16.25 17.6934C19.1446 17.6934 21.5 20.0486 21.5 22.9434C21.5 25.8382 19.1446 28.1934 16.25 28.1934C13.6107 28.1934 11.4258 26.2334 11.0599 23.6934H9.875C5.53246 23.6934 2 27.2262 2 31.5684C2 35.9106 5.53246 39.4434 9.875 39.4434H11.4395L10.4697 38.4736L11.5303 37.4132L13.7803 39.6632C13.9268 39.8096 14 40.0016 14 40.1934C14 40.3852 13.9268 40.5772 13.7803 40.7236L11.5303 42.9736L10.4697 41.9132L11.4395 40.9434H9.875C4.70556 40.9434 0.5 36.7378 0.5 31.5684C0.5 26.399 4.70556 22.1934 9.875 22.1934H11.0599ZM35 40.1934C35 40.0016 34.9268 39.8096 34.7802 39.6632L32.5302 37.4132L31.4698 38.4736L32.4394 39.4434H24.4402C24.0742 36.9034 21.8892 34.9434 19.25 34.9434C16.3555 34.9434 14 37.2986 14 40.1934C14 43.0882 16.3555 45.4434 19.25 45.4434C21.8892 45.4434 24.0742 43.4834 24.4402 40.9434H32.4394L31.4698 41.9132L32.5302 42.9736L34.7802 40.7236C34.9268 40.5772 35 40.3852 35 40.1934ZM35 40.1934C35 43.0882 37.3554 45.4434 40.25 45.4434C43.1446 45.4434 45.5 43.0882 45.5 40.1934C45.5 37.2986 43.1446 34.9434 40.25 34.9434C37.3554 34.9434 35 37.2986 35 40.1934ZM21.5 5.69336C21.5 5.88526 21.4268 6.07716 21.2802 6.22364L19.0302 8.47364L17.9697 7.41308L18.9395 6.44336H10.9401C10.5742 8.98332 8.38928 10.9434 5.75 10.9434C2.85546 10.9434 0.5 8.58826 0.5 5.69336C0.5 2.79846 2.85546 0.443359 5.75 0.443359C8.38928 0.443359 10.5742 2.4034 10.9401 4.94336H18.9395L17.9697 3.97364L19.0302 2.91308L21.2802 5.16308C21.4268 5.30956 21.5 5.50146 21.5 5.69336ZM21.5 5.69336C21.5 8.58826 23.8554 10.9434 26.75 10.9434C29.3892 10.9434 31.5742 8.98332 31.9402 6.44336H36.125C40.4676 6.44336 44 9.9762 44 14.3184C44 18.6605 40.4676 22.1934 36.125 22.1934H24.0606L25.0302 21.2236L23.9698 20.1632L21.7198 22.4132C21.5732 22.5596 21.5 22.7516 21.5 22.9434C21.5 23.1352 21.5732 23.3272 21.7198 23.4736L23.9698 25.7236L25.0302 24.6632L24.0606 23.6934H36.125C41.2944 23.6934 45.5 19.4878 45.5 14.3184C45.5 9.14892 41.2944 4.94336 36.125 4.94336H31.9402C31.5742 2.4034 29.3892 0.443359 26.75 0.443359C23.8554 0.443359 21.5 2.79846 21.5 5.69336ZM12.5 22.9434C12.5 25.011 14.1824 26.6934 16.25 26.6934C18.3176 26.6934 20 25.011 20 22.9434C20 20.8758 18.3176 19.1934 16.25 19.1934C14.1824 19.1934 12.5 20.8758 12.5 22.9434ZM2 5.69336C2 7.76098 3.68238 9.44336 5.75 9.44336C7.81762 9.44336 9.5 7.76098 9.5 5.69336C9.5 3.62574 7.81762 1.94336 5.75 1.94336C3.68238 1.94336 2 3.62574 2 5.69336ZM23 5.69336C23 7.76098 24.6824 9.44336 26.75 9.44336C28.8176 9.44336 30.5 7.76098 30.5 5.69336C30.5 3.62574 28.8176 1.94336 26.75 1.94336C24.6824 1.94336 23 3.62574 23 5.69336ZM23 40.1934C23 38.1258 21.3176 36.4434 19.25 36.4434C17.1824 36.4434 15.5 38.1258 15.5 40.1934C15.5 42.261 17.1824 43.9434 19.25 43.9434C21.3176 43.9434 23 42.261 23 40.1934ZM44 40.1934C44 38.1258 42.3176 36.4434 40.25 36.4434C38.1824 36.4434 36.5 38.1258 36.5 40.1934C36.5 42.261 38.1824 43.9434 40.25 43.9434C42.3176 43.9434 44 42.261 44 40.1934Z" fill="url(#paint0_linear_807_1597)"/>
<defs>
<linearGradient id="paint0_linear_807_1597" x1="-19.0325" y1="-50.5285" x2="90.5539" y2="25.0207" gradientUnits="userSpaceOnUse">
<stop offset="0.0677083" stop-color="#3D65AF"/>
<stop offset="0.354167" stop-color="#2372B8"/>
<stop offset="0.807292" stop-color="#00B8BB"/>
</linearGradient>
</defs>
</svg>
