<?xml version="1.0" standalone="no"?>
<!DOCTYPE svg PUBLIC "-//W3C//DTD SVG 20010904//EN"
 "http://www.w3.org/TR/2001/REC-SVG-20010904/DTD/svg10.dtd">
<svg version="1.0" xmlns="http://www.w3.org/2000/svg"
 width="1162.000000pt" height="1162.000000pt" viewBox="0 0 1162.000000 1162.000000"
 preserveAspectRatio="xMidYMid meet">
<metadata>
Created by potrace 1.14, written by Peter Selinger 2001-2017
</metadata>
<g transform="translate(0.000000,1162.000000) scale(0.100000,-0.100000)"
fill="#000000" stroke="none">
<path d="M235 9926 c-57 -21 -75 -37 -102 -89 -23 -44 -27 -64 -26 -132 0 -86
3 -100 28 -185 22 -72 61 -175 140 -365 59 -141 283 -593 385 -775 51 -91 102
-183 114 -205 20 -36 200 -333 236 -390 8 -13 46 -72 84 -132 82 -130 262
-394 369 -541 42 -59 99 -136 124 -172 41 -56 205 -270 291 -379 91 -116 329
-399 417 -497 6 -6 46 -51 90 -100 141 -157 350 -371 512 -524 203 -194 389
-352 593 -507 158 -119 337 -240 443 -298 37 -20 67 -39 67 -42 0 -5 -61 -95
-69 -103 -3 -3 -20 -25 -36 -49 -17 -25 -58 -81 -92 -125 -35 -45 -66 -86 -70
-91 -19 -25 -128 -160 -133 -165 -3 -3 -32 -36 -65 -75 -108 -126 -147 -168
-335 -355 -225 -226 -400 -381 -610 -543 -50 -39 -225 -167 -256 -188 -391
-261 -485 -322 -639 -409 -343 -193 -665 -340 -990 -451 -93 -32 -167 -58
-162 -59 4 0 49 -9 100 -21 50 -11 106 -22 122 -25 17 -2 44 -7 60 -10 17 -4
39 -8 50 -9 11 -1 90 -12 175 -23 211 -28 294 -36 525 -48 264 -15 725 -5 960
20 33 4 85 9 115 12 30 3 69 7 85 9 17 2 53 7 80 10 70 9 356 56 420 69 47 10
221 48 235 51 22 5 223 55 235 59 6 1 30 8 55 15 136 37 373 115 575 190 234
86 724 317 791 372 10 8 19 13 21 11 3 -3 122 68 223 132 225 144 478 335 716
541 73 63 465 452 524 520 175 200 317 372 393 476 9 13 47 65 83 114 113 154
313 458 394 599 10 17 39 67 65 111 79 132 200 337 227 385 14 25 61 106 105
180 149 252 316 535 333 565 9 17 84 143 165 280 81 138 157 265 167 284 48
85 254 336 343 419 229 215 479 341 906 460 135 38 408 105 474 116 47 9 75
15 93 20 9 3 31 8 47 11 63 11 241 45 260 48 11 3 54 10 95 17 41 6 86 14 100
16 36 6 279 44 320 50 19 2 44 6 55 9 11 2 49 7 85 11 36 4 72 8 80 9 8 2 45
6 81 10 55 6 69 11 77 29 14 31 -5 66 -37 67 -14 0 -35 3 -46 6 -31 8 -532 8
-615 0 -41 -4 -101 -10 -132 -12 -32 -2 -81 -7 -110 -10 -29 -4 -67 -8 -85
-10 -17 -2 -50 -6 -72 -9 -23 -3 -60 -8 -83 -11 -24 -3 -54 -8 -68 -10 -14 -3
-45 -7 -70 -10 -25 -3 -99 -15 -165 -26 -66 -11 -133 -22 -150 -25 -16 -3
-141 -27 -276 -54 -289 -57 -328 -62 -474 -63 -136 0 -297 32 -520 103 -194
63 -405 109 -570 127 -88 10 -321 10 -400 1 -154 -18 -349 -81 -480 -156 -130
-75 -162 -99 -276 -212 -101 -99 -173 -194 -292 -380 -47 -74 -91 -140 -97
-147 -5 -7 -15 -24 -22 -38 -6 -14 -15 -25 -20 -25 -4 0 -8 -6 -8 -13 0 -7 -8
-22 -17 -33 -10 -11 -22 -27 -28 -36 -44 -69 -188 -257 -260 -337 -55 -62
-190 -195 -235 -232 -71 -57 -190 -134 -252 -163 l-58 -26 -33 33 c-42 40
-232 215 -261 240 -11 10 -43 40 -71 65 -27 26 -95 88 -150 137 -55 49 -120
107 -144 130 -51 46 -40 37 -155 140 -50 44 -97 87 -106 95 -9 8 -47 42 -85
75 -38 33 -88 76 -110 96 -22 20 -55 49 -74 65 -19 16 -42 36 -51 44 -9 8 -43
38 -75 65 -33 28 -71 60 -85 72 -53 46 -72 62 -112 95 -23 18 -46 38 -52 43
-62 60 -522 412 -771 591 -223 160 -721 491 -903 599 -9 6 -50 30 -90 55 -111
68 -114 70 -309 184 -101 58 -185 106 -188 106 -3 0 -24 12 -48 27 -102 64
-716 366 -703 345 2 -4 -39 14 -92 39 -130 62 -160 75 -239 105 -74 27 -150
57 -284 110 -94 37 -168 47 -214 30z m7967 -2299 c45 -32 55 -42 73 -76 41
-80 6 -194 -74 -239 -146 -82 -315 60 -262 220 34 102 178 154 263 95z"/>
</g>
</svg>
