<svg width="60" height="61" viewBox="0 0 60 61" fill="none" xmlns="http://www.w3.org/2000/svg">
<path fill-rule="evenodd" clip-rule="evenodd" d="M14.6793 33.5972H28.2704V37.4805H7.88373C7.62627 37.4805 7.37936 37.5828 7.19729 37.7648C7.01522 37.947 6.91293 38.1938 6.91293 38.4513V43.3055H8.85452V39.4222H28.2704V43.3055H30.212V39.4222H49.6279V43.3055H51.5695V38.4513C51.5695 38.1938 51.4672 37.947 51.2852 37.7648C51.103 37.5828 50.8563 37.4805 50.5987 37.4805H30.212V33.5972H43.8031C46.4059 33.5891 48.9162 32.6307 50.8622 30.9021C52.8082 29.1733 54.0558 26.7933 54.3706 24.2095C54.6854 21.6256 54.0457 19.0157 52.5716 16.8704C51.0976 14.725 48.8909 13.1919 46.366 12.5591C45.7991 10.5127 44.5769 8.70856 42.8864 7.42323C41.1962 6.13789 39.1311 5.44226 37.0076 5.4429C36.1817 5.4436 35.3593 5.5513 34.5612 5.76328C33.019 3.65431 30.8602 2.07596 28.383 1.246C25.9058 0.416037 23.232 0.375391 20.7307 1.12967C18.2293 1.88394 16.0237 3.39597 14.4181 5.45707C12.8126 7.51819 11.8862 10.0268 11.7669 12.6368C9.28141 13.3351 7.13303 14.9102 5.71943 17.0707C4.30579 19.2311 3.7227 21.8305 4.07803 24.3878C4.43334 26.945 5.70304 29.2869 7.65211 30.98C9.60116 32.6732 12.0976 33.6031 14.6793 33.5972ZM12.9416 14.3552C13.1642 14.3098 13.3638 14.1878 13.5057 14.0104C13.6476 13.833 13.7228 13.6115 13.7182 13.3843L13.7085 13.2096C13.7019 10.9017 14.443 8.65381 15.821 6.80249C17.1989 4.95114 19.1395 3.59606 21.3521 2.94011C23.5647 2.28416 25.9304 2.36269 28.0946 3.16392C30.2589 3.96514 32.1052 5.44596 33.3574 7.38458C33.4752 7.56523 33.6499 7.70146 33.8539 7.77177C34.0579 7.84209 34.2792 7.8425 34.4835 7.77291C35.5252 7.415 36.6314 7.28283 37.7283 7.3852C38.8252 7.48754 39.8876 7.82208 40.8452 8.36657C41.8028 8.91107 42.6338 9.65305 43.2825 10.5433C43.9315 11.4335 44.3835 12.4516 44.609 13.53C44.6466 13.721 44.7408 13.8962 44.8793 14.0329C45.0178 14.1697 45.1941 14.2617 45.3857 14.2969C47.5659 14.654 49.53 15.8238 50.8824 17.5709C52.2348 19.3179 52.8753 21.5126 52.6746 23.7129C52.4743 25.9133 51.4476 27.956 49.8013 29.4296C48.1554 30.9032 46.0121 31.6987 43.8031 31.6555H14.6793C12.5134 31.6552 10.4248 30.8506 8.81867 29.3975C7.21251 27.9443 6.20332 25.9465 5.98685 23.7912C5.77037 21.6361 6.36207 19.4774 7.64711 17.7338C8.93219 15.9903 10.819 14.7862 12.9416 14.3552ZM22.5 17.7173V19.4673H24.95C25.0375 20.0798 25.3 20.6923 25.65 21.2173L23.9 22.9673L25.125 24.1923L26.875 22.4423C27.4 22.7923 28.0125 23.0548 28.625 23.1423V25.5923H30.375V23.1423C30.9875 23.0548 31.6 22.7923 32.125 22.4423L33.875 24.1923L35.1 22.9673L33.35 21.2173C33.7 20.6923 33.9625 20.0798 34.05 19.4673H36.5V17.7173H34.05C33.9625 17.1048 33.7 16.4923 33.35 15.9673L35.1 14.2173L33.875 12.9923L32.125 14.7423C31.6 14.3923 30.9875 14.1298 30.375 14.0423V11.5923H28.625V14.0423C28.0125 14.1298 27.4 14.3923 26.875 14.7423L25.125 12.9923L23.9 14.2173L25.65 15.9673C25.3 16.4923 25.0375 17.1048 24.95 17.7173H22.5ZM29.5 15.7048C31.075 15.7048 32.3875 17.0173 32.3875 18.5923C32.3875 20.1673 31.075 21.4798 29.5 21.4798C27.925 21.4798 26.6125 20.1673 26.6125 18.5923C26.6125 17.0173 27.925 15.7048 29.5 15.7048ZM24.3874 4.47314V6.41481C22.5851 6.41481 20.8566 7.1308 19.5822 8.40526C18.3078 9.67975 17.5918 11.4083 17.5918 13.2107H15.6502C15.6502 10.8933 16.5707 8.67091 18.2093 7.03229C19.8478 5.3937 22.0701 4.47314 24.3874 4.47314ZM15.9304 45.6942C16.1851 45.6944 16.4396 45.7635 16.6592 45.8933C17.0103 46.0964 17.2703 46.4536 17.3524 46.8524C17.3924 47.0182 17.3869 47.1883 17.3815 47.3576C17.3799 47.4064 17.3784 47.4551 17.3779 47.5036C17.3864 48.3546 17.3856 49.2056 17.3848 50.0567V50.0586C17.3843 50.5043 17.3839 50.9499 17.3848 51.3956L17.3847 52.9955C17.3847 54.0622 17.3846 55.1288 17.3848 56.1955C17.3851 56.5145 17.2791 56.8339 17.0831 57.0855C16.8719 57.3638 16.5583 57.5619 16.2165 57.6301C16.0303 57.6661 15.8411 57.663 15.6522 57.6599H15.6521H15.652H15.652H15.6519C15.5759 57.6586 15.5001 57.6574 15.4245 57.6587C14.4748 57.6613 13.5251 57.6604 12.5754 57.6595H12.5724C11.5248 57.6586 10.4772 57.6576 9.42968 57.6613C9.42869 57.8897 9.42885 58.1182 9.42902 58.3466C9.4292 58.6093 9.42939 58.872 9.42782 59.1347L9.49555 59.1725C9.49622 59.2064 9.49585 59.2402 9.49548 59.274C9.49497 59.3202 9.49446 59.3663 9.49661 59.4124C9.51212 59.3368 9.5095 59.2591 9.5069 59.1823L9.50617 59.1603C9.55185 59.1547 9.59753 59.1493 9.64295 59.1445L9.62448 59.1824L9.62438 59.1826C9.61049 59.211 9.59659 59.2394 9.58319 59.268C9.60915 59.2688 9.63538 59.2679 9.66164 59.267H9.66168H9.66173H9.66177C9.71688 59.2651 9.7721 59.2631 9.82514 59.2776C9.81638 59.3186 9.79566 59.3546 9.76273 59.385C9.71889 59.3827 9.67837 59.3659 9.63784 59.3492C9.61772 59.3409 9.59761 59.3326 9.57708 59.3261C9.63312 59.3557 9.69022 59.3844 9.7521 59.398C9.80522 59.3621 9.84347 59.301 9.85807 59.24C9.83849 59.2164 9.82443 59.1892 9.81049 59.1623L9.80124 59.1445C9.96395 59.1449 10.1265 59.1485 10.2891 59.152C10.4515 59.1555 10.614 59.1591 10.7765 59.1595C10.8426 59.1625 10.9098 59.1587 10.9769 59.1549C11.1194 59.1468 11.2622 59.1387 11.3969 59.1954C11.671 59.2973 11.8489 59.5873 11.8335 59.8776C12.1708 59.8743 12.5082 59.8752 12.8456 59.876L13.0648 59.8765C13.0618 60.0442 13.0622 60.2118 13.0626 60.3795C13.0628 60.4504 13.063 60.5213 13.0629 60.5923H4.31688L4.317 60.3971C4.31716 60.2236 4.31731 60.0501 4.31635 59.8768L4.49625 59.8762C4.82145 59.8752 5.14678 59.8741 5.47191 59.8781C5.47085 59.7449 5.49236 59.6076 5.56221 59.4921C5.67562 59.2906 5.89685 59.1565 6.12765 59.1499C6.25933 59.1485 6.39108 59.1486 6.52284 59.1487C6.6483 59.1488 6.77377 59.1489 6.89918 59.1477C7.09858 59.1609 7.29845 59.1598 7.49833 59.1586C7.66636 59.1577 7.8344 59.1567 8.00215 59.1643C8.00322 58.6618 8.00375 58.1593 8.00163 57.6565C6.98228 57.6602 5.9628 57.6597 4.94331 57.6592C3.97488 57.6587 3.00645 57.6582 2.03815 57.6613C1.83763 57.6619 1.63393 57.6395 1.44589 57.5654C0.98324 57.3932 0.621777 56.9696 0.530415 56.482C0.50048 56.3481 0.500823 56.2104 0.501163 56.0735L0.5012 56.007C0.501441 54.8074 0.501408 53.6079 0.501375 52.4083C0.501336 50.9688 0.501297 49.5292 0.501731 48.0896C0.510937 47.9771 0.50736 47.8646 0.503784 47.7521C0.50086 47.6601 0.497935 47.5682 0.501997 47.4762C0.50842 47.3994 0.506536 47.3221 0.504653 47.245C0.501786 47.1275 0.498921 47.0101 0.525369 46.8943C0.621246 46.3427 1.06026 45.8709 1.60259 45.7395C1.77199 45.6914 1.94755 45.6927 2.12214 45.6939H2.12221H2.12229H2.12237C2.1653 45.6943 2.20817 45.6946 2.25088 45.6942H15.9304ZM16.4122 47.3136C16.4143 47.1924 16.4163 47.0713 16.3665 46.9585C16.2887 46.7799 16.097 46.6655 15.9041 46.6714H2.14518C2.11912 46.6719 2.09287 46.6716 2.06657 46.6712H2.06651H2.06645H2.06639C1.98177 46.67 1.89665 46.6688 1.81585 46.6965C1.64322 46.7479 1.51548 46.9052 1.47484 47.0779C1.46475 47.1996 1.46864 47.3216 1.47253 47.4436C1.47602 47.5527 1.4795 47.6619 1.47298 47.771C1.4769 49.4917 1.47634 51.213 1.47577 52.9341V52.9342V52.9342V52.9343V52.9343C1.47557 53.5451 1.47537 54.1559 1.47537 54.7666C6.45458 54.7672 11.4338 54.7674 16.4127 54.7666C16.4114 53.8201 16.4116 52.8735 16.4119 51.9269C16.412 51.3588 16.4121 50.7908 16.4119 50.2227C16.4133 50.011 16.4126 49.7993 16.4119 49.5876C16.4107 49.2348 16.4094 48.8819 16.4181 48.5294C16.4794 48.5889 16.5384 48.5467 16.5455 48.4742C16.546 48.4599 16.5452 48.4457 16.5445 48.4316L16.5439 48.4196C16.542 48.3993 16.532 48.3839 16.522 48.3686C16.5131 48.3548 16.5042 48.3411 16.5012 48.3242L16.4133 48.35C16.4088 48.0848 16.4126 47.8195 16.4163 47.5545V47.5544V47.5544V47.5543V47.5542L16.417 47.509C16.4099 47.4447 16.411 47.3791 16.4122 47.3136ZM9.39914 56.1139C9.40206 55.8252 9.18614 55.5541 8.90568 55.4912C8.61699 55.4179 8.29032 55.5736 8.1724 55.8495C8.06669 56.0742 8.10627 56.3618 8.27385 56.5465C8.41196 56.7057 8.63 56.7873 8.83849 56.7582C9.15161 56.7262 9.4087 56.4295 9.39914 56.1139ZM37.5175 45.8933C37.2978 45.7635 37.0434 45.6944 36.7887 45.6942H23.1091C23.0664 45.6946 23.0235 45.6943 22.9805 45.6939H22.9805H22.9804C22.8058 45.6927 22.6303 45.6914 22.4608 45.7395C21.9185 45.8709 21.4795 46.3427 21.3836 46.8943C21.3572 47.0101 21.36 47.1275 21.3629 47.245C21.3648 47.3221 21.3667 47.3994 21.3603 47.4762C21.3562 47.5682 21.3591 47.6601 21.362 47.7521C21.3656 47.8646 21.3692 47.9771 21.36 48.0896C21.3596 49.5289 21.3596 50.9681 21.3596 52.4073C21.3597 53.6072 21.3597 54.8071 21.3595 56.007L21.3594 56.0735C21.3591 56.2104 21.3587 56.3481 21.3887 56.482C21.48 56.9696 21.8415 57.3932 22.3042 57.5654C22.4922 57.6395 22.6959 57.6619 22.8964 57.6613C23.8647 57.6582 24.8331 57.6587 25.8016 57.6592C26.8211 57.6597 27.8405 57.6602 28.8599 57.6565C28.862 58.1593 28.8615 58.6618 28.8604 59.1643C28.6927 59.1567 28.5246 59.1577 28.3566 59.1586C28.1567 59.1598 27.9568 59.1609 27.7574 59.1477C27.632 59.1489 27.5066 59.1488 27.3811 59.1487C27.2493 59.1486 27.1176 59.1485 26.9859 59.1499C26.7551 59.1565 26.5339 59.2906 26.4205 59.4921C26.3506 59.6076 26.3291 59.7449 26.3302 59.8781C26.005 59.8741 25.6797 59.8752 25.3545 59.8762L25.1746 59.8768C25.1756 60.0502 25.1754 60.2237 25.1753 60.3972L25.1751 60.5923H33.9212C33.9212 60.5213 33.9211 60.4502 33.9209 60.3792C33.9205 60.2117 33.92 60.0441 33.923 59.8765L33.7038 59.876C33.3665 59.8752 33.029 59.8743 32.6918 59.8776C32.7072 59.5873 32.5292 59.2973 32.2551 59.1954C32.1205 59.1387 31.9777 59.1468 31.8352 59.1549C31.768 59.1587 31.7009 59.1625 31.6347 59.1595C31.4722 59.1591 31.3098 59.1555 31.1473 59.152C30.9848 59.1485 30.8222 59.1449 30.6595 59.1445L30.6688 59.1623C30.6827 59.1892 30.6968 59.2164 30.7163 59.24C30.7017 59.301 30.6635 59.3621 30.6104 59.398C30.5485 59.3844 30.4914 59.3557 30.4353 59.3261C30.4559 59.3326 30.476 59.3409 30.4961 59.3492C30.5366 59.3659 30.5771 59.3827 30.621 59.385C30.6539 59.3546 30.6746 59.3186 30.6834 59.2776C30.6304 59.2631 30.5751 59.2651 30.52 59.267H30.52H30.5199C30.4937 59.2679 30.4674 59.2688 30.4415 59.268L30.4574 59.2344L30.4827 59.1825L30.5012 59.1445C30.4558 59.1493 30.4101 59.1547 30.3644 59.1603L30.3652 59.1824C30.3678 59.2592 30.3704 59.3368 30.3549 59.4124C30.3527 59.3663 30.3532 59.3202 30.3537 59.274C30.3541 59.2402 30.3545 59.2064 30.3538 59.1725L30.2861 59.1347C30.2876 58.872 30.2875 58.6093 30.2873 58.3466C30.2871 58.1181 30.287 57.8897 30.2879 57.6613C31.3355 57.6576 32.3831 57.6586 33.4306 57.6595H33.4337C34.3834 57.6604 35.3331 57.6613 36.2828 57.6587C36.3584 57.6574 36.4343 57.6586 36.5103 57.6599H36.5104H36.5105C36.6994 57.663 36.8886 57.6661 37.0747 57.6301C37.4165 57.5619 37.7302 57.3638 37.9413 57.0855C38.1374 56.8339 38.2433 56.5145 38.2431 56.1955C38.2429 55.1455 38.2429 54.0955 38.243 53.0455V52.9955L38.2431 51.3956C38.2421 50.9493 38.2426 50.503 38.243 50.0567V50.0557C38.2439 49.2049 38.2447 48.3542 38.2361 47.5036C38.2366 47.4551 38.2382 47.4064 38.2398 47.3576C38.2452 47.1883 38.2507 47.0182 38.2107 46.8524C38.1286 46.4536 37.8686 46.0964 37.5175 45.8933ZM37.2248 46.9585C37.2746 47.0713 37.2725 47.1924 37.2704 47.3136C37.2693 47.3791 37.2682 47.4447 37.2753 47.509L37.2746 47.554L37.2746 47.5545C37.2708 47.8195 37.267 48.0847 37.2715 48.35L37.3594 48.3242C37.3625 48.3411 37.3713 48.3548 37.3803 48.3686C37.3902 48.3839 37.4002 48.3993 37.4022 48.4196C37.403 48.4377 37.4043 48.4558 37.4038 48.4742C37.3966 48.5467 37.3377 48.5889 37.2763 48.5294C37.2677 48.8819 37.2689 49.2348 37.2701 49.5876V49.5887C37.2709 49.8001 37.2716 50.0114 37.2702 50.2227C37.2704 50.7907 37.2703 51.3587 37.2701 51.9267C37.2699 52.8733 37.2697 53.82 37.271 54.7666C32.2921 54.7674 27.3128 54.7672 22.3336 54.7666C22.3336 54.1559 22.3338 53.5452 22.334 52.9344V52.9344V52.9323C22.3346 51.2118 22.3352 49.4911 22.3312 47.771C22.3378 47.6619 22.3343 47.5527 22.3308 47.4436C22.3269 47.3216 22.323 47.1996 22.3331 47.0779C22.3737 46.9052 22.5015 46.7479 22.6741 46.6965C22.7549 46.6688 22.84 46.67 22.9246 46.6712C22.951 46.6716 22.9773 46.6719 23.0034 46.6714H36.7624C36.9552 46.6655 37.147 46.7799 37.2248 46.9585ZM29.7639 55.4912C30.0444 55.5541 30.2603 55.8252 30.2574 56.1139C30.267 56.4295 30.0099 56.7262 29.6968 56.7582C29.4883 56.7873 29.2702 56.7057 29.1321 56.5465C28.9645 56.3618 28.925 56.0742 29.0307 55.8495C29.1486 55.5736 29.4753 55.4179 29.7639 55.4912ZM57.647 45.6942C57.9017 45.6944 58.1561 45.7635 58.3757 45.8933C58.7268 46.0964 58.9869 46.4536 59.0689 46.8524C59.1089 47.0182 59.1035 47.1883 59.098 47.3576C59.0965 47.4064 59.0949 47.4551 59.0944 47.5036C59.103 48.3545 59.1021 49.2055 59.1013 50.0566C59.1008 50.5029 59.1004 50.9492 59.1013 51.3956L59.1013 52.9955C59.1012 54.0622 59.1011 55.1288 59.1013 56.1955C59.1016 56.5145 58.9956 56.8339 58.7996 57.0855C58.5885 57.3638 58.2748 57.5619 57.933 57.6301C57.7469 57.6661 57.5576 57.663 57.3687 57.6599C57.2927 57.6586 57.2167 57.6574 57.141 57.6587C56.1913 57.6613 55.2416 57.6604 54.2919 57.6595H54.2889C53.2413 57.6586 52.1938 57.6576 51.1462 57.6613C51.1452 57.8897 51.1454 58.1182 51.1455 58.3466C51.1457 58.6093 51.1459 58.872 51.1443 59.1347L51.2121 59.1725C51.2127 59.2062 51.2124 59.24 51.212 59.2737V59.274C51.2115 59.3202 51.211 59.3663 51.2131 59.4124C51.2286 59.3368 51.226 59.2591 51.2234 59.1823L51.2227 59.1603L51.2879 59.1525C51.3118 59.1497 51.3357 59.1471 51.3595 59.1445L51.3218 59.2218C51.318 59.2297 51.3142 59.2375 51.3104 59.2454C51.3068 59.2529 51.3033 59.2604 51.2997 59.268C51.3257 59.2688 51.352 59.2679 51.3783 59.267C51.4334 59.2651 51.4886 59.2631 51.5417 59.2776C51.5329 59.3186 51.5122 59.3546 51.4793 59.385C51.4354 59.3827 51.3949 59.3659 51.3544 59.3492L51.3543 59.3492C51.3342 59.3409 51.3141 59.3326 51.2936 59.3261C51.3496 59.3557 51.4067 59.3844 51.4686 59.398C51.5217 59.3621 51.56 59.301 51.5746 59.24C51.555 59.2164 51.541 59.1892 51.527 59.1623L51.527 59.1622L51.5178 59.1445C51.6805 59.1449 51.843 59.1485 52.0056 59.152C52.1681 59.1555 52.3305 59.1591 52.493 59.1595C52.5592 59.1625 52.6263 59.1587 52.6934 59.1549C52.836 59.1468 52.9787 59.1387 53.1134 59.1954C53.3875 59.2973 53.5654 59.5873 53.55 59.8776C53.8873 59.8743 54.2248 59.8752 54.5621 59.876L54.7813 59.8765C54.7783 60.044 54.7787 60.2114 54.7792 60.3788V60.3793C54.7792 60.4126 54.7793 60.4459 54.7794 60.4792C54.7794 60.5169 54.7795 60.5546 54.7794 60.5923H46.0334L46.0335 60.397C46.0337 60.2235 46.0338 60.0501 46.0329 59.8768L46.2128 59.8762C46.538 59.8752 46.8633 59.8741 47.1884 59.8781C47.1874 59.7449 47.2089 59.6076 47.2787 59.4921C47.3921 59.2906 47.6134 59.1565 47.8442 59.1499C47.9759 59.1485 48.1076 59.1486 48.2394 59.1487C48.3648 59.1488 48.4903 59.1489 48.6157 59.1477C48.8151 59.1609 49.015 59.1598 49.2149 59.1586C49.3829 59.1577 49.5509 59.1567 49.7187 59.1643C49.7197 58.6618 49.7203 58.1593 49.7182 57.6565C48.6988 57.6602 47.6793 57.6597 46.6598 57.6592C45.6914 57.6587 44.723 57.6582 43.7547 57.6613C43.5542 57.6619 43.3505 57.6395 43.1624 57.5654C42.6998 57.3932 42.3383 56.9696 42.2469 56.482C42.217 56.3481 42.2174 56.2104 42.2177 56.0735L42.2177 56.007C42.218 54.8081 42.2179 53.6091 42.2179 52.4101C42.2179 50.97 42.2178 49.5298 42.2183 48.0896C42.2275 47.9771 42.2239 47.8646 42.2203 47.7521C42.2174 47.6601 42.2145 47.5682 42.2185 47.4762C42.2249 47.3994 42.2231 47.3221 42.2212 47.245C42.2183 47.1275 42.2154 47.0101 42.2419 46.8943C42.3378 46.3427 42.7768 45.8709 43.3191 45.7395C43.4885 45.6914 43.6641 45.6927 43.8387 45.6939C43.8817 45.6943 43.9246 45.6946 43.9674 45.6942H57.647ZM58.1287 47.3136C58.1308 47.1924 58.1329 47.0713 58.0831 46.9585C58.0052 46.7799 57.8135 46.6655 57.6207 46.6714H43.8617C43.8356 46.6719 43.8093 46.6716 43.7829 46.6712C43.6983 46.67 43.6132 46.6688 43.5324 46.6965C43.3597 46.7479 43.232 46.9052 43.1914 47.0779C43.1813 47.1996 43.1852 47.3216 43.1891 47.4436V47.4437V47.4437C43.1925 47.5528 43.196 47.6619 43.1895 47.771C43.1934 49.4917 43.1929 51.213 43.1923 52.9341L43.1921 53.729L43.1919 54.7666C48.1711 54.7672 53.1503 54.7674 58.1293 54.7666C58.1279 53.8195 58.1282 52.8724 58.1284 51.9253C58.1285 51.3578 58.1287 50.7902 58.1285 50.2227C58.1299 50.0114 58.1291 49.8001 58.1284 49.5887V49.5876C58.1272 49.2348 58.1259 48.8819 58.1346 48.5294C58.1959 48.5889 58.2549 48.5467 58.2621 48.4742C58.2626 48.4558 58.2613 48.4377 58.2605 48.4196C58.2585 48.3993 58.2485 48.3839 58.2385 48.3686C58.2296 48.3548 58.2207 48.3411 58.2177 48.3242L58.1298 48.35C58.1253 48.0847 58.1291 47.8195 58.1329 47.5545L58.1329 47.554L58.1335 47.509C58.1264 47.4447 58.1276 47.3791 58.1287 47.3136ZM51.1157 56.1139C51.1186 55.8252 50.9027 55.5541 50.6222 55.4912C50.3335 55.4179 50.0068 55.5736 49.8889 55.8495C49.7832 56.0742 49.8228 56.3618 49.9904 56.5465C50.1285 56.7057 50.3465 56.7873 50.555 56.7582C50.8681 56.7262 51.1252 56.4295 51.1157 56.1139Z" fill="url(#paint0_linear_807_1490)"/>
<defs>
<linearGradient id="paint0_linear_807_1490" x1="-24.9364" y1="-67.3702" x2="119.923" y2="30.1695" gradientUnits="userSpaceOnUse">
<stop offset="0.0677083" stop-color="#3D65AF"/>
<stop offset="0.354167" stop-color="#2372B8"/>
<stop offset="0.807292" stop-color="#00B8BB"/>
</linearGradient>
</defs>
</svg>
