<svg width="24" height="24" viewBox="0 0 24 24" fill="none" xmlns="http://www.w3.org/2000/svg">
<path d="M8.66286 9.94177H1.13242C0.847105 9.94177 0.573475 9.82843 0.371728 9.62668C0.16998 9.42493 0.0566406 9.1513 0.0566406 8.86599V1.33554C0.0566406 1.05023 0.16998 0.7766 0.371728 0.574853C0.573475 0.373105 0.847105 0.259766 1.13242 0.259766H8.66286C8.94818 0.259766 9.22181 0.373105 9.42356 0.574853C9.6253 0.7766 9.73864 1.05023 9.73864 1.33554V8.86599C9.73864 9.1513 9.6253 9.42493 9.42356 9.62668C9.22181 9.82843 8.94818 9.94177 8.66286 9.94177Z" fill="url(#paint0_linear_452_2871)"/>
<path d="M8.66286 23.9271H1.13242C0.847105 23.9271 0.573475 23.8138 0.371728 23.612C0.16998 23.4103 0.0566406 23.1367 0.0566406 22.8513V15.3209C0.0566406 15.0356 0.16998 14.762 0.371728 14.5602C0.573475 14.3585 0.847105 14.2451 1.13242 14.2451H8.66286C8.94818 14.2451 9.22181 14.3585 9.42356 14.5602C9.6253 14.762 9.73864 15.0356 9.73864 15.3209V22.8513C9.73864 23.1367 9.6253 23.4103 9.42356 23.612C9.22181 23.8138 8.94818 23.9271 8.66286 23.9271Z" fill="url(#paint1_linear_452_2871)"/>
<path d="M12.9658 1.33594H23.7236V3.48749H12.9658V1.33594Z" fill="url(#paint2_linear_452_2871)"/>
<path d="M23.7236 15.3203H12.9658V17.4719H23.7236V15.3203Z" fill="url(#paint3_linear_452_2871)"/>
<path d="M23.7236 20.6992H12.9658V22.8508H23.7236V20.6992Z" fill="url(#paint4_linear_452_2871)"/>
<path d="M23.7236 6.71387H12.9658V8.86542H23.7236V6.71387Z" fill="url(#paint5_linear_452_2871)"/>
<defs>
<linearGradient id="paint0_linear_452_2871" x1="-4.14588" y1="-10.7071" x2="19.4322" y2="5.54772" gradientUnits="userSpaceOnUse">
<stop offset="0.0677083" stop-color="#3D65AF"/>
<stop offset="0.354167" stop-color="#2372B8"/>
<stop offset="0.807292" stop-color="#00B8BB"/>
</linearGradient>
<linearGradient id="paint1_linear_452_2871" x1="-4.14588" y1="3.27823" x2="19.4322" y2="19.5331" gradientUnits="userSpaceOnUse">
<stop offset="0.0677083" stop-color="#3D65AF"/>
<stop offset="0.354167" stop-color="#2372B8"/>
<stop offset="0.807292" stop-color="#00B8BB"/>
</linearGradient>
<linearGradient id="paint2_linear_452_2871" x1="8.29635" y1="-1.10115" x2="11.2966" y2="9.24081" gradientUnits="userSpaceOnUse">
<stop offset="0.0677083" stop-color="#3D65AF"/>
<stop offset="0.354167" stop-color="#2372B8"/>
<stop offset="0.807292" stop-color="#00B8BB"/>
</linearGradient>
<linearGradient id="paint3_linear_452_2871" x1="8.29635" y1="12.8832" x2="11.2966" y2="23.2252" gradientUnits="userSpaceOnUse">
<stop offset="0.0677083" stop-color="#3D65AF"/>
<stop offset="0.354167" stop-color="#2372B8"/>
<stop offset="0.807292" stop-color="#00B8BB"/>
</linearGradient>
<linearGradient id="paint4_linear_452_2871" x1="8.29635" y1="18.2621" x2="11.2966" y2="28.6041" gradientUnits="userSpaceOnUse">
<stop offset="0.0677083" stop-color="#3D65AF"/>
<stop offset="0.354167" stop-color="#2372B8"/>
<stop offset="0.807292" stop-color="#00B8BB"/>
</linearGradient>
<linearGradient id="paint5_linear_452_2871" x1="8.29635" y1="4.27678" x2="11.2966" y2="14.6187" gradientUnits="userSpaceOnUse">
<stop offset="0.0677083" stop-color="#3D65AF"/>
<stop offset="0.354167" stop-color="#2372B8"/>
<stop offset="0.807292" stop-color="#00B8BB"/>
</linearGradient>
</defs>
</svg>
