<svg width="38" height="46" viewBox="0 0 38 46" fill="none" xmlns="http://www.w3.org/2000/svg">
<path fill-rule="evenodd" clip-rule="evenodd" d="M19.2958 0.489164C19.101 0.428091 18.8922 0.428091 18.6975 0.489164L0.757457 6.11416C0.340442 6.24492 0.0566406 6.63133 0.0566406 7.06836V18.3184C0.0566406 25.545 0.624283 30.6424 3.33169 34.8014C6.03473 38.9537 10.76 42.0039 18.5907 45.4823C18.8523 45.5985 19.1512 45.597 19.4117 45.4782C27.2361 41.9087 31.9586 38.8583 34.6601 34.7334C37.369 30.5971 37.9366 25.5453 37.9366 18.3184V7.06836C37.9366 6.63133 37.6528 6.24492 37.2358 6.11416L19.2958 0.489164ZM2.05664 18.3184V7.80282L18.9966 2.49136L35.9366 7.80282V18.3184C35.9366 25.5289 35.3434 30.0396 32.987 33.6377C30.6648 37.1834 26.525 40.0019 18.9912 43.4708C11.4648 40.0936 7.32827 37.2749 5.00783 33.7103C2.64982 30.088 2.05664 25.5292 2.05664 18.3184ZM19.3066 11.5684C16.5334 11.5684 14.4316 13.6701 14.4316 16.4434V17.5684H24.1816V16.4434C24.1816 13.6701 22.0799 11.5684 19.3066 11.5684ZM25.6816 17.5684V16.4434C25.6816 12.8416 22.9084 10.0684 19.3066 10.0684C15.7049 10.0684 12.9316 12.8416 12.9316 16.4434V17.5684H12.7441C12.2925 17.5684 11.8578 17.7222 11.5341 18.0458C11.2105 18.3695 11.0566 18.8042 11.0566 19.2559V28.6309C11.0566 29.0825 11.2105 29.5172 11.5341 29.8409C11.8578 30.1645 12.2925 30.3184 12.7441 30.3184H25.8691C26.3208 30.3184 26.7555 30.1645 27.0792 29.8409C27.4028 29.5172 27.5566 29.0825 27.5566 28.6309V19.2559C27.5566 18.8042 27.4028 18.3695 27.0792 18.0458C26.7555 17.7222 26.3208 17.5684 25.8691 17.5684H25.6816ZM13.6816 19.0684H12.7441C12.6333 19.0684 12.5993 19.102 12.5948 19.1065C12.5903 19.111 12.5566 19.145 12.5566 19.2559V28.6309C12.5566 28.7417 12.5903 28.7757 12.5948 28.7802C12.5993 28.7847 12.6333 28.8184 12.7441 28.8184H25.8691C25.98 28.8184 26.014 28.7847 26.0185 28.7802C26.023 28.7757 26.0566 28.7417 26.0566 28.6309V19.2559C26.0566 19.145 26.023 19.111 26.0185 19.1065C26.014 19.102 25.98 19.0684 25.8691 19.0684H24.9316H13.6816ZM19.3066 21.5684C18.5128 21.5684 17.8691 22.212 17.8691 23.0059C17.8691 23.6239 18.2593 24.1509 18.8066 24.354V25.8184C18.8066 26.0945 19.0305 26.3184 19.3066 26.3184C19.5828 26.3184 19.8066 26.0945 19.8066 25.8184V24.354C20.354 24.1509 20.7441 23.6239 20.7441 23.0059C20.7441 22.212 20.1005 21.5684 19.3066 21.5684ZM19.3066 23.4434C19.5482 23.4434 19.7441 23.2474 19.7441 23.0059C19.7441 22.7643 19.5482 22.5684 19.3066 22.5684C19.0651 22.5684 18.8691 22.7643 18.8691 23.0059C18.8691 23.2474 19.0651 23.4434 19.3066 23.4434Z" fill="url(#paint0_linear_807_1610)"/>
<defs>
<linearGradient id="paint0_linear_807_1610" x1="-16.3854" y1="-50.6701" x2="85.5616" y2="8.32838" gradientUnits="userSpaceOnUse">
<stop offset="0.0677083" stop-color="#3D65AF"/>
<stop offset="0.354167" stop-color="#2372B8"/>
<stop offset="0.807292" stop-color="#00B8BB"/>
</linearGradient>
</defs>
</svg>
