<svg width="47" height="47" viewBox="0 0 47 47" fill="none" xmlns="http://www.w3.org/2000/svg">
<path fill-rule="evenodd" clip-rule="evenodd" d="M27.4362 0H27.5236C27.7001 0.0373109 27.8739 0.0900921 28.0396 0.162894C30.6539 1.36608 33.2684 2.56874 35.8829 3.77141L35.8859 3.77279L35.8889 3.77416C39.2562 5.32313 42.6236 6.87211 45.9907 8.42225C46.3201 8.55329 46.5512 8.8627 46.5931 9.21487V23.2702C46.4975 26.3788 46.2873 29.5766 45.016 32.4605C43.8475 35.2497 41.8319 37.6075 39.5213 39.5249C39.2817 39.7088 39.046 39.8979 38.8102 40.0871L38.8102 40.0871C38.3036 40.4935 37.7969 40.9 37.2517 41.254C34.3305 43.317 31.1418 44.9678 27.9085 46.4811C27.7857 46.5285 27.6574 46.564 27.5291 46.5931H27.438C27.1293 46.5338 26.8488 46.3946 26.57 46.2562C26.5021 46.2224 26.4342 46.1887 26.366 46.1563C23.3657 44.7385 20.4318 43.1568 17.7117 41.2513C15.8862 39.9572 14.1454 38.5166 12.6902 36.8094C12.6496 36.7619 12.6067 36.7144 12.5633 36.6665C12.3512 36.4321 12.1287 36.1862 12.1151 35.8576C12.0887 35.5491 12.2516 35.2651 12.4764 35.0668C12.6912 34.9457 12.9432 34.862 13.1908 34.9193C13.4878 34.9683 13.6918 35.2004 13.8821 35.4169C13.9005 35.4378 13.9188 35.4585 13.937 35.479C14.9389 36.6848 16.1083 37.7431 17.3359 38.7141C19.1468 40.1328 21.1052 41.3523 23.1145 42.4689C23.115 41.4597 23.1148 40.4507 23.1145 39.4418V39.4335V39.4334V39.4333V39.4332C23.1143 38.4217 23.1141 37.4104 23.1145 36.399C22.7962 36.1883 22.4757 35.9804 22.1552 35.7724C21.7062 35.4811 21.257 35.1897 20.8131 34.8902C20.0796 35.4653 19.0977 35.7247 18.184 35.4972C17.0138 35.2415 16.0637 34.2241 15.8808 33.041C15.7133 32.0664 16.0637 31.0226 16.7872 30.3483C17.4187 29.7386 18.3287 29.4374 19.2005 29.5366C20.1615 29.633 21.0552 30.2264 21.522 31.0709C21.9188 31.7661 21.9888 32.6097 21.8014 33.3796C22.3329 33.7126 22.8581 34.0561 23.3835 34.3997L23.3835 34.3997L23.3836 34.3997L23.3836 34.3998C23.7325 34.6279 24.0814 34.8561 24.4322 35.0813C24.7335 35.256 24.9464 35.5818 24.9318 35.9376C24.9322 36.4832 24.9329 37.0289 24.9337 37.5747C24.9362 39.5249 24.9387 41.4758 24.9273 43.4262C25.2829 43.6124 25.6436 43.7891 26.0045 43.966L26.0048 43.9661C26.1943 44.059 26.3838 44.1519 26.5726 44.2461C26.5741 41.1648 26.5734 38.0836 26.5727 35.0025V35.0025V35.0024V35.0023C26.5716 30.2788 26.5706 25.5555 26.5772 20.8322C26.5426 20.268 27.1013 19.7647 27.6592 19.8994C28.1369 19.9759 28.4327 20.4673 28.3917 20.9296C28.3927 24.8158 28.3927 28.7018 28.3927 32.5879C28.3927 36.4739 28.3927 40.3599 28.3936 44.2461C30.8579 43.0367 33.2904 41.7463 35.5727 40.2147C36.854 39.332 38.1117 38.4056 39.241 37.3336C41.284 35.4735 42.9839 33.1575 43.8121 30.4984C44.6104 28.0839 44.6886 25.5201 44.7655 22.9994L44.773 22.7523C44.7709 21.0763 44.772 19.4002 44.773 17.7241V17.7216C44.7747 15.0996 44.7763 12.4776 44.7658 9.85553C41.2166 8.23221 37.6717 6.59992 34.1266 4.96759L34.1248 4.96677C31.9111 3.94749 29.6974 2.92819 27.4826 1.91104C25.2208 2.95014 22.9598 3.99106 20.6986 5.03199L20.6981 5.03223C17.1989 6.64314 13.6996 8.25406 10.1977 9.85826C10.1901 10.3333 10.1911 10.8083 10.1921 11.2833C10.1927 11.5517 10.1932 11.8202 10.1922 12.0887C12.0059 11.7839 13.9251 12.1224 15.504 13.0725C17.5334 14.26 18.9603 16.4031 19.2761 18.7328C21.3009 18.498 23.3748 19.8376 23.97 21.7895C24.3968 22.9744 24.2211 24.3331 23.5841 25.4087C22.8133 26.7592 21.289 27.6264 19.7365 27.6264C17.5833 27.6287 15.4297 27.6285 13.276 27.6282H13.2759H13.2759H13.2759C12.0454 27.6281 10.8149 27.6279 9.58434 27.6282C8.88229 27.6214 8.17985 27.6249 7.47736 27.6284H7.47731H7.47726H7.47721H7.47712C6.29753 27.6342 5.11779 27.6401 3.93948 27.5973C3.93857 29.8569 3.93857 32.1165 3.93948 34.377C4.6038 34.6145 5.21351 35.0258 5.58571 35.6382C6.24912 36.6393 6.22181 38.0398 5.5211 39.0144C4.80946 40.061 3.40894 40.5578 2.19679 40.1884C0.951882 39.8498 0.040951 38.6477 0 37.3646V37.1771C0.0482311 36.3899 0.377659 35.6228 0.951882 35.0777C1.26089 34.75 1.67994 34.5723 2.08644 34.3998L2.11671 34.387C2.11853 31.9099 2.12035 29.4328 2.1158 26.9566C0.87544 26.1931 0.0682516 24.8044 0 23.3511V23.0599C0.0509612 22.1599 0.328518 21.2617 0.87544 20.5374C1.55705 19.5946 2.62268 18.9657 3.76294 18.7646C3.87396 18.0612 4.04686 17.3641 4.33443 16.7116C5.10067 14.9071 6.58309 13.4319 8.37128 12.6384C8.37395 12.1691 8.37295 11.7001 8.37195 11.231V11.2308V11.2308V11.2308C8.37057 10.5783 8.36918 9.92586 8.37765 9.27312C8.37492 8.89819 8.63064 8.56239 8.9719 8.42316C12.2184 6.92827 15.4657 5.43472 18.7129 3.9412L18.7177 3.93899L18.7187 3.93854L18.7197 3.93809C21.4558 2.67963 24.192 1.42119 26.9275 0.161984C27.0913 0.0910021 27.2624 0.0382209 27.4362 0ZM9.75816 14.129C9.63072 14.2313 9.47564 14.2522 9.32006 14.2732C9.18234 14.2918 9.04423 14.3104 8.92458 14.3856C7.16096 15.2028 5.89148 16.9391 5.59208 18.8547C6.39017 19.0932 7.1737 19.5008 7.7097 20.1524C8.09373 20.6575 7.73973 21.4719 7.11273 21.5466C6.71323 21.6348 6.38107 21.3582 6.10169 21.1161C5.21897 20.3745 3.84029 20.3472 2.91935 21.0379C2.07212 21.6312 1.65169 22.7533 1.89466 23.7588C2.14492 24.9209 3.25788 25.8109 4.44727 25.8018C7.39442 25.8099 10.3419 25.8087 13.2893 25.8076H13.2893H13.2893H13.2894C15.322 25.8068 17.3546 25.806 19.3871 25.8082C19.8121 25.8109 20.248 25.7918 20.6511 25.6398C21.5921 25.305 22.2946 24.3922 22.3674 23.3948C22.4566 22.4894 22.0262 21.562 21.2872 21.036C20.6193 20.5455 19.7111 20.4036 18.9257 20.6684C18.1904 20.9041 17.5834 21.4892 17.3013 22.2063C17.1703 22.5631 16.8636 22.8734 16.4659 22.8925C15.8735 22.9516 15.3439 22.3219 15.535 21.7495C15.8462 20.7221 16.5961 19.863 17.5061 19.3116C17.3787 17.7955 16.6598 16.3376 15.5177 15.3293C14.2382 14.1663 12.4391 13.6139 10.7273 13.8551C10.641 13.8736 10.552 13.8867 10.4626 13.8999C10.2136 13.9365 9.96173 13.9736 9.75816 14.129ZM18.609 31.3593C17.9857 31.4849 17.5407 32.152 17.6772 32.7753C17.7827 33.3878 18.4088 33.8482 19.0267 33.7509C19.6756 33.6872 20.1788 33.0301 20.0742 32.3877C20.0077 31.7033 19.2752 31.1919 18.609 31.3593ZM2.77738 36.0914C2.15402 36.2161 1.70811 36.8859 1.84552 37.5093C1.95291 38.1208 2.57809 38.5803 3.19508 38.483C3.84393 38.4193 4.34808 37.7613 4.24252 37.1179C4.17518 36.4345 3.44352 35.924 2.77738 36.0914ZM26.7972 8.98101C27.7655 8.79263 28.812 9.02105 29.5882 9.63622C30.3517 10.2195 30.8577 11.1387 30.9178 12.0997C31.0151 13.1589 30.5656 14.2428 29.7684 14.9426C29.0804 15.5614 28.1295 15.8808 27.2076 15.798C26.3122 15.7343 25.4504 15.2938 24.8716 14.6086C24.2337 13.8824 23.9324 12.8732 24.0671 11.9158C24.2282 10.4853 25.3903 9.25766 26.7972 8.98101ZM27.0629 10.7847C26.4223 10.9467 25.9236 11.5327 25.8599 12.1897C25.778 12.8513 26.1565 13.5357 26.7553 13.8251C27.3013 14.1081 28.003 14.0344 28.4835 13.6531C29.0067 13.259 29.2433 12.5346 29.0522 11.9076C28.8302 11.0777 27.8892 10.5435 27.0629 10.7847ZM38.4983 16.0365C37.6865 15.9537 36.8457 16.2221 36.2332 16.7599C35.5161 17.366 35.1439 18.3152 35.1831 19.2461C33.6469 20.0205 32.1108 20.7959 30.5765 21.574C30.2316 21.7287 30.0132 22.0972 30.0342 22.474C30.0319 24.2333 30.0323 25.9926 30.0328 27.752V27.7521V27.7521C30.0333 29.5119 30.0337 31.2719 30.0314 33.032C30.0323 33.3096 30.0433 33.6163 30.2271 33.8429C30.5028 34.2314 31.1034 34.3124 31.4775 34.0194C31.7641 33.8228 31.8624 33.4579 31.8542 33.1267C31.8549 31.9241 31.8542 30.7215 31.8536 29.519C31.8525 27.3326 31.8514 25.1463 31.8578 22.9599C32.6422 22.5696 33.4236 22.174 34.2051 21.7784L34.2052 21.7783C34.7502 21.5024 35.2951 21.2265 35.841 20.9524C36.499 21.7405 37.5509 22.1955 38.5774 22.0554C39.7295 21.9334 40.7588 21.0789 41.0982 19.9723C41.3548 19.1815 41.2666 18.2833 40.8516 17.5617C40.3784 16.7099 39.4711 16.1147 38.4983 16.0365ZM37.0031 19.1924C36.9167 18.5864 37.3589 17.9785 37.9541 17.8565C38.6703 17.6782 39.4492 18.2824 39.4301 19.0259C39.4684 19.6866 38.8768 20.2826 38.2198 20.2708C37.6174 20.2854 37.0595 19.793 37.0031 19.1924ZM27.398 16.7607C27.9422 16.6907 28.4609 17.2094 28.3753 17.7554C28.3371 18.2495 27.8275 18.6317 27.3443 18.5398C26.9648 18.488 26.6463 18.1676 26.5962 17.7882C26.5061 17.2986 26.9011 16.7944 27.398 16.7607ZM9.94541 29.5585C9.61507 29.3173 9.1455 29.1972 8.78695 29.4502C8.30464 29.7314 8.22911 30.4776 8.6459 30.8498C9.01173 31.2284 9.6997 31.1701 9.99546 30.7333C10.1548 30.5542 10.1415 30.3227 10.1285 30.0963C10.1242 30.0213 10.1199 29.9469 10.122 29.8752C10.0962 29.8249 10.0677 29.7765 10.0393 29.7281C10.0064 29.6722 9.9737 29.6165 9.94541 29.5585Z" fill="url(#paint0_linear_614_551)"/>
<defs>
<linearGradient id="paint0_linear_614_551" x1="-2.43314" y1="-2.36916" x2="58.7859" y2="16.8387" gradientUnits="userSpaceOnUse">
<stop offset="0.244792" stop-color="#4E5CA8"/>
<stop offset="1" stop-color="#1FC3F3"/>
</linearGradient>
</defs>
</svg>
