<svg width="145" height="40" viewBox="0 0 145 40" fill="none" xmlns="http://www.w3.org/2000/svg">
<rect x="0.361865" y="0.855518" width="144.438" height="38.6636" rx="5.8" fill="#282E38" stroke="#282E38" stroke-width="0.4"/>
<path d="M83.6996 14.6087C83.8303 13.9926 84.4505 13.5322 85.0792 13.5939C85.7091 13.629 86.2567 14.1775 86.2901 14.8078C86.301 15.2811 86.293 15.7549 86.2939 16.2283C85.8597 16.2308 85.4256 16.2291 84.9915 16.2295C84.5908 16.2358 84.1947 16.0446 83.9484 15.729C83.7004 15.4193 83.6078 14.9944 83.6996 14.6087Z" fill="#36C5F0"/>
<path d="M81.3333 17.1166C82.5392 17.0982 83.7464 17.1141 84.9531 17.1087C85.3852 17.097 85.8126 17.3157 86.0568 17.6718C86.3519 18.0837 86.3732 18.6681 86.1111 19.1018C85.884 19.4921 85.4453 19.7492 84.9924 19.7484C83.824 19.7497 82.6557 19.7488 81.4873 19.7488C81.0929 19.7547 80.7026 19.5706 80.4559 19.2634C80.1946 18.947 80.0981 18.5058 80.1987 18.1084C80.3219 17.5845 80.7961 17.1663 81.3333 17.1166Z" fill="#36C5F0"/>
<path d="M88.1814 13.6252C88.727 13.4866 89.3385 13.7496 89.6169 14.2376C89.7426 14.4471 89.8027 14.6917 89.7998 14.9355C89.7989 16.1047 89.8006 17.2734 89.7989 18.4426C89.7993 18.8429 89.6023 19.2353 89.2838 19.477C88.8852 19.7913 88.2991 19.8372 87.8563 19.5885C87.443 19.3668 87.17 18.9118 87.1704 18.4426C87.1692 17.2593 87.1692 16.0759 87.1709 14.8925C87.1667 14.3039 87.6075 13.7521 88.1814 13.6252Z" fill="#2EB67D"/>
<path d="M91.1938 17.3782C91.6596 17.0084 92.3767 17.023 92.8275 17.4108C93.2846 17.7773 93.437 18.461 93.1819 18.9878C92.977 19.4382 92.5011 19.7491 92.0052 19.7479C91.5623 19.7487 91.1195 19.7516 90.6766 19.7462C90.6749 19.2971 90.6745 18.8479 90.6766 18.3988C90.6812 18.0031 90.8786 17.6166 91.1938 17.3782Z" fill="#2EB67D"/>
<path d="M104.326 13.8388C105.072 13.8309 105.819 13.8267 106.565 13.8409C106.566 17.5017 106.566 21.1628 106.565 24.8236C105.819 24.8299 105.072 24.8282 104.326 24.8244C104.324 21.1628 104.324 17.5008 104.326 13.8388Z" fill="#FAFBFC"/>
<path d="M125.399 13.8371C125.956 13.8263 126.513 13.8359 127.07 13.8329C127.259 13.8363 127.45 13.8183 127.639 13.848C127.636 15.1286 127.638 16.4097 127.638 17.6903C127.643 18.5481 127.627 19.4063 127.645 20.2641C127.876 20.0362 128.066 19.7707 128.279 19.5269C128.887 18.7981 129.495 18.0706 130.101 17.3413C130.166 17.2332 130.302 17.2675 130.408 17.2608C131.235 17.2687 132.063 17.2529 132.89 17.2687C132.714 17.5137 132.501 17.73 132.309 17.9629C131.469 18.9455 130.624 19.9243 129.787 20.909C130.319 21.5539 130.878 22.1776 131.421 22.8145C131.992 23.4857 132.581 24.1428 133.143 24.8227C132.193 24.829 131.243 24.8294 130.293 24.8227C129.727 24.134 129.173 23.4348 128.612 22.7423C128.287 22.3499 127.982 21.9405 127.646 21.5585C127.627 22.6455 127.642 23.7337 127.638 24.8215C126.892 24.8319 126.146 24.8261 125.4 24.8244C125.394 21.162 125.395 17.4995 125.399 13.8371Z" fill="#FAFBFC"/>
<path d="M98.4449 17.4487C99.023 17.1694 99.6771 17.0801 100.314 17.1151C101.227 17.1552 102.159 17.3961 102.893 17.96C102.806 18.2656 102.665 18.5532 102.557 18.8524C102.467 19.0691 102.399 19.2957 102.289 19.504C101.596 19.0745 100.802 18.7706 99.9785 18.7577C99.6943 18.7544 99.3845 18.809 99.1716 19.0123C99.0189 19.1526 98.9638 19.4055 99.0902 19.58C99.2326 19.7737 99.4684 19.8626 99.6855 19.944C100.408 20.1873 101.172 20.3122 101.863 20.6469C102.286 20.8481 102.685 21.1407 102.918 21.5565C103.227 22.1087 103.229 22.8 103 23.3814C102.789 23.9187 102.356 24.3498 101.845 24.6086C101.26 24.9113 100.587 25.0056 99.9339 24.9764C98.8377 24.9413 97.7161 24.6725 96.8132 24.0268C97.0157 23.5238 97.2373 23.0279 97.4481 22.5282C97.6155 22.6171 97.7679 22.7311 97.9365 22.8179C98.5885 23.1602 99.3294 23.3259 100.065 23.3146C100.363 23.3055 100.682 23.2516 100.917 23.0538C101.101 22.9043 101.177 22.605 101.019 22.4114C100.86 22.2248 100.614 22.1513 100.388 22.082C99.6308 21.8754 98.8314 21.7861 98.1256 21.4225C97.6957 21.2067 97.3171 20.8556 97.1472 20.3977C96.9397 19.835 96.9631 19.1876 97.2173 18.6437C97.4632 18.1124 97.9206 17.6983 98.4449 17.4487Z" fill="#FAFBFC"/>
<path d="M109.633 17.5342C110.258 17.1756 111.005 17.0358 111.718 17.1443C112.39 17.2436 113.053 17.5617 113.461 18.1215C113.472 17.8364 113.459 17.5517 113.467 17.2666C114.213 17.2603 114.959 17.2574 115.705 17.2683C115.708 19.7865 115.706 22.3048 115.705 24.8231C114.959 24.8294 114.213 24.8277 113.467 24.8239C113.46 24.5401 113.472 24.2558 113.46 23.9716C113.199 24.3114 112.853 24.5823 112.454 24.74C111.67 25.0673 110.757 25.0577 109.978 24.7229C109.293 24.4324 108.72 23.9056 108.337 23.2716C107.629 22.1057 107.537 20.6001 108.061 19.3453C108.374 18.5956 108.922 17.9357 109.633 17.5342ZM111.475 19.1813C110.939 19.2485 110.443 19.5632 110.15 20.017C109.859 20.4577 109.771 21.0233 109.91 21.5326C110.05 22.0669 110.44 22.5286 110.944 22.7548C111.79 23.1443 112.882 22.8274 113.412 22.0677C113.476 21.9868 113.464 21.8786 113.467 21.7822C113.464 21.2938 113.465 20.8059 113.467 20.3179C113.465 20.2227 113.47 20.1188 113.407 20.0407C112.987 19.4276 112.21 19.0869 111.475 19.1813Z" fill="#FAFBFC"/>
<path d="M117.355 19.2472C117.952 18.0593 119.187 17.2211 120.515 17.1222C121.71 17.0128 122.938 17.4983 123.739 18.3911C123.939 18.6123 124.117 18.8549 124.261 19.1166C123.675 19.4622 123.075 19.7857 122.479 20.113C122.243 19.7381 121.9 19.4217 121.476 19.2765C120.995 19.0999 120.441 19.1366 119.987 19.3746C119.563 19.5916 119.231 19.9773 119.076 20.4273C118.897 20.9365 118.953 21.5213 119.226 21.9872C119.509 22.4826 120.03 22.8349 120.596 22.9063C121.112 22.9785 121.654 22.8187 122.05 22.481C122.223 22.3407 122.35 22.1571 122.479 21.9776C123.078 22.2961 123.667 22.635 124.262 22.9631C123.636 24.1264 122.376 24.9137 121.058 24.9742C119.924 25.0443 118.775 24.5831 118 23.7537C117.465 23.1898 117.103 22.4639 116.977 21.6967C116.838 20.8677 116.969 19.9948 117.355 19.2472Z" fill="#FAFBFC"/>
<path d="M80.1691 21.7894C80.2305 21.1721 80.7819 20.6495 81.4034 20.6303C81.8634 20.6227 82.3238 20.629 82.7838 20.6273C82.7968 21.0673 82.7867 21.5081 82.7892 21.9489C82.7926 22.3605 82.5885 22.7654 82.2562 23.0087C81.8467 23.3205 81.2498 23.3527 80.8094 23.0859C80.364 22.8305 80.1011 22.2987 80.1691 21.7894Z" fill="#E01E5A"/>
<path d="M84.6334 20.6736C85.1423 20.5275 85.7241 20.7296 86.0343 21.1583C86.2134 21.3949 86.3018 21.6934 86.2952 21.9893C86.2939 23.1585 86.2973 24.3277 86.2939 25.4965C86.2939 26.1126 85.8022 26.6795 85.1932 26.7688C84.8204 26.8318 84.423 26.7237 84.1354 26.4783C83.837 26.2299 83.66 25.8446 83.6654 25.4564C83.6663 24.2726 83.6638 23.0892 83.6667 21.9054C83.6729 21.3411 84.0874 20.8151 84.6334 20.6736Z" fill="#E01E5A"/>
<path d="M88.3081 20.6397C88.455 20.6213 88.6028 20.628 88.7501 20.6272C89.7382 20.6276 90.7258 20.6272 91.7134 20.6272C91.915 20.628 92.1204 20.6155 92.317 20.6689C92.7365 20.7737 93.0909 21.1005 93.2311 21.5096C93.409 22.0009 93.2595 22.5886 92.8655 22.9326C92.6225 23.153 92.2944 23.2736 91.9668 23.2678C90.7834 23.2657 89.6 23.2715 88.4166 23.2648C87.7534 23.2465 87.1765 22.6542 87.1711 21.9917C87.1339 21.3372 87.6565 20.7136 88.3081 20.6397Z" fill="#ECB22E"/>
<path d="M87.1706 24.1484C87.6135 24.1447 88.0568 24.1468 88.5001 24.1472C88.8812 24.1484 89.2556 24.3288 89.4969 24.6235C89.9018 25.0939 89.8984 25.8511 89.4898 26.3182C89.1162 26.7778 88.4179 26.9218 87.8936 26.6454C87.4661 26.4338 87.1756 25.9751 87.171 25.4975C87.1685 25.048 87.1702 24.598 87.1706 24.1484Z" fill="#ECB22E"/>
<path d="M16.561 24.3075C15.689 24.3075 14.965 24.0955 14.389 23.6715C13.821 23.2395 13.521 22.6075 13.489 21.7755C13.489 21.7035 13.513 21.6435 13.561 21.5955C13.609 21.5395 13.669 21.5115 13.741 21.5115H14.353C14.529 21.5115 14.629 21.6035 14.653 21.7875C14.701 22.3075 14.901 22.6915 15.253 22.9395C15.605 23.1875 16.045 23.3115 16.573 23.3115C17.181 23.3115 17.649 23.1115 17.977 22.7115C18.313 22.3115 18.481 21.7715 18.481 21.0915V16.7955H14.197C14.117 16.7955 14.049 16.7715 13.993 16.7235C13.945 16.6675 13.921 16.5995 13.921 16.5195V16.0635C13.921 15.9835 13.945 15.9195 13.993 15.8715C14.049 15.8155 14.117 15.7875 14.197 15.7875H19.345C19.433 15.7875 19.501 15.8155 19.549 15.8715C19.605 15.9195 19.633 15.9875 19.633 16.0755V21.1155C19.633 21.7555 19.509 22.3155 19.261 22.7955C19.021 23.2755 18.669 23.6475 18.205 23.9115C17.741 24.1755 17.193 24.3075 16.561 24.3075ZM24.035 24.3075C23.155 24.3075 22.475 24.0595 21.995 23.5635C21.523 23.0675 21.271 22.4075 21.239 21.5835L21.227 21.0675L21.239 20.5515C21.271 19.7275 21.527 19.0675 22.007 18.5715C22.495 18.0755 23.171 17.8275 24.035 17.8275C24.899 17.8275 25.571 18.0755 26.051 18.5715C26.539 19.0675 26.799 19.7275 26.831 20.5515C26.847 20.7275 26.855 20.8995 26.855 21.0675C26.855 21.2355 26.847 21.4075 26.831 21.5835C26.799 22.4075 26.543 23.0675 26.063 23.5635C25.591 24.0595 24.915 24.3075 24.035 24.3075ZM24.035 23.4075C24.547 23.4075 24.951 23.2475 25.247 22.9275C25.551 22.5995 25.715 22.1315 25.739 21.5235C25.747 21.4435 25.751 21.2915 25.751 21.0675C25.751 20.8435 25.747 20.6915 25.739 20.6115C25.715 20.0035 25.551 19.5395 25.247 19.2195C24.951 18.8915 24.547 18.7275 24.035 18.7275C23.523 18.7275 23.115 18.8915 22.811 19.2195C22.515 19.5395 22.355 20.0035 22.331 20.6115L22.319 21.0675L22.331 21.5235C22.355 22.1315 22.515 22.5995 22.811 22.9275C23.115 23.2475 23.523 23.4075 24.035 23.4075ZM28.5502 16.7715C28.4702 16.7715 28.4022 16.7475 28.3462 16.6995C28.2982 16.6435 28.2742 16.5755 28.2742 16.4955V15.8715C28.2742 15.7915 28.2982 15.7235 28.3462 15.6675C28.4022 15.6115 28.4702 15.5835 28.5502 15.5835H29.2582C29.3382 15.5835 29.4062 15.6115 29.4622 15.6675C29.5182 15.7235 29.5462 15.7915 29.5462 15.8715V16.4955C29.5462 16.5755 29.5182 16.6435 29.4622 16.6995C29.4062 16.7475 29.3382 16.7715 29.2582 16.7715H28.5502ZM28.6462 24.1875C28.5662 24.1875 28.4982 24.1635 28.4422 24.1155C28.3942 24.0595 28.3702 23.9915 28.3702 23.9115V18.2235C28.3702 18.1435 28.3942 18.0795 28.4422 18.0315C28.4982 17.9755 28.5662 17.9475 28.6462 17.9475H29.1742C29.2542 17.9475 29.3182 17.9755 29.3662 18.0315C29.4222 18.0795 29.4502 18.1435 29.4502 18.2235V23.9115C29.4502 23.9915 29.4222 24.0595 29.3662 24.1155C29.3182 24.1635 29.2542 24.1875 29.1742 24.1875H28.6462ZM31.529 24.1875C31.449 24.1875 31.381 24.1635 31.325 24.1155C31.277 24.0595 31.253 23.9915 31.253 23.9115V18.2235C31.253 18.1435 31.277 18.0795 31.325 18.0315C31.381 17.9755 31.449 17.9475 31.529 17.9475H32.045C32.133 17.9475 32.201 17.9715 32.249 18.0195C32.297 18.0675 32.321 18.1355 32.321 18.2235V18.7515C32.561 18.4555 32.837 18.2275 33.149 18.0675C33.469 17.9075 33.865 17.8275 34.337 17.8275C35.105 17.8275 35.701 18.0755 36.125 18.5715C36.549 19.0595 36.761 19.7075 36.761 20.5155V23.9115C36.761 23.9915 36.733 24.0595 36.677 24.1155C36.629 24.1635 36.565 24.1875 36.485 24.1875H35.933C35.853 24.1875 35.785 24.1635 35.729 24.1155C35.681 24.0595 35.657 23.9915 35.657 23.9115V20.5875C35.657 20.0115 35.517 19.5635 35.237 19.2435C34.957 18.9235 34.557 18.7635 34.037 18.7635C33.525 18.7635 33.117 18.9275 32.813 19.2555C32.509 19.5755 32.357 20.0195 32.357 20.5875V23.9115C32.357 23.9915 32.329 24.0595 32.273 24.1155C32.225 24.1635 32.161 24.1875 32.081 24.1875H31.529ZM43.7763 24.3075C43.0163 24.3075 42.4283 24.0635 42.0123 23.5755C41.5963 23.0795 41.3883 22.4235 41.3883 21.6075V18.2235C41.3883 18.1435 41.4123 18.0795 41.4603 18.0315C41.5163 17.9755 41.5843 17.9475 41.6643 17.9475H42.2163C42.2963 17.9475 42.3603 17.9755 42.4083 18.0315C42.4643 18.0795 42.4923 18.1435 42.4923 18.2235V21.5475C42.4923 22.7635 43.0203 23.3715 44.0763 23.3715C44.5883 23.3715 44.9923 23.2115 45.2883 22.8915C45.5923 22.5635 45.7443 22.1155 45.7443 21.5475V18.2235C45.7443 18.1435 45.7683 18.0795 45.8163 18.0315C45.8723 17.9755 45.9403 17.9475 46.0203 17.9475H46.5723C46.6523 17.9475 46.7163 17.9755 46.7643 18.0315C46.8203 18.0795 46.8483 18.1435 46.8483 18.2235V23.9115C46.8483 23.9915 46.8203 24.0595 46.7643 24.1155C46.7163 24.1635 46.6523 24.1875 46.5723 24.1875H46.0563C45.9763 24.1875 45.9083 24.1635 45.8523 24.1155C45.8043 24.0595 45.7803 23.9915 45.7803 23.9115V23.3715C45.5483 23.6835 45.2763 23.9195 44.9643 24.0795C44.6523 24.2315 44.2563 24.3075 43.7763 24.3075ZM50.7797 24.3075C50.2277 24.3075 49.7597 24.2195 49.3757 24.0435C48.9997 23.8595 48.7197 23.6515 48.5357 23.4195C48.3517 23.1875 48.2597 22.9955 48.2597 22.8435C48.2597 22.7635 48.2877 22.7035 48.3437 22.6635C48.3997 22.6155 48.4597 22.5915 48.5237 22.5915H49.0277C49.0757 22.5915 49.1117 22.5995 49.1357 22.6155C49.1677 22.6315 49.2077 22.6675 49.2557 22.7235C49.4397 22.9475 49.6437 23.1235 49.8677 23.2515C50.0997 23.3795 50.4077 23.4435 50.7917 23.4435C51.2237 23.4435 51.5677 23.3635 51.8237 23.2035C52.0877 23.0435 52.2197 22.8115 52.2197 22.5075C52.2197 22.3075 52.1637 22.1475 52.0517 22.0275C51.9397 21.9075 51.7517 21.7995 51.4877 21.7035C51.2317 21.6075 50.8477 21.5035 50.3357 21.3915C49.6397 21.2395 49.1477 21.0195 48.8597 20.7315C48.5717 20.4435 48.4277 20.0715 48.4277 19.6155C48.4277 19.3195 48.5157 19.0355 48.6917 18.7635C48.8677 18.4835 49.1277 18.2595 49.4717 18.0915C49.8237 17.9155 50.2397 17.8275 50.7197 17.8275C51.2237 17.8275 51.6517 17.9115 52.0037 18.0795C52.3637 18.2475 52.6317 18.4435 52.8077 18.6675C52.9917 18.8915 53.0837 19.0795 53.0837 19.2315C53.0837 19.3035 53.0557 19.3635 52.9997 19.4115C52.9517 19.4595 52.8917 19.4835 52.8197 19.4835H52.3637C52.2517 19.4835 52.1717 19.4395 52.1237 19.3515C51.9877 19.1995 51.8717 19.0835 51.7757 19.0035C51.6877 18.9155 51.5557 18.8435 51.3797 18.7875C51.2037 18.7235 50.9837 18.6915 50.7197 18.6915C50.3277 18.6915 50.0277 18.7755 49.8197 18.9435C49.6117 19.1035 49.5077 19.3195 49.5077 19.5915C49.5077 19.7595 49.5517 19.9035 49.6397 20.0235C49.7277 20.1355 49.8957 20.2435 50.1437 20.3475C50.3917 20.4435 50.7597 20.5435 51.2477 20.6475C52.0077 20.8075 52.5437 21.0355 52.8557 21.3315C53.1757 21.6275 53.3357 22.0075 53.3357 22.4715C53.3357 22.8155 53.2357 23.1275 53.0357 23.4075C52.8437 23.6875 52.5517 23.9075 52.1597 24.0675C51.7757 24.2275 51.3157 24.3075 50.7797 24.3075ZM60.2225 24.3075C59.3425 24.3075 58.6625 24.0595 58.1825 23.5635C57.7105 23.0675 57.4585 22.4075 57.4265 21.5835L57.4145 21.0675L57.4265 20.5515C57.4585 19.7275 57.7145 19.0675 58.1945 18.5715C58.6825 18.0755 59.3585 17.8275 60.2225 17.8275C61.0865 17.8275 61.7585 18.0755 62.2385 18.5715C62.7265 19.0675 62.9865 19.7275 63.0185 20.5515C63.0345 20.7275 63.0425 20.8995 63.0425 21.0675C63.0425 21.2355 63.0345 21.4075 63.0185 21.5835C62.9865 22.4075 62.7305 23.0675 62.2505 23.5635C61.7785 24.0595 61.1025 24.3075 60.2225 24.3075ZM60.2225 23.4075C60.7345 23.4075 61.1385 23.2475 61.4345 22.9275C61.7385 22.5995 61.9025 22.1315 61.9265 21.5235C61.9345 21.4435 61.9385 21.2915 61.9385 21.0675C61.9385 20.8435 61.9345 20.6915 61.9265 20.6115C61.9025 20.0035 61.7385 19.5395 61.4345 19.2195C61.1385 18.8915 60.7345 18.7275 60.2225 18.7275C59.7105 18.7275 59.3025 18.8915 58.9985 19.2195C58.7025 19.5395 58.5425 20.0035 58.5185 20.6115L58.5065 21.0675L58.5185 21.5235C58.5425 22.1315 58.7025 22.5995 58.9985 22.9275C59.3025 23.2475 59.7105 23.4075 60.2225 23.4075ZM64.8337 24.1875C64.7537 24.1875 64.6857 24.1635 64.6297 24.1155C64.5817 24.0595 64.5577 23.9915 64.5577 23.9115V18.2235C64.5577 18.1435 64.5817 18.0795 64.6297 18.0315C64.6857 17.9755 64.7537 17.9475 64.8337 17.9475H65.3497C65.4377 17.9475 65.5057 17.9715 65.5537 18.0195C65.6017 18.0675 65.6257 18.1355 65.6257 18.2235V18.7515C65.8657 18.4555 66.1417 18.2275 66.4537 18.0675C66.7737 17.9075 67.1697 17.8275 67.6417 17.8275C68.4097 17.8275 69.0057 18.0755 69.4297 18.5715C69.8537 19.0595 70.0657 19.7075 70.0657 20.5155V23.9115C70.0657 23.9915 70.0377 24.0595 69.9817 24.1155C69.9337 24.1635 69.8697 24.1875 69.7897 24.1875H69.2377C69.1577 24.1875 69.0897 24.1635 69.0337 24.1155C68.9857 24.0595 68.9617 23.9915 68.9617 23.9115V20.5875C68.9617 20.0115 68.8217 19.5635 68.5417 19.2435C68.2617 18.9235 67.8617 18.7635 67.3417 18.7635C66.8297 18.7635 66.4217 18.9275 66.1177 19.2555C65.8137 19.5755 65.6617 20.0195 65.6617 20.5875V23.9115C65.6617 23.9915 65.6337 24.0595 65.5777 24.1155C65.5297 24.1635 65.4657 24.1875 65.3857 24.1875H64.8337Z" fill="#FAFBFC"/>
</svg>
