<svg width="146" height="40" viewBox="0 0 146 40" fill="none" xmlns="http://www.w3.org/2000/svg">
<rect x="0.768115" y="0.855518" width="144.438" height="38.6636" rx="5.8" fill="#FAFBFC" stroke="#282E38" stroke-width="0.4"/>
<path d="M84.1058 14.6087C84.2364 13.9926 84.8567 13.5322 85.4854 13.5939C86.1152 13.629 86.6629 14.1775 86.6963 14.8078C86.7071 15.2811 86.6992 15.7549 86.7 16.2283C86.2659 16.2308 85.8318 16.2291 85.3977 16.2295C84.997 16.2358 84.6008 16.0446 84.3546 15.729C84.1066 15.4193 84.014 14.9944 84.1058 14.6087Z" fill="#36C5F0"/>
<path d="M81.7395 17.1166C82.9455 17.0982 84.1526 17.1141 85.3594 17.1087C85.7914 17.097 86.2189 17.3157 86.463 17.6718C86.7582 18.0837 86.7794 18.6681 86.5173 19.1018C86.2902 19.4921 85.8515 19.7492 85.3986 19.7484C84.2303 19.7497 83.0619 19.7488 81.8936 19.7488C81.4991 19.7547 81.1088 19.5706 80.8621 19.2634C80.6008 18.947 80.5044 18.5058 80.605 18.1084C80.7281 17.5845 81.2023 17.1663 81.7395 17.1166Z" fill="#36C5F0"/>
<path d="M88.5876 13.6252C89.1331 13.4866 89.7446 13.7496 90.0231 14.2376C90.1487 14.4471 90.2088 14.6917 90.2059 14.9355C90.2051 16.1047 90.2067 17.2734 90.2051 18.4426C90.2055 18.8429 90.0085 19.2353 89.69 19.477C89.2913 19.7913 88.7053 19.8372 88.2624 19.5885C87.8492 19.3668 87.5762 18.9118 87.5766 18.4426C87.5753 17.2593 87.5753 16.0759 87.577 14.8925C87.5728 14.3039 88.0136 13.7521 88.5876 13.6252Z" fill="#2EB67D"/>
<path d="M91.5999 17.3782C92.0657 17.0084 92.7829 17.023 93.2337 17.4108C93.6907 17.7773 93.8431 18.461 93.5881 18.9878C93.3831 19.4382 92.9072 19.7491 92.4114 19.7479C91.9685 19.7487 91.5256 19.7516 91.0827 19.7462C91.081 19.2971 91.0806 18.8479 91.0827 18.3988C91.0873 18.0031 91.2847 17.6166 91.5999 17.3782Z" fill="#2EB67D"/>
<path d="M104.732 13.8388C105.478 13.8309 106.225 13.8267 106.971 13.8409C106.972 17.5017 106.972 21.1628 106.971 24.8236C106.225 24.8299 105.478 24.8282 104.732 24.8244C104.73 21.1628 104.73 17.5008 104.732 13.8388Z" fill="#282E38"/>
<path d="M125.805 13.8371C126.362 13.8263 126.919 13.8359 127.476 13.8329C127.665 13.8363 127.857 13.8183 128.045 13.848C128.042 15.1286 128.044 16.4097 128.044 17.6903C128.049 18.5481 128.033 19.4063 128.051 20.2641C128.283 20.0362 128.472 19.7707 128.686 19.5269C129.293 18.7981 129.901 18.0706 130.508 17.3413C130.573 17.2332 130.708 17.2675 130.814 17.2608C131.642 17.2687 132.469 17.2529 133.296 17.2687C133.12 17.5137 132.907 17.73 132.716 17.9629C131.875 18.9455 131.031 19.9243 130.193 20.909C130.725 21.5539 131.284 22.1776 131.827 22.8145C132.398 23.4857 132.987 24.1428 133.549 24.8227C132.599 24.829 131.649 24.8294 130.7 24.8227C130.133 24.134 129.579 23.4348 129.018 22.7423C128.693 22.3499 128.388 21.9405 128.052 21.5585C128.034 22.6455 128.048 23.7337 128.044 24.8215C127.298 24.8319 126.552 24.8261 125.806 24.8244C125.8 21.162 125.802 17.4995 125.805 13.8371Z" fill="#282E38"/>
<path d="M98.8512 17.4487C99.4293 17.1694 100.083 17.0801 100.72 17.1151C101.633 17.1552 102.565 17.3961 103.299 17.96C103.212 18.2656 103.071 18.5532 102.964 18.8524C102.873 19.0691 102.805 19.2957 102.696 19.504C102.002 19.0745 101.208 18.7706 100.385 18.7577C100.101 18.7544 99.7908 18.809 99.5779 19.0123C99.4251 19.1526 99.37 19.4055 99.4965 19.58C99.6388 19.7737 99.8747 19.8626 100.092 19.944C100.815 20.1873 101.579 20.3122 102.269 20.6469C102.692 20.8481 103.091 21.1407 103.324 21.5565C103.634 22.1087 103.635 22.8 103.406 23.3814C103.195 23.9187 102.762 24.3498 102.251 24.6086C101.666 24.9113 100.993 25.0056 100.34 24.9764C99.244 24.9413 98.1224 24.6725 97.2195 24.0268C97.4219 23.5238 97.6436 23.0279 97.8544 22.5282C98.0218 22.6171 98.1741 22.7311 98.3428 22.8179C98.9948 23.1602 99.7357 23.3259 100.471 23.3146C100.769 23.3055 101.089 23.2516 101.324 23.0538C101.507 22.9043 101.584 22.605 101.425 22.4114C101.266 22.2248 101.02 22.1513 100.794 22.082C100.037 21.8754 99.2377 21.7861 98.5318 21.4225C98.1019 21.2067 97.7233 20.8556 97.5534 20.3977C97.346 19.835 97.3693 19.1876 97.6235 18.6437C97.8694 18.1124 98.3269 17.6983 98.8512 17.4487Z" fill="#282E38"/>
<path d="M110.039 17.5342C110.664 17.1756 111.411 17.0358 112.124 17.1443C112.797 17.2436 113.459 17.5617 113.867 18.1215C113.878 17.8364 113.866 17.5517 113.873 17.2666C114.619 17.2603 115.365 17.2574 116.111 17.2683C116.114 19.7865 116.112 22.3048 116.112 24.8231C115.365 24.8294 114.619 24.8277 113.873 24.8239C113.866 24.5401 113.878 24.2558 113.866 23.9716C113.605 24.3114 113.259 24.5823 112.86 24.74C112.076 25.0673 111.163 25.0577 110.384 24.7229C109.699 24.4324 109.127 23.9056 108.743 23.2716C108.035 22.1057 107.943 20.6001 108.467 19.3453C108.781 18.5956 109.328 17.9357 110.039 17.5342ZM111.882 19.1813C111.346 19.2485 110.849 19.5632 110.557 20.017C110.266 20.4577 110.178 21.0233 110.316 21.5326C110.456 22.0669 110.846 22.5286 111.35 22.7548C112.196 23.1443 113.289 22.8274 113.818 22.0677C113.882 21.9868 113.87 21.8786 113.873 21.7822C113.87 21.2938 113.871 20.8059 113.873 20.3179C113.871 20.2227 113.876 20.1188 113.813 20.0407C113.393 19.4276 112.617 19.0869 111.882 19.1813Z" fill="#282E38"/>
<path d="M117.761 19.2472C118.358 18.0593 119.593 17.2211 120.921 17.1222C122.116 17.0128 123.344 17.4983 124.145 18.3911C124.345 18.6123 124.523 18.8549 124.667 19.1166C124.081 19.4622 123.481 19.7857 122.885 20.113C122.649 19.7381 122.307 19.4217 121.883 19.2765C121.401 19.0999 120.847 19.1366 120.393 19.3746C119.97 19.5916 119.637 19.9773 119.482 20.4273C119.304 20.9365 119.359 21.5213 119.632 21.9872C119.915 22.4826 120.436 22.8349 121.003 22.9063C121.519 22.9785 122.06 22.8187 122.456 22.481C122.629 22.3407 122.757 22.1571 122.885 21.9776C123.484 22.2961 124.073 22.635 124.668 22.9631C124.042 24.1264 122.783 24.9137 121.464 24.9742C120.33 25.0443 119.181 24.5831 118.406 23.7537C117.871 23.1898 117.509 22.4639 117.383 21.6967C117.244 20.8677 117.376 19.9948 117.761 19.2472Z" fill="#282E38"/>
<path d="M80.5754 21.7894C80.6367 21.1721 81.1881 20.6495 81.8097 20.6303C82.2697 20.6227 82.7301 20.629 83.1901 20.6273C83.203 21.0673 83.193 21.5081 83.1955 21.9489C83.1988 22.3605 82.9947 22.7654 82.6624 23.0087C82.253 23.3205 81.656 23.3527 81.2157 23.0859C80.7703 22.8305 80.5073 22.2987 80.5754 21.7894Z" fill="#E01E5A"/>
<path d="M85.0397 20.6736C85.5486 20.5275 86.1305 20.7296 86.4406 21.1583C86.6197 21.3949 86.7082 21.6934 86.7015 21.9893C86.7002 23.1585 86.7036 24.3277 86.7002 25.4965C86.7002 26.1126 86.2085 26.6795 85.5995 26.7688C85.2267 26.8318 84.8294 26.7237 84.5418 26.4783C84.2433 26.2299 84.0663 25.8446 84.0717 25.4564C84.0726 24.2726 84.0701 23.0892 84.073 21.9054C84.0793 21.3411 84.4938 20.8151 85.0397 20.6736Z" fill="#E01E5A"/>
<path d="M88.7144 20.6397C88.8613 20.6213 89.009 20.628 89.1564 20.6272C90.1444 20.6276 91.132 20.6272 92.1197 20.6272C92.3213 20.628 92.5266 20.6155 92.7232 20.6689C93.1427 20.7737 93.4971 21.1005 93.6374 21.5096C93.8152 22.0009 93.6658 22.5886 93.2717 22.9326C93.0288 23.153 92.7007 23.2736 92.373 23.2678C91.1896 23.2657 90.0063 23.2715 88.8229 23.2648C88.1596 23.2465 87.5827 22.6542 87.5773 21.9917C87.5402 21.3372 88.0628 20.7136 88.7144 20.6397Z" fill="#ECB22E"/>
<path d="M87.5769 24.1484C88.0197 24.1447 88.463 24.1468 88.9063 24.1472C89.2874 24.1484 89.6619 24.3288 89.9031 24.6235C90.308 25.0939 90.3047 25.8511 89.896 26.3182C89.5224 26.7778 88.8241 26.9218 88.2998 26.6454C87.8724 26.4338 87.5819 25.9751 87.5773 25.4975C87.5748 25.048 87.5764 24.598 87.5769 24.1484Z" fill="#ECB22E"/>
<path d="M16.9672 24.3075C16.0952 24.3075 15.3712 24.0955 14.7952 23.6715C14.2272 23.2395 13.9272 22.6075 13.8952 21.7755C13.8952 21.7035 13.9192 21.6435 13.9672 21.5955C14.0152 21.5395 14.0752 21.5115 14.1472 21.5115H14.7592C14.9352 21.5115 15.0352 21.6035 15.0592 21.7875C15.1072 22.3075 15.3072 22.6915 15.6592 22.9395C16.0112 23.1875 16.4512 23.3115 16.9792 23.3115C17.5872 23.3115 18.0552 23.1115 18.3832 22.7115C18.7192 22.3115 18.8872 21.7715 18.8872 21.0915V16.7955H14.6032C14.5232 16.7955 14.4552 16.7715 14.3992 16.7235C14.3512 16.6675 14.3272 16.5995 14.3272 16.5195V16.0635C14.3272 15.9835 14.3512 15.9195 14.3992 15.8715C14.4552 15.8155 14.5232 15.7875 14.6032 15.7875H19.7512C19.8392 15.7875 19.9072 15.8155 19.9552 15.8715C20.0112 15.9195 20.0392 15.9875 20.0392 16.0755V21.1155C20.0392 21.7555 19.9152 22.3155 19.6672 22.7955C19.4272 23.2755 19.0752 23.6475 18.6112 23.9115C18.1472 24.1755 17.5992 24.3075 16.9672 24.3075ZM24.4413 24.3075C23.5613 24.3075 22.8813 24.0595 22.4013 23.5635C21.9293 23.0675 21.6773 22.4075 21.6453 21.5835L21.6333 21.0675L21.6453 20.5515C21.6773 19.7275 21.9333 19.0675 22.4133 18.5715C22.9013 18.0755 23.5773 17.8275 24.4413 17.8275C25.3053 17.8275 25.9773 18.0755 26.4573 18.5715C26.9453 19.0675 27.2053 19.7275 27.2373 20.5515C27.2533 20.7275 27.2613 20.8995 27.2613 21.0675C27.2613 21.2355 27.2533 21.4075 27.2373 21.5835C27.2053 22.4075 26.9493 23.0675 26.4693 23.5635C25.9973 24.0595 25.3213 24.3075 24.4413 24.3075ZM24.4413 23.4075C24.9533 23.4075 25.3573 23.2475 25.6533 22.9275C25.9573 22.5995 26.1213 22.1315 26.1453 21.5235C26.1533 21.4435 26.1573 21.2915 26.1573 21.0675C26.1573 20.8435 26.1533 20.6915 26.1453 20.6115C26.1213 20.0035 25.9573 19.5395 25.6533 19.2195C25.3573 18.8915 24.9533 18.7275 24.4413 18.7275C23.9293 18.7275 23.5213 18.8915 23.2173 19.2195C22.9213 19.5395 22.7613 20.0035 22.7373 20.6115L22.7253 21.0675L22.7373 21.5235C22.7613 22.1315 22.9213 22.5995 23.2173 22.9275C23.5213 23.2475 23.9293 23.4075 24.4413 23.4075ZM28.9565 16.7715C28.8765 16.7715 28.8085 16.7475 28.7525 16.6995C28.7045 16.6435 28.6805 16.5755 28.6805 16.4955V15.8715C28.6805 15.7915 28.7045 15.7235 28.7525 15.6675C28.8085 15.6115 28.8765 15.5835 28.9565 15.5835H29.6645C29.7445 15.5835 29.8125 15.6115 29.8685 15.6675C29.9245 15.7235 29.9525 15.7915 29.9525 15.8715V16.4955C29.9525 16.5755 29.9245 16.6435 29.8685 16.6995C29.8125 16.7475 29.7445 16.7715 29.6645 16.7715H28.9565ZM29.0525 24.1875C28.9725 24.1875 28.9045 24.1635 28.8485 24.1155C28.8005 24.0595 28.7765 23.9915 28.7765 23.9115V18.2235C28.7765 18.1435 28.8005 18.0795 28.8485 18.0315C28.9045 17.9755 28.9725 17.9475 29.0525 17.9475H29.5805C29.6605 17.9475 29.7245 17.9755 29.7725 18.0315C29.8285 18.0795 29.8565 18.1435 29.8565 18.2235V23.9115C29.8565 23.9915 29.8285 24.0595 29.7725 24.1155C29.7245 24.1635 29.6605 24.1875 29.5805 24.1875H29.0525ZM31.9353 24.1875C31.8553 24.1875 31.7873 24.1635 31.7313 24.1155C31.6833 24.0595 31.6593 23.9915 31.6593 23.9115V18.2235C31.6593 18.1435 31.6833 18.0795 31.7313 18.0315C31.7873 17.9755 31.8553 17.9475 31.9353 17.9475H32.4513C32.5393 17.9475 32.6073 17.9715 32.6553 18.0195C32.7033 18.0675 32.7273 18.1355 32.7273 18.2235V18.7515C32.9673 18.4555 33.2433 18.2275 33.5553 18.0675C33.8753 17.9075 34.2713 17.8275 34.7433 17.8275C35.5113 17.8275 36.1073 18.0755 36.5313 18.5715C36.9553 19.0595 37.1673 19.7075 37.1673 20.5155V23.9115C37.1673 23.9915 37.1393 24.0595 37.0833 24.1155C37.0353 24.1635 36.9713 24.1875 36.8913 24.1875H36.3393C36.2593 24.1875 36.1913 24.1635 36.1353 24.1155C36.0873 24.0595 36.0633 23.9915 36.0633 23.9115V20.5875C36.0633 20.0115 35.9233 19.5635 35.6433 19.2435C35.3633 18.9235 34.9633 18.7635 34.4433 18.7635C33.9313 18.7635 33.5233 18.9275 33.2193 19.2555C32.9153 19.5755 32.7633 20.0195 32.7633 20.5875V23.9115C32.7633 23.9915 32.7353 24.0595 32.6793 24.1155C32.6313 24.1635 32.5673 24.1875 32.4873 24.1875H31.9353ZM44.1826 24.3075C43.4226 24.3075 42.8346 24.0635 42.4186 23.5755C42.0026 23.0795 41.7946 22.4235 41.7946 21.6075V18.2235C41.7946 18.1435 41.8186 18.0795 41.8666 18.0315C41.9226 17.9755 41.9906 17.9475 42.0706 17.9475H42.6226C42.7026 17.9475 42.7666 17.9755 42.8146 18.0315C42.8706 18.0795 42.8986 18.1435 42.8986 18.2235V21.5475C42.8986 22.7635 43.4266 23.3715 44.4826 23.3715C44.9946 23.3715 45.3986 23.2115 45.6946 22.8915C45.9986 22.5635 46.1506 22.1155 46.1506 21.5475V18.2235C46.1506 18.1435 46.1746 18.0795 46.2226 18.0315C46.2786 17.9755 46.3466 17.9475 46.4266 17.9475H46.9786C47.0586 17.9475 47.1226 17.9755 47.1706 18.0315C47.2266 18.0795 47.2546 18.1435 47.2546 18.2235V23.9115C47.2546 23.9915 47.2266 24.0595 47.1706 24.1155C47.1226 24.1635 47.0586 24.1875 46.9786 24.1875H46.4626C46.3826 24.1875 46.3146 24.1635 46.2586 24.1155C46.2106 24.0595 46.1866 23.9915 46.1866 23.9115V23.3715C45.9546 23.6835 45.6826 23.9195 45.3706 24.0795C45.0586 24.2315 44.6626 24.3075 44.1826 24.3075ZM51.1859 24.3075C50.6339 24.3075 50.1659 24.2195 49.7819 24.0435C49.4059 23.8595 49.1259 23.6515 48.9419 23.4195C48.7579 23.1875 48.6659 22.9955 48.6659 22.8435C48.6659 22.7635 48.6939 22.7035 48.7499 22.6635C48.8059 22.6155 48.8659 22.5915 48.9299 22.5915H49.4339C49.4819 22.5915 49.5179 22.5995 49.5419 22.6155C49.5739 22.6315 49.6139 22.6675 49.6619 22.7235C49.8459 22.9475 50.0499 23.1235 50.2739 23.2515C50.5059 23.3795 50.8139 23.4435 51.1979 23.4435C51.6299 23.4435 51.9739 23.3635 52.2299 23.2035C52.4939 23.0435 52.6259 22.8115 52.6259 22.5075C52.6259 22.3075 52.5699 22.1475 52.4579 22.0275C52.3459 21.9075 52.1579 21.7995 51.8939 21.7035C51.6379 21.6075 51.2539 21.5035 50.7419 21.3915C50.0459 21.2395 49.5539 21.0195 49.2659 20.7315C48.9779 20.4435 48.8339 20.0715 48.8339 19.6155C48.8339 19.3195 48.9219 19.0355 49.0979 18.7635C49.2739 18.4835 49.5339 18.2595 49.8779 18.0915C50.2299 17.9155 50.6459 17.8275 51.1259 17.8275C51.6299 17.8275 52.0579 17.9115 52.4099 18.0795C52.7699 18.2475 53.0379 18.4435 53.2139 18.6675C53.3979 18.8915 53.4899 19.0795 53.4899 19.2315C53.4899 19.3035 53.4619 19.3635 53.4059 19.4115C53.3579 19.4595 53.2979 19.4835 53.2259 19.4835H52.7699C52.6579 19.4835 52.5779 19.4395 52.5299 19.3515C52.3939 19.1995 52.2779 19.0835 52.1819 19.0035C52.0939 18.9155 51.9619 18.8435 51.7859 18.7875C51.6099 18.7235 51.3899 18.6915 51.1259 18.6915C50.7339 18.6915 50.4339 18.7755 50.2259 18.9435C50.0179 19.1035 49.9139 19.3195 49.9139 19.5915C49.9139 19.7595 49.9579 19.9035 50.0459 20.0235C50.1339 20.1355 50.3019 20.2435 50.5499 20.3475C50.7979 20.4435 51.1659 20.5435 51.6539 20.6475C52.4139 20.8075 52.9499 21.0355 53.2619 21.3315C53.5819 21.6275 53.7419 22.0075 53.7419 22.4715C53.7419 22.8155 53.6419 23.1275 53.4419 23.4075C53.2499 23.6875 52.9579 23.9075 52.5659 24.0675C52.1819 24.2275 51.7219 24.3075 51.1859 24.3075ZM60.6288 24.3075C59.7488 24.3075 59.0688 24.0595 58.5888 23.5635C58.1168 23.0675 57.8648 22.4075 57.8328 21.5835L57.8208 21.0675L57.8328 20.5515C57.8648 19.7275 58.1208 19.0675 58.6008 18.5715C59.0888 18.0755 59.7648 17.8275 60.6288 17.8275C61.4928 17.8275 62.1648 18.0755 62.6448 18.5715C63.1328 19.0675 63.3928 19.7275 63.4248 20.5515C63.4408 20.7275 63.4488 20.8995 63.4488 21.0675C63.4488 21.2355 63.4408 21.4075 63.4248 21.5835C63.3928 22.4075 63.1368 23.0675 62.6568 23.5635C62.1848 24.0595 61.5088 24.3075 60.6288 24.3075ZM60.6288 23.4075C61.1408 23.4075 61.5448 23.2475 61.8408 22.9275C62.1448 22.5995 62.3088 22.1315 62.3328 21.5235C62.3408 21.4435 62.3448 21.2915 62.3448 21.0675C62.3448 20.8435 62.3408 20.6915 62.3328 20.6115C62.3088 20.0035 62.1448 19.5395 61.8408 19.2195C61.5448 18.8915 61.1408 18.7275 60.6288 18.7275C60.1168 18.7275 59.7088 18.8915 59.4048 19.2195C59.1088 19.5395 58.9488 20.0035 58.9248 20.6115L58.9128 21.0675L58.9248 21.5235C58.9488 22.1315 59.1088 22.5995 59.4048 22.9275C59.7088 23.2475 60.1168 23.4075 60.6288 23.4075ZM65.24 24.1875C65.16 24.1875 65.092 24.1635 65.036 24.1155C64.988 24.0595 64.964 23.9915 64.964 23.9115V18.2235C64.964 18.1435 64.988 18.0795 65.036 18.0315C65.092 17.9755 65.16 17.9475 65.24 17.9475H65.756C65.844 17.9475 65.912 17.9715 65.96 18.0195C66.008 18.0675 66.032 18.1355 66.032 18.2235V18.7515C66.272 18.4555 66.548 18.2275 66.86 18.0675C67.18 17.9075 67.576 17.8275 68.048 17.8275C68.816 17.8275 69.412 18.0755 69.836 18.5715C70.26 19.0595 70.472 19.7075 70.472 20.5155V23.9115C70.472 23.9915 70.444 24.0595 70.388 24.1155C70.34 24.1635 70.276 24.1875 70.196 24.1875H69.644C69.564 24.1875 69.496 24.1635 69.44 24.1155C69.392 24.0595 69.368 23.9915 69.368 23.9115V20.5875C69.368 20.0115 69.228 19.5635 68.948 19.2435C68.668 18.9235 68.268 18.7635 67.748 18.7635C67.236 18.7635 66.828 18.9275 66.524 19.2555C66.22 19.5755 66.068 20.0195 66.068 20.5875V23.9115C66.068 23.9915 66.04 24.0595 65.984 24.1155C65.936 24.1635 65.872 24.1875 65.792 24.1875H65.24Z" fill="#282E38"/>
</svg>
