<svg width="335" height="424" viewBox="0 0 335 424" fill="none" xmlns="http://www.w3.org/2000/svg">
<g filter="url(#filter0_dddddd_837_5789)">
<g filter="url(#filter1_b_837_5789)">
<rect x="54.0557" y="17.5693" width="226.888" height="93.62" rx="6.71948" fill="#29313C" fill-opacity="0.7"/>
<path d="M147.74 59.8794C147.647 59.8794 147.572 59.8514 147.516 59.7954C147.46 59.7301 147.432 59.6507 147.432 59.5574V50.4014C147.432 50.3081 147.46 50.2334 147.516 50.1774C147.572 50.1121 147.647 50.0794 147.74 50.0794H148.44C148.543 50.0794 148.622 50.1074 148.678 50.1634C148.734 50.2194 148.762 50.2987 148.762 50.4014V59.5574C148.762 59.6507 148.73 59.7301 148.664 59.7954C148.608 59.8514 148.534 59.8794 148.44 59.8794H147.74ZM152.101 59.8794C152.008 59.8794 151.933 59.8514 151.877 59.7954C151.821 59.7301 151.793 59.6507 151.793 59.5574V50.4154C151.793 50.3127 151.821 50.2334 151.877 50.1774C151.933 50.1121 152.008 50.0794 152.101 50.0794H152.717C152.81 50.0794 152.88 50.0981 152.927 50.1354C152.974 50.1727 153.02 50.2194 153.067 50.2754L157.757 57.4994V50.4154C157.757 50.3127 157.785 50.2334 157.841 50.1774C157.906 50.1121 157.986 50.0794 158.079 50.0794H158.709C158.812 50.0794 158.891 50.1121 158.947 50.1774C159.012 50.2334 159.045 50.3127 159.045 50.4154V59.5434C159.045 59.6367 159.012 59.7161 158.947 59.7814C158.891 59.8467 158.816 59.8794 158.723 59.8794H158.093C157.934 59.8794 157.822 59.8141 157.757 59.6834L153.067 52.5294V59.5574C153.067 59.6507 153.034 59.7301 152.969 59.7954C152.913 59.8514 152.838 59.8794 152.745 59.8794H152.101ZM162.368 59.8794C162.275 59.8794 162.2 59.8514 162.144 59.7954C162.088 59.7301 162.06 59.6507 162.06 59.5574V50.4154C162.06 50.3127 162.088 50.2334 162.144 50.1774C162.2 50.1121 162.275 50.0794 162.368 50.0794H165.91C166.965 50.0794 167.791 50.3361 168.388 50.8494C168.995 51.3534 169.298 52.0907 169.298 53.0614C169.298 54.0321 168.995 54.7694 168.388 55.2734C167.791 55.7774 166.965 56.0294 165.91 56.0294H163.39V59.5574C163.39 59.6507 163.357 59.7301 163.292 59.7954C163.236 59.8514 163.161 59.8794 163.068 59.8794H162.368ZM165.84 54.8954C167.249 54.8954 167.954 54.2841 167.954 53.0614C167.954 52.4641 167.777 52.0067 167.422 51.6894C167.077 51.3721 166.549 51.2134 165.84 51.2134H163.39V54.8954H165.84ZM175.271 60.0194C174.067 60.0194 173.138 59.6974 172.485 59.0534C171.832 58.4001 171.505 57.4154 171.505 56.0994V50.4154C171.505 50.3127 171.533 50.2334 171.589 50.1774C171.645 50.1121 171.72 50.0794 171.813 50.0794H172.485C172.588 50.0794 172.667 50.1121 172.723 50.1774C172.788 50.2334 172.821 50.3127 172.821 50.4154V56.1274C172.821 57.0421 173.031 57.7234 173.451 58.1714C173.88 58.6194 174.487 58.8434 175.271 58.8434C176.046 58.8434 176.643 58.6194 177.063 58.1714C177.492 57.7141 177.707 57.0327 177.707 56.1274V50.4154C177.707 50.3127 177.735 50.2334 177.791 50.1774C177.847 50.1121 177.926 50.0794 178.029 50.0794H178.701C178.794 50.0794 178.869 50.1121 178.925 50.1774C178.99 50.2334 179.023 50.3127 179.023 50.4154V56.0994C179.023 57.4154 178.696 58.4001 178.043 59.0534C177.399 59.6974 176.475 60.0194 175.271 60.0194ZM184.416 59.8794C184.322 59.8794 184.243 59.8514 184.178 59.7954C184.122 59.7301 184.094 59.6507 184.094 59.5574V51.2834H181.392C181.298 51.2834 181.219 51.2554 181.154 51.1994C181.098 51.1341 181.07 51.0547 181.07 50.9614V50.4154C181.07 50.3127 181.098 50.2334 181.154 50.1774C181.219 50.1121 181.298 50.0794 181.392 50.0794H188.112C188.214 50.0794 188.294 50.1121 188.35 50.1774C188.406 50.2334 188.434 50.3127 188.434 50.4154V50.9614C188.434 51.0547 188.401 51.1341 188.336 51.1994C188.28 51.2554 188.205 51.2834 188.112 51.2834H185.424V59.5574C185.424 59.6507 185.391 59.7301 185.326 59.7954C185.26 59.8514 185.181 59.8794 185.088 59.8794H184.416Z" fill="white" fill-opacity="0.8"/>
<path d="M121.534 77.8794C121.441 77.8794 121.362 77.8467 121.296 77.7814C121.231 77.7161 121.198 77.6367 121.198 77.5434V68.4294C121.198 68.3267 121.226 68.2427 121.282 68.1774C121.348 68.1121 121.432 68.0794 121.534 68.0794H124.95C127.704 68.0794 129.108 69.3487 129.164 71.8874C129.183 72.4287 129.192 72.7927 129.192 72.9794C129.192 73.1567 129.183 73.5161 129.164 74.0574C129.127 75.3641 128.772 76.3301 128.1 76.9554C127.438 77.5714 126.411 77.8794 125.02 77.8794H121.534ZM124.95 76.2554C125.725 76.2554 126.285 76.0827 126.63 75.7374C126.976 75.3921 127.158 74.8181 127.176 74.0154C127.195 73.4554 127.204 73.1054 127.204 72.9654C127.204 72.8161 127.195 72.4707 127.176 71.9294C127.158 71.1641 126.966 70.6041 126.602 70.2494C126.238 69.8854 125.664 69.7034 124.88 69.7034H123.172V76.2554H124.95ZM130.249 77.8794C130.165 77.8794 130.095 77.8514 130.039 77.7954C129.983 77.7394 129.955 77.6694 129.955 77.5854L129.983 77.4594L133.343 68.4294C133.436 68.1961 133.604 68.0794 133.847 68.0794H135.387C135.629 68.0794 135.797 68.1961 135.891 68.4294L139.251 77.4594L139.279 77.5854C139.279 77.6694 139.246 77.7394 139.181 77.7954C139.125 77.8514 139.059 77.8794 138.985 77.8794H137.739C137.543 77.8794 137.407 77.7907 137.333 77.6134L136.689 75.9194H132.545L131.901 77.6134C131.826 77.7907 131.691 77.8794 131.495 77.8794H130.249ZM133.035 74.2954H136.199L134.617 69.9834L133.035 74.2954ZM142.038 77.8794C141.945 77.8794 141.865 77.8467 141.8 77.7814C141.735 77.7161 141.702 77.6367 141.702 77.5434V69.8294H139.112C139.019 69.8294 138.939 69.7967 138.874 69.7314C138.809 69.6661 138.776 69.5821 138.776 69.4794V68.4294C138.776 68.3267 138.804 68.2427 138.86 68.1774C138.925 68.1121 139.009 68.0794 139.112 68.0794H146.266C146.369 68.0794 146.453 68.1121 146.518 68.1774C146.583 68.2427 146.616 68.3267 146.616 68.4294V69.4794C146.616 69.5821 146.583 69.6661 146.518 69.7314C146.453 69.7967 146.369 69.8294 146.266 69.8294H143.69V77.5434C143.69 77.6367 143.657 77.7161 143.592 77.7814C143.536 77.8467 143.457 77.8794 143.354 77.8794H142.038ZM146.409 77.8794C146.325 77.8794 146.255 77.8514 146.199 77.7954C146.143 77.7394 146.115 77.6694 146.115 77.5854L146.143 77.4594L149.503 68.4294C149.596 68.1961 149.764 68.0794 150.007 68.0794H151.547C151.79 68.0794 151.958 68.1961 152.051 68.4294L155.411 77.4594L155.439 77.5854C155.439 77.6694 155.406 77.7394 155.341 77.7954C155.285 77.8514 155.22 77.8794 155.145 77.8794H153.899C153.703 77.8794 153.568 77.7907 153.493 77.6134L152.849 75.9194H148.705L148.061 77.6134C147.986 77.7907 147.851 77.8794 147.655 77.8794H146.409ZM149.195 74.2954H152.359L150.777 69.9834L149.195 74.2954ZM162.964 78.0194C162.124 78.0194 161.405 77.8934 160.808 77.6414C160.211 77.3894 159.758 77.0581 159.45 76.6474C159.142 76.2367 158.979 75.7887 158.96 75.3034C158.96 75.2287 158.988 75.1634 159.044 75.1074C159.1 75.0421 159.17 75.0094 159.254 75.0094H160.528C160.631 75.0094 160.715 75.0327 160.78 75.0794C160.845 75.1261 160.906 75.1914 160.962 75.2754C161.055 75.5927 161.265 75.8587 161.592 76.0734C161.928 76.2881 162.385 76.3954 162.964 76.3954C163.617 76.3954 164.107 76.2881 164.434 76.0734C164.77 75.8494 164.938 75.5461 164.938 75.1634C164.938 74.9114 164.854 74.7014 164.686 74.5334C164.518 74.3654 164.261 74.2207 163.916 74.0994C163.58 73.9687 163.076 73.8147 162.404 73.6374C161.303 73.3761 160.495 73.0307 159.982 72.6014C159.469 72.1721 159.212 71.5561 159.212 70.7534C159.212 70.2121 159.361 69.7314 159.66 69.3114C159.959 68.8821 160.383 68.5461 160.934 68.3034C161.494 68.0607 162.143 67.9394 162.88 67.9394C163.655 67.9394 164.322 68.0747 164.882 68.3454C165.451 68.6161 165.881 68.9567 166.17 69.3674C166.469 69.7687 166.627 70.1701 166.646 70.5714C166.646 70.6461 166.618 70.7161 166.562 70.7814C166.506 70.8374 166.436 70.8654 166.352 70.8654H165.022C164.817 70.8654 164.677 70.7814 164.602 70.6134C164.555 70.3147 164.373 70.0674 164.056 69.8714C163.739 69.6661 163.347 69.5634 162.88 69.5634C162.367 69.5634 161.961 69.6614 161.662 69.8574C161.373 70.0534 161.228 70.3381 161.228 70.7114C161.228 70.9634 161.303 71.1734 161.452 71.3414C161.601 71.5094 161.835 71.6587 162.152 71.7894C162.469 71.9107 162.931 72.0507 163.538 72.2094C164.369 72.3961 165.027 72.6061 165.512 72.8394C166.007 73.0727 166.371 73.3667 166.604 73.7214C166.837 74.0761 166.954 74.5287 166.954 75.0794C166.954 75.6861 166.786 76.2134 166.45 76.6614C166.123 77.1001 165.657 77.4361 165.05 77.6694C164.453 77.9027 163.757 78.0194 162.964 78.0194ZM172.324 78.0194C171.045 78.0194 170.051 77.6974 169.342 77.0534C168.633 76.4094 168.259 75.4527 168.222 74.1834C168.213 73.9127 168.208 73.5161 168.208 72.9934C168.208 72.4614 168.213 72.0601 168.222 71.7894C168.259 70.5481 168.642 69.5961 169.37 68.9334C170.098 68.2707 171.083 67.9394 172.324 67.9394C173.556 67.9394 174.536 68.2707 175.264 68.9334C176.001 69.5961 176.389 70.5481 176.426 71.7894C176.445 72.3307 176.454 72.7321 176.454 72.9934C176.454 73.2454 176.445 73.6421 176.426 74.1834C176.389 75.4527 176.011 76.4094 175.292 77.0534C174.583 77.6974 173.593 78.0194 172.324 78.0194ZM172.324 76.3954C172.949 76.3954 173.444 76.2087 173.808 75.8354C174.172 75.4621 174.368 74.8881 174.396 74.1134C174.415 73.5534 174.424 73.1754 174.424 72.9794C174.424 72.7647 174.415 72.3867 174.396 71.8454C174.368 71.0801 174.167 70.5107 173.794 70.1374C173.421 69.7547 172.931 69.5634 172.324 69.5634C171.708 69.5634 171.213 69.7547 170.84 70.1374C170.467 70.5107 170.271 71.0801 170.252 71.8454C170.243 72.1161 170.238 72.4941 170.238 72.9794C170.238 73.4554 170.243 73.8334 170.252 74.1134C170.271 74.8787 170.462 75.4527 170.826 75.8354C171.199 76.2087 171.699 76.3954 172.324 76.3954ZM182.199 78.0194C180.929 78.0194 179.945 77.6974 179.245 77.0534C178.545 76.4094 178.195 75.4341 178.195 74.1274V68.4294C178.195 68.3267 178.223 68.2427 178.279 68.1774C178.344 68.1121 178.428 68.0794 178.531 68.0794H179.819C179.921 68.0794 180.005 68.1121 180.071 68.1774C180.136 68.2427 180.169 68.3267 180.169 68.4294V74.1274C180.169 74.8647 180.341 75.4201 180.687 75.7934C181.041 76.1667 181.541 76.3534 182.185 76.3534C182.829 76.3534 183.323 76.1667 183.669 75.7934C184.023 75.4201 184.201 74.8647 184.201 74.1274V68.4294C184.201 68.3267 184.233 68.2427 184.299 68.1774C184.364 68.1121 184.448 68.0794 184.551 68.0794H185.839C185.941 68.0794 186.021 68.1121 186.077 68.1774C186.142 68.2427 186.175 68.3267 186.175 68.4294V74.1274C186.175 75.4341 185.825 76.4094 185.125 77.0534C184.434 77.6974 183.459 78.0194 182.199 78.0194ZM188.609 77.8794C188.515 77.8794 188.436 77.8467 188.371 77.7814C188.305 77.7161 188.273 77.6367 188.273 77.5434V68.4294C188.273 68.3267 188.301 68.2427 188.357 68.1774C188.422 68.1121 188.506 68.0794 188.609 68.0794H192.235C193.383 68.0794 194.279 68.3454 194.923 68.8774C195.576 69.4094 195.903 70.1654 195.903 71.1454C195.903 71.8267 195.739 72.4007 195.413 72.8674C195.086 73.3247 194.629 73.6561 194.041 73.8614L196.071 77.4314C196.099 77.4874 196.113 77.5387 196.113 77.5854C196.113 77.6694 196.08 77.7394 196.015 77.7954C195.959 77.8514 195.893 77.8794 195.819 77.8794H194.531C194.381 77.8794 194.265 77.8467 194.181 77.7814C194.097 77.7067 194.022 77.6134 193.957 77.5014L192.165 74.1834H190.247V77.5434C190.247 77.6367 190.214 77.7161 190.149 77.7814C190.083 77.8467 189.999 77.8794 189.897 77.8794H188.609ZM192.193 72.5874C192.753 72.5874 193.173 72.4661 193.453 72.2234C193.733 71.9714 193.873 71.6074 193.873 71.1314C193.873 70.6554 193.733 70.2914 193.453 70.0394C193.173 69.7781 192.753 69.6474 192.193 69.6474H190.247V72.5874H192.193ZM201.459 78.0194C200.171 78.0194 199.172 77.6927 198.463 77.0394C197.763 76.3767 197.39 75.4387 197.343 74.2254C197.334 73.9734 197.329 73.5627 197.329 72.9934C197.329 72.4147 197.334 71.9947 197.343 71.7334C197.39 70.5387 197.768 69.6101 198.477 68.9474C199.186 68.2754 200.18 67.9394 201.459 67.9394C202.29 67.9394 203.013 68.0841 203.629 68.3734C204.245 68.6534 204.721 69.0407 205.057 69.5354C205.402 70.0301 205.584 70.5854 205.603 71.2014V71.2294C205.603 71.3041 205.57 71.3694 205.505 71.4254C205.449 71.4721 205.384 71.4954 205.309 71.4954H203.951C203.839 71.4954 203.755 71.4721 203.699 71.4254C203.643 71.3694 203.596 71.2761 203.559 71.1454C203.419 70.5667 203.176 70.1607 202.831 69.9274C202.486 69.6847 202.028 69.5634 201.459 69.5634C200.124 69.5634 199.429 70.3101 199.373 71.8034C199.364 72.0554 199.359 72.4427 199.359 72.9654C199.359 73.4881 199.364 73.8847 199.373 74.1554C199.429 75.6487 200.124 76.3954 201.459 76.3954C202.019 76.3954 202.472 76.2787 202.817 76.0454C203.172 75.8027 203.419 75.3921 203.559 74.8134C203.596 74.6827 203.643 74.5941 203.699 74.5474C203.755 74.4914 203.839 74.4634 203.951 74.4634H205.309C205.393 74.4634 205.463 74.4914 205.519 74.5474C205.584 74.6034 205.612 74.6734 205.603 74.7574C205.584 75.3734 205.402 75.9287 205.057 76.4234C204.721 76.9181 204.245 77.3101 203.629 77.5994C203.013 77.8794 202.29 78.0194 201.459 78.0194ZM207.599 77.8794C207.506 77.8794 207.426 77.8467 207.361 77.7814C207.296 77.7161 207.263 77.6367 207.263 77.5434V68.4294C207.263 68.3267 207.291 68.2427 207.347 68.1774C207.412 68.1121 207.496 68.0794 207.599 68.0794H213.773C213.876 68.0794 213.96 68.1121 214.025 68.1774C214.09 68.2427 214.123 68.3267 214.123 68.4294V69.3674C214.123 69.4701 214.09 69.5541 214.025 69.6194C213.96 69.6754 213.876 69.7034 213.773 69.7034H209.181V72.1534H213.465C213.568 72.1534 213.652 72.1861 213.717 72.2514C213.782 72.3167 213.815 72.4007 213.815 72.5034V73.3854C213.815 73.4881 213.782 73.5721 213.717 73.6374C213.652 73.6934 213.568 73.7214 213.465 73.7214H209.181V76.2554H213.885C213.988 76.2554 214.072 76.2881 214.137 76.3534C214.202 76.4094 214.235 76.4887 214.235 76.5914V77.5434C214.235 77.6461 214.202 77.7301 214.137 77.7954C214.072 77.8514 213.988 77.8794 213.885 77.8794H207.599Z" fill="#01B7BB"/>
<rect x="54.8023" y="18.3159" width="225.395" height="92.1268" rx="5.97287" stroke="url(#paint0_linear_837_5789)" stroke-width="1.49322" stroke-linecap="round" stroke-linejoin="round" stroke-dasharray="4.48 4.48"/>
</g>
<path d="M168.247 114.315C168.247 113.903 167.912 113.569 167.5 113.569C167.088 113.569 166.753 113.903 166.753 114.315L168.247 114.315ZM166.972 132.843C167.264 133.135 167.736 133.135 168.028 132.843L172.779 128.092C173.071 127.8 173.071 127.328 172.779 127.036C172.488 126.745 172.015 126.745 171.723 127.036L167.5 131.26L163.277 127.036C162.985 126.745 162.512 126.745 162.221 127.036C161.929 127.328 161.929 127.8 162.221 128.092L166.972 132.843ZM166.753 114.315L166.753 132.315L168.247 132.315L168.247 114.315L166.753 114.315Z" fill="white" style="mix-blend-mode:overlay"/>
<g filter="url(#filter2_b_837_5789)">
<rect x="102.5" y="135.441" width="130" height="64" rx="6.71948" fill="#29313C" fill-opacity="0.7"/>
<path d="M146.021 171.941C145.927 171.941 145.848 171.909 145.783 171.843C145.717 171.778 145.685 171.699 145.685 171.605V162.491C145.685 162.389 145.713 162.305 145.769 162.239C145.834 162.174 145.918 162.141 146.021 162.141H152.111C152.213 162.141 152.297 162.174 152.363 162.239C152.428 162.305 152.461 162.389 152.461 162.491V163.499C152.461 163.593 152.428 163.672 152.363 163.737C152.297 163.803 152.213 163.835 152.111 163.835H147.631V166.467H151.831C151.933 166.467 152.017 166.5 152.083 166.565C152.148 166.631 152.181 166.71 152.181 166.803V167.811C152.181 167.905 152.148 167.984 152.083 168.049C152.017 168.115 151.933 168.147 151.831 168.147H147.631V171.605C147.631 171.699 147.598 171.778 147.533 171.843C147.467 171.909 147.383 171.941 147.281 171.941H146.021ZM154.443 171.941C154.349 171.941 154.27 171.909 154.205 171.843C154.139 171.778 154.107 171.699 154.107 171.605V162.477C154.107 162.375 154.139 162.295 154.205 162.239C154.27 162.174 154.349 162.141 154.443 162.141H155.787C155.889 162.141 155.969 162.174 156.025 162.239C156.09 162.295 156.123 162.375 156.123 162.477V171.605C156.123 171.699 156.09 171.778 156.025 171.843C155.969 171.909 155.889 171.941 155.787 171.941H154.443ZM158.64 171.941C158.547 171.941 158.467 171.909 158.402 171.843C158.337 171.778 158.304 171.699 158.304 171.605V162.477C158.304 162.375 158.337 162.295 158.402 162.239C158.467 162.174 158.547 162.141 158.64 162.141H159.956C160.059 162.141 160.138 162.174 160.194 162.239C160.259 162.295 160.292 162.375 160.292 162.477V170.261H164.73C164.833 170.261 164.917 170.294 164.982 170.359C165.047 170.425 165.08 170.504 165.08 170.597V171.605C165.08 171.699 165.047 171.778 164.982 171.843C164.917 171.909 164.833 171.941 164.73 171.941H158.64ZM167.345 171.941C167.251 171.941 167.172 171.909 167.107 171.843C167.041 171.778 167.009 171.699 167.009 171.605V163.891H164.419C164.325 163.891 164.246 163.859 164.181 163.793C164.115 163.728 164.083 163.644 164.083 163.541V162.491C164.083 162.389 164.111 162.305 164.167 162.239C164.232 162.174 164.316 162.141 164.419 162.141H171.573C171.675 162.141 171.759 162.174 171.825 162.239C171.89 162.305 171.923 162.389 171.923 162.491V163.541C171.923 163.644 171.89 163.728 171.825 163.793C171.759 163.859 171.675 163.891 171.573 163.891H168.997V171.605C168.997 171.699 168.964 171.778 168.899 171.843C168.843 171.909 168.763 171.941 168.661 171.941H167.345ZM173.679 171.941C173.586 171.941 173.506 171.909 173.441 171.843C173.376 171.778 173.343 171.699 173.343 171.605V162.491C173.343 162.389 173.371 162.305 173.427 162.239C173.492 162.174 173.576 162.141 173.679 162.141H179.853C179.956 162.141 180.04 162.174 180.105 162.239C180.17 162.305 180.203 162.389 180.203 162.491V163.429C180.203 163.532 180.17 163.616 180.105 163.681C180.04 163.737 179.956 163.765 179.853 163.765H175.261V166.215H179.545C179.648 166.215 179.732 166.248 179.797 166.313C179.862 166.379 179.895 166.463 179.895 166.565V167.447C179.895 167.55 179.862 167.634 179.797 167.699C179.732 167.755 179.648 167.783 179.545 167.783H175.261V170.317H179.965C180.068 170.317 180.152 170.35 180.217 170.415C180.282 170.471 180.315 170.551 180.315 170.653V171.605C180.315 171.708 180.282 171.792 180.217 171.857C180.152 171.913 180.068 171.941 179.965 171.941H173.679ZM182.402 171.941C182.308 171.941 182.229 171.909 182.164 171.843C182.098 171.778 182.066 171.699 182.066 171.605V162.491C182.066 162.389 182.094 162.305 182.15 162.239C182.215 162.174 182.299 162.141 182.402 162.141H186.028C187.176 162.141 188.072 162.407 188.716 162.939C189.369 163.471 189.696 164.227 189.696 165.207C189.696 165.889 189.532 166.463 189.206 166.929C188.879 167.387 188.422 167.718 187.834 167.923L189.864 171.493C189.892 171.549 189.906 171.601 189.906 171.647C189.906 171.731 189.873 171.801 189.808 171.857C189.752 171.913 189.686 171.941 189.612 171.941H188.324C188.174 171.941 188.058 171.909 187.974 171.843C187.89 171.769 187.815 171.675 187.75 171.563L185.958 168.245H184.04V171.605C184.04 171.699 184.007 171.778 183.942 171.843C183.876 171.909 183.792 171.941 183.69 171.941H182.402ZM185.986 166.649C186.546 166.649 186.966 166.528 187.246 166.285C187.526 166.033 187.666 165.669 187.666 165.193C187.666 164.717 187.526 164.353 187.246 164.101C186.966 163.84 186.546 163.709 185.986 163.709H184.04V166.649H185.986Z" fill="#01B7BB"/>
<rect x="103.247" y="136.188" width="128.507" height="62.5068" rx="5.97287" stroke="url(#paint1_linear_837_5789)" stroke-width="1.49322" stroke-linecap="round" stroke-linejoin="round" stroke-dasharray="4.48 4.48"/>
</g>
<path d="M168.247 202.568C168.247 202.156 167.912 201.821 167.5 201.821C167.088 201.821 166.753 202.156 166.753 202.568L168.247 202.568ZM166.972 221.096C167.264 221.387 167.736 221.387 168.028 221.096L172.779 216.344C173.071 216.053 173.071 215.58 172.779 215.289C172.488 214.997 172.015 214.997 171.723 215.289L167.5 219.512L163.277 215.289C162.985 214.997 162.512 214.997 162.221 215.289C161.929 215.58 161.929 216.053 162.221 216.344L166.972 221.096ZM166.753 202.568L166.753 220.568L168.247 220.568L168.247 202.568L166.753 202.568Z" fill="white" style="mix-blend-mode:overlay"/>
<g filter="url(#filter3_b_837_5789)">
<rect x="102.5" y="223.694" width="130" height="64" rx="6.71948" fill="#29313C" fill-opacity="0.7"/>
<path d="M141.625 260.194C141.532 260.194 141.453 260.161 141.387 260.096C141.322 260.031 141.289 259.951 141.289 259.858V250.744C141.289 250.641 141.317 250.557 141.373 250.492C141.439 250.427 141.523 250.394 141.625 250.394H145.685C146.777 250.394 147.594 250.637 148.135 251.122C148.677 251.598 148.947 252.251 148.947 253.082C148.947 253.567 148.826 253.983 148.583 254.328C148.35 254.664 148.075 254.907 147.757 255.056C148.149 255.233 148.481 255.523 148.751 255.924C149.022 256.325 149.157 256.783 149.157 257.296C149.157 258.164 148.863 258.864 148.275 259.396C147.687 259.928 146.866 260.194 145.811 260.194H141.625ZM145.433 254.412C145.909 254.412 146.273 254.295 146.525 254.062C146.787 253.829 146.917 253.516 146.917 253.124C146.917 252.732 146.791 252.429 146.539 252.214C146.287 251.999 145.919 251.892 145.433 251.892H143.263V254.412H145.433ZM145.573 258.696C146.059 258.696 146.437 258.565 146.707 258.304C146.978 258.033 147.113 257.693 147.113 257.282C147.113 256.871 146.973 256.535 146.693 256.274C146.423 256.003 146.049 255.868 145.573 255.868H143.263V258.696H145.573ZM154.821 260.334C153.551 260.334 152.567 260.012 151.867 259.368C151.167 258.724 150.817 257.749 150.817 256.442V250.744C150.817 250.641 150.845 250.557 150.901 250.492C150.966 250.427 151.05 250.394 151.153 250.394H152.441C152.543 250.394 152.627 250.427 152.693 250.492C152.758 250.557 152.791 250.641 152.791 250.744V256.442C152.791 257.179 152.963 257.735 153.309 258.108C153.663 258.481 154.163 258.668 154.807 258.668C155.451 258.668 155.945 258.481 156.291 258.108C156.645 257.735 156.823 257.179 156.823 256.442V250.744C156.823 250.641 156.855 250.557 156.921 250.492C156.986 250.427 157.07 250.394 157.173 250.394H158.461C158.563 250.394 158.643 250.427 158.699 250.492C158.764 250.557 158.797 250.641 158.797 250.744V256.442C158.797 257.749 158.447 258.724 157.747 259.368C157.056 260.012 156.081 260.334 154.821 260.334ZM161.231 260.194C161.137 260.194 161.058 260.161 160.993 260.096C160.927 260.031 160.895 259.951 160.895 259.858V250.744C160.895 250.641 160.923 250.557 160.979 250.492C161.044 250.427 161.128 250.394 161.231 250.394H167.321C167.423 250.394 167.507 250.427 167.573 250.492C167.638 250.557 167.671 250.641 167.671 250.744V251.752C167.671 251.845 167.638 251.925 167.573 251.99C167.507 252.055 167.423 252.088 167.321 252.088H162.841V254.72H167.041C167.143 254.72 167.227 254.753 167.293 254.818C167.358 254.883 167.391 254.963 167.391 255.056V256.064C167.391 256.157 167.358 256.237 167.293 256.302C167.227 256.367 167.143 256.4 167.041 256.4H162.841V259.858C162.841 259.951 162.808 260.031 162.743 260.096C162.677 260.161 162.593 260.194 162.491 260.194H161.231ZM169.653 260.194C169.559 260.194 169.48 260.161 169.415 260.096C169.349 260.031 169.317 259.951 169.317 259.858V250.744C169.317 250.641 169.345 250.557 169.401 250.492C169.466 250.427 169.55 250.394 169.653 250.394H175.743C175.845 250.394 175.929 250.427 175.995 250.492C176.06 250.557 176.093 250.641 176.093 250.744V251.752C176.093 251.845 176.06 251.925 175.995 251.99C175.929 252.055 175.845 252.088 175.743 252.088H171.263V254.72H175.463C175.565 254.72 175.649 254.753 175.715 254.818C175.78 254.883 175.813 254.963 175.813 255.056V256.064C175.813 256.157 175.78 256.237 175.715 256.302C175.649 256.367 175.565 256.4 175.463 256.4H171.263V259.858C171.263 259.951 171.23 260.031 171.165 260.096C171.099 260.161 171.015 260.194 170.913 260.194H169.653ZM178.074 260.194C177.981 260.194 177.902 260.161 177.836 260.096C177.771 260.031 177.738 259.951 177.738 259.858V250.744C177.738 250.641 177.766 250.557 177.822 250.492C177.888 250.427 177.972 250.394 178.074 250.394H184.248C184.351 250.394 184.435 250.427 184.5 250.492C184.566 250.557 184.598 250.641 184.598 250.744V251.682C184.598 251.785 184.566 251.869 184.5 251.934C184.435 251.99 184.351 252.018 184.248 252.018H179.656V254.468H183.94C184.043 254.468 184.127 254.501 184.192 254.566C184.258 254.631 184.29 254.715 184.29 254.818V255.7C184.29 255.803 184.258 255.887 184.192 255.952C184.127 256.008 184.043 256.036 183.94 256.036H179.656V258.57H184.36C184.463 258.57 184.547 258.603 184.612 258.668C184.678 258.724 184.71 258.803 184.71 258.906V259.858C184.71 259.961 184.678 260.045 184.612 260.11C184.547 260.166 184.463 260.194 184.36 260.194H178.074ZM186.797 260.194C186.704 260.194 186.624 260.161 186.559 260.096C186.494 260.031 186.461 259.951 186.461 259.858V250.744C186.461 250.641 186.489 250.557 186.545 250.492C186.61 250.427 186.694 250.394 186.797 250.394H190.423C191.571 250.394 192.467 250.66 193.111 251.192C193.764 251.724 194.091 252.48 194.091 253.46C194.091 254.141 193.928 254.715 193.601 255.182C193.274 255.639 192.817 255.971 192.229 256.176L194.259 259.746C194.287 259.802 194.301 259.853 194.301 259.9C194.301 259.984 194.268 260.054 194.203 260.11C194.147 260.166 194.082 260.194 194.007 260.194H192.719C192.57 260.194 192.453 260.161 192.369 260.096C192.285 260.021 192.21 259.928 192.145 259.816L190.353 256.498H188.435V259.858C188.435 259.951 188.402 260.031 188.337 260.096C188.272 260.161 188.188 260.194 188.085 260.194H186.797ZM190.381 254.902C190.941 254.902 191.361 254.781 191.641 254.538C191.921 254.286 192.061 253.922 192.061 253.446C192.061 252.97 191.921 252.606 191.641 252.354C191.361 252.093 190.941 251.962 190.381 251.962H188.435V254.902H190.381Z" fill="#01B7BB"/>
<rect x="103.247" y="224.44" width="128.507" height="62.5068" rx="5.97287" stroke="url(#paint2_linear_837_5789)" stroke-width="1.49322" stroke-linecap="round" stroke-linejoin="round" stroke-dasharray="4.48 4.48"/>
</g>
<path d="M168.247 290.82C168.247 290.407 167.912 290.073 167.5 290.073C167.088 290.073 166.753 290.407 166.753 290.82L168.247 290.82ZM166.972 309.348C167.264 309.639 167.736 309.639 168.028 309.348L172.779 304.596C173.071 304.305 173.071 303.832 172.779 303.541C172.488 303.249 172.015 303.249 171.723 303.541L167.5 307.764L163.277 303.541C162.985 303.249 162.512 303.249 162.221 303.541C161.929 303.832 161.929 304.305 162.221 304.596L166.972 309.348ZM166.753 290.82L166.753 308.82L168.247 308.82L168.247 290.82L166.753 290.82Z" fill="white" style="mix-blend-mode:overlay"/>
<g filter="url(#filter4_b_837_5789)">
<rect x="54.0557" y="311.946" width="226.888" height="93.62" rx="6.71948" fill="#29313C" fill-opacity="0.7"/>
<path d="M143.741 354.396C142.528 354.396 141.59 354.079 140.927 353.444C140.265 352.8 139.915 351.834 139.877 350.546C139.868 350.266 139.863 349.869 139.863 349.356C139.863 348.843 139.868 348.451 139.877 348.18C139.915 346.911 140.274 345.949 140.955 345.296C141.646 344.643 142.575 344.316 143.741 344.316C144.908 344.316 145.832 344.643 146.513 345.296C147.195 345.949 147.554 346.911 147.591 348.18C147.61 348.721 147.619 349.113 147.619 349.356C147.619 349.589 147.61 349.986 147.591 350.546C147.554 351.834 147.204 352.8 146.541 353.444C145.888 354.079 144.955 354.396 143.741 354.396ZM143.741 353.234C144.488 353.234 145.085 353.01 145.533 352.562C145.981 352.105 146.224 351.409 146.261 350.476C146.28 349.916 146.289 349.543 146.289 349.356C146.289 349.151 146.28 348.777 146.261 348.236C146.224 347.303 145.981 346.607 145.533 346.15C145.085 345.693 144.488 345.464 143.741 345.464C142.995 345.464 142.393 345.693 141.935 346.15C141.487 346.607 141.249 347.303 141.221 348.236C141.212 348.507 141.207 348.88 141.207 349.356C141.207 349.823 141.212 350.196 141.221 350.476C141.249 351.409 141.487 352.105 141.935 352.562C142.383 353.01 142.985 353.234 143.741 353.234ZM153.93 354.396C152.726 354.396 151.798 354.074 151.144 353.43C150.491 352.777 150.164 351.792 150.164 350.476V344.792C150.164 344.689 150.192 344.61 150.248 344.554C150.304 344.489 150.379 344.456 150.472 344.456H151.144C151.247 344.456 151.326 344.489 151.382 344.554C151.448 344.61 151.48 344.689 151.48 344.792V350.504C151.48 351.419 151.69 352.1 152.11 352.548C152.54 352.996 153.146 353.22 153.93 353.22C154.705 353.22 155.302 352.996 155.722 352.548C156.152 352.091 156.366 351.409 156.366 350.504V344.792C156.366 344.689 156.394 344.61 156.45 344.554C156.506 344.489 156.586 344.456 156.688 344.456H157.36C157.454 344.456 157.528 344.489 157.584 344.554C157.65 344.61 157.682 344.689 157.682 344.792V350.476C157.682 351.792 157.356 352.777 156.702 353.43C156.058 354.074 155.134 354.396 153.93 354.396ZM163.075 354.256C162.982 354.256 162.903 354.228 162.837 354.172C162.781 354.107 162.753 354.027 162.753 353.934V345.66H160.051C159.958 345.66 159.879 345.632 159.813 345.576C159.757 345.511 159.729 345.431 159.729 345.338V344.792C159.729 344.689 159.757 344.61 159.813 344.554C159.879 344.489 159.958 344.456 160.051 344.456H166.771C166.874 344.456 166.953 344.489 167.009 344.554C167.065 344.61 167.093 344.689 167.093 344.792V345.338C167.093 345.431 167.061 345.511 166.995 345.576C166.939 345.632 166.865 345.66 166.771 345.66H164.083V353.934C164.083 354.027 164.051 354.107 163.985 354.172C163.92 354.228 163.841 354.256 163.747 354.256H163.075ZM169.559 354.256C169.466 354.256 169.391 354.228 169.335 354.172C169.279 354.107 169.251 354.027 169.251 353.934V344.792C169.251 344.689 169.279 344.61 169.335 344.554C169.391 344.489 169.466 344.456 169.559 344.456H173.101C174.156 344.456 174.982 344.713 175.579 345.226C176.186 345.73 176.489 346.467 176.489 347.438C176.489 348.409 176.186 349.146 175.579 349.65C174.982 350.154 174.156 350.406 173.101 350.406H170.581V353.934C170.581 354.027 170.549 354.107 170.483 354.172C170.427 354.228 170.353 354.256 170.259 354.256H169.559ZM173.031 349.272C174.441 349.272 175.145 348.661 175.145 347.438C175.145 346.841 174.968 346.383 174.613 346.066C174.268 345.749 173.741 345.59 173.031 345.59H170.581V349.272H173.031ZM182.462 354.396C181.258 354.396 180.329 354.074 179.676 353.43C179.023 352.777 178.696 351.792 178.696 350.476V344.792C178.696 344.689 178.724 344.61 178.78 344.554C178.836 344.489 178.911 344.456 179.004 344.456H179.676C179.779 344.456 179.858 344.489 179.914 344.554C179.979 344.61 180.012 344.689 180.012 344.792V350.504C180.012 351.419 180.222 352.1 180.642 352.548C181.071 352.996 181.678 353.22 182.462 353.22C183.237 353.22 183.834 352.996 184.254 352.548C184.683 352.091 184.898 351.409 184.898 350.504V344.792C184.898 344.689 184.926 344.61 184.982 344.554C185.038 344.489 185.117 344.456 185.22 344.456H185.892C185.985 344.456 186.06 344.489 186.116 344.554C186.181 344.61 186.214 344.689 186.214 344.792V350.476C186.214 351.792 185.887 352.777 185.234 353.43C184.59 354.074 183.666 354.396 182.462 354.396ZM191.607 354.256C191.513 354.256 191.434 354.228 191.369 354.172C191.313 354.107 191.285 354.027 191.285 353.934V345.66H188.583C188.489 345.66 188.41 345.632 188.345 345.576C188.289 345.511 188.261 345.431 188.261 345.338V344.792C188.261 344.689 188.289 344.61 188.345 344.554C188.41 344.489 188.489 344.456 188.583 344.456H195.303C195.405 344.456 195.485 344.489 195.541 344.554C195.597 344.61 195.625 344.689 195.625 344.792V345.338C195.625 345.431 195.592 345.511 195.527 345.576C195.471 345.632 195.396 345.66 195.303 345.66H192.615V353.934C192.615 354.027 192.582 354.107 192.517 354.172C192.451 354.228 192.372 354.256 192.279 354.256H191.607Z" fill="white" fill-opacity="0.8"/>
<path d="M104.226 372.256C104.133 372.256 104.053 372.223 103.988 372.158C103.923 372.093 103.89 372.013 103.89 371.92V362.806C103.89 362.703 103.918 362.619 103.974 362.554C104.039 362.489 104.123 362.456 104.226 362.456H107.642C110.395 362.456 111.8 363.725 111.856 366.264C111.875 366.805 111.884 367.169 111.884 367.356C111.884 367.533 111.875 367.893 111.856 368.434C111.819 369.741 111.464 370.707 110.792 371.332C110.129 371.948 109.103 372.256 107.712 372.256H104.226ZM107.642 370.632C108.417 370.632 108.977 370.459 109.322 370.114C109.667 369.769 109.849 369.195 109.868 368.392C109.887 367.832 109.896 367.482 109.896 367.342C109.896 367.193 109.887 366.847 109.868 366.306C109.849 365.541 109.658 364.981 109.294 364.626C108.93 364.262 108.356 364.08 107.572 364.08H105.864V370.632H107.642ZM112.94 372.256C112.856 372.256 112.786 372.228 112.73 372.172C112.674 372.116 112.646 372.046 112.646 371.962L112.674 371.836L116.034 362.806C116.128 362.573 116.296 362.456 116.538 362.456H118.078C118.321 362.456 118.489 362.573 118.582 362.806L121.942 371.836L121.97 371.962C121.97 372.046 121.938 372.116 121.872 372.172C121.816 372.228 121.751 372.256 121.676 372.256H120.43C120.234 372.256 120.099 372.167 120.024 371.99L119.38 370.296H115.236L114.592 371.99C114.518 372.167 114.382 372.256 114.186 372.256H112.94ZM115.726 368.672H118.89L117.308 364.36L115.726 368.672ZM124.73 372.256C124.636 372.256 124.557 372.223 124.492 372.158C124.426 372.093 124.394 372.013 124.394 371.92V364.206H121.804C121.71 364.206 121.631 364.173 121.566 364.108C121.5 364.043 121.468 363.959 121.468 363.856V362.806C121.468 362.703 121.496 362.619 121.552 362.554C121.617 362.489 121.701 362.456 121.804 362.456H128.958C129.06 362.456 129.144 362.489 129.21 362.554C129.275 362.619 129.308 362.703 129.308 362.806V363.856C129.308 363.959 129.275 364.043 129.21 364.108C129.144 364.173 129.06 364.206 128.958 364.206H126.382V371.92C126.382 372.013 126.349 372.093 126.284 372.158C126.228 372.223 126.148 372.256 126.046 372.256H124.73ZM129.1 372.256C129.016 372.256 128.946 372.228 128.89 372.172C128.834 372.116 128.806 372.046 128.806 371.962L128.834 371.836L132.194 362.806C132.288 362.573 132.456 362.456 132.698 362.456H134.238C134.481 362.456 134.649 362.573 134.742 362.806L138.102 371.836L138.13 371.962C138.13 372.046 138.098 372.116 138.032 372.172C137.976 372.228 137.911 372.256 137.836 372.256H136.59C136.394 372.256 136.259 372.167 136.184 371.99L135.54 370.296H131.396L130.752 371.99C130.678 372.167 130.542 372.256 130.346 372.256H129.1ZM131.886 368.672H135.05L133.468 364.36L131.886 368.672ZM142.575 372.256C142.482 372.256 142.403 372.223 142.337 372.158C142.272 372.093 142.239 372.013 142.239 371.92V362.806C142.239 362.703 142.267 362.619 142.323 362.554C142.389 362.489 142.473 362.456 142.575 362.456H145.991C148.745 362.456 150.149 363.725 150.205 366.264C150.224 366.805 150.233 367.169 150.233 367.356C150.233 367.533 150.224 367.893 150.205 368.434C150.168 369.741 149.813 370.707 149.141 371.332C148.479 371.948 147.452 372.256 146.061 372.256H142.575ZM145.991 370.632C146.766 370.632 147.326 370.459 147.671 370.114C148.017 369.769 148.199 369.195 148.217 368.392C148.236 367.832 148.245 367.482 148.245 367.342C148.245 367.193 148.236 366.847 148.217 366.306C148.199 365.541 148.007 364.981 147.643 364.626C147.279 364.262 146.705 364.08 145.921 364.08H144.213V370.632H145.991ZM152.419 372.256C152.326 372.256 152.247 372.223 152.181 372.158C152.116 372.093 152.083 372.013 152.083 371.92V362.806C152.083 362.703 152.111 362.619 152.167 362.554C152.233 362.489 152.317 362.456 152.419 362.456H158.593C158.696 362.456 158.78 362.489 158.845 362.554C158.911 362.619 158.943 362.703 158.943 362.806V363.744C158.943 363.847 158.911 363.931 158.845 363.996C158.78 364.052 158.696 364.08 158.593 364.08H154.001V366.53H158.285C158.388 366.53 158.472 366.563 158.537 366.628C158.603 366.693 158.635 366.777 158.635 366.88V367.762C158.635 367.865 158.603 367.949 158.537 368.014C158.472 368.07 158.388 368.098 158.285 368.098H154.001V370.632H158.705C158.808 370.632 158.892 370.665 158.957 370.73C159.023 370.786 159.055 370.865 159.055 370.968V371.92C159.055 372.023 159.023 372.107 158.957 372.172C158.892 372.228 158.808 372.256 158.705 372.256H152.419ZM164.222 372.396C163.382 372.396 162.663 372.27 162.066 372.018C161.469 371.766 161.016 371.435 160.708 371.024C160.4 370.613 160.237 370.165 160.218 369.68C160.218 369.605 160.246 369.54 160.302 369.484C160.358 369.419 160.428 369.386 160.512 369.386H161.786C161.889 369.386 161.973 369.409 162.038 369.456C162.103 369.503 162.164 369.568 162.22 369.652C162.313 369.969 162.523 370.235 162.85 370.45C163.186 370.665 163.643 370.772 164.222 370.772C164.875 370.772 165.365 370.665 165.692 370.45C166.028 370.226 166.196 369.923 166.196 369.54C166.196 369.288 166.112 369.078 165.944 368.91C165.776 368.742 165.519 368.597 165.174 368.476C164.838 368.345 164.334 368.191 163.662 368.014C162.561 367.753 161.753 367.407 161.24 366.978C160.727 366.549 160.47 365.933 160.47 365.13C160.47 364.589 160.619 364.108 160.918 363.688C161.217 363.259 161.641 362.923 162.192 362.68C162.752 362.437 163.401 362.316 164.138 362.316C164.913 362.316 165.58 362.451 166.14 362.722C166.709 362.993 167.139 363.333 167.428 363.744C167.727 364.145 167.885 364.547 167.904 364.948C167.904 365.023 167.876 365.093 167.82 365.158C167.764 365.214 167.694 365.242 167.61 365.242H166.28C166.075 365.242 165.935 365.158 165.86 364.99C165.813 364.691 165.631 364.444 165.314 364.248C164.997 364.043 164.605 363.94 164.138 363.94C163.625 363.94 163.219 364.038 162.92 364.234C162.631 364.43 162.486 364.715 162.486 365.088C162.486 365.34 162.561 365.55 162.71 365.718C162.859 365.886 163.093 366.035 163.41 366.166C163.727 366.287 164.189 366.427 164.796 366.586C165.627 366.773 166.285 366.983 166.77 367.216C167.265 367.449 167.629 367.743 167.862 368.098C168.095 368.453 168.212 368.905 168.212 369.456C168.212 370.063 168.044 370.59 167.708 371.038C167.381 371.477 166.915 371.813 166.308 372.046C165.711 372.279 165.015 372.396 164.222 372.396ZM172.185 372.256C172.091 372.256 172.012 372.223 171.947 372.158C171.881 372.093 171.849 372.013 171.849 371.92V364.206H169.259C169.165 364.206 169.086 364.173 169.021 364.108C168.955 364.043 168.923 363.959 168.923 363.856V362.806C168.923 362.703 168.951 362.619 169.007 362.554C169.072 362.489 169.156 362.456 169.259 362.456H176.413C176.515 362.456 176.599 362.489 176.665 362.554C176.73 362.619 176.763 362.703 176.763 362.806V363.856C176.763 363.959 176.73 364.043 176.665 364.108C176.599 364.173 176.515 364.206 176.413 364.206H173.837V371.92C173.837 372.013 173.804 372.093 173.739 372.158C173.683 372.223 173.603 372.256 173.501 372.256H172.185ZM178.519 372.256C178.425 372.256 178.346 372.223 178.281 372.158C178.215 372.093 178.183 372.013 178.183 371.92V362.792C178.183 362.689 178.215 362.61 178.281 362.554C178.346 362.489 178.425 362.456 178.519 362.456H179.863C179.965 362.456 180.045 362.489 180.101 362.554C180.166 362.61 180.199 362.689 180.199 362.792V371.92C180.199 372.013 180.166 372.093 180.101 372.158C180.045 372.223 179.965 372.256 179.863 372.256H178.519ZM182.716 372.256C182.623 372.256 182.543 372.223 182.478 372.158C182.413 372.093 182.38 372.013 182.38 371.92V362.806C182.38 362.703 182.408 362.619 182.464 362.554C182.529 362.489 182.613 362.456 182.716 362.456H183.808C183.985 362.456 184.121 362.535 184.214 362.694L188.218 368.91V362.806C188.218 362.703 188.246 362.619 188.302 362.554C188.367 362.489 188.451 362.456 188.554 362.456H189.758C189.861 362.456 189.945 362.489 190.01 362.554C190.075 362.619 190.108 362.703 190.108 362.806V371.906C190.108 372.009 190.075 372.093 190.01 372.158C189.945 372.223 189.865 372.256 189.772 372.256H188.666C188.479 372.256 188.339 372.177 188.246 372.018L184.256 365.942V371.92C184.256 372.013 184.223 372.093 184.158 372.158C184.102 372.223 184.023 372.256 183.92 372.256H182.716ZM191.677 372.256C191.593 372.256 191.523 372.228 191.467 372.172C191.411 372.116 191.383 372.046 191.383 371.962L191.411 371.836L194.771 362.806C194.864 362.573 195.032 362.456 195.275 362.456H196.815C197.057 362.456 197.225 362.573 197.319 362.806L200.679 371.836L200.707 371.962C200.707 372.046 200.674 372.116 200.609 372.172C200.553 372.228 200.487 372.256 200.413 372.256H199.167C198.971 372.256 198.835 372.167 198.761 371.99L198.117 370.296H193.973L193.329 371.99C193.254 372.167 193.119 372.256 192.923 372.256H191.677ZM194.463 368.672H197.627L196.045 364.36L194.463 368.672ZM203.466 372.256C203.373 372.256 203.293 372.223 203.228 372.158C203.163 372.093 203.13 372.013 203.13 371.92V364.206H200.54C200.447 364.206 200.367 364.173 200.302 364.108C200.237 364.043 200.204 363.959 200.204 363.856V362.806C200.204 362.703 200.232 362.619 200.288 362.554C200.353 362.489 200.437 362.456 200.54 362.456H207.694C207.797 362.456 207.881 362.489 207.946 362.554C208.011 362.619 208.044 362.703 208.044 362.806V363.856C208.044 363.959 208.011 364.043 207.946 364.108C207.881 364.173 207.797 364.206 207.694 364.206H205.118V371.92C205.118 372.013 205.085 372.093 205.02 372.158C204.964 372.223 204.885 372.256 204.782 372.256H203.466ZM209.8 372.256C209.707 372.256 209.627 372.223 209.562 372.158C209.497 372.093 209.464 372.013 209.464 371.92V362.792C209.464 362.689 209.497 362.61 209.562 362.554C209.627 362.489 209.707 362.456 209.8 362.456H211.144C211.247 362.456 211.326 362.489 211.382 362.554C211.447 362.61 211.48 362.689 211.48 362.792V371.92C211.48 372.013 211.447 372.093 211.382 372.158C211.326 372.223 211.247 372.256 211.144 372.256H209.8ZM217.441 372.396C216.163 372.396 215.169 372.074 214.459 371.43C213.75 370.786 213.377 369.829 213.339 368.56C213.33 368.289 213.325 367.893 213.325 367.37C213.325 366.838 213.33 366.437 213.339 366.166C213.377 364.925 213.759 363.973 214.487 363.31C215.215 362.647 216.2 362.316 217.441 362.316C218.673 362.316 219.653 362.647 220.381 363.31C221.119 363.973 221.506 364.925 221.543 366.166C221.562 366.707 221.571 367.109 221.571 367.37C221.571 367.622 221.562 368.019 221.543 368.56C221.506 369.829 221.128 370.786 220.409 371.43C219.7 372.074 218.711 372.396 217.441 372.396ZM217.441 370.772C218.067 370.772 218.561 370.585 218.925 370.212C219.289 369.839 219.485 369.265 219.513 368.49C219.532 367.93 219.541 367.552 219.541 367.356C219.541 367.141 219.532 366.763 219.513 366.222C219.485 365.457 219.285 364.887 218.911 364.514C218.538 364.131 218.048 363.94 217.441 363.94C216.825 363.94 216.331 364.131 215.957 364.514C215.584 364.887 215.388 365.457 215.369 366.222C215.36 366.493 215.355 366.871 215.355 367.356C215.355 367.832 215.36 368.21 215.369 368.49C215.388 369.255 215.579 369.829 215.943 370.212C216.317 370.585 216.816 370.772 217.441 370.772ZM223.732 372.256C223.638 372.256 223.559 372.223 223.494 372.158C223.428 372.093 223.396 372.013 223.396 371.92V362.806C223.396 362.703 223.424 362.619 223.48 362.554C223.545 362.489 223.629 362.456 223.732 362.456H224.824C225.001 362.456 225.136 362.535 225.23 362.694L229.234 368.91V362.806C229.234 362.703 229.262 362.619 229.318 362.554C229.383 362.489 229.467 362.456 229.57 362.456H230.774C230.876 362.456 230.96 362.489 231.026 362.554C231.091 362.619 231.124 362.703 231.124 362.806V371.906C231.124 372.009 231.091 372.093 231.026 372.158C230.96 372.223 230.881 372.256 230.788 372.256H229.682C229.495 372.256 229.355 372.177 229.262 372.018L225.272 365.942V371.92C225.272 372.013 225.239 372.093 225.174 372.158C225.118 372.223 225.038 372.256 224.936 372.256H223.732Z" fill="#01B7BB"/>
<rect x="54.8023" y="312.692" width="225.395" height="92.1268" rx="5.97287" stroke="url(#paint3_linear_837_5789)" stroke-width="1.49322" stroke-linecap="round" stroke-linejoin="round" stroke-dasharray="4.48 4.48"/>
</g>
</g>
<defs>
<filter id="filter0_dddddd_837_5789" x="-17.5062" y="0.0631123" width="370.012" height="423.009" filterUnits="userSpaceOnUse" color-interpolation-filters="sRGB">
<feFlood flood-opacity="0" result="BackgroundImageFix"/>
<feColorMatrix in="SourceAlpha" type="matrix" values="0 0 0 0 0 0 0 0 0 0 0 0 0 0 0 0 0 0 127 0" result="hardAlpha"/>
<feOffset dy="-0.311427"/>
<feGaussianBlur stdDeviation="0.242221"/>
<feColorMatrix type="matrix" values="0 0 0 0 0.286275 0 0 0 0 0.85098 0 0 0 0 0.992157 0 0 0 0.0562291 0"/>
<feBlend mode="normal" in2="BackgroundImageFix" result="effect1_dropShadow_837_5789"/>
<feColorMatrix in="SourceAlpha" type="matrix" values="0 0 0 0 0 0 0 0 0 0 0 0 0 0 0 0 0 0 127 0" result="hardAlpha"/>
<feOffset dy="-0.748403"/>
<feGaussianBlur stdDeviation="0.582091"/>
<feColorMatrix type="matrix" values="0 0 0 0 0.286275 0 0 0 0 0.85098 0 0 0 0 0.992157 0 0 0 0.0807786 0"/>
<feBlend mode="normal" in2="effect1_dropShadow_837_5789" result="effect2_dropShadow_837_5789"/>
<feColorMatrix in="SourceAlpha" type="matrix" values="0 0 0 0 0 0 0 0 0 0 0 0 0 0 0 0 0 0 127 0" result="hardAlpha"/>
<feOffset dy="-1.40918"/>
<feGaussianBlur stdDeviation="1.09603"/>
<feColorMatrix type="matrix" values="0 0 0 0 0.286275 0 0 0 0 0.85098 0 0 0 0 0.992157 0 0 0 0.1 0"/>
<feBlend mode="normal" in2="effect2_dropShadow_837_5789" result="effect3_dropShadow_837_5789"/>
<feColorMatrix in="SourceAlpha" type="matrix" values="0 0 0 0 0 0 0 0 0 0 0 0 0 0 0 0 0 0 127 0" result="hardAlpha"/>
<feOffset dy="-2.51373"/>
<feGaussianBlur stdDeviation="1.95512"/>
<feColorMatrix type="matrix" values="0 0 0 0 0.286275 0 0 0 0 0.85098 0 0 0 0 0.992157 0 0 0 0.119221 0"/>
<feBlend mode="normal" in2="effect3_dropShadow_837_5789" result="effect4_dropShadow_837_5789"/>
<feColorMatrix in="SourceAlpha" type="matrix" values="0 0 0 0 0 0 0 0 0 0 0 0 0 0 0 0 0 0 127 0" result="hardAlpha"/>
<feOffset/>
<feGaussianBlur stdDeviation="3.65684"/>
<feColorMatrix type="matrix" values="0 0 0 0 0.286275 0 0 0 0 0.85098 0 0 0 0 0.992157 0 0 0 0.143771 0"/>
<feBlend mode="normal" in2="effect4_dropShadow_837_5789" result="effect5_dropShadow_837_5789"/>
<feColorMatrix in="SourceAlpha" type="matrix" values="0 0 0 0 0 0 0 0 0 0 0 0 0 0 0 0 0 0 127 0" result="hardAlpha"/>
<feOffset/>
<feGaussianBlur stdDeviation="8.75311"/>
<feColorMatrix type="matrix" values="0 0 0 0 0.286275 0 0 0 0 0.85098 0 0 0 0 0.992157 0 0 0 0.2 0"/>
<feBlend mode="normal" in2="effect5_dropShadow_837_5789" result="effect6_dropShadow_837_5789"/>
<feBlend mode="normal" in="SourceGraphic" in2="effect6_dropShadow_837_5789" result="shape"/>
</filter>
<filter id="filter1_b_837_5789" x="48.0557" y="11.5693" width="238.888" height="105.62" filterUnits="userSpaceOnUse" color-interpolation-filters="sRGB">
<feFlood flood-opacity="0" result="BackgroundImageFix"/>
<feGaussianBlur in="BackgroundImage" stdDeviation="3"/>
<feComposite in2="SourceAlpha" operator="in" result="effect1_backgroundBlur_837_5789"/>
<feBlend mode="normal" in="SourceGraphic" in2="effect1_backgroundBlur_837_5789" result="shape"/>
</filter>
<filter id="filter2_b_837_5789" x="96.5" y="129.441" width="142" height="76" filterUnits="userSpaceOnUse" color-interpolation-filters="sRGB">
<feFlood flood-opacity="0" result="BackgroundImageFix"/>
<feGaussianBlur in="BackgroundImage" stdDeviation="3"/>
<feComposite in2="SourceAlpha" operator="in" result="effect1_backgroundBlur_837_5789"/>
<feBlend mode="normal" in="SourceGraphic" in2="effect1_backgroundBlur_837_5789" result="shape"/>
</filter>
<filter id="filter3_b_837_5789" x="96.5" y="217.694" width="142" height="76" filterUnits="userSpaceOnUse" color-interpolation-filters="sRGB">
<feFlood flood-opacity="0" result="BackgroundImageFix"/>
<feGaussianBlur in="BackgroundImage" stdDeviation="3"/>
<feComposite in2="SourceAlpha" operator="in" result="effect1_backgroundBlur_837_5789"/>
<feBlend mode="normal" in="SourceGraphic" in2="effect1_backgroundBlur_837_5789" result="shape"/>
</filter>
<filter id="filter4_b_837_5789" x="48.0557" y="305.946" width="238.888" height="105.62" filterUnits="userSpaceOnUse" color-interpolation-filters="sRGB">
<feFlood flood-opacity="0" result="BackgroundImageFix"/>
<feGaussianBlur in="BackgroundImage" stdDeviation="3"/>
<feComposite in2="SourceAlpha" operator="in" result="effect1_backgroundBlur_837_5789"/>
<feBlend mode="normal" in="SourceGraphic" in2="effect1_backgroundBlur_837_5789" result="shape"/>
</filter>
<linearGradient id="paint0_linear_837_5789" x1="-44.4264" y1="-88.4748" x2="170.565" y2="270.727" gradientUnits="userSpaceOnUse">
<stop offset="0.0677083" stop-color="#3D65AF"/>
<stop offset="0.354167" stop-color="#2372B8"/>
<stop offset="0.807292" stop-color="#00B8BB"/>
</linearGradient>
<linearGradient id="paint1_linear_837_5789" x1="46.0728" y1="62.9481" x2="203.807" y2="283.831" gradientUnits="userSpaceOnUse">
<stop offset="0.0677083" stop-color="#3D65AF"/>
<stop offset="0.354167" stop-color="#2372B8"/>
<stop offset="0.807292" stop-color="#00B8BB"/>
</linearGradient>
<linearGradient id="paint2_linear_837_5789" x1="46.0728" y1="151.201" x2="203.807" y2="372.083" gradientUnits="userSpaceOnUse">
<stop offset="0.0677083" stop-color="#3D65AF"/>
<stop offset="0.354167" stop-color="#2372B8"/>
<stop offset="0.807292" stop-color="#00B8BB"/>
</linearGradient>
<linearGradient id="paint3_linear_837_5789" x1="-44.4264" y1="205.902" x2="170.565" y2="565.103" gradientUnits="userSpaceOnUse">
<stop offset="0.0677083" stop-color="#3D65AF"/>
<stop offset="0.354167" stop-color="#2372B8"/>
<stop offset="0.807292" stop-color="#00B8BB"/>
</linearGradient>
</defs>
</svg>
