<svg width="298" height="186" viewBox="0 0 298 186" fill="none" xmlns="http://www.w3.org/2000/svg">
<path d="M84.6866 130.612C84.3559 130.612 84.0749 130.496 83.8434 130.264C83.6119 130.033 83.4962 129.752 83.4962 129.421V103.828L76.0066 109.581C75.8082 109.747 75.5602 109.829 75.2626 109.829C74.8658 109.829 74.5517 109.664 74.3202 109.333L72.1874 106.556C72.0221 106.324 71.9394 106.093 71.9394 105.861C71.9394 105.464 72.1213 105.134 72.485 104.869L83.5954 96.2388C83.9591 96.0073 84.3725 95.8916 84.8354 95.8916H89.2994C89.6301 95.8916 89.9111 96.0073 90.1426 96.2388C90.3741 96.4702 90.4898 96.7513 90.4898 97.082V129.421C90.4898 129.752 90.3741 130.033 90.1426 130.264C89.9111 130.496 89.6301 130.612 89.2994 130.612H84.6866ZM97.3776 130.612C97.047 130.612 96.7659 130.496 96.5344 130.264C96.303 130.033 96.1872 129.752 96.1872 129.421V126.842C96.1872 125.916 96.6006 125.139 97.4272 124.511L105.165 116.823C107.513 114.971 109.315 113.467 110.571 112.309C111.861 111.119 112.82 110.028 113.448 109.036C114.076 108.044 114.39 107.068 114.39 106.109C114.39 104.555 113.977 103.332 113.15 102.439C112.324 101.546 111.067 101.1 109.381 101.1C107.727 101.1 106.421 101.596 105.462 102.588C104.537 103.547 103.958 104.803 103.726 106.357C103.627 106.754 103.429 107.052 103.131 107.25C102.867 107.415 102.569 107.498 102.238 107.498H97.7744C97.4768 107.498 97.2288 107.399 97.0304 107.2C96.832 107.002 96.7328 106.754 96.7328 106.456C96.799 104.505 97.328 102.687 98.32 101C99.3451 99.2809 100.8 97.9086 102.685 96.8836C104.57 95.8254 106.785 95.2964 109.331 95.2964C111.977 95.2964 114.225 95.7593 116.077 96.6852C117.929 97.578 119.317 98.818 120.243 100.405C121.169 101.992 121.632 103.795 121.632 105.812C121.632 108.027 121.004 110.044 119.747 111.863C118.524 113.648 116.606 115.566 113.994 117.616L107.099 124.61H121.136C121.5 124.61 121.797 124.726 122.029 124.957C122.26 125.189 122.376 125.486 122.376 125.85V129.421C122.376 129.785 122.26 130.083 122.029 130.314C121.797 130.512 121.5 130.612 121.136 130.612H97.3776ZM139.94 131.157C137.196 131.157 134.815 130.694 132.798 129.768C130.814 128.843 129.309 127.619 128.284 126.098C127.259 124.577 126.714 122.94 126.647 121.188V121.088C126.647 120.824 126.747 120.609 126.945 120.444C127.177 120.245 127.425 120.146 127.689 120.146H132.401C133.162 120.146 133.641 120.477 133.839 121.138C134.302 122.593 135.063 123.668 136.121 124.362C137.212 125.056 138.485 125.404 139.94 125.404C141.792 125.404 143.313 124.841 144.503 123.717C145.727 122.593 146.339 121.039 146.339 119.055C146.339 117.269 145.727 115.831 144.503 114.74C143.313 113.615 141.792 113.053 139.94 113.053C138.948 113.053 138.138 113.185 137.51 113.45C136.882 113.715 136.27 114.078 135.675 114.541C135.609 114.574 135.46 114.673 135.228 114.839C134.997 115.004 134.782 115.12 134.583 115.186C134.418 115.252 134.236 115.285 134.038 115.285H129.375C129.078 115.285 128.813 115.186 128.582 114.988C128.383 114.756 128.284 114.492 128.284 114.194L129.971 97.2804C130.004 96.8505 130.153 96.5198 130.417 96.2884C130.715 96.0238 131.062 95.8916 131.459 95.8916H150.108C150.472 95.8916 150.753 96.0073 150.951 96.2388C151.183 96.4372 151.299 96.7182 151.299 97.082V100.455C151.299 100.785 151.183 101.067 150.951 101.298C150.753 101.529 150.472 101.645 150.108 101.645H135.774L134.98 109.68C135.741 109.184 136.617 108.788 137.609 108.49C138.601 108.159 139.891 107.994 141.478 107.994C143.627 107.994 145.611 108.457 147.43 109.383C149.282 110.276 150.753 111.582 151.844 113.301C152.969 114.988 153.531 116.955 153.531 119.204C153.531 121.617 152.969 123.734 151.844 125.552C150.72 127.338 149.133 128.727 147.083 129.719C145.033 130.678 142.652 131.157 139.94 131.157ZM164.285 130.612C164.108 130.612 163.957 130.55 163.833 130.425C163.709 130.301 163.647 130.151 163.647 129.973V112.657C163.647 112.462 163.7 112.302 163.806 112.178C163.93 112.054 164.09 111.992 164.285 111.992H166.44C166.777 111.992 167.043 112.16 167.238 112.497L172.371 122.02L177.505 112.497C177.7 112.16 177.966 111.992 178.303 111.992H180.431C180.626 111.992 180.786 112.054 180.91 112.178C181.034 112.302 181.096 112.462 181.096 112.657V129.973C181.096 130.168 181.034 130.328 180.91 130.452C180.786 130.558 180.626 130.612 180.431 130.612H178.144C177.966 130.612 177.816 130.55 177.691 130.425C177.567 130.301 177.505 130.151 177.505 129.973V118.535L173.808 125.558C173.613 125.948 173.32 126.143 172.93 126.143H171.813C171.44 126.143 171.139 125.948 170.908 125.558L167.211 118.535V129.973C167.211 130.151 167.149 130.301 167.025 130.425C166.918 130.55 166.768 130.612 166.573 130.612H164.285ZM185.872 130.612C185.694 130.612 185.543 130.55 185.419 130.425C185.295 130.301 185.233 130.151 185.233 129.973V112.657C185.233 112.462 185.286 112.302 185.393 112.178C185.517 112.054 185.676 111.992 185.872 111.992H193.586C195.66 111.992 197.212 112.453 198.241 113.375C199.269 114.279 199.783 115.521 199.783 117.099C199.783 118.021 199.553 118.81 199.092 119.466C198.648 120.105 198.125 120.566 197.522 120.849C198.267 121.186 198.897 121.736 199.411 122.499C199.925 123.261 200.182 124.13 200.182 125.105C200.182 126.755 199.624 128.085 198.507 129.095C197.389 130.106 195.829 130.612 193.825 130.612H185.872ZM193.107 119.626C194.011 119.626 194.703 119.404 195.182 118.961C195.678 118.517 195.926 117.923 195.926 117.179C195.926 116.434 195.687 115.857 195.208 115.45C194.729 115.042 194.029 114.838 193.107 114.838H188.984V119.626H193.107ZM193.373 127.765C194.295 127.765 195.013 127.517 195.527 127.021C196.042 126.506 196.299 125.859 196.299 125.079C196.299 124.299 196.033 123.66 195.501 123.164C194.986 122.649 194.277 122.392 193.373 122.392H188.984V127.765H193.373ZM202.253 132.846C202.111 132.846 201.987 132.793 201.881 132.686C201.774 132.58 201.721 132.447 201.721 132.287C201.721 132.181 201.739 132.083 201.774 131.995L210.818 110.263C210.889 110.121 210.996 109.997 211.138 109.89C211.279 109.766 211.457 109.704 211.67 109.704H213.399C213.558 109.704 213.691 109.757 213.798 109.864C213.904 109.97 213.957 110.103 213.957 110.263C213.957 110.369 213.939 110.467 213.904 110.555L204.807 132.287C204.754 132.429 204.656 132.553 204.514 132.66C204.39 132.784 204.213 132.846 203.982 132.846H202.253ZM220.34 130.878C218.992 130.878 217.866 130.674 216.961 130.266C216.057 129.858 215.383 129.388 214.94 128.856C214.514 128.306 214.301 127.836 214.301 127.446C214.301 127.269 214.355 127.127 214.461 127.021C214.585 126.914 214.727 126.861 214.887 126.861H217.068C217.21 126.861 217.334 126.932 217.44 127.074C217.529 127.145 217.724 127.313 218.025 127.579C218.345 127.845 218.699 128.058 219.089 128.218C219.497 128.359 219.941 128.43 220.419 128.43C221.129 128.43 221.705 128.297 222.148 128.031C222.592 127.748 222.813 127.349 222.813 126.834C222.813 126.48 222.707 126.196 222.494 125.983C222.299 125.753 221.936 125.549 221.404 125.371C220.889 125.176 220.109 124.964 219.063 124.733C217.555 124.414 216.438 123.926 215.711 123.27C215.002 122.614 214.647 121.745 214.647 120.663C214.647 119.954 214.86 119.289 215.286 118.668C215.711 118.03 216.341 117.516 217.174 117.125C218.025 116.718 219.036 116.514 220.207 116.514C221.412 116.514 222.45 116.709 223.319 117.099C224.188 117.471 224.844 117.923 225.287 118.455C225.748 118.987 225.979 119.457 225.979 119.865C225.979 120.025 225.917 120.167 225.793 120.291C225.686 120.397 225.553 120.45 225.394 120.45H223.399C223.203 120.45 223.053 120.379 222.946 120.238C222.822 120.149 222.618 119.989 222.335 119.759C222.069 119.511 221.767 119.315 221.43 119.174C221.093 119.032 220.685 118.961 220.207 118.961C219.55 118.961 219.045 119.103 218.69 119.386C218.336 119.67 218.158 120.043 218.158 120.504C218.158 120.823 218.238 121.089 218.398 121.302C218.575 121.514 218.921 121.718 219.435 121.913C219.949 122.091 220.721 122.277 221.749 122.472C224.941 123.093 226.537 124.485 226.537 126.648C226.537 127.907 225.988 128.927 224.888 129.707C223.806 130.487 222.29 130.878 220.34 130.878Z" fill="url(#paint0_linear)"/>
<path opacity="0.6" d="M105.491 160.744C105.324 160.744 105.182 160.686 105.066 160.569C104.949 160.453 104.891 160.311 104.891 160.144V143.869C104.891 143.686 104.941 143.536 105.041 143.419C105.157 143.303 105.307 143.244 105.491 143.244H116.366C116.549 143.244 116.699 143.303 116.816 143.419C116.932 143.536 116.991 143.686 116.991 143.869V145.669C116.991 145.836 116.932 145.978 116.816 146.094C116.699 146.211 116.549 146.269 116.366 146.269H108.366V150.969H115.866C116.049 150.969 116.199 151.028 116.316 151.144C116.432 151.261 116.491 151.403 116.491 151.569V153.369C116.491 153.536 116.432 153.678 116.316 153.794C116.199 153.911 116.049 153.969 115.866 153.969H108.366V160.144C108.366 160.311 108.307 160.453 108.191 160.569C108.074 160.686 107.924 160.744 107.741 160.744H105.491ZM122.77 160.994C121.92 160.994 121.137 160.828 120.42 160.494C119.72 160.144 119.162 159.678 118.745 159.094C118.345 158.511 118.145 157.869 118.145 157.169C118.145 156.036 118.603 155.119 119.52 154.419C120.437 153.719 121.695 153.244 123.295 152.994L126.72 152.494V151.969C126.72 151.253 126.537 150.711 126.17 150.344C125.803 149.978 125.22 149.794 124.42 149.794C123.87 149.794 123.428 149.894 123.095 150.094C122.762 150.294 122.487 150.503 122.27 150.719C122.07 150.919 121.937 151.053 121.87 151.119C121.803 151.319 121.678 151.419 121.495 151.419H119.545C119.395 151.419 119.262 151.369 119.145 151.269C119.045 151.169 118.995 151.036 118.995 150.869C119.012 150.453 119.212 149.986 119.595 149.469C119.995 148.936 120.603 148.478 121.42 148.094C122.237 147.694 123.245 147.494 124.445 147.494C126.412 147.494 127.845 147.936 128.745 148.819C129.645 149.703 130.095 150.861 130.095 152.294V160.144C130.095 160.311 130.037 160.453 129.92 160.569C129.82 160.686 129.678 160.744 129.495 160.744H127.42C127.253 160.744 127.112 160.686 126.995 160.569C126.878 160.453 126.82 160.311 126.82 160.144V159.169C126.453 159.703 125.937 160.144 125.27 160.494C124.603 160.828 123.77 160.994 122.77 160.994ZM123.62 158.594C124.537 158.594 125.287 158.294 125.87 157.694C126.453 157.094 126.745 156.228 126.745 155.094V154.594L124.245 154.994C122.328 155.294 121.37 155.936 121.37 156.919C121.37 157.453 121.587 157.869 122.02 158.169C122.47 158.453 123.003 158.594 123.62 158.594ZM138.252 160.994C136.985 160.994 135.927 160.803 135.077 160.419C134.227 160.036 133.593 159.594 133.177 159.094C132.777 158.578 132.577 158.136 132.577 157.769C132.577 157.603 132.627 157.469 132.727 157.369C132.843 157.269 132.977 157.219 133.127 157.219H135.177C135.31 157.219 135.427 157.286 135.527 157.419C135.61 157.486 135.793 157.644 136.077 157.894C136.377 158.144 136.71 158.344 137.077 158.494C137.46 158.628 137.877 158.694 138.327 158.694C138.993 158.694 139.535 158.569 139.952 158.319C140.368 158.053 140.577 157.678 140.577 157.194C140.577 156.861 140.477 156.594 140.277 156.394C140.093 156.178 139.752 155.986 139.252 155.819C138.768 155.636 138.035 155.436 137.052 155.219C135.635 154.919 134.585 154.461 133.902 153.844C133.235 153.228 132.902 152.411 132.902 151.394C132.902 150.728 133.102 150.103 133.502 149.519C133.902 148.919 134.493 148.436 135.277 148.069C136.077 147.686 137.027 147.494 138.127 147.494C139.26 147.494 140.235 147.678 141.052 148.044C141.868 148.394 142.485 148.819 142.902 149.319C143.335 149.819 143.552 150.261 143.552 150.644C143.552 150.794 143.493 150.928 143.377 151.044C143.277 151.144 143.152 151.194 143.002 151.194H141.127C140.943 151.194 140.802 151.128 140.702 150.994C140.585 150.911 140.393 150.761 140.127 150.544C139.877 150.311 139.593 150.128 139.277 149.994C138.96 149.861 138.577 149.794 138.127 149.794C137.51 149.794 137.035 149.928 136.702 150.194C136.368 150.461 136.202 150.811 136.202 151.244C136.202 151.544 136.277 151.794 136.427 151.994C136.593 152.194 136.918 152.386 137.402 152.569C137.885 152.736 138.61 152.911 139.577 153.094C142.577 153.678 144.077 154.986 144.077 157.019C144.077 158.203 143.56 159.161 142.527 159.894C141.51 160.628 140.085 160.994 138.252 160.994ZM152.483 160.744C150.966 160.744 149.825 160.353 149.058 159.569C148.291 158.769 147.908 157.603 147.908 156.069V150.419H145.933C145.766 150.419 145.625 150.361 145.508 150.244C145.391 150.128 145.333 149.986 145.333 149.819V148.344C145.333 148.178 145.391 148.036 145.508 147.919C145.625 147.803 145.766 147.744 145.933 147.744H147.908V143.594C147.908 143.411 147.966 143.269 148.083 143.169C148.2 143.053 148.341 142.994 148.508 142.994H150.583C150.766 142.994 150.908 143.053 151.008 143.169C151.125 143.269 151.183 143.411 151.183 143.594V147.744H154.308C154.475 147.744 154.616 147.803 154.733 147.919C154.85 148.036 154.908 148.178 154.908 148.344V149.819C154.908 149.986 154.85 150.128 154.733 150.244C154.616 150.361 154.475 150.419 154.308 150.419H151.183V155.794C151.183 156.511 151.308 157.053 151.558 157.419C151.808 157.786 152.216 157.969 152.783 157.969H154.533C154.716 157.969 154.858 158.028 154.958 158.144C155.075 158.244 155.133 158.386 155.133 158.569V160.144C155.133 160.311 155.075 160.453 154.958 160.569C154.858 160.686 154.716 160.744 154.533 160.744H152.483ZM162.975 160.994C161.108 160.994 159.625 160.461 158.525 159.394C157.441 158.328 156.866 156.811 156.8 154.844L156.775 154.219C156.775 152.136 157.316 150.494 158.4 149.294C159.5 148.094 161.016 147.494 162.95 147.494C164.933 147.494 166.458 148.094 167.525 149.294C168.608 150.494 169.15 152.094 169.15 154.094V154.619C169.15 154.786 169.091 154.928 168.975 155.044C168.858 155.161 168.708 155.219 168.525 155.219H160.225V155.419C160.258 156.353 160.508 157.128 160.975 157.744C161.458 158.344 162.116 158.644 162.95 158.644C163.9 158.644 164.675 158.261 165.275 157.494C165.425 157.311 165.541 157.203 165.625 157.169C165.708 157.119 165.85 157.094 166.05 157.094H168.25C168.4 157.094 168.525 157.136 168.625 157.219C168.741 157.303 168.8 157.419 168.8 157.569C168.8 157.969 168.558 158.444 168.075 158.994C167.608 159.528 166.933 159.994 166.05 160.394C165.166 160.794 164.141 160.994 162.975 160.994ZM165.7 153.094V153.044C165.7 152.061 165.45 151.278 164.95 150.694C164.466 150.094 163.8 149.794 162.95 149.794C162.1 149.794 161.433 150.094 160.95 150.694C160.466 151.278 160.225 152.061 160.225 153.044V153.094H165.7ZM176.753 160.994C175.486 160.994 174.428 160.803 173.578 160.419C172.728 160.036 172.094 159.594 171.678 159.094C171.278 158.578 171.078 158.136 171.078 157.769C171.078 157.603 171.128 157.469 171.228 157.369C171.344 157.269 171.478 157.219 171.628 157.219H173.678C173.811 157.219 173.928 157.286 174.028 157.419C174.111 157.486 174.294 157.644 174.578 157.894C174.878 158.144 175.211 158.344 175.578 158.494C175.961 158.628 176.378 158.694 176.828 158.694C177.494 158.694 178.036 158.569 178.453 158.319C178.869 158.053 179.078 157.678 179.078 157.194C179.078 156.861 178.978 156.594 178.778 156.394C178.594 156.178 178.253 155.986 177.753 155.819C177.269 155.636 176.536 155.436 175.553 155.219C174.136 154.919 173.086 154.461 172.403 153.844C171.736 153.228 171.403 152.411 171.403 151.394C171.403 150.728 171.603 150.103 172.003 149.519C172.403 148.919 172.994 148.436 173.778 148.069C174.578 147.686 175.528 147.494 176.628 147.494C177.761 147.494 178.736 147.678 179.553 148.044C180.369 148.394 180.986 148.819 181.403 149.319C181.836 149.819 182.053 150.261 182.053 150.644C182.053 150.794 181.994 150.928 181.878 151.044C181.778 151.144 181.653 151.194 181.503 151.194H179.628C179.444 151.194 179.303 151.128 179.203 150.994C179.086 150.911 178.894 150.761 178.628 150.544C178.378 150.311 178.094 150.128 177.778 149.994C177.461 149.861 177.078 149.794 176.628 149.794C176.011 149.794 175.536 149.928 175.203 150.194C174.869 150.461 174.703 150.811 174.703 151.244C174.703 151.544 174.778 151.794 174.928 151.994C175.094 152.194 175.419 152.386 175.903 152.569C176.386 152.736 177.111 152.911 178.078 153.094C181.078 153.678 182.578 154.986 182.578 157.019C182.578 158.203 182.061 159.161 181.028 159.894C180.011 160.628 178.586 160.994 176.753 160.994ZM190.984 160.744C189.467 160.744 188.326 160.353 187.559 159.569C186.792 158.769 186.409 157.603 186.409 156.069V150.419H184.434C184.267 150.419 184.126 150.361 184.009 150.244C183.892 150.128 183.834 149.986 183.834 149.819V148.344C183.834 148.178 183.892 148.036 184.009 147.919C184.126 147.803 184.267 147.744 184.434 147.744H186.409V143.594C186.409 143.411 186.467 143.269 186.584 143.169C186.701 143.053 186.842 142.994 187.009 142.994H189.084C189.267 142.994 189.409 143.053 189.509 143.169C189.626 143.269 189.684 143.411 189.684 143.594V147.744H192.809C192.976 147.744 193.117 147.803 193.234 147.919C193.351 148.036 193.409 148.178 193.409 148.344V149.819C193.409 149.986 193.351 150.128 193.234 150.244C193.117 150.361 192.976 150.419 192.809 150.419H189.684V155.794C189.684 156.511 189.809 157.053 190.059 157.419C190.309 157.786 190.717 157.969 191.284 157.969H193.034C193.217 157.969 193.359 158.028 193.459 158.144C193.576 158.244 193.634 158.386 193.634 158.569V160.144C193.634 160.311 193.576 160.453 193.459 160.569C193.359 160.686 193.217 160.744 193.034 160.744H190.984Z" fill="black"/>
<path opacity="0.2" d="M106.918 184.263C106.824 184.263 106.745 184.231 106.68 184.165C106.614 184.109 106.582 184.03 106.582 183.927V174.659C106.582 174.557 106.614 174.477 106.68 174.421C106.745 174.356 106.824 174.323 106.918 174.323H108.038C108.14 174.323 108.224 174.356 108.29 174.421C108.355 174.487 108.388 174.566 108.388 174.659V175.219C108.882 174.529 109.624 174.183 110.614 174.183C111.556 174.183 112.28 174.482 112.784 175.079C113.288 175.667 113.558 176.461 113.596 177.459C113.605 177.571 113.61 177.739 113.61 177.963C113.61 178.187 113.605 178.355 113.596 178.467C113.568 179.447 113.297 180.241 112.784 180.847C112.28 181.445 111.556 181.743 110.614 181.743C109.68 181.743 108.966 181.412 108.472 180.749V183.927C108.472 184.03 108.439 184.109 108.374 184.165C108.318 184.231 108.238 184.263 108.136 184.263H106.918ZM110.082 180.231C111.08 180.231 111.612 179.615 111.678 178.383C111.687 178.29 111.692 178.15 111.692 177.963C111.692 177.777 111.687 177.637 111.678 177.543C111.612 176.311 111.08 175.695 110.082 175.695C109.55 175.695 109.153 175.868 108.892 176.213C108.63 176.559 108.49 176.979 108.472 177.473C108.462 177.585 108.458 177.763 108.458 178.005C108.458 178.248 108.462 178.43 108.472 178.551C108.49 179.018 108.635 179.415 108.906 179.741C109.176 180.068 109.568 180.231 110.082 180.231ZM118.317 181.743C117.272 181.743 116.441 181.445 115.825 180.847C115.219 180.25 114.897 179.401 114.859 178.299L114.845 177.949C114.845 176.783 115.149 175.863 115.755 175.191C116.371 174.519 117.221 174.183 118.303 174.183C119.414 174.183 120.268 174.519 120.865 175.191C121.472 175.863 121.775 176.759 121.775 177.879V178.173C121.775 178.267 121.743 178.346 121.677 178.411C121.612 178.477 121.528 178.509 121.425 178.509H116.777V178.621C116.796 179.144 116.936 179.578 117.197 179.923C117.468 180.259 117.837 180.427 118.303 180.427C118.835 180.427 119.269 180.213 119.605 179.783C119.689 179.681 119.755 179.62 119.801 179.601C119.848 179.573 119.927 179.559 120.039 179.559H121.271C121.355 179.559 121.425 179.583 121.481 179.629C121.547 179.676 121.579 179.741 121.579 179.825C121.579 180.049 121.444 180.315 121.173 180.623C120.912 180.922 120.534 181.183 120.039 181.407C119.545 181.631 118.971 181.743 118.317 181.743ZM119.843 177.319V177.291C119.843 176.741 119.703 176.302 119.423 175.975C119.153 175.639 118.779 175.471 118.303 175.471C117.827 175.471 117.454 175.639 117.183 175.975C116.913 176.302 116.777 176.741 116.777 177.291V177.319H119.843ZM123.597 181.603C123.504 181.603 123.424 181.571 123.359 181.505C123.294 181.44 123.261 181.361 123.261 181.267V174.673C123.261 174.571 123.294 174.487 123.359 174.421C123.424 174.356 123.504 174.323 123.597 174.323H124.745C124.848 174.323 124.932 174.356 124.997 174.421C125.062 174.487 125.095 174.571 125.095 174.673V175.247C125.562 174.631 126.234 174.323 127.111 174.323H127.699C127.802 174.323 127.881 174.356 127.937 174.421C128.002 174.477 128.035 174.557 128.035 174.659V175.681C128.035 175.775 128.002 175.854 127.937 175.919C127.881 175.985 127.802 176.017 127.699 176.017H126.593C126.154 176.017 125.809 176.143 125.557 176.395C125.305 176.647 125.179 176.993 125.179 177.431V181.267C125.179 181.361 125.146 181.44 125.081 181.505C125.016 181.571 124.936 181.603 124.843 181.603H123.597ZM130.246 181.603C130.153 181.603 130.074 181.571 130.008 181.505C129.943 181.44 129.91 181.361 129.91 181.267V175.821H128.776C128.683 175.821 128.604 175.789 128.538 175.723C128.473 175.658 128.44 175.579 128.44 175.485V174.659C128.44 174.566 128.473 174.487 128.538 174.421C128.604 174.356 128.683 174.323 128.776 174.323H129.91V173.763C129.91 172.914 130.139 172.284 130.596 171.873C131.054 171.453 131.744 171.243 132.668 171.243H133.634C133.728 171.243 133.807 171.276 133.872 171.341C133.938 171.407 133.97 171.486 133.97 171.579V172.405C133.97 172.499 133.938 172.578 133.872 172.643C133.807 172.709 133.728 172.741 133.634 172.741H132.738C132.374 172.741 132.118 172.83 131.968 173.007C131.819 173.185 131.744 173.46 131.744 173.833V174.323H133.494C133.588 174.323 133.667 174.356 133.732 174.421C133.798 174.487 133.83 174.566 133.83 174.659V175.485C133.83 175.579 133.798 175.658 133.732 175.723C133.667 175.789 133.588 175.821 133.494 175.821H131.744V181.267C131.744 181.361 131.712 181.44 131.646 181.505C131.59 181.571 131.511 181.603 131.408 181.603H130.246ZM138.061 181.743C136.96 181.743 136.111 181.463 135.513 180.903C134.916 180.343 134.594 179.569 134.547 178.579L134.533 177.963L134.547 177.347C134.594 176.367 134.921 175.597 135.527 175.037C136.134 174.468 136.979 174.183 138.061 174.183C139.135 174.183 139.975 174.468 140.581 175.037C141.188 175.597 141.515 176.367 141.561 177.347C141.571 177.459 141.575 177.665 141.575 177.963C141.575 178.262 141.571 178.467 141.561 178.579C141.515 179.569 141.193 180.343 140.595 180.903C139.998 181.463 139.153 181.743 138.061 181.743ZM138.061 180.329C138.556 180.329 138.934 180.175 139.195 179.867C139.466 179.559 139.611 179.107 139.629 178.509C139.639 178.416 139.643 178.234 139.643 177.963C139.643 177.693 139.639 177.511 139.629 177.417C139.611 176.82 139.466 176.367 139.195 176.059C138.925 175.742 138.547 175.583 138.061 175.583C137.567 175.583 137.184 175.742 136.913 176.059C136.643 176.367 136.498 176.82 136.479 177.417L136.465 177.963L136.479 178.509C136.498 179.107 136.643 179.559 136.913 179.867C137.184 180.175 137.567 180.329 138.061 180.329ZM143.462 181.603C143.369 181.603 143.29 181.571 143.224 181.505C143.159 181.44 143.126 181.361 143.126 181.267V174.673C143.126 174.571 143.159 174.487 143.224 174.421C143.29 174.356 143.369 174.323 143.462 174.323H144.61C144.713 174.323 144.797 174.356 144.862 174.421C144.928 174.487 144.96 174.571 144.96 174.673V175.247C145.427 174.631 146.099 174.323 146.976 174.323H147.564C147.667 174.323 147.746 174.356 147.802 174.421C147.868 174.477 147.9 174.557 147.9 174.659V175.681C147.9 175.775 147.868 175.854 147.802 175.919C147.746 175.985 147.667 176.017 147.564 176.017H146.458C146.02 176.017 145.674 176.143 145.422 176.395C145.17 176.647 145.044 176.993 145.044 177.431V181.267C145.044 181.361 145.012 181.44 144.946 181.505C144.881 181.571 144.802 181.603 144.708 181.603H143.462ZM149.328 181.603C149.234 181.603 149.155 181.571 149.09 181.505C149.024 181.44 148.992 181.361 148.992 181.267V174.659C148.992 174.557 149.024 174.477 149.09 174.421C149.155 174.356 149.234 174.323 149.328 174.323H150.434C150.536 174.323 150.616 174.356 150.672 174.421C150.737 174.477 150.77 174.557 150.77 174.659V175.135C151.274 174.501 151.95 174.183 152.8 174.183C153.836 174.183 154.559 174.599 154.97 175.429C155.194 175.056 155.511 174.757 155.922 174.533C156.332 174.3 156.776 174.183 157.252 174.183C158.017 174.183 158.642 174.445 159.128 174.967C159.613 175.49 159.856 176.251 159.856 177.249V181.267C159.856 181.361 159.823 181.44 159.758 181.505C159.702 181.571 159.622 181.603 159.52 181.603H158.358C158.264 181.603 158.185 181.571 158.12 181.505C158.054 181.44 158.022 181.361 158.022 181.267V177.361C158.022 176.773 157.896 176.349 157.644 176.087C157.401 175.826 157.079 175.695 156.678 175.695C156.314 175.695 156.001 175.831 155.74 176.101C155.488 176.363 155.362 176.783 155.362 177.361V181.267C155.362 181.361 155.329 181.44 155.264 181.505C155.208 181.571 155.128 181.603 155.026 181.603H153.85C153.756 181.603 153.677 181.571 153.612 181.505C153.546 181.44 153.514 181.361 153.514 181.267V177.361C153.514 176.783 153.388 176.363 153.136 176.101C152.884 175.831 152.562 175.695 152.17 175.695C151.806 175.695 151.493 175.831 151.232 176.101C150.98 176.363 150.854 176.783 150.854 177.361V181.267C150.854 181.361 150.821 181.44 150.756 181.505C150.7 181.571 150.62 181.603 150.518 181.603H149.328ZM163.752 181.743C163.276 181.743 162.837 181.65 162.436 181.463C162.044 181.267 161.731 181.006 161.498 180.679C161.274 180.353 161.162 179.993 161.162 179.601C161.162 178.967 161.419 178.453 161.932 178.061C162.445 177.669 163.15 177.403 164.046 177.263L165.964 176.983V176.689C165.964 176.288 165.861 175.985 165.656 175.779C165.451 175.574 165.124 175.471 164.676 175.471C164.368 175.471 164.121 175.527 163.934 175.639C163.747 175.751 163.593 175.868 163.472 175.989C163.36 176.101 163.285 176.176 163.248 176.213C163.211 176.325 163.141 176.381 163.038 176.381H161.946C161.862 176.381 161.787 176.353 161.722 176.297C161.666 176.241 161.638 176.167 161.638 176.073C161.647 175.84 161.759 175.579 161.974 175.289C162.198 174.991 162.539 174.734 162.996 174.519C163.453 174.295 164.018 174.183 164.69 174.183C165.791 174.183 166.594 174.431 167.098 174.925C167.602 175.42 167.854 176.069 167.854 176.871V181.267C167.854 181.361 167.821 181.44 167.756 181.505C167.7 181.571 167.621 181.603 167.518 181.603H166.356C166.263 181.603 166.183 181.571 166.118 181.505C166.053 181.44 166.02 181.361 166.02 181.267V180.721C165.815 181.02 165.525 181.267 165.152 181.463C164.779 181.65 164.312 181.743 163.752 181.743ZM164.228 180.399C164.741 180.399 165.161 180.231 165.488 179.895C165.815 179.559 165.978 179.074 165.978 178.439V178.159L164.578 178.383C163.505 178.551 162.968 178.911 162.968 179.461C162.968 179.76 163.089 179.993 163.332 180.161C163.584 180.32 163.883 180.399 164.228 180.399ZM169.986 181.603C169.892 181.603 169.813 181.571 169.748 181.505C169.682 181.44 169.65 181.361 169.65 181.267V174.659C169.65 174.557 169.682 174.477 169.748 174.421C169.813 174.356 169.892 174.323 169.986 174.323H171.148C171.25 174.323 171.33 174.356 171.386 174.421C171.451 174.477 171.484 174.557 171.484 174.659V175.233C172.053 174.533 172.832 174.183 173.822 174.183C174.68 174.183 175.362 174.463 175.866 175.023C176.37 175.583 176.622 176.353 176.622 177.333V181.267C176.622 181.361 176.589 181.44 176.524 181.505C176.468 181.571 176.388 181.603 176.286 181.603H175.026C174.932 181.603 174.853 181.571 174.788 181.505C174.722 181.44 174.69 181.361 174.69 181.267V177.417C174.69 176.876 174.554 176.456 174.284 176.157C174.022 175.849 173.644 175.695 173.15 175.695C172.674 175.695 172.291 175.849 172.002 176.157C171.712 176.465 171.568 176.885 171.568 177.417V181.267C171.568 181.361 171.535 181.44 171.47 181.505C171.414 181.571 171.334 181.603 171.232 181.603H169.986ZM181.55 181.743C180.523 181.743 179.702 181.459 179.086 180.889C178.479 180.32 178.157 179.531 178.12 178.523L178.106 177.963L178.12 177.403C178.157 176.395 178.479 175.607 179.086 175.037C179.702 174.468 180.523 174.183 181.55 174.183C182.287 174.183 182.908 174.314 183.412 174.575C183.925 174.837 184.303 175.159 184.546 175.541C184.798 175.915 184.933 176.274 184.952 176.619C184.961 176.713 184.928 176.792 184.854 176.857C184.788 176.923 184.709 176.955 184.616 176.955H183.37C183.267 176.955 183.192 176.937 183.146 176.899C183.099 176.853 183.052 176.773 183.006 176.661C182.866 176.307 182.679 176.05 182.446 175.891C182.222 175.733 181.932 175.653 181.578 175.653C181.102 175.653 180.728 175.803 180.458 176.101C180.196 176.4 180.056 176.857 180.038 177.473L180.024 177.991L180.038 178.453C180.094 179.667 180.607 180.273 181.578 180.273C181.942 180.273 182.236 180.199 182.46 180.049C182.684 179.891 182.866 179.629 183.006 179.265C183.043 179.163 183.085 179.088 183.132 179.041C183.188 178.995 183.267 178.971 183.37 178.971H184.616C184.709 178.971 184.788 179.004 184.854 179.069C184.928 179.135 184.961 179.214 184.952 179.307C184.933 179.634 184.802 179.989 184.56 180.371C184.317 180.745 183.944 181.067 183.44 181.337C182.936 181.608 182.306 181.743 181.55 181.743ZM189.561 181.743C188.516 181.743 187.685 181.445 187.069 180.847C186.463 180.25 186.141 179.401 186.103 178.299L186.089 177.949C186.089 176.783 186.393 175.863 186.999 175.191C187.615 174.519 188.465 174.183 189.547 174.183C190.658 174.183 191.512 174.519 192.109 175.191C192.716 175.863 193.019 176.759 193.019 177.879V178.173C193.019 178.267 192.987 178.346 192.921 178.411C192.856 178.477 192.772 178.509 192.669 178.509H188.021V178.621C188.04 179.144 188.18 179.578 188.441 179.923C188.712 180.259 189.081 180.427 189.547 180.427C190.079 180.427 190.513 180.213 190.849 179.783C190.933 179.681 190.999 179.62 191.045 179.601C191.092 179.573 191.171 179.559 191.283 179.559H192.515C192.599 179.559 192.669 179.583 192.725 179.629C192.791 179.676 192.823 179.741 192.823 179.825C192.823 180.049 192.688 180.315 192.417 180.623C192.156 180.922 191.778 181.183 191.283 181.407C190.789 181.631 190.215 181.743 189.561 181.743ZM191.087 177.319V177.291C191.087 176.741 190.947 176.302 190.667 175.975C190.397 175.639 190.023 175.471 189.547 175.471C189.071 175.471 188.698 175.639 188.427 175.975C188.157 176.302 188.021 176.741 188.021 177.291V177.319H191.087Z" fill="black"/>
<path opacity="0.2" d="M286.718 157.341C286.718 77.324 225.16 12.4572 149.224 12.4572C73.288 12.4572 11.7297 77.324 11.7297 157.341" stroke="#BDBDBD" stroke-width="22" stroke-linecap="round"/>
<path opacity="0.2" d="M11.7297 157.341C11.7297 77.324 73.288 12.4572 149.224 12.4572C181.769 12.4572 211.673 24.3724 235.222 44.2889" stroke="#BDBDBD" stroke-width="22" stroke-linecap="round"/>
<path d="M11.7297 157.948C11.7297 77.2606 73.8035 11.8507 150.375 11.8507C183.193 11.8507 213.348 23.8657 237.094 43.9488" stroke="url(#paint1_linear)" stroke-width="22" stroke-linecap="round"/>
<defs>
<linearGradient id="paint0_linear" x1="149.224" y1="84.6116" x2="149.224" y2="143.612" gradientUnits="userSpaceOnUse">
<stop stop-color="#4E5DA9"/>
<stop offset="1" stop-color="#229DAD"/>
</linearGradient>
<linearGradient id="paint1_linear" x1="124.412" y1="11.8507" x2="124.412" y2="157.948" gradientUnits="userSpaceOnUse">
<stop stop-color="#4E5DA9"/>
<stop offset="1" stop-color="#229DAD"/>
</linearGradient>
</defs>
</svg>
