<svg width="1787" height="1056" viewBox="0 0 1787 1056" fill="none" xmlns="http://www.w3.org/2000/svg">
<path fill-rule="evenodd" clip-rule="evenodd" d="M-55.6483 204.485L-144.974 230.429V681.456V1055.72L-55.6482 1043.75C-39.1887 1041.07 -19.4586 1038.04 2.91629 1034.59C97.4732 1020.03 239.265 998.191 381.056 965.914C417.359 958.209 453.526 950.009 489.585 941.834C630.97 909.779 770.682 878.104 910.394 878.104C998.066 878.104 1085.74 890.577 1173.41 903.05C1261.08 915.523 1348.75 927.996 1436.42 927.996C1615.08 927.996 1790.42 878.104 1876.44 852.16L1965.76 826.216V681.456V375.188V0.923584L1876.44 12.8978C1859.98 15.5709 1840.25 18.6095 1817.87 22.0553C1723.31 36.6174 1581.52 58.4536 1439.73 90.73C1403.43 98.4353 1367.26 106.635 1331.2 114.81C1189.82 146.865 1050.11 178.541 910.394 178.541C822.723 178.541 735.051 166.068 647.379 153.594C559.708 141.121 472.036 128.648 384.364 128.648C205.713 128.648 30.3692 178.541 -55.6483 204.485Z" fill="url(#paint0_linear)"/>
<defs>
<linearGradient id="paint0_linear" x1="910.394" y1="0.923584" x2="910.394" y2="1055.72" gradientUnits="userSpaceOnUse">
<stop stop-color="#4E5DA9"/>
<stop offset="1" stop-color="#229DAD"/>
</linearGradient>
</defs>
</svg>
