<svg width="47" height="47" viewBox="0 0 47 47" fill="none" xmlns="http://www.w3.org/2000/svg">
<path fill-rule="evenodd" clip-rule="evenodd" d="M7.46763 0H7.24013C5.49198 0.0700716 3.76567 0.741667 2.47435 1.93197C0.928222 3.287 0.044591 5.31816 0 7.3648V7.57684C0.0455011 9.70993 1.0174 11.8103 2.66727 13.1735C3.90035 14.2163 5.48288 14.8379 7.09634 14.9061C8.86634 15.009 10.6545 14.4311 12.0514 13.3446C12.9786 14.2636 13.901 15.1877 14.8234 16.1118L14.8239 16.1124C15.8594 17.1499 16.895 18.1874 17.9374 19.2178C17.4651 19.9131 17.0529 20.6557 16.8181 21.4683C16.4323 22.8415 16.4905 24.3385 17.001 25.6708C17.5334 27.0913 18.5644 28.3144 19.8694 29.0861C21.2872 29.9379 23.0281 30.2254 24.6461 29.8906C25.6344 29.6949 26.5471 29.2299 27.3689 28.6584C29.7459 31.0335 32.1219 33.4096 34.4971 35.7866C34.4332 35.8888 34.3671 35.9899 34.301 36.091L34.301 36.0911L34.301 36.0911C34.0892 36.4152 33.8769 36.74 33.7354 37.1034C33.1093 38.4102 32.9801 39.929 33.2931 41.3377C33.6562 42.9739 34.6627 44.4554 36.0459 45.401C37.1043 46.1399 38.3811 46.543 39.6678 46.5931H40.0637C41.8655 46.5294 43.631 45.7277 44.8349 44.3817C45.9188 43.2033 46.5385 41.6307 46.5931 40.0336V39.7379C46.5594 37.2817 45.0724 34.9184 42.8629 33.8419C41.3778 33.0902 39.6078 32.9282 38.0089 33.3859C37.2089 33.6244 36.47 34.0257 35.7866 34.4998C33.4087 32.1237 31.0317 29.7468 28.6557 27.3689C29.2608 26.5053 29.745 25.5361 29.9206 24.4878C30.1253 23.3957 30.0043 22.2664 29.6958 21.2062L31.6966 20.2361C33.4756 19.3735 35.2544 18.511 37.0342 17.6499C37.9269 18.8647 39.3375 19.6938 40.8472 19.8139C42.296 19.9549 43.7857 19.4472 44.8568 18.4634C45.9233 17.5106 46.554 16.1074 46.5931 14.6805V14.5085C46.5785 12.7721 45.6485 11.0795 44.1861 10.1422C42.9321 9.31498 41.3168 9.07382 39.8744 9.4897C38.331 9.9165 37.0233 11.095 36.4272 12.5801C35.9768 13.6612 35.9376 14.8843 36.2389 16.01C34.8949 16.6635 33.55 17.3159 32.2053 17.9682L32.2037 17.969L32.202 17.9698L32.1949 17.9732C31.0975 18.5056 30 19.038 28.9032 19.5709C27.8412 17.9866 26.0994 16.8873 24.2075 16.6288C24.2057 15.8225 24.2066 15.0172 24.2075 14.2118C25.4251 13.8278 26.3533 12.6593 26.3806 11.3725C26.4498 10.0566 25.5725 8.76896 24.3267 8.34489C23.2456 7.95085 21.9579 8.22932 21.1443 9.0447C20.2571 9.88829 19.9604 11.2824 20.4363 12.4109C20.774 13.2672 21.5184 13.9224 22.3856 14.2118V14.2127V14.2136V14.2145C22.3865 15.0199 22.3874 15.8244 22.3856 16.6297C21.2426 16.7963 20.1533 17.2531 19.2251 17.9383C18.1549 16.8696 17.0858 15.8004 16.0167 14.7312L16.014 14.7284L16.0113 14.7257C15.1222 13.8366 14.2332 12.9474 13.3436 12.0587C14.6286 10.3897 15.191 8.17745 14.7906 6.1026C14.7786 6.04739 14.7675 5.9907 14.7563 5.93336C14.692 5.60409 14.6234 5.2532 14.3483 5.03697C14.1108 4.8313 13.7795 4.81674 13.4847 4.87316C13.0506 5.05608 12.7822 5.54021 12.9177 6.00432C13.1443 6.95711 13.1689 7.96451 12.905 8.91275C12.5237 10.3706 11.5291 11.6592 10.2086 12.389C8.97554 13.0825 7.47673 13.2763 6.10533 12.935C4.81856 12.6247 3.66102 11.8321 2.88932 10.7592C2.03117 9.58252 1.67262 8.06097 1.89193 6.62313C2.08304 5.3127 2.75736 4.07962 3.76203 3.21783C4.84222 2.26413 6.30008 1.75179 7.73973 1.83551C7.95227 1.83864 8.16106 1.87368 8.3698 1.9087C8.58559 1.94491 8.80132 1.9811 9.02104 1.98203C9.39779 1.97839 9.70447 1.68991 9.84097 1.35593C9.94835 0.917301 9.73723 0.408599 9.29678 0.253896C8.70617 0.0700716 8.0819 0.0300307 7.46763 0ZM22.0462 11.4799C21.9242 10.8857 22.2982 10.2468 22.8716 10.0548C23.5695 9.78091 24.4186 10.2687 24.5433 11.004C24.7007 11.6929 24.1738 12.4309 23.4731 12.5082C22.8215 12.6174 22.1499 12.1306 22.0462 11.4799ZM38.3283 12.8422C38.8097 11.9904 39.6751 11.3771 40.6315 11.1823C41.4178 11.0285 42.2587 11.1459 42.9612 11.5372C43.8139 11.9923 44.4463 12.8277 44.6702 13.7668C44.8568 14.5895 44.7521 15.4858 44.3326 16.2229C43.9231 16.9719 43.2251 17.5616 42.4134 17.8282C41.5352 18.1313 40.5333 18.0512 39.7142 17.6144C38.8461 17.1666 38.1927 16.3276 37.9634 15.3784C37.7595 14.5285 37.8815 13.5975 38.3283 12.8422ZM19.0031 20.9187C19.7429 19.6373 21.0461 18.6609 22.5267 18.4498C23.6878 18.2641 24.9155 18.508 25.9092 19.1414C26.761 19.7174 27.4817 20.5201 27.8594 21.4847C28.3963 22.8115 28.3053 24.3731 27.6173 25.628C27.0131 26.6936 26.0312 27.5664 24.859 27.954C23.3657 28.4573 21.6157 28.2043 20.3699 27.2233C19.5482 26.6017 18.9002 25.7327 18.6027 24.7398C18.2113 23.4822 18.356 22.068 19.0031 20.9187ZM34.9521 39.6797C34.9921 37.4055 36.8367 35.3389 39.0809 35.0103C40.7835 34.7173 42.6045 35.4217 43.6628 36.7867C45.1507 38.4984 45.1279 41.3004 43.6155 42.9903C42.4498 44.4582 40.3904 45.1097 38.5876 44.602C36.4418 44.0496 34.8256 41.9047 34.9521 39.6797ZM12.014 1.93639C11.7783 1.94913 11.5818 2.08928 11.407 2.23306C11.144 2.57705 11.1149 3.09485 11.4189 3.42337C11.7274 3.82105 12.3334 3.85563 12.7211 3.55259C12.874 3.36968 13.0178 3.15946 13.0214 2.91103C13.0624 2.37138 12.5518 1.87451 12.014 1.93639ZM16.2329 29.168C16.7489 28.9077 17.4351 29.2809 17.4969 29.8542C17.608 30.4247 17.0447 30.9871 16.4741 30.8734C16 30.817 15.6359 30.3265 15.7197 29.8569C15.7588 29.5593 15.9608 29.2927 16.2329 29.168ZM13.5542 31.751C13.5237 31.7819 13.4933 31.8126 13.4629 31.8425C12.2836 33.0256 11.1018 34.2065 9.92 35.3873C9.38275 35.9241 8.84553 36.4608 8.30857 36.9978C7.20562 36.2461 5.82785 35.8976 4.50286 36.0987C2.93671 36.3217 1.50707 37.3036 0.718079 38.6713C0.256698 39.454 0.0200928 40.3576 7.23766e-05 41.264V41.365C0.0164528 42.8174 0.656198 44.2498 1.73912 45.2199C2.6637 46.0707 3.90133 46.5539 5.15534 46.5931H5.41015C6.57407 46.553 7.72524 46.1381 8.62252 45.3918C9.92385 44.3335 10.6828 42.6254 10.5317 40.9482C10.4771 39.9936 10.1259 39.0763 9.59534 38.2864C11.3859 36.494 13.1782 34.7026 14.9697 32.912L14.9763 32.9054C15.2038 32.6843 15.3885 32.3822 15.3412 32.0528C15.3003 31.555 14.787 31.1609 14.2956 31.261C13.9879 31.3127 13.7657 31.5373 13.5542 31.751ZM2.25784 39.6578C2.73469 38.7778 3.61377 38.1335 4.59386 37.9351C5.34281 37.7877 6.1409 37.886 6.82159 38.2336C7.71523 38.675 8.3932 39.5258 8.62889 40.4932C8.82819 41.3231 8.7199 42.2304 8.29856 42.9757C7.88905 43.7311 7.18196 44.3189 6.36476 44.5847C5.48659 44.8813 4.48739 44.8012 3.6711 44.3617C2.81841 43.9203 2.17411 43.1031 1.93933 42.1722C1.7282 41.3341 1.83195 40.4131 2.25784 39.6578Z" fill="url(#paint0_linear_614_546)"/>
<defs>
<linearGradient id="paint0_linear_614_546" x1="-2.43314" y1="-2.36916" x2="58.7859" y2="16.8387" gradientUnits="userSpaceOnUse">
<stop offset="0.244792" stop-color="#4E5CA8"/>
<stop offset="1" stop-color="#1FC3F3"/>
</linearGradient>
</defs>
</svg>
