<svg width="46" height="46" viewBox="0 0 46 46" fill="none" xmlns="http://www.w3.org/2000/svg">
<path fill-rule="evenodd" clip-rule="evenodd" d="M33.1938 2.05149C34.483 2.97387 35.4924 4.23418 36.1112 5.69356C38.3655 5.70166 40.5347 6.55605 42.1891 8.08753C43.8435 9.61902 44.8625 11.7159 45.0441 13.963C45.2259 16.2101 44.5573 18.4435 43.1705 20.2211C41.7837 21.9985 39.7801 23.1905 37.5564 23.5607V28.7356L39.6991 32.3072C39.7691 32.4238 39.8063 32.5574 39.8063 32.6934V36.5814C40.3067 36.7584 40.7285 37.1064 40.9971 37.5642C41.2655 38.022 41.3637 38.56 41.2739 39.0832C41.1841 39.6064 40.9123 40.0808 40.5065 40.423C40.1007 40.7652 39.5871 40.9528 39.0563 40.9528C38.5255 40.9528 38.012 40.7652 37.6062 40.423C37.2004 40.0808 36.9286 39.6064 36.8388 39.0832C36.749 38.56 36.8472 38.022 37.1156 37.5642C37.3842 37.1064 37.806 36.7584 38.3064 36.5814V32.9012L36.1636 29.3296C36.0936 29.213 36.0564 29.0796 36.0564 28.9434V23.6935H33.0564V31.3314C33.5568 31.5084 33.9786 31.8564 34.2472 32.3142C34.5156 32.772 34.6138 33.31 34.524 33.8332C34.4342 34.3564 34.1624 34.8308 33.7566 35.173C33.3508 35.5152 32.8372 35.7028 32.3064 35.7028C31.7756 35.7028 31.262 35.5152 30.8562 35.173C30.4504 34.8308 30.1786 34.3564 30.0888 33.8332C29.999 33.31 30.0972 32.772 30.3656 32.3142C30.6342 31.8564 31.056 31.5084 31.5564 31.3314V23.6935H30.8064V22.1935H36.0564C38.0456 22.1935 39.9531 21.4033 41.3597 19.9969C42.7661 18.5903 43.5563 16.6826 43.5563 14.6935C43.5563 12.7044 42.7661 10.7968 41.3597 9.39024C39.9531 7.98373 38.0456 7.19355 36.0564 7.19355H35.5988C35.4442 7.19389 35.2934 7.14645 35.1668 7.05769C35.0402 6.96895 34.944 6.84325 34.8916 6.69779C34.421 5.3604 33.5614 4.19412 32.4234 3.34861C31.2852 2.50311 29.9204 2.01691 28.5042 1.95243C27.0878 1.88797 25.6846 2.24813 24.4742 2.98675C23.264 3.72535 22.3022 4.8087 21.712 6.0978C21.6612 6.20787 21.5846 6.30401 21.4886 6.37799C21.3926 6.45197 21.28 6.50159 21.1608 6.52261C21.0414 6.54363 20.9188 6.53539 20.8032 6.49863C20.6878 6.46187 20.5828 6.39769 20.4976 6.31155C19.5046 5.3073 18.2355 4.62084 16.8515 4.33936C15.4675 4.05788 14.031 4.19406 12.7246 4.73064C11.4181 5.2672 10.3007 6.17991 9.514 7.35291C8.72734 8.52588 8.30704 9.9062 8.30648 11.3185V13.9435C8.30648 14.1424 8.22746 14.3332 8.0868 14.4738C7.94616 14.6145 7.7554 14.6935 7.55649 14.6935H5.3065C4.31194 14.6935 3.35812 15.0886 2.65485 15.7919C1.95159 16.4951 1.55651 17.4489 1.55651 18.4435C1.55651 19.4381 1.95159 20.3919 2.65485 21.0951C3.35812 21.7985 4.31194 22.1935 5.3065 22.1935H27.8064V23.6935H27.0564V32.4856L29.1992 36.0572C29.2692 36.1738 29.3064 36.3074 29.3064 36.4434V45.4434H27.8064V36.6512L25.6636 33.0796C25.5936 32.963 25.5564 32.8296 25.5564 32.6934V23.6935H21.8064V28.7356L23.9492 32.3072C24.0192 32.4238 24.0564 32.5574 24.0564 32.6934V36.5814C24.5568 36.7584 24.9786 37.1064 25.2472 37.5642C25.5156 38.022 25.6138 38.56 25.524 39.0832C25.4342 39.6064 25.1624 40.0808 24.7566 40.423C24.3508 40.7652 23.8372 40.9528 23.3064 40.9528C22.7756 40.9528 22.262 40.7652 21.8562 40.423C21.4504 40.0808 21.1786 39.6064 21.0888 39.0832C20.999 38.56 21.0972 38.022 21.3656 37.5642C21.6342 37.1064 22.056 36.7584 22.5564 36.5814V32.9012L20.4136 29.3296C20.3436 29.213 20.3064 29.0796 20.3064 28.9434V23.6935H17.3064V31.3314C17.8069 31.5084 18.2286 31.8564 18.4972 32.3142C18.7656 32.772 18.8638 33.31 18.774 33.8332C18.6842 34.3564 18.4125 34.8308 18.0067 35.173C17.6009 35.5152 17.0872 35.7028 16.5564 35.7028C16.0257 35.7028 15.512 35.5152 15.1062 35.173C14.7004 34.8308 14.4286 34.3564 14.3389 33.8332C14.2491 33.31 14.3472 32.772 14.6157 32.3142C14.8843 31.8564 15.306 31.5084 15.8064 31.3314V23.6935H10.5565V28.7356L12.6992 32.3072C12.7693 32.4238 12.8064 32.5574 12.8065 32.6934V36.5814C13.3069 36.7584 13.7286 37.1064 13.9972 37.5642C14.2657 38.022 14.3638 38.56 14.2741 39.0832C14.1843 39.6064 13.9125 40.0808 13.5067 40.423C13.1009 40.7652 12.5872 40.9528 12.0565 40.9528C11.5257 40.9528 11.012 40.7652 10.6062 40.423C10.2004 40.0808 9.92864 39.6064 9.83888 39.0832C9.74912 38.56 9.8472 38.022 10.1158 37.5642C10.3843 37.1064 10.8061 36.7584 11.3065 36.5814V32.9012L9.16372 29.3296C9.0936 29.213 9.05652 29.0796 9.05648 28.9434V23.6935H7.55649V28.1934H6.05649V23.6935H5.3065C3.91412 23.6935 2.57877 23.1403 1.59419 22.1559C0.609636 21.1713 0.0565186 19.8359 0.0565186 18.4435C0.0565186 17.0511 0.609636 15.7158 1.59419 14.7312C2.57877 13.7466 3.91412 13.1935 5.3065 13.1935H6.80649V11.3185C6.80657 9.69366 7.26565 8.10189 8.13082 6.72651C8.996 5.35114 10.2321 4.24812 11.6967 3.54455C13.1613 2.84095 14.7949 2.56539 16.4093 2.74961C18.0237 2.93385 19.5532 3.57035 20.8216 4.5858C21.6442 3.23085 22.825 2.12923 24.2336 1.40232C25.6422 0.675373 27.224 0.351332 28.805 0.465876C30.386 0.580421 31.9046 1.1291 33.1938 2.05149ZM11.6398 39.317C11.7631 39.3994 11.9081 39.4434 12.0565 39.4434C12.2554 39.4434 12.4461 39.3644 12.5868 39.2238C12.7274 39.083 12.8065 38.8924 12.8065 38.6934C12.8065 38.545 12.7625 38.4 12.6801 38.2768C12.5977 38.1534 12.4805 38.0572 12.3435 38.0006C12.2064 37.9438 12.0556 37.9288 11.9101 37.9578C11.7647 37.9868 11.631 38.0582 11.5261 38.163C11.4212 38.268 11.3498 38.4016 11.3209 38.547C11.2919 38.6926 11.3068 38.8434 11.3636 38.9804C11.4203 39.1174 11.5164 39.2346 11.6398 39.317ZM16.1398 34.067C16.2631 34.1494 16.4081 34.1934 16.5564 34.1934C16.7554 34.1934 16.9461 34.1144 17.0868 33.9738C17.2274 33.833 17.3064 33.6424 17.3064 33.4434C17.3064 33.295 17.2625 33.15 17.18 33.0268C17.0976 32.9034 16.9805 32.8072 16.8435 32.7506C16.7064 32.6938 16.5556 32.6788 16.4101 32.7078C16.2646 32.7368 16.131 32.8082 16.0261 32.913C15.9212 33.018 15.8498 33.1516 15.8209 33.297C15.7919 33.4426 15.8068 33.5934 15.8635 33.7304C15.9203 33.8674 16.0164 33.9846 16.1398 34.067ZM22.8898 39.317C23.013 39.3994 23.158 39.4434 23.3064 39.4434C23.5054 39.4434 23.696 39.3644 23.8368 39.2238C23.9774 39.083 24.0564 38.8924 24.0564 38.6934C24.0564 38.545 24.0124 38.4 23.93 38.2768C23.8476 38.1534 23.7304 38.0572 23.5934 38.0006C23.4564 37.9438 23.3056 37.9288 23.16 37.9578C23.0146 37.9868 22.881 38.0582 22.776 38.163C22.6712 38.268 22.5998 38.4016 22.5708 38.547C22.5418 38.6926 22.5568 38.8434 22.6134 38.9804C22.6702 39.1174 22.7664 39.2346 22.8898 39.317ZM31.8898 34.067C32.013 34.1494 32.158 34.1934 32.3064 34.1934C32.5054 34.1934 32.696 34.1144 32.8368 33.9738C32.9774 33.833 33.0564 33.6424 33.0564 33.4434C33.0564 33.295 33.0124 33.15 32.93 33.0268C32.8476 32.9034 32.7304 32.8072 32.5934 32.7506C32.4564 32.6938 32.3056 32.6788 32.16 32.7078C32.0146 32.7368 31.881 32.8082 31.776 32.913C31.6712 33.018 31.5998 33.1516 31.5708 33.297C31.5418 33.4426 31.5568 33.5934 31.6134 33.7304C31.6702 33.8674 31.7664 33.9846 31.8898 34.067ZM38.6397 39.317C38.7629 39.3994 38.9079 39.4434 39.0563 39.4434C39.2553 39.4434 39.4459 39.3644 39.5867 39.2238C39.7273 39.083 39.8063 38.8924 39.8063 38.6934C39.8063 38.545 39.7623 38.4 39.6799 38.2768C39.5975 38.1534 39.4803 38.0572 39.3433 38.0006C39.2063 37.9438 39.0555 37.9288 38.9099 37.9578C38.7645 37.9868 38.631 38.0582 38.526 38.163C38.4212 38.268 38.3498 38.4016 38.3208 38.547C38.2918 38.6926 38.3067 38.8434 38.3633 38.9804C38.4201 39.1174 38.5163 39.2346 38.6397 39.317ZM24.0564 19.1933H27.8064V20.6933H24.0564V19.1933ZM22.5564 19.1933H21.0564V20.6933H22.5564V19.1933ZM30.8064 19.1933H36.0564V20.6933H30.8064V19.1933Z" fill="url(#paint0_linear_807_1604)"/>
<defs>
<linearGradient id="paint0_linear_807_1604" x1="-19.4833" y1="-50.5285" x2="90.1177" y2="25.0592" gradientUnits="userSpaceOnUse">
<stop offset="0.0677083" stop-color="#3D65AF"/>
<stop offset="0.354167" stop-color="#2372B8"/>
<stop offset="0.807292" stop-color="#00B8BB"/>
</linearGradient>
</defs>
</svg>
