<svg width="25" height="26" viewBox="0 0 25 26" fill="none" xmlns="http://www.w3.org/2000/svg">
<path d="M11.6448 4.22524C9.83903 3.82527 7.95293 4.00885 6.25822 4.74954C4.5635 5.49023 3.14767 6.74978 2.21469 8.34672C2.17118 8.42123 2.15355 8.50805 2.16458 8.59362C2.1756 8.6792 2.21465 8.75872 2.27563 8.81977L4.81469 11.3588C6.61432 8.56612 8.93289 6.14451 11.6448 4.22524Z" fill="url(#paint0_linear)"/>
<path d="M21.2891 13.8697C21.6891 15.6754 21.5055 17.5615 20.7648 19.2562C20.0241 20.951 18.7646 22.3668 17.1676 23.2998C17.0931 23.3433 17.0063 23.3609 16.9207 23.3499C16.8351 23.3389 16.7556 23.2998 16.6946 23.2388L14.1555 20.6998C16.9482 18.9001 19.3698 16.5816 21.2891 13.8697Z" fill="url(#paint1_linear)"/>
<path d="M6.23056 19.2838C5.7173 18.7718 5.02193 18.4843 4.29697 18.4843C3.57201 18.4843 2.87663 18.7718 2.36338 19.2838C1.10439 20.5424 0.795017 24.1572 0.781345 24.3103C0.776908 24.3643 0.783722 24.4185 0.801356 24.4697C0.81899 24.5208 0.84706 24.5678 0.883784 24.6075C0.920509 24.6472 0.965089 24.6789 1.0147 24.7005C1.06431 24.7221 1.11786 24.7332 1.17197 24.733C1.18252 24.733 1.19345 24.733 1.204 24.733C1.35713 24.7205 4.97197 24.4111 6.23056 23.1521C6.74292 22.6388 7.03067 21.9432 7.03067 21.218C7.03067 20.4927 6.74292 19.7971 6.23056 19.2838Z" fill="url(#paint2_linear)"/>
<path d="M22.2722 9.73294C23.4158 7.20286 24.076 4.48118 24.2187 1.70833C24.2218 1.65357 24.2134 1.59876 24.1939 1.54748C24.1745 1.49619 24.1444 1.44958 24.1058 1.41067C24.0669 1.37174 24.0203 1.34137 23.9689 1.32153C23.9176 1.30168 23.8627 1.2928 23.8077 1.29544C21.0269 1.42479 18.2954 2.07705 15.7562 3.21809L22.2722 9.73294Z" fill="url(#paint3_linear)"/>
<path d="M15.0109 3.57758C7.30388 7.435 4.25544 14.7698 4.21638 14.8666C4.18785 14.9377 4.18081 15.0155 4.19616 15.0905C4.21151 15.1656 4.24856 15.2344 4.30271 15.2885L10.2254 21.2116C10.2798 21.266 10.3491 21.3032 10.4245 21.3184C10.5 21.3337 10.5783 21.3262 10.6496 21.2971C10.7461 21.258 18.0453 18.1741 21.9117 10.4768L15.0109 3.57758ZM13.6718 14.1862C13.2083 14.1862 12.7552 14.0487 12.3697 13.7912C11.9843 13.5336 11.6839 13.1676 11.5065 12.7393C11.3291 12.3111 11.2827 11.8398 11.3731 11.3852C11.4636 10.9305 11.6868 10.5129 12.0146 10.1851C12.3423 9.85736 12.76 9.63414 13.2146 9.5437C13.6692 9.45327 14.1405 9.49968 14.5688 9.67708C14.997 9.85447 15.3631 10.1549 15.6206 10.5403C15.8781 10.9257 16.0156 11.3789 16.0156 11.8424C16.0156 12.464 15.7687 13.0602 15.3291 13.4997C14.8896 13.9392 14.2934 14.1862 13.6718 14.1862Z" fill="url(#paint4_linear)"/>
<defs>
<linearGradient id="paint0_linear" x1="11.8425" y1="11.3588" x2="5.59059" y2="1.73342" gradientUnits="userSpaceOnUse">
<stop stop-color="#0097CE"/>
<stop offset="0.1875" stop-color="#0999C5"/>
<stop offset="0.348958" stop-color="#229DAD"/>
<stop offset="0.510417" stop-color="#42A38F"/>
<stop offset="0.666667" stop-color="#5DAD82"/>
<stop offset="0.822016" stop-color="#A1C661"/>
<stop offset="1" stop-color="#BED153"/>
</linearGradient>
<linearGradient id="paint1_linear" x1="21.6489" y1="23.3531" x2="12.8366" y2="15.225" gradientUnits="userSpaceOnUse">
<stop stop-color="#0097CE"/>
<stop offset="0.1875" stop-color="#0999C5"/>
<stop offset="0.348958" stop-color="#229DAD"/>
<stop offset="0.510417" stop-color="#42A38F"/>
<stop offset="0.666667" stop-color="#5DAD82"/>
<stop offset="0.822016" stop-color="#A1C661"/>
<stop offset="1" stop-color="#BED153"/>
</linearGradient>
<linearGradient id="paint2_linear" x1="0.453614" y1="18.1665" x2="8.66594" y2="20.744" gradientUnits="userSpaceOnUse">
<stop offset="0.244792" stop-color="#4E5CA8"/>
<stop offset="1" stop-color="#1FC3F3"/>
</linearGradient>
<linearGradient id="paint3_linear" x1="15.3142" y1="0.865931" x2="26.428" y2="4.36336" gradientUnits="userSpaceOnUse">
<stop offset="0.244792" stop-color="#4E5CA8"/>
<stop offset="1" stop-color="#1FC3F3"/>
</linearGradient>
<linearGradient id="paint4_linear" x1="3.26269" y1="2.6751" x2="26.5556" y2="9.97302" gradientUnits="userSpaceOnUse">
<stop offset="0.244792" stop-color="#4E5CA8"/>
<stop offset="1" stop-color="#1FC3F3"/>
</linearGradient>
</defs>
</svg>
