<svg width="24" height="24" viewBox="0 0 24 24" fill="none" xmlns="http://www.w3.org/2000/svg">
<path d="M10.9213 3.19008C9.11551 2.79011 7.22942 2.9737 5.53471 3.71438C3.83999 4.45507 2.42415 5.71462 1.49118 7.31156C1.44766 7.38607 1.43004 7.47289 1.44107 7.55847C1.45209 7.64404 1.49114 7.72356 1.55212 7.78461L4.09118 10.3237C5.89081 7.53097 8.20938 5.10936 10.9213 3.19008Z" fill="url(#paint0_linear_452_2862)"/>
<path d="M20.5656 12.834C20.9656 14.6397 20.782 16.5258 20.0413 18.2205C19.3006 19.9152 18.0411 21.3311 16.4441 22.2641C16.3696 22.3076 16.2828 22.3252 16.1972 22.3142C16.1116 22.3031 16.0321 22.2641 15.9711 22.2031L13.432 19.6641C16.2247 17.8644 18.6463 15.5459 20.5656 12.834Z" fill="url(#paint1_linear_452_2862)"/>
<path d="M5.50705 18.2487C4.99379 17.7367 4.29842 17.4492 3.57346 17.4492C2.84849 17.4492 2.15312 17.7367 1.63987 18.2487C0.380881 19.5073 0.0715061 23.1222 0.0578343 23.2753C0.0533971 23.3292 0.0602115 23.3835 0.0778456 23.4346C0.0954797 23.4858 0.123549 23.5327 0.160274 23.5725C0.196999 23.6122 0.241578 23.6439 0.291187 23.6655C0.340796 23.6871 0.394351 23.6981 0.448459 23.698C0.459006 23.698 0.469944 23.698 0.48049 23.698C0.633615 23.6855 4.24846 23.3761 5.50705 22.1171C6.01941 21.6038 6.30716 20.9082 6.30716 20.1829C6.30716 19.4577 6.01941 18.7621 5.50705 18.2487Z" fill="url(#paint2_linear_452_2862)"/>
<path d="M21.5487 8.69772C22.6923 6.16765 23.3525 3.44596 23.4952 0.673111C23.4984 0.618352 23.4899 0.563546 23.4705 0.512261C23.451 0.460976 23.421 0.414363 23.3823 0.375455C23.3434 0.336522 23.2968 0.306158 23.2455 0.286312C23.1942 0.266466 23.1392 0.257579 23.0843 0.26022C20.3035 0.389569 17.5719 1.04184 15.0327 2.18288L21.5487 8.69772Z" fill="url(#paint3_linear_452_2862)"/>
<path d="M14.2874 2.54199C6.58037 6.39941 3.53193 13.7342 3.49287 13.8311C3.46433 13.9021 3.4573 13.98 3.47265 14.055C3.488 14.13 3.52505 14.1988 3.5792 14.2529L9.50185 20.176C9.55626 20.2305 9.62556 20.2676 9.70103 20.2829C9.77651 20.2981 9.8548 20.2907 9.92607 20.2615C10.0226 20.2225 17.3218 17.1385 21.1882 9.44121L14.2874 2.54199ZM12.9483 13.1506C12.4848 13.1506 12.0316 13.0131 11.6462 12.7556C11.2608 12.4981 10.9604 12.132 10.783 11.7037C10.6056 11.2755 10.5592 10.8042 10.6496 10.3496C10.7401 9.89495 10.9633 9.47733 11.2911 9.14955C11.6188 8.82177 12.0365 8.59855 12.4911 8.50812C12.9457 8.41769 13.417 8.4641 13.8453 8.64149C14.2735 8.81889 14.6396 9.11929 14.8971 9.50472C15.1546 9.89014 15.2921 10.3433 15.2921 10.8068C15.2921 11.4284 15.0452 12.0246 14.6056 12.4641C14.1661 12.9037 13.5699 13.1506 12.9483 13.1506Z" fill="url(#paint4_linear_452_2862)"/>
<defs>
<linearGradient id="paint0_linear_452_2862" x1="-2.67845" y1="-5.33099" x2="16.3202" y2="11.5909" gradientUnits="userSpaceOnUse">
<stop offset="0.0677083" stop-color="#3D65AF"/>
<stop offset="0.354167" stop-color="#2372B8"/>
<stop offset="0.807292" stop-color="#00B8BB"/>
</linearGradient>
<linearGradient id="paint1_linear_452_2862" x1="10.2459" y1="2.09207" x2="30.7725" y2="13.0452" gradientUnits="userSpaceOnUse">
<stop offset="0.0677083" stop-color="#3D65AF"/>
<stop offset="0.354167" stop-color="#2372B8"/>
<stop offset="0.807292" stop-color="#00B8BB"/>
</linearGradient>
<linearGradient id="paint2_linear_452_2862" x1="-2.65661" y1="10.3712" x2="12.5623" y2="20.8664" gradientUnits="userSpaceOnUse">
<stop offset="0.0677083" stop-color="#3D65AF"/>
<stop offset="0.354167" stop-color="#2372B8"/>
<stop offset="0.807292" stop-color="#00B8BB"/>
</linearGradient>
<linearGradient id="paint3_linear_452_2862" x1="11.3592" y1="-9.29797" x2="31.9295" y2="4.92556" gradientUnits="userSpaceOnUse">
<stop offset="0.0677083" stop-color="#3D65AF"/>
<stop offset="0.354167" stop-color="#2372B8"/>
<stop offset="0.807292" stop-color="#00B8BB"/>
</linearGradient>
<linearGradient id="paint4_linear_452_2862" x1="-4.22824" y1="-17.562" x2="38.9722" y2="12.1784" gradientUnits="userSpaceOnUse">
<stop offset="0.0677083" stop-color="#3D65AF"/>
<stop offset="0.354167" stop-color="#2372B8"/>
<stop offset="0.807292" stop-color="#00B8BB"/>
</linearGradient>
</defs>
</svg>
