<svg width="58" height="31" viewBox="0 0 58 31" fill="none" xmlns="http://www.w3.org/2000/svg">
<path fill-rule="evenodd" clip-rule="evenodd" d="M16.1646 1.43692C15.9126 0.946094 15.3078 0.673609 14.7717 0.815177C14.2373 0.937218 13.8249 1.44757 13.8281 1.99565C13.8262 4.49005 13.8265 6.98444 13.8268 9.47884C13.8271 11.2603 13.8273 13.0418 13.8267 14.8233C13.8267 14.8513 13.8264 14.8794 13.8262 14.9075C13.8244 15.1233 13.8227 15.3431 13.9006 15.5476C14.0596 15.9976 14.5009 16.3326 14.9796 16.3606C15.3742 16.3921 15.7767 16.2181 16.0261 15.9119C16.2167 15.6843 16.3125 15.3874 16.3084 15.0922V2.03959C16.3084 1.83145 16.2653 1.62109 16.1646 1.43692ZM43.4053 1.40572C43.1386 0.917112 42.5174 0.665041 41.9834 0.827023C41.4713 0.966816 41.0843 1.46386 41.0866 1.99507C41.085 4.43844 41.0853 6.88195 41.0855 9.32544C41.0856 11.1581 41.0858 12.9907 41.0852 14.8232C41.0855 14.8616 41.0852 14.9001 41.0849 14.9387C41.0836 15.1075 41.0823 15.2774 41.1262 15.4418C41.2206 15.8106 41.4994 16.1248 41.8521 16.269C42.1705 16.4031 42.5454 16.3937 42.8567 16.2442C43.2374 16.0684 43.514 15.6859 43.5567 15.2696C43.5694 15.1356 43.5683 15.001 43.5672 14.8665C43.5667 14.8076 43.5663 14.7488 43.567 14.69C43.5671 13.0354 43.567 11.3808 43.5669 9.72618V9.69692C43.5668 7.21943 43.5666 4.74194 43.5674 2.26445C43.5767 1.97155 43.5612 1.66312 43.4053 1.40572ZM7.91546 5.48028C8.44048 5.32451 9.04655 5.56682 9.31863 6.03989C9.44021 6.23694 9.49364 6.46948 9.49231 6.69936L9.49245 8.4001V8.40013V8.40017V8.4002V8.40023V8.40026V8.40029V8.40032V8.40035V8.40039V8.40042V8.40045V8.40048V8.40051C9.49263 9.81761 9.49282 11.2346 9.49186 12.6514C9.49854 13.0717 9.2741 13.4849 8.91607 13.7068C8.49659 13.9806 7.91011 13.9584 7.512 13.6553C7.19672 13.425 7.00568 13.0411 7.01147 12.6519L7.01117 11.5615C7.01067 9.92615 7.01018 8.29079 7.01236 6.65543C7.00791 6.12022 7.39845 5.6183 7.91546 5.48028ZM22.9486 6.03719C22.6752 5.56323 22.0669 5.32358 21.5414 5.48202C21.1411 5.59429 20.808 5.92003 20.6936 6.31944C20.6394 6.49594 20.6407 6.68055 20.642 6.8636V6.86371V6.86382V6.86393C20.6422 6.89893 20.6425 6.93388 20.6424 6.9687C20.6428 7.84285 20.6426 8.7171 20.6425 9.5914V9.59144V9.59148V9.59153V9.59157V9.59161V9.59165V9.5917V9.59174V9.59178V9.59183V9.59187V9.59191C20.6423 10.6118 20.6421 11.6318 20.6428 12.6518C20.6379 13.0189 20.8062 13.3828 21.0921 13.6149C21.4733 13.9375 22.0553 13.9916 22.4886 13.7418C22.8792 13.5292 23.1303 13.0952 23.1232 12.6518C23.1241 11.6674 23.124 10.6828 23.1239 9.69816V9.69815V9.69813V9.69811V9.6981V9.69808V9.69806V9.69804V9.69803V9.69801V9.69799V9.69798V9.69796C23.1238 8.71324 23.1236 7.72847 23.1245 6.7437C23.1294 6.49829 23.0782 6.24844 22.9486 6.03719ZM35.1687 5.48202C35.6937 5.32358 36.3025 5.56323 36.5759 6.03719C36.7055 6.24844 36.7562 6.49829 36.7513 6.7437C36.7507 7.67043 36.7509 8.59706 36.751 9.52364C36.7512 10.5663 36.7514 11.6088 36.7505 12.6514C36.7567 13.0836 36.5189 13.5088 36.143 13.7258C35.7258 13.981 35.1576 13.9499 34.7692 13.6539C34.5119 13.4631 34.3311 13.1706 34.2852 12.8538C34.2673 12.7284 34.2681 12.6016 34.2689 12.4754V12.4753C34.2691 12.4443 34.2692 12.4134 34.2692 12.3825C34.27 11.5107 34.2698 10.639 34.2696 9.76722V9.75753C34.2693 8.72378 34.2691 7.69003 34.2705 6.65628C34.266 6.1224 34.6539 5.62181 35.1687 5.48202ZM50.2382 6.09218C49.9857 5.59781 49.376 5.32665 48.8381 5.47221C48.3063 5.59781 47.8971 6.1086 47.902 6.65491C47.9005 8.03882 47.9008 9.42294 47.9012 10.807V10.807V10.8071V10.8071V10.8072V10.8072C47.9014 11.4221 47.9016 12.037 47.9016 12.6518C47.8944 13.0601 48.1068 13.4621 48.4484 13.6876C48.8603 13.9729 49.4468 13.9676 49.8538 13.6752C50.1856 13.4479 50.3869 13.0521 50.382 12.6518C50.3833 11.6902 50.3831 10.7285 50.3829 9.76673C50.3827 8.80442 50.3824 7.84211 50.3838 6.8799C50.3909 6.61141 50.374 6.33094 50.2382 6.09218ZM0.995984 8.91879C1.38296 8.77056 1.84208 8.83269 2.17384 9.08077C2.48734 9.3071 2.67793 9.68743 2.67615 10.0731C2.67776 10.5012 2.67747 10.9294 2.67718 11.3576C2.67691 11.759 2.67664 12.1605 2.67793 12.5618C2.67971 12.7629 2.65834 12.9683 2.57462 13.1534C2.41119 13.5395 2.03802 13.8275 1.6212 13.8857C1.22577 13.9478 0.805391 13.8027 0.533305 13.5102C0.346273 13.318 0.242516 13.0615 0.195312 12.8015V9.92485C0.263891 9.47973 0.567594 9.07456 0.995984 8.91879ZM29.8302 9.56043C29.6053 9.04297 28.9984 8.73232 28.4453 8.85614C27.8975 8.96087 27.458 9.46857 27.4504 10.0273C27.4487 10.9166 27.4491 11.8064 27.45 12.6962C27.4531 13.2066 27.8143 13.6841 28.2992 13.8421C28.659 13.9597 29.0754 13.9118 29.3893 13.6961C29.7327 13.468 29.9486 13.0628 29.9406 12.6505C29.9403 12.0779 29.9404 11.5051 29.9405 10.9322V10.9321V10.9321V10.932V10.932V10.9319V10.9319V10.9318V10.9318L29.9406 10.0721C29.9411 9.89593 29.9023 9.72064 29.8302 9.56043ZM55.7432 8.85749C56.437 8.71371 57.1633 9.28175 57.1851 9.98782C57.1923 10.6796 57.1908 11.3716 57.1894 12.0636L57.1893 12.0733V12.0734V12.0734V12.0735V12.0736V12.0737C57.1889 12.2799 57.1885 12.4861 57.1883 12.6923C57.1887 13.2661 56.7336 13.796 56.1641 13.8821C55.7691 13.9526 55.346 13.8133 55.0691 13.5248C54.8415 13.2949 54.7141 12.9736 54.7173 12.6514C54.7168 12.2814 54.7169 11.9114 54.717 11.5414V11.5414V11.5413V11.5413V11.5413V11.5412V11.5412V11.5411C54.7172 11.1706 54.7173 10.8002 54.7168 10.4298C54.7173 10.3818 54.7169 10.3335 54.7164 10.2851V10.2849V10.2848V10.2846C54.7145 10.0785 54.7126 9.87016 54.7836 9.67406C54.923 9.25468 55.3064 8.92983 55.7432 8.85749ZM12.8776 20.8655C11.4695 20.4292 9.90067 20.3502 8.50863 20.8903C7.40514 21.3123 6.45485 22.1334 5.91112 23.1829C5.36339 24.2196 5.21554 25.44 5.40792 26.589C5.54285 27.3931 5.87327 28.1671 6.38226 28.8071C7.20653 29.8553 8.47389 30.5085 9.7889 30.6829C10.8238 30.8214 11.8805 30.6843 12.8771 30.3896C12.8818 29.8462 12.8811 29.3029 12.8803 28.7596V28.7596V28.7596V28.7596V28.7596V28.7596V28.7595C12.8799 28.4199 12.8794 28.0803 12.8803 27.7406C12.3512 28.0153 11.7696 28.1915 11.1747 28.2426C10.5909 28.2976 9.98305 28.2315 9.45447 27.9661C8.82747 27.6665 8.34876 27.0869 8.15683 26.423C7.91235 25.5847 8.05886 24.6164 8.6253 23.936C9.08619 23.3715 9.80003 23.048 10.5219 23.0005C11.3359 22.9442 12.1611 23.131 12.8803 23.5135C12.8798 23.197 12.8801 22.8805 12.8804 22.5641V22.5629C12.881 21.9971 12.8816 21.4313 12.8776 20.8655ZM23.1695 21.3425C23.8246 20.7926 24.6898 20.5605 25.5315 20.5166C26.46 20.4806 27.3898 20.6031 28.2911 20.821C28.2954 21.3018 28.2946 21.7825 28.2939 22.2633C28.2935 22.4837 28.2932 22.7041 28.2933 22.9246C27.522 22.7422 26.7285 22.5735 25.9318 22.6499C25.5836 22.6911 25.2082 22.775 24.9561 23.0355C24.7335 23.2587 24.7504 23.6457 24.9575 23.8734C25.1819 24.1263 25.5146 24.2391 25.8267 24.3434C25.9233 24.3743 26.0205 24.4044 26.1179 24.4345L26.1185 24.4347L26.1192 24.4349L26.1193 24.435L26.1196 24.4351C26.7061 24.6167 27.2999 24.8007 27.799 25.1684C28.4149 25.5988 28.8633 26.276 28.9608 27.0252C29.0566 27.7982 28.9043 28.6232 28.4434 29.2636C28.0738 29.7811 27.5274 30.1525 26.9369 30.3789C26.126 30.6957 25.2411 30.7703 24.3772 30.7255C23.6465 30.6931 22.9193 30.6043 22.2001 30.4725C22.1889 29.9703 22.1908 29.4681 22.1927 28.9658C22.1936 28.711 22.1946 28.4561 22.1938 28.2012C23.1508 28.4466 24.1443 28.6401 25.136 28.53C25.4892 28.4848 25.8641 28.4053 26.1371 28.1621C26.3767 27.9549 26.4372 27.5786 26.2809 27.3052C26.1353 27.0469 25.8628 26.8974 25.5992 26.7829C25.3789 26.6937 25.1526 26.6218 24.9263 26.5499L24.9262 26.5499C24.7302 26.4877 24.5342 26.4255 24.342 26.3519C23.6429 26.0857 22.9585 25.6747 22.555 25.0277C22.1912 24.4579 22.1079 23.7509 22.2036 23.0928C22.2976 22.4182 22.6383 21.7761 23.1695 21.3425ZM38.9674 20.8668C38.0274 20.5681 37.0259 20.4492 36.0431 20.5446C34.6639 20.6773 33.3244 21.3496 32.4721 22.4502C31.3709 23.8446 31.142 25.8114 31.7262 27.4667C32.1742 28.7435 33.2047 29.782 34.4546 30.2959C35.8783 30.9034 37.5068 30.8302 38.9657 30.386C38.9695 29.8066 38.9689 29.2272 38.9682 28.6478L38.9682 28.6423C38.9679 28.3417 38.9676 28.0412 38.9679 27.7406C38.3151 28.0796 37.5807 28.2651 36.8438 28.2585C36.1112 28.2598 35.3595 27.9984 34.8492 27.4623C33.9176 26.513 33.8873 24.8435 34.7793 23.8588C35.2415 23.3378 35.9264 23.0435 36.6171 22.9992C37.4298 22.9441 38.2514 23.1327 38.9692 23.5122C38.9676 23.057 38.9679 22.6019 38.9682 22.1467V22.1436C38.9685 21.718 38.9687 21.2924 38.9674 20.8668ZM46.4794 20.521C47.6118 20.4522 48.7745 20.7119 49.7342 21.3252C50.9227 22.0676 51.755 23.3342 51.9852 24.7108C52.2497 26.2006 51.8481 27.808 50.8497 28.9578C50.3126 29.5871 49.6126 30.0735 48.8404 30.3722C47.3495 30.9393 45.6034 30.8501 44.2003 30.0819C43.3404 29.6124 42.6261 28.8842 42.1772 28.0157C41.4571 26.636 41.4104 24.93 42.0432 23.5095C42.521 22.4209 43.408 21.5218 44.487 21.019C45.1105 20.7265 45.7918 20.5601 46.4794 20.521ZM46.3916 23.0608C45.737 23.166 45.1296 23.5339 44.744 24.0722C44.2221 24.7818 44.109 25.7559 44.4202 26.5747C44.6567 27.2111 45.1608 27.7436 45.7878 28.0099C46.7051 28.412 47.8545 28.2358 48.5875 27.5479C49.308 26.8938 49.581 25.8234 49.3156 24.8959C49.149 24.2901 48.7523 23.7487 48.2161 23.4163C47.679 23.0781 47.016 22.9574 46.3916 23.0608ZM16.6753 20.6856L16.3183 20.686C16.3181 21.47 16.3176 22.2539 16.3172 23.0378C16.3157 25.5463 16.3142 28.0549 16.321 30.5634C17.0314 30.5619 17.7416 30.5623 18.4519 30.5628L18.8081 30.563C18.82 30.034 18.8181 29.5048 18.8163 28.9757V28.9757V28.9757C18.8152 28.6517 18.8141 28.3276 18.8161 28.0037C18.8154 27.1022 18.8158 26.2008 18.8162 25.2993V25.2993V25.2993C18.8168 23.7617 18.8175 22.2242 18.813 20.6869C18.101 20.6839 17.389 20.6848 16.6767 20.6856H16.6765H16.6753ZM54.7054 29.2615C54.8564 29.2617 55.0076 29.2616 55.1588 29.2616C55.3601 29.2615 55.5616 29.2614 55.763 29.2619C55.7639 29.3121 55.7652 29.3627 55.7674 29.4137C55.6871 29.4151 55.607 29.4158 55.5269 29.4165C55.4601 29.417 55.3933 29.4176 55.3266 29.4186C55.3218 29.5949 55.3228 29.7714 55.3238 29.9478C55.3249 30.1537 55.326 30.3596 55.3181 30.5653C55.2624 30.5644 55.2072 30.5644 55.1525 30.5649C55.1385 30.3401 55.1404 30.1149 55.1423 29.8897C55.1436 29.7329 55.1449 29.5761 55.1409 29.4195C55.03 29.4171 54.9194 29.4163 54.8088 29.4155L54.6982 29.4146C54.7 29.3631 54.7022 29.3121 54.7054 29.2615ZM55.8844 29.2565L55.8655 29.2557C55.8522 29.6924 55.8535 30.1296 55.8651 30.5662C55.9199 30.5658 55.9755 30.5658 56.0321 30.5658C56.0428 30.3921 56.0414 30.2182 56.04 30.0444C56.0386 29.8722 56.0373 29.7001 56.0477 29.5282C56.1276 29.6983 56.1891 29.8756 56.2506 30.053C56.3107 30.2265 56.3709 30.4002 56.4484 30.5671C56.4983 30.5658 56.5486 30.5649 56.5999 30.5645C56.6735 30.3913 56.7376 30.2143 56.8017 30.0374C56.8666 29.8581 56.9315 29.6788 57.0064 29.5034C57.0108 29.6541 57.0097 29.805 57.0086 29.9558C57.0071 30.1562 57.0057 30.3567 57.0171 30.5569C57.071 30.561 57.1252 30.5658 57.1802 30.5707L57.1952 30.572V29.2522C57.1744 29.2536 57.1536 29.2549 57.1329 29.2563C57.0596 29.261 56.9868 29.2657 56.9142 29.2713C56.8494 29.4454 56.7882 29.6208 56.727 29.7963C56.6664 29.9702 56.6058 30.1441 56.5415 30.3168C56.449 30.1152 56.3753 29.9063 56.3015 29.6973C56.2506 29.553 56.1996 29.4088 56.1425 29.2668C56.0563 29.2631 55.97 29.2598 55.8844 29.2565Z" fill="#01BCEB"/>
</svg>
