<svg width="87" height="20" viewBox="0 0 87 20" fill="none" xmlns="http://www.w3.org/2000/svg">
<g clip-path="url(#clip0)">
<path d="M30.2699 14.6466C27.2372 14.6466 25.7134 12.5513 25.7134 10.2267C25.7134 7.91624 27.297 5.83541 30.2998 5.83541C31.4502 5.83541 32.2719 6.07937 32.974 6.50989L32.1075 7.87319C31.6145 7.57183 31.0767 7.38527 30.2699 7.38527C28.6415 7.38527 27.775 8.63377 27.775 10.1836C27.775 11.7767 28.6117 13.0968 30.2998 13.0968C31.256 13.0968 31.8237 12.7812 32.2868 12.451L33.0786 13.757C32.6304 14.1444 31.5697 14.6466 30.2699 14.6466ZM36.7089 9.42305C35.7378 9.42305 35.4241 10.2123 35.4241 11.3604C35.4241 12.5084 35.8125 13.3264 36.7836 13.3264C37.7696 13.3264 38.0983 12.5515 38.0983 11.4034C38.0833 10.2554 37.6949 9.42305 36.7089 9.42305ZM36.7388 14.6466C34.468 14.6466 33.482 13.0107 33.482 11.4033C33.482 9.79602 34.468 8.117 36.7388 8.117C39.0096 8.117 40.0404 9.73861 40.0404 11.3459C40.0255 12.9389 39.0245 14.6466 36.7388 14.6466ZM42.8939 8.275V12.2645C42.8939 12.8815 43.118 13.1829 43.7307 13.1829C44.3878 13.1829 44.8809 12.5802 45.0155 12.4367V8.275H46.8381V12.6663C46.8381 13.4842 46.9277 14.1158 47.0174 14.4888H45.2095C45.1499 14.3166 45.09 13.9148 45.0752 13.6565C44.7315 14.087 44.0592 14.6323 42.9837 14.6323C41.5495 14.6323 41.0415 13.7569 41.0415 12.6089V8.26065H42.894V8.275H42.8939ZM51.3347 14.6466C49.2432 14.6466 47.9584 13.3406 47.9584 11.3891C47.9584 9.29389 49.4075 8.11715 51.3945 8.11715C52.4403 8.11715 53.0677 8.41851 53.3815 8.60507L52.7988 9.81051C52.5151 9.6383 52.0968 9.45175 51.4543 9.45175C50.4384 9.45175 49.9007 10.2123 49.9007 11.346C49.9007 12.4796 50.4085 13.2977 51.4992 13.2977C52.2462 13.2977 52.6793 13.0394 52.8735 12.9246L53.4263 14.1012C53.1275 14.2879 52.5299 14.6466 51.3347 14.6466ZM58.3265 14.5031V10.4993C58.3265 9.88226 58.1024 9.5809 57.4899 9.5809C56.8325 9.5809 56.3246 10.1693 56.1901 10.3271V14.4888H54.3675V5.30444H56.1901V9.00688C56.5188 8.66247 57.1462 8.11715 58.207 8.11715C59.6413 8.11715 60.1491 8.99253 60.1491 10.1406V14.4888H58.3265V14.5031ZM63.4657 13.1398C63.5852 13.1829 63.8541 13.2688 64.3322 13.2688C65.2734 13.2688 65.856 12.6087 65.856 11.3315C65.856 10.1835 65.4526 9.49466 64.5264 9.49466C63.9886 9.49466 63.5704 9.82472 63.4657 9.95387V13.1398ZM63.4657 5.31879V8.76292C63.7645 8.47591 64.3322 8.11715 65.0493 8.11715C66.6629 8.11715 67.7982 9.17909 67.7982 11.3317C67.7982 13.4699 66.3042 14.6468 64.3322 14.6468C62.8533 14.6468 61.9569 14.288 61.6281 14.1445V5.30444H63.4657V5.31879ZM72.1456 11.7622H71.9215C70.9207 11.7622 70.2185 12.0492 70.2185 12.7524C70.2185 13.1972 70.592 13.3836 70.9954 13.3836C71.6079 13.3836 71.9664 13.0394 72.1456 12.867V11.7622ZM72.3398 14.5031C72.28 14.3451 72.25 14.0294 72.2352 13.8429C71.9514 14.1729 71.3388 14.6608 70.4274 14.6608C69.322 14.661 68.4704 14.0296 68.4704 12.9102C68.4704 11.2886 70.2034 10.7004 71.9215 10.7004H72.1456V10.3558C72.1456 9.83921 71.9215 9.5235 71.1149 9.5235C70.2781 9.5235 69.7106 9.93966 69.4715 10.0975L68.6797 9.03558C69.0682 8.69117 69.9345 8.1315 71.3239 8.1315C73.1166 8.1315 73.9682 8.79162 73.9682 10.4563V12.6376C73.9682 13.4986 74.058 14.1012 74.1475 14.5031H72.3398ZM77.2549 14.6466C76.0896 14.6466 75.3426 14.3164 74.9393 14.0581L75.552 12.8383C75.8058 13.0107 76.4332 13.3551 77.1503 13.3551C77.8226 13.3551 78.1961 13.1684 78.1961 12.8241C78.1961 12.4223 77.4642 12.3074 76.5378 11.8768C75.6414 11.4608 75.1186 10.9873 75.1186 10.04C75.1186 8.86323 76.0896 8.117 77.5686 8.117C78.674 8.117 79.3614 8.44707 79.6602 8.60492L79.0327 9.79602C78.7788 9.65251 78.2707 9.40855 77.6583 9.40855C77.0459 9.40855 76.7768 9.60946 76.7768 9.93952C76.7768 10.3413 77.3744 10.4418 78.1214 10.7288C79.1374 11.1308 79.8693 11.5898 79.8693 12.6231C79.8395 13.9578 78.8534 14.6466 77.2549 14.6466ZM84.7695 10.6285C84.7546 9.93967 84.4707 9.37999 83.694 9.37999C82.9768 9.37999 82.5585 9.82486 82.4391 10.6285H84.7695ZM84.0823 13.3551C84.9637 13.3551 85.4418 13.0824 85.7705 12.9246L86.3531 14.0439C85.9199 14.2735 85.2625 14.6466 83.918 14.6466C81.7366 14.6466 80.4968 13.3406 80.4968 11.346C80.4968 9.36564 81.9161 8.11715 83.7237 8.11715C85.7705 8.11715 86.7566 9.48045 86.5325 11.8052H82.4539C82.5286 12.738 83.0365 13.3551 84.0823 13.3551Z" fill="black"/>
<path d="M10.4763 0.755371C5.02336 0.755371 0.586304 5.00311 0.586304 10.2554C0.586304 15.4933 5.00842 19.7554 10.4763 19.7554C15.9292 19.7554 20.3663 15.5076 20.3663 10.2554C20.3663 5.00311 15.9292 0.755371 10.4763 0.755371ZM17.1543 11.92C17.1543 12.494 16.8107 12.9963 16.1384 13.1111C14.9731 13.3119 12.523 13.4268 10.4763 13.4268C8.42958 13.4268 5.97949 13.3119 4.8142 13.1111C4.14192 12.9963 3.79831 12.494 3.79831 11.92V8.21761C3.79831 7.64359 4.26144 7.11262 4.8142 7.02652C5.15781 6.96912 5.96455 6.91172 6.59201 6.91172C6.83105 6.91172 7.02526 7.08392 7.02526 7.35658V9.95401L10.4912 9.88226L13.9572 9.95401V7.35658C13.9572 7.08392 14.1514 6.91172 14.3905 6.91172C15.0179 6.91172 15.8247 6.96912 16.1683 7.02652C16.736 7.11262 17.1842 7.64359 17.1842 8.21761C17.1543 9.4374 17.1543 10.6859 17.1543 11.92Z" fill="#ED2226"/>
</g>
<defs>
<clipPath id="clip0">
<rect width="86" height="19" fill="white" transform="translate(0.574219 0.755371)"/>
</clipPath>
</defs>
</svg>
