<svg width="85" height="22" viewBox="0 0 85 22" fill="none" xmlns="http://www.w3.org/2000/svg">
<path d="M8.33898 6.92695C8.71659 6.56613 9.27041 6.57955 9.75542 6.53088C9.84605 7.00079 9.96017 7.4707 9.93499 7.95403C9.46005 8.08829 8.99014 8.24605 8.51184 8.36856C8.01172 8.09333 7.91439 7.31127 8.33898 6.92695Z" fill="#632CA6"/>
<path d="M0.458008 2.38919C6.32206 1.72745 12.1793 1.0165 18.0434 0.358154C18.3505 3.89932 18.734 7.43201 19.0445 10.9732C19.187 10.9851 19.4721 11.0105 19.6146 11.0224C19.8776 13.8051 20.183 16.5827 20.4562 19.3637C16.9371 19.7811 13.4197 20.2172 9.89886 20.6346C9.81911 20.095 9.75124 19.5538 9.67828 19.0142C9.48655 19.0261 9.29651 19.0396 9.10477 19.0515C9.01315 19.8456 9.02672 20.7738 8.39722 21.3659C7.54374 22.0938 6.13881 21.9615 5.46349 21.0503C6.09809 21.2302 6.77849 21.483 7.43175 21.2217C8.26996 20.9553 8.65852 19.9763 8.53975 19.1567C8.41079 18.2659 8.04768 17.3836 7.42666 16.7219C6.90915 16.1857 6.13202 16.1178 5.45331 15.9244C6.18293 15.943 6.9872 15.9142 7.60482 16.3706C8.30899 16.8423 8.70094 17.6228 8.99109 18.3932C9.14889 18.3609 9.46449 18.2999 9.62229 18.2676C9.38644 16.5098 9.16755 14.7519 8.94528 12.9923C9.40341 12.9431 9.86323 12.8922 10.3231 12.8413C9.7207 12.3611 9.06405 11.9234 8.6195 11.282C9.68846 11.8368 10.6963 12.6598 11.9469 12.7327C12.8767 12.7565 13.5605 12.0388 14.1764 11.4415C14.1408 11.6638 14.1052 11.8877 14.0712 12.1117C14.5294 12.0897 14.9858 12.0337 15.4405 11.9624C15.7018 11.299 15.9445 10.5795 15.7918 9.8584C15.6526 9.09146 15.0435 8.55188 14.6753 7.89862C14.5378 7.35396 14.5938 6.76518 14.341 6.25105C13.944 5.40267 13.1685 4.83934 12.5577 4.15893C13.0124 4.37781 13.4265 4.66796 13.8591 4.92248C13.5384 4.06561 13.3722 3.16462 13.3756 2.24836C13.7488 2.93895 13.815 3.77376 14.3376 4.3846C14.677 4.85461 15.1368 5.26183 15.7392 5.31443C15.8019 4.25056 15.164 3.30036 14.4496 2.57414C14.0967 2.25854 13.6759 1.83265 13.1584 1.95482C12.3524 2.11092 12.2184 3.19177 11.4226 3.39199C10.6098 3.58372 9.78348 3.13069 8.97242 3.29188C8.46169 3.59051 7.93909 3.89254 7.35879 4.02998C6.59015 3.98416 6.18971 3.2783 5.63487 2.86599C4.11456 2.74721 2.84198 4.14196 2.60612 5.56895C2.79447 6.47163 3.49863 7.20294 4.26387 7.67804C5.12753 8.28209 6.33564 7.37262 6.30679 6.40716C6.29831 5.40097 5.89617 4.45587 5.69935 3.47852C6.31018 4.73074 6.96853 6.11022 6.78019 7.53891C6.44593 8.44499 5.26497 8.47722 4.47936 8.2278C4.46918 9.13388 4.68467 10.0179 4.91374 10.8866C5.35829 11.3041 5.88769 11.6383 6.26098 12.127C6.56809 12.8091 6.73098 13.6829 6.30509 14.3515C5.70444 15.322 4.64904 15.8684 3.933 16.7354C3.55632 17.2258 3.26787 17.9367 3.58686 18.5238C3.91434 18.9599 4.3572 19.2942 4.71013 19.7082C4.01445 19.8219 3.31707 19.9186 2.618 20.0204C1.89857 14.1428 1.16556 8.26852 0.458008 2.38919ZM14.0305 12.6123C13.4655 12.6971 13.1482 13.2655 12.6035 13.4047C11.9859 13.6185 11.3717 13.313 10.7625 13.2316C10.3383 13.2248 9.92092 13.313 9.50182 13.3639C9.76143 15.6088 10.0431 17.8502 10.2993 20.095C13.4027 19.5436 16.5027 18.9752 19.6044 18.4169C19.4229 16.1755 19.2379 13.9357 19.053 11.6943C17.3799 12.0082 15.7035 12.3001 14.0305 12.6123Z" fill="#632CA6"/>
<path d="M13.3667 7.22009C13.0799 6.8977 13.1648 6.46672 13.2326 6.08325C13.5652 6.20203 14.0064 6.22578 14.193 6.57701C14.3457 6.88922 14.3203 7.25233 14.3593 7.59169C14.0148 7.52042 13.5516 7.60187 13.3667 7.22009Z" fill="#632CA6"/>
<path d="M70.5617 6.54464C72.0718 6.34781 73.811 6.44622 74.9869 7.53216C76.0389 8.55022 76.2493 10.1147 76.1899 11.5111C76.1441 12.7565 75.7572 14.1106 74.712 14.8843C73.5412 15.7412 71.9904 15.8209 70.599 15.636C69.3417 15.4697 68.1438 14.701 67.6381 13.5116C66.9764 11.9794 66.9238 10.1554 67.5821 8.613C68.0844 7.42017 69.3145 6.70244 70.5617 6.54464ZM70.7313 8.04968C69.9576 8.22275 69.3196 8.83189 69.0906 9.58695C68.8072 10.5083 68.8089 11.5145 69.0532 12.4426C69.2585 13.252 69.9084 13.9392 70.733 14.1241C71.6917 14.343 72.8353 14.2972 73.5972 13.6015C74.2929 12.9398 74.4405 11.92 74.4371 11.0055C74.4303 10.1045 74.242 9.09659 73.5124 8.49253C72.742 7.87151 71.6561 7.84267 70.7313 8.04968Z" fill="#632CA6"/>
<path d="M80.953 6.55309C82.2849 6.36136 83.6593 6.46995 84.9387 6.89075C84.937 7.40487 84.937 7.92069 84.937 8.43651C83.5779 7.92069 82.0118 7.71029 80.6272 8.24817C79.7177 8.6011 79.1832 9.5496 79.1289 10.493C79.0407 11.5908 79.1934 12.8719 80.0944 13.6185C80.9648 14.3175 82.1662 14.3124 83.2131 14.1241C83.2351 13.4047 83.2283 12.6869 83.23 11.9692C82.6956 11.9573 82.1628 11.9624 81.63 11.9556C81.8183 11.4551 82.0067 10.9545 82.1933 10.4523C83.1079 10.4557 84.0224 10.454 84.937 10.454C84.937 12.0557 84.937 13.6575 84.9387 15.2575C83.2894 15.8294 81.4213 15.9176 79.7703 15.3152C78.5554 14.8741 77.7189 13.7237 77.4899 12.4748C77.2319 11.0512 77.2455 9.45797 78.0447 8.20066C78.6759 7.21483 79.8314 6.71429 80.953 6.55309Z" fill="#632CA6"/>
<path d="M24.0225 6.53114C25.5445 6.54641 27.0682 6.4972 28.5902 6.55489C29.9238 6.61088 31.3203 7.29468 31.8395 8.58763C32.4283 10.0723 32.3621 11.786 31.8667 13.2877C31.4272 14.6163 30.1309 15.5071 28.7582 15.6072C27.1819 15.7056 25.6005 15.6242 24.0225 15.6496C24.0242 12.6107 24.0242 9.57006 24.0225 6.53114ZM25.7192 8.00224C25.7209 10.0604 25.7209 12.1186 25.7192 14.1785C26.8849 14.1072 28.1422 14.3889 29.2265 13.8391C30.2344 13.3013 30.5347 12.0643 30.5466 11.0055C30.5924 10.018 30.3141 8.85572 29.3673 8.36026C28.2406 7.78505 26.9324 8.0752 25.7192 8.00224Z" fill="#632CA6"/>
<path d="M35.939 6.99095C36.0391 6.81279 36.1019 6.48022 36.3801 6.53452C36.9078 6.51586 37.4372 6.53282 37.9649 6.52773C39.2833 9.56496 40.6051 12.6022 41.9116 15.6445C41.3059 15.6496 40.6984 15.6496 40.0927 15.653C39.7109 14.825 39.3241 13.9986 38.9457 13.1689C37.9717 13.1689 36.9978 13.1706 36.0238 13.1672C36.2206 12.6785 36.4124 12.1899 36.599 11.6978C37.2285 11.6927 37.8597 11.6978 38.4892 11.6893C38.0023 10.5627 37.5221 9.43261 37.0147 8.31613C36.0001 10.7527 35.0176 13.2045 34.0216 15.6513C33.4396 15.6513 32.8576 15.6496 32.2773 15.6462C33.4905 12.7583 34.7275 9.88056 35.939 6.99095Z" fill="#632CA6"/>
<path d="M40.95 6.53119C43.2593 6.53119 45.5686 6.52949 47.8762 6.53288C47.8728 7.02325 47.8728 7.51362 47.8762 8.00399C47.0041 8.00399 46.1336 8.00568 45.2632 8.00229C45.2683 10.5525 45.2649 13.1011 45.2649 15.6514C44.6981 15.648 44.1314 15.6497 43.5647 15.6497C43.5715 13.0994 43.5664 10.5508 43.5681 8.00229C42.6943 8.00738 41.8221 8.00399 40.95 8.00399C40.95 7.51362 40.9483 7.02155 40.95 6.53119Z" fill="#632CA6"/>
<path d="M50.8488 6.5345C51.4647 6.5311 52.0807 6.5328 52.6949 6.52771C54.0031 9.56833 55.3334 12.6005 56.6348 15.6428C56.0528 15.6462 55.4674 15.6767 54.8854 15.636C54.3543 14.8928 54.0896 13.9833 53.6739 13.1689C52.6983 13.1689 51.7243 13.1723 50.7487 13.1655C50.9438 12.6768 51.1356 12.1848 51.3256 11.6944C51.9551 11.6927 52.5846 11.6978 53.2141 11.691C52.7237 10.566 52.252 9.43259 51.7328 8.3212C50.7283 10.7595 49.7374 13.2028 48.7516 15.6479C48.1696 15.6513 47.5859 15.6496 47.0039 15.6462C48.2714 12.6022 49.5932 9.5819 50.8488 6.5345Z" fill="#632CA6"/>
<path d="M57.7479 6.53114C59.2257 6.54132 60.7036 6.50739 62.1815 6.54641C63.4847 6.58205 64.8845 7.16234 65.4767 8.3925C66.152 9.8178 66.0841 11.5027 65.6955 12.9992C65.3426 14.3821 64.1023 15.4307 62.6889 15.58C61.0481 15.7328 59.3937 15.6123 57.7479 15.6496C57.7462 12.6107 57.7462 9.57007 57.7479 6.53114ZM59.4599 8.00394C59.4514 10.0621 59.4514 12.1186 59.4599 14.1768C60.6256 14.1072 61.8863 14.3906 62.9688 13.8324C63.9139 13.3233 64.2397 12.1814 64.2736 11.1803C64.3381 10.1843 64.1379 9.00334 63.2233 8.43492C62.0882 7.75621 60.7104 8.0803 59.4599 8.00394Z" fill="#632CA6"/>
<path d="M12.7817 9.97721C13.4723 9.5632 14.2868 9.44952 15.0775 9.50551C15.0198 10.0332 14.8857 10.6169 14.4225 10.941C13.7455 11.0598 13.0396 10.5999 12.7817 9.97721Z" fill="#632CA6"/>
<path d="M17.2035 15.5868C17.6548 14.6536 18.079 13.7085 18.5524 12.7871C18.7475 14.5009 18.8765 16.2231 19.0479 17.9385C16.2753 18.4526 13.5045 18.9685 10.7303 19.4741C10.7286 19.206 10.7065 18.9396 10.7405 18.6732C11.1867 17.8893 11.7314 17.1665 12.2014 16.3978C12.7851 16.5607 13.3637 16.7355 13.9491 16.895C14.4259 16.0602 14.9349 15.2423 15.4185 14.4109C16.0157 14.7995 16.6096 15.1948 17.2035 15.5868Z" fill="#632CA6"/>
</svg>
