<svg width="42" height="30" viewBox="0 0 42 30" fill="none" xmlns="http://www.w3.org/2000/svg">
<path fill-rule="evenodd" clip-rule="evenodd" d="M0.113281 0.665856H6.35011V17.404C6.35011 20.0529 7.56179 21.6308 8.51992 22.3072C7.50556 23.2089 4.40582 23.9979 2.09512 22.0816C0.732814 20.9521 0.113281 19.0948 0.113281 17.3476V0.665856ZM39.091 14.5699V12.8109H40.9931V6.6398H38.9042C38.1023 2.93485 34.8038 0.158569 30.859 0.158569C26.3146 0.158569 22.6308 3.84257 22.6308 8.38678V22.7981C23.9255 22.98 25.4679 22.7755 26.7802 21.6872C28.1423 20.5575 28.7618 18.7004 28.7618 16.9532V16.4222H31.8767V10.2512H28.7618V8.38678H28.7693C28.7693 7.23278 29.7048 6.29726 30.859 6.29726C32.013 6.29726 32.9523 7.23278 32.9523 8.38678V14.5699C32.9523 19.1141 36.64 22.7981 41.1842 22.7981V16.6594C40.0302 16.6594 39.091 15.7239 39.091 14.5699ZM15.4699 6.6398V15.6965C15.4699 16.2106 15.0433 16.6274 14.5169 16.6274C13.9905 16.6274 13.564 16.2106 13.564 15.6965V6.6398H7.39269V17.2914C7.39269 19.2074 8.04251 21.6308 10.9997 22.4198C13.96 23.2097 15.6773 21.5746 15.6773 21.5746C15.5209 22.6518 14.5063 23.4408 12.872 23.6099C11.6354 23.7377 10.054 23.3282 9.26519 22.99V28.6332C11.2752 29.226 13.4013 29.4175 15.4819 29.0137C19.2578 28.2811 21.6409 25.1252 21.6409 20.9264V6.6398H15.4699Z" fill="#EA0B8C"/>
</svg>
