<svg width="108" height="24" viewBox="0 0 108 24" fill="none" xmlns="http://www.w3.org/2000/svg">
<path d="M38.1758 13.4985L37.5415 15.2958H37.4886C37.3829 14.8906 37.1891 14.2738 36.8719 13.5337L33.471 4.98752H30.1406V18.6086H32.3433V10.2034C32.3433 9.67472 32.3433 9.07561 32.3256 8.33552C32.308 7.96548 32.2728 7.68354 32.2552 7.47209H32.308C32.4137 8.00072 32.5371 8.38839 32.6252 8.63508L36.7133 18.5734H38.2639L42.3168 8.54698C42.4049 8.3179 42.493 7.85975 42.5811 7.47209H42.634C42.5811 8.47649 42.5459 9.37517 42.5282 9.92142V18.5557H44.8718V4.95228H41.6648L38.1758 13.4985ZM47.0921 8.79367H49.3828V18.5557H47.0921V8.79367ZM48.2551 4.67034C47.8674 4.67034 47.5502 4.81131 47.2859 5.058C47.0216 5.3047 46.8806 5.62188 46.8806 6.00954C46.8806 6.37958 47.0216 6.69676 47.2859 6.94346C47.5502 7.19015 47.8674 7.3135 48.2551 7.3135C48.6427 7.3135 48.9775 7.17253 49.2242 6.94346C49.4886 6.69676 49.6295 6.37958 49.6295 6.00954C49.6295 5.6395 49.4886 5.32232 49.2242 5.058C48.9952 4.81131 48.6604 4.67034 48.2551 4.67034ZM57.5061 8.70556C57.0832 8.61746 56.6427 8.5646 56.2198 8.5646C55.1802 8.5646 54.2286 8.79367 53.4357 9.25182C52.6427 9.70997 52.0084 10.3443 51.6031 11.1373C51.1802 11.9478 50.9687 12.8818 50.9687 13.9566C50.9687 14.8906 51.1802 15.7188 51.5855 16.4765C51.9907 17.2165 52.5546 17.8157 53.3123 18.2209C54.0348 18.6262 54.8806 18.8377 55.8321 18.8377C56.9246 18.8377 57.8586 18.6086 58.5986 18.1857L58.6163 18.1681V16.0536L58.5282 16.124C58.1934 16.3707 57.8057 16.5822 57.418 16.7055C57.0128 16.8465 56.6427 16.917 56.3255 16.917C55.4092 16.917 54.6868 16.6527 54.1758 16.0712C53.6471 15.5073 53.3828 14.732 53.3828 13.7628C53.3828 12.7584 53.6471 11.9655 54.1934 11.384C54.7396 10.8025 55.4621 10.5029 56.3431 10.5029C57.0832 10.5029 57.8409 10.7496 58.5282 11.243L58.6163 11.3135V9.07561L58.5986 9.05799C58.2991 8.93464 57.9643 8.79367 57.5061 8.70556ZM65.0656 8.63508C64.5017 8.63508 63.9731 8.81129 63.5149 9.18133C63.1273 9.49851 62.8629 9.95666 62.6339 10.5029H62.6162V8.79367H60.3255V18.5557H62.6162V13.569C62.6162 12.7232 62.7925 12.0183 63.1801 11.5073C63.5678 10.9787 64.0612 10.7144 64.6603 10.7144C64.8717 10.7144 65.0832 10.7672 65.3475 10.8025C65.5942 10.873 65.7704 10.9434 65.8938 11.0315L65.9819 11.102V8.81129L65.929 8.79367C65.7704 8.68794 65.4532 8.63508 65.0656 8.63508ZM71.3034 8.58222C69.6999 8.58222 68.4136 9.05799 67.5149 9.9919C66.5986 10.9258 66.1581 12.2122 66.1581 13.8333C66.1581 15.3487 66.6162 16.5822 67.4973 17.4809C68.3783 18.3619 69.5766 18.8201 71.0744 18.8201C72.6426 18.8201 73.8937 18.3443 74.7924 17.3928C75.7087 16.4412 76.1492 15.1725 76.1492 13.6042C76.1492 12.0536 75.7263 10.8201 74.8629 9.92142C74.0347 9.02274 72.8189 8.58222 71.3034 8.58222ZM73.136 16.0888C72.7131 16.635 72.0435 16.8994 71.2153 16.8994C70.3871 16.8994 69.7175 16.635 69.2418 16.0536C68.766 15.5073 68.5369 14.7143 68.5369 13.7099C68.5369 12.6703 68.7836 11.8774 69.2418 11.3135C69.7175 10.7496 70.3695 10.4677 71.1977 10.4677C72.0083 10.4677 72.6426 10.732 73.1008 11.2782C73.5589 11.8245 73.8056 12.6174 73.8056 13.6571C73.7704 14.7143 73.5766 15.5425 73.136 16.0888ZM81.2593 12.8465C80.5369 12.547 80.0787 12.3179 79.8673 12.1241C79.6911 11.9478 79.603 11.7011 79.603 11.384C79.603 11.1197 79.7087 10.8553 79.973 10.6791C80.2373 10.5029 80.5369 10.4148 80.9774 10.4148C81.3651 10.4148 81.7703 10.4853 82.158 10.591C82.5457 10.6967 82.8981 10.8553 83.18 11.0668L83.2681 11.1373V8.9875L83.2153 8.96988C82.951 8.86415 82.5985 8.75843 82.1756 8.67032C81.7527 8.59984 81.3651 8.5646 81.0479 8.5646C79.9554 8.5646 79.0567 8.82891 78.3519 9.41041C77.647 9.95666 77.3122 10.6967 77.3122 11.5602C77.3122 12.0183 77.3827 12.4236 77.5413 12.7584C77.6999 13.0932 77.929 13.4104 78.2461 13.6747C78.5633 13.9214 79.0215 14.2033 79.6558 14.4677C80.1845 14.6967 80.5897 14.8729 80.8364 15.0139C81.0831 15.1549 81.2417 15.3135 81.3651 15.4368C81.4532 15.5778 81.506 15.754 81.506 15.9831C81.506 16.635 81.0126 16.9522 80.0082 16.9522C79.6206 16.9522 79.2153 16.8817 78.7395 16.7232C78.2638 16.5646 77.8232 16.3355 77.4532 16.0712L77.3651 16.0007V18.2386L77.4179 18.2562C77.7527 18.4148 78.158 18.5205 78.6514 18.6438C79.1448 18.732 79.5853 18.8024 79.973 18.8024C81.1536 18.8024 82.1228 18.5381 82.81 17.9566C83.5148 17.3928 83.8849 16.6703 83.8849 15.7364C83.8849 15.0844 83.7087 14.5029 83.321 14.0624C82.81 13.6395 82.1756 13.1989 81.2593 12.8465ZM89.9289 8.58222C88.3254 8.58222 87.039 9.05799 86.1404 9.9919C85.2417 10.9258 84.7836 12.2122 84.7836 13.8333C84.7836 15.3487 85.2417 16.5822 86.1228 17.4809C87.0038 18.3619 88.202 18.8201 89.6998 18.8201C91.2681 18.8201 92.5192 18.3443 93.4179 17.3928C94.3342 16.4412 94.7747 15.1725 94.7747 13.6042C94.7747 12.0536 94.3518 10.8201 93.4884 9.92142C92.6602 9.02274 91.4443 8.58222 89.9289 8.58222ZM91.7439 16.0888C91.321 16.635 90.6514 16.8994 89.8232 16.8994C88.9774 16.8994 88.3254 16.635 87.8496 16.0536C87.3739 15.5073 87.1448 14.7143 87.1448 13.7099C87.1448 12.6703 87.3915 11.8774 87.8496 11.3135C88.3254 10.7496 88.9774 10.4677 89.8056 10.4677C90.5985 10.4677 91.2505 10.732 91.7086 11.2782C92.1668 11.8245 92.4135 12.6174 92.4135 13.6571C92.4135 14.7143 92.1844 15.5425 91.7439 16.0888ZM107.021 10.6791V8.79367H104.713V5.90381L104.643 5.92144L102.457 6.57342L102.405 6.59104V8.79367H98.9509V7.56019C98.9509 6.99632 99.0919 6.55579 99.3386 6.27386C99.5853 5.99192 99.9553 5.85095 100.413 5.85095C100.731 5.85095 101.065 5.92144 101.435 6.08003L101.524 6.13289V4.14171L101.471 4.12409C101.154 4.01836 100.731 3.94788 100.184 3.94788C99.4971 3.94788 98.898 4.10647 98.3518 4.37078C97.8055 4.67034 97.4002 5.07562 97.1007 5.62188C96.8011 6.15051 96.6425 6.74963 96.6425 7.43685V8.79367H95.039V10.6615H96.6425V18.5557H98.9509V10.6791H102.405V15.7011C102.405 17.7628 103.374 18.8024 105.312 18.8024C105.629 18.8024 105.964 18.7496 106.281 18.6967C106.616 18.6262 106.863 18.5381 107.004 18.4676L107.021 18.45V16.5646L106.933 16.635C106.792 16.7232 106.669 16.7936 106.457 16.8465C106.281 16.8994 106.123 16.917 105.999 16.917C105.541 16.917 105.224 16.8113 104.995 16.5469C104.783 16.3002 104.678 15.895 104.678 15.2958V10.6791H107.021Z" fill="#737373"/>
<path d="M0.607422 0.406006H11.4091V11.2077H0.607422V0.406006Z" fill="#F25022"/>
<path d="M12.5369 0.40625H23.3386V11.208H12.5369V0.40625Z" fill="#7FBA00"/>
<path d="M0.607422 12.3356H11.4091V23.1373H0.607422V12.3356Z" fill="#00A4EF"/>
<path d="M12.5371 12.3356H23.3388V23.1373H12.5371V12.3356Z" fill="#FFB900"/>
</svg>
