<svg width="80" height="16" viewBox="0 0 80 16" fill="none" xmlns="http://www.w3.org/2000/svg">
<path d="M16.352 3.66876V11.9565H14.4173V11.0783C13.9782 11.7918 13.1687 12.2035 11.9886 12.2035C10.0265 12.2035 9.05224 11.1881 9.05224 9.56895V3.66876H11.1653V9.00638C11.1653 9.87082 11.6319 10.3785 12.5375 10.3785C13.594 10.3785 14.2389 9.77477 14.2389 8.66334V3.66876H16.352ZM30.0734 6.16605V11.9565H27.9603V6.79723C27.9603 5.8093 27.5624 5.20556 26.643 5.20556C25.7237 5.20556 25.1886 5.89162 25.1886 6.85212V11.9565H23.0755V6.79723C23.0755 5.74069 22.6364 5.20556 21.7582 5.20556C20.8252 5.20556 20.3038 5.89162 20.3038 6.85212V11.9565H18.1907V3.66876H20.1528V4.58809C20.6331 3.79225 21.4289 3.39433 22.5129 3.39433C23.5694 3.39433 24.3653 3.83342 24.8181 4.61554C25.3807 3.80598 26.2177 3.39433 27.3017 3.39433C29.0717 3.39433 30.0734 4.45088 30.0734 6.16605ZM47.033 11.9565H44.9199V0.430519H47.033V11.9565ZM69.9477 11.9565H67.8346V3.66876H69.9477V11.9565ZM67.7934 2.42012H69.9751V0.403076H67.7934V2.42012ZM77.8649 9.12987C77.0005 10.0492 76.4104 10.406 75.6146 10.406C74.6678 10.406 73.9955 9.8571 73.6936 9.00638V6.59141C74.0092 5.72697 74.6815 5.17811 75.6421 5.17811C76.3418 5.17811 76.9044 5.4251 77.7963 6.2621L79.1136 4.95857C78.057 3.80598 77.0279 3.38061 75.6421 3.38061C73.7073 3.38061 72.2117 4.396 71.6217 6.09745V9.50035C72.198 11.2018 73.6662 12.2035 75.5872 12.2035C77.0828 12.2035 78.1119 11.7095 79.2645 10.2825L77.8649 9.12987ZM4.4693 6.85212C3.89301 6.72863 3.48136 6.61886 3.2481 6.56397C2.95995 6.48164 2.74041 6.37187 2.63064 6.22094V5.58975C2.82274 5.28788 3.28927 5.09579 3.93417 5.09579C4.82606 5.09579 5.44352 5.30161 6.41774 6.07L7.55661 4.69787C6.40402 3.73737 5.41608 3.39433 3.98906 3.39433C2.34249 3.39433 1.20362 4.06668 0.750812 5.02718V7.11283C1.10757 7.81262 1.93085 8.21054 3.57741 8.56729C4.16743 8.70451 4.56535 8.80056 4.79862 8.84172C5.10049 8.93777 5.37491 9.06126 5.52585 9.2808V10.008C5.32003 10.3373 4.82606 10.5157 4.18115 10.5157C3.71463 10.5294 3.26182 10.4334 2.83646 10.255C2.42482 10.0904 1.94457 9.77477 1.34083 9.2808L0.119629 10.6392C1.43688 11.8055 2.54831 12.2035 4.12627 12.2035C5.814 12.2035 7.00776 11.5586 7.46056 10.5294V8.43008C7.07636 7.64796 6.15703 7.23632 4.4693 6.85212ZM35.6168 3.38061C33.7095 3.38061 32.2139 4.40972 31.5964 6.05628V9.54151C32.2002 11.1881 33.7095 12.2172 35.6168 12.2172C37.5241 12.2172 39.006 11.1881 39.6097 9.55523V6.04256C38.9923 4.40972 37.4966 3.38061 35.6168 3.38061ZM37.5652 9.0201C37.2359 9.89826 36.5361 10.4197 35.6031 10.4197C34.6838 10.4197 33.9565 9.89826 33.6272 9.0201V6.57769C33.9565 5.69953 34.6563 5.16439 35.6031 5.16439C36.5361 5.16439 37.2222 5.69953 37.5515 6.57769L37.5652 9.0201ZM52.6862 3.38061C50.7789 3.38061 49.2833 4.40972 48.6658 6.05628V9.54151C49.2833 11.1881 50.7789 12.2172 52.6862 12.2172C54.5935 12.2172 56.0754 11.1881 56.6791 9.55523V6.04256C56.0754 4.40972 54.5797 3.38061 52.6862 3.38061ZM54.6346 9.0201C54.3053 9.89826 53.6055 10.4197 52.6862 10.4197C51.7669 10.4197 51.0396 9.89826 50.7103 9.0201V6.57769C51.0396 5.69953 51.7394 5.16439 52.6862 5.16439C53.633 5.16439 54.3053 5.69953 54.6346 6.57769V9.0201ZM64.0338 3.66876V4.58809C63.4986 3.79225 62.6616 3.39433 61.509 3.39433C59.9448 3.39433 58.6824 4.35483 58.1336 5.8779V9.29453C58.6687 10.8176 59.9311 11.7644 61.509 11.7644C62.5656 11.7644 63.3614 11.4076 63.924 10.7078V11.3665C63.924 12.7386 63.1282 13.3835 61.8932 13.3835C60.9739 13.3835 60.2192 13.1091 59.0117 12.3956L57.9826 13.9186C59.149 14.7007 60.5211 15.1261 61.9207 15.1398C64.2533 15.1398 65.9685 13.8912 65.9685 11.5586V3.66876H64.0338ZM63.7731 8.70451C63.4575 9.48662 62.7988 9.98059 61.9756 9.98059C61.1523 9.98059 60.4937 9.50035 60.1781 8.70451V6.44048C60.4937 5.65836 61.1386 5.17811 61.9756 5.17811C62.8126 5.17811 63.4575 5.65836 63.7731 6.44048V8.70451Z" fill="#000099"/>
</svg>
