<svg width="68" height="24" viewBox="0 0 68 24" fill="none" xmlns="http://www.w3.org/2000/svg">
<path d="M26.292 6.14109H32.3995V7.39449H30.1532V13.6834H28.5366V7.39405H26.292V6.14109ZM35.5755 7.39405H37.5729C38.2795 7.40499 38.6976 7.68506 38.6976 8.34817C38.6976 9.01396 38.2795 9.36818 37.5729 9.37734H35.5755V7.39405ZM35.5755 10.6895H37.2845C37.2845 10.6895 38.3436 13.0127 38.4794 13.6834H40.4707L38.9408 10.5821C40.0191 10.3038 40.2983 9.0182 40.2983 8.04152C40.2983 6.51095 38.5911 6.09352 37.1594 6.14087H33.9574V13.6832H35.5755V10.6895ZM42.4766 6.14109H47.886V7.39449H44.0947V9.16762H47.5827V10.4206H44.0947V12.4304H47.9992V13.6836H42.4766V6.14109ZM54.5039 13.6834L51.7342 8.66822L51.7118 8.68899V13.6834H50.1994V6.14109H52.205L54.9588 11.0696L54.9796 11.0495V6.14109H56.4927V13.6834H54.5039ZM60.4609 7.45256H61.2973C63.218 7.43246 63.5004 8.71088 63.5004 9.91157C63.5004 11.1138 63.2178 12.4521 61.2973 12.4304H60.4607L60.4609 7.45256ZM58.8425 13.6836H61.4105C63.7612 13.7044 65.2235 12.5354 65.2235 9.91135C65.2235 7.29019 63.7612 6.12032 61.4105 6.14131H58.8425V13.6836ZM31.346 19.8819H30.5637V16.5846L29.7395 19.8819H28.9272L28.1031 16.5846L28.0906 19.8819H27.3075V15.6957H28.5705L29.3239 18.5478L30.0788 15.6957H31.346V19.8819ZM37.7238 19.8816H36.8805V15.6957H37.7238V19.8816ZM54.3591 17.1805C54.3066 17.2937 54.2166 17.3712 54.0891 17.4146C54.0217 17.4387 53.9417 17.4512 53.8483 17.4554C53.7519 17.4637 53.61 17.4662 53.4285 17.4662H52.7035V16.4039H53.3644C53.6677 16.4039 53.8624 16.4073 53.9484 16.4147C54.0352 16.4218 54.119 16.4498 54.1925 16.4964C54.2725 16.5438 54.3265 16.6014 54.3591 16.6722C54.3926 16.7463 54.4092 16.8305 54.4092 16.923C54.4092 17.0204 54.3924 17.1061 54.3591 17.1805ZM54.4333 18.1411L54.6941 18.0636C54.8974 17.9821 55.056 17.8313 55.165 17.6486C55.28 17.4613 55.3074 17.1379 55.3074 16.9047C55.3074 16.6822 55.2257 16.4424 55.1183 16.2514C54.9925 16.0332 54.819 15.8831 54.5974 15.8007C54.5024 15.7678 54.4044 15.7441 54.3049 15.7299C54.144 15.7073 53.9218 15.6957 53.6375 15.6957H51.8604V19.8819H52.7035V18.232L53.5075 18.2229L54.4 19.8819H55.4124L54.4333 18.1411ZM62.7345 18.9577C62.5362 19.1368 62.2887 19.2268 61.9921 19.2268C61.7554 19.2268 61.5515 19.1701 61.3797 19.0568C61.2416 18.9663 61.1268 18.8444 61.0447 18.701C60.9819 18.5924 60.9335 18.4761 60.9006 18.3551C60.8573 18.1967 60.8356 18.0078 60.8356 17.7893C60.8356 17.3985 60.9107 17.0811 61.0572 16.8352C61.2531 16.5136 61.5646 16.3512 61.9921 16.3512C62.4446 16.3512 62.7662 16.5295 62.9579 16.8886C63.082 17.122 63.1455 17.4179 63.1455 17.7775C63.1455 18.3151 63.0088 18.7093 62.7345 18.9577ZM63.5153 16.2512C63.1546 15.8329 62.6454 15.6254 61.9881 15.6254C61.3415 15.6254 60.8414 15.8212 60.4906 16.2105C60.1399 16.6003 59.9642 17.1345 59.9642 17.8119C59.9642 18.3892 60.1067 18.865 60.3923 19.2442C60.7447 19.7159 61.2812 19.9515 61.9988 19.9515C62.6863 19.9515 63.2062 19.7291 63.5602 19.286C63.8644 18.9034 64.0178 18.406 64.0178 17.7952C64.0178 17.1553 63.8494 16.6405 63.5153 16.2512ZM45.9125 17.0697C45.8442 16.8205 45.7101 16.3515 44.9928 16.3515C44.5751 16.3515 43.9627 16.6297 43.9627 17.8063C43.9627 18.5545 44.2569 19.2252 44.9928 19.2252C45.4734 19.2252 45.8084 18.9527 45.9125 18.4435H46.7809C46.6082 19.3469 46.0175 19.9743 44.976 19.9743C43.8705 19.9743 43.0778 19.2319 43.0778 17.7954C43.0778 16.3398 43.916 15.6024 44.9867 15.6024C46.2308 15.6024 46.7357 16.4555 46.7809 17.0697H45.9125ZM65.5536 14.1602H65.1028V15.3594H64.9228V14.1602H64.4755V13.9985H65.5536V14.1602ZM67.0339 15.3594H66.863V14.2203L66.4673 15.3594H66.3056L65.9165 14.2013L65.9116 15.3594H65.7383V13.9988H66.0098L66.3306 14.962L66.3663 15.0744L66.3906 15.1637L66.4688 14.9453L66.7949 13.9988H67.0339V15.3594Z" fill="#231F20"/>
<path d="M2.5207 14.2373L2.53566 14.1993L2.57988 14.0792L2.62321 13.9708L2.64219 13.9208C2.86603 13.3737 3.1307 12.8443 3.43395 12.3369C3.47549 12.2475 3.51882 12.1604 3.56215 12.072L2.21896 12.0753L2.54482 11.3553C3.65483 11.0529 5.50367 10.4346 7.26853 8.72317L7.32079 8.71982H8.2499L7.04832 11.2945L8.978 11.2887L8.624 12.0552L6.69767 12.0619C6.69767 12.0619 5.79357 13.8683 5.48692 15.1606C5.24951 16.603 5.48268 17.6795 6.77517 18.0828C7.5734 18.3303 8.56906 18.2736 9.64223 17.9696C12.1394 17.1921 14.8091 15.4748 16.7622 13.2025C19.9777 9.46735 20.0402 5.64527 16.9047 4.66948C14.8924 4.04457 12.0552 4.73939 9.42983 6.30436C12.7034 4.19287 16.303 3.20145 18.787 3.97466C19.2527 4.11961 19.6558 4.3195 19.9993 4.56607C17.947 2.30405 14.9842 0.884033 11.6894 0.884033C5.49854 0.884033 0.477549 5.90435 0.477549 12.0959C0.474598 14.2958 1.1216 16.4476 2.33733 18.2812C1.8931 17.1854 1.95564 15.7797 2.52047 14.2375" fill="#D71920"/>
<path d="M21.1967 6.14832C21.9467 8.18565 21.0084 11.226 18.4188 14.2356C14.5308 18.7567 8.38907 21.4907 4.70301 20.3431C4.24538 20.2006 3.84805 20.005 3.50879 19.7624C5.55462 21.9456 8.46255 23.3087 11.6896 23.3087C17.883 23.3087 22.903 18.2893 22.903 12.0968C22.903 9.91031 22.2757 7.8723 21.1967 6.14832Z" fill="#D71920"/>
</svg>
