<svg width="70" height="12" viewBox="0 0 70 12" fill="none" xmlns="http://www.w3.org/2000/svg">
<path d="M10.1745 0.742028C10.6192 0.671372 11.0797 0.655276 11.5202 0.760579C12.3024 0.943631 13.028 1.38557 13.5273 2.01794C13.8855 1.70639 14.2704 1.42349 14.69 1.19952C15.2252 0.90953 15.818 0.701108 16.4315 0.685831C16.9349 0.680102 17.4436 0.728661 17.926 0.879522C18.3556 1.01292 18.758 1.23662 19.0917 1.53944C19.2559 1.68375 19.3972 1.85071 19.5369 2.01848C20.2456 1.31655 21.1832 0.836146 22.1763 0.713657C23.1147 0.594168 24.105 0.814049 24.8713 1.37794C25.5318 1.85507 26.0029 2.58564 26.1592 3.38578C26.2099 3.6343 26.2301 3.88828 26.2293 4.14199C26.2288 5.9425 26.2301 7.74274 26.2288 9.54325C26.2282 9.99638 26.0899 10.4708 25.7593 10.7943C25.484 11.0723 25.083 11.1964 24.6975 11.182C24.3227 11.1763 23.9413 11.0289 23.6931 10.7414C23.396 10.4105 23.2819 9.95327 23.2852 9.51706C23.2849 8.00736 23.2852 6.49739 23.2852 4.98769C23.2874 4.73725 23.2882 4.48163 23.2124 4.2402C23.1128 3.89483 22.8779 3.5882 22.5609 3.41579C22.188 3.21282 21.7373 3.18363 21.3292 3.28266C20.947 3.37568 20.6 3.62421 20.4118 3.97258C20.277 4.21483 20.2213 4.49418 20.2224 4.76944C20.2219 6.32443 20.2222 7.87941 20.2224 9.4344C20.2252 9.66492 20.2077 9.89762 20.1422 10.1197C20.0462 10.4571 19.8419 10.772 19.5429 10.9618C19.1822 11.1921 18.7217 11.2338 18.3128 11.128C17.9696 11.0396 17.6753 10.7992 17.5058 10.4899C17.3394 10.195 17.2761 9.85206 17.2772 9.51624C17.2767 8.08865 17.2772 6.66107 17.277 5.23321C17.2715 4.88238 17.3072 4.51983 17.1864 4.18291C17.0625 3.80208 16.7652 3.48153 16.3898 3.33913C15.9724 3.17981 15.492 3.19209 15.0806 3.3645C14.7265 3.51345 14.439 3.81272 14.311 4.17527C14.2229 4.40798 14.2082 4.6595 14.2125 4.90557C14.2131 6.32416 14.2128 7.74301 14.2128 9.1616C14.2106 9.44231 14.2273 9.72739 14.1626 10.0032C14.0827 10.3764 13.8784 10.734 13.5562 10.9485C13.195 11.1896 12.7269 11.2352 12.3116 11.1293C11.9608 11.0409 11.6605 10.7941 11.491 10.4765C11.3304 10.1841 11.2693 9.84688 11.2703 9.51597C11.2701 7.57851 11.2703 5.64133 11.2701 3.70414C11.2731 3.57074 11.2199 3.43461 11.1148 3.34977C10.967 3.22073 10.7286 3.20845 10.5706 3.32603C10.5059 3.37296 10.4656 3.44388 10.4326 3.51481C9.63243 5.26076 8.83147 7.00644 8.03106 8.75239C7.87475 9.0863 7.73016 9.42567 7.56348 9.75467C7.36242 10.1431 7.13763 10.5357 6.79499 10.8178C6.4518 11.1067 5.98776 11.2071 5.548 11.1817C5.17426 11.1678 4.80215 11.0385 4.51707 10.7932C4.1376 10.4705 3.89535 10.0228 3.68556 9.57899C2.6309 7.28715 1.57733 4.99505 0.523483 2.70267C0.393901 2.42796 0.345614 2.11287 0.405086 1.81388C0.470559 1.46769 0.679527 1.15342 0.97061 0.955907C1.34353 0.698925 1.83867 0.612719 2.26916 0.766035C2.64727 0.894253 2.95308 1.19788 3.10612 1.56426C3.71584 3.0014 4.32502 4.4388 4.93473 5.87594C5.1808 6.4491 5.41705 7.0269 5.6694 7.59761C6.34213 6.02025 7.00777 4.43962 7.67887 2.86117C7.88157 2.39604 8.15055 1.95383 8.50984 1.59263C8.95478 1.1395 9.54922 0.84433 10.1745 0.742028Z" fill="#696566"/>
<path d="M27.2336 0.945588C27.4811 0.825827 27.7986 0.842195 28.0188 1.01297C28.1688 1.12646 28.2627 1.29696 28.321 1.47292C28.8135 2.89805 29.3048 4.32373 29.7969 5.7494C30.1412 6.7375 30.4732 7.72996 30.8251 8.71506C31.6162 6.44806 32.3987 4.17778 33.1862 1.90941C33.2569 1.71462 33.3147 1.51493 33.3974 1.32479C33.4899 1.11391 33.6721 0.93222 33.9034 0.886662C34.1446 0.84656 34.4158 0.862928 34.6157 1.0187C34.7783 1.13982 34.873 1.32751 34.9338 1.51684C35.7176 3.79694 36.5016 6.07704 37.2851 8.35741C37.3269 8.4769 37.3648 8.59803 37.412 8.71588C38.2724 6.27291 39.1176 3.82449 39.9742 1.38044C40.0399 1.1963 40.1624 1.02334 40.3427 0.937404C40.6106 0.812186 40.9541 0.861019 41.1707 1.0648C41.3303 1.2113 41.4181 1.43745 41.3824 1.65297C41.3597 1.78201 41.3139 1.90559 41.2719 2.02917C40.2677 4.81614 39.2638 7.60311 38.2593 10.3898C38.1816 10.6067 38.052 10.8148 37.8547 10.9411C37.651 11.0743 37.3882 11.0871 37.158 11.0263C36.8961 10.9534 36.7065 10.7262 36.6176 10.4774C35.7798 8.07015 34.9507 5.65992 34.1089 3.25406C33.255 5.67247 32.4167 8.09634 31.5641 10.515C31.4741 10.7425 31.2971 10.948 31.0573 11.0208C30.8096 11.0945 30.5228 11.0702 30.3098 10.9163C30.1292 10.7889 30.0102 10.5925 29.938 10.3871C28.9392 7.60311 27.9405 4.81887 26.9412 2.0349C26.8907 1.88649 26.8307 1.73645 26.8272 1.5774C26.8253 1.31115 26.9958 1.05935 27.2336 0.945588Z" fill="#696566"/>
<path d="M52.2588 0.984799C52.555 0.77774 52.9978 0.845123 53.2269 1.12202C53.362 1.27588 53.4141 1.4854 53.4054 1.687C53.4054 2.22715 53.4029 2.76758 53.4065 3.308C53.7398 2.57498 54.2797 1.93634 54.9582 1.50067C55.4558 1.17849 56.0232 0.948789 56.6165 0.892045C56.8299 0.870221 57.0629 0.874859 57.2465 1.00117C57.6387 1.25679 57.672 1.89542 57.3196 2.19851C57.1793 2.32481 56.9917 2.37828 56.8081 2.39738C55.8909 2.52014 55.0086 2.96891 54.4172 3.68829C53.7826 4.44505 53.4913 5.43342 53.4242 6.40543C53.3893 6.96877 53.4116 7.53375 53.4054 8.09763C53.4048 8.83448 53.4062 9.5716 53.4048 10.3084C53.4073 10.596 53.236 10.8821 52.9689 10.9967C52.6377 11.1473 52.2078 11.0134 52.028 10.6953C51.9249 10.5308 51.9172 10.3316 51.9235 10.1434C51.924 7.30595 51.9232 4.46851 51.9235 1.63107C51.9175 1.37709 52.0471 1.12557 52.2588 0.984799Z" fill="#696566"/>
<path d="M59.5833 1.67938C60.3663 1.12313 61.335 0.842416 62.2936 0.875698C63.2062 0.894249 64.1203 1.18833 64.8414 1.75495C65.4655 2.23918 65.9408 2.90073 66.2433 3.62748C66.5314 4.31576 66.6713 5.06188 66.6793 5.80691C66.6839 5.93759 66.6642 6.07126 66.6018 6.18748C66.4894 6.40736 66.2496 6.55413 66.0024 6.55331C63.6519 6.55576 61.3015 6.55003 58.9507 6.55604C59.0306 7.42164 59.3599 8.28589 59.9786 8.91034C60.5853 9.53506 61.4523 9.8788 62.3193 9.88698C62.8221 9.89462 63.3284 9.81605 63.7987 9.63545C64.2423 9.46822 64.6485 9.21179 65.0086 8.90543C65.1439 8.79167 65.2683 8.65172 65.4432 8.5988C65.7326 8.5085 66.0687 8.66891 66.1907 8.94444C66.2968 9.16487 66.2499 9.44531 66.0791 9.62018C65.6341 10.0632 65.1264 10.4506 64.5544 10.7141C64.062 10.9444 63.5278 11.0789 62.9882 11.1342C62.4922 11.1825 61.9887 11.1831 61.4968 11.0966C60.6388 10.9523 59.8207 10.5698 59.1676 9.99419C58.3694 9.29963 57.8303 8.33008 57.6107 7.29888C57.3777 6.19211 57.4432 5.01387 57.8469 3.95403C58.1896 3.04995 58.7887 2.2359 59.5833 1.67938ZM61.263 2.23972C60.7654 2.39249 60.3166 2.68794 59.9644 3.06959C59.3607 3.71969 59.0342 4.59048 58.9499 5.46536C61.0426 5.47027 63.1352 5.46755 65.2279 5.467C65.2017 5.14591 65.1453 4.82727 65.0585 4.51709C64.8526 3.77888 64.4447 3.07096 63.8096 2.62301C63.0823 2.10796 62.11 1.98519 61.263 2.23972Z" fill="#696566"/>
<path d="M67.8683 0.887411C68.2491 0.837488 68.6499 0.977164 68.912 1.25924C69.2015 1.55987 69.3153 2.01273 69.2105 2.41566C69.1126 2.81341 68.804 3.15169 68.4155 3.28236C67.972 3.43813 67.4441 3.30992 67.1263 2.96263C66.8082 2.62954 66.7094 2.11285 66.8723 1.68345C67.0242 1.26197 67.422 0.939789 67.8683 0.887411ZM67.8129 1.12748C67.3571 1.21669 67.0128 1.66081 67.0272 2.12294C67.0191 2.5698 67.3467 2.99755 67.7856 3.09222C68.2011 3.19916 68.6684 2.99892 68.876 2.62354C69.1218 2.21188 69.0283 1.62998 68.6513 1.32881C68.4221 1.1373 68.1032 1.0661 67.8129 1.12748Z" fill="#696566"/>
<path d="M44.852 0.959995C45.3531 0.909799 45.8584 0.899705 46.3614 0.921529C46.9859 0.955903 47.6133 1.07294 48.1843 1.33537C48.8666 1.6431 49.4416 2.18952 49.7627 2.86799C49.9916 3.34158 50.1067 3.86318 50.1496 4.3856C50.1766 4.69469 50.1703 5.00514 50.1711 5.31505C50.1711 6.99798 50.1711 8.68064 50.1711 10.3636C50.1755 10.5755 50.0966 10.7932 49.9357 10.9354C49.6708 11.1763 49.2212 11.1716 48.9623 10.9245C48.8243 10.7946 48.7517 10.6047 48.7536 10.4165C48.7517 10.1049 48.755 9.79313 48.7525 9.48132C48.4415 9.86952 48.0803 10.2209 47.6591 10.488C46.7682 11.0679 45.6658 11.269 44.6176 11.152C43.8148 11.0587 43.0157 10.7654 42.4057 10.2239C42.0042 9.87143 41.703 9.4033 41.5639 8.88633C41.4408 8.43566 41.4335 7.95825 41.5033 7.49803C41.5816 7.00343 41.79 6.52739 42.1157 6.14546C42.4565 5.74171 42.9112 5.44599 43.3971 5.24657C44.4398 4.821 45.5926 4.79917 46.7002 4.88593C47.3951 4.93967 48.0806 5.07934 48.7514 5.26621C48.7632 4.78308 48.7479 4.28876 48.5826 3.82908C48.4287 3.3795 48.1314 2.97766 47.7344 2.71386C47.2355 2.37721 46.6277 2.24572 46.034 2.21926C45.2871 2.19771 44.5208 2.24845 43.8205 2.52971C43.6445 2.58946 43.4817 2.69012 43.2962 2.71849C42.9639 2.76623 42.6221 2.51116 42.5735 2.17916C42.55 1.99311 42.5888 1.78796 42.72 1.64746C42.845 1.51079 43.0264 1.45295 43.192 1.38257C43.7217 1.1646 44.2813 1.01728 44.852 0.959995ZM44.7985 6.04343C44.3405 6.13973 43.8876 6.3217 43.5371 6.63897C43.2539 6.89213 43.0583 7.24023 42.9906 7.61397C42.9129 8.04909 42.9554 8.51886 43.1778 8.90734C43.4075 9.31818 43.8033 9.61472 44.2354 9.78713C44.8315 10.028 45.4947 10.0558 46.1249 9.95845C46.9133 9.8346 47.69 9.47504 48.2088 8.85469C48.5591 8.43975 48.7654 7.90423 48.7697 7.36026C48.7692 7.02717 48.776 6.6938 48.7664 6.36098C48.0171 6.14765 47.2461 6.00497 46.4678 5.95941C45.911 5.92831 45.3463 5.92476 44.7985 6.04343Z" fill="#696566"/>
<path d="M67.628 1.50856C67.6959 1.46792 67.7802 1.48728 67.8566 1.48237C68.0312 1.49001 68.2205 1.45646 68.3814 1.54321C68.606 1.66324 68.6333 2.02525 68.4316 2.17912C68.4005 2.20449 68.3681 2.22768 68.337 2.25141C68.4049 2.33789 68.4848 2.41673 68.5402 2.51276C68.5825 2.5886 68.5124 2.68844 68.4284 2.68271C68.3588 2.68571 68.3111 2.62924 68.2718 2.58068C68.1951 2.48384 68.122 2.38454 68.0413 2.29178C67.9728 2.29233 67.9046 2.2926 67.8372 2.29233C67.8331 2.39654 67.8473 2.50294 67.8255 2.60551C67.7807 2.72882 67.572 2.69226 67.5772 2.55913C67.5707 2.26805 67.5775 1.97642 67.5742 1.68534C67.5748 1.62396 67.5685 1.54703 67.628 1.50856ZM67.8361 1.72026C67.8342 1.83375 67.8342 1.94723 67.8364 2.06072C67.9545 2.05745 68.0759 2.07545 68.1924 2.04626C68.3334 2.00725 68.3345 1.77318 68.1935 1.7339C68.0765 1.70526 67.9548 1.72353 67.8361 1.72026Z" fill="#696566"/>
</svg>
