<svg width="91" height="22" viewBox="0 0 91 22" fill="none" xmlns="http://www.w3.org/2000/svg">
<path d="M79.6193 0.207634C80.1294 0.13627 80.6904 0.234703 81.0897 0.577988C81.2903 0.744094 81.4244 1.00494 81.3924 1.26887C81.233 3.08557 81.0694 4.90104 80.9113 6.71775C80.9045 6.92261 80.7882 7.11087 80.6184 7.22222C80.2653 7.45723 79.791 7.47937 79.4046 7.31696C79.1721 7.21791 78.9605 7.01182 78.9482 6.74666C78.7894 4.89981 78.619 3.05419 78.464 1.20734C78.464 0.610594 79.1007 0.280844 79.6193 0.207634Z" fill="#FDBB30"/>
<path d="M71.6161 4.72573C71.8554 4.65867 72.1236 4.70174 72.3211 4.858C73.8038 5.89647 75.2852 6.93617 76.7678 7.97463C76.9235 8.07491 77.0342 8.23979 77.0545 8.42558C77.1117 8.8716 76.8761 9.32378 76.5199 9.58463C76.3181 9.73781 76.032 9.80856 75.7995 9.68306C74.1347 8.90729 72.4706 8.13213 70.8059 7.35635C70.4084 7.16133 70.3075 6.65809 70.3715 6.25636C70.4859 5.58517 70.9455 4.92875 71.6161 4.72573Z" fill="#FDBB30"/>
<path d="M87.7399 4.74238C88.0408 4.62979 88.3767 4.73438 88.6344 4.90602C89.0915 5.21855 89.4071 5.72978 89.4871 6.27732C89.5246 6.58 89.492 6.91652 89.2939 7.16198C89.1647 7.33609 88.9488 7.39884 88.7636 7.49112C87.3493 8.14939 85.9349 8.80828 84.5212 9.46716C84.2769 9.56313 84.0518 9.73539 83.7835 9.74954C83.3467 9.7194 83.0139 9.34597 82.8693 8.95777C82.7506 8.64217 82.7488 8.20906 83.0564 7.99989C84.2259 7.17982 85.3941 6.35729 86.5649 5.53907C86.9598 5.27945 87.3247 4.96877 87.7399 4.74238Z" fill="#FDBB30"/>
<path d="M75.9346 12.1365C76.2009 12.0695 76.4673 12.2147 76.6562 12.3937C76.9392 12.6755 77.1231 13.0913 77.045 13.4943C77.0161 13.6598 76.9134 13.8031 76.7731 13.8936C75.2898 14.9327 73.8053 15.9699 72.3227 17.0102C72.0846 17.2009 71.7462 17.2145 71.4737 17.0933C70.7398 16.7697 70.2544 15.9158 70.3799 15.1203C70.4272 14.8355 70.6143 14.5697 70.8905 14.4694C72.5743 13.6973 74.244 12.8908 75.9346 12.1365Z" fill="#FDBB30"/>
<path d="M83.624 12.1427C83.8664 12.0584 84.0953 12.2042 84.3082 12.3026C85.8216 13.0046 87.3325 13.7114 88.8465 14.4128C89.0077 14.4878 89.1861 14.5567 89.2944 14.7068C89.522 14.9966 89.5356 15.3953 89.4593 15.7416C89.3233 16.3156 88.9407 16.8521 88.3913 17.0914C88.1181 17.212 87.7792 17.2021 87.5398 17.0132C86.0437 15.9656 84.5469 14.9191 83.0531 13.8689C82.7892 13.693 82.7566 13.3325 82.8292 13.0489C82.9307 12.649 83.2143 12.262 83.624 12.1427Z" fill="#FDBB30"/>
<path d="M79.7398 14.4614C80.1076 14.4152 80.5291 14.5001 80.7795 14.7942C80.8791 14.9043 80.9043 15.0563 80.9166 15.1996C81.0717 16.9991 81.2353 18.798 81.3922 20.5974C81.431 20.91 81.2378 21.2022 80.9874 21.3726C80.5235 21.6925 79.912 21.7522 79.3755 21.6076C79.0353 21.5079 78.6841 21.3166 78.5296 20.9807C78.4189 20.7617 78.4761 20.5119 78.4927 20.28C78.6379 18.6614 78.7794 17.0422 78.9221 15.4229C78.9455 15.2212 78.9234 14.9948 79.0538 14.8237C79.2144 14.609 79.4795 14.4964 79.7398 14.4614Z" fill="#FDBB30"/>
<path d="M90.2592 16.3003C90.5902 16.152 91.0024 16.4725 90.9187 16.8318C90.8615 17.1954 90.362 17.3467 90.1023 17.0957C89.8341 16.8773 89.9288 16.4005 90.2592 16.3003ZM90.2678 16.4264C90.0353 16.5507 90.0279 16.9419 90.2709 17.0588C90.4665 17.18 90.7428 17.0434 90.7748 16.817C90.8523 16.5371 90.5194 16.2769 90.2678 16.4264Z" fill="#FDBB30"/>
<path d="M90.2365 16.5162C90.37 16.5156 90.5047 16.5186 90.6388 16.5377C90.6234 16.694 90.6302 16.8502 90.6511 17.0065C90.5607 16.9548 90.4856 16.8853 90.421 16.8072C90.3706 16.881 90.3183 16.953 90.2592 17.0194C90.2334 16.8527 90.2346 16.6841 90.2365 16.5162ZM90.3829 16.6128C90.3497 16.7112 90.3835 16.745 90.4856 16.7137C90.5176 16.6152 90.4832 16.5814 90.3829 16.6128Z" fill="#FDBB30"/>
<path d="M0.466797 4.69435C1.4013 4.69189 2.33641 4.69436 3.27152 4.69313C3.78276 7.35943 4.33398 10.0184 4.804 12.6927C4.91474 13.266 4.9818 13.848 5.11284 14.4177C5.21311 14.0178 5.25433 13.6056 5.34169 13.2027C5.93106 10.353 6.62932 7.528 7.28205 4.69189C8.20671 4.69374 9.13136 4.69374 10.0566 4.69189C10.646 7.54276 11.3135 10.3789 11.8087 13.2488C11.8783 13.6161 11.9053 13.9907 11.9915 14.3549C12.5464 11.1171 13.2631 7.90942 13.9244 4.69189C14.8116 4.69497 15.6987 4.69189 16.5858 4.69374C15.4864 8.85438 14.3865 13.015 13.2877 17.1763C12.6534 17.3006 11.9748 17.3824 11.3529 17.1529C10.9185 16.9966 10.566 16.6546 10.3655 16.2424C10.1225 15.7607 10.0542 15.2193 9.93298 14.6995C9.44143 12.3709 8.85452 10.0577 8.55307 7.6941C8.49032 7.92973 8.46079 8.17212 8.41526 8.41143C8.18948 9.70952 7.86096 10.9861 7.54229 12.2639C7.14425 13.9009 6.73575 15.5355 6.33894 17.1732C5.60008 17.3055 4.7757 17.4261 4.08913 17.0428C3.48685 16.6921 3.22969 15.9914 3.06358 15.3516C2.20045 11.7988 1.33424 8.24594 0.466797 4.69435Z" fill="#007CC2"/>
<path d="M25.8387 4.6925C26.6834 4.69374 27.5275 4.69312 28.3722 4.69312C28.374 8.85315 28.3716 13.0132 28.3734 17.1738C27.5287 17.1732 26.684 17.172 25.8387 17.1744C25.84 13.0138 25.84 8.85315 25.8387 4.6925Z" fill="#007CC2"/>
<path d="M61.5208 4.69189C62.3556 4.69497 63.1898 4.69251 64.0246 4.69374C64.0234 5.67746 64.024 6.66179 64.0246 7.64612C64.7598 7.6455 65.495 7.64735 66.2308 7.64488C66.2289 8.44219 66.2302 9.23889 66.2302 10.0356C65.4938 10.0356 64.758 10.0356 64.0222 10.0356C64.0259 11.2162 64.0234 12.3974 64.0234 13.5779C64.0259 13.9686 64.0499 14.3752 64.2215 14.7333C64.347 14.9966 64.6066 15.1818 64.8952 15.2236C65.3092 15.2821 65.7306 15.2199 66.1373 15.1363C66.1502 15.797 66.1588 16.4577 66.1693 17.1191C65.4322 17.3319 64.654 17.4353 63.8881 17.3547C63.14 17.2679 62.3808 16.8976 61.9982 16.2246C61.5737 15.4814 61.5275 14.5992 61.5214 13.7631C61.5214 10.7394 61.5226 7.71563 61.5208 4.69189Z" fill="#007CC2"/>
<path d="M16.6689 8.42127C17.8439 7.7833 19.2084 7.54891 20.5354 7.59813C21.497 7.64242 22.5109 7.92849 23.1839 8.6532C23.6939 9.17798 23.9615 9.89162 24.0741 10.604C24.1965 11.405 24.1338 12.2183 24.1498 13.0249C24.167 14.4091 24.0821 15.8031 24.2974 17.1769C23.7401 17.3288 23.115 17.3953 22.5785 17.1357C22.1744 16.9431 21.8975 16.5598 21.7511 16.1452C21.131 16.9111 20.1639 17.3473 19.1857 17.3768C18.261 17.4365 17.2798 17.1172 16.6726 16.3937C15.6858 15.2599 15.8045 13.3645 16.8996 12.3432C17.692 11.5816 18.7969 11.2629 19.8587 11.1048C20.4155 11.0267 20.9784 11.0014 21.5401 10.9935C21.5573 10.5222 21.4109 10.0042 20.9975 9.73289C20.4352 9.35639 19.7148 9.38407 19.0706 9.46343C18.4013 9.56002 17.7486 9.78272 17.166 10.1291C17.0023 9.5594 16.835 8.99034 16.6689 8.42127ZM20.2217 12.7683C19.7504 12.8612 19.2614 13.0236 18.9255 13.3848C18.5686 13.7594 18.5059 14.3445 18.6775 14.8188C18.8233 15.2119 19.2152 15.4734 19.6262 15.5134C20.4918 15.6383 21.4435 15.0415 21.5918 14.1556C21.6428 13.6573 21.6034 13.1553 21.617 12.6557C21.15 12.6631 20.6806 12.6748 20.2217 12.7683Z" fill="#007CC2"/>
<path d="M33.2647 8.28293C34.0017 7.63696 35.0636 7.48008 36.003 7.65849C36.8735 7.82644 37.605 8.47303 37.9348 9.28818C38.4392 8.54624 39.1707 7.92734 40.0529 7.7034C40.961 7.47701 41.9994 7.56683 42.7635 8.14451C43.3264 8.55485 43.6968 9.18113 43.8918 9.84186C44.0807 10.4521 44.1336 11.0938 44.1373 11.7299C44.1373 13.5454 44.136 15.3603 44.1373 17.1757C43.2883 17.1696 42.4393 17.1751 41.5903 17.1733C41.5897 15.4009 41.5946 13.6278 41.5879 11.8554C41.5626 11.207 41.4581 10.4768 40.9517 10.0178C40.3224 9.48504 39.2858 9.6696 38.8071 10.3186C38.4134 10.7991 38.3956 11.4488 38.4146 12.0406C38.4146 13.7527 38.4152 15.4648 38.4146 17.177C37.5656 17.1677 36.7173 17.1757 35.8689 17.1733C35.8695 15.4015 35.8707 13.6291 35.8683 11.8573C35.8627 11.2679 35.7871 10.6287 35.3946 10.1605C35.0322 9.71882 34.377 9.60439 33.8559 9.79695C33.1429 10.083 32.684 10.8508 32.6957 11.6093C32.6926 13.4648 32.6944 15.3203 32.6944 17.1757C31.8448 17.1702 30.9952 17.1733 30.145 17.1745C30.1462 14.0493 30.1462 10.9246 30.145 7.79937C30.9509 7.80061 31.7562 7.80061 32.5622 7.79937C32.5659 8.23125 32.5517 8.66251 32.5726 9.09377C32.7873 8.81139 32.9885 8.51178 33.2647 8.28293Z" fill="#007CC2"/>
<path d="M45.8137 8.41887C47.014 7.77352 48.4056 7.53728 49.7578 7.60249C50.712 7.65478 51.7093 7.96362 52.3675 8.69018C53.0264 9.40935 53.2639 10.4103 53.2885 11.3626C53.3045 12.7161 53.2836 14.0695 53.2996 15.423C53.31 16.0111 53.3525 16.5987 53.4411 17.18C52.8591 17.3338 52.199 17.4027 51.652 17.0976C51.2786 16.8995 51.0387 16.531 50.8923 16.1452C50.3133 16.865 49.4238 17.2963 48.5089 17.3652C47.604 17.4581 46.6301 17.2157 45.9737 16.5611C44.8835 15.5085 44.8805 13.5921 45.9005 12.4928C46.528 11.7927 47.4379 11.4322 48.3348 11.2254C49.1051 11.0532 49.8969 11.0015 50.6843 10.9947C50.6899 10.585 50.6031 10.139 50.2857 9.85169C49.8353 9.4315 49.1728 9.39274 48.5889 9.42473C47.7898 9.48133 47.0005 9.71942 46.312 10.1298C46.1472 9.55885 45.9768 8.98978 45.8137 8.41887ZM48.5416 13.0385C48.194 13.2052 47.8925 13.4986 47.7879 13.8782C47.6778 14.2861 47.7147 14.7629 47.9866 15.1025C48.1903 15.3633 48.5188 15.4956 48.8424 15.5202C49.6766 15.6032 50.5674 15.033 50.7311 14.1889C50.7932 13.6807 50.7483 13.1664 50.7624 12.6558C50.0119 12.6669 49.2269 12.6982 48.5416 13.0385Z" fill="#007CC2"/>
<path d="M59.2832 7.67074C59.6714 7.56246 60.0818 7.57292 60.4767 7.64059C60.4724 8.45943 60.478 9.27827 60.4736 10.0977C59.8357 9.99807 59.1362 9.98084 58.5659 10.3284C58.086 10.6034 57.7686 11.1079 57.6609 11.6431C57.6037 11.936 57.5951 12.235 57.5945 12.5321C57.5963 14.0793 57.5939 15.6272 57.5957 17.1744C56.724 17.1714 55.8528 17.1738 54.9811 17.1732C54.9811 14.0486 54.9829 10.9246 54.9805 7.79993C55.7458 7.80055 56.5111 7.79993 57.2764 7.80055C57.2869 8.40775 57.2506 9.01681 57.2973 9.6234C57.4118 9.421 57.4887 9.20014 57.6049 8.99897C57.9624 8.36038 58.5696 7.85469 59.2832 7.67074Z" fill="#007CC2"/>
</svg>
